<svg version="1.1" id="Layer_1" xmlns="http://www.w3.org/2000/svg" viewBox="0 0 100 100"><style>.st0{fill:#666}.st1{fill:#212121}@media (prefers-color-scheme:dark){.st0{fill:#666}.st1{fill:#e5e5e5}}</style><path class="st0" d="M21.33 23.82c.17 0 .32.04.45.11.01.01.03.01.04.01.86.13 1.53.51 2.03 1.16s.64 1.42.43 2.32v.06c-.13.61-.47 1.14-1.04 1.59-.58.45-1.17.67-1.78.67-.04 0-.11-.01-.18-.04a.82.82 0 0 0-.18-.03c-.1-.02-.22-.04-.38-.05-2.9.1-5.25.89-7.05 2.37-1.88 1.58-2.82 3.62-2.82 6.11 0 1.63.53 3.07 1.6 4.33 1.02 1.18 2.62 2.2 4.79 3.05 1.14.49 2.35.86 3.62 1.1.37.08.73.16 1.07.24.35.08.64.14.86.18.23.04.36.06.4.06l3.26.73c9.17 2.57 13.75 7.22 13.75 13.98 0 2.76-.73 5.25-2.21 7.45-1.47 2.2-3.52 3.91-6.14 5.13-2.66 1.22-5.71 1.83-9.14 1.83h-.37c-.16-.04-.41-.06-.73-.06-.57 0-1.17-.27-1.78-.79-.53-.49-.86-1.02-.98-1.59v-.06c0-.08-.01-.16-.03-.24-.02-.08-.04-.16-.04-.24 0-.81.29-1.5.86-2.07.53-.53 1.23-.79 2.09-.79h.13c.52 0 .92.02 1.2.06 3.39-.04 6.12-.86 8.19-2.44 2.04-1.55 3.07-3.6 3.07-6.17 0-1.91-.54-3.42-1.6-4.52-1.07-1.14-2.45-2.04-4.18-2.69-1.35-.53-3.56-1.14-6.63-1.83-5.03-1.1-9.11-2.7-12.22-4.83C6.55 45.81 5 42.57 5 38.22c0-2.76.67-5.25 2.03-7.45s3.25-3.91 5.71-5.13c2.12-1.05 4.55-1.65 7.29-1.79.14-.02.29-.04.45-.04h.13c.05 0 .12.01.19.01h.53zM33.06 28.27c.86 0 1.55.3 2.09.92.2.2.47.51.8.91.53.66.74 1.41.61 2.26-.13.77-.53 1.42-1.23 1.95l-.06.06c-.46.29-.99.43-1.6.43-.98 0-1.74-.35-2.28-1.04-.08-.08-.16-.18-.24-.3-.08-.13-.16-.21-.24-.24-.53-.53-.8-1.2-.8-2.02 0-.53.16-1.05.49-1.58v-.06c.53-.86 1.35-1.29 2.46-1.29zM8.38 64.34c.86 0 1.55.3 2.08.92.41.41.7.71.86.92.49.61.67 1.35.55 2.2-.13.77-.53 1.42-1.23 1.95l-.06.06c-.53.33-1.06.49-1.6.49-.94 0-1.68-.37-2.21-1.1-.04-.08-.13-.18-.24-.3-.13-.13-.21-.2-.24-.24-.54-.53-.8-1.18-.8-1.95 0-.57.16-1.12.49-1.65.57-.87 1.37-1.3 2.4-1.3z"/><path class="st1" d="M58.17 23.26h-.18c-.82 0-1.54.3-2.15.92-.61.61-.92 1.32-.92 2.14v47.36c0 .82.31 1.52.92 2.14.61.61 1.33.92 2.15.92s1.54-.3 2.15-.92c.61-.61.92-1.32.92-2.14l.13-47.36c0-.82-.3-1.52-.89-2.14-.6-.61-1.3-.92-2.13-.92zM91.94 23.26h-.13c-.82 0-1.54.3-2.15.92-.61.61-.92 1.32-.92 2.14V64l-15.9-22.87c-.57-.85-1.41-1.28-2.52-1.28-.66 0-1.24.18-1.78.55-.82.53-1.23 1.36-1.23 2.5 0 .65.18 1.24.55 1.77l21.37 30.67c.32.46.69.8 1.13 1.02.44.25.92.38 1.45.38.82 0 1.52-.3 2.12-.92.6-.61.89-1.32.89-2.14L95 26.32c0-.82-.31-1.52-.92-2.14-.6-.61-1.32-.92-2.14-.92z"/></svg>