<svg xmlns="http://www.w3.org/2000/svg" viewBox="0 0 572 94.6" style="enable-background:new 0 0 572 94.6" xml:space="preserve"><style>.st0{fill:#fff}.st1{opacity:.6;fill:#fff;enable-background:new}</style><g id="Capa_1"><g id="Grupo_181"><g id="Grupo_180"><g id="Grupo_179" transform="translate(56.518)"><g id="Grupo_177" transform="translate(67.767)"><path id="Trazado_313" class="st0" d="M3.1 0h-.2C2.1 0 1.4.3.8.9s-.9 1.3-.9 2.2v47.8c0 .8.3 1.6.9 2.2 1 1.1 2.8 1.2 3.9.2l.2-.2c.6-.6.9-1.3.9-2.2l.1-47.8c0-.8-.3-1.6-.9-2.2C4.7.4 3.9 0 3.1 0z"/><path id="Trazado_314" class="st0" d="M35.7 0h-.1c-.8 0-1.5.3-2.1.9s-.9 1.3-.9 2.2v38L17.3 18c-.5-.8-1.4-1.3-2.4-1.3-.6 0-1.2.2-1.7.6-.8.6-1.3 1.5-1.2 2.5 0 .6.2 1.3.5 1.8l20.6 30.9c.3.4.6.8 1.1 1 1.1.7 2.6.4 3.4-.5.6-.6.9-1.4.9-2.2L38.7 3c0-.8-.3-1.6-.9-2.2-.6-.4-1.3-.8-2.1-.8z"/><path id="Trazado_315" class="st0" d="M86.9 2.5c-.6-1.7-2.5-2.6-4.2-2-.9.3-1.6 1-2 2L62.8 49c-.1.4-.2.8-.2 1.2 0 .9.3 1.8 1 2.4.6.7 1.4 1 2.3 1 .7 0 1.3-.2 1.8-.6.6-.4 1-.9 1.2-1.5l4.2-11 2.5-6.8 6.2-16.6c.6-1.5 1.2-2.2 1.8-2.2s1.3.8 1.8 2.2l6.2 16.6h-.1l2.7 7.1 4 10.6c.3.6.7 1.2 1.2 1.6.5.4 1.2.6 1.8.6.9 0 1.8-.4 2.4-1 .7-.7 1-1.5 1-2.5 0-.4-.1-.9-.2-1.3L86.9 2.5z"/><path id="Trazado_316" class="st0" d="M166.2 7.1c1.1.8 1.8 1.4 2.1 1.6.6.6 1.4.8 2.2.7.8-.1 1.6-.5 2.1-1.1v-.1c.6-.7.9-1.6.9-2.5v-.4c-.1-1-.6-1.9-1.3-2.5-.9-.8-1.8-1.5-2.8-2.1-.5-.3-1-.5-1.5-.5s-.9.1-1.4.4c-1.1.6-1.9 1.7-1.9 3-.2 1.4.4 2.7 1.6 3.5z"/><path id="Trazado_317" class="st0" d="M171.3 40.9c-.8-.1-1.7.2-2.3.8-3.7 3.2-8.5 4.9-13.4 4.9-5.7 0-10.3-1.9-13.7-5.7-3.4-3.8-5.1-8.9-5.1-15.3 0-2.9.4-5.8 1.3-8.6.3-.9.3-1.9.1-2.8-.2-.9-.7-1.7-1.4-2.2-.6-.5-1.4-.8-2.1-.7-.3 0-.6 0-.9.1-1.2.3-2.1 1.1-2.5 2.3-1.5 3.7-2.3 7.8-2.3 11.8 0 8.1 2.5 14.8 7.6 20.2 4.9 5.3 11.8 8.3 19 8.1 6.5.1 12.8-2.2 17.7-6.4.8-.7 1.2-1.7 1.2-2.8 0-.9-.3-1.8-.9-2.5-.6-.8-1.4-1.2-2.3-1.2z"/><path id="Trazado_318" class="st0" d="M201.5 19.3c-.9-.1-1.7 0-2.5.3-.2.2-.4 1.1-.4 2.6v28.4c0 1.5.1 2.4.4 2.6s1.1.4 2.5.4c1.5 0 2.3-.1 2.5-.4.2-.2.4-1.1.4-2.6V22.3c0-1.5-.1-2.4-.4-2.6-.8-.4-1.7-.5-2.5-.4z"/><path id="Trazado_319" class="st0" d="M201.5.4c-1.5 0-2.3.1-2.5.4-.3.8-.5 1.7-.4 2.6v5.4c0 1.5.1 2.4.4 2.6 1.7.5 3.4.5 5.1 0 .2-.2.4-1.1.4-2.6V3.4c0-1.5-.1-2.4-.4-2.6-.3-.3-1.2-.4-2.6-.4z"/><path id="Trazado_320" class="st0" d="M262.6 3.7c-8-4.8-18-4.8-26 0-3.9 2.4-7.2 5.8-9.4 9.8-2.3 4.1-3.5 8.8-3.5 13.5 0 9.5 4.9 18.3 13 23.3 7.9 4.8 17.9 4.8 25.9 0 8.1-5 13-13.8 13-23.3 0-4.7-1.2-9.4-3.5-13.5-2.3-4-5.5-7.4-9.5-9.8zm4.4 33.7c-.9 1.5-2 3-3.3 4.2-1.2 1.3-2.6 2.4-4.1 3.4-3 1.9-6.5 2.9-10.1 2.8h-.1c-1.7-.1-3.4-.3-5.1-.9-1.7-.4-3.3-1.1-4.8-2s-2.9-2.1-4.1-3.4c-6.5-6.8-7.8-17-3.3-25.2.9-1.6 2-3 3.3-4.2 1.2-1.3 2.6-2.4 4-3.4 3-1.9 6.5-2.8 10.1-2.8s7.1.9 10.1 2.8c9.7 6.3 12.9 18.8 7.4 28.7z"/><path id="Trazado_321" class="st0" d="M300.5 1.4c-.3-.4-.6-.8-1.1-1-1.1-.7-2.6-.4-3.4.5-.6.6-.9 1.4-.9 2.2l-.2 47.8c0 .8.3 1.6.9 2.2.5.6 1.3.9 2.1.9h.1c.8 0 1.5-.3 2.1-.9.6-.6.9-1.3.9-2.2V13.5l15.8 25.6c.5.8 1.4 1.3 2.4 1.3.6 0 1.2-.2 1.7-.6.8-.6 1.3-1.5 1.2-2.5 0-.6-.2-1.3-.5-1.8L300.5 1.4z"/><path id="Trazado_322" class="st0" d="M330.7 0c-.8 0-1.5.3-2.1.9-.6.6-.9 1.3-.9 2.2l-.1 47.8c0 .8.3 1.6.9 2.2.5.6 1.3.9 2 .9h.2c.8 0 1.5-.3 2.1-.9.6-.6.9-1.3.9-2.2V3.1c0-.8-.3-1.6-.9-2.2-.6-.5-1.4-.9-2.1-.9z"/><path id="Trazado_323" class="st0" d="M386.8 47.7H379c-1.4 0-2.3.1-2.5.4a9.2 9.2 0 0 0 0 5.2c.2.2 1.1.4 2.5.4h7.8c.9.1 1.7 0 2.5-.4.3-.2.4-1.1.4-2.6s-.1-2.3-.4-2.6c-.7-.4-1.6-.5-2.5-.4z"/><path id="Trazado_324" class="st0" d="M386.8.3H379c-1.4 0-2.3.1-2.5.4a9.2 9.2 0 0 0 0 5.2c.2.2 1.1.4 2.5.4h7.8c.9.1 1.7 0 2.5-.4.3-.2.4-1.1.4-2.6s-.1-2.3-.4-2.6c-.7-.3-1.6-.5-2.5-.4z"/><path id="Trazado_325" class="st0" d="M383.7 28.4c.5-.6.8-1.3.8-2.1v-.1c0-.8-.3-1.5-.9-2.1-.5-.5-1.3-.8-2-.8h-17.3V3.7c0-.9-.4-1.8-1-2.4-.6-.7-1.5-1-2.4-1s-1.7.4-2.3 1-1 1.5-1 2.4v46.4c0 .9.3 1.8 1 2.4.6.7 1.4 1 2.3 1s1.8-.4 2.4-1c.7-.6 1-1.5 1-2.4V29.2h17.3c.8.1 1.6-.2 2.1-.8z"/><path id="Trazado_326" class="st0" d="M439 10.3c.1.1.1.2.2.3.5.7 1.3 1.1 2.2 1 .5 0 1.1-.1 1.5-.4l.1-.1c.6-.5 1.1-1.2 1.2-2 .1-.8-.1-1.6-.6-2.3-.2-.3-.5-.6-.8-.9-.5-.6-1.2-.9-2-.9-1-.1-1.9.4-2.4 1.3v.1c-.3.5-.5 1-.5 1.6 0 .8.3 1.5.8 2 .2.1.3.2.3.3z"/><path id="Trazado_327" class="st0" d="M419.1 42.4c-.5-.6-1.2-.9-2-.9-.9 0-1.8.5-2.3 1.3-.3.5-.5 1.1-.5 1.7 0 .7.3 1.4.8 2l.2.2c.1.1.2.2.2.3.5.7 1.3 1.1 2.1 1.1.5 0 1.1-.2 1.5-.5l.1-.1c.6-.5 1.1-1.2 1.2-2s-.1-1.6-.5-2.2c-.2-.2-.4-.5-.8-.9z"/><path id="Trazado_328" class="st0" d="m434.5 24.8-3.1-.7c-.1 0-.3 0-.4-.1-.2 0-.5-.1-.8-.2-.3-.1-.7-.2-1-.2-1.2-.2-2.4-.6-3.5-1.1-1.8-.6-3.3-1.7-4.6-3.1-1-1.2-1.6-2.8-1.5-4.4-.1-2.4.9-4.6 2.7-6.2 1.9-1.6 4.3-2.4 6.8-2.4h.8c1.3-.1 2.4-1 2.7-2.3V4c.4-1.5-.5-3-2-3.4-.1 0-.3-.1-.4-.1-.3.1-.5.1-.6.1h-1.2c-2.4.1-4.8.7-7 1.8-2.3 1.2-4.2 3-5.5 5.2-1.3 2.3-2 4.9-2 7.5 0 4.4 1.5 7.7 4.5 9.8 3.6 2.4 7.6 4 11.8 4.9 2.2.5 4.3 1.1 6.4 1.8 1.5.6 2.9 1.5 4 2.7 1.1 1.3 1.6 2.9 1.5 4.6.1 2.4-1 4.7-3 6.2-2.3 1.7-5.1 2.6-7.9 2.5-.4 0-.8-.1-1.1-.1h-.1c-.8 0-1.5.3-2 .8-.5.6-.8 1.3-.8 2.1v.5c.1.6.5 1.2.9 1.6.5.5 1.1.8 1.7.8.2 0 .5 0 .7.1h.4c3 .1 6.1-.6 8.8-1.8 2.4-1.1 4.5-2.9 5.9-5.2 1.4-2.2 2.2-4.9 2.1-7.5 0-6.8-4.4-11.5-13.2-14.1z"/></g></g><path id="Trazado_348" class="st1" d="M15.8.6c.2 0 .3 0 .4.1.8.1 1.5.5 2 1.2s.6 1.5.4 2.3v.1c-.3 1.3-1.4 2.2-2.7 2.3h-.8c-2.5 0-4.9.8-6.8 2.4-1.8 1.5-2.8 3.8-2.7 6.2 0 1.6.5 3.1 1.5 4.4C8.4 21 10 22 11.7 22.7c1.1.5 2.3.9 3.5 1.1.4.1.7.2 1 .2s.6.1.8.2c.1 0 .3 0 .4.1l3.1.7c8.8 2.6 13.3 7.3 13.3 14.1 0 2.7-.7 5.3-2.1 7.5-1.5 2.2-3.5 4-5.9 5.2-2.8 1.3-5.8 1.9-8.8 1.8h-.4c-.2 0-.5-.1-.7-.1-.7 0-1.3-.3-1.7-.8-.5-.4-.8-1-.9-1.6v-.5c0-.8.3-1.5.8-2.1.5-.5 1.3-.8 2-.8h.1c.4 0 .8 0 1.2.1 2.8.1 5.6-.8 7.9-2.5 1.9-1.5 3-3.8 3-6.2.1-1.7-.5-3.3-1.5-4.6-1.1-1.2-2.5-2.1-4-2.7-2.1-.8-4.2-1.4-6.4-1.8-4.2-.8-8.2-2.5-11.8-4.9-3-2.1-4.5-5.4-4.5-9.8 0-2.6.6-5.2 2-7.5 1.3-2.2 3.2-4 5.5-5.2 2.2-1.1 4.6-1.7 7-1.8h.7c.1-.2.3-.2.5-.2z"/><path id="Trazado_349" class="st1" d="M27.1 5.1c.8 0 1.5.3 2 .9.3.3.5.6.8.9.5.6.7 1.5.6 2.3s-.5 1.5-1.2 2l-.1.1c-.5.3-1 .4-1.5.4-.9 0-1.7-.4-2.2-1-.1-.1-.2-.2-.2-.3-.1-.1-.1-.2-.2-.2-.5-.5-.8-1.3-.8-2 0-.6.2-1.1.5-1.6v-.1c.4-1 1.3-1.5 2.3-1.4z"/><path id="Trazado_350" class="st1" d="M3.3 41.4c.8 0 1.5.3 2 .9.4.4.7.7.8.9.5.6.7 1.4.5 2.2-.1.8-.5 1.5-1.2 2l-.1.1c-.5.3-1 .5-1.5.5-.9 0-1.7-.4-2.1-1.1-.1-.1-.1-.2-.2-.3l-.2-.2c-.5-.5-.8-1.2-.8-2 0-.6.2-1.2.5-1.7.4-.8 1.3-1.3 2.3-1.3z"/><path id="Trazado_351" class="st1" d="M79.2.3c1.4-.1 2.7.8 3.1 2.2L100 48.9c.1.4.2.9.2 1.3 0 .9-.4 1.8-1 2.5s-1.5 1-2.4 1c-.7 0-1.3-.2-1.8-.6-.6-.4-1-.9-1.2-1.6l-4-10.6-2.7-7.1h.1L81 17.2c-.6-1.5-1.2-2.2-1.8-2.2-.6 0-1.2.7-1.8 2.2l-6.2 16.6-2.5 6.8-4.2 11c-.2.6-.7 1.2-1.2 1.5-.5.4-1.2.6-1.8.6-.9 0-1.7-.4-2.3-1-.6-.6-1-1.5-1-2.4 0-.4.1-.8.2-1.2L76.3 2.6c.2-1.5 1.5-2.3 2.9-2.3z"/></g></g><path class="st0" d="M88.4 78.6v3.1c-1.4-1.2-2.9-1.9-4.4-1.9-1.7 0-3.1.6-4.2 1.9-1.2 1.3-1.7 2.8-1.7 4.6 0 1.8.6 3.3 1.7 4.5 1.2 1.2 2.6 1.8 4.2 1.8.9 0 1.6-.1 2.2-.4.3-.1.7-.3 1.1-.6.4-.3.7-.6 1.1-.9v3.1C87 94.6 85.5 95 84 95c-2.3 0-4.3-.9-6-2.6-1.6-1.7-2.5-3.8-2.5-6.2 0-2.2.7-4.1 2.1-5.8 1.7-2.1 3.9-3.1 6.6-3.1 1.4 0 2.8.4 4.2 1.3zM107.9 90.6h-7l-1.8 4.1h-2.6l8.1-18.2 7.8 18.2h-2.7l-1.8-4.1zm-1-2.5-2.4-5.8-2.5 5.8h4.9zM120.3 94.7l3.4-18.4 5.6 13.3 5.8-13.3 3.1 18.4h-2.5l-1.6-10.3-4.8 11.1-4.7-11.1-1.8 10.3h-2.5zM150.6 77.6v17.1h-2.5V77.6h2.5zM161 94.7V76.5l11.9 13V77.6h2.5v18.1l-11.9-13v12H161zM185.1 86.1c0-2.4.8-4.5 2.5-6.2 1.7-1.7 3.7-2.6 6-2.6s4.3.9 6 2.6c1.7 1.7 2.5 3.8 2.5 6.3s-.8 4.5-2.5 6.3c-1.7 1.7-3.7 2.6-6.1 2.6-2.1 0-4-.8-5.7-2.3-1.8-1.8-2.7-4-2.7-6.7zm2.4 0c0 1.9.6 3.4 1.8 4.7 1.2 1.2 2.6 1.8 4.2 1.8 1.7 0 3.2-.6 4.3-1.9 1.2-1.3 1.8-2.8 1.8-4.6 0-1.8-.6-3.3-1.7-4.6-1.2-1.2-2.6-1.9-4.3-1.9-1.7 0-3.1.6-4.3 1.9-1.2 1.3-1.8 2.8-1.8 4.6zM220.9 80.2l-2 1.2c-.4-.7-.7-1.1-1.1-1.3-.4-.2-.8-.4-1.4-.4-.7 0-1.2.2-1.7.6-.5.4-.7.9-.7 1.5 0 .8.6 1.5 1.8 2l1.6.7c1.3.6 2.3 1.2 2.9 2.1.6.8.9 1.8.9 3 0 1.6-.5 2.9-1.5 3.9S217.4 95 216 95c-1.4 0-2.6-.4-3.5-1.3-.9-.9-1.5-2.1-1.7-3.7l2.5-.6c.1 1 .3 1.7.6 2.1.5.7 1.2 1.1 2.2 1.1.8 0 1.4-.3 1.9-.8s.8-1.2.8-2c0-.3 0-.6-.1-.9-.1-.3-.2-.5-.4-.8l-.7-.7c-.3-.2-.6-.4-1.1-.6l-1.6-.7c-2.2-1-3.3-2.4-3.3-4.3 0-1.3.5-2.4 1.4-3.2.9-.9 2.1-1.3 3.5-1.3 1.9 0 3.3 1 4.4 2.9zM243.9 94.7V77.6h3.4c1.6 0 2.9.2 3.9.5s1.9.9 2.8 1.7c1.7 1.6 2.5 3.7 2.5 6.3 0 2.6-.9 4.8-2.6 6.4-.9.8-1.8 1.4-2.8 1.7-.9.3-2.2.5-3.8.5h-3.4zm2.5-2.4h1.1c1.1 0 2-.1 2.8-.4.7-.3 1.4-.7 2-1.2 1.2-1.2 1.8-2.7 1.8-4.5 0-1.9-.6-3.4-1.8-4.6-1.1-1-2.7-1.6-4.8-1.6h-1.1v12.3zM275.1 80.1h-6.5v4.1h6.3v2.4h-6.3v5.7h6.5v2.4h-9V77.6h9v2.5zM303.5 87.4l5 7.3h-3l-4.7-7h-.4v7H298V77.6h2.9c2.2 0 3.7.4 4.7 1.3 1.1.9 1.6 2.2 1.6 3.7 0 1.2-.3 2.2-1 3.1-.8.9-1.6 1.5-2.7 1.7zm-3.1-1.9h.8c2.3 0 3.5-.9 3.5-2.8 0-1.7-1.1-2.6-3.4-2.6h-.9v5.4zM326.4 80.1h-6.5v4.1h6.3v2.4h-6.3v5.7h6.5v2.4h-9V77.6h9v2.5zM345.4 80.2l-2 1.2c-.4-.7-.7-1.1-1.1-1.3-.4-.2-.8-.4-1.4-.4-.7 0-1.2.2-1.7.6-.5.4-.7.9-.7 1.5 0 .8.6 1.5 1.8 2l1.6.7c1.3.6 2.3 1.2 2.9 2.1.6.8.9 1.8.9 3 0 1.6-.5 2.9-1.5 3.9s-2.3 1.5-3.7 1.5c-1.4 0-2.6-.4-3.5-1.3-.9-.9-1.5-2.1-1.7-3.7l2.5-.6c.1 1 .3 1.7.6 2.1.5.7 1.2 1.1 2.2 1.1.8 0 1.4-.3 1.9-.8s.8-1.2.8-2c0-.3 0-.6-.1-.9-.1-.3-.2-.5-.4-.8l-.7-.7c-.3-.2-.6-.4-1.1-.6l-1.6-.7c-2.2-1-3.3-2.4-3.3-4.3 0-1.3.5-2.4 1.4-3.2.9-.9 2.1-1.3 3.5-1.3 1.9 0 3.3 1 4.4 2.9zM357.7 77.6v17.1h-2.5V77.6h2.5zM377.3 80.2l-2 1.2c-.4-.7-.7-1.1-1.1-1.3-.4-.2-.8-.4-1.4-.4-.7 0-1.2.2-1.7.6-.5.4-.7.9-.7 1.5 0 .8.6 1.5 1.8 2l1.6.7c1.3.6 2.3 1.2 2.9 2.1.6.8.9 1.8.9 3 0 1.6-.5 2.9-1.5 3.9s-2.3 1.5-3.7 1.5c-1.4 0-2.6-.4-3.5-1.3-.9-.9-1.5-2.1-1.7-3.7l2.5-.6c.1 1 .3 1.7.6 2.1.5.7 1.2 1.1 2.2 1.1.8 0 1.4-.3 1.9-.8s.8-1.2.8-2c0-.3 0-.6-.1-.9-.1-.3-.2-.5-.4-.8l-.7-.7c-.3-.2-.6-.4-1.1-.6l-1.6-.7c-2.2-1-3.3-2.4-3.3-4.3 0-1.3.5-2.4 1.4-3.2.9-.9 2.1-1.3 3.5-1.3 1.9 0 3.4 1 4.4 2.9zM392 80.1v14.7h-2.5V80.1h-3.7v-2.4h9.9v2.4H392zM413.4 80.1h-6.5v4.1h6.3v2.4h-6.3v5.7h6.5v2.4h-9V77.6h9v2.5zM423.1 94.7V76.5l11.9 13V77.6h2.5v18.1l-11.9-13v12h-2.5zM460 78.6v3.1c-1.4-1.2-2.9-1.9-4.4-1.9-1.7 0-3.1.6-4.2 1.9-1.2 1.3-1.7 2.8-1.7 4.6 0 1.8.6 3.3 1.7 4.5 1.2 1.2 2.6 1.8 4.2 1.8.9 0 1.6-.1 2.2-.4.3-.1.7-.3 1.1-.6s.7-.6 1.1-.9v3.1c-1.4.8-2.9 1.3-4.4 1.3-2.3 0-4.3-.9-6-2.6-1.6-1.7-2.5-3.8-2.5-6.2 0-2.2.7-4.1 2.1-5.8 1.7-2.1 3.9-3.1 6.6-3.1 1.5-.1 2.9.3 4.2 1.2zM472.1 77.6v17.1h-2.5V77.6h2.5zM492.1 90.6h-7l-1.8 4.1h-2.6l8.1-18.2 7.8 18.2h-2.7l-1.8-4.1zm-1-2.5-2.4-5.8-2.5 5.8h4.9z"/></g></svg>