<svg version="1.1" id="Layer_1" xmlns="http://www.w3.org/2000/svg" x="0" y="0" viewBox="0 0 100 100" xml:space="preserve"><path fill="none" stroke="#000" stroke-width=".1" stroke-miterlimit="10" d="M52.97 8.22c0-1.84-1.43-3.76-3.12-3.76-1.69 0-3.05 1.63-3.05 3.48v.19l-1.67.1c0-.09-.01-.19-.01-.29 0-2.91 2.15-5.26 4.81-5.26 2.66 0 4.81 2.36 4.81 5.26 0 .1.01.38 0 .48l-1.77-.2z"/><path fill="none" stroke="#000" stroke-width=".1" stroke-miterlimit="10" d="M53.67 4.61s1.71-.99 2.71.76c1.08 1.9-1.62 2.95-1.62 2.95M50.05 2.68s.52-2.16 2.64-1.46c1.88.62.78 3.16.78 3.16M49.7 2.68s-.99-2.32-2.72-1.5c-2.12 1-.54 3.09-.54 3.09M46.24 4.56s-2.35-.77-2.93 1.25c-.6 2.09 1.84 2.31 1.84 2.31M39.91 9.35c-.57-1.75-2.52-3.14-4.13-2.61s-2.4 2.5-1.83 4.25l.06.18-1.56.61c-.03-.09-.07-.18-.1-.27-.9-2.76.42-5.67 2.95-6.49s5.31.75 6.2 3.52c.03.1.12.36.15.46l-1.74.35z"/><path fill="none" stroke="#000" stroke-width=".1" stroke-miterlimit="10" d="M39.46 5.7s1.32-1.47 2.81-.11c1.61 1.47-.63 3.31-.63 3.31M35.43 4.98s-.17-2.21 2.06-2.21c1.98.01 1.72 2.76 1.72 2.76M35.09 5.09s-1.65-1.9-3.06-.59c-1.71 1.6.44 3.1.44 3.1M32.38 7.95s-2.47-.01-2.4 2.09c.08 2.17 2.46 1.63 2.46 1.63M27.85 14.45c-1.08-1.49-3.37-2.2-4.73-1.21s-1.51 3.12-.43 4.61c.04.05.08.1.11.15l-1.29 1.06c-.06-.07-.12-.15-.17-.23-1.71-2.35-1.35-5.52.8-7.09s5.28-.92 6.99 1.43c.06.08.23.31.28.39l-1.56.89z"/><path fill="none" stroke="#000" stroke-width=".1" stroke-miterlimit="10" d="M26.28 11.12s.81-1.8 2.64-.97c1.99.9.43 3.34.43 3.34M22.23 11.68s-.85-2.05 1.27-2.73c1.89-.61 2.49 2.1 2.49 2.1M21.94 11.89s-2.16-1.3-3.09.39c-1.13 2.05 1.38 2.82 1.38 2.82M20.25 15.45s-2.35.76-1.63 2.73c.75 2.04 2.84.79 2.84.79M17.95 23.04c-1.49-1.08-3.88-1.05-4.88.31s-.47 3.43 1.02 4.51c.05.04.1.07.15.11l-.9 1.41c-.08-.05-.16-.11-.24-.16-2.35-1.71-2.99-4.84-1.43-6.99s4.73-2.51 7.09-.8c.08.06.31.22.39.28l-1.2 1.33z"/><path fill="none" stroke="#000" stroke-width=".1" stroke-miterlimit="10" d="M15.43 20.35s.21-1.96 2.21-1.74c2.17.24 1.44 3.05 1.44 3.05M11.74 22.14s-1.44-1.69.37-2.99c1.61-1.16 3.01 1.23 3.01 1.23M11.54 22.42s-2.46-.57-2.82 1.32C8.29 26.04 10.9 26 10.9 26M11.03 26.33s-2 1.45-.71 3.1c1.34 1.71 2.95-.13 2.95-.13M11.18 34.27c-1.75-.57-4.02.2-4.54 1.8s.61 3.41 2.36 3.98c.06.02.12.04.18.05l-.42 1.62c-.09-.02-.18-.05-.27-.08-2.76-.9-4.34-3.68-3.52-6.2s3.73-3.85 6.49-2.95c.1.03.37.11.46.15l-.74 1.63z"/><path fill="none" stroke="#000" stroke-width=".1" stroke-miterlimit="10" d="M7.96 32.49s-.41-1.93 1.56-2.34c2.14-.44 2.31 2.45 2.31 2.45M5.01 35.33s-1.89-1.16-.58-2.96c1.17-1.6 3.25.24 3.25.24M4.9 35.66s-2.51.22-2.27 2.13c.29 2.32 2.77 1.47 2.77 1.47M5.62 39.54s-1.46 2 .29 3.17c1.8 1.21 2.77-1.03 2.77-1.03M8.22 47.03c-1.84 0-3.76 1.43-3.76 3.12 0 1.69 1.63 3.05 3.48 3.05h.19l.1 1.67c-.09 0-.19.01-.29.01-2.91 0-5.26-2.15-5.26-4.81 0-2.66 2.36-4.81 5.26-4.81.1 0 .38-.01.48 0l-.2 1.77z"/><path fill="none" stroke="#000" stroke-width=".1" stroke-miterlimit="10" d="M4.61 46.33s-.99-1.71.76-2.71c1.9-1.08 2.95 1.62 2.95 1.62M2.68 49.95s-2.16-.52-1.46-2.64c.62-1.88 3.16-.78 3.16-.78M2.68 50.3s-2.32.99-1.5 2.72c1 2.12 3.09.54 3.09.54M4.56 53.76s-.77 2.35 1.25 2.93c2.09.6 2.31-1.84 2.31-1.84M9.35 60.09c-1.75.57-3.14 2.52-2.61 4.13.52 1.6 2.5 2.4 4.25 1.83l.18-.06.61 1.56c-.09.03-.18.07-.27.1-2.76.9-5.67-.42-6.49-2.95-.82-2.53.75-5.31 3.52-6.2.1-.03.36-.12.46-.15l.35 1.74z"/><path fill="none" stroke="#000" stroke-width=".1" stroke-miterlimit="10" d="M5.7 60.54s-1.47-1.32-.11-2.81c1.47-1.61 3.31.63 3.31.63M4.98 64.57s-2.21.17-2.21-2.06c.01-1.98 2.76-1.72 2.76-1.72M5.09 64.91s-1.9 1.65-.59 3.06c1.6 1.71 3.1-.44 3.1-.44M7.95 67.62s-.01 2.47 2.09 2.4c2.17-.08 1.63-2.46 1.63-2.46M14.45 72.15c-1.49 1.08-2.2 3.37-1.21 4.73.99 1.36 3.12 1.51 4.61.43.05-.04.1-.08.15-.11l1.06 1.29c-.07.06-.15.12-.23.17-2.35 1.71-5.52 1.35-7.09-.8-1.56-2.15-.92-5.28 1.43-6.99.08-.06.31-.23.39-.28l.89 1.56z"/><path fill="none" stroke="#000" stroke-width=".1" stroke-miterlimit="10" d="M11.12 73.72s-1.8-.81-.97-2.64c.9-1.99 3.34-.43 3.34-.43M11.68 77.77s-2.05.85-2.73-1.27c-.61-1.89 2.1-2.49 2.1-2.49M11.89 78.06s-1.3 2.16.39 3.09c2.05 1.13 2.82-1.38 2.82-1.38M15.45 79.75s.76 2.35 2.73 1.63c2.04-.75.79-2.84.79-2.84M23.04 82.05c-1.08 1.49-1.05 3.88.31 4.88s3.43.47 4.51-1.02c.04-.05.07-.1.11-.15l1.41.9c-.05.08-.11.16-.16.24-1.71 2.35-4.84 2.99-6.99 1.43-2.15-1.56-2.51-4.73-.8-7.09.06-.08.22-.31.28-.39l1.33 1.2z"/><path fill="none" stroke="#000" stroke-width=".1" stroke-miterlimit="10" d="M20.35 84.57s-1.96-.21-1.74-2.21c.24-2.17 3.05-1.44 3.05-1.44M22.14 88.26s-1.69 1.44-2.99-.37c-1.16-1.61 1.23-3.01 1.23-3.01M22.42 88.46s-.57 2.46 1.32 2.82c2.3.43 2.26-2.18 2.26-2.18M26.33 88.97s1.45 2 3.1.71c1.71-1.34-.13-2.95-.13-2.95M34.27 88.82c-.57 1.75.2 4.02 1.8 4.54 1.6.52 3.41-.61 3.98-2.36.02-.06.04-.12.05-.18l1.62.42c-.02.09-.05.18-.08.27-.9 2.76-3.68 4.34-6.2 3.52-2.53-.82-3.85-3.73-2.95-6.49.03-.1.11-.37.15-.46l1.63.74z"/><path fill="none" stroke="#000" stroke-width=".1" stroke-miterlimit="10" d="M32.49 92.04s-1.93.41-2.34-1.56c-.44-2.14 2.45-2.31 2.45-2.31M35.33 94.99s-1.16 1.89-2.96.58c-1.6-1.17.24-3.25.24-3.25M35.66 95.1s.22 2.51 2.13 2.27c2.32-.29 1.47-2.77 1.47-2.77M39.54 94.38s2 1.46 3.17-.29c1.21-1.8-1.03-2.77-1.03-2.77M47.03 91.78c0 1.84 1.43 3.76 3.12 3.76 1.69 0 3.05-1.63 3.05-3.48v-.19l1.67-.1c0 .09.01.19.01.29 0 2.91-2.15 5.26-4.81 5.26-2.66 0-4.81-2.36-4.81-5.26 0-.1-.01-.38 0-.48l1.77.2z"/><path fill="none" stroke="#000" stroke-width=".1" stroke-miterlimit="10" d="M46.33 95.39s-1.71.99-2.71-.76c-1.08-1.9 1.62-2.95 1.62-2.95M49.95 97.32s-.52 2.16-2.64 1.46c-1.88-.62-.78-3.16-.78-3.16M50.3 97.32s.99 2.32 2.72 1.5c2.12-1 .54-3.09.54-3.09M53.76 95.44s2.35.77 2.93-1.25c.6-2.09-1.84-2.31-1.84-2.31M60.09 90.65c.57 1.75 2.52 3.14 4.13 2.61 1.6-.52 2.4-2.5 1.83-4.25l-.06-.18 1.56-.61c.03.09.07.18.1.27.9 2.76-.42 5.67-2.95 6.49-2.53.82-5.31-.75-6.2-3.52-.03-.1-.12-.36-.15-.46l1.74-.35z"/><path fill="none" stroke="#000" stroke-width=".1" stroke-miterlimit="10" d="M60.54 94.3s-1.32 1.47-2.81.11c-1.61-1.47.63-3.31.63-3.31M64.57 95.02s.17 2.21-2.06 2.21c-1.98-.01-1.72-2.76-1.72-2.76M64.91 94.91s1.65 1.9 3.06.59c1.71-1.6-.44-3.1-.44-3.1M67.62 92.05s2.47.01 2.4-2.09c-.08-2.17-2.46-1.63-2.46-1.63M72.15 85.55c1.08 1.49 3.37 2.2 4.73 1.21 1.36-.99 1.51-3.12.43-4.61-.04-.05-.08-.1-.11-.15l1.29-1.06c.06.07.12.15.17.23 1.71 2.35 1.35 5.52-.8 7.09-2.15 1.56-5.28.92-6.99-1.43a9.46 9.46 0 0 1-.28-.39l1.56-.89z"/><path fill="none" stroke="#000" stroke-width=".1" stroke-miterlimit="10" d="M73.72 88.88s-.81 1.8-2.64.97c-1.99-.9-.43-3.34-.43-3.34M77.77 88.32s.85 2.05-1.27 2.73c-1.89.61-2.49-2.1-2.49-2.1M78.06 88.11s2.16 1.3 3.09-.39c1.13-2.05-1.38-2.82-1.38-2.82M79.75 84.55s2.35-.76 1.63-2.73c-.75-2.04-2.84-.79-2.84-.79M82.05 76.96c1.49 1.08 3.88 1.05 4.88-.31.99-1.36.47-3.43-1.02-4.51-.05-.04-.1-.07-.15-.11l.9-1.41c.08.05.16.11.24.16 2.35 1.71 2.99 4.84 1.43 6.99-1.56 2.15-4.73 2.51-7.09.8-.08-.06-.31-.22-.39-.28l1.2-1.33z"/><path fill="none" stroke="#000" stroke-width=".1" stroke-miterlimit="10" d="M84.57 79.65s-.21 1.96-2.21 1.74c-2.17-.24-1.44-3.05-1.44-3.05M88.26 77.86s1.44 1.69-.37 2.99c-1.61 1.16-3.01-1.23-3.01-1.23M88.46 77.58s2.46.57 2.82-1.32c.43-2.3-2.18-2.26-2.18-2.26M88.97 73.67s2-1.45.71-3.1c-1.34-1.71-2.95.13-2.95.13M88.82 65.73c1.75.57 4.02-.2 4.54-1.8.52-1.6-.61-3.41-2.36-3.98-.06-.02-.12-.04-.18-.05l.42-1.62c.09.02.18.05.27.08 2.76.9 4.34 3.68 3.52 6.2-.82 2.53-3.73 3.85-6.49 2.95-.1-.03-.37-.11-.46-.15l.74-1.63z"/><path fill="none" stroke="#000" stroke-width=".1" stroke-miterlimit="10" d="M92.04 67.51s.41 1.93-1.56 2.34c-2.14.44-2.31-2.45-2.31-2.45M94.99 64.67s1.89 1.16.58 2.96c-1.17 1.6-3.25-.24-3.25-.24M95.1 64.34s2.51-.22 2.27-2.13c-.29-2.32-2.77-1.47-2.77-1.47M94.38 60.46s1.46-2-.29-3.17c-1.8-1.21-2.77 1.03-2.77 1.03M91.78 52.97c1.84 0 3.76-1.43 3.76-3.12 0-1.69-1.63-3.05-3.48-3.05h-.19l-.1-1.67c.09 0 .19-.01.29-.01 2.91 0 5.26 2.15 5.26 4.81 0 2.66-2.36 4.81-5.26 4.81-.1 0-.38.01-.48 0l.2-1.77z"/><path fill="none" stroke="#000" stroke-width=".1" stroke-miterlimit="10" d="M95.39 53.67s.99 1.71-.76 2.71c-1.9 1.08-2.95-1.62-2.95-1.62M97.32 50.05s2.16.52 1.46 2.64c-.62 1.88-3.16.78-3.16.78M97.32 49.7s2.32-.99 1.5-2.72c-1-2.12-3.09-.54-3.09-.54M95.44 46.24s.77-2.35-1.25-2.93c-2.09-.6-2.31 1.84-2.31 1.84M90.65 39.91c1.75-.57 3.14-2.52 2.61-4.13-.52-1.6-2.5-2.4-4.25-1.83l-.18.06-.61-1.56c.09-.03.18-.07.27-.1 2.76-.9 5.67.42 6.49 2.95.82 2.53-.75 5.31-3.52 6.2-.1.03-.36.12-.46.15l-.35-1.74z"/><path fill="none" stroke="#000" stroke-width=".1" stroke-miterlimit="10" d="M94.3 39.46s1.47 1.32.11 2.81c-1.47 1.61-3.31-.63-3.31-.63M95.02 35.43s2.21-.17 2.21 2.06c-.01 1.98-2.76 1.72-2.76 1.72M94.91 35.09s1.9-1.65.59-3.06c-1.6-1.71-3.1.44-3.1.44M92.05 32.38s.01-2.47-2.09-2.4c-2.17.08-1.63 2.46-1.63 2.46M85.55 27.85c1.49-1.08 2.2-3.37 1.21-4.73s-3.12-1.51-4.61-.43c-.05.04-.1.08-.15.11l-1.06-1.29c.07-.06.15-.12.23-.17 2.35-1.71 5.52-1.35 7.09.8 1.56 2.15.92 5.28-1.43 6.99-.08.06-.31.23-.39.28l-.89-1.56z"/><path fill="none" stroke="#000" stroke-width=".1" stroke-miterlimit="10" d="M88.88 26.28s1.8.81.97 2.64c-.9 1.99-3.34.43-3.34.43M88.32 22.23s2.05-.85 2.73 1.27c.61 1.89-2.1 2.49-2.1 2.49M88.11 21.94s1.3-2.16-.39-3.09c-2.05-1.13-2.82 1.38-2.82 1.38M84.55 20.25s-.76-2.35-2.73-1.63c-2.04.75-.79 2.84-.79 2.84M76.96 17.95c1.08-1.49 1.05-3.88-.31-4.88-1.36-.99-3.43-.47-4.51 1.02-.04.05-.07.1-.11.15l-1.41-.9c.05-.08.11-.16.16-.24 1.71-2.35 4.84-2.99 6.99-1.43 2.15 1.56 2.51 4.73.8 7.09-.06.08-.22.31-.28.39l-1.33-1.2z"/><path fill="none" stroke="#000" stroke-width=".1" stroke-miterlimit="10" d="M79.65 15.43s1.96.21 1.74 2.21c-.24 2.17-3.05 1.44-3.05 1.44M77.86 11.74s1.69-1.44 2.99.37c1.16 1.61-1.23 3.01-1.23 3.01M77.58 11.54s.57-2.46-1.32-2.82C73.96 8.29 74 10.9 74 10.9M73.67 11.03s-1.45-2-3.1-.71c-1.71 1.34.13 2.95.13 2.95M65.73 11.18c.57-1.75-.2-4.02-1.8-4.54s-3.41.61-3.98 2.36c-.02.06-.04.12-.05.18l-1.62-.42c.02-.09.05-.18.08-.27.9-2.76 3.68-4.34 6.2-3.52 2.53.82 3.85 3.73 2.95 6.49-.03.1-.11.37-.15.46l-1.63-.74z"/><path fill="none" stroke="#000" stroke-width=".1" stroke-miterlimit="10" d="M67.51 7.96s1.93-.41 2.34 1.56c.44 2.14-2.45 2.31-2.45 2.31M64.67 5.01s1.16-1.89 2.96-.58c1.6 1.17-.24 3.25-.24 3.25M64.34 4.9s-.22-2.51-2.13-2.27c-2.32.29-1.47 2.77-1.47 2.77M60.46 5.62s-2-1.46-3.17.29c-1.21 1.8 1.03 2.77 1.03 2.77"/><g fill="none" stroke="#000" stroke-width=".25" stroke-miterlimit="10"><path d="M54.02 5.15s1.06-.51 1.73.5c.7 1.05-1.02 1.81-1.02 1.81M50.79 2.78s.41-1.33 1.7-.83c1.03.4.48 1.92.48 1.92M49.14 2.75s-.76-1.3-1.65-.97c-1.28.47-.57 2.09-.57 2.09M45.83 5.2s-1.46-.55-1.88.72c-.37 1.08 1.2 1.61 1.2 1.61M39.97 6.1s.85-.81 1.8-.06c.99.78-.41 2.04-.41 2.04M36.16 4.84s-.02-1.39 1.36-1.31c1.1.06 1.05 1.67 1.05 1.67M34.58 5.32s-1.12-1-1.87-.42c-1.07.84.11 2.17.11 2.17M32.19 8.69s-1.56-.07-1.57 1.26c-.01 1.14 1.64 1.16 1.64 1.16M26.9 11.35s.56-1.04 1.69-.61c1.18.44.24 2.07.24 2.07M22.88 11.33s-.45-1.32.89-1.67c1.07-.28 1.51 1.27 1.51 1.27M21.53 12.27s-1.38-.6-1.9.18c-.76 1.13.77 2.03.77 2.03M20.29 16.21s-1.5.42-1.1 1.69c.34 1.08 1.92.59 1.92.59M16.08 20.38s.21-1.16 1.42-1.1c1.26.05.87 1.89.87 1.89M12.26 21.6s-.83-1.11.33-1.86c.93-.6 1.83.74 1.83.74M11.27 22.92s-1.5-.15-1.76.76c-.38 1.31 1.36 1.69 1.36 1.69M11.31 27.05s-1.3.86-.53 1.94c.66.92 2.01-.03 2.01-.03M8.59 32.31s-.16-1.17 1.01-1.49c1.21-.34 1.41 1.53 1.41 1.53M5.33 34.65s-1.13-.8-.26-1.87c.7-.86 1.97.14 1.97.14M4.79 36.21s-1.47.32-1.43 1.26c.05 1.36 1.82 1.19 1.82 1.19M6.11 40.13s-.97 1.22.1 2.01c.91.68 1.9-.65 1.9-.65M5.15 45.98s-.51-1.06.5-1.73c1.05-.7 1.81 1.02 1.81 1.02M2.78 49.21s-1.33-.41-.83-1.7c.4-1.03 1.92-.48 1.92-.48M2.75 50.86s-1.3.76-.97 1.65c.47 1.28 2.09.57 2.09.57M5.2 54.17s-.55 1.46.72 1.88c1.08.36 1.61-1.21 1.61-1.21M6.1 60.03s-.81-.85-.06-1.8c.78-.99 2.04.41 2.04.41M4.84 63.84s-1.39.02-1.31-1.36c.06-1.1 1.67-1.05 1.67-1.05M5.32 65.42s-1 1.12-.42 1.87c.84 1.07 2.17-.11 2.17-.11M8.69 67.81s-.07 1.56 1.26 1.57c1.14.01 1.16-1.64 1.16-1.64M11.35 73.1s-1.04-.56-.61-1.69c.44-1.18 2.07-.24 2.07-.24M11.33 77.12s-1.32.45-1.67-.89c-.28-1.07 1.27-1.51 1.27-1.51M12.27 78.47s-.6 1.38.18 1.9c1.13.76 2.03-.77 2.03-.77M16.21 79.71s.42 1.5 1.69 1.1c1.08-.34.59-1.92.59-1.92M20.38 83.92s-1.16-.21-1.1-1.42c.05-1.26 1.89-.87 1.89-.87M21.6 87.74s-1.11.83-1.86-.33c-.6-.93.74-1.83.74-1.83M22.92 88.73s-.15 1.5.76 1.76c1.31.38 1.69-1.36 1.69-1.36M27.05 88.69s.86 1.3 1.94.53c.92-.66-.03-2.01-.03-2.01M32.31 91.41s-1.17.16-1.49-1.01c-.34-1.21 1.53-1.41 1.53-1.41M34.65 94.67s-.8 1.13-1.87.26c-.86-.7.14-1.97.14-1.97M36.21 95.21s.32 1.47 1.26 1.43c1.36-.05 1.19-1.82 1.19-1.82M40.13 93.89s1.22.97 2.01-.1c.68-.91-.65-1.9-.65-1.9M45.98 94.85s-1.06.51-1.73-.5c-.7-1.05 1.02-1.81 1.02-1.81M49.21 97.22s-.41 1.33-1.7.83c-1.03-.4-.48-1.92-.48-1.92M50.86 97.25s.76 1.3 1.65.97c1.28-.47.57-2.09.57-2.09M54.17 94.8s1.46.55 1.88-.72c.36-1.08-1.21-1.61-1.21-1.61M60.03 93.9s-.85.81-1.8.06c-.99-.78.41-2.04.41-2.04M63.84 95.16s.02 1.39-1.36 1.31c-1.1-.06-1.05-1.67-1.05-1.67M65.42 94.68s1.12 1 1.87.42c1.07-.84-.11-2.17-.11-2.17M67.81 91.31s1.56.07 1.57-1.26c.01-1.14-1.64-1.16-1.64-1.16M73.1 88.65s-.56 1.04-1.69.61c-1.18-.44-.24-2.07-.24-2.07M77.12 88.67s.45 1.32-.89 1.67c-1.07.28-1.51-1.27-1.51-1.27M78.47 87.73s1.38.6 1.9-.18c.76-1.13-.77-2.03-.77-2.03M79.71 83.79s1.5-.42 1.1-1.69c-.34-1.08-1.92-.59-1.92-.59M83.92 79.62s-.21 1.16-1.42 1.1c-1.26-.05-.87-1.89-.87-1.89M87.74 78.4s.83 1.11-.33 1.86c-.93.6-1.83-.74-1.83-.74M88.73 77.08s1.5.15 1.76-.76c.38-1.31-1.36-1.69-1.36-1.69M88.69 72.95s1.3-.86.53-1.94c-.66-.92-2.01.03-2.01.03M91.41 67.69s.16 1.17-1.01 1.49c-1.21.34-1.41-1.53-1.41-1.53M94.67 65.35s1.13.8.26 1.87c-.7.86-1.97-.14-1.97-.14M95.21 63.79s1.47-.32 1.43-1.26c-.05-1.36-1.82-1.19-1.82-1.19M93.89 59.87s.97-1.22-.1-2.01c-.91-.68-1.9.65-1.9.65M94.85 54.02s.51 1.06-.5 1.73c-1.05.7-1.81-1.02-1.81-1.02M97.22 50.79s1.33.41.83 1.7c-.4 1.03-1.92.48-1.92.48M97.25 49.14s1.3-.76.97-1.65c-.47-1.28-2.09-.57-2.09-.57M94.8 45.83s.55-1.46-.72-1.88c-1.08-.36-1.61 1.21-1.61 1.21M93.9 39.97s.81.85.06 1.8c-.78.99-2.04-.41-2.04-.41M95.16 36.16s1.39-.02 1.31 1.36c-.06 1.1-1.67 1.05-1.67 1.05M94.68 34.58s1-1.12.42-1.87c-.84-1.07-2.17.11-2.17.11M91.31 32.19s.07-1.56-1.26-1.57c-1.14-.01-1.16 1.64-1.16 1.64M88.65 26.9s1.04.56.61 1.69c-.44 1.18-2.07.24-2.07.24M88.67 22.88s1.32-.45 1.67.89c.28 1.07-1.27 1.51-1.27 1.51M87.73 21.53s.6-1.38-.18-1.9c-1.13-.76-2.03.77-2.03.77M83.79 20.29s-.42-1.5-1.69-1.1c-1.08.34-.59 1.92-.59 1.92M79.62 16.08s1.16.21 1.1 1.42c-.05 1.26-1.89.87-1.89.87M78.4 12.26s1.11-.83 1.86.33c.6.93-.74 1.83-.74 1.83M77.08 11.27s.15-1.5-.76-1.76c-1.31-.38-1.69 1.36-1.69 1.36M72.95 11.31s-.86-1.3-1.94-.53c-.92.66.03 2.01.03 2.01M67.69 8.59s1.17-.16 1.49 1.01c.34 1.21-1.53 1.41-1.53 1.41M65.35 5.33s.8-1.13 1.87-.26c.86.7-.14 1.97-.14 1.97M63.79 4.79s-.32-1.47-1.26-1.43c-1.36.05-1.19 1.82-1.19 1.82M59.87 6.11s-1.22-.97-2.01.1c-.68.91.65 1.9.65 1.9"/></g></svg>