<svg version="1.1" id="Layer_1" xmlns="http://www.w3.org/2000/svg" x="0" y="0" viewBox="0 0 100 100" xml:space="preserve"><g fill="none" stroke="#000" stroke-width=".2" stroke-miterlimit="10"><path d="M47.04 2.32s3.36 1.32 6.01 4.48"/><path d="M47.86 6.8s2.34-3.06 5.91-4.48M39 3.54s3.57.71 6.72 3.36"/><path d="M40.52 7.72s1.73-3.46 5.09-5.4M31.25 6.09s3.57.1 7.13 2.24"/><path d="M33.5 9.96s1.22-3.67 4.07-6.21M24.02 9.86s3.57-.51 7.44.92"/><path d="M26.98 13.32s.51-3.87 2.95-6.72M17.6 14.85s3.46-1.12 7.44-.31"/><path d="M21.07 17.81s-.1-3.87 1.73-7.13M12.1 20.86s3.26-1.63 7.33-1.53"/><path d="M15.97 23.1s-.81-3.77.51-7.33M7.72 27.69s2.85-2.14 6.93-2.75"/><path d="M11.9 29.32s-1.43-3.57-.71-7.33M4.46 35.12s2.44-2.65 6.42-3.87"/><path d="M8.94 36.04S7 32.78 7 28.91M2.63 43.07s2.04-2.95 5.6-4.89"/><path d="M7.11 43.17s-2.55-2.95-3.16-6.72M2.12 51.22s1.43-3.26 4.69-5.81"/><path d="M6.6 50.51s-2.95-2.44-4.18-6.11M2.93 59.27s.92-3.46 3.67-6.52"/><path d="M7.21 57.94s-3.36-1.94-5.2-5.3M5.17 67.11s.31-3.57 2.55-7.03"/><path d="M9.15 64.97s-3.67-1.32-6.01-4.28M8.64 74.45s-.31-3.57 1.32-7.33"/><path d="M12.31 71.7s-3.77-.71-6.62-3.26M13.32 81.17s-.92-3.46 0-7.44"/><path d="M16.48 77.81s-3.87 0-7.13-2.04M19.13 86.88s-1.53-3.26-1.22-7.33"/><path d="M21.58 83.11s-3.77.61-7.33-.81M25.75 91.56s-2.04-2.95-2.44-7.03"/><path d="M27.59 87.38s-3.67 1.22-7.33.41M33.09 95.13s-2.55-2.55-3.67-6.52"/><path d="M34.21 90.64s-3.36 1.83-7.23 1.63M40.93 97.27s-2.95-2.14-4.69-5.81"/><path d="M41.24 92.78s-3.06 2.34-6.83 2.85M49.08 98.18s-3.26-1.63-5.6-4.99"/><path d="M48.57 93.7s-2.55 2.85-6.21 3.97M57.13 97.67s-3.46-1.02-6.32-3.97"/><path d="M55.91 93.29s-2.04 3.26-5.5 4.99M65.08 95.74s-3.57-.41-6.93-2.85"/><path d="M63.14 91.66s-1.53 3.57-4.58 5.81M72.61 92.58s-3.57.2-7.33-1.63"/><path d="M69.96 88.91s-.81 3.77-3.57 6.52M79.44 88.2s-3.57.81-7.44-.31"/><path d="M76.18 84.94s-.2 3.87-2.34 7.03M85.45 82.7s-3.36 1.32-7.44.92"/><path d="M81.68 80.05s.41 3.87-1.12 7.33M90.34 76.18s-3.06 1.94-7.13 2.14"/><path d="M86.26 74.24s1.12 3.67.1 7.44M94.21 69.05s-2.75 2.44-6.72 3.36"/><path d="M89.83 67.83s1.73 3.46 1.32 7.23M96.76 61.31s-2.24 2.85-6.01 4.48"/><path d="M92.27 60.8s2.24 3.16 2.55 6.93M97.98 53.26s-1.73 3.16-5.2 5.4"/><path d="M93.4 53.56s2.75 2.75 3.67 6.42M97.78 45.11s-1.22 3.36-4.18 6.21"/><path d="M93.4 46.13s3.16 2.24 4.69 5.7M96.25 37.16s-.61 3.57-3.06 6.83"/><path d="M92.07 38.89s3.46 1.63 5.6 4.79M93.4 29.52s0 3.57-1.94 7.23"/><path d="M89.52 31.97s3.77 1.02 6.32 3.77M89.22 22.49s.61 3.57-.61 7.44"/><path d="M85.86 25.55s3.87.41 6.93 2.65M84.02 16.28s1.22 3.36.61 7.44"/><path d="M81.17 19.84s3.87-.31 7.23 1.43M77.81 10.98s1.73 3.16 1.83 7.23"/><path d="M75.67 15.06s3.77-.92 7.33.2M70.78 6.91s2.24 2.75 3.06 6.83"/><path d="M69.35 11.19s3.57-1.53 7.33-1.02M63.14 4.05s2.75 2.34 4.18 6.21"/><path d="M62.43 8.54s3.26-2.14 7.03-2.24M55.19 2.42s3.06 1.83 5.2 5.4"/><path d="M55.19 7.01s2.85-2.65 6.52-3.36"/></g><circle cx="50.41" cy="7.01" r=".41"/><circle cx="50.41" cy="1.51" r=".41"/><circle cx="53.97" cy="4.56" r=".41"/><circle cx="43.17" cy="7.52" r=".41"/><circle cx="42.26" cy="2.22" r=".41"/><circle cx="46.13" cy="4.56" r=".41"/><circle cx="36.04" cy="9.35" r=".41"/><circle cx="34.21" cy="4.16" r=".41"/><circle cx="38.49" cy="5.89" r=".41"/><circle cx="29.32" cy="12.31" r=".41"/><circle cx="26.67" cy="7.52" r=".41"/><circle cx="31.15" cy="8.54" r=".41"/><circle cx="23.21" cy="16.38" r=".41"/><circle cx="19.84" cy="12.1" r=".41"/><circle cx="24.43" cy="12.31" r=".41"/><circle cx="17.91" cy="21.37" r=".41"/><circle cx="13.83" cy="17.81" r=".41"/><circle cx="18.42" cy="17.2" r=".41"/><circle cx="13.53" cy="27.18" r=".41"/><circle cx="8.84" cy="24.33" r=".41"/><circle cx="13.22" cy="23" r=".41"/><circle cx="10.17" cy="33.7" r=".41"/><circle cx="5.07" cy="31.66" r=".41"/><circle cx="9.15" cy="29.62" r=".41"/><circle cx="7.93" cy="40.73" r=".41"/><circle cx="2.63" cy="39.61" r=".41"/><circle cx="6.3" cy="36.75" r=".41"/><circle cx="6.91" cy="47.96" r=".41"/><circle cx="1.51" cy="47.76" r=".41"/><circle cx="4.67" cy="44.4" r=".41"/><circle cx="7.21" cy="55.3" r=".41"/><circle cx="1.81" cy="56.01" r=".41"/><circle cx="4.36" cy="52.14" r=".41"/><circle cx="8.64" cy="62.53" r=".41"/><circle cx="3.44" cy="64.06" r=".41"/><circle cx="5.28" cy="59.88" r=".41"/><circle cx="11.29" cy="69.25" r=".41"/><circle cx="6.5" cy="71.8" r=".41"/><circle cx="7.62" cy="67.32" r=".41"/><circle cx="15.16" cy="75.57" r=".41"/><circle cx="10.78" cy="78.83" r=".41"/><circle cx="11.08" cy="74.24" r=".41"/><circle cx="19.95" cy="81.07" r=".41"/><circle cx="16.18" cy="85.04" r=".41"/><circle cx="15.67" cy="80.46" r=".41"/><circle cx="25.55" cy="85.75" r=".41"/><circle cx="22.49" cy="90.24" r=".41"/><circle cx="21.27" cy="85.86" r=".41"/><circle cx="31.97" cy="89.42" r=".41"/><circle cx="29.73" cy="94.31" r=".41"/><circle cx="27.79" cy="90.14" r=".41"/><circle cx="38.79" cy="91.87" r=".41"/><circle cx="37.47" cy="97.16" r=".41"/><circle cx="34.82" cy="93.4" r=".41"/><circle cx="46.03" cy="93.19" r=".41"/><circle cx="45.52" cy="98.59" r=".41"/><circle cx="42.36" cy="95.33" r=".41"/><circle cx="53.36" cy="93.29" r=".41"/><circle cx="53.77" cy="98.69" r=".41"/><circle cx="50.1" cy="95.94" r=".41"/><circle cx="60.59" cy="92.07" r=".41"/><circle cx="61.92" cy="97.37" r=".41"/><circle cx="57.84" cy="95.33" r=".41"/><circle cx="67.52" cy="89.73" r=".41"/><circle cx="69.76" cy="94.72" r=".41"/><circle cx="65.28" cy="93.4" r=".41"/><circle cx="73.94" cy="86.16" r=".41"/><circle cx="76.99" cy="90.75" r=".41"/><circle cx="72.41" cy="90.14" r=".41"/><circle cx="79.64" cy="81.68" r=".41"/><circle cx="83.41" cy="85.55" r=".41"/><circle cx="78.83" cy="85.75" r=".41"/><circle cx="84.53" cy="76.18" r=".41"/><circle cx="88.91" cy="79.44" r=".41"/><circle cx="84.43" cy="80.46" r=".41"/><circle cx="88.51" cy="69.96" r=".41"/><circle cx="93.29" cy="72.41" r=".41"/><circle cx="89.01" cy="74.14" r=".41"/><circle cx="91.26" cy="63.24" r=".41"/><circle cx="96.45" cy="64.77" r=".41"/><circle cx="92.58" cy="67.21" r=".41"/><circle cx="92.89" cy="56.01" r=".41"/><circle cx="98.29" cy="56.72" r=".41"/><circle cx="94.82" cy="59.78" r=".41"/><circle cx="93.19" cy="48.78" r=".41"/><circle cx="98.69" cy="48.47" r=".41"/><circle cx="95.84" cy="52.14" r=".41"/><circle cx="92.38" cy="41.44" r=".41"/><circle cx="97.67" cy="40.32" r=".41"/><circle cx="95.43" cy="44.4" r=".41"/><circle cx="90.24" cy="34.41" r=".41"/><circle cx="95.33" cy="32.37" r=".41"/><circle cx="93.8" cy="36.75" r=".41"/><circle cx="87.08" cy="27.89" r=".41"/><circle cx="91.66" cy="25.04" r=".41"/><circle cx="90.95" cy="29.62" r=".41"/><circle cx="82.7" cy="21.98" r=".41"/><circle cx="86.88" cy="18.32" r=".41"/><circle cx="86.88" cy="23" r=".41"/><circle cx="77.5" cy="16.79" r=".41"/><circle cx="80.97" cy="12.61" r=".41"/><circle cx="81.68" cy="17.09" r=".41"/><circle cx="71.49" cy="12.71" r=".41"/><circle cx="74.14" cy="7.93" r=".41"/><circle cx="75.67" cy="12.31" r=".41"/><circle cx="64.77" cy="9.56" r=".41"/><circle cx="66.6" cy="4.46" r=".41"/><circle cx="68.95" cy="8.43" r=".41"/><circle cx="57.74" cy="7.72" r=".41"/><circle cx="58.66" cy="2.32" r=".41"/><circle cx="61.61" cy="5.89" r=".41"/></svg>