<svg xmlns="http://www.w3.org/2000/svg" viewBox="0 0 103 104" style="enable-background:new 0 0 103 104" xml:space="preserve"><style>.st1{fill:#444d66;display:inline}.st2{display:inline}.st3{fill:none;stroke:#000;stroke-width:.2px;stroke-miterlimit:10}.st4{fill:none;stroke:#000;stroke-width:.08px;stroke-miterlimit:10}.st5{fill:none;stroke:#000;stroke-width:.25px;stroke-miterlimit:10}.st6{fill:none;stroke:#000;stroke-width:.03px;stroke-miterlimit:10}.st7{fill:none;stroke:#000;stroke-miterlimit:10}.st8{stroke:#000;stroke-width:.08px;stroke-miterlimit:10}</style><g id="Capa_2"><path class="st4" d="M56.1 9.2h-5.6L47 6.4V4.6h9.1z"/><path class="st8" d="m45.6 5.7 1.4.9V4.4h-1.4z"/><circle class="st8" cx="48.2" cy="5.2" r=".2"/><circle class="st8" cx="48.6" cy="6.2" r=".2"/><circle class="st8" cx="49.8" cy="5.2" r=".2"/><circle class="st8" cx="50.2" cy="6.2" r=".2"/><circle class="st8" cx="49.8" cy="7.3" r=".2"/><circle class="st8" cx="51.4" cy="7.3" r=".2"/><circle class="st8" cx="52.9" cy="7.3" r=".2"/><circle class="st8" cx="54.4" cy="7.3" r=".2"/><circle class="st8" cx="55.3" cy="8.2" r=".2"/><circle class="st8" cx="51.5" cy="5.2" r=".2"/><circle class="st8" cx="51.9" cy="6.2" r=".2"/><circle class="st8" cx="53.1" cy="5.2" r=".2"/><circle class="st8" cx="53.5" cy="6.2" r=".2"/><circle class="st8" cx="50.7" cy="8.4" r=".2"/><circle class="st8" cx="52.4" cy="8.4" r=".2"/><circle class="st8" cx="54" cy="8.4" r=".2"/><circle class="st8" cx="54.6" cy="5.2" r=".2"/><circle class="st8" cx="55" cy="6.2" r=".2"/><path class="st8" d="m56.1 4.6 1.5 1.7M55.5 9.2 57 11M56.1 9.1l1.5 1.8M48.2 7.3l-1.3 2.1M48.6 7.6l-1.2 2.1"/><ellipse class="st8" cx="45.2" cy="5" rx=".9" ry=".8"/><path d="m45.6 4-.3.4M45.6 4l-.2.4h-.1l.3-.4zM45.8 4l-.2.5M45.8 4l-.2.5v-.1l.2-.4z"/><path class="st4" d="m43.2 9.7-5.4 1.7-4.1-1.6-.5-1.7 8.6-2.7z"/><path class="st8" d="m32.1 9.6 1.6.4-.6-2.1-1.4.4z"/><circle class="st8" cx="34.5" cy="8.2" r=".2"/><circle class="st8" cx="35.2" cy="9.1" r=".2"/><circle class="st8" cx="36" cy="7.8" r=".2"/><circle class="st8" cx="36.7" cy="8.6" r=".2"/><circle class="st8" cx="36.6" cy="9.8" r=".2"/><circle class="st8" cx="38.1" cy="9.4" r=".2"/><circle class="st8" cx="39.6" cy="8.9" r=".2"/><circle class="st8" cx="41.1" cy="8.5" r=".2"/><circle class="st8" cx="42.2" cy="9.1" r=".2"/><circle class="st8" cx="37.6" cy="7.3" r=".2"/><circle class="st8" cx="38.3" cy="8.1" r=".2"/><circle class="st8" cx="39.2" cy="6.8" r=".2"/><circle class="st8" cx="39.8" cy="7.7" r=".2"/><circle class="st8" cx="37.8" cy="10.6" r=".2"/><circle class="st8" cx="39.5" cy="10.1" r=".2"/><circle class="st8" cx="41" cy="9.6" r=".2"/><circle class="st8" cx="40.6" cy="6.4" r=".2"/><circle class="st8" cx="41.3" cy="7.2" r=".2"/><path class="st8" d="m41.8 5.4 2 1.2M42.6 9.9l2 1.3M43.1 9.7l2 1.3M35.1 10.3l-.6 2.4M35.6 10.5l-.6 2.3"/><ellipse transform="rotate(-17.145 31.535 8.99)" class="st8" cx="31.5" cy="9" rx=".9" ry=".8"/><path d="m31.6 7.9-.1.5M31.6 7.9v.5h-.1l.1-.5zM31.9 7.9l-.1.4M31.9 7.9l-.1.4.1-.4z"/><path class="st4" d="m31 14.1-4.6 3.2-4.4-.4-1-1.4 7.5-5.1z"/><path class="st8" d="m20.4 17.2 1.7-.1-1.2-1.8-1.2.8z"/><circle class="st8" cx="22.3" cy="15.2" r=".2"/><circle class="st8" cx="23.2" cy="15.8" r=".2"/><circle class="st8" cx="23.6" cy="14.3" r=".2"/><circle class="st8" cx="24.5" cy="15" r=".2"/><circle class="st8" cx="24.8" cy="16.1" r=".2"/><circle class="st8" cx="26.1" cy="15.2" r=".2"/><circle class="st8" cx="27.3" cy="14.4" r=".2"/><circle class="st8" cx="28.6" cy="13.5" r=".2"/><circle class="st8" cx="29.9" cy="13.8" r=".2"/><circle class="st8" cx="25" cy="13.4" r=".2"/><circle class="st8" cx="25.9" cy="14" r=".2"/><circle class="st8" cx="26.3" cy="12.5" r=".2"/><circle class="st8" cx="27.2" cy="13.1" r=".2"/><circle class="st8" cx="26.2" cy="16.5" r=".2"/><circle class="st8" cx="27.6" cy="15.5" r=".2"/><circle class="st8" cx="28.9" cy="14.6" r=".2"/><circle class="st8" cx="27.6" cy="11.6" r=".2"/><circle class="st8" cx="28.5" cy="12.3" r=".2"/><path class="st8" d="m28.5 10.4 2.2.5M30.5 14.4l2.3.7M31 14.1l2.3.6M23.5 17.1l.1 2.3M24 17l.2 2.4"/><ellipse transform="rotate(-34.286 19.697 16.817)" class="st8" cx="19.7" cy="16.8" rx=".9" ry=".8"/><path d="m19.4 15.8.1.4M19.4 15.8l.1.4-.1-.4zM19.7 15.6l.1.5M19.7 15.6l.1.5h-.1v-.5z"/><path class="st4" d="m20.7 21.9-3.5 4.3-4.3 1-1.4-1.1 5.7-7.1z"/><path class="st8" d="m11.5 27.9 1.6-.5-1.7-1.4-.9 1.1z"/><circle class="st8" cx="12.7" cy="25.5" r=".2"/><circle class="st8" cx="13.8" cy="25.8" r=".2"/><circle class="st8" cx="13.7" cy="24.3" r=".2"/><circle class="st8" cx="14.7" cy="24.6" r=".2"/><circle class="st8" cx="15.4" cy="25.6" r=".2"/><circle class="st8" cx="16.3" cy="24.4" r=".2"/><circle class="st8" cx="17.3" cy="23.2" r=".2"/><circle class="st8" cx="18.3" cy="22" r=".2"/><circle class="st8" cx="19.5" cy="21.9" r=".2"/><circle class="st8" cx="14.8" cy="22.9" r=".2"/><circle class="st8" cx="15.8" cy="23.2" r=".2"/><circle class="st8" cx="15.7" cy="21.7" r=".2"/><circle class="st8" cx="16.8" cy="22" r=".2"/><circle class="st8" cx="16.8" cy="25.5" r=".2"/><circle class="st8" cx="17.8" cy="24.2" r=".2"/><circle class="st8" cx="18.8" cy="23" r=".2"/><circle class="st8" cx="16.7" cy="20.5" r=".2"/><circle class="st8" cx="17.7" cy="20.8" r=".2"/><path class="st8" d="m17.2 19 2.3-.1M20.3 22.3h2.4M20.7 21.8h2.4M14.4 26.9l.8 2.2M14.9 26.7l.8 2.3"/><ellipse transform="rotate(-51.428 10.686 27.788)" class="st8" cx="10.7" cy="27.8" rx=".9" ry=".8"/><path d="m10.1 26.9.2.4M10.1 26.9l.3.4h-.1l-.2-.4zM10.3 26.7l.2.4M10.3 26.7l.3.4h-.1l-.2-.4z"/><path class="st4" d="m13.2 32.3-2.1 5.2-3.8 2.2-1.7-.6 3.3-8.4z"/><path class="st8" d="m6.1 40.8 1.4-1-2.1-.8-.5 1.3z"/><circle class="st8" cx="6.6" cy="38.1" r=".2"/><circle class="st8" cx="7.7" cy="38.1" r=".2"/><circle class="st8" cx="7.1" cy="36.7" r=".2"/><circle class="st8" cx="8.2" cy="36.7" r=".2"/><circle class="st8" cx="9.1" cy="37.5" r=".2"/><circle class="st8" cx="9.7" cy="36" r=".2"/><circle class="st8" cx="10.3" cy="34.6" r=".2"/><circle class="st8" cx="10.8" cy="33.1" r=".2"/><circle class="st8" cx="12" cy="32.7" r=".2"/><circle class="st8" cx="7.8" cy="35.1" r=".2"/><circle class="st8" cx="8.9" cy="35.1" r=".2"/><circle class="st8" cx="8.3" cy="33.6" r=".2"/><circle class="st8" cx="9.4" cy="33.6" r=".2"/><circle class="st8" cx="10.5" cy="37" r=".2"/><circle class="st8" cx="11.1" cy="35.4" r=".2"/><circle class="st8" cx="11.7" cy="33.9" r=".2"/><circle class="st8" cx="8.9" cy="32.2" r=".2"/><circle class="st8" cx="10" cy="32.2" r=".2"/><path class="st8" d="m8.9 30.7 2.2-.8M12.9 32.9l2.3-.8M13.1 32.3l2.3-.8M8.6 39l1.5 1.9M9 38.7l1.5 1.9"/><ellipse transform="rotate(-68.574 5.308 40.924)" class="st8" cx="5.3" cy="40.9" rx=".9" ry=".8"/><path d="m4.5 40.2.3.4M4.5 40.2l.4.3-.1.1-.3-.4zM4.6 39.9l.4.4M4.6 39.9l.4.4h-.1l-.3-.4z"/><path class="st4" d="m9 44.5-.4 5.6-3 3.3-1.8-.2.7-9z"/><path class="st8" d="m4.8 54.7 1-1.3-2.2-.2-.1 1.4z"/><circle class="st8" cx="4.4" cy="52" r=".2"/><circle class="st8" cx="5.5" cy="51.7" r=".2"/><circle class="st8" cx="4.5" cy="50.5" r=".2"/><circle class="st8" cx="5.6" cy="50.1" r=".2"/><circle class="st8" cx="6.7" cy="50.6" r=".2"/><circle class="st8" cx="6.8" cy="49.1" r=".2"/><circle class="st8" cx="6.9" cy="47.6" r=".2"/><circle class="st8" cx="7" cy="46" r=".2"/><circle class="st8" cx="8" cy="45.2" r=".2"/><circle class="st8" cx="4.7" cy="48.8" r=".2"/><circle class="st8" cx="5.7" cy="48.4" r=".2"/><circle class="st8" cx="4.8" cy="47.2" r=".2"/><circle class="st8" cx="5.8" cy="46.9" r=".2"/><circle class="st8" cx="7.8" cy="49.8" r=".2"/><circle class="st8" cx="7.9" cy="48.1" r=".2"/><circle class="st8" cx="8.1" cy="46.5" r=".2"/><circle class="st8" cx="4.9" cy="45.7" r=".2"/><circle class="st8" cx="6" cy="45.4" r=".2"/><path class="st8" d="m4.5 44.2 1.8-1.4M9 45.1l1.9-1.4M8.9 44.5l2-1.4M6.6 52.2l2 1.4M6.9 51.8l2 1.4"/><ellipse transform="rotate(-85.714 4.044 55.065)" class="st8" cx="4" cy="55.1" rx=".9" ry=".8"/><path d="m3.1 54.6.4.3M3.1 54.6l.4.2v.1l-.4-.3zM3.1 54.3l.4.3M3.1 54.3l.4.2v.1l-.4-.3z"/><path class="st4" d="m8.6 57.4 1.3 5.5-2 4-1.7.4-2-8.9z"/><path class="st8" d="m7.6 68.4.6-1.6-2.2.5.3 1.4z"/><circle class="st8" cx="6.5" cy="65.9" r=".2"/><circle class="st8" cx="7.4" cy="65.3" r=".2"/><circle class="st8" cx="6.1" cy="64.4" r=".2"/><circle class="st8" cx="7" cy="63.8" r=".2"/><circle class="st8" cx="8.2" cy="63.9" r=".2"/><circle class="st8" cx="7.9" cy="62.4" r=".2"/><circle class="st8" cx="7.5" cy="60.9" r=".2"/><circle class="st8" cx="7.2" cy="59.4" r=".2"/><circle class="st8" cx="7.9" cy="58.4" r=".2"/><circle class="st8" cx="5.7" cy="62.7" r=".2"/><circle class="st8" cx="6.6" cy="62.1" r=".2"/><circle class="st8" cx="5.4" cy="61.2" r=".2"/><circle class="st8" cx="6.3" cy="60.6" r=".2"/><circle class="st8" cx="9" cy="62.8" r=".2"/><circle class="st8" cx="8.7" cy="61.1" r=".2"/><circle class="st8" cx="8.3" cy="59.6" r=".2"/><circle class="st8" cx="5.1" cy="59.7" r=".2"/><circle class="st8" cx="6" cy="59.1" r=".2"/><path class="st8" d="m4.2 58.4 1.3-1.8M8.8 58l1.4-1.9M8.6 57.4l1.4-1.9M8.6 65.5l2.3.7M8.8 65l2.3.8"/><ellipse transform="rotate(-12.856 7.004 68.956)" class="st8" cx="7" cy="68.9" rx=".8" ry=".9"/><path d="m5.9 68.8.5.1M5.9 68.8l.5.1v.1l-.5-.2zM5.9 68.5l.5.1M5.9 68.5l.5.1v.1l-.5-.2z"/><path class="st4" d="m12.1 69.8 2.8 4.9-.7 4.4-1.5.9-4.6-7.9z"/><path class="st8" d="M14.4 80.6V79l-1.9 1.1.7 1.2z"/><circle class="st8" cx="12.5" cy="78.6" r=".2"/><circle class="st8" cx="13.2" cy="77.8" r=".2"/><circle class="st8" cx="11.7" cy="77.3" r=".2"/><circle class="st8" cx="12.4" cy="76.4" r=".2"/><circle class="st8" cx="13.6" cy="76.2" r=".2"/><circle class="st8" cx="12.8" cy="74.8" r=".2"/><circle class="st8" cx="12.1" cy="73.5" r=".2"/><circle class="st8" cx="11.3" cy="72.2" r=".2"/><circle class="st8" cx="11.6" cy="71" r=".2"/><circle class="st8" cx="10.9" cy="75.8" r=".2"/><circle class="st8" cx="11.6" cy="74.9" r=".2"/><circle class="st8" cx="10.1" cy="74.4" r=".2"/><circle class="st8" cx="10.8" cy="73.5" r=".2"/><circle class="st8" cx="14.1" cy="74.9" r=".2"/><circle class="st8" cx="13.2" cy="73.4" r=".2"/><circle class="st8" cx="12.4" cy="72" r=".2"/><circle class="st8" cx="9.3" cy="73.1" r=".2"/><circle class="st8" cx="10" cy="72.2" r=".2"/><path class="st8" d="m8.1 72.1.8-2.2M12.4 70.4l.8-2.3M12 69.9l.9-2.3M14.4 77.6h2.4M14.5 77.1h2.4"/><ellipse transform="rotate(-30 13.918 81.345)" class="st8" cx="13.9" cy="81.3" rx=".8" ry=".9"/><path d="M12.9 81.5h.4M12.9 81.5h.4-.4zM12.7 81.3l.5-.1M12.7 81.3l.5-.1v.1h-.5z"/><path class="st4" d="m19 80.7 4.1 3.8.7 4.4-1.2 1.3-6.7-6.2z"/><path class="st8" d="m24.4 90.3-.4-1.6-1.5 1.7 1 .9z"/><circle class="st8" cx="22.1" cy="89" r=".2"/><circle class="st8" cx="22.5" cy="87.9" r=".2"/><circle class="st8" cx="20.9" cy="87.9" r=".2"/><circle class="st8" cx="21.3" cy="86.9" r=".2"/><circle class="st8" cx="22.4" cy="86.3" r=".2"/><circle class="st8" cx="21.2" cy="85.3" r=".2"/><circle class="st8" cx="20.1" cy="84.2" r=".2"/><circle class="st8" cx="19" cy="83.2" r=".2"/><circle class="st8" cx="18.9" cy="81.9" r=".2"/><circle class="st8" cx="19.6" cy="86.7" r=".2"/><circle class="st8" cx="20" cy="85.7" r=".2"/><circle class="st8" cx="18.5" cy="85.7" r=".2"/><circle class="st8" cx="18.9" cy="84.6" r=".2"/><circle class="st8" cx="22.4" cy="84.9" r=".2"/><circle class="st8" cx="21.2" cy="83.7" r=".2"/><circle class="st8" cx="20" cy="82.7" r=".2"/><circle class="st8" cx="17.4" cy="84.6" r=".2"/><circle class="st8" cx="17.8" cy="83.6" r=".2"/><path class="st8" d="m15.9 84 .1-2.3M19.5 81.1l.1-2.4M19 80.8l.1-2.4M23.6 87.4l2.3-.7M23.4 86.9l2.3-.7"/><ellipse transform="rotate(-47.144 24.186 91.144)" class="st8" cx="24.2" cy="91.2" rx=".8" ry=".9"/><path d="m23.2 91.6.5-.1M23.2 91.6l.5-.2v.1l-.5.1zM23 91.4l.5-.2M23 91.4l.5-.2v.1l-.5.1z"/><path class="st4" d="m28.9 89 5 2.5 2 4-.8 1.5-8.2-3.9z"/><path class="st8" d="m36.9 96.7-.9-1.4-1 1.9 1.3.7z"/><circle class="st8" cx="34.2" cy="96" r=".2"/><circle class="st8" cx="34.3" cy="94.9" r=".2"/><circle class="st8" cx="32.8" cy="95.3" r=".2"/><circle class="st8" cx="32.9" cy="94.3" r=".2"/><circle class="st8" cx="33.7" cy="93.4" r=".2"/><circle class="st8" cx="32.3" cy="92.7" r=".2"/><circle class="st8" cx="31" cy="92.1" r=".2"/><circle class="st8" cx="29.5" cy="91.4" r=".2"/><circle class="st8" cx="29.1" cy="90.2" r=".2"/><circle class="st8" cx="31.2" cy="94.6" r=".2"/><circle class="st8" cx="31.3" cy="93.5" r=".2"/><circle class="st8" cx="29.8" cy="93.9" r=".2"/><circle class="st8" cx="29.9" cy="92.8" r=".2"/><circle class="st8" cx="33.4" cy="92.1" r=".2"/><circle class="st8" cx="31.8" cy="91.3" r=".2"/><circle class="st8" cx="30.4" cy="90.6" r=".2"/><circle class="st8" cx="28.5" cy="93.3" r=".2"/><circle class="st8" cx="28.5" cy="92.2" r=".2"/><path class="st8" d="m26.9 93.1-.6-2.2M29.4 89.3l-.5-2.3M28.8 89.1l-.5-2.3M35.2 94.1l2-1.3M34.9 93.7l2-1.4"/><ellipse transform="rotate(-64.286 36.887 97.49)" class="st8" cx="36.9" cy="97.5" rx=".8" ry=".9"/><path d="m36.1 98.2.4-.3M36.1 98.2l.4-.3v.1l-.4.2zM35.9 98.1l.3-.3M35.9 98.1l.3-.3h.1l-.4.3z"/><path class="st4" d="m40.7 94.1 5.6.8 3 3.3-.3 1.7-8.9-1.3z"/><path class="st8" d="m50.6 99-1.3-1.1-.3 2.2 1.4.2z"/><circle class="st8" cx="47.9" cy="99.2" r=".2"/><circle class="st8" cx="47.7" cy="98.1" r=".2"/><circle class="st8" cx="46.3" cy="99" r=".2"/><circle class="st8" cx="46.1" cy="97.9" r=".2"/><circle class="st8" cx="46.7" cy="96.9" r=".2"/><circle class="st8" cx="45.1" cy="96.6" r=".2"/><circle class="st8" cx="43.6" cy="96.4" r=".2"/><circle class="st8" cx="42.1" cy="96.2" r=".2"/><circle class="st8" cx="41.4" cy="95.1" r=".2"/><circle class="st8" cx="44.6" cy="98.7" r=".2"/><circle class="st8" cx="44.4" cy="97.6" r=".2"/><circle class="st8" cx="43.1" cy="98.5" r=".2"/><circle class="st8" cx="42.8" cy="97.4" r=".2"/><circle class="st8" cx="45.9" cy="95.7" r=".2"/><circle class="st8" cx="44.2" cy="95.4" r=".2"/><circle class="st8" cx="42.7" cy="95.2" r=".2"/><circle class="st8" cx="41.6" cy="98.3" r=".2"/><circle class="st8" cx="41.4" cy="97.2" r=".2"/><path class="st8" d="m40.1 98.6-1.3-2M41.3 94.2l-1.2-2.1M40.7 94.2l-1.2-2.1M48.3 97.1l1.5-1.9M47.9 96.7l1.5-1.8"/><ellipse transform="rotate(-81.431 50.892 99.815)" class="st8" cx="50.9" cy="99.8" rx=".8" ry=".9"/><path d="m50.4 100.8.2-.4M50.4 100.8l.2-.5.1.1-.3.4zM50.1 100.7l.3-.4M50.1 100.7l.2-.4h.1l-.3.4z"/><path class="st4" d="m53.6 95.4 5.5-.8 3.9 2.2.2 1.7-8.9 1.4z"/><path class="st8" d="m64.5 97.2-1.6-.6.4 2.2 1.4-.3z"/><circle class="st8" cx="61.9" cy="98.2" r=".2"/><circle class="st8" cx="61.4" cy="97.3" r=".2"/><circle class="st8" cx="60.4" cy="98.4" r=".2"/><circle class="st8" cx="59.8" cy="97.5" r=".2"/><circle class="st8" cx="60" cy="96.3" r=".2"/><circle class="st8" cx="58.5" cy="96.6" r=".2"/><circle class="st8" cx="57" cy="96.8" r=".2"/><circle class="st8" cx="55.5" cy="97" r=".2"/><circle class="st8" cx="54.5" cy="96.2" r=".2"/><circle class="st8" cx="58.7" cy="98.7" r=".2"/><circle class="st8" cx="58.1" cy="97.7" r=".2"/><circle class="st8" cx="57.1" cy="98.9" r=".2"/><circle class="st8" cx="56.6" cy="98" r=".2"/><circle class="st8" cx="59" cy="95.4" r=".2"/><circle class="st8" cx="57.3" cy="95.7" r=".2"/><circle class="st8" cx="55.7" cy="95.9" r=".2"/><circle class="st8" cx="55.6" cy="99.1" r=".2"/><circle class="st8" cx="55.1" cy="98.2" r=".2"/><path class="st8" d="m54.3 99.9-1.8-1.5M54.2 95.3l-1.8-1.6M53.6 95.5l-1.8-1.6M61.6 96l.9-2.2M61.2 95.8l.9-2.2"/><ellipse transform="rotate(-8.569 64.98 97.926)" class="st8" cx="65" cy="97.9" rx=".9" ry=".8"/><path d="m64.7 99 .2-.5M64.7 99l.1-.5h.1l-.2.5zM64.4 99l.2-.5M64.4 99l.2-.5-.2.5z"/><path class="st4" d="m66.2 92.9 5.1-2.4 4.3 1 .8 1.6-8.2 3.9z"/><path class="st8" d="m77.2 91.4-1.7-.1 1 1.9 1.2-.6z"/><circle class="st8" cx="75" cy="93.1" r=".2"/><circle class="st8" cx="74.2" cy="92.4" r=".2"/><circle class="st8" cx="73.6" cy="93.8" r=".2"/><circle class="st8" cx="72.8" cy="93" r=".2"/><circle class="st8" cx="72.7" cy="91.9" r=".2"/><circle class="st8" cx="71.3" cy="92.5" r=".2"/><circle class="st8" cx="69.9" cy="93.2" r=".2"/><circle class="st8" cx="68.5" cy="93.9" r=".2"/><circle class="st8" cx="67.3" cy="93.4" r=".2"/><circle class="st8" cx="72.1" cy="94.5" r=".2"/><circle class="st8" cx="71.2" cy="93.8" r=".2"/><circle class="st8" cx="70.6" cy="95.2" r=".2"/><circle class="st8" cx="69.8" cy="94.5" r=".2"/><circle class="st8" cx="71.4" cy="91.3" r=".2"/><circle class="st8" cx="69.8" cy="92" r=".2"/><circle class="st8" cx="68.4" cy="92.7" r=".2"/><circle class="st8" cx="69.3" cy="95.9" r=".2"/><circle class="st8" cx="68.5" cy="95.1" r=".2"/><path class="st8" d="m68.2 97-2.1-.9M66.8 92.7l-2.2-1.1M66.3 93l-2.2-1M74.1 91.1l.2-2.4M73.6 91.1l.2-2.4"/><ellipse transform="rotate(-25.714 77.835 91.922)" class="st8" cx="77.8" cy="91.9" rx=".9" ry=".8"/><path d="M77.9 93v-.5M77.9 93v-.5h.1l-.1.5zM77.7 93.1v-.5M77.7 93.1l-.1-.5h.1v.5z"/><path class="st4" d="m77.6 86.8 4.1-3.8 4.4-.4 1.2 1.3-6.6 6.2z"/><path class="st8" d="m87.6 82.1-1.6.4 1.5 1.6 1-1z"/><circle class="st8" cx="86" cy="84.4" r=".2"/><circle class="st8" cx="85" cy="83.9" r=".2"/><circle class="st8" cx="84.9" cy="85.5" r=".2"/><circle class="st8" cx="83.9" cy="85" r=".2"/><circle class="st8" cx="83.4" cy="83.9" r=".2"/><circle class="st8" cx="82.3" cy="85" r=".2"/><circle class="st8" cx="81.2" cy="86" r=".2"/><circle class="st8" cx="80" cy="87" r=".2"/><circle class="st8" cx="78.8" cy="87" r=".2"/><circle class="st8" cx="83.6" cy="86.6" r=".2"/><circle class="st8" cx="82.6" cy="86.1" r=".2"/><circle class="st8" cx="82.5" cy="87.7" r=".2"/><circle class="st8" cx="81.5" cy="87.2" r=".2"/><circle class="st8" cx="82" cy="83.7" r=".2"/><circle class="st8" cx="80.8" cy="84.9" r=".2"/><circle class="st8" cx="79.6" cy="86" r=".2"/><circle class="st8" cx="81.4" cy="88.7" r=".2"/><circle class="st8" cx="80.4" cy="88.2" r=".2"/><path class="st8" d="m80.7 90.1-2.3-.2M78 86.4l-2.4-.3M77.6 86.8l-2.3-.3M84.6 82.8l-.5-2.4M84.1 82.9l-.5-2.4"/><ellipse transform="rotate(-42.856 88.38 82.417)" class="st8" cx="88.4" cy="82.4" rx=".9" ry=".8"/><path d="m88.8 83.4-.1-.4M88.8 83.4l-.2-.4.1-.1.1.5zM88.6 83.6l-.2-.5M88.6 83.6l-.2-.5h.1l.1.5z"/><path class="st4" d="m86.6 77.6 2.8-4.9 4.2-1.6 1.5.9-4.6 7.8z"/><path class="st8" d="m94.8 70.2-1.4.8 1.9 1.1.7-1.2z"/><circle class="st8" cx="94" cy="72.8" r=".2"/><circle class="st8" cx="92.9" cy="72.6" r=".2"/><circle class="st8" cx="93.2" cy="74.2" r=".2"/><circle class="st8" cx="92.1" cy="74" r=".2"/><circle class="st8" cx="91.4" cy="73.1" r=".2"/><circle class="st8" cx="90.6" cy="74.4" r=".2"/><circle class="st8" cx="89.8" cy="75.7" r=".2"/><circle class="st8" cx="89" cy="77.1" r=".2"/><circle class="st8" cx="87.8" cy="77.4" r=".2"/><circle class="st8" cx="92.4" cy="75.6" r=".2"/><circle class="st8" cx="91.3" cy="75.5" r=".2"/><circle class="st8" cx="91.6" cy="77" r=".2"/><circle class="st8" cx="90.5" cy="76.8" r=".2"/><circle class="st8" cx="90" cy="73.4" r=".2"/><circle class="st8" cx="89.1" cy="74.8" r=".2"/><circle class="st8" cx="88.3" cy="76.2" r=".2"/><circle class="st8" cx="90.8" cy="78.3" r=".2"/><circle class="st8" cx="89.7" cy="78.1" r=".2"/><path class="st8" d="m90.5 79.8-2.2.5M86.9 77.1l-2.3.4M86.7 77.6l-2.4.4M92.1 71.7 91 69.6M91.7 71.9l-1.2-2.1"/><ellipse transform="rotate(-60 95.66 70.233)" class="st8" cx="95.7" cy="70.2" rx=".9" ry=".8"/><path d="m96.3 71.1-.2-.4M96.3 71.1l-.3-.4.1-.1.2.5zM96.2 71.3l-.3-.4M96.2 71.3l-.3-.4.3.4z"/><path class="st4" d="m92.5 66.1 1.3-5.4 3.5-2.8 1.7.4-2 8.8z"/><path class="st8" d="M98.2 56.6 97 57.8l2.2.5.3-1.4z"/><circle class="st8" cx="98.2" cy="59.4" r=".2"/><circle class="st8" cx="97.1" cy="59.5" r=".2"/><circle class="st8" cx="97.8" cy="60.9" r=".2"/><circle class="st8" cx="96.8" cy="61.1" r=".2"/><circle class="st8" cx="95.7" cy="60.4" r=".2"/><circle class="st8" cx="95.4" cy="62" r=".2"/><circle class="st8" cx="95.1" cy="63.4" r=".2"/><circle class="st8" cx="94.7" cy="65" r=".2"/><circle class="st8" cx="93.6" cy="65.6" r=".2"/><circle class="st8" cx="97.5" cy="62.6" r=".2"/><circle class="st8" cx="96.4" cy="62.8" r=".2"/><circle class="st8" cx="97.1" cy="64.1" r=".2"/><circle class="st8" cx="96" cy="64.3" r=".2"/><circle class="st8" cx="94.5" cy="61.1" r=".2"/><circle class="st8" cx="94.1" cy="62.8" r=".2"/><circle class="st8" cx="93.8" cy="64.3" r=".2"/><circle class="st8" cx="96.8" cy="65.6" r=".2"/><circle class="st8" cx="95.7" cy="65.8" r=".2"/><path class="st8" d="m97 67.1-2 1.1M92.7 65.5l-2.2 1.1M92.6 66.1l-2.1 1.1M96.1 58.8l-1.8-1.6M95.7 59.2 94 57.6"/><ellipse transform="rotate(-77.144 99.018 56.44)" class="st8" cx="99" cy="56.4" rx=".9" ry=".8"/><path d="m99.9 57-.4-.3M99.9 57l-.4-.2.1-.1.3.3zM99.8 57.3l-.3-.3M99.8 57.3l-.4-.3h.1l.3.3z"/><path class="st4" d="m94.8 53.4-.4-5.5 2.5-3.7 1.8-.2.7 9.1z"/><path class="st8" d="m97.5 42.7-.8 1.5 2.2-.2-.1-1.4z"/><circle class="st8" cx="98.2" cy="45.3" r=".2"/><circle class="st8" cx="97.2" cy="45.8" r=".2"/><circle class="st8" cx="98.4" cy="46.9" r=".2"/><circle class="st8" cx="97.4" cy="47.4" r=".2"/><circle class="st8" cx="96.2" cy="47" r=".2"/><circle class="st8" cx="96.3" cy="48.6" r=".2"/><circle class="st8" cx="96.4" cy="50.1" r=".2"/><circle class="st8" cx="96.6" cy="51.7" r=".2"/><circle class="st8" cx="95.7" cy="52.6" r=".2"/><circle class="st8" cx="98.5" cy="48.6" r=".2"/><circle class="st8" cx="97.5" cy="49.1" r=".2"/><circle class="st8" cx="98.6" cy="50.2" r=".2"/><circle class="st8" cx="97.6" cy="50.7" r=".2"/><circle class="st8" cx="95.2" cy="48" r=".2"/><circle class="st8" cx="95.3" cy="49.8" r=".2"/><circle class="st8" cx="95.5" cy="51.3" r=".2"/><circle class="st8" cx="98.7" cy="51.7" r=".2"/><circle class="st8" cx="97.7" cy="52.2" r=".2"/><path class="st8" d="m99.4 53.1-1.6 1.6M94.8 52.8l-1.7 1.7M94.9 53.4l-1.7 1.7M96.1 45.4l-2.2-1M95.8 45.9l-2.1-1.1"/><ellipse transform="rotate(-4.286 98.16 42.266)" class="st8" cx="98.2" cy="42.3" rx=".8" ry=".9"/><path d="m99.2 42.6-.4-.2M99.2 42.6l-.5-.2h.1l.4.2zM99.2 42.9l-.5-.2M99.2 42.9l-.5-.2.1-.1.4.3z"/><path class="st4" d="m93.3 40.6-2.1-5.2 1.3-4.2 1.7-.7 3.3 8.5z"/><path class="st8" d="m92.6 29.6-.3 1.7 2.1-.8-.5-1.4z"/><circle class="st8" cx="94.1" cy="31.9" r=".2"/><circle class="st8" cx="93.3" cy="32.6" r=".2"/><circle class="st8" cx="94.7" cy="33.3" r=".2"/><circle class="st8" cx="93.9" cy="34.1" r=".2"/><circle class="st8" cx="92.7" cy="34.1" r=".2"/><circle class="st8" cx="93.3" cy="35.6" r=".2"/><circle class="st8" cx="93.8" cy="37" r=".2"/><circle class="st8" cx="94.4" cy="38.4" r=".2"/><circle class="st8" cx="93.9" cy="39.6" r=".2"/><circle class="st8" cx="95.3" cy="34.9" r=".2"/><circle class="st8" cx="94.5" cy="35.7" r=".2"/><circle class="st8" cx="95.9" cy="36.4" r=".2"/><circle class="st8" cx="95.1" cy="37.2" r=".2"/><circle class="st8" cx="92.1" cy="35.4" r=".2"/><circle class="st8" cx="92.7" cy="37" r=".2"/><circle class="st8" cx="93.3" cy="38.4" r=".2"/><circle class="st8" cx="96.5" cy="37.8" r=".2"/><circle class="st8" cx="95.7" cy="38.6" r=".2"/><path class="st8" d="m97.5 39-1 2M93.1 40.1l-1.2 2.1M93.3 40.6l-1.1 2.1M92.1 32.6l-2.4-.4M92 33.1l-2.4-.4"/><ellipse transform="rotate(-21.424 93.178 28.977)" class="st8" cx="93.2" cy="29" rx=".8" ry=".9"/><path d="m94.2 29-.4-.1M94.2 29h-.4v-.1l.4.1zM94.3 29.2h-.5M94.3 29.2h-.5.5z"/><path class="st4" d="m88 28.9-3.5-4.4V20l1.4-1.1 5.7 7.1z"/><path class="st8" d="m84.1 18.5.2 1.7 1.8-1.4-.9-1.1z"/><circle class="st8" cx="86.3" cy="20.2" r=".2"/><circle class="st8" cx="85.7" cy="21.2" r=".2"/><circle class="st8" cx="87.2" cy="21.5" r=".2"/><circle class="st8" cx="86.7" cy="22.4" r=".2"/><circle class="st8" cx="85.6" cy="22.8" r=".2"/><circle class="st8" cx="86.5" cy="24" r=".2"/><circle class="st8" cx="87.5" cy="25.2" r=".2"/><circle class="st8" cx="88.5" cy="26.4" r=".2"/><circle class="st8" cx="88.3" cy="27.7" r=".2"/><circle class="st8" cx="88.3" cy="22.8" r=".2"/><circle class="st8" cx="87.8" cy="23.8" r=".2"/><circle class="st8" cx="89.3" cy="24" r=".2"/><circle class="st8" cx="88.7" cy="25" r=".2"/><circle class="st8" cx="85.3" cy="24.2" r=".2"/><circle class="st8" cx="86.4" cy="25.5" r=".2"/><circle class="st8" cx="87.4" cy="26.8" r=".2"/><circle class="st8" cx="90.2" cy="25.2" r=".2"/><circle class="st8" cx="89.7" cy="26.2" r=".2"/><path class="st8" d="m91.6 26-.4 2.3M87.6 28.4l-.5 2.3M88.1 28.8l-.5 2.3M84.5 21.6l-2.3.3M84.6 22.1l-2.4.3"/><ellipse transform="rotate(-38.574 84.472 17.755)" class="st8" cx="84.5" cy="17.8" rx=".8" ry=".9"/><path d="m85.5 17.4-.5.1M85.5 17.4l-.5.2v-.1l.5-.1zM85.7 17.7l-.5.1M85.7 17.7l-.5.1v-.1h.5z"/><path class="st4" d="M79.5 19.1 74.9 16l-1.3-4.2 1-1.5 7.5 5.1z"/><path class="st8" d="m72.8 10.4.7 1.5 1.2-1.8-1.2-.8z"/><circle class="st8" cx="75.3" cy="11.4" r=".2"/><circle class="st8" cx="75.1" cy="12.5" r=".2"/><circle class="st8" cx="76.6" cy="12.3" r=".2"/><circle class="st8" cx="76.4" cy="13.4" r=".2"/><circle class="st8" cx="75.4" cy="14.1" r=".2"/><circle class="st8" cx="76.7" cy="15" r=".2"/><circle class="st8" cx="77.9" cy="15.8" r=".2"/><circle class="st8" cx="79.2" cy="16.7" r=".2"/><circle class="st8" cx="79.4" cy="17.9" r=".2"/><circle class="st8" cx="78" cy="13.3" r=".2"/><circle class="st8" cx="77.8" cy="14.4" r=".2"/><circle class="st8" cx="79.3" cy="14.2" r=".2"/><circle class="st8" cx="79.1" cy="15.2" r=".2"/><circle class="st8" cx="75.5" cy="15.5" r=".2"/><circle class="st8" cx="77" cy="16.5" r=".2"/><circle class="st8" cx="78.3" cy="17.3" r=".2"/><circle class="st8" cx="80.6" cy="15" r=".2"/><circle class="st8" cx="80.3" cy="16.1" r=".2"/><path class="st8" d="m82.1 15.4.3 2.3M79 18.8l.2 2.4M79.6 19.1l.2 2.4M74 13.2l-2.1 1M74.2 13.7l-2.1 1"/><ellipse transform="rotate(-55.714 72.866 9.587)" class="st8" cx="72.9" cy="9.6" rx=".8" ry=".9"/><path d="m73.8 9-.5.2M73.8 9l-.5.2.5-.2zM74 9.2l-.5.2M74 9.2l-.4.2-.1-.1.5-.1z"/><path class="st4" d="m68.5 12.4-5.3-1.7-2.5-3.6.5-1.7 8.7 2.7z"/><path class="st8" d="m59.5 6 1.1 1.3.7-2.1-1.4-.4z"/><circle class="st8" cx="62.2" cy="6.3" r=".2"/><circle class="st8" cx="62.3" cy="7.4" r=".2"/><circle class="st8" cx="63.7" cy="6.7" r=".2"/><circle class="st8" cx="63.8" cy="7.8" r=".2"/><circle class="st8" cx="63.1" cy="8.8" r=".2"/><circle class="st8" cx="64.6" cy="9.2" r=".2"/><circle class="st8" cx="66" cy="9.7" r=".2"/><circle class="st8" cx="67.5" cy="10.1" r=".2"/><circle class="st8" cx="68.1" cy="11.3" r=".2"/><circle class="st8" cx="65.4" cy="7.2" r=".2"/><circle class="st8" cx="65.5" cy="8.3" r=".2"/><circle class="st8" cx="66.9" cy="7.7" r=".2"/><circle class="st8" cx="67" cy="8.8" r=".2"/><circle class="st8" cx="63.7" cy="10.1" r=".2"/><circle class="st8" cx="65.3" cy="10.6" r=".2"/><circle class="st8" cx="66.8" cy="11" r=".2"/><circle class="st8" cx="68.3" cy="8.1" r=".2"/><circle class="st8" cx="68.4" cy="9.2" r=".2"/><path class="st8" d="m69.9 8.1.9 2M68 12.2l.9 2.2M68.6 12.3l.9 2.2M61.5 8.3l-1.7 1.6M61.9 8.7l-1.8 1.6"/><ellipse transform="rotate(-72.855 59.358 5.206)" class="st8" cx="59.4" cy="5.2" rx=".8" ry=".9"/><path d="m60 4.4-.3.3M60 4.4l-.3.3.3-.3zM60.3 4.5l-.4.3M60.3 4.5l-.3.3h-.1l.4-.3z"/></g></svg>