<svg version="1.1" id="Layer_1" xmlns="http://www.w3.org/2000/svg" x="0" y="0" viewBox="0 0 100 100" xml:space="preserve"><path fill="none" stroke="#000" stroke-width=".2" stroke-miterlimit="10" d="M42.02 2.87c.1-.2.1-.49 0-.79-.2-.49-.59-.79-.99-.69-.39.1-.49.59-.39 1.08.1.3.1.39.39.59L46.16 8c.2.3.2.39.2.69 0 .49-.3.99-.69.99s-.69-.39-.79-.89c0-.3.1-.59.2-.69l5.42-5.32c.1-.2.2-.39.2-.69 0-.49-.39-.89-.69-.89-.39 0-.69.49-.69.99 0 .3 0 .39.2.69l5.22 5.32c.2.3.2.39.2.69 0 .49-.3.99-.69.99s-.69-.39-.79-.89c0-.3.1-.59.2-.69l5.42-5.22c.59-.1.69-.39.69-.69 0-.49-.3-.89-.69-.89s-.69.39-.69.89c0 .3 0 .39.2.69l2.96 6.41c.1.39 0 .49-.1.69-.2.49-.59.79-.99.59-.39-.1-.49-.59-.3-1.08.1-.3.3-.49.49-.59l7-2.86c.2-.1.39-.3.49-.59.2-.49 0-.99-.3-1.08-.39-.1-.79.2-.99.69-.1.3-.1.39-.1.69l2.86 7c.1.39 0 .49-.1.69-.2.49-.59.79-.99.69-.39-.1-.49-.59-.3-1.08.1-.3.3-.49.49-.59l7-2.96c.2-.1.39-.3.49-.59.2-.49 0-.99-.39-1.08-.39-.1-.79.2-.99.69-.1.3-.1.39 0 .69l.49 7.1c-.1.39-.2.49-.39.69-.39.39-.89.39-1.18.2-.3-.3-.2-.79.2-1.18.2-.2.59-.39.79-.39l7.2-.2c.2 0 .49-.2.59-.39.3-.39.3-.89 0-1.18-.3-.3-.79-.1-1.08.3-.2.2-.2.3-.3.69l.39 7.49c-.1.39-.2.49-.3.69-.39.39-.89.49-1.18.2-.3-.3-.2-.79.1-1.18.2-.2.39-.3.69-.39l7.49-.2c.2 0 .49-.2.69-.39.3-.39.39-.89.1-1.18-.3-.3-.79-.1-1.18.2-.2.2-.3.3-.3.69l-2.07 6.8c-.2.3-.3.39-.49.49-.49.3-.99.2-1.18-.1-.2-.3 0-.79.49-1.08.3-.1.49-.2.79-.1l7 2.66c.2 0 .49 0 .69-.2.39-.3.59-.79.39-1.08s-.69-.39-1.18-.1c-.2.1-.3.2-.49.59l-2.27 6.9c-.2.3-.3.39-.49.49-.49.3-.99.2-1.18-.1s0-.79.49-1.08c.3-.1.49-.2.79-.1l7 2.66c.2.1.49 0 .79-.1.49-.2.69-.69.49-1.08-.2-.3-.69-.39-1.18-.2-.3.1-.3.2-.49.49l-4.24 5.32c-.3.2-.39.3-.69.3-.49.1-.99-.2-.99-.49-.1-.39.3-.79.79-.79.3 0 .59 0 .79.1l5.72 4.93c.2.1.39.2.69.2.49 0 .89-.39.89-.79 0-.39-.49-.69-.99-.59-.3 0-.39 0-.69.2l-4.93 5.72c-.3.2-.39.3-.69.3-.49.1-.99-.1-1.08-.49-.1-.39.3-.79.79-.89.3 0 .59 0 .79.1l5.72 4.93c.2.1.39.2.69.2.49 0 .89-.39.89-.69 0-.39-.49-.69-.99-.69-.3 0-.39 0-.69.2l-6.31 3.65c-.39.1-.49.1-.69 0-.49-.2-.79-.59-.69-.99.1-.39.59-.49 1.08-.39.3.1.49.3.59.49l3.75 6.6c.1.2.39.3.69.39.49.1.99-.1 1.08-.49.1-.39-.3-.79-.79-.89-.3-.1-.39-.1-.69 0l-6.8 3.55c-.39.1-.49.1-.69 0-.49-.2-.79-.59-.69-.99.1-.39.59-.49 1.08-.39.3.1.49.3.59.49l3.75 6.6c.1.2.39.3.69.39.49.1.99-.1 1.08-.49.1-.39-.3-.79-.79-.89-.3-.1-.39-.1-.69 0l-7.1 1.08c-.39-.1-.49-.1-.69-.3-.39-.3-.59-.79-.3-1.08.2-.3.79-.3 1.18 0 .2.2.39.39.39.59l.89 7.39c.1.2.2.39.49.59.39.3.99.3 1.18-.1.2-.3 0-.79-.39-1.08-.2-.2-.3-.2-.69-.2l-7.39.89c-.39-.1-.49-.1-.69-.3-.39-.3-.49-.89-.3-1.08s.79-.3 1.18.1c.2.2.39.39.39.69l.99 7.69c.1.2.2.39.49.59.39.3.99.3 1.18-.1.2-.39 0-.79-.39-1.08-.2-.2-.3-.2-.69-.2l-7-1.58c-.3-.2-.39-.3-.49-.49-.3-.49-.2-.99.2-1.18.3-.2.79 0 1.08.49.1.3.2.49.1.79l-1.87 7.29c0 .2.1.49.2.69.3.39.79.59 1.08.3.3-.2.3-.79 0-1.18-.2-.2-.3-.3-.59-.49l-7.29-1.87c-.3-.2-.39-.3-.49-.49-.3-.49-.2-.99.2-1.18.39-.2.79 0 1.08.49.1.3.2.49.1.79l-1.87 7.29c0 .2 0 .49.1.79.3.49.69.69 1.08.49.3-.2.39-.69.2-1.18-.1-.2-.2-.3-.49-.49l-5.91-3.94c-.2-.3-.3-.39-.3-.69-.1-.49.1-.99.49-1.08.39-.1.79.3.89.79.1.3 0 .59-.1.79l-4.34 6.21c-.1.2-.1.49-.1.79.1.49.49.79.89.69.39-.1.59-.59.39-1.08-.1-.3-.1-.39-.39-.59l-6.11-4.34c-.2-.3-.3-.39-.3-.69-.1-.49.1-.99.49-1.08.39-.1.79.3.89.79.1.3 0 .59-.1.79l-4.34 6.11c-.1.2-.2.49-.1.79.1.49.49.89.79.79.39-.1.59-.49.59-.99 0-.3-.1-.39-.3-.69l-4.04-5.82c-.2-.3-.2-.49-.1-.69 0-.49.39-.89.79-.89.39 0 .69.49.59.99 0 .3-.1.49-.3.69L41 95.92c-.2.2-.3.39-.3.69-.1.49.2.99.59.99s.79-.3.79-.79c0-.3 0-.39-.1-.69l-4.14-6.41c-.1-.39-.1-.49 0-.69.1-.49.49-.79.89-.69.39.1.59.59.39 1.08-.1.3-.2.49-.39.59l-6.21 4.24c-.2.1-.3.39-.39.59-.1.49.1.99.39 1.08s.79-.2.89-.69c.1-.3.1-.39 0-.69l-1.77-6.9c0-.39 0-.49.2-.69.3-.49.69-.69 1.08-.49.3.2.39.69.2 1.18-.1.3-.3.39-.59.49l-7.49 1.38c-.2.1-.39.3-.49.59-.2.49-.1.99.3 1.08.39.1.79-.1.99-.59.1-.3.1-.39.1-.69l-1.68-7.2c0-.39 0-.49.2-.69.2-.49.69-.69 1.08-.49s.39.69.2 1.18c-.1.3-.3.39-.59.49l-7.29 1.58c-.2 0-.49.2-.59.39-.3.39-.3.89 0 1.18.3.2.79.1 1.08-.3.2-.2.2-.3.3-.69l.89-7.2c.1-.3.2-.39.39-.59.39-.3.89-.3 1.18 0 .3.3.1.79-.3 1.08-.2.2-.49.3-.69.3l-7.49-1.28c-.2 0-.49.1-.69.3-.39.3-.49.79-.3 1.08.2.3.79.3 1.18 0 .2-.2.3-.3.39-.59l1.18-7.29c.1-.3.2-.39.39-.59.39-.3.89-.3 1.18 0 .2.3.1.79-.3 1.08-.3 0-.49.1-.79.1L7.42 70.5c-.2 0-.49 0-.69.2-.39.3-.59.79-.39 1.08.2.3.69.39 1.18.1.2-.1.3-.2.49-.59l3.35-6.31c.3-.3.39-.3.59-.39.49-.1.99 0 1.08.39.1.39-.2.79-.69.89-.3.1-.59.1-.79 0l-6.6-3.84c-.2-.1-.49-.1-.79 0-.49.2-.79.59-.69.99.1.39.59.49 1.08.39.3-.1.39-.1.59-.39L8.9 56.6c.2-.3.3-.3.59-.39.49-.2.99 0 1.08.3.1.39-.2.79-.69.99-.3.1-.59.1-.79 0l-6.51-3.75c-.2-.1-.49-.2-.79-.1-.49.1-.89.49-.79.89.1.39.49.59 1.08.49.3-.1.39-.1.69-.3l5.72-4.83c.31-.1.51-.2.71-.1.49.1.89.39.89.79s-.49.69-.99.59c-.3 0-.49-.2-.69-.3l-4.73-5.82c-.2-.2-.39-.3-.69-.3-.5-.09-.99.21-.99.6s.3.69.89.79c.3 0 .39 0 .69-.1l5.82-4.73c.3-.2.39-.2.69-.2.49 0 .89.3.99.69 0 .39-.39.69-.89.69-.3 0-.59-.1-.69-.2l-4.63-5.91c-.1-.2-.39-.3-.69-.39-.49-.1-.99.1-1.08.49s.3.79.79.89c.2-.1.39-.1.69-.2l6.8-2.46c.39 0 .49 0 .69.1.49.2.69.69.59.99-.1.3-.69.49-1.18.2-.3-.1-.49-.3-.59-.49l-2.37-7.1c-.1-.2-.3-.39-.49-.59-.49-.2-.99-.2-1.18.2-.2.3.1.79.49 1.08.39.1.49.2.79.2l7.1-2.37c.39-.1.49 0 .69.1.49.2.79.59.59.99-.1.39-.59.49-1.08.3-.3-.1-.49-.3-.59-.49l-2.27-7.1c-.1-.2-.2-.49-.49-.59-.39-.3-.99-.3-1.18 0-.2.3-.1.79.39 1.08.2.2.3.2.69.2l7.2.1c.39.1.49.2.59.39.39.39.39.89.2 1.18-.1.3-.59.3-.99-.1-.2-.2-.3-.49-.3-.69l.49-7.49c0-.2-.1-.49-.3-.69-.39-.39-.89-.49-1.18-.2-.3.3-.2.79.1 1.18.2.2.3.3.59.39l7.49.49c.39.1.49.2.59.39.39.39.39.89.2 1.18-.3.3-.79.2-1.18-.2-.2-.2-.3-.49-.3-.69l.49-7.39c0-.2 0-.49-.2-.69-.3-.39-.8-.59-1.09-.39-.3.2-.3.79 0 1.18.2.2.2.3.59.49l6.6 2.66c.3.2.39.3.49.59.2.49.1.99-.2 1.18s-.79-.1-.99-.49c-.1-.3-.2-.49-.1-.79l2.76-5.91.39-.89c.1-.2 0-.49-.1-.79-.3-.79-.69-.99-1.08-.79-.3.2-.39.69-.2 1.18.1.3.2.39.49.59l6.8 3.06c.3.2.39.3.49.59.2.49.1.99-.3 1.08-.39.2-.79-.1-.99-.59-.1-.3-.1-.49-.1-.79l3.09-6.89z"/><circle cx="65.78" cy="9.67" r=".49"/><circle cx="73.07" cy="13.32" r=".49"/><circle cx="58.19" cy="7.6" r=".49"/><circle cx="50.3" cy="6.91" r=".49"/><circle cx="54.74" cy="3.86" r=".49"/><circle cx="45.87" cy="3.86" r=".49"/><circle cx="62.92" cy="5.44" r=".49"/><circle cx="70.91" cy="8.49" r=".49"/><circle cx="78.2" cy="12.93" r=".49"/><circle cx="84.21" cy="18.35" r=".49"/><circle cx="89.73" cy="25.55" r=".49"/><circle cx="93.38" cy="32.94" r=".49"/><circle cx="95.75" cy="41.22" r=".49"/><circle cx="96.63" cy="50.19" r=".49"/><circle cx="95.75" cy="58.47" r=".49"/><circle cx="93.48" cy="66.75" r=".49"/><circle cx="89.44" cy="74.54" r=".49"/><circle cx="84.41" cy="81.24" r=".49"/><circle cx="77.81" cy="87.06" r=".49"/><circle cx="70.51" cy="91.39" r=".49"/><circle cx="62.82" cy="94.35" r=".49"/><circle cx="54.34" cy="95.83" r=".49"/><circle cx="45.97" cy="95.83" r=".49"/><circle cx="37.59" cy="94.15" r=".49"/><circle cx="29.8" cy="91.2" r=".49"/><circle cx="22.6" cy="86.56" r=".49"/><circle cx="16.2" cy="80.85" r=".49"/><circle cx="11.17" cy="74.14" r=".49"/><circle cx="7.32" cy="66.45" r=".49"/><circle cx="5.06" cy="58.17" r=".49"/><circle cx="4.27" cy="49.7" r=".49"/><circle cx="5.06" cy="41.22" r=".49"/><circle cx="7.42" cy="33.14" r=".49"/><circle cx="11.17" cy="25.45" r=".49"/><circle cx="16.29" cy="18.74" r=".49"/><circle cx="22.7" cy="12.93" r=".49"/><circle cx="30" cy="8.39" r=".49"/><circle cx="37.88" cy="5.44" r=".49"/><circle cx="42.32" cy="7.6" r=".49"/><circle cx="34.93" cy="9.77" r=".49"/><circle cx="27.83" cy="13.22" r=".49"/><circle cx="21.42" cy="18.15" r=".49"/><circle cx="16" cy="23.97" r=".49"/><circle cx="11.96" cy="30.57" r=".49"/><circle cx="9.1" cy="37.87" r=".49"/><circle cx="7.42" cy="45.75" r=".49"/><circle cx="7.42" cy="53.44" r=".49"/><circle cx="8.9" cy="61.62" r=".49"/><circle cx="11.66" cy="69.02" r=".49"/><circle cx="15.8" cy="75.82" r=".49"/><circle cx="21.22" cy="81.73" r=".49"/><circle cx="27.34" cy="86.47" r=".49"/><circle cx="34.43" cy="90.31" r=".49"/><circle cx="42.22" cy="92.48" r=".49"/><circle cx="50.4" cy="93.27" r=".49"/><circle cx="58.29" cy="92.48" r=".49"/><circle cx="65.98" cy="90.41" r=".49"/><circle cx="73.17" cy="86.66" r=".49"/><circle cx="79.38" cy="82.03" r=".49"/><circle cx="84.71" cy="76.31" r=".49"/><circle cx="88.95" cy="69.61" r=".49"/><circle cx="92" cy="61.92" r=".49"/><circle cx="93.48" cy="54.03" r=".49"/><circle cx="93.48" cy="46.05" r=".49"/><circle cx="92" cy="37.87" r=".49"/><circle cx="89.04" cy="30.57" r=".49"/><circle cx="84.81" cy="23.77" r=".49"/><circle cx="79.38" cy="17.96" r=".49"/></svg>