<svg xmlns="http://www.w3.org/2000/svg" viewBox="0 0 103 104" style="enable-background:new 0 0 103 104" xml:space="preserve"><style>.st1{fill:#444d66;display:inline}.st2{display:inline}.st4{fill:none;stroke:#000;stroke-width:.08px;stroke-miterlimit:10}.st5{fill:none;stroke:#000;stroke-width:.25px;stroke-miterlimit:10}.st6{fill:none;stroke:#000;stroke-width:.03px;stroke-miterlimit:10}.st7{fill:none;stroke:#000;stroke-miterlimit:10}.st8{stroke:#000;stroke-width:.08px;stroke-miterlimit:10}</style><g id="Capa_2"><path d="M43 4.2c.1-.2.1-.5 0-.8-.2-.5-.6-.8-1-.7s-.5.6-.4 1.1c.1.3.1.4.4.6l5.2 5c.2.3.2.4.2.7 0 .5-.3 1-.7 1s-.7-.4-.8-.9c0-.3.1-.6.2-.7l5.5-5.4c.1-.2.2-.4.2-.7 0-.5-.4-.9-.7-.9-.4 0-.7.5-.7 1 0 .3 0 .4.2.7l5.3 5.4c.2.3.2.4.2.7 0 .5-.3 1-.7 1s-.7-.4-.8-.9c0-.3.1-.6.2-.7l5.5-5.3c.6-.1.7-.4.7-.7 0-.5-.3-.9-.7-.9s-.7.4-.7.9c0 .3 0 .4.2.7l3 6.5c.1.4 0 .5-.1.7-.2.5-.6.8-1 .6-.4-.1-.5-.6-.3-1.1.1-.3.3-.5.5-.6L69 7.6c.2-.1.4-.3.5-.6.2-.5 0-1-.3-1.1-.4-.1-.8.2-1 .7-.1.3-.1.4-.1.7l2.9 7.1c.1.4 0 .5-.1.7-.2.5-.6.8-1 .7-.4-.1-.5-.6-.3-1.1.1-.3.3-.5.5-.6l7.1-3c.2-.1.4-.3.5-.6.2-.5 0-1-.4-1.1-.4-.1-.8.2-1 .7-.1.3-.1.4 0 .7l.5 7.2c-.1.4-.2.5-.4.7-.4.4-.9.4-1.2.2-.3-.3-.2-.8.2-1.2.2-.2.6-.4.8-.4l7.3-.2c.2 0 .5-.2.6-.4.3-.4.3-.9 0-1.2s-.8-.1-1.1.3c-.2.2-.2.3-.3.7l.4 7.6c-.1.4-.2.5-.3.7-.4.4-.9.5-1.2.2s-.2-.8.1-1.2c.2-.2.4-.3.7-.4l7.6-.2c.2 0 .5-.2.7-.4.3-.4.4-.9.1-1.2s-.8-.1-1.2.2c-.2.2-.3.3-.3.7l-2.1 6.9c-.2.3-.3.4-.5.5-.5.3-1 .2-1.2-.1-.2-.3 0-.8.5-1.1.3-.1.5-.2.8-.1l7.1 2.7c.2 0 .5 0 .7-.2.4-.3.6-.8.4-1.1-.2-.3-.7-.4-1.2-.1-.2.1-.3.2-.5.6l-2.3 7c-.2.3-.3.4-.5.5-.5.3-1 .2-1.2-.1-.2-.3 0-.8.5-1.1.3-.1.5-.2.8-.1l7.1 2.7c.2.1.5 0 .8-.1.5-.2.7-.7.5-1.1-.2-.3-.7-.4-1.2-.2-.3.1-.3.2-.5.5L93 43.9c-.3.2-.4.3-.7.3-.5.1-1-.2-1-.5-.1-.4.3-.8.8-.8.3 0 .6 0 .8.1l5.8 5c.2.1.4.2.7.2.5 0 .9-.4.9-.8s-.5-.7-1-.6c-.3 0-.4 0-.7.2l-5 5.8c-.3.2-.4.3-.7.3-.5.1-1-.1-1.1-.5-.1-.4.3-.8.8-.9.3 0 .6 0 .8.1l5.8 5c.2.1.4.2.7.2.5 0 .9-.4.9-.7 0-.4-.5-.7-1-.7-.3 0-.4 0-.7.2l-6.4 3.7c-.4.1-.5.1-.7 0-.5-.2-.8-.6-.7-1 .1-.4.6-.5 1.1-.4.3.1.5.3.6.5l3.8 6.7c.1.2.4.3.7.4.5.1 1-.1 1.1-.5.1-.4-.3-.8-.8-.9-.3-.1-.4-.1-.7 0l-6.9 3.6c-.4.1-.5.1-.7 0-.5-.2-.8-.6-.7-1 .1-.4.6-.5 1.1-.4.3.1.5.3.6.5l3.8 6.7c.1.2.4.3.7.4.5.1 1-.1 1.1-.5s-.3-.8-.8-.9c-.3-.1-.4-.1-.7 0l-7.2 1.1c-.4-.1-.5-.1-.7-.3-.4-.3-.6-.8-.3-1.1.2-.3.8-.3 1.2 0 .2.2.4.4.4.6l.9 7.5c.1.2.2.4.5.6.4.3 1 .3 1.2-.1.2-.3 0-.8-.4-1.1-.2-.2-.3-.2-.7-.2l-7.5.9c-.4-.1-.5-.1-.7-.3-.4-.3-.5-.9-.3-1.1s.8-.3 1.2.1c.2.2.4.4.4.7l1 7.8c.1.2.2.4.5.6.4.3 1 .3 1.2-.1s0-.8-.4-1.1c-.2-.2-.3-.2-.7-.2l-7.1-1.6c-.3-.2-.4-.3-.5-.5-.3-.5-.2-1 .2-1.2.3-.2.8 0 1.1.5.1.3.2.5.1.8l-1.9 7.4c0 .2.1.5.2.7.3.4.8.6 1.1.3.3-.2.3-.8 0-1.2-.2-.2-.3-.3-.6-.5l-7.4-1.9c-.3-.2-.4-.3-.5-.5-.3-.5-.2-1 .2-1.2s.8 0 1.1.5c.1.3.2.5.1.8l-1.9 7.4c0 .2 0 .5.1.8.3.5.7.7 1.1.5.3-.2.4-.7.2-1.2-.1-.2-.2-.3-.5-.5l-6-4c-.2-.3-.3-.4-.3-.7-.1-.5.1-1 .5-1.1s.8.3.9.8c.1.3 0 .6-.1.8l-4.4 6.3c-.1.2-.1.5-.1.8.1.5.5.8.9.7s.6-.6.4-1.1c-.1-.3-.1-.4-.4-.6l-6.2-4.4c-.2-.3-.3-.4-.3-.7-.1-.5.1-1 .5-1.1.4-.1.8.3.9.8.1.3 0 .6-.1.8l-4.4 6.2c-.1.2-.2.5-.1.8.1.5.5.9.8.8.4-.1.6-.5.6-1 0-.3-.1-.4-.3-.7L48 93.9c-.2-.3-.2-.5-.1-.7 0-.5.4-.9.8-.9s.7.5.6 1c0 .3-.1.5-.3.7l-7 4.5c-.2.2-.3.4-.3.7-.1.5.2 1 .6 1s.8-.3.8-.8c0-.3 0-.4-.1-.7l-4.2-6.5c-.1-.4-.1-.5 0-.7.1-.5.5-.8.9-.7.4.1.6.6.4 1.1-.1.3-.2.5-.4.6l-6.3 4.3c-.2.1-.3.4-.4.6-.1.5.1 1 .4 1.1s.8-.2.9-.7c.1-.3.1-.4 0-.7l-1.8-7c0-.4 0-.5.2-.7.3-.5.7-.7 1.1-.5.3.2.4.7.2 1.2-.1.3-.3.4-.6.5L25.8 92c-.2.1-.4.3-.5.6-.2.5-.1 1 .3 1.1s.8-.1 1-.6c.1-.3.1-.4.1-.7L25 85.1c0-.4 0-.5.2-.7.2-.5.7-.7 1.1-.5s.4.7.2 1.2c-.1.3-.3.4-.6.5l-7.4 1.6c-.2 0-.5.2-.6.4-.3.4-.3.9 0 1.2.3.2.8.1 1.1-.3.2-.2.2-.3.3-.7l.9-7.3c.1-.3.2-.4.4-.6.4-.3.9-.3 1.2 0s.1.8-.3 1.1c-.2.2-.5.3-.7.3L13.2 80c-.2 0-.5.1-.7.3-.4.3-.5.8-.3 1.1.2.3.8.3 1.2 0 .2-.2.3-.3.4-.6l1.2-7.4c.1-.3.2-.4.4-.6.4-.3.9-.3 1.2 0 .2.3.1.8-.3 1.1-.3 0-.5.1-.8.1l-7.6-1.2c-.2 0-.5 0-.7.2-.4.3-.6.8-.4 1.1s.7.4 1.2.1c.2-.1.3-.2.5-.6l3.4-6.4c.3-.3.4-.3.6-.4.5-.1 1 0 1.1.4.1.4-.2.8-.7.9-.3.1-.6.1-.8 0l-6.7-3.9c-.2-.1-.5-.1-.8 0-.5.2-.8.6-.7 1 .1.4.6.5 1.1.4.3-.1.4-.1.6-.4l3.8-6.5c.2-.3.3-.3.6-.4.5-.2 1 0 1.1.3.1.4-.2.8-.7 1-.3.1-.6.1-.8 0L3 55.8c-.2-.1-.5-.2-.8-.1-.5.1-.9.5-.8.9.1.4.5.6 1.1.5.3-.1.4-.1.7-.3L9 51.9c.3-.1.5-.2.7-.1.5.1.9.4.9.8s-.5.7-1 .6c-.3 0-.5-.2-.7-.3L4.1 47c-.2-.2-.4-.3-.7-.3-.5-.1-1 .2-1 .6 0 .4.3.7.9.8.3 0 .4 0 .7-.1l5.9-4.8c.3-.2.4-.2.7-.2.5 0 .9.3 1 .7 0 .4-.4.7-.9.7-.3 0-.6-.1-.7-.2l-4.7-6c-.1-.2-.4-.3-.7-.4-.5-.1-1 .1-1.1.5-.1.4.3.8.8.9.2-.1.4-.1.7-.2l6.9-2.5c.4 0 .5 0 .7.1.5.2.7.7.6 1s-.7.5-1.2.2c-.3-.1-.5-.3-.6-.5L9 30.1c-.1-.2-.3-.4-.5-.6-.5-.2-1-.2-1.2.2-.2.3.1.8.5 1.1.4.1.5.2.8.2l7.2-2.4c.4-.1.5 0 .7.1.5.2.8.6.6 1-.1.4-.6.5-1.1.3-.3-.1-.5-.3-.6-.5l-2.3-7.2c-.1-.2-.2-.5-.5-.6-.4-.3-1-.3-1.2 0-.2.3-.1.8.4 1.1.2.2.3.2.7.2l7.3.1c.4.1.5.2.6.4.4.4.4.9.2 1.2-.1.3-.6.3-1-.1-.2-.2-.3-.5-.3-.7l.5-7.6c0-.2-.1-.5-.3-.7-.4-.4-.9-.5-1.2-.2-.3.3-.2.8.1 1.2.2.2.3.3.6.4l7.6.5c.4.1.5.2.6.4.4.4.4.9.2 1.2-.3.3-.8.2-1.2-.2-.2-.2-.3-.5-.3-.7l.5-7.5c0-.2 0-.5-.2-.7-.3-.4-.8-.6-1.1-.4-.3.2-.3.8 0 1.2.2.2.2.3.6.5l6.7 2.7c.3.2.4.3.5.6.2.5.1 1-.2 1.2-.3.2-.8-.1-1-.5-.1-.3-.2-.5-.1-.8l2.8-6 .4-.9c.1-.2 0-.5-.1-.8-.3-.8-.7-1-1.1-.8-.3.2-.4.7-.2 1.2.1.3.2.4.5.6l6.9 3.1c.3.2.4.3.5.6.2.5.1 1-.3 1.1-.4.2-.8-.1-1-.6-.1-.3-.1-.5-.1-.8l3.1-7z" style="fill:none;stroke:#000;stroke-width:.2px;stroke-miterlimit:10"/><circle cx="67.1" cy="11.1" r=".5"/><circle cx="74.5" cy="14.8" r=".5"/><circle cx="59.4" cy="9" r=".5"/><circle cx="51.4" cy="8.3" r=".5"/><circle cx="55.9" cy="5.2" r=".5"/><circle cx="46.9" cy="5.2" r=".5"/><circle cx="64.2" cy="6.8" r=".5"/><circle cx="72.3" cy="9.9" r=".5"/><circle cx="79.7" cy="14.4" r=".5"/><circle cx="85.8" cy="19.9" r=".5"/><circle cx="91.4" cy="27.2" r=".5"/><circle cx="95.1" cy="34.7" r=".5"/><circle cx="97.5" cy="43.1" r=".5"/><circle cx="98.4" cy="52.2" r=".5"/><circle cx="97.5" cy="60.6" r=".5"/><circle cx="95.2" cy="69" r=".5"/><circle cx="91.1" cy="76.9" r=".5"/><circle cx="86" cy="83.7" r=".5"/><circle cx="79.3" cy="89.6" r=".5"/><circle cx="71.9" cy="94" r=".5"/><circle cx="64.1" cy="97" r=".5"/><circle cx="55.5" cy="98.5" r=".5"/><circle cx="47" cy="98.5" r=".5"/><circle cx="38.5" cy="96.8" r=".5"/><circle cx="30.6" cy="93.8" r=".5"/><circle cx="23.3" cy="89.1" r=".5"/><circle cx="16.8" cy="83.3" r=".5"/><circle cx="11.7" cy="76.5" r=".5"/><circle cx="7.8" cy="68.7" r=".5"/><circle cx="5.5" cy="60.3" r=".5"/><circle cx="4.7" cy="51.7" r=".5"/><circle cx="5.5" cy="43.1" r=".5"/><circle cx="7.9" cy="34.9" r=".5"/><circle cx="11.7" cy="27.1" r=".5"/><circle cx="16.9" cy="20.3" r=".5"/><circle cx="23.4" cy="14.4" r=".5"/><circle cx="30.8" cy="9.8" r=".5"/><circle cx="38.8" cy="6.8" r=".5"/><circle cx="43.3" cy="9" r=".5"/><circle cx="35.8" cy="11.2" r=".5"/><circle cx="28.6" cy="14.7" r=".5"/><circle cx="22.1" cy="19.7" r=".5"/><circle cx="16.6" cy="25.6" r=".5"/><circle cx="12.5" cy="32.3" r=".5"/><circle cx="9.6" cy="39.7" r=".5"/><circle cx="7.9" cy="47.7" r=".5"/><circle cx="7.9" cy="55.5" r=".5"/><circle cx="9.4" cy="63.8" r=".5"/><circle cx="12.2" cy="71.3" r=".5"/><circle cx="16.4" cy="78.2" r=".5"/><circle cx="21.9" cy="84.2" r=".5"/><circle cx="28.1" cy="89" r=".5"/><circle cx="35.3" cy="92.9" r=".5"/><circle cx="43.2" cy="95.1" r=".5"/><circle cx="51.5" cy="95.9" r=".5"/><circle cx="59.5" cy="95.1" r=".5"/><circle cx="67.3" cy="93" r=".5"/><circle cx="74.6" cy="89.2" r=".5"/><circle cx="80.9" cy="84.5" r=".5"/><circle cx="86.3" cy="78.7" r=".5"/><circle cx="90.6" cy="71.9" r=".5"/><circle cx="93.7" cy="64.1" r=".5"/><circle cx="95.2" cy="56.1" r=".5"/><circle cx="95.2" cy="48" r=".5"/><circle cx="93.7" cy="39.7" r=".5"/><circle cx="90.7" cy="32.3" r=".5"/><circle cx="86.4" cy="25.4" r=".5"/><circle cx="80.9" cy="19.5" r=".5"/></g></svg>