<svg xmlns="http://www.w3.org/2000/svg" viewBox="0 0 103 104" style="enable-background:new 0 0 103 104" xml:space="preserve"><style>.st1{fill:#444d66;display:inline}.st3{fill:none;stroke:#000;stroke-width:.2px;stroke-miterlimit:10}.st4{fill:none;stroke:#000;stroke-width:.08px;stroke-miterlimit:10}.st5{fill:none;stroke:#000;stroke-width:.25px;stroke-miterlimit:10}.st6{fill:none;stroke:#000;stroke-width:.03px;stroke-miterlimit:10}.st7{fill:none;stroke:#000;stroke-miterlimit:10}.st8{stroke:#000;stroke-width:.08px;stroke-miterlimit:10}</style><g id="Capa_2"><circle cx="51.9" cy="9.8" r=".4"/><circle cx="51.9" cy="4.4" r=".4"/><circle cx="55.4" cy="7.4" r=".4"/><path class="st3" d="M48.6 5.2s3.3 1.3 5.9 4.4"/><path class="st3" d="M49.4 9.6s2.3-3 5.8-4.4"/><circle cx="44.8" cy="10.3" r=".4"/><circle cx="43.9" cy="5.1" r=".4"/><circle cx="47.7" cy="7.4" r=".4"/><path class="st3" d="M40.7 6.4s3.5.7 6.6 3.3"/><path class="st3" d="M42.2 10.5s1.7-3.4 5-5.3"/><circle cx="37.8" cy="12.1" r=".4"/><circle cx="36" cy="7" r=".4"/><circle cx="40.2" cy="8.7" r=".4"/><path class="st3" d="M33.1 8.9s3.5.1 7 2.2"/><path class="st3" d="M35.3 12.7s1.2-3.6 4-6.1"/><circle cx="31.2" cy="15" r=".4"/><circle cx="28.6" cy="10.3" r=".4"/><circle cx="33" cy="11.3" r=".4"/><path class="st3" d="M26 12.6s3.5-.5 7.3.9"/><path class="st3" d="M28.9 16s.5-3.8 2.9-6.6"/><circle cx="25.2" cy="19" r=".4"/><circle cx="21.9" cy="14.8" r=".4"/><circle cx="26.4" cy="15" r=".4"/><path class="st3" d="M19.7 17.5s3.4-1.1 7.3-.3"/><path class="st3" d="M23.1 20.4s-.1-3.8 1.7-7"/><circle cx="20" cy="23.9" r=".4"/><circle cx="16" cy="20.4" r=".4"/><circle cx="20.5" cy="19.8" r=".4"/><path class="st3" d="M14.3 23.4s3.2-1.6 7.2-1.5"/><path class="st3" d="M18.1 25.6s-.8-3.7.5-7.2"/><circle cx="15.7" cy="29.6" r=".4"/><circle cx="11.1" cy="26.8" r=".4"/><circle cx="15.4" cy="25.5" r=".4"/><path class="st3" d="M10 30.1s2.8-2.1 6.8-2.7"/><path class="st3" d="M14.1 31.7s-1.4-3.5-.7-7.2"/><circle cx="12.4" cy="36" r=".4"/><circle cx="7.4" cy="34" r=".4"/><circle cx="11.4" cy="32" r=".4"/><path class="st3" d="M6.8 37.4s2.4-2.6 6.3-3.8"/><path class="st3" d="M11.2 38.3s-1.9-3.2-1.9-7"/><circle cx="10.2" cy="42.9" r=".4"/><circle cx="5" cy="41.8" r=".4"/><circle cx="8.6" cy="39" r=".4"/><path class="st3" d="M5 45.2s2-2.9 5.5-4.8"/><path class="st3" d="M9.4 45.3s-2.5-2.9-3.1-6.6"/><circle cx="9.2" cy="50" r=".4"/><circle cx="3.9" cy="49.8" r=".4"/><circle cx="7" cy="46.5" r=".4"/><path class="st3" d="M4.5 53.2s1.4-3.2 4.6-5.7"/><path class="st3" d="M8.9 52.5s-2.9-2.4-4.1-6"/><circle cx="9.5" cy="57.2" r=".4"/><circle cx="4.2" cy="57.9" r=".4"/><circle cx="6.7" cy="54.1" r=".4"/><path class="st3" d="M5.3 61.1s.9-3.4 3.6-6.4"/><path class="st3" d="M9.5 59.8s-3.3-1.9-5.1-5.2"/><circle cx="10.9" cy="64.3" r=".4"/><circle cx="5.8" cy="65.8" r=".4"/><circle cx="7.6" cy="61.7" r=".4"/><path class="st3" d="M7.5 68.8s.3-3.5 2.5-6.9"/><path class="st3" d="M11.4 66.7s-3.6-1.3-5.9-4.2"/><circle cx="13.5" cy="70.9" r=".4"/><circle cx="8.8" cy="73.4" r=".4"/><circle cx="9.9" cy="69" r=".4"/><path class="st3" d="M10.9 76s-.3-3.5 1.3-7.2"/><path class="st3" d="M14.5 73.3s-3.7-.7-6.5-3.2"/><circle cx="17.3" cy="77.1" r=".4"/><circle cx="13" cy="80.3" r=".4"/><circle cx="13.3" cy="75.8" r=".4"/><path class="st3" d="M15.5 82.6s-.9-3.4 0-7.3"/><path class="st3" d="M18.6 79.3s-3.8 0-7-2"/><circle cx="22" cy="82.5" r=".4"/><circle cx="18.3" cy="86.4" r=".4"/><circle cx="17.8" cy="81.9" r=".4"/><path class="st3" d="M21.2 88.2S19.7 85 20 81"/><path class="st3" d="M23.6 84.5s-3.7.6-7.2-.8"/><circle cx="27.5" cy="87.1" r=".4"/><circle cx="24.5" cy="91.5" r=".4"/><circle cx="23.3" cy="87.2" r=".4"/><path class="st3" d="M27.7 92.8s-2-2.9-2.4-6.9"/><path class="st3" d="M29.5 88.7s-3.6 1.2-7.2.4"/><circle cx="33.8" cy="90.7" r=".4"/><circle cx="31.6" cy="95.5" r=".4"/><circle cx="29.7" cy="91.4" r=".4"/><path class="st3" d="M34.9 96.3s-2.5-2.5-3.6-6.4"/><path class="st3" d="M36 91.9s-3.3 1.8-7.1 1.6"/><circle cx="40.5" cy="93.1" r=".4"/><circle cx="39.2" cy="98.3" r=".4"/><circle cx="36.6" cy="94.6" r=".4"/><path class="st3" d="M42.6 98.4s-2.9-2.1-4.6-5.7"/><path class="st3" d="M42.9 94s-3 2.3-6.7 2.8"/><circle cx="47.6" cy="94.4" r=".4"/><circle cx="47.1" cy="99.7" r=".4"/><circle cx="44" cy="96.5" r=".4"/><path class="st3" d="M50.6 99.3s-3.2-1.6-5.5-4.9"/><path class="st3" d="M50.1 94.9s-2.5 2.8-6.1 3.9"/><circle cx="54.8" cy="94.5" r=".4"/><circle cx="55.2" cy="99.8" r=".4"/><circle cx="51.6" cy="97.1" r=".4"/><path class="st3" d="M58.5 98.8s-3.4-1-6.2-3.9"/><path class="st3" d="M57.3 94.5s-2 3.2-5.4 4.9"/><circle cx="61.9" cy="93.3" r=".4"/><circle cx="63.2" cy="98.5" r=".4"/><circle cx="59.2" cy="96.5" r=".4"/><path class="st3" d="M66.3 96.9s-3.5-.4-6.8-2.8"/><path class="st3" d="M64.4 92.9s-1.5 3.5-4.5 5.7"/><circle cx="68.7" cy="91" r=".4"/><circle cx="70.9" cy="95.9" r=".4"/><circle cx="66.5" cy="94.6" r=".4"/><path class="st3" d="M73.7 93.8s-3.5.2-7.2-1.6"/><path class="st3" d="M71.1 90.2s-.8 3.7-3.5 6.4"/><circle cx="75" cy="87.5" r=".4"/><circle cx="78" cy="92" r=".4"/><circle cx="73.5" cy="91.4" r=".4"/><path class="st3" d="M80.4 89.5s-3.5.8-7.3-.3"/><path class="st3" d="M77.2 86.3s-.2 3.8-2.3 6.9"/><circle cx="80.6" cy="83.1" r=".4"/><circle cx="84.3" cy="86.9" r=".4"/><circle cx="79.8" cy="87.1" r=".4"/><path class="st3" d="M86.3 84.1S83 85.4 79 85"/><path class="st3" d="M82.6 81.5s.4 3.8-1.1 7.2"/><circle cx="85.4" cy="77.7" r=".4"/><circle cx="89.7" cy="80.9" r=".4"/><circle cx="85.3" cy="81.9" r=".4"/><path class="st3" d="M91.1 77.7s-3 1.9-7 2.1"/><path class="st3" d="M87.1 75.8s1.1 3.6.1 7.3"/><circle cx="89.3" cy="71.6" r=".4"/><circle cx="94" cy="74" r=".4"/><circle cx="89.8" cy="75.7" r=".4"/><path class="st3" d="M94.9 70.7s-2.7 2.4-6.6 3.3"/><path class="st3" d="M90.6 69.5s1.7 3.4 1.3 7.1"/><circle cx="92" cy="65" r=".4"/><circle cx="97.1" cy="66.5" r=".4"/><circle cx="93.3" cy="68.9" r=".4"/><path class="st3" d="M97.4 63.1s-2.2 2.8-5.9 4.4"/><path class="st3" d="M93 62.6s2.2 3.1 2.5 6.8"/><circle cx="93.6" cy="57.9" r=".4"/><circle cx="98.9" cy="58.6" r=".4"/><circle cx="95.5" cy="61.6" r=".4"/><path class="st3" d="M98.6 55.2s-1.7 3.1-5.1 5.3"/><path class="st3" d="M94.1 55.5s2.7 2.7 3.6 6.3"/><circle cx="93.9" cy="50.8" r=".4"/><circle cx="99.3" cy="50.5" r=".4"/><circle cx="96.5" cy="54.1" r=".4"/><path class="st3" d="M98.4 47.2s-1.2 3.3-4.1 6.1"/><path class="st3" d="M94.1 48.2s3.1 2.2 4.6 5.6"/><circle cx="93.1" cy="43.6" r=".4"/><circle cx="98.3" cy="42.5" r=".4"/><circle cx="96.1" cy="46.5" r=".4"/><path class="st3" d="M96.9 39.4s-.6 3.5-3 6.7"/><path class="st3" d="M92.8 41.1s3.4 1.6 5.5 4.7"/><circle cx="91" cy="36.7" r=".4"/><circle cx="96" cy="34.7" r=".4"/><circle cx="94.5" cy="39" r=".4"/><path class="st3" d="M94.1 31.9s0 3.5-1.9 7.1"/><path class="st3" d="M90.3 34.3s3.7 1 6.2 3.7"/><circle cx="87.9" cy="30.3" r=".4"/><circle cx="92.4" cy="27.5" r=".4"/><circle cx="91.7" cy="32" r=".4"/><path class="st3" d="M90 25s.6 3.5-.6 7.3"/><path class="st3" d="M86.7 28s3.8.4 6.8 2.6"/><circle cx="83.6" cy="24.5" r=".4"/><circle cx="87.7" cy="20.9" r=".4"/><circle cx="87.7" cy="25.5" r=".4"/><path class="st3" d="M84.9 18.9s1.2 3.3.6 7.3"/><path class="st3" d="M82.1 22.4s3.8-.3 7.1 1.4"/><circle cx="78.5" cy="19.4" r=".4"/><circle cx="81.9" cy="15.3" r=".4"/><circle cx="82.6" cy="19.7" r=".4"/><path class="st3" d="M78.8 13.7s1.7 3.1 1.8 7.1"/><path class="st3" d="M76.7 17.7s3.7-.9 7.2.2"/><circle cx="72.6" cy="15.4" r=".4"/><circle cx="75.2" cy="10.7" r=".4"/><circle cx="76.7" cy="15" r=".4"/><path class="st3" d="M71.9 9.7s2.2 2.7 3 6.7"/><path class="st3" d="M70.5 13.9s3.5-1.5 7.2-1"/><circle cx="66" cy="12.3" r=".4"/><circle cx="67.8" cy="7.3" r=".4"/><circle cx="70.1" cy="11.2" r=".4"/><path class="st3" d="M64.4 6.9s2.7 2.3 4.1 6.1"/><path class="st3" d="M63.7 11.3s3.2-2.1 6.9-2.2"/><circle cx="59.1" cy="10.5" r=".4"/><circle cx="60" cy="5.2" r=".4"/><circle cx="62.9" cy="8.7" r=".4"/><path class="st3" d="M56.6 5.3s3 1.8 5.1 5.3"/><path class="st3" d="M56.6 9.8s2.8-2.6 6.4-3.3"/></g></svg>