<svg xmlns="http://www.w3.org/2000/svg" viewBox="0 0 103 104" style="enable-background:new 0 0 103 104" xml:space="preserve"><style>.st2{display:inline}.st3{fill:none;stroke:#000;stroke-width:.2px;stroke-miterlimit:10}.st4{fill:none;stroke:#000;stroke-width:.08px;stroke-miterlimit:10}.st5{fill:none;stroke:#000;stroke-width:.25px;stroke-miterlimit:10}.st6{fill:none;stroke:#000;stroke-width:.03px;stroke-miterlimit:10}.st7{fill:none;stroke:#000;stroke-miterlimit:10}.st8{stroke:#000;stroke-width:.08px;stroke-miterlimit:10}</style><g id="Capa_2"><path class="st4" d="M52.2 4.3c-.2 0-.4-.1-.6-.1-2.6-.1-5.3 2.1-5 5.6l1.7-.1c-.2-2.3 1.5-3.8 3.2-3.7 1.7.1 2.9 1.7 3 3.8l1.8.2c-.1-3.1-1.7-5.3-4.1-5.7"/><path class="st5" d="M52.3 4.3c.3-.9 1.2-1.1 1.8-.8.6.3.7 1.1.4 1.9"/><path class="st4" d="M51.6 4.2V4c.5-1.3 1.8-1.7 2.8-1.2.9.5 1.2 1.6.7 2.9L55 6"/><path class="st5" d="M48.4 5.4c-.5-.8-.2-1.7.4-2 .6-.3 1.4 0 1.8.8l.1.2"/><path class="st4" d="m47.9 5.8-.2-.2c-.8-1.2-.2-2.5.7-2.9 1-.4 2.1 0 2.7 1.2l.1.2v.1"/><path class="st5" d="M46.6 9.1c-.9-.2-1.4-1.1-1.2-1.7.2-.6 1-.9 1.8-.7"/><path class="st4" d="M46.6 9.7h-.2c-1.4-.3-2-1.5-1.6-2.5.3-1 1.4-1.5 2.7-1.2l.2.1"/><path class="st5" d="M55.5 6.7h.1c.8-.4 1.6.1 1.8.7.2.7-.3 1.3-1.1 1.6l-.2.1"/><path class="st4" d="m55.1 6.2.2-.1c1.3-.6 2.5.2 2.8 1.2.3 1-.4 2-1.6 2.5l-.2.1M38.1 6.2c-.2 0-.4.1-.6.1-2.5.7-4.4 3.6-3.1 6.9l1.6-.6c-.8-2.1.3-4 1.9-4.5 1.6-.4 3.3.7 4 2.7l1.8-.4c-1-2.9-3.2-4.5-5.6-4.2"/><path class="st5" d="M38.1 6.2c0-.9.8-1.4 1.4-1.3.7.1 1 .8.9 1.7"/><path class="st4" d="M37.5 6.3v-.2c.1-1.4 1.3-2.2 2.3-2 1.1.2 1.7 1.2 1.5 2.5v.3"/><path class="st5" d="M34.7 8.4c-.7-.6-.7-1.6-.2-2 .5-.5 1.3-.4 1.9.2l.1.1"/><path class="st4" d="m34.4 8.9-.2-.2c-1.1-.9-.9-2.3-.2-3 .8-.7 2-.5 3 .4l.2.2.1.1"/><path class="st5" d="M34.1 12.4c-.9.1-1.6-.6-1.6-1.3 0-.7.7-1.2 1.6-1.2"/><path class="st4" d="M34.3 13h-.2c-1.4.2-2.3-.9-2.3-2s.9-1.8 2.2-1.9h.2"/><path class="st5" d="M41.9 7.5h.1c.7-.6 1.6-.4 1.9.2.4.6.1 1.3-.5 1.8l-.1.1"/><path class="st4" d="m41.4 7.1.2-.2c1.1-.9 2.4-.6 3 .3.6.9.3 2-.8 2.8l-.2.1M25.1 12.2c-.2.1-.3.2-.5.3-2.2 1.4-3.2 4.7-1 7.5l1.3-1c-1.4-1.8-.9-4 .5-4.8 1.5-.9 3.4-.3 4.6 1.4l1.6-.9c-1.7-2.6-4.3-3.5-6.5-2.5"/><path class="st5" d="M25.2 12.1c-.2-.9.3-1.6 1-1.7.7-.1 1.2.5 1.3 1.3"/><path class="st4" d="m24.6 12.5-.1-.1c-.4-1.4.6-2.4 1.6-2.6 1.1-.1 2 .7 2.2 2v.3"/><path class="st5" d="M22.5 15.2c-.8-.4-1.2-1.3-.8-1.9.3-.6 1.1-.7 1.9-.3l.2.1"/><path class="st4" d="m22.4 15.9-.2-.1c-1.3-.6-1.6-1.9-1-2.8.5-.9 1.7-1.1 2.9-.5l.2.1.1.1"/><path class="st5" d="M23.2 19.3c-.8.4-1.7-.1-1.9-.7-.2-.7.3-1.3 1.1-1.6"/><path class="st4" d="m23.5 19.8-.2.1c-1.3.6-2.5-.2-2.8-1.2-.3-1 .3-2 1.6-2.5l.2-.1"/><path class="st5" d="m29.1 12.3.1-.1c.5-.8 1.4-.8 1.9-.4s.5 1.2 0 1.9l-.1.2"/><path class="st4" d="m28.5 12.1.1-.2c.8-1.2 2.2-1.3 3-.6.8.7.9 1.9.1 2.9l-.2.2M14.5 21.7l-.4.4c-1.7 2-1.7 5.5 1.3 7.5l.9-1.4c-1.9-1.3-2-3.5-.9-4.8 1.1-1.3 3.1-1.3 4.8 0l1.3-1.3c-2.5-1.9-5.2-2-7-.4"/><path class="st5" d="M14.5 21.7c-.5-.8-.2-1.6.5-1.9.6-.3 1.3.1 1.7.9"/><path class="st4" d="M14 22.1V22c-.7-1.2-.2-2.5.8-2.9 1-.4 2.1.1 2.7 1.2l.1.3"/><path class="st5" d="M12.9 25.4c-.9-.1-1.5-.9-1.3-1.5.2-.7.9-1 1.7-.9h.2"/><path class="st4" d="M13 26h-.3c-1.4-.2-2.1-1.4-1.8-2.4.3-1 1.3-1.6 2.6-1.4l.2.1h.1"/><path class="st5" d="M14.7 29.1c-.7.6-1.7.4-2.1-.1-.4-.6-.1-1.4.6-1.9"/><path class="st4" d="m15.2 29.5-.2.1c-1.1.9-2.4.6-3-.3-.6-.9-.3-2 .8-2.8l.2-.1"/><path class="st5" d="m18.4 20.7.1-.1c.2-.9 1.1-1.2 1.7-1 .6.3.9 1 .6 1.8v.2"/><path class="st4" d="m17.7 20.6.1-.3c.4-1.4 1.7-1.8 2.7-1.4 1 .4 1.4 1.5.9 2.8l-.1.3M7.2 34c-.1.2-.2.3-.3.5-1.1 2.4 0 5.7 3.4 6.8l.5-1.6c-2.2-.6-3-2.8-2.3-4.3.7-1.5 2.6-2.1 4.6-1.4l.8-1.6c-2.9-1.2-5.5-.5-6.7 1.6"/><path class="st5" d="M7.2 33.9c-.7-.6-.7-1.5-.2-1.9.5-.4 1.3-.3 1.9.3"/><path class="st4" d="m6.9 34.5-.1-.1c-1.1-.9-.9-2.3-.1-3 .8-.7 2-.6 2.9.4l.1.2"/><path class="st5" d="M6.7 37.9c-.9.2-1.7-.4-1.7-1.1 0-.7.5-1.2 1.4-1.3h.2"/><path class="st4" d="m7 38.5-.2.1c-1.4.3-2.4-.7-2.5-1.8-.1-1.1.8-1.9 2.1-2.1H6.7"/><path class="st5" d="M9.6 40.9c-.5.8-1.5.9-2 .5s-.5-1.3 0-2"/><path class="st4" d="m10.2 41.2-.2.2c-.8 1.2-2.2 1.3-3 .6-.8-.7-.8-1.9 0-3l.2-.2"/><path class="st5" d="M10.6 31.8v-.2c0-.9.7-1.5 1.3-1.4.7.1 1.1.7 1.1 1.6v.2"/><path class="st4" d="M9.9 32v-.3c0-1.4 1.1-2.3 2.1-2.2 1.1.1 1.8 1.1 1.7 2.4v.2M3.7 47.8c0 .2-.1.4-.1.6-.3 2.6 1.7 5.5 5.2 5.5v-1.7c-2.3 0-3.7-1.8-3.4-3.4.2-1.7 1.9-2.8 4-2.7l.3-1.8c-3-.2-5.4 1.2-6 3.5"/><path class="st5" d="M3.7 47.8c-.8-.4-1-1.2-.7-1.8.4-.6 1.1-.6 1.9-.2"/><path class="st4" d="M3.6 48.4h-.1c-1.3-.6-1.6-2-1-2.9.5-.9 1.7-1.1 2.9-.5l.3.2"/><path class="st5" d="M4.5 51.7c-.8.4-1.7.1-2-.5-.2-.6.1-1.3.9-1.7l.2-.1"/><path class="st4" d="m4.9 52.2-.2.1c-1.3.7-2.5 0-2.9-1-.4-1 .2-2.1 1.4-2.6l.2-.1h.1"/><path class="st5" d="M8.1 53.8c-.2.9-1.2 1.3-1.8 1-.6-.3-.8-1.1-.6-1.9"/><path class="st4" d="M8.7 53.8v.2C8.3 55.4 7 55.9 6 55.5c-1-.4-1.4-1.5-.9-2.8l.1-.2"/><path class="st5" d="M6.4 44.8v-.2c-.3-.9.2-1.6.9-1.7.7-.1 1.3.4 1.5 1.2l.1.2"/><path class="st4" d="m5.8 45.1-.1-.3c-.5-1.3.4-2.5 1.4-2.7 1-.2 2 .5 2.3 1.8v.2M4.6 62.1c0 .2 0 .4.1.6.5 2.6 3.2 4.7 6.6 3.7l-.5-1.6c-2.2.7-4-.6-4.3-2.3-.3-1.7 1-3.2 3-3.7L9.3 57c-3.1.6-4.9 2.7-4.7 5.1"/><path class="st5" d="M4.6 62c-.9-.1-1.4-.9-1.2-1.5.2-.7.9-.9 1.7-.8"/><path class="st4" d="M4.6 62.7h-.2c-1.4-.2-2.1-1.4-1.8-2.4.3-1 1.3-1.6 2.6-1.3h.4"/><path class="st5" d="M6.5 65.6c-.6.6-1.6.6-2 .1-.4-.5-.3-1.3.4-1.9l.1-.1"/><path class="st4" d="m7 65.9-.2.2c-1 1-2.4.8-3-.1-.7-.8-.4-2 .6-2.9l.2-.1h.1"/><path class="st5" d="M10.5 66.5c0 .9-.7 1.6-1.4 1.5-.7-.1-1.1-.8-1.1-1.6"/><path class="st4" d="M11.1 66.3v.2c.1 1.5-1.1 2.3-2.1 2.2-1.1-.1-1.8-1.1-1.7-2.4v-.2"/><path class="st5" d="m6.2 58.4-.1-.1c-.5-.7-.3-1.6.3-1.9.6-.4 1.4-.1 1.8.6l.1.1"/><path class="st4" d="m5.8 58.9-.2-.2c-.8-1.1-.4-2.5.5-3s2.1-.1 2.8 1l.1.2M9.6 75.4c.1.2.1.3.2.5 1.2 2.3 4.5 3.6 7.4 1.5l-.9-1.4c-1.9 1.3-4 .6-4.8-.9-.8-1.5 0-3.4 1.8-4.5l-.8-1.7c-2.7 1.8-3.8 4.3-2.9 6.5"/><path class="st5" d="M9.5 75.4c-.9.2-1.5-.4-1.6-1.1 0-.7.6-1.2 1.4-1.2"/><path class="st4" d="M9.8 76h-.2c-1.4.3-2.4-.7-2.4-1.8s.8-1.9 2.1-2h.3"/><path class="st5" d="M12.4 78.2c-.4.8-1.4 1.1-1.9.7-.6-.4-.6-1.2-.2-1.9l.1-.2"/><path class="st4" d="m13 78.4-.1.2c-.7 1.3-2.1 1.4-2.9.8-.9-.6-1-1.8-.3-2.9l.1-.2.1-.1"/><path class="st5" d="M16.5 77.9c.3.9-.2 1.7-.9 1.9-.7.1-1.3-.4-1.5-1.2"/><path class="st4" d="m17.1 77.6.1.2c.5 1.3-.4 2.5-1.4 2.7-1 .2-2-.5-2.4-1.8v-.2"/><path class="st5" d="m10 71.4-.1-.1c-.7-.5-.7-1.4-.3-1.9.5-.5 1.3-.4 1.9.1l.2.1"/><path class="st4" d="m9.8 72-.2-.1c-1.1-.8-1.1-2.3-.4-3 .7-.8 1.9-.7 2.9.2l.2.2M18.3 86.8c.1.1.2.3.4.4 1.8 1.9 5.3 2.1 7.5-.7l-1.3-1c-1.4 1.8-3.7 1.8-4.8.6-1.2-1.2-1-3.2.4-4.8l-1.2-1.4c-2.2 2.2-2.5 4.9-1 6.9"/><path class="st5" d="M18.2 86.7c-.8.4-1.6 0-1.9-.6-.2-.6.2-1.3 1-1.6"/><path class="st4" d="m18.7 87.2-.1.1c-1.3.7-2.5 0-2.9-1-.4-1 .2-2 1.4-2.6l.3-.1"/><path class="st5" d="M21.8 88.6c-.2.9-1 1.4-1.6 1.2-.6-.2-1-.9-.8-1.8v-.2"/><path class="st4" d="M22.5 88.6v.3c-.3 1.4-1.5 2-2.5 1.7-1-.3-1.5-1.4-1.2-2.7l.1-.2.1-.1"/><path class="st5" d="M25.7 87.1c.5.7.3 1.7-.3 2-.6.3-1.4 0-1.8-.7"/><path class="st4" d="m26.1 86.6.1.2c.8 1.1.4 2.5-.5 3s-2.1.1-2.8-1l-.1-.2"/><path class="st5" d="m17.5 82.8-.1-.1c-.9-.3-1.1-1.2-.8-1.8.3-.6 1.1-.8 1.9-.5l.2.1"/><path class="st4" d="m17.5 83.4-.3-.1c-1.3-.5-1.7-1.8-1.2-2.8.5-1 1.6-1.2 2.9-.7l.1.2M29.9 95c.2.1.3.2.5.3 2.3 1.3 5.7.4 7-2.9l-1.6-.6c-.8 2.1-3 2.8-4.4 2-1.5-.8-1.9-2.8-1-4.7l-1.6-1c-1.3 2.8-.8 5.5 1.1 6.9"/><path class="st5" d="M29.9 95c-.6.6-1.5.5-1.9 0-.4-.5-.2-1.3.5-1.8"/><path class="st4" d="m30.5 95.3-.1.1c-1 1-2.4.7-3-.1-.6-.9-.4-2 .6-2.9l.3-.2"/><path class="st5" d="M33.9 95.7c.1.9-.5 1.7-1.2 1.6-.7 0-1.2-.6-1.2-1.5v-.2"/><path class="st4" d="M34.5 95.5v.3c.2 1.4-.9 2.3-1.9 2.3-1.1 0-1.8-.9-1.9-2.2V95.6"/><path class="st5" d="M37.1 93.1c.7.5.8 1.6.3 2-.5.5-1.3.4-2-.2"/><path class="st4" d="m37.4 92.5.2.1c1.1.8 1.1 2.2.4 3-.7.8-1.9.7-2.9-.1l-.2-.2"/><path class="st5" d="M28.1 91.4h-.2c-.9 0-1.4-.8-1.3-1.4.1-.7.8-1.1 1.6-1h.2"/><path class="st4" d="M28.2 92.1h-.3c-1.4-.1-2.2-1.2-2-2.3.2-1.1 1.2-1.7 2.5-1.5h.2M43.5 99.4c.2.1.4.1.5.1 2.6.5 5.6-1.3 5.8-4.8l-1.7-.1c-.2 2.3-2 3.5-3.7 3.2-1.7-.3-2.7-2.1-2.4-4.2l-1.8-.4c-.2 3 1 5.5 3.3 6.2"/><path class="st5" d="M43.5 99.4c-.4.8-1.3.9-1.9.6-.6-.4-.5-1.2-.1-1.9"/><path class="st4" d="m44.1 99.6-.1.1c-.7 1.3-2.1 1.4-2.9.8-.9-.6-1-1.8-.3-2.9l.2-.3"/><path class="st5" d="M47.5 98.9c.4.8 0 1.7-.7 1.9-.7.2-1.3-.2-1.6-1l-.1-.2"/><path class="st4" d="m48 98.6.1.2c.6 1.3-.2 2.5-1.2 2.8-1 .3-2-.3-2.5-1.6l-.1-.2v-.1"/><path class="st5" d="M49.8 95.5c.9.3 1.2 1.3.9 1.8-.3.6-1.2.8-1.9.4"/><path class="st4" d="m49.9 94.9.2.1c1.3.5 1.7 1.8 1.2 2.8-.5 1-1.6 1.3-2.9.7l-.2-.1"/><path class="st5" d="M40.7 96.6h-.2c-.9.2-1.6-.3-1.7-1-.1-.7.5-1.3 1.3-1.4l.2-.1"/><path class="st4" d="m41 97.1-.3.1c-1.4.4-2.4-.6-2.6-1.6-.1-1.1.7-2 2-2.2h.2M57.8 99.7h.6c2.6-.3 5-2.9 4.1-6.3l-1.6.4c.5 2.2-.9 4-2.6 4.1-1.7.2-3.2-1.2-3.5-3.3H53c.5 3.1 2.4 5 4.8 5.1"/><path class="st5" d="M57.7 99.7c-.2.9-1 1.3-1.6 1.1-.6-.2-.9-1-.6-1.8"/><path class="st4" d="M58.4 99.6v.2c-.3 1.4-1.6 2-2.6 1.6-1-.3-1.5-1.4-1.1-2.7l.1-.3"/><path class="st5" d="M61.4 98c.6.7.5 1.7-.1 2-.6.4-1.3.2-1.9-.5l-.1-.1"/><path class="st4" d="m61.8 97.5.2.2c.9 1.1.6 2.4-.3 3-.9.6-2 .3-2.8-.8l-.1-.2-.1-.1"/><path class="st5" d="M62.6 94.1c.9 0 1.5.8 1.4 1.5-.1.7-.9 1.1-1.7 1"/><path class="st4" d="M62.5 93.5h.2c1.4.1 2.2 1.2 2 2.3-.2 1.1-1.2 1.7-2.5 1.5H62"/><path class="st5" d="m54.2 97.8-.1.1c-.8.5-1.6.2-1.9-.5-.3-.6.1-1.4.8-1.7l.2-.1"/><path class="st4" d="m54.7 98.2-.2.2c-1.2.7-2.5.2-2.9-.8-.4-1 0-2.1 1.2-2.7l.2-.1M71.5 95.7c.2-.1.4-.1.5-.2 2.4-1 3.9-4.2 2.1-7.3l-1.4.8c1.1 1.9.3 4-1.2 4.7-1.6.7-3.4-.2-4.3-2.1l-1.7.6c1.3 2.8 3.7 4.1 6 3.5"/><path class="st5" d="M71.4 95.7c.1.9-.6 1.5-1.2 1.5-.7 0-1.1-.7-1.1-1.5"/><path class="st4" d="M72.1 95.5v.2c.1 1.4-.9 2.3-2 2.3s-1.8-.9-1.9-2.3v-.3"/><path class="st5" d="M74.5 93.1c.8.5 1 1.4.5 2-.4.5-1.2.5-1.9.1L73 95"/><path class="st4" d="m74.7 92.4.2.1c1.2.7 1.3 2.2.6 3-.7.8-1.9.9-2.9.1l-.2-.2-.1-.1"/><path class="st5" d="M74.5 88.9c.9-.2 1.7.4 1.8 1 .1.7-.5 1.3-1.4 1.4"/><path class="st4" d="m74.2 88.4.2-.1c1.4-.4 2.4.5 2.6 1.6.1 1.1-.6 2-1.9 2.2h-.2"/><path class="st5" d="m67.5 94.9-.1.1c-.6.7-1.5.6-1.9.1-.4-.5-.3-1.3.2-1.9l.1-.1"/><path class="st4" d="m68.1 95.2-.2.2c-.9 1.1-2.3.9-3 .1-.7-.8-.6-2 .4-2.9l.2-.2M83.4 87.8c.2-.1.3-.2.5-.3 2-1.7 2.5-5.2-.1-7.6l-1.1 1.2c1.7 1.5 1.5 3.8.2 4.9-1.3 1.1-3.3.8-4.7-.7l-1.5 1.1c2 2.2 4.7 2.7 6.7 1.4"/><path class="st5" d="M83.4 87.9c.4.8-.1 1.6-.7 1.8-.7.2-1.3-.3-1.5-1.1"/><path class="st4" d="m83.9 87.5.1.1c.6 1.3-.2 2.5-1.2 2.8-1 .3-2-.4-2.5-1.6l-.1-.3"/><path class="st5" d="M85.5 84.4c.9.2 1.3 1.1 1.1 1.7-.3.6-1 .9-1.8.6l-.2-.1"/><path class="st4" d="M85.5 83.8h.3c1.4.4 1.9 1.7 1.5 2.7-.4 1-1.5 1.4-2.8 1l-.2-.1-.1-.1"/><path class="st5" d="M84.3 80.5c.8-.5 1.7-.2 2 .4.3.6-.1 1.4-.9 1.8"/><path class="st4" d="m83.8 80 .2-.1c1.2-.8 2.5-.2 2.9.8.4 1 0 2.1-1.2 2.7l-.2.1"/><path class="st5" d="m79.4 88.3-.1.1c-.4.8-1.2 1-1.8.7-.6-.4-.7-1.1-.3-1.9l.1-.2"/><path class="st4" d="m80 88.4-.1.3c-.6 1.3-2 1.6-2.9 1-.9-.6-1.1-1.7-.5-2.9l.1-.2M92.5 76.8c.1-.1.2-.3.3-.5 1.4-2.2.8-5.7-2.4-7.2l-.7 1.5c2 1 2.5 3.2 1.6 4.6-.9 1.4-2.9 1.7-4.7.7l-1.1 1.5c2.7 1.6 5.5 1.3 7-.6"/><path class="st5" d="M92.5 76.9c.6.7.4 1.6-.2 1.9-.6.4-1.3.1-1.8-.6"/><path class="st4" d="m92.9 76.3.1.1c.9 1.1.6 2.4-.3 3-.9.6-2 .3-2.8-.8l-.2-.3"/><path class="st5" d="M93.5 73c.9 0 1.6.6 1.5 1.3-.1.7-.7 1.1-1.6 1.1h-.2"/><path class="st4" d="M93.3 72.3h.3c1.4-.1 2.3 1.1 2.2 2.1-.1 1.1-1.1 1.8-2.4 1.7H93.1"/><path class="st5" d="M91.2 69.6c.6-.7 1.6-.7 2.1-.2.5.5.3 1.4-.3 2"/><path class="st4" d="m90.6 69.2.2-.2c.9-1.1 2.3-.9 3-.1.7.8.6 2-.4 2.9l-.2.2"/><path class="st5" d="M88.8 78.4v.2c-.1.9-.9 1.4-1.5 1.2-.7-.2-1-.9-.9-1.7v-.2"/><path class="st4" d="M89.4 78.4v.3c-.2 1.4-1.4 2.1-2.4 1.8-1-.3-1.6-1.3-1.3-2.6l.1-.2M97.9 63.6c.1-.2.1-.3.2-.5.7-2.5-.9-5.7-4.4-6.2l-.2 1.7c2.2.3 3.4 2.3 2.9 3.9s-2.3 2.5-4.3 2.1l-.6 1.7c3 .6 5.5-.5 6.4-2.7"/><path class="st5" d="M97.9 63.7c.8.5.8 1.4.4 1.9s-1.2.4-1.9-.1"/><path class="st4" d="m98.2 63 .1.1c1.2.8 1.3 2.2.6 3-.7.8-1.9.8-2.9.1l-.3-.2"/><path class="st5" d="M97.8 59.6c.9-.3 1.7.1 1.9.8.1.7-.3 1.3-1.2 1.5l-.2.1"/><path class="st4" d="m97.4 59.1.2-.1c1.3-.5 2.5.3 2.7 1.4.2 1-.5 2-1.8 2.4H98.2"/><path class="st5" d="M94.5 57.1c.4-.8 1.3-1.1 1.9-.8.6.4.7 1.2.3 2"/><path class="st4" d="m93.9 56.9.1-.2c.6-1.3 1.9-1.6 2.8-1 .9.6 1.1 1.7.5 2.9l-.1.2"/><path class="st5" d="M94.9 66.2v.2c.2.9-.4 1.6-1.1 1.6-.7 0-1.2-.5-1.3-1.4v-.2"/><path class="st4" d="m95.5 66 .1.3c.3 1.4-.7 2.4-1.8 2.4-1.1.1-1.9-.8-2.1-2.1v-.2M99.2 49.4v-.6c-.1-2.6-2.5-5.2-6-4.6l.3 1.7c2.2-.4 3.9 1.2 3.9 2.9S96 51.9 93.9 52v1.8c3-.2 5.1-2 5.3-4.4"/><path class="st5" d="M99.3 49.5c.9.2 1.2 1.1 1 1.7-.3.6-1 .8-1.8.5"/><path class="st4" d="M99.3 48.8h.2c1.4.4 1.8 1.7 1.4 2.7-.4 1-1.5 1.4-2.8.9l-.3-.1"/><path class="st5" d="M97.9 45.7c.7-.5 1.7-.4 2 .2.3.6.1 1.3-.6 1.8l-.2.1"/><path class="st4" d="m97.4 45.2.2-.2c1.1-.8 2.5-.4 3 .5s.1 2.1-1 2.8l-.2.1h-.1"/><path class="st5" d="M94 44.2c.1-.9.9-1.5 1.6-1.3.7.2 1 1 .8 1.8"/><path class="st4" d="M93.4 44.2V44c.2-1.4 1.4-2.1 2.4-1.8 1 .3 1.6 1.3 1.4 2.6l-.1.2"/><path class="st5" d="m97.1 52.8.1.1c.4.8 0 1.6-.6 1.9-.6.2-1.3-.2-1.7-.9l-.1-.2"/><path class="st4" d="m97.6 52.4.1.2c.7 1.3 0 2.5-1 2.9-1 .4-2-.2-2.6-1.4l-.1-.2M96.3 35.4c0-.2-.1-.4-.1-.5-.8-2.5-3.9-4.2-7.1-2.6l.7 1.5c2-1 4.1 0 4.6 1.6s-.5 3.3-2.4 4.1l.5 1.8c2.8-1.2 4.3-3.5 3.8-5.9"/><path class="st5" d="M96.3 35.5c.9 0 1.5.7 1.4 1.3-.1.7-.8 1-1.6 1"/><path class="st4" d="M96.2 34.8h.2c1.4 0 2.3 1.1 2.1 2.1-.1 1.1-1.1 1.8-2.4 1.7h-.3"/><path class="st5" d="M93.9 32.3c.5-.7 1.5-.9 2-.4s.5 1.3-.1 1.9l-.1.1"/><path class="st4" d="m93.3 32 .1-.2c.8-1.1 2.2-1.1 3-.4.8.7.7 1.9-.1 2.9l-.2.2-.1.1"/><path class="st5" d="M89.8 32c-.2-.9.5-1.7 1.1-1.7.7 0 1.2.6 1.3 1.5"/><path class="st4" d="M89.2 32.2V32c-.3-1.4.7-2.4 1.8-2.5 1.1-.1 1.9.8 2.1 2.1v.2"/><path class="st5" d="m95.2 39.3.1.1c.6.6.5 1.5 0 1.9-.5.4-1.3.2-1.9-.4l-.1-.1"/><path class="st4" d="m95.6 38.8.2.2c1 1 .7 2.4-.1 3-.9.6-2 .4-2.9-.6l-.1-.2M89.4 23c-.1-.2-.2-.3-.3-.5-1.5-2.1-5-2.9-7.6-.4l1.1 1.2c1.6-1.5 3.9-1.2 4.9.2 1 1.4.5 3.3-1.1 4.7l1 1.5c2.4-2 3.1-4.6 2-6.7"/><path class="st5" d="M89.4 23c.9-.3 1.6.2 1.7.9.1.7-.4 1.2-1.2 1.4"/><path class="st4" d="m89 22.4.1-.1c1.3-.5 2.5.4 2.7 1.4.2 1-.5 2-1.8 2.3l-.3.1"/><path class="st5" d="M86.1 20.6c.3-.9 1.2-1.3 1.8-1 .6.3.8 1.1.5 1.9l-.1.2"/><path class="st4" d="m85.5 20.5.1-.2c.5-1.3 1.8-1.7 2.8-1.3 1 .5 1.3 1.6.8 2.8l-.1.2-.1.1"/><path class="st5" d="M82.1 21.6c-.4-.8 0-1.7.6-2 .6-.2 1.4.2 1.7 1"/><path class="st4" d="m81.6 22-.1-.2c-.7-1.3 0-2.5 1-2.9 1-.4 2.1.2 2.6 1.4l.1.2"/><path class="st5" d="m89.5 27 .1.1c.8.4.9 1.3.6 1.9-.4.6-1.2.6-1.9.2l-.2-.2"/><path class="st4" d="m89.7 26.4.3.1c1.3.7 1.4 2.1.8 2.9-.6.9-1.8 1-2.9.3l-.2-.2M79.1 13.1l-.4-.4c-2.1-1.6-5.6-1.3-7.3 1.8l1.5.8c1.1-2 3.4-2.3 4.7-1.3 1.4 1 1.5 3 .3 4.8l1.4 1.2c1.6-2.5 1.5-5.3-.2-6.9"/><path class="st5" d="M79.1 13.1c.7-.5 1.6-.3 1.9.3.3.6 0 1.3-.8 1.7"/><path class="st4" d="m78.6 12.7.1-.1c1.1-.8 2.5-.4 3 .6.5.9.1 2.1-1 2.8h-.3"/><path class="st5" d="M75.3 11.8c0-.9.8-1.6 1.4-1.4.7.1 1.1.8 1 1.6v.2"/><path class="st4" d="M74.6 11.9v-.3c0-1.4 1.2-2.2 2.3-2 1.1.2 1.7 1.2 1.6 2.5V12.4"/><path class="st5" d="M71.7 13.9c-.6-.6-.5-1.7 0-2.1.5-.4 1.4-.2 1.9.5"/><path class="st4" d="m71.4 14.4-.2-.2c-1-1-.8-2.4.1-3 .8-.6 2-.4 2.9.6l.1.2"/><path class="st5" d="M80.4 16.9h.1c.9.2 1.3 1 1.1 1.6-.2.6-1 1-1.8.7h-.2"/><path class="st4" d="M80.4 16.2h.3c1.4.3 2 1.6 1.6 2.6-.3 1-1.4 1.5-2.7 1.1l-.2-.1M66.3 6.7c-.2-.1-.3-.2-.5-.2-2.5-.9-5.7.4-6.5 3.9l1.6.4c.5-2.2 2.5-3.2 4.1-2.6 1.6.6 2.3 2.5 1.7 4.5l1.7.7c.9-3.1.1-5.6-2.1-6.7"/><path class="st5" d="M66.4 6.7c.5-.7 1.4-.7 1.9-.3.5.5.3 1.2-.2 1.9"/><path class="st4" d="m65.7 6.4.1-.1c.9-1.1 2.3-1.1 3-.3.8.7.7 1.9-.2 2.9l-.2.2"/><path class="st5" d="M62.3 6.6c-.2-.9.3-1.7.9-1.8.7-.1 1.3.4 1.4 1.3v.2"/><path class="st4" d="m61.7 6.9-.1-.2c-.4-1.4.5-2.4 1.6-2.6 1.1-.1 2 .6 2.2 1.9V6.3"/><path class="st5" d="M59.5 9.6c-.8-.4-1-1.4-.6-2 .4-.6 1.3-.6 2-.1"/><path class="st4" d="m59.3 10.2-.2-.1c-1.3-.7-1.4-2.1-.8-2.9.6-.9 1.8-1 2.9-.3l.3.1"/><path class="st5" d="M68.7 9.9h.2c.9-.1 1.5.6 1.5 1.2 0 .7-.6 1.2-1.5 1.2h-.2"/><path class="st4" d="M68.5 9.3h.3c1.4-.2 2.3.9 2.3 2s-.9 1.8-2.3 1.9h-.2"/></g></svg>