<svg xmlns="http://www.w3.org/2000/svg" viewBox="0 0 103.1 104" style="enable-background:new 0 0 103.1 104" xml:space="preserve"><style>.st1{fill:#444d66;display:inline}.st2{display:inline}.st3{fill:none;stroke:#000;stroke-width:.2px;stroke-miterlimit:10}.st4{fill:none;stroke:#000;stroke-width:.08px;stroke-miterlimit:10}.st5{fill:none;stroke:#000;stroke-width:.25px;stroke-miterlimit:10}.st6{fill:none;stroke:#000;stroke-width:.03px;stroke-miterlimit:10}.st7{fill:none;stroke:#000;stroke-miterlimit:10}.st8{stroke:#000;stroke-width:.08px;stroke-miterlimit:10}</style><g id="Capa_2"><path class="st5" d="m43.3 3 5.8-.7-1.4 3.5v.7l1.7 3.5-4.9.5 1-3.7-.1-.6z"/><path class="st4" d="m45.5 6.1 2.2-.2M45.6 6.8l2.1-.2"/><path class="st6" d="m46.6 5.9-.4-3.2M47 10.1l-.4-3.5"/><path class="st5" d="M32.9 5.9 38.4 4l-.6 3.8.2.6 2.4 3-4.7 1.6.2-3.8-.2-.6z"/><path class="st4" d="m35.7 8.5 2.1-.7M35.9 9.2l2.1-.7"/><path class="st6" d="M36.8 8.1 35.7 5M38 12.1l-1.1-3.3"/><path class="st5" d="m23.4 11 5-3 .2 3.8.3.6 3 2.4-4.2 2.5-.7-3.7-.3-.6z"/><path class="st4" d="m26.7 13 1.9-1.2M27 13.5l1.9-1.1"/><path class="st6" d="m27.6 12.3-1.7-2.8M29.7 16l-1.8-3.1"/><path class="st5" d="m15.2 18 4.2-4 1 3.6.5.6 3.4 1.7-3.6 3.4-1.4-3.5-.5-.5z"/><path class="st4" d="m18.8 19.2 1.7-1.5M19.3 19.7l1.6-1.4"/><path class="st6" d="M19.6 18.4 17.3 16M22.5 21.5l-2.4-2.6"/><path class="st5" d="m8.7 26.6 3.3-4.8 1.7 3.3.6.5 3.7.9-2.8 4.1-2.1-3.1-.6-.4z"/><path class="st4" d="m12.5 27 1.3-1.8M13.1 27.4l1.2-1.8"/><path class="st6" d="m13.1 26-2.7-1.8M16.5 28.5l-2.9-2"/><path class="st5" d="M4.2 36.4 6.3 31l2.5 2.9.6.3 3.8.1-1.7 4.6-2.8-2.6-.7-.2z"/><path class="st4" d="m8 36 .8-2.1M8.7 36.3l.8-2"/><path class="st6" d="m8.4 34.9-3.1-1.2M12.3 36.6 9 35.2"/><path class="st5" d="m1.9 47 1-5.8 3 2.3.7.2 3.7-.7-.8 4.9-3.2-2-.7-.1z"/><path class="st4" d="m5.6 45.8.3-2.3M6.2 45.9l.4-2.1"/><path class="st6" d="m5.7 44.6-3.3-.5M9.8 45.4l-3.4-.6"/><path class="st5" d="M2 57.8 1.6 52l3.5 1.6h.7l3.5-1.5.3 4.9L6 55.8l-.7.1z"/><path class="st4" d="m5.3 55.8-.2-2.2M5.9 55.8l-.1-2.2"/><path class="st6" d="m5.1 54.7-3.3.2M9.3 54.5l-3.5.2"/><path class="st5" d="m4.3 68.3-1.5-5.6 3.7.8.7-.1 3.1-2.2 1.3 4.7-3.8-.4-.7.2z"/><path class="st4" d="m7.1 65.7-.6-2.2M7.8 65.5l-.6-2.1"/><path class="st6" d="m6.7 64.6-3.1.9M10.8 63.6l-3.4.9"/><path class="st5" d="M8.9 78.1 6.2 73H10l.6-.3 2.6-2.8 2.3 4.3-3.8.4-.6.4z"/><path class="st4" d="m11.1 74.9-1.1-2M11.6 74.6l-.9-1.9"/><path class="st6" d="m10.4 74-2.8 1.5M14.2 72.1l-3.1 1.6"/><path class="st5" d="m15.5 86.7-3.8-4.5 3.7-.8.6-.4 1.9-3.3 3.2 3.7-3.6 1.3-.6.4z"/><path class="st4" d="m16.9 83.1-1.5-1.7M17.4 82.7 16 81"/><path class="st6" d="m16.1 82.3-2.5 2.1M19.4 79.6l-2.7 2.3"/><path class="st5" d="m23.7 93.6-4.6-3.5 3.4-1.6.5-.5 1.1-3.6 4 2.9-3.3 2-.4.6z"/><path class="st4" d="m24.4 89.9-1.9-1.4M24.7 89.3 23.1 88"/><path class="st6" d="m23.4 89.2-2 2.6M26 85.9l-2.1 2.8"/><path class="st5" d="M33.3 98.6 28 96.2l3-2.3.4-.6.3-3.8 4.5 2-2.8 2.7-.3.6z"/><path class="st4" d="m33.1 94.8-2.1-.9M33.3 94.2l-1.9-.9"/><path class="st6" d="m32 94.4-1.4 3M33.9 90.6l-1.5 3.2"/><path class="st5" d="m43.7 101.5-5.7-1.2 2.5-2.9.2-.7-.5-3.8 4.8 1-2.1 3.2-.2.7z"/><path class="st4" d="m42.7 97.8-2.2-.5M42.8 97.1l-2.1-.5"/><path class="st6" d="m41.5 97.6-.7 3.2M42.5 93.5l-.8 3.5"/><path class="st5" d="m54.5 102-5.8.1 1.7-3.4.1-.7-1.3-3.6h4.9l-1.4 3.5v.7z"/><path class="st4" d="m52.7 98.6-2.3.1M52.7 98l-2.2-.1"/><path class="st6" d="m51.5 98.7.1 3.3M51.6 94.5V98"/><path class="st5" d="m65.1 100.2-5.7 1.3 1.1-3.6-.1-.7-2.1-3.3 4.8-1.1-.6 3.8.2.7z"/><path class="st4" d="m62.7 97.3-2.2.5M62.5 96.7l-2.1.4"/><path class="st6" d="m61.5 97.7.8 3.2M60.7 93.5l.8 3.4"/><path class="st5" d="m75.1 96.2-5.2 2.5.2-3.8-.3-.7-2.7-2.7 4.5-2.1.2 3.8.3.7z"/><path class="st4" d="m72.1 93.9-2 1M71.8 93.3l-2 .9"/><path class="st6" d="m71.1 94.5 1.4 2.9M69.4 90.6l1.4 3.2"/><path class="st5" d="m84.1 90.1-4.7 3.6-.6-3.8-.4-.6-3.2-2 3.9-3.1 1.1 3.7.4.6z"/><path class="st4" d="m80.6 88.5-1.8 1.4M80.2 88l-1.8 1.3"/><path class="st6" d="m79.7 89.3 2 2.6M77.2 85.9l2.1 2.8"/><path class="st5" d="m91.4 82.2-3.7 4.5-1.4-3.5-.5-.5-3.6-1.4 3.2-3.7 1.8 3.3.5.5z"/><path class="st4" d="m87.7 81.4-1.4 1.8M87.2 81l-1.4 1.6"/><path class="st6" d="m87 82.4 2.5 2.1M83.9 79.6l2.6 2.2"/><path class="st5" d="m97 73-2.7 5.1-2.2-3.1-.6-.4-3.7-.5 2.2-4.4 2.5 2.9.6.3z"/><path class="st4" d="m93.2 73-1.1 2M92.5 72.7l-1 1.9"/><path class="st6" d="m92.7 74 2.9 1.6M89 72l3.1 1.6"/><path class="st5" d="m100.4 62.7-1.6 5.7-2.7-2.7-.7-.2-3.8.3 1.3-4.8 3.1 2.3.6.2z"/><path class="st4" d="m96.6 63.5-.5 2.2M96 63.4l-.6 2"/><path class="st6" d="m96.4 64.7 3.2.8M92.4 63.5l3.3.9"/><path class="st5" d="m101.5 52-.3 5.8-3.2-1.9-.7-.1-3.7 1.1.2-5 3.5 1.6.7.1z"/><path class="st4" d="m98 53.6-.1 2.3M97.4 53.6l-.2 2.1"/><path class="st6" d="m98.1 54.8 3.2.1M93.8 54.4l3.5.3"/><path class="st5" d="m100.3 41.3 1 5.7-3.6-1.2-.7.1-3.4 1.8-.8-4.8 3.7.8.7-.2z"/><path class="st4" d="m97.2 43.6.4 2.2M96.6 43.7l.3 2.1"/><path class="st6" d="m97.5 44.7 3.2-.5M93.3 45.3l3.5-.5"/><path class="st5" d="m96.8 31 2.2 5.5-3.8-.5-.7.2-2.8 2.6-1.9-4.6h3.9l.6-.3z"/><path class="st4" d="m94.3 34 .9 2.1M93.7 34.2l.8 2"/><path class="st6" d="m94.8 35 3.1-1.2M90.9 36.5l3.3-1.3"/><path class="st5" d="m91.2 21.8 3.3 4.8-3.8.4-.6.4-2.2 3.1-2.8-4.1 3.7-.8.6-.4z"/><path class="st4" d="m89.4 25.2 1.3 1.9M88.9 25.6l1.1 1.8"/><path class="st6" d="m90.1 26.1 2.7-1.8M86.6 28.4l2.9-1.9"/><path class="st5" d="m83.7 14 4.3 4-3.6 1.2-.5.5-1.5 3.5-3.6-3.4 3.4-1.6.5-.5z"/><path class="st4" d="m82.7 17.7 1.7 1.5M82.3 18.2l1.5 1.5"/><path class="st6" d="m83.6 18.4 2.3-2.4M80.7 21.4l2.4-2.5"/><path class="st5" d="m74.8 8 5 3-3.3 1.9-.4.6-.7 3.7-4.2-2.5 3-2.3.3-.6z"/><path class="st4" d="m74.6 11.8 1.9 1.2M74.3 12.4l1.8 1.1"/><path class="st6" d="m75.6 12.3 1.7-2.8M73.4 15.9l1.8-3"/><path class="st5" d="m64.7 4 5.6 1.9-2.8 2.6-.3.6.1 3.8-4.6-1.5 2.4-2.9.2-.7z"/><path class="st4" d="m65.4 7.8 2.1.7M65.2 8.5l2 .7"/><path class="st6" d="m66.5 8.1 1-3.1M65.1 12.1l1.1-3.3"/><path class="st5" d="m54.1 2.3 5.8.6-2.1 3.2-.2.7.9 3.7-4.9-.5 1.8-3.4.1-.7z"/><path class="st4" d="m55.5 5.9 2.2.2M55.4 6.6l2.2.2"/><path class="st6" d="m56.7 5.9.3-3.2M56.1 10.1l.4-3.5"/><path class="st4" d="m49.4 6 2.1-2.6L53.6 6l-2.1 2.5zM39.5 7.6l1.5-3 2.7 2-1.6 2.9zM30.2 11.2l.9-3.2L34 9.4l-.8 3.1zM21.9 16.7l.1-3.3 3.3.8-.2 3.2zM15 24l-.6-3.3h3.3l.5 3.2zM9.8 32.5l-1.3-3.1 3.2-.7 1.2 3.1zM6.5 41.9l-1.9-2.7 3-1.3 1.9 2.6zM5.3 51.9l-2.4-2.3 2.7-2 2.3 2.3zM6.4 61.8l-2.9-1.7 2.2-2.5 2.8 1.7zM9.5 71.3l-3.2-1 1.6-2.9 3.1 1zM14.6 79.9l-3.4-.3 1-3.2 3.2.4zM21.4 87.2l-3.3.4.2-3.3 3.3-.3zM29.6 92.9 26.5 94l-.5-3.3 3.1-1zM38.9 96.7l-2.8 1.7-1.2-3.1 2.8-1.7zM48.8 98.3l-2.4 2.4-1.9-2.8 2.4-2.3zM58.8 97.9l-1.9 2.8-2.4-2.4 1.9-2.7zM68.4 95.3l-1.2 3.1-2.8-1.8 1.2-3zM77.3 90.6l-.5 3.4-3.2-1.2.6-3.2zM84.9 84.2l.3 3.4-3.3-.4-.2-3.3zM91 76.3l1 3.2-3.3.3-.9-3.1zM95.3 67.3l1.6 2.9-3.2 1-1.5-2.9zM97.5 57.5l2.2 2.5-2.9 1.7-2.1-2.5zM97.6 47.5l2.7 2-2.5 2.2-2.6-1.9zM95.5 37.7l3.1 1.4-1.9 2.7-3-1.3zM91.4 28.6l3.2.7-1.2 3.1-3.2-.7zM85.4 20.6h3.3l-.6 3.2-3.2.1zM77.8 14.1l3.3-.8.1 3.4-3.2.7zM69 9.4l3-1.5.8 3.2-2.9 1.4zM59.4 6.6l2.6-2 1.5 2.9-2.6 2z"/></g></svg>