<svg version="1.1" id="Layer_1" xmlns="http://www.w3.org/2000/svg" x="0" y="0" viewBox="0 0 100 100" style="enable-background:new 0 0 100 100" xml:space="preserve"><style>.st0{fill:none;stroke:#000;stroke-width:.25px;stroke-miterlimit:10}.st1{fill:none;stroke:#000;stroke-width:.03px;stroke-miterlimit:10}.st2{fill:none;stroke:#000;stroke-width:.08px;stroke-miterlimit:10}</style><path class="st0" d="m41.91 1.94 5.69-.69-1.38 3.43v.69l1.67 3.43-4.81.49.99-3.63-.1-.59zM32.09 4.67l5.42-1.86-.63 3.65.15.67 2.34 3.01-4.6 1.48.21-3.75-.22-.56zM23.06 9.38l4.92-2.94.14 3.7.28.62 2.92 2.46-4.19 2.41-.59-3.72-.32-.5zM15.2 15.87l4.2-3.9.91 3.59.4.55 3.37 1.8-3.6 3.22-1.34-3.51-.43-.42zM8.87 23.85l3.29-4.68 1.64 3.31.51.46L17.97 24l-2.85 3.9-2.04-3.16-.5-.32zM4.33 32.98l2.25-5.27 2.29 2.9.59.35 3.81.27-1.98 4.41-2.65-2.67-.56-.21zM1.79 42.84l1.1-5.62 2.84 2.37.66.21 3.78-.52L9.15 44 6 41.94l-.59-.08zM1.35 53.02l-.09-5.73 3.28 1.73.68.07 3.59-1.3-.02 4.83-3.5-1.35-.6.03zM3.04 63.07l-1.27-5.58 3.56 1 .68-.07 3.24-2.02.99 4.73-3.71-.59-.58.16zM6.79 72.55l-2.41-5.2 3.69.25.65-.22 2.75-2.64 1.95 4.42-3.75.19-.53.27zM12.42 81.04l-3.44-4.58 3.66-.53.6-.34 2.14-3.16 2.82 3.91-3.63.97-.46.38zM19.7 88.18l-4.32-3.77 3.47-1.28.51-.46 1.44-3.54 3.58 3.25-3.36 1.7-.37.46zM28.3 93.64l-5.01-2.79 3.13-1.97.4-.55.67-3.76L31.67 87l-2.93 2.36-.27.53zM37.84 97.2l-5.47-1.69 2.65-2.57.28-.63-.13-3.82L39.76 90l-2.37 2.92-.15.57zM47.92 98.7l-5.71-.51 2.06-3.08.14-.67-.91-3.7 4.8.52-1.71 3.34-.03.6zM58.09 98.06l-5.69.69 1.38-3.43v-.69l-1.67-3.43 4.81-.49-.99 3.63.1.59zM67.91 95.33l-5.42 1.86.63-3.65-.15-.67-2.34-3.01 4.6-1.48-.21 3.75.22.56zM76.94 90.62l-4.92 2.94-.14-3.7-.28-.62-2.92-2.46 4.19-2.41.59 3.72.32.5zM84.8 84.13l-4.2 3.9-.91-3.59-.4-.55-3.37-1.8 3.6-3.22 1.34 3.51.43.42zM91.13 76.15l-3.29 4.68-1.64-3.31-.51-.46L82.03 76l2.85-3.9 2.04 3.16.5.32zM95.67 67.02l-2.25 5.27-2.29-2.9-.59-.35-3.81-.27 1.98-4.41 2.65 2.67.56.21zM98.21 57.16l-1.1 5.62-2.84-2.37-.66-.21-3.78.52L90.85 56 94 58.06l.59.08zM98.65 46.98l.09 5.73-3.28-1.73-.68-.07-3.59 1.3.02-4.83 3.5 1.35.6-.03zM96.96 36.93l1.27 5.58-3.56-1-.68.07-3.24 2.02-.99-4.73 3.71.59.58-.16zM93.21 27.45l2.41 5.2-3.69-.25-.65.22-2.75 2.64-1.95-4.42 3.75-.19.53-.27zM87.58 18.96l3.44 4.58-3.66.53-.6.34-2.14 3.16-2.82-3.91 3.63-.97.46-.38zM80.3 11.82l4.32 3.77-3.47 1.28-.51.46-1.44 3.54-3.58-3.25 3.36-1.7.37-.46zM71.7 6.36l5.01 2.79-3.13 1.97-.4.55-.67 3.76L68.33 13l2.93-2.36.27-.53zM62.16 2.8l5.47 1.69-2.65 2.57-.28.63.13 3.82L60.24 10l2.37-2.92.15-.57zM52.08 1.3l5.71.51-2.06 3.08-.14.67.91 3.7-4.8-.52 1.71-3.34.03-.6z"/><path class="st1" d="m45.14 4.78-.39-3.14M45.54 8.9l-.4-3.43M35.85 6.78l-1.04-2.99M37.09 10.73l-1.1-3.28M27.17 10.67l-1.63-2.71M29.21 14.27l-1.76-2.98M19.49 16.27l-2.16-2.31M22.23 19.37l-2.33-2.54M13.15 23.35l-2.6-1.81M16.47 25.82l-2.81-2.01M8.41 31.6 5.5 30.37M12.18 33.32l-3.17-1.38M5.49 40.64l-3.1-.59M9.53 41.54l-3.38-.68M4.52 50.1l-3.16.06M8.66 50.14l-3.46.03M5.54 59.56l-3.09.71M9.59 58.74l-3.37.74M8.49 68.59l-2.86 1.34M12.29 66.95l-3.14 1.43M13.27 76.82l-2.53 1.9M16.64 74.42l-2.78 2.05M19.64 83.87l-2.07 2.39M22.44 80.82l-2.29 2.59M27.35 89.44l-1.53 2.77M29.45 85.87l-1.7 3.01M36.04 93.29l-.91 3.02M37.36 89.36l-1.04 3.3M45.35 95.24l-.27 3.15M45.82 91.13l-.33 3.44M54.86 95.22l.39 3.14M54.46 91.1l.4 3.43M64.15 93.22l1.04 2.99M62.91 89.27l1.1 3.28M72.83 89.33l1.63 2.71M70.79 85.73l1.76 2.98M80.51 83.73l2.16 2.31M77.77 80.63l2.33 2.54M86.85 76.65l2.6 1.81M83.53 74.18l2.81 2.01M91.59 68.4l2.91 1.23M87.82 66.68l3.17 1.38M94.51 59.36l3.1.59M90.47 58.46l3.38.68M95.48 49.9l3.16-.06M91.34 49.86l3.46-.03M94.46 40.44l3.09-.71M90.41 41.26l3.37-.74M91.51 31.41l2.86-1.34M87.71 33.05l3.14-1.43M86.73 23.18l2.53-1.9M83.36 25.58l2.78-2.05M80.36 16.13l2.07-2.39M77.56 19.18l2.29-2.59M72.65 10.56l1.53-2.77M70.55 14.13l1.7-3.01M63.96 6.71l.91-3.02M62.64 10.64l1.04-3.3M54.65 4.76l.27-3.15M54.18 8.87l.33-3.44"/><path class="st2" d="m44.07 4.98 2.15-.2M44.16 5.66l2.06-.19M38.18 6.45l1.47-2.94 2.65 1.96-1.57 2.84zM34.83 7.19l2.07-.64M35.07 7.85l1.98-.62M29.38 9.86l.83-3.19 3 1.37-.95 3.11zM26.27 11.28l1.89-1.05M26.63 11.87l1.81-1.02M21.49 15.02l.14-3.29 3.22.72-.27 3.24zM18.73 17.06l1.64-1.42M19.22 17.56l1.55-1.37M14.84 21.71l-.54-3.24 3.29.03.41 3.22zM12.57 24.28l1.3-1.73M13.15 24.67l1.23-1.66M9.73 29.64l-1.21-3.06 3.23-.66 1.07 3.07zM8.04 32.63l.91-1.97M8.69 32.89 9.55 31M6.37 38.46l-1.81-2.74 3.02-1.32 1.68 2.78zM5.35 41.73l.48-2.11M6.03 41.85l.45-2.02M4.93 47.78l-2.35-2.3 2.69-1.92 2.22 2.37zM4.6 51.2l.03-2.17M5.3 51.17l.02-2.07M5.45 57.2l-2.77-1.77L4.91 53l2.66 1.86zM5.84 60.61l-.42-2.13M6.52 60.44l-.41-2.03M7.92 66.31l-3.08-1.16 1.68-2.84 2.99 1.27zM9.01 69.56l-.85-1.99M9.64 69.25l-.83-1.9M12.23 74.7l-3.25-.49 1.05-3.12 3.19.61zM13.98 77.65l-1.25-1.77M14.52 77.22l-1.2-1.68M18.19 82.01l-3.28.2.37-3.27 3.25-.07zM20.51 84.54l-1.59-1.48M20.96 84l-1.53-1.4M25.54 87.93l-3.17.87-.31-3.28 3.16-.74zM28.34 89.91l-1.86-1.11M28.66 89.3l-1.78-1.05M33.96 92.18l-2.92 1.52-.99-3.15L33 89.18zM37.11 93.54l-2.05-.69M37.3 92.88l-1.96-.66M43.08 94.59l-2.54 2.09-1.62-2.87 2.59-1.96zM46.44 95.27l-2.15-.25M46.49 94.58l-2.05-.24M52.51 95.06l-2.05 2.57-2.19-2.47 2.13-2.46zM55.93 95.02l-2.15.2M55.84 94.34l-2.06.19M61.82 93.55l-1.47 2.94-2.65-1.96 1.57-2.84zM65.17 92.81l-2.07.64M64.93 92.15l-1.98.62M70.62 90.14l-.83 3.19-3-1.37.95-3.11zM73.73 88.72l-1.89 1.05M73.37 88.13l-1.81 1.02M78.51 84.98l-.14 3.29-3.22-.72.27-3.24zM81.27 82.94l-1.64 1.42M80.78 82.44l-1.55 1.37M85.16 78.29l.54 3.24-3.29-.03-.41-3.22zM87.43 75.72l-1.3 1.73M86.85 75.33l-1.23 1.66M90.27 70.36l1.21 3.06-3.23.66-1.07-3.07zM91.96 67.37l-.91 1.97M91.31 67.11 90.45 69M93.63 61.54l1.81 2.74-3.02 1.32-1.68-2.78zM94.65 58.27l-.48 2.11M93.97 58.15l-.45 2.02M95.07 52.22l2.35 2.3-2.69 1.92-2.22-2.37zM95.4 48.8l-.03 2.17M94.7 48.83l-.02 2.07M94.55 42.8l2.77 1.77L95.09 47l-2.66-1.86zM94.16 39.39l.42 2.13M93.48 39.56l.41 2.03M92.08 33.69l3.08 1.16-1.68 2.84-2.99-1.27zM90.99 30.44l.85 1.99M90.36 30.75l.83 1.9M87.77 25.3l3.25.49-1.05 3.12-3.19-.61zM86.02 22.35l1.25 1.77M85.48 22.78l1.2 1.68M81.81 17.99l3.28-.2-.37 3.27-3.25.07zM79.49 15.46l1.59 1.48M79.04 16l1.53 1.4M74.46 12.07l3.17-.87.31 3.28-3.16.74zM71.66 10.09l1.86 1.11M71.34 10.7l1.78 1.05M66.04 7.82l2.92-1.52.99 3.15L67 10.82zM62.89 6.46l2.05.69M62.7 7.12l1.96.66M56.92 5.41l2.54-2.09 1.62 2.87-2.59 1.96zM53.56 4.73l2.15.25M53.51 5.42l2.05.24M47.49 4.94l2.05-2.57 2.19 2.47L49.6 7.3z"/></svg>