<svg version="1.1" id="Layer_1" xmlns="http://www.w3.org/2000/svg" x="0" y="0" viewBox="0 0 100 100" xml:space="preserve"><path d="M46.88 2.23c0-.14-.11-.25-.24-.25-.14 0-.25.11-.25.25s.11.24.25.24c.13 0 .24-.11.24-.24zM47.04 3c-.14 0-.25.11-.25.25s.11.24.25.24.24-.11.24-.24-.11-.25-.24-.25zM48.26 2.47c.14 0 .25-.11.25-.24 0-.14-.11-.25-.25-.25s-.24.11-.24.25c0 .13.11.24.24.24zM48.67 3c-.14 0-.25.11-.25.25s.11.24.25.24.24-.11.24-.24-.1-.25-.24-.25zM48.26 4.12c-.14 0-.24.11-.24.24 0 .14.11.25.24.25.14 0 .25-.11.25-.25 0-.13-.11-.24-.25-.24zM49.9 4.12c-.14 0-.24.11-.24.24 0 .14.11.25.24.25.14 0 .25-.11.25-.25a.26.26 0 0 0-.25-.24zM51.43 4.12c-.14 0-.25.11-.25.24 0 .14.11.25.25.25a.246.246 0 0 0 0-.49zM52.96 4.12c-.14 0-.25.11-.25.24 0 .14.11.25.25.25.13 0 .24-.11.24-.25.01-.13-.1-.24-.24-.24zM53.88 5.04c-.14 0-.25.11-.25.25s.11.24.25.24.25-.11.25-.24c-.01-.14-.12-.25-.25-.25zM50 2.47c.14 0 .25-.11.25-.24 0-.14-.11-.25-.25-.25s-.25.11-.25.25c0 .13.11.24.25.24zM50.41 3c-.14 0-.24.11-.24.25s.11.24.24.24.24-.11.24-.24-.11-.25-.24-.25zM51.63 2.47c.14 0 .25-.11.25-.24 0-.14-.11-.25-.25-.25a.246.246 0 0 0 0 .49zM52.04 3c-.14 0-.25.11-.25.25s.11.24.25.24.25-.11.25-.24-.11-.25-.25-.25zM49.18 5.25c-.14 0-.25.11-.25.24 0 .14.11.25.25.25s.24-.11.24-.25c.01-.13-.1-.24-.24-.24zM50.92 5.25c-.14 0-.25.11-.25.24 0 .14.11.25.25.25a.246.246 0 0 0 0-.49zM52.55 5.25c-.14 0-.25.11-.25.24 0 .14.11.25.25.25s.25-.11.25-.25c0-.13-.11-.24-.25-.24zM53.16 2.47c.14 0 .25-.11.25-.24 0-.14-.11-.25-.25-.25a.246.246 0 0 0 0 .49zM53.82 3.25c0-.14-.11-.25-.25-.25s-.25.11-.25.25.11.24.25.24.25-.11.25-.24zM32.27 5.53a.247.247 0 1 0-.47.15.247.247 0 0 0 .47-.15zM32.66 6.22a.247.247 0 1 0 .31.16c-.04-.13-.18-.21-.31-.16zM33.66 5.33a.247.247 0 1 0-.31-.16c.05.13.18.2.31.16zM34.21 5.71a.247.247 0 1 0 .15.47.247.247 0 0 0-.15-.47zM34.17 6.91a.247.247 0 1 0 .31.16.232.232 0 0 0-.31-.16zM35.73 6.4a.247.247 0 1 0 .31.16c-.05-.13-.19-.2-.31-.16zM37.18 5.93a.247.247 0 1 0 .15.47.247.247 0 0 0-.15-.47zM38.64 5.45a.247.247 0 1 0 .15.47.247.247 0 0 0-.15-.47zM39.8 6.04a.247.247 0 1 0 .31.16c-.05-.13-.18-.2-.31-.16zM35.31 4.8a.247.247 0 1 0-.31-.16c.05.13.18.2.31.16zM35.86 5.17a.247.247 0 1 0 .15.47.247.247 0 0 0-.15-.47zM36.87 4.29a.247.247 0 1 0-.15-.47.247.247 0 0 0 .15.47zM37.42 4.67a.247.247 0 1 0 .15.47.247.247 0 0 0-.15-.47zM35.39 7.69a.247.247 0 1 0 .15.47.247.247 0 0 0-.15-.47zM37.04 7.15a.247.247 0 1 0 .15.47.247.247 0 0 0-.15-.47zM38.6 6.65a.247.247 0 1 0 .31.16c-.05-.13-.18-.2-.31-.16zM38.32 3.82a.247.247 0 1 0-.31-.16c.05.13.18.2.31.16zM39.18 4.35c-.04-.12-.18-.19-.31-.15a.247.247 0 0 0 .15.47c.13-.05.21-.19.16-.32zM19.39 13.19a.24.24 0 0 0-.34-.05.24.24 0 0 0-.05.34c.08.11.23.13.34.05.11-.08.13-.24.05-.34zM19.98 13.72a.24.24 0 0 0-.05.34c.08.11.23.13.34.05.11-.08.13-.23.05-.34s-.23-.13-.34-.05zM20.66 12.57a.24.24 0 0 0 .05-.34.24.24 0 0 0-.34-.05.24.24 0 0 0-.05.34c.08.1.23.13.34.05zM21.3 12.76a.24.24 0 0 0-.05.34c.08.11.23.13.34.05a.24.24 0 0 0 .05-.34.24.24 0 0 0-.34-.05zM21.63 13.91a.24.24 0 0 0-.05.34c.08.11.23.13.34.05a.24.24 0 0 0 .05-.34.24.24 0 0 0-.34-.05zM22.95 12.95a.24.24 0 0 0-.05.34c.08.11.23.13.34.05a.24.24 0 0 0 .05-.34.24.24 0 0 0-.34-.05zM24.19 12.05a.24.24 0 0 0-.05.34c.08.11.23.13.34.05a.24.24 0 0 0 .05-.34.24.24 0 0 0-.34-.05zM25.43 11.15c-.11.08-.13.23-.05.34s.23.13.34.05a.24.24 0 0 0 .05-.34.24.24 0 0 0-.34-.05zM26.71 11.35a.24.24 0 0 0-.05.34c.08.11.23.13.34.05a.24.24 0 0 0 .05-.34c-.07-.11-.23-.13-.34-.05zM22.06 11.55a.24.24 0 0 0 .05-.34.24.24 0 0 0-.34-.05.24.24 0 0 0-.05.34c.08.1.23.13.34.05zM22.7 11.74c-.11.08-.13.23-.05.34s.23.13.34.05a.24.24 0 0 0 .05-.34c-.07-.11-.23-.13-.34-.05zM23.38 10.59a.24.24 0 0 0 .05-.34.24.24 0 0 0-.34-.05.24.24 0 0 0-.05.34c.08.1.23.13.34.05zM24.03 10.78c-.11.08-.13.23-.05.34s.23.13.34.05a.24.24 0 0 0 .05-.34.24.24 0 0 0-.34-.05zM23.03 14.27a.24.24 0 0 0-.05.34c.08.11.23.13.34.05a.24.24 0 0 0 .05-.34.248.248 0 0 0-.34-.05zM24.44 13.25a.24.24 0 0 0-.05.34c.08.11.23.13.34.05a.24.24 0 0 0 .05-.34.25.25 0 0 0-.34-.05zM25.76 12.29a.24.24 0 0 0-.05.34c.08.11.23.13.34.05.11-.08.13-.23.05-.34s-.23-.13-.34-.05zM24.62 9.69a.24.24 0 0 0 .05-.34.24.24 0 0 0-.34-.05.24.24 0 0 0-.05.34c.08.1.23.13.34.05zM25.61 9.93a.24.24 0 0 0-.34-.05.24.24 0 0 0-.05.34c.08.11.23.13.34.05.1-.08.13-.23.05-.34zM9.51 24.45a.24.24 0 0 0-.34.05.24.24 0 0 0 .05.34c.11.08.26.05.34-.05s.06-.26-.05-.34zM10.24 24.77c-.08.11-.06.26.05.34s.26.05.34-.05a.24.24 0 0 0-.05-.34.24.24 0 0 0-.34.05zM10.53 23.47a.24.24 0 0 0-.05-.34.24.24 0 0 0-.34.05.25.25 0 0 0 .05.34c.1.08.26.06.34-.05zM11.2 23.45a.24.24 0 0 0 .05.34c.11.08.26.05.34-.05a.24.24 0 0 0-.05-.34c-.11-.09-.26-.06-.34.05zM11.87 24.44c-.08.11-.06.26.05.34s.26.06.34-.05a.24.24 0 0 0-.05-.34.231.231 0 0 0-.34.05zM12.83 23.12a.24.24 0 0 0 .05.34c.11.08.26.06.34-.05a.24.24 0 0 0-.05-.34.231.231 0 0 0-.34.05zM13.73 21.88c-.08.11-.06.26.05.34s.26.06.34-.05a.25.25 0 0 0-.05-.34.231.231 0 0 0-.34.05zM14.63 20.64a.24.24 0 0 0 .05.34c.11.08.26.06.34-.05a.25.25 0 0 0-.05-.34c-.11-.08-.27-.06-.34.05zM15.91 20.44a.24.24 0 0 0 .05.34c.11.08.26.06.34-.05.08-.11.06-.26-.05-.34s-.26-.06-.34.05zM11.55 22.06a.24.24 0 0 0-.05-.34.24.24 0 0 0-.34.05.24.24 0 0 0 .05.34c.1.09.26.06.34-.05zM12.22 22.04a.25.25 0 0 0 .05.34c.11.08.26.06.34-.05a.24.24 0 0 0-.05-.34.25.25 0 0 0-.34.05zM12.51 20.74a.24.24 0 0 0-.05-.34.24.24 0 0 0-.34.05.25.25 0 0 0 .05.34c.1.08.26.06.34-.05zM13.18 20.72a.24.24 0 0 0 .05.34c.11.08.26.06.34-.05a.24.24 0 0 0-.05-.34.24.24 0 0 0-.34.05zM13.31 24.36a.24.24 0 0 0 .05.34c.11.08.26.06.34-.05a.25.25 0 0 0-.05-.34c-.1-.09-.26-.06-.34.05zM14.33 22.95a.24.24 0 0 0 .05.34c.11.08.26.06.34-.05a.25.25 0 0 0-.05-.34.242.242 0 0 0-.34.05zM15.29 21.63a.24.24 0 0 0 .05.34c.11.08.26.06.34-.05s.06-.26-.05-.34a.242.242 0 0 0-.34.05zM13.41 19.5a.24.24 0 0 0-.05-.34.24.24 0 0 0-.34.05.25.25 0 0 0 .05.34c.1.09.26.06.34-.05zM14.42 19.43c-.11-.08-.26-.06-.34.05s-.06.26.05.34c.11.08.26.06.34-.05a.24.24 0 0 0-.05-.34zM3.6 38.21a.247.247 0 1 0-.15.47.247.247 0 0 0 .15-.47zM4.39 38.29a.247.247 0 1 0 .47.15.247.247 0 0 0-.47-.15zM4.26 36.96a.247.247 0 1 0-.47-.15.247.247 0 0 0 .47.15zM4.89 36.74a.247.247 0 1 0 .47.15.247.247 0 0 0-.47-.15zM5.83 37.47a.247.247 0 1 0 .31-.16.255.255 0 0 0-.31.16zM6.34 35.92a.247.247 0 1 0 .47.15.247.247 0 0 0-.47-.15zM6.81 34.46a.247.247 0 1 0 .31-.16c-.13-.03-.27.04-.31.16zM7.28 33.01a.247.247 0 1 0 .31-.16c-.13-.04-.26.03-.31.16zM8.44 32.42a.247.247 0 1 0 .47.15.247.247 0 0 0-.47-.15zM4.8 35.31a.247.247 0 1 0-.31.16c.13.04.26-.03.31-.16zM5.43 35.09a.247.247 0 1 0 .47.15.247.247 0 0 0-.47-.15zM5.3 33.76a.247.247 0 1 0-.47-.15.247.247 0 0 0 .47.15zM5.93 33.53a.247.247 0 1 0 .31-.16c-.13-.03-.27.04-.31.16zM7.18 36.95a.247.247 0 1 0 .31-.16c-.13-.04-.26.03-.31.16zM7.72 35.3a.247.247 0 1 0 .47.15.247.247 0 0 0-.47-.15zM8.23 33.74a.247.247 0 1 0 .47.15.247.247 0 0 0-.47-.15zM5.77 32.3a.247.247 0 1 0-.47-.15.247.247 0 0 0 .47.15zM6.71 31.92a.247.247 0 1 0-.15.47.247.247 0 0 0 .15-.47zM2.23 53.12c-.14 0-.25.11-.25.24 0 .14.11.25.25.25s.24-.11.24-.25c0-.13-.11-.24-.24-.24zM3 52.96c0 .14.11.25.25.25s.24-.11.24-.25-.11-.24-.24-.24-.25.11-.25.24zM2.47 51.74c0-.14-.11-.25-.24-.25-.14 0-.25.11-.25.25s.11.24.25.24c.13 0 .24-.11.24-.24zM3 51.33c0 .14.11.25.25.25s.24-.11.24-.25-.11-.24-.24-.24-.25.1-.25.24zM4.12 51.74c0 .14.11.24.24.24.14 0 .25-.11.25-.24 0-.14-.11-.25-.25-.25-.13 0-.24.11-.24.25zM4.12 50.1c0 .14.11.24.24.24.14 0 .25-.11.25-.24 0-.14-.11-.25-.25-.25a.26.26 0 0 0-.24.25zM4.12 48.57c0 .14.11.25.24.25.14 0 .25-.11.25-.25a.246.246 0 0 0-.49 0zM4.12 47.04c0 .14.11.25.24.25.14 0 .25-.11.25-.25 0-.13-.11-.24-.25-.24-.13-.01-.24.1-.24.24zM5.04 46.12c0 .14.11.25.25.25s.24-.11.24-.25-.11-.25-.24-.25c-.14.01-.25.12-.25.25zM2.47 50c0-.14-.11-.25-.24-.25-.14 0-.25.11-.25.25s.11.25.25.25c.13 0 .24-.11.24-.25zM3 49.59c0 .14.11.24.25.24s.24-.11.24-.24-.11-.24-.24-.24-.25.11-.25.24zM2.47 48.37c0-.14-.11-.25-.24-.25-.14 0-.25.11-.25.25a.246.246 0 0 0 .49 0zM3 47.96c0 .14.11.25.25.25s.24-.11.24-.25-.11-.25-.24-.25-.25.11-.25.25zM5.25 50.82c0 .14.11.25.24.25.14 0 .25-.11.25-.25s-.11-.24-.25-.24c-.13-.01-.24.1-.24.24zM5.25 49.08c0 .14.11.25.24.25.14 0 .25-.11.25-.25a.246.246 0 0 0-.49 0zM5.25 47.45c0 .14.11.25.24.25.14 0 .25-.11.25-.25s-.11-.25-.25-.25c-.13 0-.24.11-.24.25zM2.47 46.84c0-.14-.11-.25-.24-.25-.14 0-.25.11-.25.25a.246.246 0 0 0 .49 0zM3.25 46.18c-.14 0-.25.11-.25.25s.11.25.25.25.24-.11.24-.25-.11-.25-.24-.25zM5.53 67.73a.247.247 0 1 0 .15.47.247.247 0 0 0-.15-.47zM6.22 67.34a.247.247 0 1 0 .16-.31c-.13.04-.21.18-.16.31zM5.33 66.34a.247.247 0 1 0-.16.31c.13-.05.2-.18.16-.31zM5.71 65.79a.247.247 0 1 0 .47-.15.247.247 0 0 0-.47.15zM6.91 65.83a.247.247 0 1 0 .16-.31c-.14.04-.21.18-.16.31zM6.4 64.27a.247.247 0 1 0 .16-.31c-.13.04-.2.19-.16.31zM5.93 62.82a.247.247 0 1 0 .47-.15.247.247 0 0 0-.47.15zM5.45 61.36a.247.247 0 1 0 .47-.15.247.247 0 0 0-.47.15zM6.04 60.2a.247.247 0 1 0 .16-.31c-.13.05-.2.18-.16.31zM4.8 64.69a.247.247 0 1 0-.16.31c.13-.05.2-.18.16-.31zM5.17 64.14a.247.247 0 1 0 .47-.15.247.247 0 0 0-.47.15zM4.29 63.13a.247.247 0 1 0-.47.15.247.247 0 0 0 .47-.15zM4.67 62.58a.247.247 0 1 0 .47-.15.247.247 0 0 0-.47.15zM7.69 64.61a.247.247 0 1 0 .47-.15.247.247 0 0 0-.47.15zM7.15 62.96a.247.247 0 1 0 .47-.15.247.247 0 0 0-.47.15zM6.65 61.4a.247.247 0 1 0 .16-.31c-.13.05-.2.18-.16.31zM3.82 61.68a.247.247 0 1 0-.16.31c.13-.05.2-.18.16-.31zM4.35 60.82c-.12.04-.19.18-.15.31a.247.247 0 0 0 .47-.15c-.05-.13-.19-.21-.32-.16zM13.19 80.61a.24.24 0 0 0-.05.34c.08.11.23.13.34.05s.13-.23.05-.34a.242.242 0 0 0-.34-.05zM13.72 80.02c.08.11.23.13.34.05a.24.24 0 0 0 .05-.34c-.08-.11-.23-.13-.34-.05s-.13.23-.05.34zM12.57 79.34a.24.24 0 0 0-.34-.05.24.24 0 0 0-.05.34c.08.11.23.13.34.05.1-.08.13-.23.05-.34zM12.76 78.7c.08.11.23.13.34.05s.13-.23.05-.34c-.08-.11-.23-.13-.34-.05s-.13.23-.05.34zM13.91 78.37c.08.11.23.13.34.05a.24.24 0 0 0 .05-.34.24.24 0 0 0-.34-.05.24.24 0 0 0-.05.34zM12.95 77.05c.08.11.23.13.34.05a.24.24 0 0 0 .05-.34.24.24 0 0 0-.34-.05.24.24 0 0 0-.05.34zM12.05 75.81c.08.11.23.13.34.05a.24.24 0 0 0 .05-.34.24.24 0 0 0-.34-.05.24.24 0 0 0-.05.34zM11.15 74.57c.08.11.23.13.34.05a.24.24 0 0 0 .05-.34c-.08-.11-.23-.13-.34-.05s-.13.23-.05.34zM11.35 73.29c.08.11.23.13.34.05s.13-.23.05-.34a.24.24 0 0 0-.34-.05c-.11.07-.13.23-.05.34zM11.55 77.94a.24.24 0 0 0-.34-.05.24.24 0 0 0-.05.34c.08.11.23.13.34.05.1-.08.13-.23.05-.34zM11.74 77.3c.08.11.23.13.34.05s.13-.23.05-.34c-.08-.11-.23-.13-.34-.05s-.13.23-.05.34zM10.59 76.62a.24.24 0 0 0-.34-.05.24.24 0 0 0-.05.34c.08.11.23.13.34.05.1-.08.13-.23.05-.34zM10.78 75.97c.08.11.23.13.34.05s.13-.23.05-.34a.24.24 0 0 0-.34-.05.24.24 0 0 0-.05.34zM14.27 76.97c.08.11.23.13.34.05a.24.24 0 0 0 .05-.34.24.24 0 0 0-.34-.05c-.1.07-.13.23-.05.34zM13.25 75.56c.08.11.23.13.34.05s.13-.23.05-.34a.24.24 0 0 0-.34-.05.25.25 0 0 0-.05.34zM12.29 74.24c.08.11.23.13.34.05a.24.24 0 0 0 .05-.34.24.24 0 0 0-.34-.05.25.25 0 0 0-.05.34zM9.69 75.38a.24.24 0 0 0-.34-.05.24.24 0 0 0-.05.34c.08.11.23.13.34.05.1-.08.13-.23.05-.34zM9.93 74.39a.24.24 0 0 0-.05.34c.08.11.23.13.34.05a.24.24 0 0 0 .05-.34.25.25 0 0 0-.34-.05zM24.45 90.49a.24.24 0 0 0 .05.34c.11.08.26.06.34-.05.08-.11.05-.26-.05-.34s-.26-.06-.34.05zM24.77 89.76c.11.08.26.06.34-.05s.05-.26-.05-.34c-.11-.08-.26-.06-.34.05s-.06.26.05.34zM23.47 89.47a.24.24 0 0 0-.34.05.24.24 0 0 0 .05.34c.11.08.26.05.34-.05s.06-.26-.05-.34zM23.45 88.8c.11.08.26.06.34-.05.08-.11.05-.26-.05-.34s-.26-.06-.34.05c-.09.11-.06.26.05.34zM24.44 88.13c.11.08.26.06.34-.05s.06-.26-.05-.34c-.11-.08-.26-.06-.34.05s-.06.27.05.34zM23.12 87.17c.11.08.26.06.34-.05.08-.11.06-.26-.05-.34s-.26-.06-.34.05c-.09.11-.06.27.05.34zM21.88 86.27c.11.08.26.06.34-.05s.06-.26-.05-.34a.25.25 0 0 0-.34.05c-.09.11-.06.27.05.34zM20.64 85.37c.11.08.26.06.34-.05s.06-.26-.05-.34a.25.25 0 0 0-.34.05c-.08.11-.06.27.05.34zM20.44 84.09c.11.08.26.06.34-.05a.24.24 0 0 0-.05-.34c-.11-.08-.26-.06-.34.05s-.06.26.05.34zM22.06 88.45c-.11-.08-.26-.06-.34.05s-.06.26.05.34.26.06.34-.05c.09-.1.06-.26-.05-.34zM22.04 87.78c.11.08.26.05.34-.05.08-.11.06-.26-.05-.34s-.26-.06-.34.05-.05.26.05.34zM20.74 87.49c-.11-.08-.26-.06-.34.05s-.06.26.05.34c.11.08.26.05.34-.05.08-.1.06-.26-.05-.34zM20.72 86.82c.11.08.26.06.34-.05a.24.24 0 0 0-.05-.34c-.11-.08-.26-.06-.34.05s-.06.26.05.34zM24.36 86.69c.11.08.26.06.34-.05s.06-.26-.05-.34c-.11-.08-.26-.05-.34.05s-.06.26.05.34zM22.95 85.67c.11.08.26.06.34-.05a.24.24 0 0 0-.05-.34c-.11-.08-.26-.05-.34.05s-.06.26.05.34zM21.63 84.71c.11.08.26.06.34-.05a.24.24 0 0 0-.05-.34c-.11-.08-.26-.06-.34.05s-.06.26.05.34zM19.5 86.59c-.11-.08-.26-.06-.34.05s-.06.26.05.34c.11.08.26.05.34-.05.09-.1.06-.26-.05-.34zM19.43 85.58c-.08.11-.06.26.05.34s.26.06.34-.05a.24.24 0 0 0-.05-.34.24.24 0 0 0-.34.05zM38.21 96.4a.247.247 0 1 0 .47.15.247.247 0 0 0-.47-.15zM38.29 95.61a.247.247 0 1 0 .15-.47.247.247 0 0 0-.15.47zM36.96 95.74a.247.247 0 1 0-.15.47.247.247 0 0 0 .15-.47zM36.74 95.11a.247.247 0 1 0 .15-.47.247.247 0 0 0-.15.47zM37.47 94.17a.247.247 0 1 0-.16-.31c-.04.13.04.27.16.31zM35.92 93.66a.247.247 0 1 0 .15-.47.247.247 0 0 0-.15.47zM34.46 93.19a.247.247 0 1 0-.16-.31c-.03.13.04.27.16.31zM33.01 92.72a.247.247 0 1 0-.16-.31c-.04.13.03.26.16.31zM32.42 91.56a.247.247 0 1 0 .15-.47.247.247 0 0 0-.15.47zM35.31 95.2a.247.247 0 1 0 .16.31c.04-.13-.03-.26-.16-.31zM35.09 94.57a.247.247 0 1 0 .15-.47.247.247 0 0 0-.15.47zM33.76 94.7a.247.247 0 1 0-.15.47.247.247 0 0 0 .15-.47zM33.53 94.07a.247.247 0 1 0-.16-.31c-.03.13.04.27.16.31zM36.95 92.82a.247.247 0 1 0-.16-.31c-.04.13.03.26.16.31zM35.3 92.28a.247.247 0 1 0 .15-.47.247.247 0 0 0-.15.47zM33.74 91.77a.247.247 0 1 0 .15-.47.247.247 0 0 0-.15.47zM32.3 94.23a.247.247 0 1 0-.15.47.247.247 0 0 0 .15-.47zM31.92 93.29a.247.247 0 1 0 .47.15.247.247 0 0 0-.47-.15zM53.12 97.77c0 .14.11.25.24.25.14 0 .25-.11.25-.25s-.11-.24-.25-.24c-.13 0-.24.11-.24.24zM52.96 97c.14 0 .25-.11.25-.25s-.11-.24-.25-.24-.24.11-.24.24.11.25.24.25zM51.74 97.53c-.14 0-.25.11-.25.24 0 .14.11.25.25.25s.24-.11.24-.25c0-.13-.11-.24-.24-.24zM51.33 97c.14 0 .25-.11.25-.25s-.11-.24-.25-.24-.24.11-.24.24.1.25.24.25zM51.74 95.88c.14 0 .24-.11.24-.24 0-.14-.11-.25-.24-.25-.14 0-.25.11-.25.25 0 .13.11.24.25.24zM50.1 95.88c.14 0 .24-.11.24-.24 0-.14-.11-.25-.24-.25-.14 0-.25.11-.25.25.01.13.12.24.25.24zM48.57 95.88c.14 0 .25-.11.25-.24 0-.14-.11-.25-.25-.25a.246.246 0 0 0 0 .49zM47.04 95.88c.14 0 .25-.11.25-.24 0-.14-.11-.25-.25-.25-.13 0-.24.11-.24.25-.01.13.1.24.24.24zM46.12 94.96c.14 0 .25-.11.25-.25s-.11-.24-.25-.24-.25.11-.25.24c.01.14.12.25.25.25zM50 97.53c-.14 0-.25.11-.25.24 0 .14.11.25.25.25s.25-.11.25-.25c0-.13-.11-.24-.25-.24zM49.59 97c.14 0 .24-.11.24-.25s-.11-.24-.24-.24-.24.11-.24.24.11.25.24.25zM48.37 97.53c-.14 0-.25.11-.25.24 0 .14.11.25.25.25a.246.246 0 0 0 0-.49zM47.96 97c.14 0 .25-.11.25-.25s-.11-.24-.25-.24-.25.11-.25.24.11.25.25.25zM50.82 94.75c.14 0 .25-.11.25-.24 0-.14-.11-.25-.25-.25s-.24.11-.24.25c-.01.13.1.24.24.24zM49.08 94.75c.14 0 .25-.11.25-.24 0-.14-.11-.25-.25-.25a.246.246 0 0 0 0 .49zM47.45 94.75c.14 0 .25-.11.25-.24 0-.14-.11-.25-.25-.25s-.25.11-.25.25c0 .13.11.24.25.24zM46.84 97.53c-.14 0-.25.11-.25.24 0 .14.11.25.25.25a.246.246 0 0 0 0-.49zM46.18 96.75c0 .14.11.25.25.25s.25-.11.25-.25-.11-.24-.25-.24-.25.11-.25.24zM67.73 94.47a.247.247 0 1 0 .47-.15.247.247 0 0 0-.47.15zM67.34 93.78a.247.247 0 1 0-.31-.16c.04.13.18.21.31.16zM66.34 94.67a.247.247 0 1 0 .31.16c-.05-.13-.18-.2-.31-.16zM65.79 94.29a.247.247 0 1 0-.15-.47.247.247 0 0 0 .15.47zM65.83 93.09a.247.247 0 1 0-.31-.16c.04.14.18.21.31.16zM64.27 93.6a.247.247 0 1 0-.31-.16c.05.13.19.2.31.16zM62.82 94.07a.247.247 0 1 0-.15-.47.247.247 0 0 0 .15.47zM61.36 94.55a.247.247 0 1 0-.15-.47.247.247 0 0 0 .15.47zM60.2 93.96a.247.247 0 1 0-.31-.16c.05.13.18.2.31.16zM64.69 95.2a.247.247 0 1 0 .31.16c-.05-.13-.18-.2-.31-.16zM64.14 94.83a.247.247 0 1 0-.15-.47.247.247 0 0 0 .15.47zM63.13 95.71a.247.247 0 1 0 .15.47.247.247 0 0 0-.15-.47zM62.58 95.33a.247.247 0 1 0-.15-.47.247.247 0 0 0 .15.47zM64.61 92.31a.247.247 0 1 0-.15-.47.247.247 0 0 0 .15.47zM62.96 92.85a.247.247 0 1 0-.15-.47.247.247 0 0 0 .15.47zM61.4 93.35a.247.247 0 1 0-.31-.16c.05.13.18.2.31.16zM61.68 96.18a.247.247 0 1 0 .31.16c-.05-.13-.18-.2-.31-.16zM60.82 95.65a.247.247 0 1 0 .16-.31c-.13.04-.21.18-.16.31zM80.61 86.81c.08.11.23.13.34.05s.13-.23.05-.34c-.08-.11-.23-.13-.34-.05s-.13.24-.05.34zM80.02 86.28a.24.24 0 0 0 .05-.34c-.08-.11-.23-.13-.34-.05s-.13.23-.05.34.23.13.34.05zM79.34 87.43c-.11.08-.13.23-.05.34s.23.13.34.05.13-.23.05-.34-.23-.13-.34-.05zM78.7 87.24c.11-.08.13-.23.05-.34s-.23-.13-.34-.05-.13.23-.05.34c.08.11.23.13.34.05zM78.37 86.09c.11-.08.13-.23.05-.34s-.23-.13-.34-.05-.13.23-.05.34c.08.11.23.13.34.05zM77.05 87.05c.11-.08.13-.23.05-.34s-.23-.13-.34-.05c-.11.08-.13.23-.05.34s.23.13.34.05zM75.81 87.95c.11-.08.13-.23.05-.34s-.23-.13-.34-.05c-.11.08-.13.23-.05.34s.23.13.34.05zM74.57 88.85a.24.24 0 0 0 .05-.34.24.24 0 0 0-.34-.05c-.11.08-.13.23-.05.34s.23.13.34.05zM73.29 88.65c.11-.08.13-.23.05-.34s-.23-.13-.34-.05c-.11.08-.13.23-.05.34s.23.13.34.05zM77.94 88.45a.24.24 0 0 0-.05.34c.08.11.23.13.34.05s.13-.23.05-.34-.23-.13-.34-.05zM77.3 88.26c.11-.08.13-.23.05-.34s-.23-.13-.34-.05-.13.23-.05.34.23.13.34.05zM76.62 89.41a.24.24 0 0 0-.05.34c.08.11.23.13.34.05.11-.08.13-.23.05-.34s-.23-.13-.34-.05zM75.97 89.22c.11-.08.13-.23.05-.34s-.23-.13-.34-.05c-.11.08-.13.23-.05.34s.23.13.34.05zM76.97 85.73c.11-.08.13-.23.05-.34s-.23-.13-.34-.05-.13.23-.05.34.23.13.34.05zM75.56 86.75c.11-.08.13-.23.05-.34s-.23-.13-.34-.05c-.11.08-.13.23-.05.34s.23.13.34.05zM74.24 87.71a.24.24 0 0 0 .05-.34c-.08-.11-.23-.13-.34-.05s-.13.23-.05.34c.08.1.23.13.34.05zM75.38 90.31c-.11.08-.13.23-.05.34s.23.13.34.05a.24.24 0 0 0 .05-.34.25.25 0 0 0-.34-.05zM74.39 90.07c.08.11.23.13.34.05.11-.08.13-.23.05-.34s-.23-.13-.34-.05a.25.25 0 0 0-.05.34zM90.49 75.55c.11.08.26.06.34-.05s.06-.26-.05-.34-.26-.05-.34.05c-.09.11-.06.26.05.34zM89.76 75.23a.24.24 0 0 0-.05-.34c-.11-.08-.26-.05-.34.05s-.06.26.05.34.26.06.34-.05zM89.47 76.53c-.08.11-.06.26.05.34s.26.06.34-.05c.08-.11.05-.26-.05-.34s-.26-.06-.34.05zM88.8 76.55c.08-.11.06-.26-.05-.34s-.26-.05-.34.05c-.08.11-.06.26.05.34s.26.06.34-.05zM88.13 75.56c.08-.11.06-.26-.05-.34s-.26-.06-.34.05-.06.26.05.34.27.06.34-.05zM87.17 76.88c.08-.11.06-.26-.05-.34s-.26-.06-.34.05c-.08.11-.06.26.05.34s.27.06.34-.05zM86.27 78.12c.08-.11.06-.26-.05-.34s-.26-.06-.34.05c-.08.11-.05.26.05.34s.27.06.34-.05zM85.37 79.36c.08-.11.06-.26-.05-.34s-.26-.06-.34.05c-.08.11-.05.26.05.34s.27.06.34-.05zM84.09 79.56a.24.24 0 0 0-.05-.34.24.24 0 0 0-.34.05c-.08.11-.06.26.05.34s.26.06.34-.05zM88.45 77.94c-.08.11-.06.26.05.34s.26.06.34-.05.06-.26-.05-.34c-.1-.09-.26-.06-.34.05zM87.78 77.96c.08-.11.05-.26-.05-.34s-.26-.06-.34.05c-.08.11-.06.26.05.34s.26.05.34-.05zM87.49 79.26c-.08.11-.06.26.05.34s.26.06.34-.05c.08-.11.05-.26-.05-.34s-.26-.06-.34.05zM86.82 79.28a.24.24 0 0 0-.05-.34.24.24 0 0 0-.34.05c-.08.11-.06.26.05.34s.26.06.34-.05zM86.69 75.64c.08-.11.06-.26-.05-.34s-.26-.06-.34.05a.25.25 0 0 0 .05.34c.1.09.26.06.34-.05zM85.67 77.05a.24.24 0 0 0-.05-.34.24.24 0 0 0-.34.05.25.25 0 0 0 .05.34c.1.08.26.06.34-.05zM84.71 78.37a.24.24 0 0 0-.05-.34.24.24 0 0 0-.34.05c-.08.11-.06.26.05.34s.26.06.34-.05zM86.59 80.5c-.08.11-.06.26.05.34s.26.06.34-.05c.08-.11.05-.26-.05-.34s-.26-.06-.34.05zM85.58 80.57c.11.08.26.06.34-.05s.06-.26-.05-.34-.26-.06-.34.05a.24.24 0 0 0 .05.34zM96.4 61.79a.247.247 0 1 0 .15-.47.247.247 0 0 0-.15.47zM95.61 61.71a.247.247 0 1 0-.47-.15.247.247 0 0 0 .47.15zM95.74 63.04a.247.247 0 1 0 .47.15.247.247 0 0 0-.47-.15zM95.11 63.26a.247.247 0 1 0-.47-.15.247.247 0 0 0 .47.15zM94.17 62.53a.247.247 0 1 0-.31.16c.13.04.27-.04.31-.16zM93.66 64.08a.247.247 0 1 0-.47-.15.247.247 0 0 0 .47.15zM93.19 65.54a.247.247 0 1 0-.31.16c.13.04.27-.04.31-.16zM92.72 66.99a.247.247 0 1 0-.31.16c.13.04.26-.03.31-.16zM91.56 67.58a.247.247 0 1 0-.47-.15.247.247 0 0 0 .47.15zM95.2 64.69a.247.247 0 1 0 .31-.16c-.13-.04-.26.03-.31.16zM94.57 64.91a.247.247 0 1 0-.47-.15.247.247 0 0 0 .47.15zM94.7 66.24a.247.247 0 1 0 .47.15.247.247 0 0 0-.47-.15zM94.07 66.47a.247.247 0 1 0-.31.16c.13.03.27-.04.31-.16zM92.82 63.05a.247.247 0 1 0-.31.16c.13.04.26-.03.31-.16zM92.28 64.7a.247.247 0 1 0-.47-.15.247.247 0 0 0 .47.15zM91.77 66.26a.247.247 0 1 0-.47-.15.247.247 0 0 0 .47.15zM94.23 67.7a.247.247 0 1 0 .47.15.247.247 0 0 0-.47-.15zM93.29 68.08a.247.247 0 1 0 .15-.47.247.247 0 0 0-.15.47zM97.77 46.88c.14 0 .25-.11.25-.24 0-.14-.11-.25-.25-.25s-.24.11-.24.25c0 .13.11.24.24.24zM97 47.04c0-.14-.11-.25-.25-.25s-.24.11-.24.25.11.24.24.24.25-.11.25-.24zM97.53 48.26c0 .14.11.25.24.25.14 0 .25-.11.25-.25s-.11-.24-.25-.24c-.13 0-.24.11-.24.24zM97 48.67c0-.14-.11-.25-.25-.25s-.24.11-.24.25.11.24.24.24.25-.1.25-.24zM95.88 48.26c0-.14-.11-.24-.24-.24-.14 0-.25.11-.25.24 0 .14.11.25.25.25.13 0 .24-.11.24-.25zM95.88 49.9c0-.14-.11-.24-.24-.24-.14 0-.25.11-.25.24 0 .14.11.25.25.25a.26.26 0 0 0 .24-.25zM95.88 51.43c0-.14-.11-.25-.24-.25-.14 0-.25.11-.25.25a.246.246 0 0 0 .49 0zM95.88 52.96c0-.14-.11-.25-.24-.25-.14 0-.25.11-.25.25 0 .13.11.24.25.24.13.01.24-.1.24-.24zM94.96 53.88c0-.14-.11-.25-.25-.25s-.24.11-.24.25.11.25.24.25c.14-.01.25-.12.25-.25zM97.53 50c0 .14.11.25.24.25.14 0 .25-.11.25-.25s-.11-.25-.25-.25c-.13 0-.24.11-.24.25zM97 50.41c0-.14-.11-.24-.25-.24s-.24.11-.24.24.11.24.24.24.25-.11.25-.24zM97.53 51.63c0 .14.11.25.24.25.14 0 .25-.11.25-.25a.246.246 0 0 0-.49 0zM97 52.04c0-.14-.11-.25-.25-.25s-.24.11-.24.25.11.25.24.25.25-.11.25-.25zM94.75 49.18c0-.14-.11-.25-.24-.25-.14 0-.25.11-.25.25s.11.24.25.24c.13.01.24-.1.24-.24zM94.75 50.92c0-.14-.11-.25-.24-.25-.14 0-.25.11-.25.25a.246.246 0 0 0 .49 0zM94.75 52.55c0-.14-.11-.25-.24-.25-.14 0-.25.11-.25.25s.11.25.25.25c.13 0 .24-.11.24-.25zM97.53 53.16c0 .14.11.25.24.25.14 0 .25-.11.25-.25a.246.246 0 0 0-.49 0zM96.75 53.82c.14 0 .25-.11.25-.25s-.11-.25-.25-.25-.24.11-.24.25.11.25.24.25zM94.47 32.27a.247.247 0 1 0-.15-.47.247.247 0 0 0 .15.47zM93.78 32.66a.247.247 0 1 0-.16.31c.13-.04.21-.18.16-.31zM94.67 33.66a.247.247 0 1 0 .16-.31c-.13.05-.2.18-.16.31zM94.29 34.21a.247.247 0 1 0-.47.15.247.247 0 0 0 .47-.15zM93.09 34.17a.247.247 0 1 0-.16.31c.14-.04.21-.18.16-.31zM93.6 35.73a.247.247 0 1 0-.16.31c.13-.05.2-.19.16-.31zM94.07 37.18a.247.247 0 1 0-.47.15.247.247 0 0 0 .47-.15zM94.55 38.64a.247.247 0 1 0-.47.15.247.247 0 0 0 .47-.15zM93.96 39.8a.247.247 0 1 0-.16.31c.13-.05.2-.18.16-.31zM95.2 35.31a.247.247 0 1 0 .16-.31c-.13.05-.2.18-.16.31zM94.83 35.86a.247.247 0 1 0-.47.15.247.247 0 0 0 .47-.15zM95.71 36.87a.247.247 0 1 0 .47-.15.247.247 0 0 0-.47.15zM95.33 37.42a.247.247 0 1 0-.47.15.247.247 0 0 0 .47-.15zM92.31 35.39a.247.247 0 1 0-.47.15.247.247 0 0 0 .47-.15zM92.85 37.04a.247.247 0 1 0-.47.15.247.247 0 0 0 .47-.15zM93.35 38.6a.247.247 0 1 0-.16.31c.13-.05.2-.18.16-.31zM96.18 38.32a.247.247 0 1 0 .16-.31c-.13.05-.2.18-.16.31zM95.65 39.18a.247.247 0 1 0-.31-.16c.04.13.18.21.31.16zM86.81 19.39a.24.24 0 0 0 .05-.34.24.24 0 0 0-.34-.05.24.24 0 0 0-.05.34c.08.11.24.13.34.05zM86.28 19.98c-.08-.11-.23-.13-.34-.05s-.13.23-.05.34c.08.11.23.13.34.05s.13-.23.05-.34zM87.43 20.66c.08.11.23.13.34.05s.13-.23.05-.34-.23-.13-.34-.05-.13.23-.05.34zM87.24 21.3a.24.24 0 0 0-.34-.05.24.24 0 0 0-.05.34c.08.11.23.13.34.05a.24.24 0 0 0 .05-.34zM86.09 21.63c-.08-.11-.23-.13-.34-.05s-.13.23-.05.34.23.13.34.05.13-.23.05-.34zM87.05 22.95a.24.24 0 0 0-.34-.05.24.24 0 0 0-.05.34c.08.11.23.13.34.05a.24.24 0 0 0 .05-.34zM87.95 24.19a.24.24 0 0 0-.34-.05.24.24 0 0 0-.05.34c.08.11.23.13.34.05s.13-.23.05-.34zM88.85 25.43c-.08-.11-.23-.13-.34-.05s-.13.23-.05.34c.08.11.23.13.34.05a.24.24 0 0 0 .05-.34zM88.65 26.71a.24.24 0 0 0-.34-.05c-.11.08-.13.23-.05.34s.23.13.34.05.13-.23.05-.34zM88.45 22.06c.08.11.23.13.34.05.11-.08.13-.23.05-.34s-.23-.13-.34-.05-.13.23-.05.34zM88.26 22.7c-.08-.11-.23-.13-.34-.05s-.13.23-.05.34.23.13.34.05c.11-.07.13-.23.05-.34zM89.41 23.38c.08.11.23.13.34.05a.24.24 0 0 0 .05-.34c-.08-.11-.23-.13-.34-.05s-.13.23-.05.34zM89.22 24.03c-.08-.11-.23-.13-.34-.05s-.13.23-.05.34c.08.11.23.13.34.05a.24.24 0 0 0 .05-.34zM85.73 23.03a.24.24 0 0 0-.34-.05.24.24 0 0 0-.05.34c.08.11.23.13.34.05.1-.07.13-.23.05-.34zM86.75 24.44a.24.24 0 0 0-.34-.05.24.24 0 0 0-.05.34c.08.11.23.13.34.05s.13-.23.05-.34zM87.71 25.76c-.08-.11-.23-.13-.34-.05s-.13.23-.05.34.23.13.34.05.13-.23.05-.34zM90.31 24.62c.08.11.23.13.34.05a.24.24 0 0 0 .05-.34.24.24 0 0 0-.34-.05.25.25 0 0 0-.05.34zM90.07 25.61a.24.24 0 0 0 .05-.34c-.08-.11-.23-.13-.34-.05s-.13.23-.05.34c.08.1.23.13.34.05zM75.55 9.51a.24.24 0 0 0-.05-.34.24.24 0 0 0-.34.05.25.25 0 0 0 .05.34c.11.09.26.06.34-.05zM75.23 10.24a.24.24 0 0 0-.34.05.25.25 0 0 0 .05.34c.11.08.26.06.34-.05a.24.24 0 0 0-.05-.34zM76.53 10.53c.11.08.26.06.34-.05.08-.11.06-.26-.05-.34s-.26-.05-.34.05c-.08.1-.06.26.05.34zM76.55 11.2c-.11-.08-.26-.06-.34.05s-.05.26.05.34c.11.08.26.06.34-.05.09-.11.06-.26-.05-.34zM75.56 11.87c-.11-.08-.26-.06-.34.05s-.06.26.05.34c.11.08.26.06.34-.05.09-.11.06-.27-.05-.34zM76.88 12.83c-.11-.08-.26-.06-.34.05s-.06.26.05.34c.11.08.26.06.34-.05.09-.11.06-.27-.05-.34zM78.12 13.73c-.11-.08-.26-.06-.34.05s-.06.26.05.34c.11.08.26.05.34-.05s.06-.27-.05-.34zM79.36 14.63a.24.24 0 0 0-.34.05.24.24 0 0 0 .05.34c.11.08.26.05.34-.05.08-.11.06-.27-.05-.34zM79.56 15.91a.24.24 0 0 0-.34.05.24.24 0 0 0 .05.34c.11.08.26.06.34-.05s.06-.26-.05-.34zM77.94 11.55c.11.08.26.06.34-.05a.24.24 0 0 0-.05-.34.24.24 0 0 0-.34.05c-.09.1-.06.26.05.34zM77.96 12.22a.25.25 0 0 0-.34.05.24.24 0 0 0 .05.34c.11.08.26.06.34-.05a.25.25 0 0 0-.05-.34zM79.26 12.51c.11.08.26.06.34-.05a.24.24 0 0 0-.05-.34.25.25 0 0 0-.34.05c-.08.1-.06.26.05.34zM79.28 13.18a.24.24 0 0 0-.34.05c-.08.11-.06.26.05.34s.26.06.34-.05a.24.24 0 0 0-.05-.34zM75.64 13.31a.24.24 0 0 0-.34.05.24.24 0 0 0 .05.34c.11.08.26.05.34-.05.09-.1.06-.26-.05-.34zM77.05 14.33a.24.24 0 0 0-.34.05.24.24 0 0 0 .05.34c.11.08.26.05.34-.05.08-.1.06-.26-.05-.34zM78.37 15.29a.24.24 0 0 0-.34.05c-.08.11-.06.26.05.34s.26.06.34-.05c.08-.1.06-.26-.05-.34zM80.5 13.41c.11.08.26.06.34-.05a.24.24 0 0 0-.05-.34.25.25 0 0 0-.34.05c-.09.1-.06.26.05.34zM80.57 14.42c.08-.11.06-.26-.05-.34s-.26-.06-.34.05-.06.26.05.34c.11.08.26.06.34-.05zM61.79 3.6a.247.247 0 1 0-.47-.15.247.247 0 0 0 .47.15zM61.71 4.39a.247.247 0 1 0-.15.47.247.247 0 0 0 .15-.47zM63.04 4.26a.247.247 0 1 0 .15-.47.247.247 0 0 0-.15.47zM63.26 4.89a.247.247 0 1 0-.15.47.247.247 0 0 0 .15-.47zM62.53 5.83a.247.247 0 1 0 .16.31.255.255 0 0 0-.16-.31zM64.08 6.34a.247.247 0 1 0-.15.47.247.247 0 0 0 .15-.47zM65.54 6.81a.247.247 0 1 0 .16.31.255.255 0 0 0-.16-.31zM66.99 7.28a.247.247 0 1 0 .16.31c.04-.13-.03-.26-.16-.31zM67.58 8.44a.247.247 0 1 0-.15.47.247.247 0 0 0 .15-.47zM64.69 4.8a.247.247 0 1 0-.16-.31c-.04.13.03.26.16.31zM64.91 5.43a.247.247 0 1 0-.15.47.247.247 0 0 0 .15-.47zM66.24 5.3a.247.247 0 1 0 .15-.47.247.247 0 0 0-.15.47zM66.47 5.93a.247.247 0 1 0 .16.31c.03-.13-.04-.27-.16-.31zM63.05 7.18a.247.247 0 1 0 .16.31c.04-.13-.03-.26-.16-.31zM64.7 7.72a.247.247 0 1 0-.15.47.247.247 0 0 0 .15-.47zM66.26 8.23a.247.247 0 1 0-.15.47.247.247 0 0 0 .15-.47zM67.7 5.77a.247.247 0 1 0 .15-.47.247.247 0 0 0-.15.47zM68.08 6.71a.247.247 0 1 0-.47-.15.247.247 0 0 0 .47.15z"/><g fill="none" stroke="#000" stroke-width=".1" stroke-miterlimit="10"><path d="M45.41 1.61h9.29v4.7h-5.72l-3.57-2.86M54.7 1.61l1.53 1.74M54.08 6.31l1.53 1.84M54.7 6.21l1.53 1.83M46.63 4.37 45.3 6.51M47.04 4.67l-1.23 2.15M30.68 5.4l8.83-2.87L40.96 7l-5.43 1.76-4.28-1.61M39.51 2.53l2 1.18M40.38 7.18l2.03 1.28M40.93 6.9l2.03 1.27M32.7 7.64l-.6 2.45M33.18 7.81l-.5 2.42M17.84 13.55l7.52-5.46 2.76 3.8-4.63 3.36-4.57-.21M25.36 8.09l2.26.51M27.62 12.25l2.32.59M28.06 11.81l2.32.59M20.45 15.06l.19 2.52M20.96 15.07l.27 2.46M8.15 25.27l5.46-7.51 3.8 2.76-3.36 4.62-4.41 1.22M13.61 17.76l2.31-.22M17.05 21.02l2.39-.16M17.33 20.46l2.39-.16M11.1 25.9l.96 2.34M11.59 25.75 12.61 28M2.56 39.42l2.87-8.84 4.47 1.45-1.77 5.44-3.82 2.51M5.43 30.58l2.13-.92M9.71 32.62l2.22-.89M9.8 32l2.22-.89M5.56 39.1l1.63 1.93M5.98 38.81l1.66 1.83M1.61 54.59V45.3h4.7v5.72l-2.86 3.57M1.61 45.3l1.74-1.53M6.31 45.92l1.84-1.53M6.21 45.3l1.83-1.53M4.37 53.37l2.14 1.33M4.67 52.96l2.15 1.23M5.4 69.32l-2.87-8.83L7 59.04l1.76 5.43-1.61 4.28M2.53 60.49l1.18-2M7.18 59.62l1.28-2.03M6.9 59.07l1.27-2.03M7.64 67.3l2.45.6M7.81 66.82l2.42.5M13.55 82.16l-5.46-7.52 3.8-2.76 3.36 4.63-.21 4.57M8.09 74.64l.51-2.26M12.25 72.38l.59-2.32M11.81 71.94l.59-2.32M15.06 79.55l2.52-.19M15.07 79.04l2.46-.27M25.27 91.85l-7.51-5.46 2.76-3.8 4.62 3.36 1.22 4.41M17.76 86.39l-.22-2.31M21.02 82.95l-.16-2.39M20.46 82.67l-.16-2.39M25.9 88.9l2.34-.96M25.75 88.41 28 87.39M39.42 97.44l-8.84-2.87 1.45-4.47 5.44 1.77 2.51 3.82M30.58 94.57l-.92-2.13M32.62 90.29l-.89-2.22M32 90.2l-.89-2.22M39.1 94.44l1.93-1.63M38.81 94.02l1.83-1.66M54.59 98.39H45.3v-4.7h5.72l3.57 2.86M45.3 98.39l-1.53-1.74M45.92 93.69l-1.53-1.84M45.3 93.79l-1.53-1.83M53.37 95.63l1.33-2.14M52.96 95.32l1.23-2.14M69.32 94.6l-8.83 2.87L59.04 93l5.43-1.76 4.28 1.61M60.49 97.47l-2-1.18M59.62 92.82l-2.03-1.28M59.07 93.1l-2.03-1.27M67.3 92.36l.6-2.45M66.82 92.19l.5-2.42M82.16 86.45l-7.52 5.46-2.76-3.8 4.63-3.36 4.57.21M74.64 91.91l-2.26-.51M72.38 87.75l-2.32-.59M71.94 88.19l-2.32-.59M79.55 84.94l-.19-2.52M79.04 84.93l-.27-2.46M91.85 74.73l-5.46 7.51-3.8-2.76 3.36-4.62 4.41-1.22M86.39 82.24l-2.31.22M82.95 78.98l-2.39.16M82.67 79.54l-2.39.16M88.9 74.1l-.96-2.34M88.41 74.25 87.39 72M97.44 60.58l-2.87 8.84-4.47-1.45 1.77-5.44 3.82-2.51M94.57 69.42l-2.13.92M90.29 67.38l-2.22.89M90.2 68l-2.22.89M94.44 60.9l-1.63-1.93M94.02 61.19l-1.66-1.83M98.39 45.41v9.29h-4.7v-5.72l2.86-3.57M98.39 54.7l-1.74 1.53M93.69 54.08l-1.84 1.53M93.79 54.7l-1.83 1.53M95.63 46.63l-2.14-1.33M95.32 47.04l-2.14-1.23M94.6 30.68l2.87 8.83L93 40.96l-1.76-5.43 1.61-4.28M97.47 39.51l-1.18 2M92.82 40.38l-1.28 2.03M93.1 40.93l-1.27 2.03M92.36 32.7l-2.45-.6M92.19 33.18l-2.42-.5M86.45 17.84l5.46 7.52-3.8 2.76-3.36-4.63.21-4.57M91.91 25.36l-.51 2.26M87.75 27.62l-.59 2.32M88.19 28.06l-.59 2.32M84.94 20.45l-2.52.19M84.93 20.96l-2.46.27M74.73 8.15l7.51 5.46-2.76 3.8-4.62-3.36-1.22-4.41M82.24 13.61l.22 2.31M78.98 17.05l.16 2.39M79.54 17.33l.16 2.39M74.1 11.1l-2.34.96M74.25 11.59 72 12.61M60.58 2.56l8.84 2.87-1.45 4.47-5.44-1.77-2.51-3.82M69.42 5.43l.92 2.13M67.38 9.71l.89 2.22M68 9.8l.89 2.22M60.9 5.56l-1.93 1.63M61.19 5.98l-1.83 1.66"/></g><path d="M45.41 1.41h-1.25c-.04-.03-.08-.05-.11-.07l.13-.34-.16.32c-.05-.03-.11-.05-.17-.07l.13-.25-.18.24a.85.85 0 0 0-.22-.04c-.51 0-.92.37-.92.82s.41.82.92.82c.15 0 .29-.04.41-.1l1.42.91V1.41zM30.62 5.21l-1.19.39-.13-.03.02-.37-.05.36c-.06-.01-.12-.02-.18-.01l.04-.28-.1.29c-.08.01-.15.01-.23.03-.48.16-.76.63-.62 1.06.14.43.64.65 1.13.49.14-.05.26-.13.36-.22l1.64.43-.69-2.14zM17.72 13.39l-1.01.73c-.04 0-.09.01-.13.01l-.09-.35.06.36c-.06.01-.12.02-.18.04l-.05-.28v.31c-.07.03-.14.05-.21.1-.41.3-.53.84-.26 1.2s.81.42 1.22.12c.12-.09.21-.2.28-.32l1.69-.1-1.32-1.82zM7.99 25.15l-.73 1.01c-.04.01-.08.03-.12.05l-.19-.31.17.32c-.05.03-.11.06-.16.1l-.13-.25.09.29c-.06.05-.12.09-.16.16-.3.41-.24.96.12 1.22s.9.15 1.2-.26c.09-.12.14-.26.16-.39l1.58-.61-1.83-1.33zM2.37 39.35l-.39 1.19c-.04.03-.07.06-.1.09l-.28-.24.26.25c-.04.04-.08.09-.12.14l-.2-.2.18.25c-.04.06-.08.13-.11.2-.16.48.06.99.49 1.13s.9-.14 1.06-.62c.05-.14.05-.29.03-.42l1.31-1.07-2.13-.7zM1.41 54.59v1.25c-.03.04-.05.08-.07.11L1 55.82l.32.16c-.03.05-.05.11-.07.17L1 56.02l.24.18a.85.85 0 0 0-.04.22c0 .51.37.92.82.92s.82-.41.82-.92a.92.92 0 0 0-.1-.41l.91-1.42H1.41zM5.21 69.38l.39 1.19-.03.13-.37-.02.36.05c-.01.06-.02.12-.01.18l-.28-.04.29.1c.01.08.01.15.03.23.16.48.63.76 1.06.62.43-.14.65-.64.49-1.13-.05-.14-.13-.26-.22-.36l.43-1.64-2.14.69zM13.39 82.28l.73 1.01c0 .04.01.09.01.13l-.35.09.36-.06c.01.06.02.12.04.18l-.28.05h.31c.03.07.05.14.1.21.3.41.84.53 1.2.26s.42-.81.12-1.22c-.09-.12-.2-.21-.32-.28l-.1-1.69-1.82 1.32zM25.15 92.01l1.01.73c.01.04.03.08.05.12l-.31.19.32-.17c.03.05.06.11.1.16l-.25.13.29-.09c.05.06.09.12.16.16.41.3.96.24 1.22-.12s.15-.9-.26-1.2a.876.876 0 0 0-.39-.16l-.61-1.58-1.33 1.83zM39.35 97.63l1.19.39c.03.04.06.07.09.1l-.23.28.25-.26c.04.04.09.08.14.12l-.2.2.25-.18c.06.04.13.08.2.11.48.16.99-.06 1.13-.49s-.14-.9-.62-1.06a.868.868 0 0 0-.42-.03l-1.07-1.31-.71 2.13zM54.59 98.59h1.25c.04.03.08.05.11.07l-.13.34.16-.32c.05.03.11.05.17.07l-.13.25.18-.24c.07.02.15.04.22.04.51 0 .92-.37.92-.82 0-.45-.41-.82-.92-.82a.92.92 0 0 0-.41.1l-1.42-.91v2.24zM69.38 94.79l1.19-.39.13.03-.02.37.05-.36c.06.01.12.02.18.01l-.04.28.1-.29c.08-.01.15-.01.23-.03.48-.16.76-.63.62-1.06-.14-.43-.64-.65-1.13-.49-.14.05-.26.13-.36.22l-1.64-.43.69 2.14zM82.28 86.61l1.01-.73c.04 0 .09-.01.13-.01l.09.35-.06-.36c.06-.01.12-.02.18-.04l.05.28v-.31c.07-.03.14-.05.21-.1.41-.3.53-.84.26-1.2s-.81-.42-1.22-.12c-.12.09-.21.2-.28.32l-1.69.1 1.32 1.82zM92.01 74.85l.73-1.01c.04-.01.08-.03.12-.05l.19.31-.17-.32c.05-.03.11-.06.16-.1l.13.25-.09-.29c.06-.05.12-.09.16-.16.3-.41.24-.96-.12-1.22s-.9-.15-1.2.26c-.09.12-.14.26-.16.39l-1.58.61 1.83 1.33zM97.63 60.65l.39-1.19c.04-.03.07-.06.1-.09l.28.23-.26-.25c.04-.04.08-.09.12-.14l.2.2-.18-.25c.04-.06.08-.13.11-.2.16-.48-.06-.99-.49-1.13s-.9.14-1.06.62c-.05.14-.05.29-.03.42l-1.31 1.07 2.13.71zM98.59 45.41v-1.25c.03-.04.05-.08.07-.11l.34.13-.32-.16c.03-.05.05-.11.07-.17l.25.13-.24-.18a.85.85 0 0 0 .04-.22c0-.51-.37-.92-.82-.92-.45 0-.82.41-.82.92 0 .15.04.29.1.41l-.91 1.42h2.24zM94.79 30.62l-.39-1.19.03-.13.37.02-.36-.05c.01-.06.02-.12.01-.18l.28.04-.29-.1c-.01-.08-.01-.15-.03-.23-.16-.48-.63-.76-1.06-.62-.43.14-.65.64-.49 1.13.05.14.13.26.22.36l-.43 1.64 2.14-.69zM86.61 17.72l-.73-1.01c0-.04-.01-.09-.01-.13l.35-.09-.36.06c-.01-.06-.02-.12-.04-.18l.28-.05h-.31c-.03-.07-.05-.14-.1-.21-.3-.41-.84-.53-1.2-.26s-.42.81-.12 1.22c.09.12.2.21.32.28l.1 1.69 1.82-1.32zM74.85 7.99l-1.01-.73a.612.612 0 0 0-.05-.12l.31-.19-.33.15c-.03-.05-.06-.11-.1-.16l.25-.13-.29.09c-.05-.06-.09-.12-.16-.16-.41-.3-.96-.24-1.22.12s-.15.9.26 1.2c.12.09.26.14.39.16l.61 1.58 1.34-1.81zM60.65 2.37l-1.19-.39a.902.902 0 0 0-.09-.1l.23-.28-.25.26c-.04-.04-.09-.08-.14-.12l.2-.2-.25.18c-.06-.04-.13-.08-.2-.11-.48-.16-.99.06-1.13.49s.14.9.62 1.06c.14.05.29.05.42.03l1.07 1.31.71-2.13z"/></svg>