<svg version="1.1" id="Layer_1" xmlns="http://www.w3.org/2000/svg" x="0" y="0" viewBox="0 0 100 16.6" xml:space="preserve"><path opacity=".6" d="M2.942.439c.028 0 .054.007.075.019l.007.001a.5.5 0 0 1 .34.195.445.445 0 0 1 .072.389v.01a.449.449 0 0 1-.175.267.484.484 0 0 1-.299.113.117.117 0 0 1-.031-.006.173.173 0 0 0-.031-.005.315.315 0 0 0-.064-.008c-.487.016-.881.149-1.183.398a1.28 1.28 0 0 0-.474 1.025c0 .273.089.516.268.727.172.198.439.369.804.512.192.082.395.144.608.185.062.013.122.027.18.041.059.013.107.024.144.03.038.007.06.01.067.01l.547.123c1.539.431 2.308 1.212 2.308 2.347 0 .464-.123.881-.371 1.25a2.455 2.455 0 0 1-1.031.861c-.446.205-.958.307-1.535.307h-.062a.536.536 0 0 0-.123-.01.47.47 0 0 1-.299-.133.508.508 0 0 1-.165-.267v-.01a.2.2 0 0 0-.005-.041.14.14 0 0 1-.006-.041.474.474 0 0 1 .495-.481h.021c.087 0 .154.004.201.01.569-.007 1.027-.144 1.375-.41.343-.26.516-.605.516-1.035 0-.321-.09-.574-.268-.758a1.812 1.812 0 0 0-.701-.451c-.227-.089-.597-.191-1.113-.308-.845-.185-1.529-.454-2.051-.81C.461 4.131.2 3.588.2 2.857c0-.464.113-.881.34-1.25.227-.369.546-.656.959-.861A3.082 3.082 0 0 1 2.723.445a.456.456 0 0 1 .075-.006h.021l.032.001h.004l.087-.001zM4.91 1.187c.144 0 .261.051.351.154.034.034.079.085.134.153a.47.47 0 0 1 .103.379.504.504 0 0 1-.206.328l-.01.01a.496.496 0 0 1-.269.072.455.455 0 0 1-.382-.174.478.478 0 0 1-.041-.051.1.1 0 0 0-.041-.041.46.46 0 0 1-.134-.339c0-.089.027-.177.083-.266v-.01c.089-.143.226-.215.412-.215zM.767 7.242a.44.44 0 0 1 .35.154c.069.069.117.12.144.154a.46.46 0 0 1 .093.369.504.504 0 0 1-.206.328l-.01.01a.504.504 0 0 1-.268.082.433.433 0 0 1-.371-.185.243.243 0 0 0-.041-.051l-.041-.041a.442.442 0 0 1-.134-.328c0-.096.027-.188.082-.277a.458.458 0 0 1 .402-.215zM13.989.398c.261 0 .44.12.536.359l3.081 7.726a.706.706 0 0 1 .041.215.559.559 0 0 1-.175.41.55.55 0 0 1-.731.066.584.584 0 0 1-.216-.261l-.69-1.762-.474-1.189h.01l-1.072-2.756c-.096-.246-.201-.37-.314-.374h-.005c-.112 0-.215.121-.31.364l-1.082 2.767-.443 1.127-.732 1.824a.552.552 0 0 1-.216.256.573.573 0 0 1-.319.102.555.555 0 0 1-.407-.169.553.553 0 0 1-.129-.61L13.454.757c.095-.24.273-.359.535-.359z"/><path d="M22.387.346h-.031a.495.495 0 0 0-.361.154.49.49 0 0 0-.155.359V8.81c0 .137.052.256.155.359a.497.497 0 0 0 .722 0 .49.49 0 0 0 .155-.359l.021-7.951A.502.502 0 0 0 22.744.5a.485.485 0 0 0-.357-.154zM28.055.346h-.021a.495.495 0 0 0-.361.154.49.49 0 0 0-.155.359v6.325l-2.67-3.84a.477.477 0 0 0-.423-.215.52.52 0 0 0-.299.092c-.137.089-.206.229-.206.42 0 .109.031.208.093.297l3.588 5.149a.522.522 0 0 0 .189.172.485.485 0 0 0 .243.064.478.478 0 0 0 .356-.154.496.496 0 0 0 .149-.359l.031-7.951A.492.492 0 0 0 28.414.5a.49.49 0 0 0-.359-.154zM36.98.756a.532.532 0 0 0-.536-.359c-.261 0-.44.12-.536.359l-3.112 7.736a.553.553 0 0 0 .129.61.555.555 0 0 0 .407.169.57.57 0 0 0 .319-.102.552.552 0 0 0 .216-.256l.732-1.824.443-1.127 1.082-2.767c.096-.246.201-.367.314-.364.113.004.218.128.314.374l1.072 2.756h-.01l.474 1.189.69 1.762c.041.102.113.19.216.261a.552.552 0 0 0 .731-.066.559.559 0 0 0 .175-.41.706.706 0 0 0-.041-.215L36.98.756zM50.778 1.525c.192.137.316.225.371.266.11.096.239.137.386.123a.537.537 0 0 0 .366-.184v-.01a.664.664 0 0 0 .155-.42v-.062a.625.625 0 0 0-.227-.42 3.872 3.872 0 0 0-.495-.348.543.543 0 0 0-.268-.082.528.528 0 0 0-.237.061.565.565 0 0 0-.33.492c-.02.259.073.454.279.584zM51.67 7.145a.546.546 0 0 0-.397.128c-.673.54-1.45.809-2.329.809-.996 0-1.79-.318-2.381-.953-.591-.635-.886-1.486-.886-2.551 0-.519.075-.994.227-1.424a.745.745 0 0 0-.237-.84.578.578 0 0 0-.371-.123c-.048 0-.1.007-.155.021a.62.62 0 0 0-.443.379 4.871 4.871 0 0 0-.402 1.967c0 1.346.441 2.468 1.324 3.366.883.898 1.984 1.347 3.303 1.347 1.175 0 2.202-.355 3.081-1.066a.601.601 0 0 0 .216-.461.554.554 0 0 0-.165-.41.569.569 0 0 0-.385-.189zM56.92 3.554c-.254 0-.402.019-.443.056-.041.038-.062.183-.062.435v4.713c0 .253.021.4.062.441.041.041.189.061.443.061s.402-.02.443-.061c.041-.041.062-.188.062-.441V4.045c0-.253-.021-.398-.062-.435-.041-.037-.189-.056-.443-.056zM56.92.408c-.254 0-.402.021-.443.061-.041.041-.062.188-.062.441v.902c0 .253.021.398.062.435.041.038.189.056.443.056s.402-.019.443-.056c.041-.037.062-.183.062-.435V.91c0-.253-.021-.4-.062-.441-.041-.041-.189-.061-.443-.061zM67.565.961a4.437 4.437 0 0 0-2.267-.605c-.811 0-1.563.202-2.257.605a4.454 4.454 0 0 0-1.639 1.629 4.356 4.356 0 0 0-.608 2.244 4.3 4.3 0 0 0 .618 2.244c.419.697.965 1.24 1.639 1.629a4.4 4.4 0 0 0 2.247.605c.811 0 1.563-.202 2.257-.605a4.526 4.526 0 0 0 1.649-1.629 4.3 4.3 0 0 0 .618-2.244c0-.806-.203-1.554-.608-2.244A4.423 4.423 0 0 0 67.565.961zm.763 5.615a3.57 3.57 0 0 1-.567.707 3.665 3.665 0 0 1-.711.564 3.369 3.369 0 0 1-1.752.471h-.01c-.241 0-.536-.048-.886-.143-.357-.096-.636-.205-.835-.328-.213-.116-.45-.304-.711-.564a3.606 3.606 0 0 1-.567-.707 3.424 3.424 0 0 1-.474-1.742c0-.628.155-1.209.464-1.742.117-.212.306-.447.567-.707.233-.232.467-.42.701-.564a3.479 3.479 0 0 1 1.752-.471c.646 0 1.233.157 1.762.471.22.13.453.318.701.564.24.239.429.475.567.707a3.426 3.426 0 0 1-.001 3.484zM74.171.582a.522.522 0 0 0-.189-.172.485.485 0 0 0-.243-.064.478.478 0 0 0-.356.154.496.496 0 0 0-.149.359l-.032 7.951c0 .137.052.256.155.359a.497.497 0 0 0 .361.154h.021a.495.495 0 0 0 .361-.154.49.49 0 0 0 .155-.359V2.589l2.749 4.263a.477.477 0 0 0 .423.215.52.52 0 0 0 .299-.092c.137-.089.206-.229.206-.42a.508.508 0 0 0-.093-.297L74.171.582zM79.416.346a.494.494 0 0 0-.361.154.49.49 0 0 0-.155.359l-.02 7.951c0 .137.05.256.149.359.1.102.218.154.356.154h.031a.495.495 0 0 0 .361-.154.49.49 0 0 0 .155-.359V.859A.492.492 0 0 0 79.777.5a.497.497 0 0 0-.361-.154zM89.196 8.287h-1.35c-.247 0-.392.02-.433.061-.041.041-.062.184-.062.43s.021.389.062.43c.041.041.185.061.433.061h1.35c.247 0 .393-.02.438-.061.045-.041.067-.184.067-.43s-.022-.389-.067-.43c-.045-.04-.191-.061-.438-.061zM89.196.398h-1.35c-.247 0-.392.02-.433.061-.041.041-.062.184-.062.43s.021.389.062.43c.041.041.185.061.433.061h1.35c.247 0 .393-.021.438-.061.045-.041.067-.184.067-.43s-.022-.389-.067-.43c-.045-.041-.191-.061-.438-.061zM88.65 5.07a.474.474 0 0 0 .144-.348v-.01a.45.45 0 0 0-.149-.343.507.507 0 0 0-.356-.138H85.28V.971a.543.543 0 0 0-.175-.405.573.573 0 0 0-.412-.169.555.555 0 0 0-.407.169.553.553 0 0 0-.17.405v7.726c0 .157.057.292.17.405a.555.555 0 0 0 .407.169.573.573 0 0 0 .412-.169.543.543 0 0 0 .175-.405V5.214h3.019a.48.48 0 0 0 .351-.144zM98.285 2.058c.014.02.027.038.041.051a.452.452 0 0 0 .381.174.49.49 0 0 0 .268-.072l.01-.01a.504.504 0 0 0 .206-.328.468.468 0 0 0-.103-.379 2.34 2.34 0 0 0-.134-.154.443.443 0 0 0-.35-.154.452.452 0 0 0-.412.215v.01a.51.51 0 0 0-.082.268c0 .137.045.249.134.338.014.007.027.02.041.041zM94.812 7.396a.443.443 0 0 0-.35-.154.458.458 0 0 0-.402.215.518.518 0 0 0-.082.277c0 .13.045.239.134.328l.041.041a.236.236 0 0 1 .041.051.432.432 0 0 0 .371.184.507.507 0 0 0 .268-.082l.01-.01a.5.5 0 0 0 .206-.328.457.457 0 0 0-.093-.369 2.148 2.148 0 0 0-.144-.153zM97.492 4.466l-.546-.123a2.715 2.715 0 0 1-.211-.041l-.18-.041a2.976 2.976 0 0 1-.608-.184c-.364-.143-.632-.314-.804-.512a1.094 1.094 0 0 1-.268-.727c0-.417.158-.758.474-1.025.301-.249.696-.381 1.183-.398a.425.425 0 0 1 .064.008c.007 0 .017.002.031.005a.113.113 0 0 0 .031.005.476.476 0 0 0 .299-.113.445.445 0 0 0 .175-.266v-.01a.452.452 0 0 0-.072-.389.498.498 0 0 0-.34-.195l-.008-.001a.14.14 0 0 0-.074-.019l-.08.002-.043-.002h-.021a.44.44 0 0 0-.073.006c-.46.024-.868.124-1.225.302a2.29 2.29 0 0 0-.958.861c-.227.369-.34.786-.34 1.25 0 .731.261 1.274.783 1.629s1.206.625 2.051.809c.515.116.886.219 1.113.307.289.109.522.26.701.451.179.184.268.437.268.758 0 .43-.172.775-.515 1.035-.348.266-.807.402-1.377.409a1.662 1.662 0 0 0-.2-.01h-.021a.474.474 0 0 0-.494.481c0 .014.002.027.005.041a.192.192 0 0 1 .005.041v.01a.512.512 0 0 0 .165.266.466.466 0 0 0 .299.133c.055 0 .096.003.124.01h.062c.577 0 1.089-.102 1.535-.307.44-.205.783-.492 1.031-.861.247-.369.371-.785.371-1.25-.004-1.133-.774-1.915-2.312-2.345zM15.59 13.396v.507c-.248-.207-.504-.311-.768-.311a.98.98 0 0 0-.737.314 1.059 1.059 0 0 0-.301.765c0 .298.1.549.301.754a.994.994 0 0 0 .739.307.904.904 0 0 0 .384-.074c.059-.025.12-.058.183-.099.063-.042.13-.092.199-.151v.516a1.55 1.55 0 0 1-.772.208c-.406 0-.752-.142-1.038-.425a1.405 1.405 0 0 1-.428-1.033c0-.361.119-.684.358-.967.294-.347.675-.52 1.141-.52.255.001.501.07.739.209zM18.994 15.392H17.78l-.316.689h-.461l1.404-3.016 1.355 3.016h-.469l-.299-.689zm-.174-.403-.421-.965-.441.965h.862zM21.145 16.081l.597-3.051.974 2.205 1.009-2.205.537 3.051h-.439l-.274-1.713-.84 1.843-.816-1.845-.305 1.715h-.443zM26.421 13.243v2.838h-.428v-2.838h.428zM28.232 16.081V13.05l2.069 2.165v-1.972h.428v3.01l-2.069-2.16v1.987h-.428zM32.423 14.649c0-.399.146-.743.439-1.029.292-.287.642-.43 1.051-.43.404 0 .751.145 1.04.434.29.289.436.637.436 1.042 0 .408-.146.754-.437 1.038a1.465 1.465 0 0 1-1.06.428c-.366 0-.695-.127-.987-.38-.321-.281-.482-.648-.482-1.103zm.432.006c0 .314.105.572.316.774.21.202.451.303.726.303.298 0 .549-.103.754-.309.205-.208.307-.462.307-.761a1.04 1.04 0 0 0-.303-.761 1.001 1.001 0 0 0-.746-.309 1.01 1.01 0 0 0-.748.309 1.023 1.023 0 0 0-.306.754zM38.662 13.666l-.347.206a.602.602 0 0 0-.186-.221.433.433 0 0 0-.237-.059.44.44 0 0 0-.296.101.315.315 0 0 0-.118.25c0 .138.103.25.309.334l.283.116c.23.093.399.207.505.341.107.134.16.299.16.493a.867.867 0 0 1-.261.647.894.894 0 0 1-.652.257.871.871 0 0 1-.61-.219c-.158-.146-.257-.351-.296-.616l.434-.096c.02.167.054.282.103.346a.445.445 0 0 0 .386.184.45.45 0 0 0 .333-.134.464.464 0 0 0 .132-.34.49.49 0 0 0-.023-.152.375.375 0 0 0-.072-.127.524.524 0 0 0-.126-.108 1.12 1.12 0 0 0-.184-.096l-.274-.114c-.388-.164-.583-.404-.583-.72 0-.213.081-.391.244-.535a.882.882 0 0 1 .608-.217c.328.001.584.16.768.479zM42.671 16.081v-2.838h.595c.285 0 .511.028.676.085.178.055.339.149.483.281.293.267.439.618.439 1.053 0 .436-.153.789-.458 1.059a1.322 1.322 0 0 1-.482.281c-.157.053-.379.079-.667.079h-.586zm.429-.403h.193c.192 0 .352-.02.48-.061a.97.97 0 0 0 .662-.956c0-.311-.104-.564-.312-.757-.187-.173-.464-.259-.829-.259H43.1v2.033zM48.099 13.646h-1.138v.682h1.105v.403h-1.105v.948h1.138v.403h-1.566v-2.838h1.566v.402zM53.043 14.871l.879 1.209h-.524l-.811-1.162h-.077v1.162h-.428v-2.838h.502c.375 0 .646.07.812.211a.776.776 0 0 1 .276.621.805.805 0 0 1-.173.518.758.758 0 0 1-.456.279zm-.533-.325h.136c.406 0 .608-.155.608-.465 0-.29-.197-.436-.592-.436h-.152v.901zM57.043 13.646h-1.138v.682h1.105v.403h-1.105v.948h1.138v.403h-1.566v-2.838h1.566v.402zM60.339 13.666l-.347.206a.602.602 0 0 0-.186-.221.433.433 0 0 0-.237-.059.44.44 0 0 0-.296.101.315.315 0 0 0-.118.25c0 .138.103.25.309.334l.283.116c.23.093.399.207.505.341.107.134.16.299.16.493a.867.867 0 0 1-.261.647.894.894 0 0 1-.652.257.871.871 0 0 1-.61-.219c-.158-.146-.257-.351-.296-.616l.434-.096c.02.167.054.282.103.346a.445.445 0 0 0 .386.184.45.45 0 0 0 .333-.134.464.464 0 0 0 .132-.34.49.49 0 0 0-.023-.152.375.375 0 0 0-.072-.127.524.524 0 0 0-.126-.108 1.12 1.12 0 0 0-.184-.096l-.274-.114c-.388-.164-.583-.404-.583-.72 0-.213.081-.391.244-.535a.882.882 0 0 1 .608-.217c.329.001.584.16.768.479zM62.486 13.243v2.838h-.428v-2.838h.428zM65.902 13.666l-.347.206a.602.602 0 0 0-.186-.221.433.433 0 0 0-.237-.059.44.44 0 0 0-.296.101.315.315 0 0 0-.118.25c0 .138.103.25.309.334l.283.116c.23.093.399.207.505.341.107.134.16.299.16.493a.867.867 0 0 1-.261.647.894.894 0 0 1-.652.257.871.871 0 0 1-.61-.219c-.158-.146-.257-.351-.296-.616l.434-.096c.02.167.054.282.103.346a.445.445 0 0 0 .386.184.45.45 0 0 0 .333-.134.464.464 0 0 0 .132-.34.49.49 0 0 0-.023-.152.375.375 0 0 0-.072-.127.524.524 0 0 0-.126-.108 1.12 1.12 0 0 0-.184-.096l-.274-.114c-.388-.164-.583-.404-.583-.72 0-.213.081-.391.244-.535a.882.882 0 0 1 .608-.217c.329.001.584.16.768.479zM68.457 13.646v2.435h-.428v-2.435h-.652v-.403h1.731v.403h-.651zM72.185 13.646h-1.138v.682h1.105v.403h-1.105v.948h1.138v.403h-1.566v-2.838h1.566v.402zM73.877 16.081V13.05l2.069 2.165v-1.972h.428v3.01l-2.069-2.16v1.987h-.428zM80.306 13.396v.507c-.248-.207-.504-.311-.768-.311a.98.98 0 0 0-.737.314 1.062 1.062 0 0 0-.301.765c0 .298.1.549.301.754a.994.994 0 0 0 .739.307.904.904 0 0 0 .384-.074c.059-.025.12-.058.183-.099.063-.042.13-.092.199-.151v.516a1.55 1.55 0 0 1-.772.208c-.406 0-.752-.142-1.038-.425a1.409 1.409 0 0 1-.428-1.033c0-.361.119-.684.358-.967.294-.347.675-.52 1.141-.52.255.001.502.07.739.209zM82.404 13.243v2.838h-.428v-2.838h.428zM85.882 15.392h-1.215l-.316.689h-.461l1.404-3.016 1.355 3.016h-.469l-.298-.689zm-.174-.403-.421-.965-.441.965h.862z"/></svg>