<svg version="1.1" id="Layer_2" xmlns="http://www.w3.org/2000/svg" x="0" y="0" viewBox="0 0 1600 1599" xml:space="preserve"><g fill="none" stroke="#000" stroke-width="2" stroke-linecap="round" stroke-linejoin="round" stroke-miterlimit="10"><path d="M268.4 1601.3c-.4-15.8-4.8-65.2-18.5-89.3-16.7-29.2-45.8-45-45-67.5.8-22.5 48.3-60.8 54.2-80.9 5.8-20 62.5-134.2 70.9-142.5 8.3-8.3 39.2-23.3 55.8-45 16.7-21.7 63.3-49.2 90.9-65.8s97.5-40 120-75 48.3-92.5 50-100c1.7-7.5 16.7-45 5.8-48.3-10.8-3.3-40 40-65 59.2-25 19.2-43.3 40-75 47.5-31.7 7.5-65.8 11.7-80.9 16.7-15 5-58.3 15-77.5 16.7-19.2 1.7-70 5.8-83.4 2.5s-26.7-10-45-5.8-70.9 40.8-104.2 50.8c-30.6 9.2-96.1 33.9-123.6 41"/><path d="M763.8 1602.8c-10.6-11.2-24.5-22.6-28.6-34-7.3-20.8 2.2-46.9 41-50.6s60 0 62.5-11.3-15-41.3-36.3-48.8c-21.3-7.5-37.5-31.3-80-36.3s-57.5-6.3-76.3-3.8-73.8 22.5-92.5 15-65-28.8-63.8-46.3c1.3-17.5 16.3-31.3 8.8-42.5-7.5-11.3-27.5-36.3-35-38.8s-30-7.5-32.5-22.5 8.8-60 53.8-92.5 116.3-72.5 140-95c23.8-22.5 106.3-111.3 97.5-192.5-8.8-81.3-30-96.3-27.5-141.3 2.5-45 46.3-105 48.8-122.5s6.3-52.5 11.3-73.8c5-21.3 17.5-53.8 15-62.5-2.5-8.8-12.5-41.3-8.8-56.3 3.8-15 60-57.5 52.5-73.8-7.5-16.3-62.5-36.3-76.3-50-13.8-13.8-40-41.3-40-63.8s10-40 1.3-51.3c-8.8-11.3-30-33.8-8.8-65s40-25 60-28.8c20-3.8 37.5 1.3 41.3-12.5s0-22.5-1.3-42.5 2.5-21.3-5-32.5c-4.4-6.6-17.5-20.2-26.4-29.1"/><path d="M-1.6 1069.4c22.4-7.1 69.3-29.8 88.1-39.2 25-12.5 62.2-26.2 70.9-51.7 11.7-34.2-22.5-57.5-12.5-73.4s72.5-35 83.4-20S224.8 941 249 966c24.2 25 50.8 28.3 70.9 29.2 17.8.7 80.9-12.1 93.4-12.9 12.5-.8 79.2-14.6 94.2-23.8 15-9.2 70.9-55 82.5-67.5 11.7-12.5 29.6-40.8 18.8-55-10.8-14.2-37-22.4-68.8-18.8-32.9 3.8-39.2-6.3-83.4-4.6s-73.4-1.7-99.2 5c-25.8 6.7-71.7 28.3-75 18.3-3.3-10 67.1-60.4 62.5-87.5-7.9-47.1-67.5-50-65-65s24.2-35 40-27.5 40.8 29.2 69.2 31.7c28.3 2.5 44.2-20 64.2-26.7s57.5-5.8 88.4 2.5 123.4 15 125-22.5c1.7-37.5-73.4-55-84.2-74.2s-11.7-31.7-23.3-44.2c-11.7-12.5-44.2-31.7-55.8-40-11.7-8.3-42.5-39.2-60.8-20.8-18.3 18.3 8.3 59.2 5 75.9-3.3 16.7-14.2 61.7-41.7 59.2-27.5-2.5-23.3-33.3-25-52.5-1.7-19.2-16.7-50.8-14.2-71.7 2.5-20.8 12.5-56.7-7.5-79.2s-30.8-31.7-50.8-29.2c-20 2.5-24.2 9.2-40 10s-34.2-5-50 12.5-1.7 54.2-10 64.2-30.8 8.3-42.5 22.5-14.2 34.2-25.8 36.7-40.8 9.2-44.2-2.5c-3.3-11.7 15-32.5 12.5-48.3-2.5-15.8-35.8-64.2-69.2-67.5-15.6-1.6-30.5.5-40.5 2.8"/><path d="M284.3 923.8c6.7-23.5 72.8-55.6 94.5-62.2s50-12.2 69.5-11.7c19.4.6 41.1 5 52.2 4.4 11.1-.6 61.1-6.1 63.3 6.1s-10 29.5-27.2 43.9c-17.2 14.4-41.1 32.2-61.1 39.5s-50 13.3-58.9 15c-8.9 1.7-33.3 3.9-39.5 5.6-6.1 1.7-30.6 8.3-44.5 7.8-13.9-.6-60.5-5.6-48.3-48.4zM-1.6 1039.8c11.9-3.8 27-9.7 34.2-14.3 9.4-6.1 23.3-18.9 31.7-22.8s32.8-28.9 28.9-39.5c-3.9-10.6-31.7-19.4-47.8-17.2-11 1.5-33.7 14-46.9 20.3M-1.6 780c12.4-3 20.7-7.8 36.4-17.4 20-12.2 27.2-26.7 41.7-31.1 14.4-4.4 67.2-17.2 79.5-41.1 12.2-23.9 2.8-44.5-1.7-67.2s3.9-40.6-8.3-51.1c-12.2-10.6-36.7-27.2-75-14.4-30.6 10.2-53.1 30.4-72.6 43.5M489.9 253.3c18.3 7.1 63.3-60.8 60-78.4-3.3-17.5-41.7-47.5-59.2-7.5s-8.8 82.8-.8 85.9zM-1.7 298.1c7.9-2.2 20.5-5.2 37.3-3.9 42.5 3.3 74.2 26.7 94.2 25 20-1.7 58.3-15 94.2-16.7 35.8-1.7 115 5.1 145-18.3 20.1-15.7 59.2-65.9 20-103.4s-102.5-63.3-116.7-70c-14.2-6.7-100.9-33.3-97.5-50S254 50 262.3 37.5c5.3-7.9 5.9-25.2 6-39.9M1398.9 1604.7c-10-21.1-26.6-47.3-27.1-85.2-.8-62.5 59.2-117.5 59.2-145s-9.2-38.3 10.8-87.5 59.2-89.2 69.2-109.2 15.8-35 40-46.7c14-6.7 35.7-12.9 50-16.8"/><path d="M1293.2 1602.6c.5-21.5-2.4-43.6 1-63.9 3.3-19.5 12.5-40 12.5-53.3s-4.2-54.2 6.7-79.2c10.8-25 30.8-48.3 36.7-65s9.2-47.5 20.8-67.5c11.7-20 35.8-49.2 44.2-68.3 8.3-19.2 36.7-85.9 60.8-104.2 24.2-18.3 64.2-20 83.4-22.5 11.2-1.5 29.8-6.7 41.7-10.3M1045 1333.2c-16.5-8.8-35-22.5-48.8-20s-50 2.5-56.3-8.8c-6.3-11.3-10-106.3-30-106.3s-1.3 42.5-38.8 52.5-96.3 35-113.8 13.8-21.3-51.3-22.5-72.5-17.5-41.3-8.8-57.5c8.8-16.3 42.5-27.5 48.8-40 6.3-12.5-22.5-70-20-95s21.3-88.8 13.8-111.3-53.8-76.3-42.5-141.3c11.3-65 47.5-58.8 65-86.3s28.8-40 37.5-43.8c8.8-3.8 64.5-38.3 80-23.8 40 37.5-23.8 66.3-1.3 100s60 41.3 66.3 52.5c6.3 11.3 20 50 16.3 71.3-3.8 21.3-23.8 77.5-3.8 90s25 12.5 62.5 17.5 90 26.3 95 48.8-3.8 40-1.3 51.3c2.5 11.3 18.8 30 11.3 45s-36.3 12.5-47.5 30c-11.3 17.5-10 55-16.3 71.3-6.3 16.3-18.1 63.4 6.3 81.3 33.8 24.7 38.8 0 73.8-1.3s27.5 16.3 46.3 11.3c18.8-5 52.5-8.8 65-6.3 12.5 2.5 32.5 13.8 31.3 35-1.3 21.3-21.3 60-48.8 77.5-27.5 17.5 0 45-26.3 51.3s-66.3-12.5-86.3-31.3-36.3 6.3-51.3-11.3c-14.8-17.4-36-33.6-54.8-43.6zM1601 1038.7c-10.8 3.2-26.1 9.6-40.8 7.3-21.7-3.3-35-12.5-45.8-12.5s-52.5 4.2-60.8-3.3c-8.3-7.5-39.2-40.8-56.7-48.3s-145-27.5-145-73.4 6.7-49.2 16.7-59.2 34.2-22.5 44.2-33.3 35.8-32.7 47.5-40.8c22.8-15.8 58.1-4.4 65.6-11.9 7.5-7.5 6.1-43.1 22.8-60.6 16.7-17.5 56.7-25 74.2-42.5 14.4-14.4 57.3-48.1 78.4-61.4"/><path d="M1601 964.8c-5.6 2.2-15 7.1-17.5 8.3-8.3 4-20.9 13.7-35.9 9.6-15-4.2-32.5-35-30-49.2 2.5-14.2 30.8-32.5 26.7-51.7-4.2-19.2-27.5-30.8-42.5-31.7-15-.8-60.8 1.7-59.2-33.3 1.7-35 20.8-19.2 41.7-17.5 20.8 1.7 60-10 65.8-10 4.6 0 32.4-6.1 50.8-10M1601 723.2c-12.4 7.6-27.6 19.6-40.8 22.2-19.4 3.9-75 10-78.4-10.6-3.3-20.6 56.7-27.2 68.3-43.9 10.9-15.5 24.7-37.3 50.8-50.3M1601 393.8c-14 2.7-28.4 8.2-38.6 12.1-14.4 5.6-32.8 17.2-44.5 21.1-11.7 3.9-39.5 18.9-51.7 24.5-12.2 5.6-43.3 32.8-52.2 40-8.9 7.2-31.7 22.2-39.5 29.5s-21.1 21.7-29.5 40c-8.3 18.3-17.8 35.6-27.2 50.6-9.4 15-33.9 42.2-40.6 52.2-6.7 10-14.4 45.6-26.1 56.1s-46.1 18.3-64.5 33.9c-18.3 15.6-42.2 43.3-45 63.9s8.9 33.9 5 36.7c-3.9 2.8-21.1 9.4-22.8 1.7-1.7-7.8 6.1-21.1-5.6-33.3-11.7-12.2-16.7-18.3-26.1-20.6-9.4-2.2-45-.6-47.2-15s15.6-48.9 11.7-67.8c-3.9-18.9-12.2-37.8-11.7-53.3s16.7-41.7 12.8-52.8c-3.9-11.1-15-22.8-10.6-36.1s28.9-40.6 57.8-65c28.9-24.5 88.4-83.9 100-92.8 11.7-8.9 50-43.9 58.9-63.9 8.9-20 16.1-65.6 21.1-108.9 5-43.3 21.7-90 19.4-103.4-2.2-13.3-11.7-61.1-11.7-93.4 0-17 .3-37.9.5-52.2"/><path d="M1601 297.1c-10.7 2.7-24.9 8.2-33.3 14.6-14.2 10.8-23.3 11.7-30.8 10-7.5-1.7-75.9-45-95.9-48.3-20-3.3-70.3-17.6-74.2-77.5-5.8-89.2 47.5-103.4 45-145-1.1-18.3-9-38.5-16.4-53.3M-1.6 725.4c11.4-7.2 20.8-18.1 32-28.3C49.3 679.9 64.9 669.3 66 661c1.1-8.3-5.6-38.3-19.4-38.9-10.3-.4-32.6 11.9-48.1 20.5"/></g><path fill="none" stroke="#000" stroke-width=".6" stroke-linecap="round" stroke-linejoin="round" stroke-miterlimit="10" d="M383.3 1601.3c6.4-13.1 2.6-28.3-10.1-34.3-15.8-7.5-60.8 15-73.4 4.2-12.5-10.8-22.5-26.7-30.8-54.2-8.3-27.5-16.7-54.2-13.3-65.8 3.3-11.7 53.3-62.5 59.2-87.5 5.8-25 15.8-76.7 45.8-118.4 30-41.7 70.9-95 139.2-131.7 68.3-36.7 89.2-45 110-70.9 20.8-25.8 60.8-99.2 64.2-109.2 3.3-10 7.5-48.3 3.3-64.2-4.2-15.8-8.3-31.7-15.8-32.5-7.5-.8-43.3 70-71.7 92.5s-60 50.8-95.9 58.3c-35.8 7.5-62.5 15.8-79.2 19.2-16.7 3.3-110.9 15-131.7 12.5s-47.5-17.5-64.2-15.8c-16.7 1.7-32.5 22.5-56.7 35-20.1 10.4-125.6 55.3-163.4 67.7"/><path d="M589.5 973.6c1.8 0 3.1.5 3.7 1.6 5 9.2-7.5 47.5-34.2 65-26.7 17.5-67.5 35-100 55s-100.9 75-131.7 76.7c-1.8.1-3.7.1-5.6.1-31.7 0-82.6-12.1-93.5-16-11.7-4.2-55-20-68.3-21.7-2.2-.3-4.3-.4-6.4-.4-10.9 0-21.2 3.2-30.3 4.6-2 .3-4.3.4-6.6.4-10 0-21.3-2.6-22.6-4.6-4.6-7 50.8-18.3 62.5-31.7 11.7-13.3 50.8-50 71.7-55.8 8.8-2.5 28.4-2.8 49.6-2.8 9.9 0 20 .1 29.6.1 18.7 0 35-.3 41.7-2.2 17.5-5 66.7-15 90.9-20 24.2-5 76.7-14.2 85.9-18.3 7.9-3.7 50.2-30 63.6-30m0-.6c-10.2 0-36.7 14.8-52.5 23.7-5.3 3-9.6 5.4-11.6 6.3-6.6 3-36.5 8.7-60.6 13.4-9.5 1.8-18.4 3.5-25.2 4.9l-7.4 1.5c-25.3 5.2-67.6 14-83.5 18.5-6.8 2-24 2.2-41.5 2.2h-29.6c-20.5 0-40.8.3-49.8 2.9-21 5.9-60.5 42.9-72 56-5.8 6.6-22.7 12.8-37.6 18.2-14.9 5.4-24.1 8.9-25.2 12.3-.2.7-.1 1.3.3 1.9 1.6 2.4 13.5 4.9 23.1 4.9 2.4 0 4.7-.2 6.6-.5 2.9-.4 5.8-1.1 9-1.7 6.8-1.4 13.8-2.9 21.2-2.9 2.2 0 4.3.1 6.3.4 12.2 1.5 50.5 15.3 64.9 20.4 1.3.5 2.4.9 3.4 1.2 11.2 4 62.2 16 93.7 16 2 0 3.9 0 5.7-.1 22.7-1.2 65.3-30.9 99.4-54.8 12.2-8.5 23.8-16.6 32.5-22 15.7-9.6 33.3-18.7 50.3-27.5 18.5-9.5 35.9-18.5 49.8-27.6 16-10.5 25.2-27 29.2-35.9 5.7-12.7 7.9-25 5.2-29.9-.5-1.2-1.9-1.8-4.1-1.8z"/><path fill="none" stroke="#000" stroke-width=".6" stroke-linecap="round" stroke-linejoin="round" stroke-miterlimit="10" d="M443 1600.8c-6.4-7.8-17.3-25.4-15.6-43 2.5-26.7 43.3-44.2 35-60-8.3-15.8-17.5-34.2-62.5.8s-60.8 51.7-91.7 42.5c-30.8-9.2-30.8-75-22.5-90.9 8.3-15.8 59.2-77.5 70-99.2 10.8-21.7-11.7-35 12.5-80s77.5-106.7 106.7-125.9c29.2-19.2 101.7-56.4 127.8-79.7 25.8-23.1 92.1-106.6 90.6-157.8-1.7-54.5-12.8-79.5-19.4-114.5s-.2-70.6-11.1-76.7c-5-2.8-11.9-3.1-32.8 8.6-20.8 11.7-23.3 25.8-43.3 29.2-20 3.3-55 10-54.5 18.9.6 8.9 17.8 11.1 42.8 14.4 25 3.3 62.5 18.3 63.3 36.7.8 18.3-4.2 44.2-30.8 73.4-26.7 29.2-60.8 63.3-90 74.2-29.2 10.8-44.2 15-63.3 19.2-19.2 4.2-107.5 20-125 21.7-17.5 1.7-55 0-70.9-8.3s-34.2-21.7-45.8-21.7-30 33.3-52.5 43.3c-19.1 8.5-125.1 52.9-161.3 64.8"/><path fill="none" stroke="#000" stroke-width=".6" stroke-linecap="round" stroke-linejoin="round" stroke-miterlimit="10" d="M568.4 1601.1c-7.8-4.4-20.5-15.3-20.1-24.9.8-18.3 9.2-54.2 33.3-60.8 24.2-6.7 93.4-10.8 80.9-42.5s-50-10-77.5 2.5-60 10.8-75.9-1.7c-15.8-12.5-37.5-37.5-70-33.3-32.5 4.2-93.4 76.7-115 69.2-21.7-7.5-23.3-54.2 9.2-88.4s64.2-49.2 62.5-71.7c-1.7-22.5-18.3-49.2-6.7-80 11.7-30.8 66.7-94.2 103.4-118.4s106.7-58.3 131.7-87.5c25-29.2 76.9-97.5 78.4-143.4 2.5-80.9-22.5-103.4-22.5-142.5s16.9-90 4.4-95c-12.5-5-31.1 8.3-44.5 10.8-13.3 2.5-18.3 3.3-40 11.7s-77.5 44.2-105.9 40.8c-28.3-3.3-75-35.8-90-20-15 15.8-14.2 55 8.3 60s74.2 5 80.9 6.7c6.7 1.7 30 8.3 38.3 7.5s87.5-3.3 93.4 25.8c5.8 29.2-5 50-35 80.9-30 30.8-76.7 61.7-95.9 67.5-19.2 5.8-120.9 29.2-147.5 30s-71.4 4.6-96.7-14.2c-41.7-30.8-42-70.6-56.1-64.7-14.2 5.8 1.9 10.6-6.4 43.9s-23.3 47.5-54.2 60c-22.7 9.2-104.5 44.9-134.3 53.2M233.4 1601.7c12.5-12.9 15.3-50-5.9-80-28.3-40-96.7-59.2-125-43.3-28.3 15.8-9.2 61.7-15.8 69.2-6.7 7.5-20.8-8.7-30-13.3-16.7-8.4-36.7-2.7-57.8 6.9"/><path fill="none" stroke="#000" stroke-width=".6" stroke-linecap="round" stroke-linejoin="round" stroke-miterlimit="10" d="M683.1 1600.9c-9-7-22.9-17-34-21.4-19.2-7.5-46.7-10-45.8-21.7.8-11.7 129.2-52.5 115.9-95.9s-80.9-24.2-100.9-20.8c-20 3.3-61.7 25.8-78.4 16.7-16.7-9.2-58.3-33.3-71.7-38.3s-48.3-7.5-48.3-18.3 23.3-39.2 20.8-54.2-40.8-44.2-35.8-65c5-20.8 35-75.9 82.5-110s111.7-66.7 134.2-90c22.5-23.3 93.4-97.8 91.7-177-1.4-63.9-28.3-82.1-24.5-146.1 3.1-50.3 31.1-99.5 40.3-132s27.5-98.4 21.7-122.5c-5.8-24.2-14.2-37.5-13.3-49.2.8-11.7 8.3-40.8 3.3-52.5-5-11.7-37.5-35.8-42.5-43.3s-15.8-26.7-39.2-30.8c-23.3-4.2-62.5 26.7-77.5 19.2s-22.5-40-13.3-59.2c9.2-19.2 51.7-28.3 55-50.8 3.3-22.5-14.2-41.7-30.8-40-16.7 1.7-38.3 18.3-48.3 43.3-10 25-55 90-81.7 66.7-26.7-23.3-3.3-40 .8-75.9s5-74.2 23.3-85.9c18.3-11.7 20-17.5 36.7-15 16.7 2.5 44.2 6.7 51.7 5.8 7.5-.8 30.8-8.3 50-25.8s27.5-25 45-39.2 40-17.5 44.2-35c2.4-10-18.7-26.4-35.4-39.1"/><path fill="none" stroke="#000" stroke-width=".6" stroke-linecap="round" stroke-linejoin="round" stroke-miterlimit="10" d="M-1.2 1076.1c22.6-6.5 80.4-34.5 98.2-41.2 22.2-8.3 59.5-22.2 68.9-42.2s7.8-33.3 5.6-41.7c-2.2-8.3-21.4-46.6 15.6-53.3 42.8-7.8 32.8 30.6 40.6 47.2 7.8 16.7 12.2 32.8 41.7 46.1s53.9 10.6 66.7 8.9 77.2-13.3 86.7-14.4 41.1-3.3 73.4-18.3c32.2-15 65.6-35.6 83.9-55.6s47.2-53.3 37.8-76.7c-9.4-23.3-37.8-22.2-48.3-23.9s-56.7-2.8-70-5c-13.3-2.2-92.8-2.8-98.9-5-6.1-2.2-30-5-32.8-12.8-2.8-7.8 1.7-25 1.7-33.3s-13.3-41.1-3.3-46.7c10-5.6 65 0 81.7-7.8 16.7-7.8 36.1-23.3 49.5-24.5 13.3-1.1 74.5 11.7 100 8.3 25.6-3.3 87.2-12.2 88.4-38.9 1.1-26.7-33.9-48.3-47.2-60.6-13.3-12.2-30.6-31.7-33.9-50.6-3.3-18.9-16.1-41.7-32.8-49.5-16.7-7.8-53.3-21.1-75-30-21.7-8.9-49.5-22.2-63.3-17.2-13.9 5-21.7 22.8-20 35 1.7 12.2 1.1 41.1-4.4 41.7-5.6.6-20-23.3-21.7-36.1-1.7-12.8 1.7-47.8-7.2-70-8.9-22.2-30.6-50.6-58.3-54.5-27.8-3.9-35.6 3.3-42.8 3.9-7.2.6-29.5 3.3-37.8 2.8-8.3-.6-29.5-3.3-40 12.2-10.6 15.6-6.7 40.6-10 50s-11.7 22.8-22.2 28.9-23.9 19.4-32.8 17.8c-8.9-1.7-11.1-18.3-20-30s-40.6-51.7-66.7-58.9c-18.7-5.2-40.5-.5-50.6 2.6"/><path d="M442.4 821.8c16.4 0 46.3 1.8 62.4 1.8 2.7 0 5-.1 6.8-.2 4.2-.3 15.2-.9 28.2-.9 25.9 0 59.6 2.6 61.9 15.9 3.3 20-3.3 39.2-18.3 53.3-15 14.2-47.5 52.5-85 64.2-37.5 11.7-25 10.8-43.8 14.6-18.8 3.8-51.7 8.8-66.7 10.8-14 1.9-49.6 9.3-67.2 9.3-1.3 0-2.5 0-3.6-.1-15.8-1.3-24.6-1.7-40.8-10.8-16.3-9.2-40.4-33.3-27.1-86.3 4.5-17.7 64.2-50 103.4-59.2 38.9-9.1 70.6-12.4 89.8-12.4m0-.6c-11 0-41.9 1.2-90.2 12.5-39 9.1-99.2 41.5-103.8 59.6-5.9 23.5-5.1 43.6 2.5 59.9 6.7 14.5 17.3 22.7 24.9 27 15.8 8.9 24.8 9.6 39.5 10.8l1.5.1c1.1.1 2.3.1 3.7.1 12.7 0 35-3.8 51.2-6.7 6.5-1.1 12.2-2.1 16.1-2.7 13.4-1.9 47.2-6.9 66.7-10.8 9.3-1.9 11-2.6 14.8-4.3 4-1.8 10-4.4 29.1-10.3 31.4-9.8 59.5-38.3 76.3-55.4 3.5-3.5 6.4-6.5 8.9-8.9 7.6-7.1 13-15.5 16.2-24.7 3.2-9.3 4-19.1 2.3-29.2-1-6.2-8.6-10.8-22.5-13.5-10.2-2-23.6-3-39.9-3-12.9 0-24 .6-28.2.9-1.7.1-3.9.2-6.7.2-8 0-19.6-.5-30.9-.9-11.4-.2-23.2-.7-31.5-.7z"/><path d="M451.9 828.5h1.7c19 .4 30.9 2.6 50.1 2.6 2.7 0 5.6 0 8.6-.1 9.3-.3 22.5-1.2 35.7-1.2 21.7 0 43 2.5 45.6 14.1 4.2 18.8-.8 33.8-20 50.8-19.2 17.1-56.7 47.5-77.1 56.3-20.4 8.8-67.1 21.3-74.6 21.7-7.5.4-23.8 1.3-33.8 3.3-10 2.1-41.3 8.8-56.7 9.6-1 .1-2 .1-3.1.1-16 0-42.9-5.6-51.9-12.6-9.6-7.5-36.7-35.8-15-75 9.8-17.8 48.3-31.3 62.1-38.8 13.8-7.5 47.1-20 55.4-21.7 8.3-1.6 50.8-9.1 73-9.1m0-.6c-22.3 0-65.4 7.7-73 9.2-8.2 1.6-41.8 14.2-55.6 21.7-3.2 1.7-7.7 3.8-13 6.2-17.6 8-41.7 19-49.3 32.8-9.4 17-10.8 33.8-4.3 49.9 5.9 14.6 16.4 23.5 19.4 25.9 9 7 35.9 12.7 52.3 12.7 1.1 0 2.2 0 3.2-.1 14.7-.8 44-6.9 55-9.2l1.8-.4c9.6-2 24.6-2.8 32.7-3.3l.9-.1c7.4-.4 54.4-13 74.8-21.7 11.4-4.9 27.6-16.3 39.1-25.1 12.5-9.4 26.7-21.1 38.1-31.3 18.7-16.7 24.6-31.6 20.2-51.4-2.9-13.1-27.7-14.6-46.2-14.6-9.1 0-18.1.4-26.1.8-3.5.2-6.8.3-9.6.4-2.9.1-5.8.1-8.6.1-10.3 0-18.3-.6-26.8-1.3-7.1-.6-14.5-1.2-23.4-1.3-.4.1-1 .1-1.6.1z"/><path d="M439.9 836.3c.9 0 1.7 0 2.5.1 11.5.7 27.8 2.3 43.5 2.3 3 0 6-.1 9-.2 8-.4 25-1.8 42.1-1.8 22.1 0 44.4 2.3 47.9 12.2 6.3 17.5-5.8 30.8-13.3 38.8-7.5 7.9-43.8 39.2-52.5 45.4-8.8 6.3-35.8 20-54.6 25.4-18.8 5.4-56.3 10.8-77.1 13.8-17.7 2.5-42.6 9.5-60 9.5-3.1 0-5.9-.2-8.4-.7-16.7-3.3-37.9-7.1-48.3-24.2S259 911 277.3 896c15.9-13 42.1-20.8 52.1-27.9 10-7.1 35.8-17.9 47.9-21.7 11.5-3.5 47.1-10.1 62.6-10.1m0-.6v.6-.6c-15.3 0-50.8 6.4-62.7 10.1-12.5 3.9-38.1 14.7-48.1 21.8-3.9 2.8-10.4 5.7-18 9.1-11.5 5.2-24.6 11-34.2 18.9-8.5 6.9-13.6 17.6-14.3 30.1-.7 11.1 2.1 22.6 7.5 31.6 10.2 16.8 30.7 20.9 47.2 24.1l1.6.3c2.4.5 5.3.7 8.5.7 11.2 0 25.3-2.8 38.9-5.6 7.6-1.5 14.8-3 21.1-3.9 24.6-3.4 59.3-8.6 77.2-13.8 18.6-5.4 45.6-19 54.8-25.5 9.1-6.5 45.4-37.9 52.6-45.5 7-7.4 20-21.1 13.5-39.4-3-8.5-18.9-12.6-48.5-12.6-12.7 0-25.2.8-34.4 1.3-3.1.2-5.7.3-7.8.4-2.8.1-5.8.2-9 .2-11.7 0-23.3-.8-33.7-1.6-3.5-.3-6.8-.5-9.8-.7-.6.1-1.5 0-2.4 0z"/><path d="M446.6 843.1c23.9 0 44.3 3.4 54.1 3.4 1 0 1.8 0 2.6-.1 4.2-.4 20.4-2.3 36.5-2.3s31.9 1.9 35.2 9c6.7 14.2-10.8 39.6-28.3 51.7-17.5 12.1-30.8 26.7-50 35.4-19.2 8.8-60 20.4-80 23.3-20 2.9-55 8.3-65 10.8-3.3.8-9.5 1.4-16.7 1.4-14.9 0-34.3-2.3-43.3-9.3-13.3-10.4-28.8-19.2-14.6-54.2 5.4-13.4 24.2-21.7 33.8-26.7 9.6-5 38.8-20.8 58.8-28.3 19.8-7.5 50.6-14.1 76.9-14.1m0-.6c-27.2 0-58.5 7.1-77.3 14.2-17.6 6.6-42.5 19.7-54.4 26.1-1.7.9-3.2 1.7-4.4 2.3-1 .5-2.1 1.1-3.2 1.7-10.3 5.2-25.9 13.1-30.8 25.3-13.5 33.2-.4 43.3 12.3 52.9.8.6 1.7 1.3 2.5 1.9 4.2 3.3 10.8 5.7 19.7 7.4 7.1 1.3 15.6 2 24 2 7.1 0 13.4-.5 16.9-1.4 10.3-2.6 47-8.2 65-10.8 21.1-3.1 61.5-14.9 80.2-23.4 12.4-5.7 22.2-13.6 32.5-22 5.6-4.5 11.4-9.2 17.6-13.5 8.9-6.2 17.7-15.6 23.4-25.2 6.5-10.9 8.3-20.5 5.1-27.2-2.9-6.2-14.9-9.3-35.8-9.3-14.5 0-29.4 1.6-35 2.1-.6.1-1.1.1-1.5.2-.7.1-1.6.1-2.5.1-3.8 0-9.1-.5-15.8-1.2-10.8-1-24-2.2-38.5-2.2z"/><path d="M448.5 857.6c8.1 0 15.8.5 22.5 1.7 24.5 4.4 17.2 2.2 33.3 3.3 2.1.1 4.3.2 6.6.2 5.6 0 11.7-.3 17.3-.3 9.9 0 18 .9 18.3 6.2.6 9.4-3.9 18.3-17.8 31.1s-43.3 33.9-54.5 38.3c-11.1 4.4-54.5 17.2-69.5 18.3-15 1.1-32.2 3.3-45.6 5.6-5.1 1-17.1 4-29.4 4-18.9 0-38.4-6.9-35.4-38.9 1.1-11.9 20-22.8 34.5-32.2 14.4-9.4 44.5-26.1 62.2-30.6 12.9-3.2 36.3-6.7 57.5-6.7m0-.6c-21 0-44.6 3.5-57.6 6.8-17.4 4.3-47 20.5-62.4 30.6-1.5 1-3 2-4.6 3-13.6 8.8-29.1 18.7-30.2 29.7-1.2 13 1.2 22.9 7.2 29.5 6 6.6 15.7 10 28.8 10 9.9 0 19.5-1.9 25.8-3.1 1.5-.3 2.9-.6 3.9-.7 14.7-2.5 31.8-4.5 45.5-5.6 14.9-1.1 58.6-14 69.6-18.4 11.5-4.6 41-25.9 54.6-38.5 13.4-12.3 18.6-21.4 18-31.6-.4-6-9.3-6.8-18.9-6.8-2.8 0-5.7.1-8.6.1-2.9.1-5.9.1-8.7.1-2.6 0-4.7-.1-6.6-.2-5.4-.4-8.2-.4-10.4-.4-4.4 0-6.6 0-22.9-3-6.2-.9-13.9-1.5-22.5-1.5z"/><path d="M439 863.1c5.5 0 9.9.7 14.2 1.8 13.3 3.3 23.3 5 33.3 7.2 10 2.2 31.7 2.8 33.9 10 2.2 7.2-14.4 33.9-36.7 44.5-22.2 10.6-49.5 20.6-62.2 21.7-12.8 1.1-27.8 1.7-39.5 3.9-11.2 2.1-25.4 7.8-41.7 7.8h-2.2c-17.2-.6-36.7-3.3-33.9-29.5 1.1-10.5 35.6-43.9 78.4-56.1 29-8.3 45-11.3 56.4-11.3m0-.6v.6-.6c-12.1 0-29 3.4-56.5 11.2-25.4 7.3-45.4 21.2-55 28.8-13.4 10.6-23.2 22.1-23.8 27.8-1 9 .7 16 4.9 20.9 6.5 7.5 18.1 8.9 29.6 9.3h2.2c11.4 0 21.7-2.7 30.8-5.1 3.9-1 7.6-2 11-2.7 8.5-1.6 18.7-2.3 28.5-3.1 3.8-.3 7.4-.5 10.9-.8 13.4-1.2 41.6-11.8 62.4-21.7 9.9-4.7 20-13.3 27.7-23.7 6.7-9 10.5-17.6 9.3-21.5-1.8-5.7-14-7.4-24.8-8.9-3.6-.5-7-1-9.5-1.5-3.6-.8-7.2-1.5-10.9-2.3-6.8-1.4-13.9-2.8-22.4-4.9-4.9-1.2-9.4-1.8-14.4-1.8z"/><path d="M436.9 869.9c3.1 0 6 .3 8.5 1.1 11.7 3.3 46.1 11.7 48.9 21.1 2.8 9.4-12.2 28.3-31.1 36.7-17.8 7.9-44 16.2-52.5 16.2-.5 0-1 0-1.4-.1-1.3-.2-2.8-.3-4.4-.3-6.7 0-15.5 1.5-22.3 2-7.1.5-31.8 6.2-43.5 6.2-2.1 0-3.7-.2-4.8-.6-7.2-2.8-25.6-3.3-13.3-27.2 7.5-14.7 41.1-38.9 68.3-45.6 21.3-5.3 36.4-9.5 47.6-9.5m0-.6c-9.8 0-22.2 3.1-39.5 7.4-2.6.7-5.4 1.3-8.2 2-12.6 3.1-27.8 10.3-41.8 19.9-13.2 9-23.3 18.7-27 26-4.1 8-5.2 14.1-3.2 18.6 2.3 5.3 8.4 7 13.3 8.4 1.3.4 2.6.7 3.6 1.1 1.1.4 2.8.6 5.1.6 7.3 0 19.6-2.2 29.5-4 6.1-1.1 11.3-2 14-2.2 2.7-.2 5.6-.5 8.7-.9 4.7-.5 9.5-1.1 13.5-1.1 1.7 0 3.1.1 4.3.3.4.1.9.1 1.5.1 9 0 35.7-8.7 52.8-16.3 8.9-3.9 17.6-10.5 23.9-18.1 6.1-7.4 8.9-14.6 7.5-19.3-2.6-8.7-29.9-16.2-44.6-20.2-1.8-.5-3.4-.9-4.7-1.3-2.5-.6-5.4-1-8.7-1z"/><path d="M430.7 880.7c19.2 0 38 4.3 39.7 15.9 2.8 18.9-11.1 32.8-41.7 37.2-30.6 4.4-45 2.8-55 5-4 .9-14.5 2.9-23.6 2.9-13.7 0-24.3-4.6-5.3-24.6 9.8-10.3 31.7-25.6 53.3-32.2 8.4-2.6 20.6-4.2 32.6-4.2m0-.6v.6-.6c-11.8 0-24.1 1.6-32.7 4.2-21 6.4-43.3 21.5-53.6 32.4-8.6 9-11.8 15.6-10 20 1.6 3.7 6.9 5.6 15.7 5.6 10 0 21.5-2.5 23.7-2.9 4.3-.9 9.3-1.2 16.3-1.5 9-.4 21.3-1 38.7-3.5 17.9-2.6 30.8-8.6 37.4-17.5 4.3-5.8 5.9-12.7 4.8-20.4-.8-5.6-5.4-9.9-13.7-12.8-6.8-2.4-16-3.6-26.6-3.6z"/><path d="M427.3 890.8c11.5 0 20.9 2.8 20.9 10.7 0 17.8-18.3 25-42.2 26.1-4.4.2-8.5.3-12.2.3-16.8 0-27.2-2.2-27.2-8.1 0-7.2 13.3-15 22.2-20.6 6.6-4 24.2-8.4 38.5-8.4m0-.6c-11.9 0-30.8 3.5-38.9 8.6-.6.4-1.2.7-1.8 1.1-9.2 5.7-20.7 12.9-20.7 20 0 5.9 8.8 8.7 27.8 8.7 3.7 0 7.8-.1 12.3-.3 28-1.3 42.8-10.5 42.8-26.7 0-7.3-7.6-11.4-21.5-11.4zM641.1 773.5c1.3 0 2.5.4 3.5 1.2 3.8 3.3 10.6 11.9 4.6 16.7-.3.2-.7.3-1.2.3-3.4 0-11.2-4.4-13-9.5-2-5.3 2.2-8.7 6.1-8.7m0-.6c-2.4 0-4.7 1.2-6 3.1-1.3 1.8-1.5 4.1-.7 6.5 1.9 5.3 9.8 9.9 13.5 9.9.7 0 1.2-.2 1.6-.5 1.7-1.3 2.5-3 2.6-5.1.1-4.8-4.4-10.1-7.2-12.5-1-.9-2.3-1.4-3.8-1.4z"/><path fill="none" stroke="#000" stroke-width=".6" stroke-linecap="round" stroke-linejoin="round" stroke-miterlimit="10" d="M-1.3 1064.2c11.8-4.1 35.5-13.9 46.9-19.8 15.8-8.3 86.6-35.1 99.2-66.7 16.7-41.7-42.2-76.1-38.3-84.2 9.2-19.2 96.7-15.8 116.7-31.7s26.7-34.2 36.7-44.2 66.3-43.9 61.7-67.5c-10-50.8-89.2-28.9-75.9-72.5 9.2-30 79.2-43.3 76.7-66.7s-68.3-27.5-80.9-44.2-27-69-50-76.7c-12.5-4.2-20.8 26.7-43.3 32.5s-55.8 0-71.7 2.5-36.7 8.1-37.5 3.3c-2.5-15 50-35 53.3-60 3.3-25-29.2-61.7-55.8-64.2-15.1-1.4-29 .3-37.4 1.7"/><path fill="none" stroke="#000" stroke-width=".6" stroke-linecap="round" stroke-linejoin="round" stroke-miterlimit="10" d="M-1.2 1060c10.4-2.5 29.5-11.3 34.3-14.8 9.2-6.7 43.3-20.8 61.7-32.5 18.3-11.7 45.8-30 41.7-51.7s-20.8-40-45-42.5-61.7.8-48.3-36.7 32.5-19.2 40.8-18.3c8.3.8 90.9 9.2 113.4-2.5s33.3-39.2 48.3-51.7 59.2-34.2 51.7-58.3-29.2-26.7-52.5-25.8c-20.3.7-44.2 7.5-45-1.7-1.2-12.9 15-25.8 20-43.3 5-17.5 10.8-42.5 15-50 4.2-7.5 24.2-4.2 25-11.7.8-7.5-25.8 1.7-30-5-4.2-6.7-8.3-45.8-14.2-58.3-5.8-12.5-17.5-25-30-25.8-12.5-.8-41.7 9.2-55.8 7.5-14.2-1.7-53.3-.8-73.4 4.2-13.7 3.4-41.2 21.8-57.4 34.5"/><path fill="none" stroke="#000" stroke-width=".6" stroke-linecap="round" stroke-linejoin="round" stroke-miterlimit="10" d="M-1 803.3c20.7-10.9 52.6-15.8 60.8-20.7 12.5-7.5 52.5-35.8 56.7-21.7 4.2 14.2-47.5 47.5-36.7 65s25.8 18.3 45.8 22.5 50.6 7.8 64.2 2.5c25.8-10 30-35.8 42.5-49.2 12.5-13.3 46.7-33.3 37.5-46.7-9.2-13.3-26.7-10-49.2-4.2-22.5 5.8-65 3.3-68.3-9.2-3.3-12.5 46.7-45.8 50-80.9 1.6-16.6-13.3-37.5-13.3-49.2 0-11.7 5.7-40.2-.8-50-10-15-41.7-15.8-59.2-17.5-17.5-1.7-35-5.8-52.5-2.5-13.9 2.7-52.8 26-77.6 40.1M-1.3 1054c14.4-3.7 36.1-15 46.9-22.2 17.5-11.7 85.9-37.5 75-70-10.8-32.5-34.2-33.3-52.5-35-18.3-1.7-57.5-1.7-57.5-10.8s20.8-38 18.3-55C26 841.1 11.3 837-.6 832.3"/><path fill="none" stroke="#000" stroke-width=".6" stroke-linecap="round" stroke-linejoin="round" stroke-miterlimit="10" d="M-1.3 1047.5c12.4-3.1 32.8-13.8 38.9-18.7 8.9-7.2 77.2-35.6 70.6-66.1s-45-27.2-72.8-24.5C21.5 939.6 8.1 947.6-1 952"/><path fill="none" stroke="#000" stroke-width=".6" stroke-linecap="round" stroke-linejoin="round" stroke-miterlimit="10" d="M-1.1 1029.5c8.8-3.2 20.1-6.6 25.9-9.6 8.3-4.4 48.9-27.8 46.1-48.9-2.8-21.1-29.5-12.9-38.7-9.8-12.1 4.1-22.9 13.1-33.5 17.6"/><path fill="none" stroke="#000" stroke-width=".6" stroke-linecap="round" stroke-linejoin="round" stroke-miterlimit="10" d="M-.9 1017.5c15.7-4.4 45.7-22.7 42.9-33.7-2.4-9.7-28.3-2.1-42.9 9.9M-.7 892.7c8.4-4.8 15-17.4 12.7-27.1-1.7-6.9-8-11.6-12.8-14.2"/><path d="M176.3 773.2c13.7 0 26.9 2.7 29.6 11.7 5.6 18.3-5 44.5-16.7 50-4.5 2.2-14.8 4.1-26.3 4.1-18.1 0-39-4.9-44.8-21.9-6.1-17.9 16.1-35 24.5-38.9 4.3-2 19.3-5 33.7-5m0-.6v.6-.6c-14.4 0-29.5 2.9-34 5.1-8.5 3.9-31 21.4-24.8 39.6 6.9 20.2 34 22.3 45.4 22.3 12.2 0 22.3-2.2 26.6-4.2 5.8-2.7 11.5-10.6 15.1-20.6 3.8-10.6 4.5-21.6 1.9-30.2-3-9.9-18.1-12-30.2-12z"/><path d="M165.6 796c6.2 0 11.8 2.7 13.1 10 1.7 9.5-4.8 13.8-12.5 13.8-7.5 0-16.2-4.2-19.2-11.6-2.2-5.6 8.9-12.2 18.6-12.2m0-.6c-7.2 0-15.4 3.6-18.3 8-1.2 1.7-1.4 3.5-.8 5.1 3.2 7.9 12.4 12 19.7 12 4.7 0 8.6-1.5 10.9-4.3 2.1-2.5 2.9-6.1 2.2-10.2-1.2-6.8-6.2-10.6-13.7-10.6z"/><path fill="none" stroke="#000" stroke-width=".6" stroke-linecap="round" stroke-linejoin="round" stroke-miterlimit="10" d="M-1.3 791.6c15-2.6 35.9-15.9 47.2-22.9 16.1-10 25-18.9 38.9-25.6 13.9-6.7 38.3-11.1 46.7-16.1 8.3-5 47.2-30.6 49.5-56.7 2.2-26.1-8.3-37.8-9.4-50.6-1.1-12.8 1.7-38.3-4.4-46.7s-35-30-77.2-25.6c-32.4 3.4-70.1 29.3-90.6 43.1"/><path fill="none" stroke="#000" stroke-width=".6" stroke-linecap="round" stroke-linejoin="round" stroke-miterlimit="10" d="M-1 767.4c9.2-1.8 20.8-6.6 26.4-11.4 8.3-7.2 27.2-25 39.5-31.1 12.2-6.1 82.8-21.1 81.7-48.9-1.1-27.8-12.2-42.8-12.2-54.5s8.3-25.6 0-40-21.7-22.2-48.3-19.4c-26.7 2.8-33.9 8.3-55.6 21.7C18.5 591 7.6 604-.8 609.4"/><path fill="none" stroke="#000" stroke-width=".6" stroke-linecap="round" stroke-linejoin="round" stroke-miterlimit="10" d="M-1.1 757.4c7.9-2.1 15.4-6.4 20.8-9.8 10-6.1 27.2-27.2 47.8-36.7 20.6-9.4 58.9-11.7 61.7-34.5 2.8-22.8-12.8-37.8-13.3-51.7-.6-13.9 11.1-36.1-2.2-47.2s-28.3-9.4-51.1-3.9c-16 3.9-45.9 30.6-63.3 42.7"/><path fill="none" stroke="#000" stroke-width=".6" stroke-linecap="round" stroke-linejoin="round" stroke-miterlimit="10" d="M-1.1 748.8c6.1-2.6 13.6-6.9 20.9-14 17.2-16.7 32.8-31.1 43.3-34.5 10.6-3.3 42-15.2 45-25.6 5-17.2-11.1-38.3-11.1-48.9s12.2-28.9 1.7-39.5-37.2-7.8-56.1 4.4c-12.2 7.9-30.8 26.4-43.8 32.8"/><path fill="none" stroke="#000" stroke-width=".6" stroke-linecap="round" stroke-linejoin="round" stroke-miterlimit="10" d="M-1 739c5.9-2.7 11.7-8.2 15.2-11.9 7.8-8.3 23.3-24.5 35-31.1s33.9-15.6 37.8-28.3c3.9-12.8-7.8-23.9-7.2-38.9.3-8.9 3.3-28.3-5.6-32.8-5.8-2.9-21.7 1.7-42.2 14.4-11.4 7.1-23.2 17.3-33.4 22.6"/><path fill="none" stroke="#000" stroke-width=".6" stroke-linecap="round" stroke-linejoin="round" stroke-miterlimit="10" d="M-.9 710.3c9.2-6.7 23.5-23.7 28.5-28.3 7.2-6.7 18.3-17.8 13.9-28.3s-10.6-10-17.8-8.9c-4.3.7-14.1 4.2-24.6 10M-1.4 531.5c21.6-14 81.4-51.2 79.6-72.3-2.2-26.1-32.2-40.6-48.3-45-8.6-2.4-21.5-.7-31 .6"/><path fill="none" stroke="#000" stroke-width=".6" stroke-linecap="round" stroke-linejoin="round" stroke-miterlimit="10" d="M-1.4 521.2c13-9.1 40.2-28.9 45.1-34.2 6.7-7.2 19.4-19.4 17.8-28.3-1.7-8.9-8.9-31.7-39.5-33.9-9.1-.7-17.3-.7-23.4-.3"/><path fill="none" stroke="#000" stroke-width=".6" stroke-linecap="round" stroke-linejoin="round" stroke-miterlimit="10" d="M-1.3 511.8c13.4-9.6 46.3-37.7 42.8-50.9-4.5-16.7-14.6-23.9-27.7-26.1-4.3-.7-10.4-1.1-14.9-1.4"/><path fill="none" stroke="#000" stroke-width=".6" stroke-linecap="round" stroke-linejoin="round" stroke-miterlimit="10" d="M-1.4 499.4c9.2-6.8 23.9-25.5 21.8-35.2-2.6-12-12.2-19-21.3-19.9M345.1 631.6c-.3-8.6 21.4-15 40.6-11.4 19.2 3.6 37.8 17.8 33.1 29.2s-9.7 24.2-37.2 11.4c-27.6-12.8-36.2-20.1-36.5-29.2z"/><path d="M236.2 490.4c9.3 0 64.6 49.9 47 61.3-3.6 2.4-7.6 3.5-11.7 3.5-17.5 0-36.7-21.6-36.7-63.5 0-.9.5-1.3 1.4-1.3m0-.6c-1.2 0-1.9.7-1.9 1.9 0 24.6 6.5 39.6 11.9 47.8 6.8 10.4 16.1 16.3 25.4 16.3 4.3 0 8.3-1.2 12-3.6 3.6-2.3 4.6-6.2 3-11.5-1.2-3.9-5.9-14.9-24.3-32.5-9.8-9.1-21.8-18.4-26.1-18.4zM315.2 379.9c13.7 0 27.1 4 33.8 17.7 14.2 29.2 5 49.2 1.7 69.2s7.5 31.7 6.7 50.8c-.8 19.2-6.7 30.8-15.8 30.8-9.2 0-50-37.5-70-62.5s-40.8-19.2-46.7-70c-3.3-29.2 40-25.8 52.5-29.2 6.6-1.8 22.4-6.8 37.8-6.8m0-.6c-13.6 0-27.6 3.9-35.1 6-1.1.3-2.1.6-2.9.8-2.6.7-6.5 1.1-11.1 1.6-12.7 1.3-30.2 3.1-38 12.9-3.3 4.1-4.6 9.3-3.9 15.4 4 35 15.2 43.4 28.2 53.2 6.1 4.6 12.3 9.3 18.6 17.1 9.6 12 24.6 27.6 39.1 40.7 7.3 6.6 25.1 22 31.3 22 9.4 0 15.6-11.7 16.4-31.4.4-8.8-1.7-16.1-3.7-23.2-2.5-8.6-4.8-16.8-3-27.6.6-3.7 1.4-7.4 2.3-11.3 3.7-16.9 7.6-34.4-4-58.3-5.6-11.9-17.2-17.9-34.2-17.9z"/><path d="M321.9 394.9c6.1 0 11.5 2.1 15.5 8.4 10.8 17.5 9.8 31.9-3.3 45.8-11.3 12-19.5 25.7-28.9 25.7-1.7 0-3.5-.5-5.3-1.5-4.4-2.5-56.7-20-57.5-50.8-.4-13.6 25.8-20 44.2-20.8 11.6-.5 24.6-6.8 35.3-6.8m0-.6v.6-.6c-5.6 0-11.6 1.6-17.9 3.3-5.8 1.6-11.8 3.2-17.4 3.4-18.2.8-45.1 7.2-44.7 21.5.7 27.3 40.8 44.1 54 49.7 1.9.8 3.3 1.4 3.8 1.7 1.9 1.1 3.7 1.6 5.6 1.6 7.2 0 13.6-7.6 21-16.4 2.6-3.1 5.3-6.3 8.3-9.4 13.3-14.1 14.4-28.9 3.4-46.6-3.8-6-8.9-8.8-16.1-8.8zM505.3 572.8c6.6 0 14.1 1 23 3.1 35 8.3 120.9 30.8 120 58.3-.5 17.1-20.3 24.5-47.4 24.5-16.6 0-35.8-2.8-55.1-7.8-50.8-13.3-89.2-20.9-75.9-55 5.6-14.3 15.9-23.1 35.4-23.1m0-.6v.6-.6c-18.3 0-29.7 7.5-35.9 23.5-3.5 8.9-3.6 16.4-.4 22.7 7.8 15.2 34.2 22.1 67.6 30.7 3 .8 6 1.6 9.1 2.4 19.6 5.1 38.7 7.9 55.3 7.9 14.1 0 25.8-2 33.9-5.9 9.1-4.3 13.8-10.8 14.1-19.2.4-12.1-15.4-24.6-47-36.9-19.3-7.6-44.1-15-73.5-22-8.8-2.1-16.5-3.2-23.2-3.2z"/><path d="M563.8 610.2c25.4 0 58.2 7.2 56.1 21.6-1.3 9.3-15.2 13.6-31.3 13.6-24.5 0-54.2-9.8-53.7-26.9.2-5.6 13.1-8.3 28.9-8.3m0-.6c-14.1 0-29.3 2.3-29.5 8.8-.1 4.4 1.6 8.5 5.2 12.2 10.2 10.5 32.6 15.3 49.1 15.3 14.5 0 30.4-3.7 31.9-14.1.4-2.9-.5-5.6-2.7-8.2-4.8-5.5-14.9-8.8-22.5-10.6-9.3-2.2-20.9-3.4-31.5-3.4z"/><path fill="none" stroke="#000" stroke-width=".6" stroke-linecap="round" stroke-linejoin="round" stroke-miterlimit="10" d="M-1.1 370.8c8.8-4.4 25.2-11.5 39.2-8.2 21.7 5 41.7 13.3 51.7 26.7 10 13.3 44 52 57.5 47.5 40-13.3 12.5-54.2 43.3-80.9 16.1-13.9 47.5-9.2 73.4-12.5 17.4-2.2 42.1-1.2 57.5-.8 31.7.8 68.3 47.5 83.4 56.7 15 9.2 64.2 34.2 80 36.7 15.8 2.5 45 5 55.8 7.5 10.8 2.5 36.7 10.8 46.7 11.7 10 .8 25.4 1.2 34.2 9.2 18.3 16.7 13.3 60.8 27.5 93.4 5.1 11.6 44.2 55 58.3 52.5 14.2-2.5 31.7-69.2 23.3-96.7-8.3-27.5-16.2-34.5-21.7-44.2-6.7-11.7-10.8-33.3-20-41.7-9.2-8.3-31.7-11.7-40-20s-20-15-38.3-14.2-52.5 29.2-65.8 18.3c-18-14.6 10-66.7-14.2-90.9-12.3-12.3-58.3 26.7-81.7.8-17.8-19.7-2.5-63.3.8-94.2s3.3-69.2 30-93.4c26.7-24.2 55.8-18.3 75.9-20s84.2-58.3 79.2-86.7c-4.4-25.2-50.7-12-71.8-29.9"/><path fill="none" stroke="#000" stroke-width=".6" stroke-linecap="round" stroke-linejoin="round" stroke-miterlimit="10" d="M-.9 355.3c10.2-4.1 27.1-11.7 44.8-8.6 28.3 5 79.2 59.2 93.4 53.3 14.2-5.8 20-36.7 40.8-52.5 20.8-15.8 51.7-15 90-15.8s28.3-5.8 46.7-2.5c18.3 3.3 43.3 15 58.3 14.2 15-.8 29.9-6.1 37.5-1.7 20 11.7 15.9 77.3 80.9 75 23.3-.8 35-79.2-8.3-65.8-23.2 7.1-57.5-8.3-60-25-5.3-35.5 11.7-77.5 15-102.5s.8-66.7 27.5-96.7S584.1 95.9 584.1 55s-91.7-27.5-111.7-34.2c-9.9-3.3-23.8-11.2-31.8-23.3"/><path fill="none" stroke="#000" stroke-width=".6" stroke-linecap="round" stroke-linejoin="round" stroke-miterlimit="10" d="M-.8 337.4c8.6-4.8 23.8-13.2 46.5-10.7 44.2 5 64.2 34.2 75.9 32.5 11.7-1.7 49.2-35.8 75-38.3 25.8-2.5 105.9-6.7 118.4-5 12.5 1.7 65 8.3 79.2-6.7 14.2-15 35.8-60 31.7-126.7S488.2 85 489.1 75c.8-10-26.7-30-50-17.5s-18.3 51.7-72.5 51.7-44.1-35.8-40.8-48.3C334.9 25 368.2 24.1 379 8.3c2-3 4.7-7.3 5.9-10.8"/><path fill="none" stroke="#000" stroke-width=".6" stroke-linecap="round" stroke-linejoin="round" stroke-miterlimit="10" d="M-1.2 251.6c11.6.1 22.2 1.3 38.5 7.6 32.5 12.5 75.9 29.2 108.4 30.8 32.5 1.7 96.7-4.2 120.9-8.3 24.2-4.2 89.2-5 95.9-39.2 6.7-34.2-79.2-75-100.9-85.9C239.8 145.8 111 108.8 119 49.1c3.3-25 43.3-25 78.4-31.7 21.4-4.1 34.6-11 40.6-21.9M997 1602c-2.9-11.2-4.7-21.5 3-27.5 11.3-8.8 28.8-17.5 30-26.3 1.3-8.8 3.8-71.3-31.3-83.8s-70-15-85-11.3c-15 3.8-30 13.8-46.3 8.8s-53.8-17.5-73.8-30-30-27.5-52.5-31.3c-22.5-3.8-122.5 7.5-123.8-15-1.3-22.5 40-47.5 21.3-70-18.8-22.5-65-8.8-71.3-11.3-6.3-2.5-33.8-16.3-48.8-16.3s-58.8-13.8-58.8-30 1.3-35 40-63.8c38.8-28.8 112.5-70 125-81.3 12.5-11.3 67.5-71.3 80-103.8s27.5-81.3 26.3-106.3c-1.3-25-34.6-101.6-30.7-140.5s15-57.2 20.6-67.2c5.6-10 21.1-31.1 22.8-36.1s2.2-10 3.3-15.6c1.1-5.6 15.6-38.9 17.8-56.1 2.2-17.2 12.2-52.2 16.7-59.5 4.4-7.2 18.9-31.1 21.1-41.1s-5.6-27.2 1.1-38.3c6.7-11.1 23.9-19.4 31.1-25.6s22.2-14.4 27.2-17.2c5-2.8 40-17.8 32.2-51.7s-35.6-28.3-56.7-30c-21.1-1.7-51.7-8.3-66.1-16.7-14.4-8.3-43.9-35-41.7-58.9 2.2-23.9 11.1-55 11.7-59.5.6-4.4 2.8-16.7 6.7-21.1s26.7-5 36.7-5.6c10-.6 47.8 1.1 62.2 2.8s23.9 12.8 25.6 15.6 20.6 43.3 32.8 44.5c12.2 1.1 42.8-14.4 52.2-15.6 9.4-1.1 51.7-1.1 55.6-13.3 3.9-12.2-8.3-40.6-10-93.9-1.7-53.3 1.1-68.3-.6-77.8-.9-5.2-4.5-17.1-6.8-27.2"/><path d="M800 200.3c20 0 46.7 12.8 52.8 35 6.1 22.2.6 55-12.2 57.8-3 .6-7.1 1-11.9 1-15.7 0-38.3-3.5-48.2-9.9-12.8-8.3-17.8-22.2-20-39.5-3.8-29.9 19.5-44.4 39.5-44.4m0-.6c-12.2 0-24 5.1-31.5 13.7-7.2 8.2-10.1 19.1-8.5 31.5 2.6 20.1 8.8 32.4 20.3 39.9 9.9 6.5 32.4 9.9 48.5 9.9 4.9 0 9.1-.3 12-1 3.1-.7 5.9-3 8.3-7 7-11.6 9-34.7 4.3-51.6-6.1-21.9-32.5-35.4-53.4-35.4zM898.7 1489.6c1.7 0 3.4.1 5.1.2 41.1 4 55 10 56.7 22.1 1.7 12.1-17.1 30.8-26.3 37.5-8.7 6.3-18.9 20.5-31 20.5-.6 0-1.3 0-2-.1-12.9-1.7-37.9-18.3-44.2-48.3-3.3-16 18.1-31.9 41.7-31.9m0-.6v.6-.6c-14.9 0-29.5 6.2-37.3 15.8-4.4 5.4-6 11.2-4.9 16.8 3.5 17 12.7 28.5 19.8 35.1 9.5 9 19.1 13 24.9 13.7.7.1 1.4.1 2 .1 8.8 0 16.6-7.3 23.5-13.8 2.8-2.6 5.4-5.1 7.9-6.9 10.1-7.3 28.2-26 26.5-38.1-1.8-12.7-16.7-18.6-57.2-22.6-1.8 0-3.5-.1-5.2-.1z"/><path fill="none" stroke="#000" stroke-width=".6" stroke-linecap="round" stroke-linejoin="round" stroke-miterlimit="10" d="M1123.8 1601.2c-11.5-22.1-48.9-62.4-56.2-78-8.8-18.8-31.3-70-46.3-80s-42.5-7.5-61.3-12.5-35-13.8-46.3-13.8c-11.3 0-31.3 25-50 22.5s-50-17.5-65-28.8-22.5-31.3-47.5-36.3c-25-5-72.5 7.5-77.5-12.5s11.5-70-1.3-83.8c-31.4-33.8-49.1 3.1-107-3.2-81.1-8.9-81.5-34.1-73.9-47.8 14.4-26.1 85.9-59 122.1-85.3s80-85.2 91.3-111.4c11.3-26.3 31.7-85 33.3-119.5 1.7-34.5-37.8-117.3-32.8-150 5-32.8 23.3-73.9 44.5-96.7 21.1-22.8 13.9-43.3 25.6-73.4 11.7-30 10.6-39.5 24.5-52.2 13.9-12.8 31.1-20.6 38.9-28.3s21.1-36.7 32.8-44.5c11.7-7.8 42.2-10.6 61.7-27.2 19.4-16.7 35.6-34.5 50-46.1 14.4-11.7 58.9-18.3 66.1-34.5s-3.9-35.6 6.7-47.8 70.1-31.8 77.8-56.1c11.1-35-30.4-75.3-22.8-96.7 12.8-36.1 81.7-18.3 84.5-32.2s-28.9-34.5-37.2-48.9c-5.8-10.1-23.2-53.4-36.5-78.8M1171.2 1601c-.6-9 .6-13.3 7.4-17.2 8.8-5 15.7-5.7 27.6-2.3 9.4 2.7 24.1.3 30.4 9.1 1 1.3 4 6.9 5.9 11.2M1357.7 1601.5c-2.9-8.8-10.7-38.3-8.8-58 2.5-25.8 10.8-94.2 18.3-107.5 7.5-13.3 15-29.2 20-39.2s11.7-56.7 15.8-68.3c4.2-11.7 36.7-80 45.8-95 9.2-15 35.8-40.8 38.3-51.7s23.3-45.8 32.5-50c7.9-3.6 56.5-18.3 82.5-27"/><path fill="none" stroke="#000" stroke-width=".6" stroke-linecap="round" stroke-linejoin="round" stroke-miterlimit="10" d="M1332.8 1602.2c-2-20.5-2.5-43.9-1.9-55.3.8-15.8 8.3-46.7 10-61.7 1.7-15 3.3-47.5 5-56.7 1.7-9.2 18.3-37.5 26.7-60.8s18.3-60.8 25.8-78.4c7.5-17.5 48.3-85.9 54.2-94.2s17.5-25 22.5-34.2c5-9.2 15-33.3 29.2-43.3 10.6-7.5 75.1-20.6 96.7-28.1"/><path fill="none" stroke="#000" stroke-width=".6" stroke-linecap="round" stroke-linejoin="round" stroke-miterlimit="10" d="M1318.2 1602.6c.7-20.6-.8-52 1.1-68.1 2.1-18.4 7.8-43.4 9.2-56.7 1.6-15.8-1.7-40 .8-50s26.7-54.2 30-62.5 23.3-69.2 29.2-81.7c5.8-12.5 52.5-89.2 55.8-95.9 3.3-6.7 32.5-57.5 41.7-68.3 9.2-10.8 39.2-20.8 73.4-28.3 16.7-3.7 32.4-6.5 41.7-9.4"/><path fill="none" stroke="#000" stroke-width=".6" stroke-linecap="round" stroke-linejoin="round" stroke-miterlimit="10" d="M1304 1601.9c-.1-17.2 2.4-46.6 2.7-53.3 1-20.6 9.6-34.1 10.8-63.3.4-10-5.8-38.3.8-61.7 6.7-23.3 33.3-59.2 40-80 6.7-20.8 15-54.2 23.3-70.9 8.3-16.7 45-71.7 49.2-80.9 4.2-9.2 34.2-65 50-82.5 15.8-17.5 55-21.7 71.7-24.2 10.1-1.5 33.1-5.3 48.3-10"/><path fill="none" stroke="#000" stroke-width=".6" stroke-linecap="round" stroke-linejoin="round" stroke-miterlimit="10" d="M1279.9 1601.6c-.3-19.6 1.4-55.2 2.7-64.6 1.7-12.5 10.8-30.8 10.8-42.5s-1.7-60.8 4.2-75 30-49.2 35.8-62.5c5.8-13.3 20.8-56.7 28.3-87.5 7.5-30.8 32.5-40.8 38.3-55 5.8-14.2 40.8-96.7 59.2-115 18.3-18.3 51.7-24.2 65-25 12.1-.8 52.3-2.9 76.7-11.3"/><path fill="none" stroke="#000" stroke-width=".6" stroke-linecap="round" stroke-linejoin="round" stroke-miterlimit="10" d="M1264.8 1601.2c-1.1-14-2.8-35.6-1.4-46.7 1.7-13.3 10-37.5 10.8-49.2.8-11.7-.8-36.7 0-41.7s16.7-58.3 28.3-78.4c11.7-20 25.8-32.5 28.3-43.3s20.8-70.9 25-85c4.2-14.2 31.7-37.5 37.5-50.8s30.8-83.4 51.7-109.2 70-25.8 100.9-30c19.7-2.7 41.5-3.8 55-7.7"/><path fill="none" stroke="#000" stroke-width=".6" stroke-linecap="round" stroke-linejoin="round" stroke-miterlimit="10" d="M1601 1053.2c-12.9 3.4-34.8 8.1-42.5 7-11.7-1.7-90.9-3.3-121.7 19.2-30.8 22.5-26.7 80.9-40.8 105.9s-36.7 39.2-50.8 61.7-6.7 52.5-17.5 81.7-25.8 37.5-34.2 50-18.3 59.2-35 70c-16.7 10.8-47.5 4.2-73.4 18.3-25.8 14.2-23.3 77.5-39.2 80.9s-48.3-35.8-60.8-58.3-52.5-71.7-75-81.7-37.5-2.5-47.5-5.8-59.2-41.7-66.7-52.5c-7.5-10.8-23.3-43.3-43.3-45.8s-41.7 23.3-60.8 27.5c-19.2 4.2-74.2 10-80-10-5.8-20 3.3-40.8-10.8-65-14.2-24.2-55-67.5-52.5-87.5s27.5-73.4 40-90c12.5-16.7 27.5-31.7 33.3-49.2 5.8-17.5 27.5-99.2 23.3-135.9-4.2-36.7-39.2-94.2-34.2-134.2 5-40 35.8-72.5 50.8-98.4s20.8-70 41.7-85.9c20.8-15.8 53.3-25 63.3-30s20.8-26.7 46.7-41.7c25.8-15 46.7-14.2 86.7-29.2s116.7-55 120-40.8-20 36.7-46.7 50-61.7 57.5-79.2 64.2c-17.5 6.7-41.7 34.2-44.2 45-2.5 10.8 7.5 44.2 7.5 52.5 0 8.3-7.5 30.8-.8 36.7 6.7 5.8 40.8 20.8 47.5 33.3 6.7 12.5 7.5 53.3 2.5 76.7-5 23.3 9.2 47.5 9.2 56.7s-5 29.2 1.7 35.8c6.7 6.7 35.8 22.5 83.4 25.8 47.5 3.3 87.6 11.5 101.7 6.7 29.2-10 34.1-73.1 50.8-88.4 18.3-16.7 41.7-21.7 51.7-31.7s45.8-40 54.2-42.5 32.9-5.6 41.7-12.5c18.1-14.2 21.7-41.7 37.5-56.7s48.3-20 61.7-30.8 25-22.5 30-25.8c4-2.7 47.5-35.1 70.9-48.5"/><path fill="none" stroke="#000" stroke-width=".6" stroke-linecap="round" stroke-linejoin="round" stroke-miterlimit="10" d="M1601 1046.7c-5.6 1.4-12.2 3.3-18.8 4.8-10.8 2.5-35.4 3.8-42.9 1.3s-15.8-4.2-24.2-4.2-69.2 10-80.9 2.5c-11.7-7.5-28.3-37.5-68.3-42.5s-71.7 14.2-91.7 12.5c-20-1.7-60.8-23.3-74.2-6.7-13.3 16.7 3.3 54.2 20.8 50 17.5-4.2 38.3-15.8 44.2 0s-7.5 30.8-31.7 34.2c-24.2 3.3-39.2 19.2-39.2 30.8s55.8 55 63.3 38.3c7.5-16.7-2.5-87.5 90-80s24.2 126.7 8.3 131.7-28.3 10-30.8 20 6.7 64.2-6.7 85-37.5 44.2-40.8 55-11.7 50-32.5 56.7c-20.8 6.7-64.2-3.3-84.2 0s-44.2 22.5-60 15.8c-15.8-6.7-48.3-30-59.2-47.5-10.8-17.5-25-44.2-41.7-47.5-16.7-3.3-50 4.2-73.4-15-23.3-19.2-23.3-55.8-39.2-63.3-15.8-7.5-50-3.3-70 4.2s-60 20-72.5 7.5-20.8-50-30-68.3c-9.2-18.3-32.5-55.8-26.7-89.2 5.8-33.3 36.7-61.7 45.8-86.7 9.2-25 7.5-63.3 10.8-74.2 3.3-10.8 6.7-48.3 7.5-57.5.8-9.2 5-28.3.8-38.3-4.2-10-40-80-36.7-115.9 3.3-35.8 14.2-49.2 31.7-68.3s39.2-40.8 42.5-54.2c3.3-13.3 9.2-36.7 22.5-43.3s33.3-10.8 52.5-18.3c19.2-7.5 79.2-52.5 85-34.2 5.8 18.3-12.5 27.5-15 43.3s-.8 48.3-.8 60c0 11.7-10.8 32.5-5.8 42.5 5 10 30 28.3 49.2 30 19.2 1.7 20 30.8 17.5 45.8-2.5 15 5 36.7 4.2 48.3-.8 11.7-11.7 73.4-1.7 82.5 10 9.2 12.5 10 55 17.5s77.5 20 92.5 25.8c15 5.8 33.3 25.8 45.8 18.3s41.7-18.3 46.7-58.3 15.8-51.7 27.5-62.5c11.7-10.8 44.2-25.8 52.5-35.8 8.3-10 30.8-29.2 42.5-32.5 11.7-3.3 38-8.6 49.2-14.2 16.7-8.3 15.8-40 33.3-55.8 17.5-15.8 52.5-26.7 62.5-35 9-7.5 66.7-54.1 95-73"/><path d="M802.5 1130c24.6 0 76.5 43.9 71.6 77.7-4.2 29.6-49.7 40.2-73.2 40.2-4.2 0-7.8-.3-10.2-1-15.8-4.2-30.8-15.8-30-53.3.5-24.4 15.8-60 39.2-63.3.9-.2 1.7-.3 2.6-.3m0-.6c-.9 0-1.8.1-2.6.2-23.8 3.4-39.1 39.5-39.7 63.9-.4 17.2 2.6 30.5 8.9 39.5 5 7.2 12 11.9 21.6 14.4 2.5.7 6.1 1 10.4 1 22.2 0 69.4-9.9 73.7-40.7 1.9-13.2-4.6-29.2-18.4-45-16.5-18.9-39.7-33.3-53.9-33.3z"/><path d="M813.2 1166c18.2 0 40.9 25.8 35.1 37.5-4.7 9.3-21.1 21.1-35.4 21.1-6.2 0-12-2.2-16.3-7.7-14.2-18.3-7.5-40.8 9.2-49.2 2.3-1.1 4.8-1.7 7.4-1.7m0-.6v.6-.6c-2.8 0-5.4.6-7.7 1.7-8.3 4.2-14.3 11.8-16.4 21-2.3 9.9.2 20.2 7 29.1 4.1 5.3 9.7 8 16.7 8 14.2 0 31-11.5 36-21.4 2.1-4.1.9-10-3.2-16.7-3.4-5.5-8.6-10.9-14.2-14.9-4.3-3.1-11.1-6.8-18.2-6.8zM866.1 636.9c3.2 0 6 1 8.1 3.2 12.5 13.3 0 15.8 9.2 34.2 9.2 18.3 34.2 55 47.5 69.2 13.3 14.2 52.5 35 49.2 68.3-3.3 33.3-14.2 63.3-14.2 79.2 0 15.8 13.3 41.7 27.5 48.3 3.3 1.5 7.1 2.1 11.3 2.1 11.6 0 26-4.4 38.3-4.4 2.5 0 4.9.2 7.2.6 17.5 3.3 30 13.3 40.8 25s22.5 16.7 25 31.7-3.3 36.7-18.3 53.3-35.8 47.5-38.3 62.5-6.7 39.2-4.2 60.8c2.5 21.7-12.5 37.5-8.3 50.8 4.2 13.3 42.5 55.8 33.3 65.8-5.1 5.6-12.4 10.2-25 10.2-10 0-23.3-2.8-41.7-10.2-41.7-16.7-50.8-21.7-55-40-4.2-18.3-.8-35.8-15.8-61.7-15-25.8-31.7-36.7-34.2-46.7-2.5-10-10.8-29.2-22.5-36.7-17.9-11.5-107.5-34.2-110-115-2.5-80.9 6.7-70.9 11.7-75.9 5-5 19.2-6.7 20-16.7.8-10-58.3-42.5-67.5-89.2-9.2-46.7-17.5-75.9 10-98.4s40-25.8 58.3-37.5c15-9.3 41.8-32.8 57.6-32.8m0-.6c-11.9 0-29.9 13.1-44.4 23.7-5 3.7-9.8 7.2-13.7 9.7-5.8 3.7-11 6.5-16.4 9.5-11.4 6.2-23.2 12.7-42 28-25.8 21.1-20.4 48.2-12.2 89.1.6 3.2 1.3 6.5 2 9.8 6 30.7 33.5 55.2 51.6 71.4 9 8.1 16.2 14.4 15.9 17.6-.5 6.2-6.4 9-12.2 11.7-3 1.4-5.9 2.8-7.7 4.6-.7.7-1.5 1.1-2.3 1.5-5.2 2.5-11.7 5.7-9.5 74.8.9 29 13.2 53.9 36.6 74.1 19.6 16.9 43.1 27.3 58.6 34.2 6.7 3 12 5.3 15.1 7.3 11.4 7.3 19.7 26.2 22.2 36.3 1.2 4.9 5.5 9.8 11.5 16.5 6.6 7.5 14.8 16.8 22.7 30.3 10.5 18 11.9 31.7 13.3 45 .6 5.7 1.2 11 2.4 16.5 2.2 9.9 6 15.6 13.7 21 7.8 5.5 19.7 10.6 41.7 19.4 17.2 6.9 30.9 10.2 41.9 10.2 14.3 0 21.4-5.9 25.5-10.3 6.2-6.8-7.4-26.4-19.4-43.8-6.4-9.2-12.4-17.9-13.8-22.6-2-6.3.5-13.1 3.2-21.1 3-8.6 6.4-18.3 5.1-29.6-2.4-21.1 1.4-44.3 4-59.7l.2-1c1.9-11.5 18.1-39.8 38.2-62.2 16-17.8 20.8-39.9 18.5-53.8-1.8-10.9-8.3-16.5-15.8-23.1-3.1-2.7-6.2-5.5-9.4-8.9-17.3-18.7-31.1-23.3-41.2-25.2-2.2-.4-4.6-.6-7.3-.6-6.3 0-13.1 1.1-19.7 2.2s-12.8 2.1-18.5 2.1c-4.5 0-8.1-.7-11-2-14-6.6-27.2-32.5-27.2-47.8 0-7.5 2.5-18.5 5.4-31.2 3.3-14.3 7-30.6 8.7-48 2.6-25.9-20.1-44.3-36.7-57.8-5.1-4.2-9.5-7.8-12.6-11-12.9-13.7-38.1-50.4-47.4-69-4.2-8.5-3.8-13.4-3.3-17.8.5-5 .9-9.2-5.9-16.5-2-2.4-4.9-3.5-8.4-3.5z"/><path d="M842.9 679.5c1.8 0 3.6.2 5.4.6 15.8 3.3 29.2 13.3 34.2 21.7 5 8.3 28.3 30.8 29.2 39.2s8.3 30 16.7 36.7c8.3 6.7 35.8 15.8 39.2 32.5 3.3 16.7-18.3 73.4-16.7 83.4 1.7 10 20.8 40 25 50.8 4.2 10.8 5.8 36.7 13.3 43.3 7.5 6.7 80 13.3 81.7 35 1.7 21.7-27.5 77.5-35.8 103.4-8.3 25.8-23.3 60-21.7 72.5s13.3 45.8 2.5 52.5c-2 1.2-4.3 1.8-6.9 1.8-11.5 0-26.9-11.2-29-23.4-2.5-15-8.3-36.7-15.8-50-7.5-13.3-22.5-25-26.7-40-4.2-15-2.5-39.2-14.2-49.2-20.8-17.8-106.7-20-100.9-66.7 1.5-11.6 6.8-15.7 14.2-15.7 18.3 0 49.5 25.1 67.1 25.1 4 0 7.2-1.3 9.5-4.4 16.7-22.5 7.5-62.5-7.5-76.7-15-14.2-47.5-23.3-50.8-34.2s5-21.7-4.2-30.8c-9.2-9.2-70-34.2-77.5-56.7s-39.2-54.2-33.3-85 32.5-49.2 55.8-52.5c20.7-3 33.6-13.2 47.2-13.2m0-.5c-7 0-13.7 2.6-21.4 5.6-7.3 2.8-15.6 6.1-25.8 7.5-22.9 3.3-50.3 21.3-56.4 53-3.9 20.8 8.8 41.7 20.1 60.2 5.5 9.1 10.8 17.7 13.3 25.2 5.2 15.5 34.8 31.9 56.5 43.9 9.8 5.4 18.3 10.1 21.2 13 5.3 5.3 4.5 11.1 3.7 17.4-.5 4.3-1.1 8.8.3 13.2 1.9 6.1 12.2 11.5 24.1 17.6 9.9 5.1 20.1 10.4 26.9 16.8 14.8 14 24 53.5 7.4 75.9-2.1 2.8-5 4.1-9 4.1-8.6 0-20.8-6.3-32.7-12.3-12.3-6.3-25-12.8-34.4-12.8-8.6 0-13.4 5.3-14.8 16.3-1.8 14.2 4.6 25.6 19.5 34.9 12.9 8 30.4 13.2 45.8 17.9 14.9 4.5 29 8.7 35.7 14.5 7.8 6.7 9.5 19.8 11.2 32.5.8 5.9 1.5 11.6 2.8 16.3 2.6 9.2 9.1 17.2 15.5 24.9 4.1 4.9 8.3 10 11.2 15.3 7.3 13 13.2 34.4 15.8 49.8 2.1 12.9 18 23.9 29.6 23.9 2.8 0 5.2-.6 7.2-1.9 8.6-5.3 3.8-26 .3-41.2-1.1-4.8-2.1-8.9-2.5-11.9-1.2-8.7 6.1-28.8 13.2-48.2 3-8.1 6-16.5 8.5-24.1 2.8-8.5 7.8-20.5 13.2-33.1 11.1-26.2 23.8-55.8 22.6-70.4-1.2-15.1-34.5-22.9-58.9-28.5-11.1-2.6-20.6-4.8-23-6.9-4.6-4.1-7.1-16.2-9.2-26.9-1.3-6.3-2.4-12.2-4-16.2-1.7-4.4-5.9-12.1-10.4-20.2-6.4-11.6-13.6-24.7-14.6-30.6-.7-4.1 3-17.4 6.9-31.4 5.5-19.8 11.7-42.3 9.8-52-2.5-12.3-17.9-20.6-29.1-26.7-4.3-2.3-8-4.3-10.3-6.1-8.1-6.4-15.6-27.7-16.4-36.3-.5-5.4-9.9-16.3-18.2-25.8-4.7-5.4-9.2-10.6-11-13.6-5-8.3-18.5-18.6-34.6-22-1.9-.5-3.7-.6-5.6-.6z"/><path d="M1000 1019.8c6 0 12.1 1.1 18.3 3.7 34.2 14.2 26.7 19.2 20 47.5-6.5 27.7-29 82.6-51.8 82.6-.5 0-1 0-1.5-.1-23.3-2.5-34.2-35-34.2-93.4 0-17.3 22.4-40.3 49.2-40.3m0-.6v.6-.6c-12.4 0-25.1 5-35.1 13.8-9.2 8.2-14.7 18.3-14.7 27.2 0 29.5 2.8 52.3 8.4 67.8 5.8 16.1 14.6 24.9 26.3 26.1.5.1 1 .1 1.6.1 13 0 24.9-17 32.6-31.2 10-18.5 17-39.5 19.9-51.8.9-3.9 1.9-7.5 2.7-10.6 5.2-19.4 6.8-25.3-23.1-37.7-6-2.4-12.3-3.7-18.6-3.7z"/><path d="M1000.3 1045.5c2.9 0 5.4 1.2 7.2 3.8 7.5 10.8 7.5 20 3.3 39.2-3.8 17.3-7.5 33.9-18.7 33.9-1.2 0-2.5-.2-3.9-.6-14.2-4.2-10-25.8-9.2-48.3.8-16.3 12.4-28 21.3-28m0-.6c-4.7 0-9.9 3-14.1 8.1-4.6 5.6-7.3 12.9-7.6 20.5-.1 3.7-.4 7.4-.6 10.9-1.1 18.5-2.1 34.4 10.2 38 1.4.4 2.8.6 4 .6 11.8 0 15.6-17.5 19.2-34.4 4-18.6 4.5-28.2-3.4-39.6-1.8-2.7-4.5-4.1-7.7-4.1zM1270.9 1294.5c3 0 5.8 1.3 7.6 2.5 5 3.3 7.5 23.3-3.3 25-2.9.5-5.9.7-8.6.7-7.2 0-12.6-1.9-11.4-7.4 3.6-16.6 10.1-20.8 15.7-20.8m0-.6c-5.3 0-12.5 3.7-16.4 21.3-.4 1.9-.1 3.5.9 4.8 1.8 2.2 5.5 3.3 11.1 3.3 2.6 0 5.5-.2 8.7-.7 3.9-.6 6.6-3.5 7.6-8.3 1.4-6.5-.6-15.5-4.1-17.8-1.4-1-4.3-2.6-7.8-2.6zM1344.9 1125c3.4 0 6.8.6 10.2 1.9 24.2 9.2 24.2 16.7 22.5 39.2-1.4 18.6-26.2 36.7-41.8 36.7-3.2 0-6.1-.8-8.3-2.5-12.5-10-29.2-15.8-23.3-43.3 2.3-10.8 20.3-32 40.7-32m0-.6c-20.2 0-38.8 21-41.2 32.4-5 23.5 6.4 31.6 17.4 39.4 2.1 1.5 4.2 3 6.2 4.5 2.2 1.8 5.1 2.6 8.6 2.6 7.8 0 18-4.4 26.6-11.5 9.4-7.7 15.1-17.1 15.8-25.7.9-11.6 1.2-19-1.6-24.9-2.9-5.9-9-10.2-21.3-14.9-3.4-1.2-6.9-1.9-10.5-1.9z"/><path fill="none" stroke="#000" stroke-width=".6" stroke-linecap="round" stroke-linejoin="round" stroke-miterlimit="10" d="M1601 1016.7c-11.4 3.2-23.9 5-23.3-1.5.5-5.5 14.7-17.3 23.3-23.6"/><path fill="none" stroke="#000" stroke-width=".6" stroke-linecap="round" stroke-linejoin="round" stroke-miterlimit="10" d="M1601 1028.4c-15.6 5.6-48.2 16.2-54.2-9.1-4.3-18.1 29.2-30.7 54.2-41.9M1601 833.3c-9.9-3.3-23.3-9.9-23.3-14.8 0-4 12.6-11.3 23.3-16.7"/><path fill="none" stroke="#000" stroke-width=".6" stroke-linecap="round" stroke-linejoin="round" stroke-miterlimit="10" d="M1601 853.2c-5.3-3.5-12.9-6.8-17.5-6.4-9.2.8-26.7 6.7-32.5 4.2-5.8-2.5-74.2-20.8-74.2-29.2s33.3-13.3 63.3-20c19.2-4.3 43.7-7.6 60.9-10.8M1601 950.6c-19.2 9-52.1 25.7-60.9 1.3-11.7-32.5 9.2-44.2 20.8-50 11.7-5.8 22.5-2.5 29.2-5 2.4-.9 7.2-3.3 10.8-5.8"/><path d="M1590.3 922.3c2.8 0 4.7.8 4.9 2.9.6 6.7-5.9 16.1-15.6 16.1-3.6 0-7.6-1.3-11.9-4.4-6.3-4.7 13.1-14.6 22.6-14.6m0-.6c-7.7 0-22.5 6.7-24.3 12-.5 1.4 0 2.7 1.3 3.7 4.1 3 8.2 4.5 12.2 4.5 4.5 0 8.7-1.9 11.9-5.4 3-3.3 4.7-7.7 4.4-11.3-.2-1.4-1-3.5-5.5-3.5zM1390.2 777.6c6.9 0 13.8 1.7 20.5 5.6 30.6 17.8 5.6 53.9 18.9 71.1 13.3 17.2 85-.6 90 22.8 5 23.3-24.5 39.5-27.8 57.8-3.3 18.3 39.5 52.2 26.1 67.8-9 10.5-25.1 16.7-37.7 16.7-6 0-11.3-1.4-14.5-4.5-10-9.4-26.1-43.9-36.7-47.8-10.6-3.9-39.5-5.6-56.7-17.8-17.2-12.2-31.7-23.3-45-25.6-14.5-2.4-63.9-1.1-63.9-32.2s31.1-43.3 45-57.8c11.7-12 46.5-56.1 81.8-56.1m0-.6v.6-.6c-31.2 0-62.1 34.2-76.9 50.6-2.1 2.3-3.9 4.3-5.3 5.8-3.6 3.8-8.5 7.4-13.6 11.3-14.8 11.1-31.5 23.7-31.5 46.9 0 11.6 6.9 20.1 20.4 25.3 11.3 4.3 25 5.6 34.9 6.5 3.7.3 6.8.6 9.1 1 11.9 2 24.8 11.2 39.8 21.9 1.6 1.2 3.3 2.3 5 3.5 12 8.5 29.7 12 42.6 14.5 5.9 1.2 11 2.2 14.2 3.4 6 2.2 14.3 15.3 21.7 26.9 5.5 8.6 10.6 16.8 14.8 20.7 3.2 3 8.4 4.7 14.9 4.7 13.9 0 29.6-7 38.2-16.9 7.7-8.9-2.3-23.5-11.9-37.5-7.6-11.1-15.5-22.6-14-30.6 1.3-7.4 7-14.4 12.9-21.8 8.8-10.9 17.8-22.2 14.8-36.2-2.8-13.1-25.4-13.7-47.3-14.3-18.1-.5-36.9-1-42.8-8.7-5.3-6.8-4.4-16.8-3.5-27.3 1.4-15.6 2.9-33.2-15.6-44-6.6-3.8-13.6-5.7-20.9-5.7z"/><path d="M1409.6 875.7c24.7 0 69.1 8.2 70.5 14.8 1.7 7.8-24.5 45-33.9 47.2-3.3.8-12.8 2.1-24.3 2.1-21.8 0-50.3-4.9-54.6-28.2-3.1-16.5 12.8-31.1 31.1-35 2.9-.7 6.7-.9 11.2-.9m0-.6c-4.7 0-8.5.3-11.3.9-9.3 2-18 6.7-23.9 13-6.4 6.8-9.2 14.9-7.7 22.7 4.7 25 36.6 28.7 55.2 28.7 11.2 0 20.9-1.3 24.4-2.1 5.3-1.3 14.9-12.5 21.5-21.8 6.6-9.2 13.9-21.6 12.9-26.2-1-4.5-17.3-8.4-27-10.3-15-3-32.3-4.9-44.1-4.9zM1389.5 785.6c6.6 0 12 2.2 15.1 7.6 7.2 12.8 15 42.8-8.9 58.3-23.9 15.6-49.5 13.9-56.7 19.4-7.2 5.6-17.8 22.2-26.7 25-4.4 1.4-9.9 3.1-14.9 3.1s-9.6-1.7-12.4-6.9c-4.9-9.3-5-20 3.9-26.1s24.5-11.1 30-18.9 23.3-41.7 40.6-51.7c10-5.7 21-9.8 30-9.8m0-.6v.6-.6c-8.3 0-19.3 3.6-30.2 9.9-13.7 8-27.5 30.5-35.7 43.9-2.1 3.5-3.8 6.3-5 7.9-3.4 4.8-11 8.6-18.2 12.3-4.3 2.2-8.4 4.2-11.6 6.5-4.3 3-6.8 7.2-7.4 12.3-.5 4.6.7 9.6 3.3 14.6 2.5 4.8 6.9 7.3 12.9 7.3 5.2 0 10.9-1.8 15-3.1 5.7-1.8 12-9.1 17.6-15.5 3.4-3.9 6.6-7.6 9.3-9.6 2.6-2 8.1-3.1 14.9-4.5 11.3-2.2 26.8-5.3 41.7-15 10.6-6.9 16.2-17.5 16.4-30.7.1-11.2-3.7-22-7.3-28.4-3.1-5.3-8.4-7.9-15.7-7.9z"/><path d="M1382.5 801.1c4.1 0 7.7 1.2 9.8 4.3 5.6 8.3 4.4 22.8-6.7 26.7-7.7 2.7-14.3 6.7-21 6.7-3 0-5.9-.8-9-2.8-13.7-9.1 2.8-25.6 8.9-29.5 3.8-2.4 11.4-5.4 18-5.4m0-.6c-7 0-14.8 3.3-18.3 5.5-5 3.2-14.4 12.6-14.4 20.9 0 3.8 1.8 7.1 5.5 9.5 3 2 6 2.9 9.3 2.9 4.8 0 9.5-2 14.4-4.1 2.2-.9 4.4-1.9 6.8-2.7 5.7-2 8.2-6.4 9.3-9.6 1.9-5.8 1-12.8-2.4-17.9-1.9-3-5.4-4.5-10.2-4.5z"/><path fill="none" stroke="#000" stroke-width=".6" stroke-linecap="round" stroke-linejoin="round" stroke-miterlimit="10" d="M1601 766.8c-32.6 6-138.1 41.1-153.1 1.4-17.2-45.6 8.3-65.6 17.2-71.1 8.9-5.6 47.2-17.8 57.2-26.1 9.5-8 45.3-42.2 78.6-63.3"/><path fill="none" stroke="#000" stroke-width=".6" stroke-linecap="round" stroke-linejoin="round" stroke-miterlimit="10" d="M1601 756.6c-24.4 5.5-91.7 32.7-116.4 21-29.5-13.9-34.5-20-33.9-40.6.6-20.6 18.3-34.5 29.5-40.6 11.1-6.1 41.1-13.3 50.6-22.2 8.8-8.3 41.1-41.7 70.3-59.7"/><path fill="none" stroke="#000" stroke-width=".6" stroke-linecap="round" stroke-linejoin="round" stroke-miterlimit="10" d="M1601 747.7c-14.7 4.9-33.2 15-44.7 17.2-17.2 3.3-77.2 13.3-88.9-8.9-11.7-22.2-10-28.9 1.7-42.2 11.7-13.3 46.7-21.7 57.2-28.3 10.6-6.7 35-31.1 48.9-45.6 8-8.4 18.5-13.9 25.8-17.8"/><path fill="none" stroke="#000" stroke-width=".6" stroke-linecap="round" stroke-linejoin="round" stroke-miterlimit="10" d="M1601 737.6c-15.3 6.9-23.2 12.7-38.1 16.1-21.7 5-84.5 15-92.8-10.6-8.3-25.6 19.4-37.2 34.5-42.2 15-5 31.7-7.2 43.9-22.8 10.9-13.9 31.2-36 52.5-47"/><path fill="none" stroke="#000" stroke-width=".6" stroke-linecap="round" stroke-linejoin="round" stroke-miterlimit="10" d="M1601 708c-22.8 19.7-87.2 37.4-85.3 22.9 2.2-16.7 25-13.3 45.6-34.5 18.5-19 19.4-33.5 39.7-43.1"/><path d="M822.6 706.8c35.2 0 52.9.1 67.4 22.5 18.3 28.3 12.5 71.7 25.8 77.5 13.3 5.8 39.2 6.7 39.2 22.5s-27.5 60.8-24.2 75.9c3.3 15 41.7 64.2 20 75.9-2.5 1.3-4.6 2-6.4 2-13.6 0-8.3-35.9-25.3-52.8-19.2-19.2-23.3-17.5-25.8-28.3s-2.5-30-11.7-35-68.3-10-70.9-35.8c-1.3-13.3 26.3-36.2 20-53.3-12.5-34.2-74.2-7.5-75.9-31.7s30.8-39.2 66.7-39.2c.5-.2.8-.2 1.1-.2m0-.6h-1c-25.5 0-48.3 7.5-59.6 19.6-5.6 6-8.2 12.8-7.7 20.2.8 11.6 14.4 12 30.1 12.5 18.3.6 39.1 1.2 45.7 19.3 3.5 9.5-4 21.3-10.6 31.6-5.1 8.1-10 15.7-9.4 21.6 1.9 19.7 36.1 27.6 56.5 32.2 6.9 1.6 12.4 2.9 14.7 4.1 6.6 3.6 8.3 15.1 9.8 25.3.5 3.4 1 6.6 1.6 9.3 1.6 7 4 9 10.2 14.2 3.7 3.1 8.7 7.3 15.8 14.4 8.3 8.3 11.2 21 13.7 32.2 2.6 11.6 4.7 20.8 12 20.8 1.9 0 4.1-.7 6.7-2 3.1-1.7 5.2-4.2 6.2-7.6 3.6-12.1-7.5-32.5-16.4-48.9-4.6-8.4-8.5-15.7-9.5-20-1.8-8 5.5-24.9 12.6-41.3 6-13.9 11.6-27.1 11.6-34.4 0-11.9-14.1-15.7-26.5-19-4.8-1.3-9.4-2.5-13-4.1-6.2-2.7-8.1-14.2-10.5-28.8-2.5-15.1-5.6-33.9-15.1-48.5-14.7-22.7-32.5-22.7-67.9-22.7z"/><path d="M862.9 738.4h.4c10 .8 21.7 18.3 20.8 35.8-.8 16.9-7.8 49.3-21 49.3-.5 0-1 0-1.5-.1-14.2-2.5-8.3-25-8.3-40 0-18 0-45 9.6-45m0-.6c-10.2 0-10.2 26.4-10.2 45.6 0 3.3-.3 6.9-.6 10.7-1 13-2.2 27.8 9.4 29.9.5.1 1.1.1 1.6.1 13.6 0 20.8-32.5 21.6-49.9.9-18.3-11.2-35.6-21.4-36.5-.1.1-.3.1-.4.1zM867.1 954.1c8.3 0 17.9 3.7 22.9 11.9 10 16.7 17.5 32.5 4.2 33.3-.6 0-1.3.1-2 .1-13.7 0-36.5-8.1-39.7-35.1-.8-6.5 6.2-10.2 14.6-10.2m0-.6c-5.7 0-10.6 1.7-13.2 4.6-1.6 1.8-2.3 4-2 6.3 1.4 12 7 21.8 16.1 28.1 6.8 4.7 15.8 7.5 24.1 7.5.7 0 1.4 0 2-.1 3.4-.2 5.8-1.4 6.9-3.6 3.2-6.1-3.6-18.9-10.6-30.6-5.3-9-15.5-12.2-23.3-12.2z"/><path fill="none" stroke="#000" stroke-width=".6" stroke-linecap="round" stroke-linejoin="round" stroke-miterlimit="10" d="M1601 573.1c-18.7 14.3-61 42.6-68.6 30-9.4-15.6 12.8-36.1 18.9-38.9 4.5-2 34-25.4 49.7-34.9"/><path fill="none" stroke="#000" stroke-width=".6" stroke-linecap="round" stroke-linejoin="round" stroke-miterlimit="10" d="M1601 519c-14.4 9.1-40 28-42.5 28.6-3.3.8-17.5 8.3-28.3 20s-21.7 39.2-25.8 42.5c-4.2 3.3-58.3 50.8-66.7 52.5-8.3 1.7-40.8 14.7-48.3 22.5-18.3 19.2-80.7 83.1-102.5 35.8-20-43.3 32.5-74.2 51.7-105 19.2-30.8 34.2-64.2 41.7-73.4s39.2-24.2 48.3-35 52.5-48.3 71.7-55c17.7-6.2 61.5-27 100.9-28.3"/><path fill="none" stroke="#000" stroke-width=".6" stroke-linecap="round" stroke-linejoin="round" stroke-miterlimit="10" d="M1601 509.5c-15.2 10.7-38.9 26-45.8 29.8-9.2 5-32.5 15-37.5 24.2s-24.2 37.5-28.3 42.5c-4.2 5-55 44.2-60 45-5 .8-33.3 14.2-40.8 18.3-7.5 4.2-60 80-92.5 46.7s40-75.9 50-94.2c10-18.3 33.3-65 38.3-72.5s47.5-29.2 52.5-37.5 38.3-39.2 50.8-45.8c12-6.4 80.6-35.5 113.4-32.3"/><path fill="none" stroke="#000" stroke-width=".6" stroke-linecap="round" stroke-linejoin="round" stroke-miterlimit="10" d="M1601 496.6c-16.9 14-55.3 42.8-60.9 43.5-6.7.8-25.8 10-35.8 20-10 10-23.3 43.3-40 55-16.7 11.7-40 30.8-48.3 31.7-8.3.8-26.7 7.5-34.2 10.8-7.5 3.3-46.7 71.7-72.5 50.8-25.8-20.8 22.5-54.2 35.8-70 13.3-15.8 36.7-80.9 49.2-89.2 12.5-8.3 36.7-15.8 41.7-23.3s40-50 65-60.8c22.3-9.7 75.3-24.6 100-20.4"/><path d="M1563 462.1c9 0 12.5 3.2 15.5 7.1 5.8 7.5-12.5 45-43.3 53.3-17.9 4.8-30.4 8.5-40.6 8.5-7.4 0-13.5-2-19.5-6.9-11.2-9.3-1.7-35.8 44.2-51.7 22.1-7.5 35.3-10.3 43.7-10.3m0-.6c-9.3 0-23.2 3.3-43.9 10.5-14.8 5.1-26.7 11.6-35.4 19.2-7.3 6.5-12 13.6-13.2 20.2-1 5.5.5 10.2 4.2 13.3 5.9 4.8 12 7 19.8 7 9.3 0 20.3-3 35.7-7.2 1.6-.4 3.3-.9 5-1.4 12.9-3.5 22.5-11.7 28.4-18 6.8-7.3 12.4-16.3 15-24.1 1.9-5.7 2-10.1.3-12.2-2.8-3.7-6.4-7.3-15.9-7.3zM1418.3 568.6c16.3 0 32.1 9.1 28.5 20.7-3.4 10.9-20.1 32.9-38.9 32.9-4.2 0-8.5-1.1-12.8-3.7-7.6-4.6-2.5-45.8 15.8-49.2 2.5-.5 4.9-.7 7.4-.7m0-.6c-2.5 0-5.1.2-7.4.7-10.4 1.9-16.5 15.4-18.7 27.4-1.8 9.5-1.4 20.4 2.7 22.9 4.2 2.5 8.6 3.8 13.1 3.8 18.8 0 35.9-22 39.4-33.3 1.1-3.7.5-7.3-1.9-10.6-4.8-6.6-15.7-10.9-27.2-10.9zM1342.6 658.6c1.5 0 3 .5 4.2 1.5 9 7.6-2.2 38.4-19.2 38.4-3.4 0-7.1-1.2-10.9-4.2-7.8-6.1 13.5-35.7 25.9-35.7m0-.6c-9.7 0-23.6 16.6-27.2 27-1.6 4.6-1.3 8 .9 9.7 3.7 2.9 7.5 4.3 11.2 4.3 4.4 0 8.8-2 12.7-5.9 3.4-3.4 6.2-8 8.1-13.1 3.3-9 2.8-17-1.3-20.4-1.1-1-2.6-1.6-4.4-1.6z"/><path fill="none" stroke="#000" stroke-width=".6" stroke-linecap="round" stroke-linejoin="round" stroke-miterlimit="10" d="M1601 414.4c-23.9 2.9-66.7 14.5-110 37.3-49.2 25.8-38.3 30.8-52.5 38.3-14.2 7.5-45.8 32.5-56.7 40.8-10.8 8.3-31.7 55.8-40 70-8.3 14.2-52.5 55.8-59.2 75-6.7 19.2-15 49.2-4.2 58.3s44.2 13.3 45.8 20c1.7 6.7-11.7 26.7-17.5 28.3s-25 10-29.2 5.8c-4.2-4.2-9.2-30-17.5-33.3-8.3-3.3-39.2-10-64.2 13.3s-27.5 50-15 59.2c12.5 9.2 35 9.2 37.5 17.5s-2.5 43.3-18.3 48.3-74.2 2.5-83.4 3.3c-9.2.8-66.7-2.5-69.2-22.5s15.8-23.3 11.7-31.7c-4.2-8.3-31.7-1.7-38.3-35.8-6.7-34.2 10-59.2 4.2-80.9-5.8-21.7-37.5-39.2-39.2-55-1.7-15.8 6.7-27.5 2.5-36.7-4.2-9.2-24.2-14.2-21.7-32.5s90.9-84.2 103.4-94.2 49.2-34.2 56.7-42.5c7.5-8.3 48.3-58.3 62.5-69.2 14.2-10.8 35.8-25 48.3-53.3s11.7-75.9 15-96.7c3.3-20.8 26.7-77.5 25-95-1.7-17.5-9.2-28.3-10-40s4.2-53.3 3.3-67.5c-.7-11.1-5.5-28.6-6.4-45.8"/><path fill="none" stroke="#000" stroke-width=".6" stroke-linecap="round" stroke-linejoin="round" stroke-miterlimit="10" d="M1240.4-2.5c15.6 30.7 26.8 78.7-9.5 81.6-38.2 3.1-58.6-43.7-59.9-81.6"/><path d="M1198 293.1c4.1 0 7.8 1.1 10.4 3.6 12.5 11.7 10.8 37.5 5 43.3-3.4 3.4-15.6 23.5-27.4 23.5-8.2 0-16.2-9.6-20.9-41-2.3-14.7 18-29.4 32.9-29.4m0-.6c-9.4 0-20.8 5.6-27.7 13.7-4.6 5.4-6.6 11.1-5.8 16.5 4.2 27.5 11.4 41.5 21.5 41.5 9.6 0 19.4-12.8 24.7-19.7 1.4-1.8 2.5-3.2 3.2-3.9 2.9-2.9 4.7-10.3 4.6-18.4-.2-10.9-3.7-20.3-9.6-25.8-2.7-2.6-6.5-3.9-10.9-3.9zM1540.3 475.9c4.9 0 9.2 1.5 12.3 5 12.7 14.6-21.6 37.4-44 37.4-6.3 0-11.7-1.8-14.8-6.1-6.5-9.1 25.5-36.3 46.5-36.3m0-.6c-7.6 0-17.6 3.6-27.3 10-8.9 5.8-16.2 13-19.2 18.8-1.8 3.5-1.9 6.4-.5 8.4 3 4.2 8.3 6.4 15.3 6.4 17 0 40.2-12.8 45.9-25.3 2.2-4.8 1.7-9.4-1.5-13.1-2.9-3.5-7.2-5.2-12.7-5.2z"/><path fill="none" stroke="#000" stroke-width=".6" stroke-linecap="round" stroke-linejoin="round" stroke-miterlimit="10" d="M1601 405.4c-24.3 4.1-51.2 14-62.5 18.8-13.8 5.8-55 23.8-72.1 34.2-17.1 10.4-34.6 25.8-41.7 32.9-7.1 7.1-39.2 28.3-46.3 34.6-7.1 6.3-32.9 51.7-44.2 72.1-11.3 20.4-25.4 30.4-46.3 59.6-20.8 29.2-21.7 64.2-28.8 73.8s-48.3 5-76.7 35.4c-28.3 30.4-26.3 44.6-23.3 53.3 2.9 8.8 30.8 32.9 30 41.3-.8 8.3-25 22.5-54.2 22.1s-43.8-3.8-42.9-15.4c.8-11.7 12.5-33.3 1.3-44.2s-65 2.5-64.2-33.3c.8-35.8 12.1-50.8 11.7-66.3-.4-15.4-24.2-47.1-22.5-58.3 1.7-11.3 15-32.5 10.4-44.6s-25.4-22.1-24.6-31.7 54.6-56.3 74.2-71.7c19.6-15.4 55.8-45 64.6-52.9 8.8-7.9 47.1-50.8 64.6-65.8 17.5-15 30.4-23.3 40.8-44.6s21.7-73.4 23.3-96.7c1.7-23.3 3.8-40 7.1-53.3 3.3-13.3 15-47.5 13.8-58.3-1.3-10.8-10.4-37.9-10.4-62.1 0-16.7-2-62-2.3-86.6"/><path fill="none" stroke="#000" stroke-width=".6" stroke-linecap="round" stroke-linejoin="round" stroke-miterlimit="10" d="M1601 382c-8.6 2-20.2 7.3-24.4 10.1-6.7 4.4-16.5 10.4-30.4 15.5-13.9 5-61.1 25-78.4 34.5-17.2 9.4-84.5 62.2-101.1 76.1-16.7 13.9-41.1 66.1-52.2 83.9-11.1 17.8-38.9 42.8-46.7 57.8-7.8 15-8.9 41.7-25 53.3s-44.5 21.7-57.8 30.6-45.6 50.6-54.5 51.7c-8.9 1.1-64.5-7.8-68.9-23.3-4.4-15.6 21.1-48.3 19.4-60-1.7-11.7-11.7-28.3-12.2-42.2-.6-13.9 18.9-48.3 16.7-62.2-2.2-13.9-10-26.1-5.6-42.2s48.3-56.7 61.7-68.9c13.3-12.2 60-56.7 68.3-63.9s63.3-42.2 73.4-81.7 13.3-110 18.9-137.8 13.9-48.3 12.8-70.6c-1.1-22.2-11.7-56.7-11.1-83.9.4-17.3-.2-43.5.1-61.1"/><path fill="none" stroke="#000" stroke-width=".6" stroke-linecap="round" stroke-linejoin="round" stroke-miterlimit="10" d="M1601 369.2c-19 9.2-54.1 28.7-65.9 35-14.2 7.5-65 29.2-77.5 35.8s-88.4 62.5-102.5 78.4c-14.2 15.8-32.5 57.5-50.8 79.2s-41.7 49.2-45 56.7c-3.3 7.5-13.3 41.7-24.2 50-10.8 8.3-48.3 20-67.5 32.5-19.2 12.5-31.7 39.2-41.7 39.2-10 0-33.3 0-32.5-17.5.8-17.5 40-21.7 51.7-30 11.7-8.3 50.8-50.8 60-60 9.2-9.2 77.5-91.7 50.8-125.9s-76.7 26.7-91.7 46.7c-15 20-42.5 68.3-54.2 65-11.7-3.3-1.7-29.2 0-48.3 1.7-19.2-4.2-40 4.2-53.3 8.3-13.3 29.2-35.8 45-48.3s50-48.3 64.2-60c14.2-11.7 64.2-45.8 72.5-75 8.3-29.2 13.3-81.7 15.8-127.5s15.8-92.5 15.8-106.7c0-14.2-10.8-65.8-10.8-95.9 0-13.6 1.2-29.7 1.6-41.6"/><path d="M1218.1 573.2c3.1 0 5.7 1.6 7.8 5.2 17.9 31.1-52.7 107.9-77.2 107.9-1.8 0-3.3-.4-4.5-1.2-4.8-3.3 48.6-111.9 73.9-111.9m0-.6c-23 0-67.2 85.5-73.8 107.1-1.4 4.5-1 5.5-.4 5.9 1.3.9 2.9 1.3 4.8 1.3 7.7 0 20.1-7.3 34.1-20.1 13.9-12.7 26.8-28.6 35.4-43.4 14.2-24.5 12.3-38.2 8.2-45.3-2.1-3.7-4.9-5.5-8.3-5.5z"/><path fill="none" stroke="#000" stroke-width=".6" stroke-linecap="round" stroke-linejoin="round" stroke-miterlimit="10" d="M1601 354.2c-9.5 3.6-20.6 9.5-31.7 16.7-16.7 10.8-80.9 44.2-92.5 46.7-11.7 2.5-41.7 20.8-48.3 27.5-6.7 6.7-32.5 28.3-39.2 30.8-6.7 2.5-32.5 25.8-40.8 33.3-8.3 7.5-43.3 61.7-50.8 56.7s1.7-44.2-6.7-60c-8.3-15.8-37.5-23.3-36.7-31.7.8-8.3 27.5-50.8 45.8-69.2s31.7-45 34.2-71.7c2.5-26.7-12.5-73.4-6.7-114.2s13.3-96.7 12.5-126.7c-.6-19.9-4.9-66.8-7.7-95"/><path fill="none" stroke="#000" stroke-width=".6" stroke-linecap="round" stroke-linejoin="round" stroke-miterlimit="10" d="M1601 335.8c-21.4 12.3-54.2 26.7-68.4 38.4-20 16.7-37.5 20-48.3 6.7s-27.5-23.3-39.2-19.2c-11.7 4.2-54.2 30-60 20s-5.8-53.3-10.8-67.5-31.7-59.2-30.8-92.5c.8-33.3 14.2-101.7 20.8-125 6.7-23.3 12.5-31.7 10-41.7-1.7-6.8-13.6-43.8-17.8-57.4"/><path fill="none" stroke="#000" stroke-width=".6" stroke-linecap="round" stroke-linejoin="round" stroke-miterlimit="10" d="M1601 251.6c-14.6.1-38.4 1.5-50 2.6-18.3 1.7-71.7-14.2-90.9-21.7s-55-10.8-62.5-54.2c-7.5-43.3 22.5-65 30.8-90s64.2-51.1 71.4-90.8M-1.3 1427.5c7.2 3.5 65.7 38.2 147.8-21.8s135.2-137.5 124.9-173.8c-10.3-36.3-53-67.2-108.5-59.9-55.6 7.4-84.3 5.4-101.2-6-23-15.4-58-9.2-62.8-8.4"/><path fill="none" stroke="#000" stroke-width=".6" stroke-linecap="round" stroke-linejoin="round" stroke-miterlimit="10" d="M-1.5 1385.1c13.9 3.2 102.5 43.1 142.5 9.4 40-33.8 105.7-103.8 103.5-136.3s-19.9-50.7-52.2-69.7c-25.1-14.7-94.1 24.7-127.5 6.8-38.9-20.8-48.6-20.3-66.2-16.3"/><path fill="none" stroke="#000" stroke-width=".6" stroke-linecap="round" stroke-linejoin="round" stroke-miterlimit="10" d="M-1.1 1351.5c7.4.6 146.8 16.7 180.1-34.6s53.5-69.6 24.7-92.3-95 6-142.7-6.6c-37.5-9.9-48.8-21-62.1-24M1601 1157.2c-78.1 12.3-64.3 58.5-120.8 104-43.9 35.4-18.7 99.4-33.4 136.7-7.7 19.4 4.8 49.2 55.4 29.2 50.5-20 85.7-4.9 98.8 2.1"/><path fill="none" stroke="#000" stroke-width=".6" stroke-linecap="round" stroke-linejoin="round" stroke-miterlimit="10" d="M1601 1386.1c-37.4-12.1-56.1 2.9-86.1.1s-49.9-58-28.6-88.4c21.3-30.5 39.3-62.7 60.1-87.1 20.7-24.5 35.7-28.2 54.6-32.4"/><path fill="none" stroke="#000" stroke-width=".6" stroke-linecap="round" stroke-linejoin="round" stroke-miterlimit="10" d="M1601 1351.8c-39.9-3.7-71.6 22.5-83.8 6s7.3-96.6 29.9-133.9c19.5-32.2 43.1-32.6 54-28.9M1601 1539.7c-25.5 10.8-33.8 18.7-59.2 16.6-25.4-2.1-43.1 8.8-42 19.6 1.7 18 .4 21.1-.8 26M443 1600.8c-6.3-8-17.3-25.4-15.6-43"/></svg>