<svg version="1.1" id="Layer_1" xmlns="http://www.w3.org/2000/svg" x="0" y="0" viewBox="0 0 1600 1599" xml:space="preserve"><g fill="none" stroke="#000" stroke-width=".6" stroke-linecap="round" stroke-linejoin="round" stroke-miterlimit="10"><path d="M1414.86-1.61c35.95 40.21 31.27 67.59 46.94 133.21l.6 2.7c6.3 32.4 63.3 86.6 83 116.2 30.7 41 30.5 96.4-16.9 72.6-1.1-.5-2.2-1-3.2-1.5-11.1-4.6-190.3-109.9-133-28.3 1.7 2.5 3.7 4.8 5.8 6.9 9.2 9.1 27 24.8 40.5 34.3 43.6 29.6 27.2 83.5 9.2 100.9-3.3 3.2-6 6.8-8.4 10.7-12.9 21.5-35.8 78.5 65.9 99.6 1.3.3 2.7.5 4 .7 7.9 1 40.3 6.7-3.2 33.1-12.4 7.5-11.6 29.9-14.8 48.6-8.1 46.5-47.9 61.7-80.1 31.5-.9-.8-1.7-1.6-2.6-2.3-42-35-113-68.9-106.3-23 1.2 8.2 4.6 15.9 9.5 22.6 18.1 24.5 56.2 65.3 75.1 104.7 21.1 43.1 50.6 83.8 51.8 85.3 3.7 4.6 23.8 54.6 6.4 66.5s-38.1-.9-59.6-28.9c-62.1-78.8-114.7-33.5-155.5-151.3 0 0-5.1-14.2-21.8-26.7-2.8-2.1-5.8-4-9.1-5.4-31.2-13.7-28.4-84.5-22.3-132.1 0 0 3.7-32.6 30.7-10.5 24.1 19.6 60.2 21.4 67.8 21.5.8 0 1.6.1 2.5.1 5.5.4 31-.1 30.2-41.8.5-90.2-41.5-144.2-6.7-187.8 24.1-28.9 25.5-70.9 22.7-123.1-1.2-23.6-16.9-58.7-35.1-91.5-22.1-39.9-37.6-45.5-45.9-53.8-6-6-3.4-26.9-24.5-70-2.64-5.41-5.73-9.08-9-12.1M1600 388.1s-49.8-58.5-3 53.7"/><path d="M1600 511.3s-99.3-126.6-17.5 42.6c0 0 36.1 82.5-16 99.7s-36.3 57.1-37 77.7c-.7 20.6 6.2 32.8-29.6 38.8s-50.9-7.3-26.6 59.2c23.8 65.1 10.7 179.3-64 117.4-2.9-2.4-5.6-5.2-8-8.2-11.2-14.2-48.8-61.4-61-69.6-14.4-9.6-66-35.3-89.4-67.9-23.4-32.6-16.7-42.2-45.9-77.7-5.8-7.1-36.2-18.8-48.2-69.2s-15.6-106.4-15.6-106.4-7.3-58.7 57.8-35.8c65.1 22.9 83.5 29.6 82.1-16.5s-50.2-112.8-26.8-141 26.1-69.5 21.3-102.5 9.6-91.5-38.5-123.8c-48.2-32.3-44-32.3-39.2-62.6S1191 17.7 1158.7 0"/><path d="M1600 763.7s-25.9 18.8-23 37.4-26.5 34.2-38.4 39.7-18.3 14.7-11 59.6c7.3 44.9 5.2 126.3-71.5 92.6 0 0-30.9-7.9-74.3-47.1-43.4-39.1-39.7-55-86.8-81-47.1-26-64.3-85.8-92.7-121.1-27.4-34.2-26.1-24.6-47.3-52.2-30.4-39.7-40.7-131.5-40.7-131.5s-8.6-78.6 34.2-76.7c42.8 1.8 57.5 2.8 64.2 2.8 29.4-.3 48 11.6 34.5-31.2s-31.6-85.5-37.6-102.4c0 0-7.2-21.2 8.4-45.1s11.9-68.3 10.5-105.9-10.1-52.7-40.4-60.5-51.7-5.5-33.3-58.4c10.57-30.55-11.45-60.63-31.94-80.6M1600 140.9s-14-7.3-23 0c-9.1 7.3-10.9 4.1-22.4-10.5-11.5-14.7-40.8-20.2-46.3-33S1484 64.5 1479.4 0"/><path d="M1602.2 880.2s-.89.22-2.2 1.24c-4.73 3.71-14.84 18.05-7.4 71.26 9.5 67.9-45.9 89-45.9 89s-26.6 26.6-73.4-6.4-104.4-66.8-148.1-122.9c0 0-53.7-39.2-72.9-66s-46.8-81.2-57.8-96.3-63.3-42.5-78.3-90.2-21.7-135.1-19.6-144.3-5.8-48.9 51.4-60.2 48.3-.6 45.2-43.1c-3.1-42.5-24.9-89.6-13.5-198.7 0 0 3.2-41.3-30.3-49.5-33.5-8.3-23.8-70.2-23.8-70.2s9.6-34.4-5-55.5c-6.79-9.81-20.25-24.17-32.57-38.4M136.6 1599s26.6-39.6 30.7-53.4c5.1-49.9 96.9 4.9 132.1-13.3 33.1-12.7 84.1 41.7 120.6 31.6 35.8-7.6 57.8 4.5 78 35"/><path d="M0 1497c34.5-12.3 2.4-62.3 54-65.4 92.1-5.2 47.9-219.6 179.5-86 0 0 29.8 44 83.7 28.2 86.1-42.6 88.8 81.1 144.7 48.2 104-71.8 65.8 122 178.9 145.8 0 0 26.94 13.69 53.88 31.3"/><path d="M-.24 1369.11c23.76-10.95 82.05 14.91 75.64-46.81 1.4-50.2-19.9-70.8 11-97.7s64-44 125.9 0c97.1 77.8 102.5 13.4 206.4 125.2 16.3 10.8 44.5 37.8 79.3-4.1s81.4-70.9 81.2-4.8c-24.6 222 53.5 146.2 173.1 258.1"/><path d="M0 1229.7s38.9-41.3 42.6-55.9c3.7-14.7 16.5-71.5 77-40.4 0 0 29.4 17.1 46.2 19.3s40.7-5.2 65.7 22c25.1 27.2 112.2 50.4 123.2 50.4s41.9 5.8 50.1-24.5c8.3-30.3 28-69.1 45.9-60.8 17.9 8.3 32.6 16.1 51.4 2.8 18.8-13.3 33.9-23.8 57.3.5s30.3 35.1 33.5 54.7 18.3 75.1 27.1 90.2 21.1 26.1 0 95.4-17 79.8 4.6 89 71.5 40.8 123.8 9.2 82.7 19.4 88.1 26.1c10.1 12.8 11.9 28.4 78 39 66 10.5 63.1 17.1 113 27.5 25.2 5.3 59.5 3.9 76.4-3.7 23.2-10.3 53.7-22.9 40.8-57.8-12.8-34.9-18.3-62.8-40.8-97.7-22.5-34.9-16.1-68.8 25.2-42.6 41.3 26.1 35 24.3 42.6 28.6s26 13.8 35.5 11.3 15 5.8 22.9 17.7c7.9 11.9 18.6 33.6 25.1 52 6.4 18.3 25.2 51.4 43.6 74.3 12.51 15.57 31.31 33.09 42.5 42.7"/><path d="M1080.87 1599c5.87-1.09 11.38-2.84 16.43-5.4 21.6-11.7 91.8-30.3 66.6-98.8-26.6-72.5-27.7-89 4-72.5 31.6 16.5 43.6.9 50.9 18.3s26.1 61.5 45.4 85.3c18.07 22.28 28.43 56.23 45.51 73.1M880.75 1599c34.77-36.21 104.27-7.14 161.16 0"/><path d="M1135.15 1599.22c15.14-4.03 34.07-13.5 41.55-35.72 13.3-39.4 12.4-76.6 12.4-76.6s-1.4-38.1 22.9-5.5c22.88 30.7 57.2 97.4 64.14 117.6"/><path d="M1168.9 1599s62.4-52.1 63.3 0"/><path d="M0 1139.3c59.9-49 45.1-127.9 108.1-60.1 1.1 1.2 2.3 2.5 3.3 3.8 35.5 45.2 93-26.2 135 36.4 2.3 3.5 5 6.7 7.9 9.7 20.8 21 41.7 41.6 53.1 3.2 3.9-13.3 3.2-27.4-1.3-40.5-13.5-38.9 3.2-112.3 69.6-102.8 1.1.2 2.3.3 3.4.4 41 4 90.6 3.8 101.5-9.8 11-13.8 46.1 2.8 68.1 4.8 22 2.1 56.4-10.3 49.5 36.5-13.8 104.4 46.7 95 50.9 194 3.3 83.8 43.7 79.8 26.2 153.4-29.4 126.2 95.8 13.6 135.5 66.1 2.5 3.3 5.4 6.3 8.4 9.1 30.5 27.4 52.7 60.9 111.9 83.6 2.6 1 5.1 2.1 7.5 3.4 86.8 47.7 225.4 42.8 171.1-61.2-2.4-4.6-5.4-8.9-8.8-12.8-25.8-29.5-54.3-82.5-43.2-104.7 27.8-62.7 77.6-2.7 107.5 27 8.3 8.2 18.6 14.1 30 17 15.5 4 37.7 11.7 55.4 37.8 24.2 35.5 41.3 104.3 84.1 137.6 15.22 11.84 24.87 20.96 30.99 27.8"/><path d="M0 934.3c-3-70.1 122.2 3.6 142.1-61.9 100.3-212.7 181.2 56.8 283.4 4.1 44-26.2 42.6-39.5 117.9-43.1 75.2-3.7 82.7-28.2 92-32.3 143.1-63.1 22.1 158.6 15.3 224.9-17.7 39.9 26.9 120.2 58.9 200.6 45.5 74.5 78.7 83.6 119.5 158 52.1 69.9 104.3 110.3 180.2 133 22.9-.9 82.1 2.3 29.4-67.4-80.1-109.7-14.6-130-26.6-212.3-7.3-15.1-12.4-22.9-2.3-37.6 10.1-14.7 9.5-18 12.4-24.3 5-11 22.5-32.6 45.9-.5 58.5 56.8 29.9 65.9 63.3 112.4 22.1 25.5 20.2 42.7 44.1 67.2 7.1 7.3 15.8 12.7 25.5 15.8 88.9 28.4 79.4 59.8 120.3 131.1 24.1 42.4 54 51.7 77.5 93.1"/><path d="M-.05 841.1c5.8-1.06 14.15-2.85 25.15-5.8 23.8-6.4 68.8 3.7 81.6-22s51.4-78 89-79.8 56.9-3.2 107.3 40.1 62.4 83.7 134.8 57.1c0 0 45.9-26.1 91.7-26.6 45.9-.5 87.6-22.3 94.9-29.8 8.4-8.7 34.9-24.3 46.3-28 11.5-3.7 84.4-46.3 79.8 22.5-4.6 68.8-39.9 145.4-39.9 145.4s-32.9 59.9-35.5 90.2-1.9 78 9.7 116.5c8.9 29.4 31 72.8 50.5 105.1 8.6 14.2 18.9 27.3 30.8 39 13.6 13.4 33.8 35.8 45 60.1 17.9 39 68.3 93.1 83.9 108.2 15.6 15.1 70.2 45.9 70.2 45.9s68.8 28.9 30.3-41.3c0 0-17.9-32.6-19.3-76.6-1.4-44 5.7-111.9 9.9-131.8s23.2-88.7 25.9-89.7c2.8-.9 32.6-42.6 84.4 31.6 0 0 25.6 26.7 44.7 64.3 19.1 37.5 13.4 63.7 28.4 86.6s56.3 47.4 90.2 58.4c33.9 11 55.9 45.6 74.9 91.1 14.8 35.53 62.93 100.31 83.47 127.2"/><path d="M0 639.9s39.9 21.8 60.6 47.7c.2.3.5.5.7.8 62 63.2 61.3-33.7 138.8-5.8.7.3 1.5.4 2.3.5 98.5 12.8 173 158.3 260.8 106.5.2-.1.5-.3.7-.4 18.7-8.9 30.6-17.8 66.6-15.2 1.4.1 23.7.7 25.1.8 93.6 7.2 200.5-209 234.2-103.7.2.6.3 1.1.4 1.7 30 197.9-104.6 242-91 372.7.1.5.2 1.1.3 1.6 1.1 4.2 5.9 25.8.1 49.9-.2.7-.3 1.5-.3 2.3-1.8 75.2 80.1 134.9 113.8 192.4.3.5.5 1 .7 1.5 9.2 22.5 61.2 92.8 66.2 97.8 115.3 121 61-158.9 84.2-178.6.8-.7 11.8-21.7 12.4-22.5 20.3-27.9 17.8-135.5 65.1-109.4 1 .6 2 1.3 2.8 2.2 48.1 52 166.8 134.4 149.9 224.4-.1.3-.1.6-.1 1-2.7 28.4 32 41.2 47.2 44.3.7.1 1.4.4 2.1.7 97 41.8 68.5-85.7 111.6-51.2 1.3 1.1 2.4 2.4 3.1 4 29.5 65.3-34.5 61.8-16.8 117.5.3.9.4 1.9.5 2.8 1.52 43.87 95.23 123.96 107.57 172.8M1576.4 1595.2s-41.3-45.9-32.3-80.3c8.19-31.64 35.07-71.4 55.9-109.17M1513.1 1599s-9.6-15.9-17.9-23.2c-8.3-7.3-15.1-7.3-10.3-36.2s8.9-58.5 23.4-64.7c14.4-6.2 28.4-30.3 34.5-50.2 6.1-19.9 20.6-35.1 31.2-46.1 8.96-9.3 16.78-18.61 26-36.68"/><path d="M1600 1259.35c-6.68 3.4-12.97 8.97-12.6 19.65.7 19.9-.6 31.6-13.4 52.3-12.8 20.6-39.6 42-54.1 64.7-14.4 22.7-50.2 81.2-57.8 88.1-7.6 6.9-46.4 45-82.5-27.5 0 0-8.9-26.1 0-60.5s23.6-102.5 19-119-15.4-86.7-48.2-59.8-50 86.7-53.4 91.5-9.6 22.3-23.3 26.3-38 6.2-46.2-22c0 0 6-58.9-17.8-80s-61-91.7-105.5-136.7c-44.5-44.9-74.8-108.7-100.9-35.8s-66.7 132.5-60.5 187.6-23.4 126.6-48.2 108c0 0-19.3-5.3-52.7-42.4s-50-92.2-82.5-121.3c-32.6-29.1-44.9-59.9-31.2-96.5s1-55.7-2.9-68.4c-3.9-12.7-7.1-40.7 16.7-69.6 0 0 21.1-28.9 22.9-36.2 1.8-7.3 17.9-44 26.6-58.7 8.7-14.7 30.7-78.2 27.5-132.9 0 0-3.2-23.5 11-64.8s.5-78.9-16.5-82.5c-17-3.7-32.6 28.9-55.9 33.5-23.4 4.6-84.4 50-117.4 83.7s-63.3 48.8-112.1 48.8-53 15.6-77.7 25-51.6 7.3-78.4-13.3-98.4-87.4-159.6-115.6c0 0-51.8-12.6-67.9-12.6s-61-18.3-69.2-23.8-47.7-9.2-56.9-22.9c-9.2-13.8 1.8-40.4 3.2-64.7s6.4-28 6-63.7c-.6-36.2 43.4-61.8 48.5-78.8 5-17 3.7-15.1 3.2-36.7s0-41.3 27.1-50.9 63.3-43.6 81.2-57.8 28.9-10.5 36.2-59.2c7.3-48.6 19.7-67 41.7-85.8 19.51-16.67 50.59-50.65 75.3-88.2M0 338.1s31.6-11 25.1-31.2S5 251 51.7 235.4s117.4-65.1 138.5-95.4 16.5-61.5 67.9-90.8c20.74-11.82 38.49-30.83 52.28-49.3M0 216.2s62.8-24.3 75.6-56.2 16.5-71.3 41.3-79.6c23.48-7.86 66.58-41.08 106.91-80.4M0 168.17c4.58-1.67 9.07-6.13 9.5-17.07.9-22.9 4.6-64.2 23.8-78.9C46.79 61.87 84.33 37.08 90.82 0M518.1 2.9s51.4 40.8 77 49.5c25.7 8.7 85.3 37.1 96.8 41.7 11.5 4.6 26.6-2.8 26.1-26.6s1.8-62.7-5.5-67.6"/><path d="M1033.6 5.7s51.3 48.2 28.4 103.9c-22.2 54.1-93.1 83.5-8.2 125.5 4.2 2.1 8.8 3.4 13.4 4 8.8 1.1 26.4 7.7 34.5 40.5 11 44.7 3.4 55.7 11 70.2 7.2 13.7 12.3 47.1-14.4 56.4-5.9 2.1-11.3 5.5-15.7 10-11.5 11.8-28.2 37.5-30.4 89.1-3.1 71.7-1.7 123.4-1.4 133.2 0 .9.1 1.8.2 2.7.5 5.4 2 30.2-13.9 38.2-17.9 8.9-40.6 22-57.8 5.5s-24.8-45.4-33-10.3c-8.3 35.1-13.1 67.4-19.9 80.5-6.9 13.1-26.1 75.7-22 105.2 4.1 29.6 18.6 97 77 37.1 56.8-58.2 45.4-74.1 85.8-81.9 2.6-.5 5.2-1.3 7.6-2.3 12.8-5.2 52.2-21.1 61.3-23.6 11-3 48.2-36.7 57.1 3.2s25.5 81.2 50.9 101.8c25.5 20.6 46.8 43.3 38.5 94.2s22.7 90.1 42 90.8c19.3.7 43.3-53.7 81.2-32.3 37.8 21.3 39.7 73.4 110.3 81.2 26.63 2.94 56.73-7.89 83.9-22.52"/><path d="M826.8 0c8.9 27.8 72.6 51.8 40.4 96.2-20.2 21.8-72.5 53-21.1 130.9 71.6 114.3 32.2 186.2-57.8 74.3-49.5-67.9-43.1-57.8-77-72.5-89.2-40.8-43.6-63.5-135.7-115.3C456 37.8 445.6-57 352.6 71c-131.5 133.6-44.3 95.5-62.6 226.3-2.9 30.5-81.7 58.7-98.4 92.2-19.3 29.6-25.5 28.2-57.8 50.2C-23.3 559 266.2 582.6 334 679.1c80 104.4 152 24.8 233.2 1.4 88.9-31.8 65.9-78.2 153.4-113.3 72.3-5.9 84-159.8 126.3-73.2 72 165.9-22.3 299.6-17.7 449.2 0 19.3-6.2 23.4-20.6 39.9-14.4 16.5-22.7 30.3-7.6 59.2 23.5 63.3-51 59.4-8.9 128.2 42.6 68.1 72.2 168.3 93.3 23.6 6.1-28.1 52.6-64.8 56.6-77 11.1-7.3 36.8-161.5 74.6-150.7 127.7-6 112.1-87.5 167.9 4 30.8 29.4-14.9 61.7-2.5 90.2 11.3 17.4 25.4 14.7 33.3 37.6s-2.4 37 4 60.4 30.6 70.8 73.3 39.1c54.6-28.5 82.8-111.2 109.7-68.9 32.7 64.5 60.3 92.1 61 156.4 20 116.2 82.1-12.5 60.1-49.5-7.12-38.14 40.87-28.43 76.6-32.12"/><path d="M969.7 779c-8.2-1.2-15.9 4.3-18.1 12.3-8.7 32.1-33.6 134.1 15.4 84.3 57.8-58.7 16.5-86.2 9.2-93.6-1.8-1.8-4-2.7-6.5-3zM872.3 1053.2s1.5-20.8 8.3-30.6c6.7-9.8 21.4-38.8 32.7-20.2s12.2 50.4 5.5 63-33.9 42.8-44.3 9.5c0 .1-3.1-13.8-2.2-21.7z"/><path d="M1600 1177.83c-14.22-.37-35.83-.66-49.1.47-21.1 1.8-23.8 8.7-40.4 10.1-16.5 1.4-44.9.5-62.4-26.6s-39.9-80.8-74.3-63.6c-34.4 17.3-39 32.4-63.3 45.7-24.3 13.3-47.7 21.1-52.7-15.1-5-36.3 2.3-38.9-27.5-77 0 0-9.6-2.8-9.2-33.5.5-30.7.5-65.6-22-95.4-22.5-29.8-44-78.9-72.9-44s-78 46.8-88.1 50.9c-10.1 4.1-62.4 9-65.6 34.8 0 0-3.9 6.9-12.8 23s-5.7 34.2-11.2 48.4-13.8 50.4-36.5 78.2c-22.6 27.8-57.7 63.3-70.1 58.2-12.4-5-26.6-26.6-18.8-58.2s19.7-30.2 16.5-62.3c-3.2-32.1 3.2-38.3 10.5-55.4s7.3-39.6 6.4-72.6c-.9-33 0-95.6 8.7-116.1s25.2-113.2 26.6-125.5 16.1-77.5-1.8-130.7c-17.9-53.2-47.2-111.9-31.2-120.2 16-8.3 30.3-10.1 65.6 0s34.9 29.4 41.7-21.6c0 0 2.8-37.6 5-42.6 2.3-5 11.5-16.5-5-33.5s-58.7-26.1-67.4-87.1-30.7-80.7 2.3-107.3 66.5-40.4 37.6-75.7c0 0-54.6-33.9-74.3-61.5"/><path d="M925.09 0c36.79 18.62 93.92 51.64 95.21 77.7 1.9 38.5-47.7 58.7-62.8 76.1s-27.1 25.7-20.6 64.2c6.4 38.5 9.2 63.3 44 58.7 34.9-4.6 75.2-11.9 66 28.4 0 0-1 22.9 1.3 37.6s10.6 6.4-6.8 42.2-24.8 45.9-22 80.7 7.3 90.8-16.1 110.1-73.8 1.8-82.1 44.9-6 96.3-23.7 138.5c-17.6 42.2-25 100.3-17.6 129.9 7.3 29.6 11.4 73.7 17.6 80.1 6.2 6.4 4.4 22.9 55.8-16.5s77.7-67.6 96.9-74.3c19.3-6.7 49.2-21.7 60.5-33.3s56.9-39.1 74.6-14.7c0 0 6.1 7.9 5.5 35.2-.6 27.2 24.3 25.5 34.6 46.8s28.9 18.2 27.5 84.1c0 0-3.4 24.2 13.8 55.4 17.2 31.1 26.1 75.9 68.1 55.2 42-20.6 37.1-68.8 97-12.4 0 0 33.7 54.3 84.6 62.6 28.56 4.66 60.8-.89 83.6-6.65M305.9 458.6c1.6-.2 50.6-8 60.1-21.4 16.7-23.6 6.9-79.2 8.3-101.2 2.8-44.3-2.1-60.8 34.7-99.9 0 0 24.1-25.5 64.7 19.3 40.6 44.7 68.8 53.4 64.7 82.8s-43.3 46.5-57.1 57.6c-13.8 11-26.8 17.2-68.1 32.3s-28.2 40.6-44.7 64.7-58.5 68.8-94.9 29.6c-35.9-38.6-15.3-57.9 32.3-63.8z"/><path d="M404.9 322.5s-6-65.1 45.9-42.2 53.2 57.3 10.5 73.4-54.1 22-56.6-8.7l.2-22.5z"/><path d="M538.7 513.3s-10-56.9 34-62.4 144.9 3.7 126.6-93.6-67.9-87.1-81.2-89c-13.3-1.8-35.3-2.8-59.2-34.9-23.8-31.9-88.2-164.9-132.6-115.4s-73.7 60.5-73.7 98.1-1.4 147.2-37.6 171.5S166.2 472 197.8 502.2s94.2 90.1 102.5 100.4c8.3 10.3 37.1 39.9 82.5 18.6s57.8-40.6 90.8-43.3 73.8-30.9 65.1-64.6z"/><path d="M587.8 552.5s-2.8-64.7 58.8-66.7c61.6-2.1 95.3 11 95.3-89.4s-69.5-139-83.2-141.7c-13.8-2.8-52.3-13.8-75-56.4C561 155.6 451 48.3 417.9 75.8s-78.4 69.5-82.5 116.3 0 117.6-8.9 142.4-31.4 40.6-71.1 62.6-138.9 104.3-84.1 127.3c54.8 22.9 95.1 60.3 119.9 83.4s63.7 40.5 81.2 53.3 57.8 33 80.7 3.2c22.9-29.8 24.3-47.2 50.4-49.5 26.1-2.4 67.8-23.5 84.3-62.3z"/><path d="M615.7 607.8c6.3-6.4 11.4-13.9 15.1-22.2 6.8-15.2 23.1-43.5 51-47.9 38.5-6.1 79.8-10.7 97.2-79.5s-5.5-111-22.9-141.2c-17.4-30.3-46.3-63.3-77.5-79.3-31.2-16.1-58.7-35.3-66-52.3s-22.5-33.9-40.4-44.9S470.8 44.7 442.4 38.2c-28.4-6.4-88.5 72.5-103.6 85.3s-33.5 40.4-29.4 63.3 7.8 128.9-6 151.3c-13.8 22.5-34.7 10.5-77.9 54.6s-138.6 98.6-91.3 129.8 78 47.7 94.9 59.6c17 11.9 94.9 59.6 129.8 93.1s65.1 55.9 108.7 20.2 59.6-41.3 86.2-49.5c22.6-7 41.7-17.3 61.9-38.1z"/></g><g fill="none" stroke="#000" stroke-width="2" stroke-linecap="round" stroke-linejoin="round" stroke-miterlimit="10"><path d="M1357.4 459.9c22.5 44.9 44.5 76.4 49.1 85.1s24.8 62.4-32.6 35.3c-57.3-27.1-39-165.4-16.5-120.4zM1288.1 778.9s12.6 34.4 47.6 28 5.6-44.5 5.6-44.5-14.7-26.1-46.3-22.5c-31.6 3.6-14.4 26.1-6.9 39z"/><path d="M1600 1060.9s-28.2 36.7-64.2 37.3c-36.1.6-64.5-24.8-71.2-33.6-6.7-8.9-30-41.3-56.9-52.3s-37.6-19.3-51.7 14.1c-14.1 33.3-36.2 16.7-41.3-3.1-5-19.7-3.2-31.6 7.1-55s-14.4-54.1-28.2-63.3c-13.8-9.2-64.2-48.6-76.1-84.8s-29-80.9-69.7-76-63 15.3-63 15.3-61.1 19.3-23.5-27.5 29.2-33.8 12.2-180.5c0 0-17-74.8 17.4-95.4s79.8-41.4 61.8-80.3S1146 251 1146 251s7.3-61-36.7-61.5-11-90.2-11-90.2 11.9-23.5-5-58.9c-5.39-11.29-16.49-25.83-29.11-40.4M1241.38 2.1c9.78 15.04 34.4 51.7 48.12 61.8 17.4 12.8 25.7 31.2 30.3 61 4.6 29.8 22.5 55.9 39.9 66.5s53.2 19.7 62.8-12.4-9.6-121.5-27.5-140.3-33.9-9.2-44.5-12.8c-8.73-2.96-15.83-3.22-34.82-26M0 1588.7c122.1 2.8 127.9-223.8 199.9-171.1 57.6 80.4 124.6 9.5 195.8 66.5 39.4 33.5 65.1 13.8 68.3 6 3.2-7.8 22-30.7 45.4 16.1s69.7 92.8 69.7 92.8M0 1040.3s19.6-96.4 70.5-75.7 147.2 13.4 167.8-2.9c20.6-16.3 26.1-64.7 93.6-43.9s85.3 26.3 139-20.5 207.7-81.2 183 48.2c-24.8 129.3-52.3 107.3-11 170.6s22 105.2 63.3 162.3c41.3 57.1 187.1 198.8 205.7 211.9s235.9 123.4 169.9-32.2c0 0-48.2-35.9-51.6-99.2-3.4-63.3 31.2-115.6 83.7-53.7s64.2 73.1 81.6 76.4 50.4 6.9 77 63.7c26.6 56.9 66 118.3 84.8 125.7 12.7 4.93 23.53 15.98 28.79 28"/><path d="M1600 1229.86c-6.82.63-14.06.86-20.9.24-48.8 2.6-5.8 74.5-34.8 101.1-20.5 2.5-116.8 163.3-132.3 100.4-2.1-11 8.3-46.8 8.3-57.8s-6.9-6.2 3.4-68.8c10.3-62.6.7-48.8-20.6-118.3-42-121.6-102.9 153.4-185 19.9-13.1-11-55.7-92.9-66.7-147.2-11-54.3-77.7-64.2-111.7-63.7-46.8-2.3-65.1 92.3-85.3 128.4-6 18.3-52.3 65.6-43.1 120.2 10.7 92.9-42.3 85.4-78.9 33-9.3-37-121.1-141.9-68.8-185.3 38.2-52.3-50.1-62.1 1.8-117.8 36.7-22.4 31.2-31.7 34.7-50.1 26.7-75.4 25.8-148 50.6-239.4 26.6-80.7-24.8-211.2-57.8-142.2-29.4 63.2-95.5 47.6-152.2 128.4-84.9 90.1-81.1 11.8-182.5 77-58.7 29.3-111.9-29.4-148.6-71.6-47.7-75.8-303.8-75.6-247.8-194 .9-68.6 60.9-50.5 82.5-114.8 12.8-28.4 30.3-56.9 72.5-75.2 42.2-18.3 51.4-37.6 40.4-89.9-22.15-63.15 69.21-136.23 114.28-200.3M473.7 0s62.4 57.5 77 63.9 100 42.6 111 64.7c11 22 47.7 61.5 68.8 69.7 21.1 8.3 57.3 19.7 54.1-14.7s14.7-67.9 25.2-83 14.7-26.1 1.8-49.1c-8.87-15.82-22.06-37-34.63-51.5"/><path d="M265.7 448.5c7.6-4.3 15.6-8.1 23.7-11.4 19.4-8 66.1-35.8 66.9-116.4.9-101.8 75.2-176.1 109.1-139.4s70.6 92.6 83.5 100.9c12.8 8.3 30.3 20.8 50.4 23.7s33.9 3.8 24.8 32.3c-9.2 28.4-11 49.5-35.8 55.9s-62.4 13.8-76.1 45.9c-13.8 32.1-11.9 68.1-29.4 79.4-17.4 11.4-49.5 10.4-65.1 11.4-15.6.9-18.3 6.4-33 22.9s-30.3 40.8-55.9 34.2c-25.7-6.6-72.9-52-77.5-56.2-4.6-4.1-38.1-34.4-20.6-54.1 14.3-16.3 15.4-18.1 35-29.1z"/></g></svg>