<svg version="1.1" id="Layer_1" xmlns="http://www.w3.org/2000/svg" x="0" y="0" viewBox="0 0 1602.2 1602.2" xml:space="preserve"><g fill="none" stroke="#020203" stroke-width=".6" stroke-miterlimit="10"><path d="M1515.61 0c-4.18 29.74-.4 83.18 86.59 65.93"/><path d="M1466.45 0c-12.78 60.38 23.21 140.61 135.75 118.89"/><path d="M1429.29 0c-18.48 86.33 21.65 185.88 172.91 159.29"/><path d="M1272.38 0c8.61 4.12 20.02 7.1 34.92 6.8 211.55-6.54-38.41 208.68 294.9 185.43"/><path d="M1147.09 0c12.82 13.23 33 30.7 52.51 33.8 328.9-17.3 43.4 219.5 389.4 186.6"/><path d="M1129.9 178.7c-84-133.3 218.5-58.6 194.4-10.5-4.3 84.6-174.4 84.7-194.4 10.5z"/><path d="M1602.2 248.31c-308.06 48.25-166.57-143.02-348.5-176.91-295.4-117.6-198.6 229.3 23.4 183.6 55.9-2.4 31.6 41.6 61.4 76.5 96.3 150.2-46.5 332-212.8 336.6-135.9-31-111.6 189.4-155.5 117-46.6-32.4-122.1-120.3-176.6-72-36.7 33-84.4 22.9-67-12.4 33.6-113.6 183.9 4.1 221.5-82.1 8.2-53.7-10.1-48.2 13.3-88.1s7.8-94.9-18.3-106.9c-26.1-11.9-46.3 19.7-91.3-8.3-73.5-44.7-174.2 102.4-171.1-28 18.4-63.7-1.8-66-8.2-82.1C677.47 53.58 339.37 192.5 461.88 0"/><path d="M1190.9 206c-60.7-81 125.3-53.6 29.9 9.6-26.5 9.7-29.9-9.6-29.9-9.6zM687.83 0c.98 6.64 5.32 13.6 16.77 18.9 29.6 13.8 55 29.8 60.5 48.3 47.3 91.84 43.66-4.16 40.82-67.2"/><path d="M623.71 0c2.34 43.35 108.02 53.3 123.99 114.5 42.2 85.3 73 21.4 108.2 77 38.9 60 90.4 46.3 36.5-20.8C874.14 148.75 835.66 53.33 843.15 0"/><path d="M578.34 0c-10.65 49.83 80.47 56.68 114.56 92.5 45.9 36.8 64.5 116.2 111.4 121.2 13.8-2.9 19.3-16.1 31.7 4.6s116.3 79.9 141 77.8c70.5 10-94.8-183.9-72.9-205C913 76 902 53.3 891.7.3"/><path d="M549.7 0c-31.37 65.84 3.43 50.1 60.3 78.3 45.6 50.9 88 17.7 121.4 123.6 19.3 67.4 37.1 91.5 61.2 86.7 24.1-4.8 19.3-32.3 38.5-22 19.3 10.3 136.2 49.5 162.3 68.1 71.9 35.8 29.1 99.9 127.3 96.7 156.3-24.9 52.6 112.3 120.3 89.1 75.1-53.5 65.7-204.2-45.4-209.8-191-3.34-251.95-146.46-256.31-310.7"/><path d="M1028.81 0c11.7 63.67-40.31 136.68 45.99 209 99.6 105.3 184 21.3 232.1 114 16.5 54.8 58.5 86.6 16.5 186-88.2 184.3-221.7 98.7-314.6 164.1-38.5 45-56.9 63.3-61.4 27.5 0 0 28.4-16.5 33-44.9s-4.6-64.2 64.2-77c90.6-13.6 116.9-83.3 36.7-90.8-50.5-.9-68.9 12.8-81.2-33-4.3-100.5-95.4-64-149.9-78-27.5-3.7-27.9-11.9-50.2 2.7-22.3 14.7-92 69.7-84.7-25.7 0 0 1.8-35.8-17.4-65.1s-4.6-60.5-19.3-81.6C574.25 48.51 407.01 148.01 491.31 0"/><path d="M1155.6 402.5s40.6-7.3 57.9 0c56 12.1 39.3-80.7-54.2-77-168.8-27.8-105.9 73.5-3.7 77z"/><path d="M1602.2 269.87c-35.45 4.23-152.68 16.58-180.6-1.27-177-73.7 93.7 172.5-102 331.1-64.9 64.2-63.1 64.8-180.5 91.7C946.6 720.3 1106.9 891 915 909.7c-81.4-1.8 32.4-67 24.1-87.1-14.3-44.7-92.9-103.8-149.7-65.1-100.4 72-227.2 124.9-116.3-42.2 11.9-22 11-56.8 43.1-66.9 32.1-10.1 104.6-52.3 131.2-45.9 26.6 6.4 42.2-11.9 46.8-33 26.7-93.7 7.3-87.8-56.9-125.6-23.1-34.4-204.8 91.5-189.8-38.9C727.96 58.75 301.61 215.08 428.57 0"/><path d="M389.29.3C375.95 28.24 367.73 62 380 92.2c16 39 58 55 95 71 56 23 125 41 149 101 11 27 8 56 0 84-6 18-14 34-17 52-4 35 15 71 49 82 30 10 61 8 93 3 25-5 51-14 75 0 6 4 12 10 15 17 5 12 6 26 1 38-10 22-29 35-50 47-40 22-81 34-121 59-15 11-28 22-35 39-8 23-22 42-37 63-3 5-6 10-9 16l-3 3c-1 2 0 3-1 5-10 20-9 42-7 63 1 10-2 20-5 30-10 29-23 55-33 83-6 16-20 37-6 52 1 1 3 2 5 2 11 1 21-1 30-7 14-11 27-20 39-33 23-25 44-47 65-74 1-1 3-2 4-3 29-36 59-69 101-87 26-10 54-16 82-9 9 2 17 9 23 17 8 10 4 23-4 31-9 8-17 15-23 25-11 19-23 36-32 56-1 2 0 3-1 5-6 12-13 27-4 40 7 11 21 7 33 4 18-3 34-11 51-19 3-1 6-2 9-2 41 0 87-15 108-54l3-3c9-16 14-32 20-49 6-21 12-41 19-61 5-13 12-25 21-36 14-16 32-25 53-28 46-5 90-8 131-35 43-28 75-61 106-103 13-18 22-36 30-56 5-11 7-22 11-33 10-39 8-78 12-118 2-18 11-34 26-44 19-12 39-15 60-18 30.97-3.44 61.2-2.44 91.2-1.2"/><path d="M327.87 0c-.32.73-.62 1.47-.87 2.2-8 33-13 65-9 99 2 17 8 33 19 47 30 38 77 44 120 55 24 7 47 12 69 26 12 8 23 16 30 29l3 3c9 15 14 30 15 47 0 3-1 7-1 10-4 22-10 41-17 62-5 18-9 35-3 53 3 12 6 23 10 35 7 16 18 29 33 38 22 12 50 17 60 42 6 16-1 32-11 44-4 5-8 9-12 14-1 1-3 2-4 3-27 34-55 63-85 93-3 2-6 4-8 6-8 9-16 16-26 23-13 9-20 20-24 35-2 11-1 22 2 33l3 9c7 15 12 31 9 48-2 11-10 20-20 25-17 7-38 11-46 29-6 15-5 32-6 48 0 5-2 9-3 14-8 32-18 62-27 93-5 16-9 32-8 49 9 20 25 34 41 48 12 9 26 15 42 13 7-1 14-4 20-8 50-34 87-73 132-109 11-5 19-14 30-19 10-4 20 2 21 12 2 19 0 37 5 56 1 2 2 4 3 7 2 4 6 8 10 10 7 2 15 0 21-5 29-21 55-39 86-56 1-1 3 0 4-1 5-4 10-4 15-7 29 1 47-22 70-38 17-11 33-20 51-27 12-4 25-2 37-5 21-5 40-12 55-28 16-18 29-36 42-57 10-17 17-33 20-52 2-14 0-27 2-41 3-14 11-25 22-34 2-1 5-3 7-5 9-6 19-10 29-13 27-9 55-4 82-5 18-1 36-5 51-17 15-13 25-28 40-41 9-7 18-11 28-17 4-2 5-6 8-9 1-2 3-5 5-7 10-20 14-41 28-59 11-13 24-21 37-32 18-16 29-37 38-59l3-9c3-12 7-24 7-36-1-24 0-47 7-70 4-13 14-26 28-25 28.12.76 56.81-1.37 85.2-1.56M886.1 1602.2c-11.5-79.4 9.2-155.4 106.6-159.4 39.8 64.4-1.8 127.7-50.2 159.4M37 795.9s15.1 32.6 38.5 12.4 62.7-75.2 69.4-173.8-46.2-64.2-95.6-44.9c-49.3 19.2-38 38-29.2 60.5 8.7 22.5 18.8 55.5 18.8 78.9s-8.8 61-1.9 66.9z"/><path d="M79 670.3s-36-47.3 6.7-58.8c42.6-11.4 22.9 45.9 17 53.2s-9.8 22.6-23.7 5.6z"/><path d="M0 545.4s61.3 6.7 83.8 0 100.4-33.3 97.7 26.7c-2.8 60.1-24.3 102.1-26.6 147.4s-19.3 92-54.6 113.6-62.4 68.3-67.9 68.8c-4.96.45-22.6 6.84-32.4-7.38"/><path d="M0 960.01c6.46 1.34 22.86 2.34 40.7-15.51 23-23 44.3-71.1 71.7-80.7s48-42.2 57.2-89.9 18.8-150 49.5-188.9 43.1-58.7 54.1-66 35.3-24.8 16.5-83.5-82.4 3.2-104.5 35.3-117.9 39.4-143.6 36.7c-12.85-1.35-28.45-3.1-41.57-5.36"/><path d="M0 424.21c9.86-6.69 42.95-25.68 69.6-.21 31.7 30.3 73.8 38.5 99.1 9.6s25.7-75.7 55-67.4 96.8 30.7 97.7 65.1 30.3 67.4-10.5 98.6-78 58.2-95.8 121.1-23.2 115.1-29.7 156.4-11.1 63.6-57 81-45.4 48.9-61.6 63.9-19 44.9-66.8 40.1M1449.5 1602.2s66.7-145 77.7-156 27.5-32.3 26.8-46.1c-.68-13.46-3.93-69.32 48.2-94.44M1478.4 1602.2s39.9-81 49.5-112.6 43.3-62.6 55.7-70.9c12.4-8.3 2.1-38.5 3.4-48.8 1.1-8.06 1.76-30.04 15.2-36.23M1515.5 1602.2s39.98-158.04 86.3-165.37M1565.8 1598.9s11.16-87.33 36.4-106.86M1230.1 1602.2s65.4-54.9 118.3-73.4 110.1-243.5 121.1-254.5 30.9-23.6 33-66c1.62-31.31 63.98-65.23 99.7-79.76"/><path d="M1272 1602.2s105.9-52.1 118.3-72.7 57.8-116.9 59.2-128.6c1.4-11.7 12.4-81.9 39.2-105.9s35.1-35.1 44-53c8.65-17.4 46.02-62.85 69.5-65.94.68-.09 1.35-.14 2-.16"/><path d="M1318.1 1602.2s74.3-35.6 88.7-58c14.4-22.4 42.6-95.3 53.7-122.8 11-27.5 25.5-113.5 60.5-129.3 35.1-15.8 69.4-71.5 81.2-79.1"/><path d="M1362.1 1598.9s35.8-1.4 60.5-37.8c24.8-36.5 53.7-129.3 64-150 10.3-20.6 15.8-79.8 49.5-100.4 26.29-16.07 53.01-40.97 66.1-55.41M1054.7 1598.9s32.3-17.9 18.6-68.1c-13.8-50.2-39.2-91.5-24.1-129.3s27.5-117.6-11.7-97.7c-39.2 19.9-79.8 81.2-112.1 91.5s-55 9.6-92.2 3.4c-37.1-6.2-45.5 64.7-32 97s38.9 69.1 7.3 106.4"/><path d="M846.2 1598.9s11-42 0-87.4-.7-75 28.9-75c29.6 0 86-11.7 94.9-19.2 8.9-7.6 43.3-27.9 51.6 23.2s36.5 102 0 135c-14.78 13.36-24.08 20.98-30.11 26.6"/><path d="M754.7 1602.2s48.8-22 28.9-79.7-17.9-77.6-12.1-100-31.3-118.7 12.7-94.6 68.8 54.3 93.6 47.5c24.8-6.9 84.1-84.6 99.9-84.6s57-56.4 68.7-82.5 65.4-15.1 123.1-106.6 73.6-56.4 73.6-117.6 62.6-81.9 75-95.6c12.4-13.8 103.2-107.3 131.4-81.2 28.2 26.1 22 68.1 54.3 89.4s91.5 48.8 60.5 99.1-32.3 110.3-78.4 129.1c0 0-101.1 58.7-86 88.3 15.1 29.6 22.8 70.9 15.5 90.8s-66.4 127.1-131.1 103.1-69-73.5-120.5-62.5-87.2 65.1-73.5 122.7 71.5 101.6 66 131.9"/><path d="M1266.5 1289.8c-3.2-.6-13.8-8.7-20.2-43.8-6.4-35.1-39.4-33.2-21.1-59.8 18.3-26.6 21.1-8.3 46.8-80.7 25.7-72.5 58.2-154.1 76.4-156.8s28.2-63.3 73.1-27.5 103.6 39.9 81.6 81.4c-22 41.5-3.7 67.7-99.1 118.8 0 0-124.7 58.4-119.2 111.6s66 55 49.5 78.9c-16.4 23.8-49.4-18.4-67.8-22.1z"/><path d="M1235.3 1326.5s53.2 47.7 76.1 44.9 55.9-23.1 67-39.5 14.7-48.5-8.3-68.7-43.1-27.2-12.8-60.9c30.3-33.6 110.5-84.1 128.6-106.1s64-107.3 48.4-131.2c-15.6-23.8-86.2-57.8-91.7-78.9-5.5-21.1-25.7-60.5-63.3-21.1s-91.7 77.5-100 137.3c-8.3 59.9-85.3 138.7-105.5 155.2s-93.6 75.7-48.6 88.3 36.7-1.1 52.3 28.2c15.6 29.6 38.5 36.6 57.8 52.5zM0 320.7s54.1 29.7 89.3 0 51.9-84.7 92.2-55.3 60 78.9 91.6 79.2c31.6.4 85.3 14.1 87.4 54s21.3 79.8 36.5 88.1c15.1 8.3 8.9 33-8.9 47.1-17.9 14.1-141 91.9-139 148.3s-1.4 78.4-11.7 96.3c-10.3 17.9-18.6 70.9-21.3 88.7-2.8 17.9-34.5 74.3-70.6 88.7s-55.8 53.7-66.6 64c-10.8 10.3-26.6 39.2-75.4 42M0 1202.4s32.8 22.3 16.4 83.8c-5.87 22.03-11.54 38.63-16.4 50.86"/><path d="M3.1 1133.9s48.2 44.9 45.4 72.5c-2.8 27.5-25.7 145.8-16.5 171.5s11.9 47.7 37.6 69.7 29.5 78 28.1 105.5c-.7 12.8-2 30.3 4.8 49.1M0 1451.4s30.1 20.9 35.6 48.4 0 33 0 62.4c0 27.55-3.78 25.24 1.26 39.9"/><path d="M0 280.8s74.2-10 83.3-35.7 20.2-107.9 55.9-76.9S190.7 258 220 276.3c29.4 18.3 26.3 52.3 96.6 50.4 70.3-1.8 63.9 73.4 69.4 89.9s22 50.4 33.9 55.9 23.8 50.4 3.7 67c-20.2 16.5-110.9 49.5-127 96.3s-6.9 98.1-21.6 118.3-36.7 65.4-35.8 94.1c.9 28.8-5.5 71.9-32.1 94.8s-38.5 39.9-56.9 49.8c-18.3 9.9-61.9 41-71.3 59.4s-23.1 15.6-31.4 33.9-5.5 34.9 21.1 65.1c26.6 30.3 13.8 167.8 11 202.7-2.8 34.9-6.4 51.4 11.9 64.2 18.3 12.8 52.6 50.4 53.4 78 .7 27.5-4.8 74.4 12.7 106"/><path d="M0 217.93c10.74-1.53 48.08-8.38 56.7-30.83 10.1-26.3 45.9-130 69.7-121.7s27.5 32.3 44 76.2S221 291.9 296.6 301.1s96.7 15.6 98.6 31.2c1.8 15.6 4.6 80.7 22 103.6s45.9 73.3 44.9 87.1c-.9 13.8-10.4 41.5-56.6 54.7s-86.8 57.2-88.9 77.4 5.9 104.7-33.3 133.9-13.8 91.9-33 120.7c-19.3 28.8-56.9 93.2-91.7 114.2-34.9 21-64.2 44.6-60.5 86s13 127.6 12.8 155.1c-.1 12.8 12.3 44.9 34.1 56.9 21.8 11.9-2 59.6 13.6 78 15.6 18.3 22.9 29.8 33 42.9s8.7 25 11.2 68.1 12.6 53.2 49.3 61.5 96.3 26.6 117.4 21.1c15.83-4.12 23.38 1.54 25.79 8.51M0 156.4s48.3-22.7 53.8-54.3S76.5 11.4 105.4.3"/><path d="M195.5 0s-3.9 153 7.3 177.7 16.1 97 117.9 106.6 105.9 32.3 107.3 75 21.3 92.2 49.5 151.3-11.7 67.4-46.1 79.1-99.5 32.4-97.9 80.5 9.2 99-26.6 125.2c-35.8 26.1-13.8 88.7-18.6 104.6s-53.6 86.7-93.5 127.3-61.9 32.7-67.4 94.1c-5.5 61.4-10.9 126.8 17.6 139.1 28.5 12.4 98.6 49.5 101.4 56.4 2.8 6.9 6.9 22-.7 37.8s-15.8 23.4-2.1 59.8c13.8 36.5-8.3 76.4 14.4 88.7s123.1 30.9 142.4 25.1 41.3 8.6 39.2 27.9c-1.75 16.04-4.46 33.59-5.09 45.9"/><path d="M269.62 0c-8.3 25.45-41.36 135.97-7.42 187.1 38.5 58 78.9 67.2 160.5 81.9s67.9 56.9 67.4 65.6-19.3 72.5 10.1 121.1 57.3 86.2 54.1 105.9-33.9 50-45.9 62.4c-11.9 12.4-30.3 22.9-51.8 22.9s-64.7 2-61.9 32.2-3.3 110.2-18.9 120.6-49.4 35.7-43.5 54.9c5.9 19.3 14.2 56.4 12.8 67.4-1.4 11-61 75.2-70.2 92.6-9.2 17.4-129.8 138.5-85.8 179.1s142.4 23.4 158.2 57.1 52.3 70.2 49.5 90.8c-2.8 20.6-6.9 71.5 37.5 71.5s79.5-29.8 100.1-6.3 51.6 77.8 42 126.7c-9.6 48.8-12.4 63.3 13.1 48.8 25.5-14.4 37.8-22 57.8-28.2 19.9-6.2 39.2-70.9 37.1-99.1-2.1-28.2-34.4-126.7-24.8-154.5s22-46.4 46.1-48.4c24.1-2.1 99.1 6.9 98.4-16.5-.7-23.4-17.9-78.4 17.9-76.4 35.8 2.1 49.1 27.7 65.6 23.6s28-5 39-31.6 21.1-58.7 37.1-62.4c16.1-3.7 82.5 7.3 92.2-2.8 9.6-10.1 36.5-58.1 43.3-67.9 6.7-9.8 25.7-28.1 31-39.1s32.3-74 35.9-89.9c3.7-15.9 21.4-49.5 31.8-49.8s19 12.9 39.6 8.8 76.9-36.1 86.6-48.6 40.7-31.1 52.3-68.2c11.7-37.1 23.5-55 38.9-66s95.2-75.7 112.4-92.9c17.2-17.2 20.6-19.3 23.4-37.8 2.8-18.6 17.4-35.8 21.8-14.4 4.4 21.3-25.9 140.3-15.6 183.7 8.16 34.37 15.37 94.52 44.89 121.83M1190.4 1602.2s28.4-10.6-14.7-64.7-53.7-98.1-37.1-119.7c16.5-21.6 56.9-38.3 72.5-10.9s22 35.2 34.9 37.9 39 7.3 50 17c11 9.6 43.1 9.6 52.5-1.4s88.3-157.8 81.9-179.3c-6.4-21.6 2.6-95.5 45.1-123.7 42.5-28.1 74.9-61.8 82.9-83.5 7.21-19.8 18.16-44.18 43.8-52.7"/><path d="M703.8 1602.2s47.5-15.8 40.6-79.7c-6.9-63.9 2.8-121.7-9.6-150.9-12.4-29.2-31-62.3-5.5-73.9 25.5-11.7 71.5 2.4 89.4 21.5s54.1 10.2 64.5-8.4 8.8-41.3 52.6-46.8 58.3-64.9 61.9-71.8c3.7-6.9 9.8-33.9 42-33.5 32.2.5 68-19.9 98-65.7 30-45.9 67.3-80.7 65.4-97.8-1.8-17.1-12.4-70.6 37.6-85.4 50-14.7 160.1-118.4 165.1-135.8 5-17.4 41.3-88.1 60.1-58.2 18.8 29.8 27.5 78.4 27.1 92.6-.5 14.2 2.3 41.3 19.3 58.2 14.88 14.88 66.88 25.16 89.7 52.08"/><path d="M296.94 0c-7.67 17.66-31.15 75.39-26.54 110.8 5.5 42.2 18.2 88.5 34.6 103.6s30.5 30.7 82.8 28S508 245.6 516.7 302s-14 50.4-14.3 85.3 1.1 50.4 19.6 82.1c18.5 31.6 63.3 72 61.2 98.9-2.1 26.9-56.4 81.8-73.4 93.2s-74.3 9.2-80.3 38.1S441 806.5 420.4 823s-60.5 10.3-53 54.3c7.6 44 3.4 75-6.2 88.1s-111.4 127.8-122.4 145.8-31.6 81.9 39.9 79.2 94.2 8.3 103.2 40.6c8.9 32.3 34.4 48.8 77 29.6 42.6-19.3 41.3 27.5 43.3 47.5 2.1 19.9 3.4 26.8 24.1 29.6 20.6 2.8 68.1 13.8 75.7 57.1 7.6 43.3 35.1 76.4 42 37.1s-44-86.7-11-141.7 55.7-69.5 70.9-68.8c15.1.7 42.6-9.6 50.9-42.6 8.3-33 50.2-67.4 105.2-47.5s43.8-63.7 82.8-76.1 67.9 7.3 84.8-3.7c17-11 91.7-104.2 99.3-141.5 7.6-37.3 39.2-104.3 60.5-107.3s36.5 16.3 51.6 14.9c15.1-1.4 78.5-26.1 102.5-72.9 24-46.8 68.1-109.1 85-116 17-6.9 84.8-76.3 95.8-134.9s41.3-73.1 53.7-57.2c12.4 15.8 23.9 62.6 23.9 90.8s-31.5 124.5-10.9 162.3c4.99 9.15 9.33 17.51 13.2 24.97"/><path d="M311.66 0c-12.45 42.29-18.97 87.64-6.66 131.2l3 9c7 16 16 32 29 45 1 1 1 3 2 4l9 9c1 1 1 3 2 4s3 1 4 2c11 13 27 15 42 17 33 5 66 3 97 14 19 7 37 19 45 39 9 27 5 55 2 83-3 18-9 35-13 53 7 42 21 86 61 109 2 2 4 3 7 5 14 11 29 25 26 45-1 8-5 15-10 22-17 19-30 39-46 59-6 7-11 14-17 21-9 10-18 22-31 25-25 7-62 16-60 48 8 30 21 63 8 94-4 8-13 12-22 14-19 4-36 16-44 35-7 18-4 37-4 55 0 29-17 54-33 79-17 25-34 45-52 70-2 3-2 5-4 8l-3 3c-5 9-11 18-7 27s15 12 25 15c24 8 55 2 71 26 8 14 13 28 23 41 5 5 9 10 16 13 10 4 21 1 31-3 47-24 88-55 137-72 5-1 12 0 11 6-1 29-12 57-6 88 1 5 6 5 10 2 21-14 38-28 57-44 10-8 20-15 30-24 1-1 2-3 3-4 17-14 33-27 47-44 16-17 34-33 57-35 18-2 36 0 53-6 10-4 19-10 25-19 10-15 18-30 34-39 22-12 46-12 70-11 8 0 14-4 21-8 2-2 4-4 7-5l3-3c1-1 3-1 4-2 28-27 52-56 72-90l3-3c6-12 14-23 15-36 1-22 4-44 12-65 2-5 3-11 7-16 23-25 61-29 91-14 17 9 37 3 54-3 2-1 4-2 7-3 8-4 15-9 21-16 3-4 5-9 7-13 21-30 43-54 65-83 2-3 2-5 4-8l3-3c6-19 19-32 33-45 20-18 40-33 58-53 7-9 15-18 16-29 4-27 6-53 18-78 1-2 0-3 1-5 8-17 20-32 37-40 17.66-6.87 39.18-4.11 53.2 9.22.27.26.53.51.8.78"/></g><g fill="none" stroke="#020203" stroke-width="2" stroke-linecap="round" stroke-linejoin="round" stroke-miterlimit="10"><path d="M518.89 0c-50.22 81.07 24.58 71.84 83.41 103.1 39.3 54.2 88.6 20.7 103.6 118.4 9.6 60.2 27.5 69.8 36.5 87.7 8.9 17.9 6.9 53.7 52.3 33.7 56.4-12.8 187.3-10.5 220.8 55.7 25.5 58.5 6.5 61.3 38.7 61.2 32.2 0 105.1-6.2 109.2 37.1s-86.7 134.1-13.8 110.8c72.9-23.4 130-61.2 155.5-113.5 66.4-278.1-227.9-144.1-301.3-326.7-31-86-22.7-72.7-15.1-100.3 3.72-13.5-1.15-41.8-7.1-67.2"/><path d="M355.39 0c-10.42 31.05-16.84 63.69-9.39 97.2l3 9c10 27 34 45 60 56 37 15 74 23 111 37 31 13 61 33 72 66 12 36 7 73-5 109-9 30-12 62 7 90 36 52 100 51 154 67 7 2 16 5 15 14-1 8-7 13-14 18-47 30-91 54-131 91-7 7-13 14-18 23-14 31-37 54-64 75-5 4-8 9-11 15-3 7-4 15-3 23 2 10 6 20 10 29 5 14 1 28-4 41-11 29-25 55-40 82-17 34-28 68-36 106-3 17-5 32 1 48 3 7 8 12 15 14 11 3 22 1 32-3 59-24 106-71 143-122 14-13 25-27 37-43 16-22 30-42 46-64 7-8 12-17 20-24 6-5 10-12 17-15 19-6 40-15 60-7 6 2 5 11 2 16-28 41-49 79-68 122-7 14-13 28-15 43 0 7-2 15 4 21 3 2 6 3 9 3 15-2 28-10 42-17 2-1 3 0 5-1 3-1 5-3 8-4 14-3 26-7 40-11 9-2 16-8 25-11 38-12 74-22 109-42l3-3c22-11 39-27 55-46 1-2 3-5 5-7 20-31 23-64 32-98 4-13 10-26 19-36 15-15 33-23 53-29 19-5 37-6 56-11 17-4 34-6 51-11 12-4 23-8 35-12 18-7 31-20 42-36 13-20 25-37 40-55 12-16 23-31 34-49 5-8 8-16 12-24 9-17 16-35 21-53 9-33 11-64 19-97l3-9c1-3 2-6 4-8s4-4 5-7l6-6c3-1 5-3 7-5 9-6 19-8 29-10 29.53-3.58 58.27-3.15 87.2-.66M644 1602.2c172.2-47.1-76.3-387.6 139.2-329.8 90.3 34.9 36.8-35.8 83.9-51.4 121 21.6 62.5-78.1 128.4-102.4 33-3 79.3 14.8 98.6-19.5 28.9-60.6 72.9-85.7 75.2-138.8 11.2-148.5 68-16.8 200.4-177.2 13.8-17.9 14.5-79.1 37.2-88.7 22.7-9.6 100.4-79.1 113.5-44 14.19 94.68-9.36 195.53 81.8 232.29"/><path d="M231 .3c-62 382.7 138.3 186.4 224.7 331-1.9 38.6 13.7 133.9 27.5 144.9S546.5 556 507 588.1c-39.4 32.1-48.6 22.9-90.8 36.7-97.6 9.7-15.7 146.8-95.4 187.1-30.3 21.1 2.8 87.1-5.5 106.4-73.5 113-317.8 282-43.1 349.5 21.1 5.5 59.6 24.8 54.1 68.8s-47.7 86.3-11.9 103.2c35.8 16.9 78 49 120.2 39.8 122.1-25.5 50.1 85.2 42.2 122.5M1378.4 1107.3c-145.8 59.6 2.3-178.2 39.4-146.7 16.5 5.5 87.1 21.1 39.4 83.5-47.6 62.3-45.8 51.8-78.8 63.2zM1215.69 1602.1c2.31-8.92 4.64-17.82 6.81-26.1 10.1-38.5-5.5-60.5 11.9-65.1s104.6 18.3 119.2-14.7c67.8-88.6 84.3-233.1 134.4-318.8 26.79-16.82 79.77-64.32 114.2-99.53M1415.5 1602.2c14.7-3.8 94.6-168 102.8-193.6 1.36-47.15 38.49-103.25 83.9-127.65"/><path d="M0 1021.8c76.7 15.5 60.2-55.5 120.5-94.3 96.9-28.3 78.8-108.8 98.4-189.9-11.8-84.6 73.5-164 133.5-202.9 54.4-27.4-1.9-61.9-6.2-101.8.4-76.4-76.4-60.1-113.5-88.4-13.1-12-11-29.2-40.6-27.9-66.4.4-21.8 72.7-88 72.9C67.06 388.15 44 367.74 0 374.21"/></g></svg>