<svg version="1.1" id="Layer_1" xmlns="http://www.w3.org/2000/svg" x="0" y="0" viewBox="0 0 1602.2 1602.2" xml:space="preserve"><g fill="none" stroke="#020203" stroke-width=".6" stroke-miterlimit="10"><path d="M322.56 0c7.08 18.11 21.16 40.92 48.94 54.3 51.3 24.7 108.2 55.9 133 89 24.8 33 15.6 43.1 85.3 48.6s129.3 4.6 165.1-30.3c35.8-34.9 52.3-89 112.8-100.9s67-23.8 45.9-28.4S796.2 8.5 765 31.4s-112.8 57.8-162.3 7.3C585.26 20.94 575.55 8.87 570.5 0"/><path d="M611 0s56.9 25.9 87.1 21.4S752.2 0 752.2 0M260.6 0s0 102.1 99.1 132.3 122 73.4 146.8 90.8 52.3 44 175.2 33.9 139.9-76.6 184.6-87.6c44.7-11 103.2-15.8 135.5-19.3 32.3-3.4 96.3-40.6 207.7-31s178.2 56.4 239.4 66.7c61.2 10.3 98.4 26 139.6 54.3 5.15 3.54 9.69 7.14 13.69 10.73M1319.74-1c4.99 10.75 17.71 26.4 48.66 46 61.9 39.2 95.6 90.8 118.3 110.1 22.7 19.3 68.7 44.7 115.5 32.3"/><path d="M1399.69 0c17.7 15.84 43.04 39.79 59.51 60.8 27.5 35.1 40.6 71.5 75.7 75.7 28.04 3.28 50.34 5.27 67.3-4.56"/><path d="M1450.11 0c12.32 7.87 32.12 21.83 43.39 36.7 17.2 22.7 18.6 52 75.7 44.6 13.48-1.75 24.28-3.81 32.9-5.95M504.74 1603.35c.05-11.22-.54-22.45-2.44-30.55-5.5-23.4-5.5-89.4 27.5-99.1 33-9.6 72.9-48.2 145.8-88.1s88.1-86.7 93.6-110.1 13.8-75.7 48.2-57.8c34.4 17.9 145.8 99.1 173.4 63.3 27.5-35.8 37.1-70.2 0-103.2s-104.6-81.2-104.6-189.9 13.8-90.8-11-97.7-76.5 27.5-74-27.5-22.3-150-49.8-172-78.4-26.1-133.5 5.5-45.4 24.8-63.3-4.1-92.2-276.5-64.7-276.5 45.4 8.3 78.4 23.4 105.9 49.5 144.5 46.8 49.8 0 62.8 28.9c12.9 28.9 41.8 112.8 95.5 111.4s135.5-4.1 175.4-27.5 53.7-33 105.9-.7c52.3 32.3 100.4 51.6 119.7 22 19.3-29.6-4.1-123.1 29.6-125.9s227.5-18.8 242.1 42.6 39.4 135.7 9.2 174.3c-30.3 38.5-31.2 144-57.8 187.1s-22 71.5-55 98.1-68.8 78-81.6 106.4c-12.8 28.4-55.9 66-37.6 100.9s76.1 44.9 62.4 78c-13.8 33-47.7 59.6-8.3 81.6 39.4 22 53.2 2.8 76.1 45.9s35.8 55 53.2 63.3 25.7 24.8 10.1 41.3c-12.39 13.11-48.51 59.78-72.96 89.9"/><path d="M778.86 1603.35c-5.15-11.61-13.19-23.92-25.76-33.75-33.9-26.6-46.8-37.6-12.8-66 33.9-28.4 52.3-89 75.2-91.7 22.9-2.8 25.7-.9 51.4 12.8s15.6 41.3 90.8 27.5 73.4 11 84.4 32.1 2.8 60.5 38.5 50.4c35.8-10.1 62.4-43.1 65.1-85.3s29.4-78.9 50.4-87.1c21.1-8.3 28.4 8.3 42.2 35.8s23.8 52.3 55 78.9c23.33 19.89 31.28 78.74 19.23 126.35"/><path d="M878.71 1603.4c9.59-27.41 23.32-54.33 40.39-60.5 35.8-12.8 69.1-.9 100.1 46.8M1149.04 1603.35c13.53-16.23 40.01-44.66 60.86-46.65 27.47-2.62 50.98 8.55 36.43 46.21M1239.7 734.9s24.8 33 53.7 27.5c28.9-5.5 63.3-21.3 73.6-60.5 10.3-39.2 21.3-80.5 45.4-79.1s32.3 11.7 38.5 38.5 2.8 91.5 8.9 108.7 24.1 81.2 6.2 109.4-163.7 180.2-180.9 195.4c-17.2 15.1-26.8 37.8-97.7 37.1-70.9-.7-125.9-30.3-141-69.5S979 852.6 957 831.2c-22-21.3-73.6-76.4-35.1-109.4s218.8-58.4 317.8 13.1z"/><path d="M992.8 784.4s30.3 22.1 48.8 83 19.2 204.5 161.7 194.3 200-152.7 235.3-184.4c35.2-31.7 10.3-137.6-41.3-133.5-51.6 4.1 0 28.9-110.8 27.5s-156.8-15.8-222.2-34.4c0 .1-125.2-22.8-71.5 47.5z"/><path d="M1174.4 971.6S1107 862.2 1190.9 834c83.9-28.2 120.4-9.6 160.3-15.8s82.5 9.6 60.5 49.2-108.7 137.9-150.6 140c-42 2-79.8-14.5-86.7-35.8z"/><path d="M1338.1 850.5s-145.1-35.1-147.2 42 48.8 109.4 88 83.9 107.3-73.6 96.3-99.1c-11-25.4-24.9-24.3-37.1-26.8z"/><path d="M1261 871.1s-45.4-3.5-36.5 42.6 31.5 48.2 49.1 37.2 53.4-28.5 47.2-53.1c-6.1-24.6-59.8-26.7-59.8-26.7zM669.7 608.4s56.9-13.8 8.3-45.9-94.5-27.5-78.9 0 22.9 55 70.6 45.9zM1176.9 1290.8s-50.4-22.9-15.6-40.4 84.4-9.2 73.4 34.9-52.3 8.3-57.8 5.5zM1600 1427.4s-92.9-144-88.3-177 1.8-45.9-14.7-57.8-26.6-36.7-6.4-88.1 87.1-64.2 90.8-124.7c3.46-56.53-1.12-79.45 20.7-90.45"/><path d="M1600 1297.2s-11.3-62.4-27.8-83.5-36.7-53.2-16.5-91.7c18.99-36.19 21.72-39.16 46.4-47.77M353.7 1603.4s55.6-54.8 53.9-100.5-3-65.4 36.9-75.5 74.3-36.2 75.7-73.4-22-156.8 17.9-144.5c39.9 12.4 66 56.4 99.1 32.3 33-24.1 26.1-88.7 96.3-121.7s-37.1-108.7-44-152.7 0-121.2-57.8-96.4-88.1 115.6-122.4 59.2c-34.4-56.4-33-156.8-97.7-233.9s-50.9-154.1-57.8-199.5-72.9-166.5-114.2-196.1-35.8-39.4-24.8-60.6 17.9-62.5 56.4-39.1 92.2 39.7 118.3 39.1 90.8 42.1 130.7 83.3 143.1 38.5 183 30.3c39.9-8.3 144.5-17.9 165.1 30.3s46.2 136.2 111.1 122.4c65-13.8 92.5-30.3 146.1-28.9 53.7 1.4 53.7-23.4 65.4-42.6 11.7-19.3 117.1-136.7 151.1-125.7s11.9 33.9 108.2 36.7c96.3 2.8 99.4-3.7 152 60.5"/><path d="M241.65 1603.35c9.67-24.62 27.58-68.2 39.15-84.25 16.5-22.9 24.8-35.8 8.3-87.1s22.9-88.1 83.5-102.7 63.3-42.2 55-80.7-51.4-82.5-7.3-100.9 78.9-44.9 118.3-44 62.4-18.3 44.9-47.7-61.5 2.4-92.6-21.3c-31.2-23.7-61.5-72.3-110.1-91.5-48.6-19.3-90.8-25.7-98.1-91.7s35.8-102.9-22-118-76.1-3.1-81.6-90.2S186 433 155 398.6 85.5 303 97.2 272.7s24.1-28.2 28.9-61.9c4.8-33.7 60.2-200.3 88.7-178.8s40.4 61.8 54.6 71.9c14.2 10.1 58.7 56.9 85.8 61.5 27.1 4.6 83.3 15.1 124.4 54.6s78.3 70.6 172.3 68.8c94-1.8 153.6-27.5 177.9-42.2 24.3-14.7 39.4-15.8 72.9-6.3s50.9 28.3 66.7-14.4c15.8-42.6 186.4-77 247.9-47.7 61.5 29.4 39.4-35.8 139.4 20.2s219.6 55 245.5 119.2M0 1177.01c4.14 2.73 7.96 7.01 11.2 13.29 22 42.6 20.6 42.6 48.2 60.5s37.1 17.9 44 63.3 52.3 41.3 53.7 94.9c1.4 53.7 18.8 100.9-50.9 190.3"/><path d="M0 1239.38c6.43 3.41 13.63 7.35 19.4 10.82 13.8 8.3 29.6 15.1 38.5 50.2s12.2 50.9 37.1 77 48.2 63.3 44.8 103.9-45.8 81.2-77.9 92.2c-16.91 5.78-41.43 7.58-61.9 13.77"/><path d="M0 1271.87c9.45 7 21.33 18.58 25.6 34.63 7.6 28.2 13.1 46.8 32.3 69.5 19.3 22.7 54.3 51.6 55.7 84.6 1.4 33-9.6 55.7-50.2 72.9-21.07 8.93-44.34 10.98-63.4 13.6"/><path d="M0 1145.34c13.45-.11 31.61 3.95 46.3 22.36 26.8 33.7 43.3 64 79.1 83.2s20.6 51.6 28.9 66 34.4 38.5 31.6 90.8c-2.72 50.84-.15 126.35-20.22 195.65M0 804.37c8.69 9.95 17.34 22.29 21.2 35.13 9.1 30.3 21.1 65.1 47.7 74.3s76.1 23.6 48.6-46.4-73.3-158.1-73.3-187.5c0-18.04-23.5-73.71-44.2-119.52"/><path d="M0 951.64c6.46 3.75 13.1 7.33 19.4 10.26 26.6 12.4 41.1 43.6 28.8 58.3s-66.4 54.1-30.6 78.9c35.8 24.8 73.1 38.5 96.2 79.8s76.2 50.4 78.1 72.5 38.5 129.7 68.8 80 74.3-51.6 80.7-63.5 23.4-22.9-4.8-57.8-33.7-86.2 7.5-103.6 112.8-27.5 77-69.7S300 953.3 249.6 902.9s-25.7-85.3-85.3-156.8-33.9-174.1-62.4-205.8-67-32.6-62.4-133.5-33.1-117.6 8.7-152.5 41.8-25.7 51-66c8.43-36.93 62.28-143.29 69.78-188.3M0 236.41c20.95-9.53 46.88-24.38 55.2-42.21C66.04 170.98 111.76 69.68 136.49 0M0 193.03c8.99-3.69 21.72-13.56 35.9-38.63C53.47 123.36 84.37 50.78 104.93 0M0 145.85c7.67-7.63 16.05-18.98 22.2-35.45C31.15 86.41 49.26 38.54 62.06 0"/></g><g fill="none" stroke="#020203" stroke-width="2" stroke-linecap="round" stroke-linejoin="round" stroke-miterlimit="10"><path d="M287.64 0c1.01 11.29 3.25 23.26 7.76 33.3 12.8 28.4 56.9 55 78 67s68.8 27.5 127.5 77 162.3 95.4 255 32.1 50.4-91.7 150.4-99.1c100-7.3 192.6-53.2 259.6-49.5 67 3.7 110.1 2.8 95.4-25.7-9.19-17.81-34.82-26.6-52.09-34.96"/><path d="M369.21 0c14.39 12.55 43.75 34.77 78.59 42.5 49.6 11 63.3 49.5 78 46.8 14.7-2.8 21.1-31.2 14.7-69.7-1.33-7.77-2.43-14.23-3.33-19.6M437.2 1603.35c4.28-12.37 7.95-28.21 10.1-48.45 8.3-78.4 19.3-90.8 86.7-134.8s143.1-107.3 161-144.5c17.9-37.1 15.1-103.2 72.9-111.4s97.7 16.5 94.9-27.5-27.5-155.5-68.8-165.1-55 14.2-53.7-64.7S721 758.2 683.7 742s-77.7 67.3-103.6 88.4c-26 21.1-45.6 23.8-57.5-9.2-11.9-33 8.6-78.9-33.6-116.9-42.2-38.1-42.2-47.2-40.8-109.6s-3.2-95.4-30.7-133.9-98.1-141.2-77-167.8 85.6-19.3 139.1 39.4 111.3 76.1 160.8 76.1 165.1-7.3 183.4 16.5c18.3 23.8 9.4 127.5 39.1 137.6s107.6 29.4 155.3-9.2c47.7-38.5 103.2-13.8 137.6-9.6s50.9 23.4 74.3-23.4S1253.5 403.5 1347 420c93.6 16.5 124.5 12.4 149.6 6.9s59.4 15.1 105.5 53.7"/><path d="M635.21 1603.4c-4.98-4.74-11.79-9.43-21.41-13.6-33.9-14.7-67.9-31.2-55.9-67 11.9-35.8 22.9-47.7 78-60.5 55-12.8 66-14.7 89.9-42.2 23.8-27.5 99.1-115.6 146.8-78.9s50.4 44 81.6 44c31.2 0 71.5-2.8 101.8 6.4 30.3 9.2 30.7-8.3 33-37.1s-20.2-74.3-13.3-108.2c6.9-33.9 14.9-49.8-7.1-80-22-30.3-73.6-47.5-99.1-119.7-25.4-72.2-10.3-128.6-17.9-147.2s-7.6-24.1-37.1-42.6c-29.6-18.6-54.3-29.6-60.5-75.7s-28.9-39.2-22.7-72.9 61.2-33.7 126.6-46.8 138.3-41.3 198.1-13.8 79.8 39.9 108.7 58.5c28.9 18.6 51.6 11 55.7-7.6s0-137.6 45.4-145.8c45.4-8.3 133.2-6.6 140.6 51.1 7.3 57.8-18.3 142.2-18.3 176.1s9.2 74.1-3.2 96.1c-12.4 22-60.5 98.4-112.1 150s-108.7 90.1-109.4 136.2c-.7 46.1 36.5 95.6 30.3 136.9s-15.1 89.4-.7 109.4c14.4 19.9 42 55 77 54.3 35.1-.7 73.6 37.1 61.9 65.4-8.57 20.66-41.15 43.9-67.98 75.15"/><path d="M1215.6 796.2s-118.3-11.7-112.1 88.1c6.2 99.7 53.7 132.8 97.7 146.5 44 13.8 105.9-11 125.2-36.5 19.3-25.5 81.9-98.4 101.1-116.9 19.3-18.6 28.2-77.7-9.6-90.1-37.8-12.5-125.2 20.6-202.3 8.9zM1511.33 1603.4c19.86-35.56 64.51-113.79 42.57-154-27.5-50.4-96.6-124.3-109.7-174.9s-49.8-83.7-37.9-113.1 15.6-111 61.5-130.7c45.9-19.7 45.9-10.5 50.4-51.8 4.6-41.3 17.4-109.5 41.7-136.4 22.78-25.22 17-96.93 41.89-104.23"/><path d="M300.4 1603.4c20.9-29.72 59.78-89.29 54.7-114.6-6.9-34.4-25.6-72.9 52.6-105.9 78.1-33 69.7-26.1 71.8-92.2s-30.9-129.3 43.4-130.7c74.3-1.4 134.8-15.1 148.6-89.4S624.7 956.4 600 967.4s-80.9 50.9-116.1 5.5-2.2-77.2-84.8-101.9-11-67.4-22-97.6-35.8-93.6-93.6-109.1c-57.8-15.6-73.4-111.9-30.3-146.8s-11-100-34.9-141.2-97.2-89.6-66-136.1 46.8-130.8 95.4-96.9 109.1 68.8 149.5 69.7 96.3 38.5 122 71.5 89.7 61.7 249.2 32.1c0 0 88.1-31.6 112.1-1.4 24.1 30.3 57.1 108 130 109.4s125.9-24.8 100.4-77c-25.5-52.3-81.9-88.9-17.9-107.4s51 33.1 97.7 26.2c46.8-6.9 77.7-62.6 115.3-45.2s48.6 27.5 109.1 52.3 88.7 0 136.7 43.1c25.1 22.54 40.5 32.55 50.4 39.6M0 1348.7c1.03 2 2.03 4.22 3 6.7 10.2 26.2 49.4 61.9 61.1 77s14.8 54.3-12.6 66c-11.87 5.09-31.72 9.91-51.5 15.09"/><path d="M0 903.17c19.16 18.11 61.1 56.64 83.4 68.43 29.5 15.6 35.9 19.3 37.7 46.8 1.8 27.5 5.5 37.3 15.6 43.9s26.6 13 33 49.7 26.6 94.7 51.4 61.1 34.9-74.9 52.3-100.5 33-64.2 0-85.3-72.5-45.2-113-151.1-68.1-159-82.5-222.3C69.38 576.45 30.73 518.53 0 469.79"/></g></svg>