<svg xmlns="http://www.w3.org/2000/svg" viewBox="0 0 348.4 100"><path d="M92.4,26.4h-.1a1.4,1.4,0,0,0-1,.5,1.6,1.6,0,0,0-.5,1.1V51.5a1.6,1.6,0,0,0,.5,1.1,1.3,1.3,0,0,0,1,.4,1.4,1.4,0,0,0,1.1-.4,1.6,1.6,0,0,0,.5-1.1V28a1.5,1.5,0,0,0-.4-1.1A1.6,1.6,0,0,0,92.4,26.4Z"/><path d="M109.2,26.4h0a1.7,1.7,0,0,0-1.6,1.6V46.7L99.7,35.3a1.4,1.4,0,0,0-1.2-.6,1.4,1.4,0,0,0-.9.3,1.2,1.2,0,0,0-.6,1.2,1.6,1.6,0,0,0,.3.9l10.6,15.2a.8.8,0,0,0,.5.5,1.2,1.2,0,0,0,.8.2,1.3,1.3,0,0,0,1-.4,1.6,1.6,0,0,0,.5-1.1V28a1.5,1.5,0,0,0-.4-1.1A1.6,1.6,0,0,0,109.2,26.4Z"/><path d="M135.6,27.7a1.5,1.5,0,0,0-1.5-1.1,1.6,1.6,0,0,0-1.6,1.1l-9.2,22.9a1.4,1.4,0,0,0-.2.6,1.7,1.7,0,0,0,1.7,1.7,1.7,1.7,0,0,0,1-.3,1.6,1.6,0,0,0,.6-.8l2.2-5.4,1.3-3.3,3.2-8.2c.3-.7.6-1.1.9-1.1s.7.4,1,1.1l3.2,8.2h-.1l1.4,3.5,2.1,5.2a1.6,1.6,0,0,0,.6.8,1.7,1.7,0,0,0,1,.3,1.7,1.7,0,0,0,1.7-1.7,2,2,0,0,0-.1-.7Z"/><path d="M176.5,29.9l1.1.8a1.6,1.6,0,0,0,1.2.4,1.3,1.3,0,0,0,1-.6h0a2.1,2.1,0,0,0,.5-1.2v-.2a2.4,2.4,0,0,0-.7-1.3l-1.4-1a1.3,1.3,0,0,0-.8-.2.8.8,0,0,0-.7.2,1.4,1.4,0,0,0-1,1.4A1.5,1.5,0,0,0,176.5,29.9Z"/><path d="M179.2,46.6a1.3,1.3,0,0,0-1.2.4,10.7,10.7,0,0,1-6.9,2.4,9.3,9.3,0,0,1-7.1-2.9,10.7,10.7,0,0,1-2.6-7.5,10.9,10.9,0,0,1,.7-4.2,2.2,2.2,0,0,0,0-1.4,2.1,2.1,0,0,0-.7-1.1,1.5,1.5,0,0,0-1.1-.4h-.5a1.8,1.8,0,0,0-1.3,1.1,14.3,14.3,0,0,0-1.2,5.8,13.8,13.8,0,0,0,3.9,10,13.6,13.6,0,0,0,9.8,4,14,14,0,0,0,9.1-3.2,1.6,1.6,0,0,0,.7-1.3,2.1,2.1,0,0,0-.5-1.3A1.6,1.6,0,0,0,179.2,46.6Z"/><path d="M194.7,35.9a2.4,2.4,0,0,0-1.3.2,2.7,2.7,0,0,0-.2,1.3v14a3.1,3.1,0,0,0,.2,1.3H196a3.1,3.1,0,0,0,.2-1.3v-14a2.7,2.7,0,0,0-.2-1.3A2.4,2.4,0,0,0,194.7,35.9Z"/><path d="M194.7,26.6a2.4,2.4,0,0,0-1.3.2,2.7,2.7,0,0,0-.2,1.3v2.7a2.7,2.7,0,0,0,.2,1.3H196a2.7,2.7,0,0,0,.2-1.3V28.1a2.7,2.7,0,0,0-.2-1.3A2.4,2.4,0,0,0,194.7,26.6Z"/><path d="M226.2,28.3a12.9,12.9,0,0,0-6.7-1.8,13.2,13.2,0,0,0-6.7,1.8,12.3,12.3,0,0,0-4.8,4.8,12.8,12.8,0,0,0-1.8,6.6,13.1,13.1,0,0,0,6.7,11.5,12.6,12.6,0,0,0,6.6,1.8,13.2,13.2,0,0,0,6.7-1.8,14.1,14.1,0,0,0,4.9-4.8,13.2,13.2,0,0,0,1.8-6.7,12.8,12.8,0,0,0-1.8-6.6A13.3,13.3,0,0,0,226.2,28.3Zm2.3,16.6a10.4,10.4,0,0,1-9,5.2h0a9.8,9.8,0,0,1-2.6-.5l-2.5-.9a13,13,0,0,1-2.1-1.7,9.8,9.8,0,0,1-3.1-7.3,10.3,10.3,0,0,1,1.4-5.1,11.7,11.7,0,0,1,1.6-2.1,10.5,10.5,0,0,1,2.1-1.7,10.7,10.7,0,0,1,5.2-1.4,10.1,10.1,0,0,1,5.2,1.4,12.9,12.9,0,0,1,3.8,3.8,10.2,10.2,0,0,1,0,10.3Z"/><path d="M245.8,27.1l-.6-.5-.7-.2a1.2,1.2,0,0,0-1,.5A1.6,1.6,0,0,0,243,28V51.5a1.6,1.6,0,0,0,.5,1.1,1.3,1.3,0,0,0,1,.4h.1a1.4,1.4,0,0,0,1.5-1.5V33.1l8.2,12.6a1.4,1.4,0,0,0,1.2.6,1.3,1.3,0,0,0,1.5-1.5,1.1,1.1,0,0,0-.3-.8Z"/><path d="M261.3,26.4a1.8,1.8,0,0,0-1.1.5,1.5,1.5,0,0,0-.4,1.1V51.5a1.6,1.6,0,0,0,.5,1.1,1.3,1.3,0,0,0,1,.4h.1a1.4,1.4,0,0,0,1.5-1.5V28a1.5,1.5,0,0,0-.4-1.1A1.6,1.6,0,0,0,261.3,26.4Z"/><path d="M290.3,50H285a3.1,3.1,0,0,0-.2,1.3,2.7,2.7,0,0,0,.2,1.3,2.4,2.4,0,0,0,1.3.2h4a3.1,3.1,0,0,0,1.3-.2,2.7,2.7,0,0,0,.2-1.3,3.1,3.1,0,0,0-.2-1.3Z"/><path d="M290.3,26.6h-4a2.4,2.4,0,0,0-1.3.2,2.4,2.4,0,0,0-.2,1.3,2.2,2.2,0,0,0,.2,1.2c.1.2.5.2,1.3.2h4c.7,0,1.1,0,1.3-.2a2.2,2.2,0,0,0,.2-1.2,2.4,2.4,0,0,0-.2-1.3A3.1,3.1,0,0,0,290.3,26.6Z"/><path d="M288.7,40.4a1.5,1.5,0,0,0,.4-1h0a1.8,1.8,0,0,0-1.5-1.5h-8.9V28.3a1.7,1.7,0,0,0-.5-1.2,2.1,2.1,0,0,0-1.3-.5,2.1,2.1,0,0,0-1.2.5,1.7,1.7,0,0,0-.5,1.2V51.2a1.7,1.7,0,0,0,1.7,1.7,2.1,2.1,0,0,0,1.3-.5,2.1,2.1,0,0,0,.5-1.2V40.9h8.9A1.6,1.6,0,0,0,288.7,40.4Z"/><path d="M317.2,31.5c0,.1.1.1.1.2a1.6,1.6,0,0,0,1.1.5,1.5,1.5,0,0,0,.8-.2h.1a1.5,1.5,0,0,0,.6-.9,2.4,2.4,0,0,0-.3-1.2l-.4-.4a1.4,1.4,0,0,0-1.1-.5,1.3,1.3,0,0,0-1.2.7h0a2.4,2.4,0,0,0-.2.8,1.3,1.3,0,0,0,.4,1Z"/><path d="M306.9,47.3a1.3,1.3,0,0,0-1-.4,1.4,1.4,0,0,0-1.2.6,1.3,1.3,0,0,0-.3.8,1.8,1.8,0,0,0,.4,1h.2c0,.1.1.1.1.2a1.3,1.3,0,0,0,1.1.5l.8-.2h0a1.1,1.1,0,0,0,.6-.9,1.1,1.1,0,0,0-.3-1.1Z"/><path d="M314.8,38.6l-1.6-.3h-.6l-.5-.2-1.8-.5a5.5,5.5,0,0,1-2.4-1.5,3.7,3.7,0,0,1-.8-2.2,3.9,3.9,0,0,1,1.4-3,5.7,5.7,0,0,1,3.5-1.2h.4a1.2,1.2,0,0,0,.9-.4,2.2,2.2,0,0,0,.5-.8h0a1.4,1.4,0,0,0-.2-1.1,1.2,1.2,0,0,0-1-.6h-.1c0-.1-.1-.1-.2-.1h-.6a10.6,10.6,0,0,0-3.7.9,7,7,0,0,0-2.8,2.6,6.6,6.6,0,0,0-1,3.7,5.5,5.5,0,0,0,2.3,4.8,16.2,16.2,0,0,0,6.1,2.4,33.2,33.2,0,0,1,3.3.9,7.4,7.4,0,0,1,2.1,1.3,3.4,3.4,0,0,1,.8,2.3,3.8,3.8,0,0,1-1.6,3.1,8,8,0,0,1-4.1,1.2h-.6a1.5,1.5,0,0,0-1,.4,1.6,1.6,0,0,0-.5,1.1h0a.1.1,0,0,1,.1.1h0a1.2,1.2,0,0,0,.4.8,1.4,1.4,0,0,0,.9.4h.6a9.3,9.3,0,0,0,4.5-1,7,7,0,0,0,3.1-2.5,6.7,6.7,0,0,0,1.1-3.7C321.7,42.2,319.4,39.9,314.8,38.6Z"/><path d="M34.9,26.7h.2a1.1,1.1,0,0,1,1,.6,1.4,1.4,0,0,1,.2,1.1h0a1,1,0,0,1-.5.8,1.2,1.2,0,0,1-.9.4h-.4A5.7,5.7,0,0,0,31,30.8a3.9,3.9,0,0,0-1.4,3,3.7,3.7,0,0,0,.8,2.2,5.5,5.5,0,0,0,2.4,1.5l1.8.5.5.2h.7l1.6.3c4.5,1.3,6.8,3.6,6.8,7a6,6,0,0,1-1.1,3.7,6.8,6.8,0,0,1-3,2.5,10,10,0,0,1-4.6,1H35a1.2,1.2,0,0,1-.9-.4,1.4,1.4,0,0,1-.5-.8h0a1.5,1.5,0,0,1,.4-1.1,1.8,1.8,0,0,1,1-.4h.7a7.4,7.4,0,0,0,4.1-1.2,3.7,3.7,0,0,0,1.5-3.1,3.4,3.4,0,0,0-.8-2.3A5.4,5.4,0,0,0,38.4,42a26.8,26.8,0,0,0-3.3-.9,15.1,15.1,0,0,1-6-2.4,5.3,5.3,0,0,1-2.4-4.8,7.6,7.6,0,0,1,1-3.7,7.3,7.3,0,0,1,2.9-2.6,9.5,9.5,0,0,1,3.6-.9h.7Z" opacity="0.6"/><path d="M40.7,28.9a1.2,1.2,0,0,1,1,.5l.4.4a1.3,1.3,0,0,1,.3,1.2,1,1,0,0,1-.6.9h0l-.8.2a1.3,1.3,0,0,1-1.1-.5l-.2-.2a.1.1,0,0,0-.1-.1,1.3,1.3,0,0,1-.4-1,1.3,1.3,0,0,1,.3-.8h0a1.1,1.1,0,0,1,1.2-.7Z" opacity="0.6"/><path d="M28.4,46.9a1.2,1.2,0,0,1,1,.4l.5.5a1.8,1.8,0,0,1,.3,1.1,1.3,1.3,0,0,1-.7.9h0l-.8.2a1.4,1.4,0,0,1-1.1-.5c0-.1,0-.1-.1-.2a.1.1,0,0,1-.1-.1,1.3,1.3,0,0,1-.4-1,2.4,2.4,0,0,1,.2-.8,1.4,1.4,0,0,1,1.2-.6Z" opacity="0.6"/><path d="M67.6,26.6a1.7,1.7,0,0,1,1.6,1.1l9.1,22.8a2,2,0,0,1,.1.7,1.7,1.7,0,0,1-1.7,1.7,1.7,1.7,0,0,1-1-.3,1.6,1.6,0,0,1-.6-.8L73,46.6l-1.4-3.5h.1l-3.2-8.2c-.3-.7-.6-1.1-1-1.1h0c-.3,0-.6.4-.9,1.1l-3.2,8.2-1.3,3.3-2.2,5.4a1.6,1.6,0,0,1-.6.8,1.7,1.7,0,0,1-1,.3,1.7,1.7,0,0,1-1.7-1.7,1.4,1.4,0,0,1,.2-.6L66,27.7a1.6,1.6,0,0,1,1.6-1.1Z" opacity="0.6"/><path d="M72.3,65.1v1.5a3.5,3.5,0,0,0-2.3-.9,3.1,3.1,0,0,0-2.2.9,3.6,3.6,0,0,0-.8,2.3,3.5,3.5,0,0,0,.8,2.2A3.1,3.1,0,0,0,70,72l1.2-.2.5-.3.6-.5v1.6a4.6,4.6,0,0,1-2.3.6,4.2,4.2,0,0,1-3.1-1.3,4.1,4.1,0,0,1-1.2-3,4.5,4.5,0,0,1,1-2.9,4.3,4.3,0,0,1,3.4-1.5A4.3,4.3,0,0,1,72.3,65.1Z"/><path d="M82.4,71H78.8l-.9,2H76.5l4.1-8.9L84.7,73H83.3Zm-.5-1.2L80.6,67l-1.3,2.8Z"/><path d="M88.8,73l1.7-9,2.9,6.5,3-6.5L98,73H96.7l-.8-5-2.5,5.4L91,68l-.9,5Z"/><path d="M104.4,64.6V73h-1.3V64.6Z"/><path d="M109.7,73V64.1l6.2,6.4V64.6h1.2v9L111,67.2V73Z"/><path d="M122.2,68.8a3.8,3.8,0,0,1,1.3-3,4,4,0,0,1,3.1-1.3,4.3,4.3,0,0,1,4.3,4.4,3.8,3.8,0,0,1-1.3,3,4,4,0,0,1-3.1,1.3,4.4,4.4,0,0,1-2.9-1.1A4.2,4.2,0,0,1,122.2,68.8Zm1.2,0a3.2,3.2,0,0,0,3.1,3.2,3.3,3.3,0,0,0,2.3-.9,3.2,3.2,0,0,0,.9-2.3,2.9,2.9,0,0,0-.9-2.2,3.1,3.1,0,0,0-2.2-.9,3.2,3.2,0,0,0-2.3.9A2.9,2.9,0,0,0,123.4,68.8Z"/><path d="M140.6,65.9l-1,.6-.5-.7h-.8a1.1,1.1,0,0,0-.8.3.8.8,0,0,0-.4.7,1.1,1.1,0,0,0,.9,1l.9.3a3.7,3.7,0,0,1,1.5,1.1,2.1,2.1,0,0,1,.4,1.4,2.5,2.5,0,0,1-.7,1.9,2.8,2.8,0,0,1-2,.8,2.4,2.4,0,0,1-1.8-.7,3,3,0,0,1-.8-1.8l1.2-.3a5.3,5.3,0,0,0,.3,1.1,1.7,1.7,0,0,0,1.2.5,1.3,1.3,0,0,0,1-.4,1.8,1.8,0,0,0,.4-1c0-.2-.1-.3-.1-.4a.5.5,0,0,0-.2-.4l-.4-.3-.5-.3-.8-.4q-1.8-.7-1.8-2.1a2.1,2.1,0,0,1,.8-1.6,2.4,2.4,0,0,1,1.8-.6A2.3,2.3,0,0,1,140.6,65.9Z"/><path d="M152.5,73V64.6h1.8a5.6,5.6,0,0,1,2,.3,3.9,3.9,0,0,1,1.4.8,4,4,0,0,1,1.3,3.1,3.9,3.9,0,0,1-1.4,3.2,2.9,2.9,0,0,1-1.4.8,5.3,5.3,0,0,1-2,.2Zm1.3-1.2h2l1-.6a3,3,0,0,0,.9-2.3,2.9,2.9,0,0,0-.9-2.2,3.7,3.7,0,0,0-2.5-.8h-.5Z"/><path d="M168.6,65.8h-3.4v2h3.3V69h-3.3v2.8h3.4V73h-4.7V64.6h4.7Z"/><path d="M183.2,69.5l2.6,3.5h-1.5l-2.4-3.4h-.3V73h-1.2V64.6h1.5a3.3,3.3,0,0,1,2.4.7,2.2,2.2,0,0,1,.8,1.8,2.5,2.5,0,0,1-.5,1.5A2.6,2.6,0,0,1,183.2,69.5Zm-1.6-1h.4c1.2,0,1.8-.5,1.8-1.4s-.5-1.3-1.7-1.3h-.5Z"/><path d="M195.1,65.8h-3.4v2H195V69h-3.3v2.8h3.4V73h-4.7V64.6h4.7Z"/><path d="M204.8,65.9l-1,.6a2.2,2.2,0,0,0-.6-.7h-.7a1.1,1.1,0,0,0-.8.3.8.8,0,0,0-.4.7,1.1,1.1,0,0,0,.9,1l.9.3a3.7,3.7,0,0,1,1.5,1.1,2.1,2.1,0,0,1,.4,1.4,2.5,2.5,0,0,1-.7,1.9,2.8,2.8,0,0,1-2,.8,2.4,2.4,0,0,1-1.8-.7,3,3,0,0,1-.8-1.8l1.2-.3a5.3,5.3,0,0,0,.3,1.1,1.7,1.7,0,0,0,1.2.5,1.3,1.3,0,0,0,1-.4,1.8,1.8,0,0,0,.4-1c0-.2-.1-.3-.1-.4l-.2-.4-.4-.3-.5-.3-.8-.4q-1.8-.7-1.8-2.1a2.1,2.1,0,0,1,.8-1.6,2.4,2.4,0,0,1,1.8-.6A2.3,2.3,0,0,1,204.8,65.9Z"/><path d="M211.2,64.6V73h-1.3V64.6Z"/><path d="M221.3,65.9l-1,.6a2.2,2.2,0,0,0-.6-.7H219a1.6,1.6,0,0,0-.9.3.9.9,0,0,0-.3.7,1.1,1.1,0,0,0,.9,1l.8.3a3.7,3.7,0,0,1,1.5,1.1,1.7,1.7,0,0,1,.5,1.4,2.2,2.2,0,0,1-.8,1.9,2.6,2.6,0,0,1-1.9.8,2.4,2.4,0,0,1-1.8-.7,2.6,2.6,0,0,1-.9-1.8l1.3-.3a5.3,5.3,0,0,0,.3,1.1,1.7,1.7,0,0,0,1.2.5,1,1,0,0,0,.9-.4,1.3,1.3,0,0,0,.4-1v-.4l-.2-.4-.4-.3-.6-.3-.8-.4c-1.1-.5-1.7-1.2-1.7-2.1a2,2,0,0,1,.7-1.6,2.8,2.8,0,0,1,1.8-.6A2.4,2.4,0,0,1,221.3,65.9Z"/><path d="M228.9,65.8V73h-1.3V65.8h-1.9V64.6h5.1v1.2Z"/><path d="M239.9,65.8h-3.4v2h3.3V69h-3.3v2.8h3.4V73h-4.6V64.6h4.6Z"/><path d="M244.9,73V64.1l6.1,6.4V64.6h1.3v9l-6.1-6.4V73Z"/><path d="M264,65.1v1.5a3.7,3.7,0,0,0-2.3-.9,2.9,2.9,0,0,0-2.2.9,3.2,3.2,0,0,0-.9,2.3,3.1,3.1,0,0,0,.9,2.2,2.9,2.9,0,0,0,2.2.9l1.1-.2.6-.3.6-.5v1.6a4.9,4.9,0,0,1-2.3.6,4,4,0,0,1-3.1-1.3,3.8,3.8,0,0,1-1.3-3,4.6,4.6,0,0,1,1.1-2.9,4.3,4.3,0,0,1,3.4-1.5A4.6,4.6,0,0,1,264,65.1Z"/><path d="M270.2,64.6V73h-1.3V64.6Z"/><path d="M280.5,71h-3.6l-1,2h-1.3l4.1-8.9,4,8.9h-1.4Zm-.6-1.2L278.7,67l-1.3,2.8Z"/></svg>