<?xml version="1.0" encoding="utf-8"?>
<!-- Generator: Adobe Illustrator 26.3.1, SVG Export Plug-In . SVG Version: 6.00 Build 0)  -->
<svg version="1.1" id="Layer_1" xmlns="http://www.w3.org/2000/svg" xmlns:xlink="http://www.w3.org/1999/xlink" x="0px" y="0px"
	 viewBox="0 0 100 17" style="enable-background:new 0 0 100 17;" xml:space="preserve">
<style type="text/css">
	.st0{opacity:0.6;enable-background:new    ;}
</style>
<g>
	<path class="st0" d="M3.3,0.7L3.3,0.7c0.2,0,0.3,0.1,0.4,0.2C3.7,1,3.8,1.1,3.7,1.3l0,0c0,0.1-0.1,0.2-0.2,0.3
		C3.5,1.6,3.4,1.7,3.3,1.7H3.1c-0.4,0-0.8,0.1-1.2,0.4c-0.3,0.2-0.5,0.6-0.5,1c0,0.3,0.1,0.5,0.3,0.7C2,4,2.2,4.2,2.6,4.3l0.6,0.2
		l0.2,0.1h0.2l0.5,0.1C5.6,5.1,6.4,5.8,6.4,7c0,0.4-0.1,0.9-0.4,1.2C5.8,8.6,5.4,8.9,5,9.1C4.5,9.3,4,9.4,3.5,9.4H3.3
		c-0.1,0-0.2,0-0.3-0.1C2.9,9.2,2.8,9.1,2.8,9l0,0c0-0.1,0-0.3,0.1-0.4C3,8.6,3.2,8.5,3.3,8.5h0.2c0.5,0,1-0.1,1.4-0.4
		c0.3-0.2,0.5-0.6,0.5-1c0-0.3-0.1-0.6-0.3-0.8C4.9,6.1,4.7,5.9,4.4,5.8C4.1,5.7,3.7,5.6,3.3,5.5c-0.7-0.1-1.4-0.4-2-0.8
		c-0.5-0.4-0.8-1-0.8-1.6c0-0.4,0.1-0.9,0.3-1.2c0.2-0.4,0.6-0.7,1-0.9C2.2,0.8,2.6,0.7,3,0.7C3,0.7,3.3,0.7,3.3,0.7z"/>
	<path class="st0" d="M5.2,1.4c0.1,0,0.3,0.1,0.3,0.2l0.1,0.1C5.8,1.8,5.8,2,5.8,2.1c0,0.1-0.1,0.2-0.2,0.3l0,0L5.3,2.5
		C5.2,2.5,5,2.4,4.9,2.3L4.9,2.3c0,0,0,0,0,0C4.7,2.1,4.7,2,4.7,1.9c0-0.1,0-0.2,0.1-0.3l0,0C4.9,1.5,5,1.4,5.2,1.4L5.2,1.4z"/>
	<path class="st0" d="M1.1,7.5c0.1,0,0.3,0,0.3,0.1l0.2,0.2C1.7,7.9,1.7,8,1.7,8.1c0,0.1-0.1,0.2-0.2,0.3l0,0L1.2,8.5
		C1,8.5,0.9,8.4,0.8,8.3c0,0,0,0,0-0.1c0,0,0,0,0,0C0.6,8.1,0.6,8,0.6,7.9c0-0.1,0-0.2,0.1-0.3C0.8,7.5,0.9,7.4,1.1,7.5L1.1,7.5z"/>
	<path class="st0" d="M14.2,0.6c0.2,0,0.5,0.1,0.5,0.4l3.1,7.7c0,0.1,0,0.2,0,0.2c0,0.3-0.3,0.6-0.6,0.6c-0.1,0-0.2,0-0.3-0.1
		c-0.1-0.1-0.2-0.2-0.2-0.3L16,7.4l-0.5-1.2h0l-1.1-2.8c-0.1-0.2-0.2-0.4-0.3-0.4l0,0c-0.1,0-0.2,0.1-0.3,0.4l-1.1,2.8l-0.4,1.1
		l-0.7,1.8c0,0.1-0.1,0.2-0.2,0.3c-0.1,0.1-0.2,0.1-0.3,0.1c-0.3,0-0.6-0.3-0.6-0.6l0,0c0-0.1,0-0.1,0.1-0.2L13.7,1
		C13.8,0.8,14,0.6,14.2,0.6z"/>
</g>
<g>
	<path d="M22.6,0.6L22.6,0.6c-0.2,0-0.3,0.1-0.4,0.2C22.1,0.8,22,1,22,1.1V9c0,0.1,0.1,0.3,0.2,0.4c0.1,0.1,0.2,0.1,0.3,0.1
		c0.1,0,0.3,0,0.4-0.1C23,9.3,23,9.1,23.1,9V1.1c0-0.1,0-0.3-0.1-0.4C22.8,0.6,22.7,0.6,22.6,0.6z"/>
	<path d="M28.2,0.6L28.2,0.6c-0.3,0-0.5,0.2-0.5,0.5v6.3L25,3.6c-0.1-0.1-0.2-0.2-0.4-0.2c-0.1,0-0.2,0-0.3,0.1
		c-0.1,0.1-0.2,0.2-0.2,0.4c0,0.1,0,0.2,0.1,0.3l3.6,5.1c0,0.1,0.1,0.1,0.2,0.2c0.1,0.1,0.2,0.1,0.3,0.1c0.1,0,0.2,0,0.3-0.1
		c0.1-0.1,0.2-0.2,0.2-0.4V1.1c0-0.1,0-0.3-0.1-0.4C28.5,0.6,28.3,0.6,28.2,0.6z"/>
	<path d="M37,1c-0.1-0.2-0.3-0.4-0.5-0.4c-0.2,0-0.5,0.1-0.5,0.4l-3.1,7.7c0,0.1-0.1,0.1-0.1,0.2c0,0.3,0.3,0.6,0.6,0.6
		c0.1,0,0.2,0,0.3-0.1c0.1-0.1,0.2-0.2,0.2-0.3l0.7-1.8l0.4-1.1l1.1-2.8c0.1-0.2,0.2-0.4,0.3-0.4s0.2,0.1,0.3,0.4l1.1,2.8h0l0.5,1.2
		l0.7,1.7c0,0.1,0.1,0.2,0.2,0.3c0.1,0.1,0.2,0.1,0.3,0.1c0.3,0,0.6-0.3,0.6-0.6c0-0.1,0-0.2,0-0.2L37,1z"/>
	<path d="M50.8,1.8L51.1,2c0.1,0.1,0.3,0.1,0.4,0.1c0.1,0,0.3-0.1,0.3-0.2l0,0C52,1.8,52,1.7,52,1.6V1.5c0-0.2-0.1-0.3-0.2-0.4
		l-0.5-0.3c-0.1-0.1-0.2-0.1-0.3-0.1c-0.1,0-0.2,0-0.2,0.1c-0.2,0.1-0.3,0.3-0.3,0.5C50.4,1.4,50.6,1.7,50.8,1.8z"/>
	<path d="M51.7,7.4c-0.1,0-0.3,0-0.4,0.1C50.6,8,49.8,8.3,49,8.3c-0.9,0-1.8-0.3-2.4-1c-0.6-0.7-0.9-1.6-0.9-2.5
		c0-0.5,0.1-1,0.2-1.4c0.1-0.2,0.1-0.3,0-0.5c0-0.1-0.1-0.3-0.2-0.4c-0.1-0.1-0.2-0.1-0.4-0.1h-0.2c-0.2,0-0.4,0.2-0.4,0.4
		c-0.3,0.6-0.4,1.3-0.4,1.9c0,1.2,0.4,2.5,1.3,3.4c0.9,0.9,2.1,1.4,3.3,1.3c1.1,0,2.2-0.4,3.1-1.1c0.1-0.1,0.2-0.3,0.2-0.4
		c0-0.2-0.1-0.3-0.2-0.4C51.9,7.4,51.8,7.4,51.7,7.4z"/>
	<path d="M56.9,3.8c-0.1,0-0.3,0-0.4,0.1c-0.1,0.1-0.1,0.3-0.1,0.4V9c0,0.1,0,0.3,0.1,0.4h0.9c0.1-0.1,0.1-0.3,0.1-0.4V4.3
		c0-0.1,0-0.3-0.1-0.4C57.2,3.8,57,3.7,56.9,3.8z"/>
	<path d="M56.9,0.6c-0.1,0-0.3,0-0.4,0.1c-0.1,0.1-0.1,0.3-0.1,0.4v0.9c0,0.1,0,0.3,0.1,0.4h0.9c0.1-0.1,0.1-0.3,0.1-0.4V1.2
		c0-0.1,0-0.3-0.1-0.4C57.2,0.7,57,0.6,56.9,0.6z"/>
	<path d="M67.5,1.2c-0.7-0.4-1.5-0.6-2.2-0.6c-0.8,0-1.6,0.2-2.2,0.6c-0.7,0.4-1.2,0.9-1.6,1.6c-0.4,0.7-0.6,1.4-0.6,2.2
		c0,1.6,0.9,3.1,2.2,3.9c0.7,0.4,1.4,0.6,2.2,0.6c0.8,0,1.6-0.2,2.2-0.6c0.7-0.4,1.2-0.9,1.6-1.6c0.4-0.7,0.6-1.5,0.6-2.2
		c0-0.8-0.2-1.5-0.6-2.2C68.7,2.2,68.1,1.6,67.5,1.2z M68.2,6.8c-0.6,1.1-1.8,1.7-3,1.7l0,0c-0.3,0-0.6-0.1-0.9-0.2l-0.8-0.3
		c-0.3-0.2-0.5-0.4-0.7-0.6c-0.7-0.6-1.1-1.5-1-2.4c0-0.6,0.2-1.2,0.5-1.7c0.2-0.3,0.3-0.5,0.5-0.7c0.2-0.2,0.4-0.4,0.7-0.6
		c0.5-0.3,1.1-0.5,1.7-0.5c0.6,0,1.2,0.2,1.7,0.5c0.5,0.3,0.9,0.8,1.3,1.3C68.8,4.4,68.8,5.7,68.2,6.8L68.2,6.8z"/>
	<path d="M74,0.8l-0.2-0.2l-0.2-0.1c-0.1,0-0.3,0.1-0.3,0.2c-0.1,0.1-0.2,0.2-0.2,0.4V9c0,0.1,0.1,0.3,0.2,0.4
		c0.1,0.1,0.2,0.1,0.3,0.1h0c0.3,0,0.5-0.2,0.5-0.4c0,0,0,0,0-0.1V2.8l2.8,4.2c0.1,0.1,0.2,0.2,0.4,0.2c0.2,0,0.5-0.1,0.5-0.4
		c0,0,0-0.1,0-0.1c0-0.1,0-0.2-0.1-0.3L74,0.8z"/>
	<path d="M79.2,0.6c-0.1,0-0.3,0.1-0.4,0.2c-0.1,0.1-0.1,0.2-0.1,0.4V9c0,0.1,0.1,0.3,0.2,0.4c0.1,0.1,0.2,0.1,0.3,0.1h0
		c0.3,0,0.5-0.2,0.5-0.4c0,0,0,0,0-0.1V1.1c0-0.1,0-0.3-0.1-0.4C79.5,0.6,79.4,0.6,79.2,0.6z"/>
	<path d="M89,8.5h-1.8c-0.1,0.1-0.1,0.3-0.1,0.4c0,0.1,0,0.3,0.1,0.4c0.1,0.1,0.3,0.1,0.4,0.1H89c0.1,0,0.3,0,0.4-0.1
		c0.1-0.1,0.1-0.3,0.1-0.4c0-0.1,0-0.3-0.1-0.4H89z"/>
	<path d="M89,0.6h-1.3c-0.1,0-0.3,0-0.4,0.1c-0.1,0.1-0.1,0.3-0.1,0.4c0,0.1,0,0.3,0.1,0.4c0,0.1,0.2,0.1,0.4,0.1H89
		c0.2,0,0.4,0,0.4-0.1c0.1-0.1,0.1-0.3,0.1-0.4c0-0.1,0-0.3-0.1-0.4C89.3,0.7,89.1,0.6,89,0.6z"/>
	<path d="M88.4,5.3c0.1-0.1,0.1-0.2,0.1-0.3l0,0c0-0.3-0.2-0.5-0.5-0.5h-3V1.2c0-0.2-0.1-0.3-0.2-0.4c-0.1-0.1-0.3-0.2-0.4-0.2
		c-0.1,0-0.3,0.1-0.4,0.2c-0.1,0.1-0.2,0.3-0.2,0.4v7.7c0,0.3,0.3,0.6,0.6,0.6l0,0c0.2,0,0.3-0.1,0.4-0.2c0.1-0.1,0.2-0.3,0.2-0.4
		V5.4h3C88.2,5.4,88.3,5.4,88.4,5.3z"/>
	<path d="M98,2.3C98,2.3,98,2.3,98,2.3c0.1,0.2,0.3,0.2,0.4,0.2c0.1,0,0.2,0,0.3-0.1h0c0.1-0.1,0.2-0.2,0.2-0.3c0-0.1,0-0.3-0.1-0.4
		l-0.1-0.1c-0.1-0.1-0.2-0.2-0.4-0.2c-0.2,0-0.3,0.1-0.4,0.2l0,0c0,0.1-0.1,0.2-0.1,0.3C97.8,2.1,97.9,2.2,98,2.3L98,2.3z"/>
	<path d="M94.5,7.6c-0.1-0.1-0.2-0.1-0.3-0.1c-0.2,0-0.3,0.1-0.4,0.2c-0.1,0.1-0.1,0.2-0.1,0.3c0,0.1,0.1,0.2,0.1,0.3h0.1
		c0,0,0,0,0,0.1c0.1,0.1,0.2,0.2,0.4,0.2l0.3-0.1l0,0c0.1-0.1,0.2-0.2,0.2-0.3c0-0.1,0-0.3-0.1-0.4L94.5,7.6z"/>
	<path d="M97.2,4.7l-0.5-0.1h-0.2l-0.2-0.1l-0.6-0.2c-0.3-0.1-0.6-0.3-0.8-0.5c-0.2-0.2-0.3-0.5-0.3-0.7c0-0.4,0.2-0.8,0.5-1
		c0.3-0.3,0.7-0.4,1.2-0.4h0.1c0.1,0,0.2,0,0.3-0.1c0.1-0.1,0.1-0.2,0.2-0.3l0,0c0-0.1,0-0.3-0.1-0.4c-0.1-0.1-0.2-0.2-0.3-0.2h0
		c0,0,0,0-0.1,0h-0.2c-0.4,0-0.8,0.1-1.2,0.3c-0.4,0.2-0.7,0.5-0.9,0.9c-0.2,0.4-0.3,0.8-0.3,1.2c0,0.6,0.3,1.2,0.8,1.6
		c0.6,0.4,1.3,0.7,2,0.8c0.4,0.1,0.7,0.2,1.1,0.3c0.3,0.1,0.5,0.3,0.7,0.4c0.2,0.2,0.3,0.5,0.3,0.8c0,0.4-0.2,0.8-0.5,1
		c-0.4,0.3-0.9,0.4-1.4,0.4h-0.2c-0.1,0-0.2,0-0.3,0.1C96,8.7,95.9,8.8,95.9,9l0,0c0,0,0,0,0,0v0l0,0c0,0.1,0.1,0.2,0.1,0.3
		c0.1,0.1,0.2,0.1,0.3,0.1h0.2c0.5,0,1-0.1,1.5-0.3c0.4-0.2,0.8-0.5,1-0.8c0.2-0.4,0.4-0.8,0.4-1.2C99.5,5.9,98.7,5.1,97.2,4.7z"/>
	<path d="M15.8,13.6v0.5c-0.2-0.2-0.5-0.3-0.8-0.3c-0.3,0-0.5,0.1-0.7,0.3c-0.2,0.2-0.3,0.5-0.3,0.8c0,0.3,0.1,0.5,0.3,0.7
		c0.2,0.2,0.5,0.3,0.7,0.3l0.4-0.1l0.2-0.1l0.2-0.2v0.5c-0.2,0.1-0.5,0.2-0.8,0.2c-0.4,0-0.8-0.2-1-0.4c-0.3-0.3-0.4-0.6-0.4-1
		c0-0.4,0.1-0.7,0.3-1c0.3-0.3,0.7-0.5,1.1-0.5C15.3,13.4,15.6,13.4,15.8,13.6z"/>
	<path d="M19.2,15.5H18l-0.3,0.7h-0.5l1.4-3l1.4,3h-0.5L19.2,15.5z M19,15.1l-0.4-0.9l-0.4,0.9H19z"/>
	<path d="M21.3,16.2l0.6-3l1,2.2l1-2.2l0.5,3H24l-0.3-1.7l-0.8,1.8l-0.8-1.8l-0.3,1.7H21.3z"/>
	<path d="M26.6,13.4v2.8h-0.4v-2.8H26.6z"/>
	<path d="M28.4,16.2v-3l2.1,2.1v-2h0.4v3l-2-2.1v1.9H28.4z"/>
	<path d="M32.6,14.8c0-0.4,0.1-0.8,0.4-1c0.3-0.3,0.6-0.5,1-0.4c0.8,0,1.4,0.6,1.4,1.4c0,0,0,0,0,0c0,0.4-0.1,0.8-0.4,1
		c-0.3,0.3-0.6,0.5-1,0.4c-0.4,0-0.7-0.1-1-0.4C32.7,15.6,32.5,15.2,32.6,14.8z M33,14.8c0,0.6,0.5,1.1,1,1.1c0.3,0,0.6-0.1,0.8-0.3
		c0.2-0.2,0.3-0.5,0.3-0.8c0-0.3-0.1-0.5-0.3-0.7c-0.2-0.2-0.5-0.3-0.7-0.3c-0.3,0-0.6,0.1-0.8,0.3C33.1,14.3,32.9,14.5,33,14.8z"/>
	<path d="M38.7,13.8L38.4,14l-0.2-0.2H38c-0.1,0-0.2,0-0.3,0.1c-0.1,0-0.1,0.1-0.1,0.2c0,0.2,0.1,0.3,0.3,0.3l0.3,0.1
		c0.2,0.1,0.4,0.2,0.5,0.4c0.1,0.1,0.1,0.3,0.1,0.5c0,0.2-0.1,0.5-0.2,0.6c-0.2,0.2-0.4,0.3-0.7,0.3c-0.2,0-0.4-0.1-0.6-0.2
		c-0.2-0.2-0.2-0.4-0.3-0.6l0.4-0.1c0,0.1,0.1,0.3,0.1,0.4c0.1,0.1,0.3,0.2,0.4,0.2c0.1,0,0.2,0,0.3-0.1c0.1-0.1,0.1-0.2,0.1-0.3
		c0-0.1,0-0.1,0-0.1c0-0.1,0-0.1-0.1-0.1l-0.1-0.1L38,15l-0.3-0.1c-0.4-0.2-0.6-0.4-0.6-0.7c0-0.2,0.1-0.4,0.3-0.5
		c0.2-0.1,0.4-0.2,0.6-0.2C38.3,13.4,38.6,13.6,38.7,13.8z"/>
	<path d="M42.7,16.2v-2.8h0.6c0.2,0,0.5,0,0.7,0.1c0.2,0.1,0.3,0.1,0.5,0.3c0.3,0.3,0.5,0.6,0.4,1c0,0.4-0.2,0.8-0.5,1.1
		c-0.1,0.1-0.3,0.2-0.5,0.3c-0.2,0.1-0.4,0.1-0.7,0.1H42.7z M43.2,15.8h0.7l0.3-0.2c0.2-0.2,0.3-0.5,0.3-0.8c0-0.3-0.1-0.5-0.3-0.7
		c-0.2-0.2-0.5-0.3-0.8-0.3h-0.2V15.8z"/>
	<path d="M48.1,13.8H47v0.7h1.1v0.4H47v0.9h1.1v0.4h-1.6v-2.8h1.6V13.8z"/>
	<path d="M53,15l0.9,1.2h-0.5l-0.8-1.1h-0.1v1.1h-0.4v-2.8h0.5c0.3,0,0.6,0.1,0.8,0.2c0.2,0.1,0.3,0.4,0.3,0.6
		c0,0.2-0.1,0.4-0.2,0.5C53.4,14.9,53.2,15,53,15z M52.5,14.7h0.1c0.4,0,0.6-0.2,0.6-0.5c0-0.3-0.2-0.4-0.6-0.4h-0.2V14.7z"/>
	<path d="M57,13.8h-1.1v0.7H57v0.4h-1.1v0.9H57v0.4h-1.6v-2.8H57L57,13.8z"/>
	<path d="M60.3,13.8L59.9,14c0-0.1-0.1-0.2-0.2-0.2h-0.2c-0.1,0-0.2,0-0.3,0.1c-0.1,0-0.1,0.1-0.1,0.2c0,0.2,0.1,0.3,0.3,0.3
		l0.3,0.1c0.2,0.1,0.4,0.2,0.5,0.4c0.1,0.1,0.1,0.3,0.1,0.5c0,0.2-0.1,0.5-0.2,0.6c-0.2,0.2-0.4,0.3-0.7,0.3c-0.2,0-0.4-0.1-0.6-0.2
		c-0.2-0.2-0.2-0.4-0.3-0.6l0.4-0.1c0,0.1,0.1,0.3,0.1,0.4c0.1,0.1,0.3,0.2,0.4,0.2c0.1,0,0.2,0,0.3-0.1c0.1-0.1,0.1-0.2,0.1-0.3
		c0-0.1,0-0.1,0-0.1l-0.1-0.1l-0.1-0.1L59.5,15l-0.3-0.1c-0.4-0.2-0.6-0.4-0.6-0.7c0-0.2,0.1-0.4,0.3-0.5c0.2-0.1,0.4-0.2,0.6-0.2
		C59.8,13.4,60.1,13.6,60.3,13.8z"/>
	<path d="M62.4,13.4v2.8H62v-2.8H62.4z"/>
	<path d="M65.8,13.8L65.5,14c0-0.1-0.1-0.2-0.2-0.2H65c-0.1,0-0.2,0-0.3,0.1c-0.1,0.1-0.1,0.1-0.1,0.2c0,0.2,0.1,0.3,0.3,0.3
		l0.3,0.1c0.2,0.1,0.4,0.2,0.5,0.4c0.1,0.1,0.2,0.3,0.2,0.5c0,0.2-0.1,0.5-0.3,0.6c-0.2,0.2-0.4,0.3-0.6,0.3c-0.2,0-0.4-0.1-0.6-0.2
		c-0.2-0.2-0.3-0.4-0.3-0.6l0.4-0.1c0,0.1,0.1,0.3,0.1,0.4c0.1,0.1,0.3,0.2,0.4,0.2c0.1,0,0.2,0,0.3-0.1c0.1-0.1,0.1-0.2,0.1-0.3
		v-0.1l-0.1-0.1l-0.1-0.1L65,15l-0.3-0.1c-0.4-0.2-0.6-0.4-0.6-0.7c0-0.2,0.1-0.4,0.2-0.5c0.2-0.1,0.4-0.2,0.6-0.2
		C65.4,13.4,65.7,13.5,65.8,13.8z"/>
	<path d="M68.4,13.8v2.4h-0.4v-2.4h-0.6v-0.4H69v0.4L68.4,13.8z"/>
	<path d="M72,13.8h-1.1v0.7H72v0.4h-1.1v0.9H72v0.4h-1.5v-2.8H72V13.8z"/>
	<path d="M73.7,16.2v-3l2,2.1v-2h0.4v3l-2-2.1v1.9H73.7z"/>
	<path d="M80.1,13.6v0.5c-0.2-0.2-0.5-0.3-0.8-0.3c-0.3,0-0.5,0.1-0.7,0.3c-0.2,0.2-0.3,0.5-0.3,0.8c0,0.3,0.1,0.5,0.3,0.7
		c0.2,0.2,0.5,0.3,0.7,0.3l0.4-0.1l0.2-0.1l0.2-0.2v0.5c-0.2,0.1-0.5,0.2-0.8,0.2c-0.4,0-0.8-0.1-1-0.4c-0.3-0.3-0.5-0.6-0.4-1
		c0-0.4,0.1-0.7,0.4-1c0.3-0.3,0.7-0.5,1.1-0.5C79.7,13.4,79.9,13.4,80.1,13.6z"/>
	<path d="M82.2,13.4v2.8h-0.4v-2.8H82.2z"/>
	<path d="M85.7,15.5h-1.2l-0.3,0.7h-0.4l1.4-3l1.3,3h-0.5L85.7,15.5z M85.5,15.1l-0.4-0.9l-0.4,0.9H85.5z"/>
</g>
</svg>
