<?xml version="1.0" encoding="utf-8"?>
<!-- Generator: Adobe Illustrator 26.2.1, SVG Export Plug-In . SVG Version: 6.00 Build 0)  -->
<svg version="1.1" xmlns="http://www.w3.org/2000/svg" xmlns:xlink="http://www.w3.org/1999/xlink" x="0px" y="0px"
	 viewBox="0 0 103 104" style="enable-background:new 0 0 103 104;" xml:space="preserve">
<style type="text/css">
	.st0{display:none;}
	.st1{display:inline;fill:#444D66;}
	.st2{display:inline;}
	.st3{fill:none;stroke:#000000;stroke-width:0.2;stroke-miterlimit:10;}
	.st4{fill:none;stroke:#000000;stroke-width:8.000000e-02;stroke-miterlimit:10;}
	.st5{fill:none;stroke:#000000;stroke-width:0.25;stroke-miterlimit:10;}
	.st6{fill:none;stroke:#000000;stroke-width:3.000000e-02;stroke-miterlimit:10;}
	.st7{fill:none;stroke:#000000;stroke-miterlimit:10;}
	.st8{stroke:#000000;stroke-width:8.000000e-02;stroke-miterlimit:10;}
</style>
<g id="Capa_1" class="st0">
	<path class="st1" d="M100.9,57.1c-0.3-0.5-0.8-0.8-1.4-0.9c-0.5-0.1-1,0-1.4,0.3l0,0c0.3-0.5,0.5-1,0.5-1.5c0-0.8-0.2-1.6-0.8-2.2
		c-0.2-0.2-0.4-0.3-0.6-0.4c0.2-0.1,0.4-0.2,0.5-0.4c0.6-0.6,0.9-1.5,0.8-2.3c0-0.5-0.2-1-0.4-1.4c0.3,0.2,0.6,0.3,1,0.3h0.2
		c0.5,0,1-0.3,1.3-0.7c0.1-0.1,0.1-0.1,0.2-0.2c0.8-1.2,0.6-2.9-0.3-4c-0.3-0.3-0.6-0.5-1-0.6c0.3-0.2,0.6-0.5,0.8-0.9
		c0.6-1.3,0.2-2.8-0.9-3.7c-0.4-0.3-0.9-0.4-1.4-0.3c-0.5,0.1-1,0.4-1.3,0.8c0.1-0.5,0.1-1,0-1.5c-0.2-0.6-0.6-1.2-1.1-1.5
		c-0.3-0.1-0.6-0.2-0.8-0.2c0.2-0.2,0.3-0.4,0.5-0.7c0.3-0.6,0.3-1.3,0.1-2c-0.1-0.4-0.4-0.7-0.7-1c0.1,0,0.2,0,0.3,0
		c0.9,0,1.7-0.6,2-1.4c0.3-1.3-0.2-2.6-1.4-3.1c-0.3-0.1-0.7-0.2-1-0.1c0.2-0.3,0.4-0.6,0.4-1c0.2-1.3-0.6-2.5-1.9-2.9
		c-1-0.2-2,0.4-2.4,1.4c0-0.4-0.2-0.9-0.4-1.2c-0.3-0.5-0.8-0.8-1.4-0.8c-0.3-0.1-0.7,0-1,0.1c0.1-0.3,0.2-0.5,0.2-0.8
		c0-0.6-0.2-1.2-0.6-1.7c-0.3-0.3-0.6-0.5-0.9-0.6c1-0.2,1.7-1,1.8-2c0-0.6-0.2-1.2-0.6-1.6c-0.4-0.5-1-0.8-1.7-0.8
		c-0.3,0-0.7,0.1-1,0.2c0.1-0.3,0.2-0.7,0.1-1c-0.1-0.6-0.4-1.1-0.8-1.5c-0.5-0.4-1.1-0.6-1.8-0.5c-1,0.2-1.8,1-1.9,2
		c-0.1-0.4-0.4-0.7-0.7-1c-0.4-0.3-0.9-0.4-1.5-0.3c-0.3,0.1-0.7,0.2-0.9,0.4c0.1-0.3,0.1-0.6,0-0.9c-0.1-0.6-0.5-1.1-1-1.4
		c-0.3-0.2-0.6-0.3-1-0.3c0.8-0.5,1.3-1.5,1.1-2.4c-0.1-0.6-0.5-1-1-1.3c-0.6-0.3-1.2-0.4-1.8-0.3c-0.3,0.1-0.6,0.3-0.9,0.5
		c0-0.3,0-0.7-0.2-1c-0.2-0.5-0.7-0.9-1.2-1.1c-0.6-0.2-1.3-0.2-1.8,0c-1,0.4-1.5,1.5-1.2,2.5c-0.3-0.3-0.6-0.6-1-0.7
		c-0.5-0.2-1.1-0.1-1.5,0.1c-0.4,0.2-0.7,0.5-0.9,0.8c0-1-0.7-1.8-1.6-2.1c-0.3-0.1-0.7-0.1-1.1,0c0.7-0.7,0.8-1.8,0.3-2.6
		c-0.3-0.5-0.8-0.8-1.3-0.9C60.6,2.6,60,2.7,59.4,3c-0.3,0.2-0.5,0.4-0.7,0.7c-0.1-0.3-0.2-0.6-0.5-0.9c-0.4-0.4-0.9-0.7-1.5-0.7
		c-0.6-0.1-1.3,0.1-1.8,0.5c-0.8,0.7-0.9,1.8-0.4,2.7C54.3,5.2,53.9,5,53.5,5c-0.5,0-1.1,0.2-1.5,0.6c-0.2,0.2-0.4,0.5-0.6,0.8
		c-0.1-0.3-0.3-0.5-0.5-0.7c-0.4-0.4-1-0.6-1.6-0.6c-0.4,0-0.7,0.1-1,0.3c0.4-0.9,0.2-2-0.5-2.6c-0.4-0.4-1-0.6-1.5-0.5
		c-0.6,0-1.2,0.3-1.7,0.8c-0.2,0.3-0.4,0.6-0.5,0.9c-0.2-0.3-0.4-0.5-0.7-0.7c-0.5-0.3-1.1-0.4-1.6-0.3c-0.6,0.1-1.2,0.5-1.5,1
		c-0.5,0.9-0.4,2,0.4,2.7c-0.4-0.1-0.8-0.2-1.2-0.1c-0.5,0.1-1,0.5-1.2,0.9C38,7.7,37.9,8,37.9,8.4c-0.2-0.2-0.4-0.4-0.7-0.6
		c-0.5-0.3-1.1-0.3-1.7-0.2c-0.3,0.1-0.7,0.3-0.9,0.6c0.2-1-0.3-1.9-1.2-2.4c-0.5-0.3-1.1-0.3-1.7-0.1C31.2,6,30.7,6.4,30.5,7
		c-0.1,0.3-0.2,0.7-0.2,1c-0.3-0.2-0.5-0.4-0.9-0.5c-0.6-0.2-1.2-0.1-1.7,0.2c-0.6,0.3-1,0.8-1.2,1.4c-0.3,1,0.2,2,1.1,2.5
		c-0.4,0-0.9,0.1-1.2,0.2C26,12,25.7,12.5,25.5,13c-0.1,0.3-0.1,0.7,0,1c-0.2-0.2-0.5-0.3-0.8-0.3c-0.6-0.1-1.2,0-1.7,0.3
		c-0.3,0.2-0.5,0.5-0.7,0.8c-0.1-1-0.9-1.8-1.9-1.9c-0.6-0.1-1.2,0.1-1.6,0.4c-0.5,0.4-0.9,0.9-1,1.6c0,0.3,0,0.7,0.1,1
		c-0.9-0.4-1.9-0.2-2.5,0.5c-0.5,0.5-0.7,1.1-0.7,1.7c0.1,1,0.8,1.9,1.8,2c-0.4,0.1-0.8,0.4-1.1,0.7c-0.4,0.4-0.6,1-0.5,1.5
		c0,0.4,0.2,0.8,0.4,1.1c-0.3-0.1-0.7-0.2-1-0.1c-0.6,0.1-1.2,0.4-1.6,0.9c-0.2,0.3-0.3,0.6-0.4,1C12,24.3,11,23.7,10,23.9
		c-1.3,0.3-2.1,1.5-1.9,2.8c0,0.4,0.2,0.7,0.4,1c-0.3,0-0.7,0-1,0.1c-1.2,0.6-1.8,1.9-1.4,3.2c0.3,0.9,1.1,1.4,2,1.4
		c0.1,0,0.3,0,0.4,0c-0.9,0.6-1.3,1.9-0.8,2.9c0.1,0.3,0.3,0.6,0.5,0.8c-0.3,0-0.5,0.1-0.7,0.2c-0.6,0.3-1.1,0.9-1.3,1.5
		C6,38.3,6,38.7,6.1,39.1c-0.7-0.8-1.8-1-2.7-0.4c-1.1,0.9-1.5,2.4-0.9,3.6c0.2,0.4,0.4,0.7,0.8,0.9c-0.4,0.1-0.7,0.3-1,0.6
		c-1,1.1-1.1,2.7-0.3,3.9c0.3,0.5,0.8,0.8,1.4,0.9h0.3c0.4,0,0.7-0.1,1.1-0.3l0,0c-0.3,0.4-0.4,1-0.5,1.5c0,0.8,0.3,1.6,0.8,2.2
		c0.2,0.2,0.4,0.3,0.6,0.4c-0.2,0.1-0.4,0.2-0.5,0.4c-0.6,0.6-0.8,1.5-0.8,2.3c0,0.5,0.2,0.9,0.4,1.4c-0.8-0.5-1.9-0.3-2.5,0.4
		C2.1,56.9,2.1,56.9,2,57c-0.7,1.3-0.6,2.8,0.4,3.9c0.3,0.3,0.6,0.5,1,0.6c-0.3,0.2-0.6,0.5-0.8,0.9c-0.6,1.3-0.2,2.8,0.9,3.6
		c0.3,0.2,0.7,0.3,1.1,0.3c0.1,0,0.2,0,0.4,0c0.5-0.1,1-0.4,1.3-0.8c-0.1,0.5-0.1,1,0,1.4c0.2,0.6,0.6,1.1,1.2,1.4
		c0.3,0.1,0.6,0.2,0.8,0.2C8.2,68.8,8.1,69,8,69.3c-0.3,0.6-0.3,1.4,0,2c0.1,0.4,0.4,0.7,0.7,1c-1-0.1-2,0.4-2.3,1.4
		C6,75,6.6,76.3,7.9,76.9C8.1,77,8.4,77,8.6,77c0.1,0,0.2,0,0.3,0c-0.2,0.3-0.4,0.6-0.4,1c-0.2,1.3,0.7,2.5,1.9,2.8
		c0.1,0,0.3,0,0.4,0c0.9,0,1.7-0.6,2-1.4c0,0.4,0.2,0.8,0.4,1.2c0.3,0.5,0.8,0.8,1.4,0.8H15c0.2,0,0.4,0,0.6-0.1
		c-0.1,0.3-0.2,0.5-0.2,0.8c-0.1,0.6,0.1,1.2,0.5,1.7c0.2,0.3,0.6,0.5,0.9,0.6c-1,0.2-1.7,1-1.7,2c0,0.6,0.2,1.1,0.6,1.6
		c0.4,0.5,1,0.8,1.7,0.8h0.1c0.3,0,0.6-0.1,0.9-0.2c-0.1,0.3-0.1,0.7-0.1,1c0.1,0.6,0.4,1.1,0.9,1.4c0.4,0.3,0.9,0.5,1.5,0.5h0.3
		c1-0.2,1.8-1,1.8-2c0.1,0.4,0.4,0.7,0.7,1c0.3,0.2,0.7,0.4,1.1,0.4c0.1,0,0.2,0,0.4,0c0.3-0.1,0.7-0.2,0.9-0.4
		c-0.1,0.3-0.1,0.6,0,0.8c0.1,0.6,0.5,1.1,1,1.4c0.3,0.2,0.6,0.3,1,0.3c-0.8,0.5-1.2,1.5-1,2.4c0.1,0.5,0.5,1,1,1.3
		c0.4,0.2,0.8,0.3,1.2,0.3c0.2,0,0.4,0,0.6-0.1c0.3-0.1,0.6-0.3,0.9-0.5c0,0.3,0,0.7,0.2,1c0.2,0.5,0.7,0.9,1.2,1.1
		c0.3,0.1,0.6,0.2,0.9,0.2c1.2,0,2.1-0.9,2.2-2.1c0-0.2,0-0.4-0.1-0.6c0.3,0.3,0.6,0.6,1,0.7c0.2,0.1,0.4,0.1,0.6,0.1
		c0.3,0,0.6-0.1,0.9-0.2c0.4-0.2,0.7-0.5,0.9-0.8c0,0.4,0.1,0.7,0.3,1c0.3,0.5,0.8,0.9,1.3,1c0.3,0.1,0.7,0.1,1.1,0
		c-0.7,0.7-0.8,1.8-0.3,2.6c0.3,0.5,0.8,0.9,1.3,1c0.2,0,0.4,0.1,0.6,0.1c0.4,0,0.9-0.1,1.2-0.3c0.3-0.2,0.5-0.4,0.7-0.7
		c0.1,0.3,0.2,0.6,0.5,0.9c0.4,0.4,0.9,0.7,1.5,0.7h0.2c0.6,0,1.1-0.2,1.5-0.5c0.8-0.8,0.9-2,0.3-2.9c0.3,0.2,0.7,0.4,1.1,0.4h0.1
		c0.5,0,1-0.2,1.3-0.5c0.3-0.2,0.4-0.5,0.6-0.8c0.3,0.8,1.1,1.4,2,1.4c0.4,0,0.7-0.1,1-0.3c-0.4,0.9-0.2,1.9,0.5,2.6
		c0.4,0.4,0.9,0.6,1.5,0.6h0.1c0.6,0,1.2-0.3,1.7-0.7c0.2-0.3,0.4-0.5,0.4-0.9c0.2,0.3,0.4,0.5,0.7,0.7c0.3,0.2,0.8,0.4,1.2,0.3
		c0.2,0,0.3,0,0.5,0c0.6-0.1,1.1-0.5,1.5-1c0.5-0.9,0.4-2-0.4-2.7c0.2,0.1,0.5,0.1,0.7,0.1c0.2,0,0.3,0,0.5,0
		c0.5-0.1,0.9-0.4,1.2-0.9c0.2-0.3,0.3-0.6,0.3-1c0.4,0.5,1.1,0.8,1.7,0.8c0.2,0,0.4,0,0.6-0.1c0.3-0.1,0.6-0.3,0.9-0.6
		c-0.2,1,0.3,1.9,1.2,2.4c0.3,0.1,0.6,0.2,0.9,0.2c0.2,0,0.5,0,0.7-0.1c0.6-0.2,1.1-0.6,1.4-1.2c0.1-0.3,0.2-0.7,0.2-1
		c0.2,0.2,0.5,0.4,0.8,0.5c0.2,0.1,0.4,0.1,0.6,0.1c1,0,1.9-0.7,2.2-1.6c0.3-1-0.2-2-1-2.5h0.1c0.3,0,0.7-0.1,1-0.3
		c0.5-0.3,0.8-0.7,0.9-1.2c0.1-0.3,0.1-0.7,0-1c0.4,0.3,0.8,0.4,1.3,0.4c0.4,0,0.8-0.1,1.2-0.3c0.3-0.2,0.5-0.5,0.7-0.8
		c0.1,1,0.9,1.8,1.8,1.9c0.1,0,0.2,0,0.3,0c0.5,0,0.9-0.2,1.3-0.4c0.5-0.4,0.9-0.9,1-1.6c0-0.3,0-0.7-0.1-1c0.3,0.1,0.7,0.2,1,0.2
		l0,0c0.6,0,1.1-0.2,1.5-0.7c0.5-0.4,0.7-1.1,0.7-1.7c0-1-0.8-1.9-1.8-2.1c0.4-0.1,0.8-0.3,1.1-0.6c0.4-0.4,0.6-1,0.5-1.5
		c0-0.4-0.2-0.8-0.4-1.2c0.3,0.1,0.5,0.2,0.8,0.2h0.3c0.6-0.1,1.2-0.4,1.6-0.9c0.2-0.3,0.4-0.6,0.4-1c0.3,0.8,1.1,1.3,2,1.3
		c0.1,0,0.2,0,0.3,0c1.2-0.3,2-1.5,1.9-2.8c0-0.4-0.2-0.7-0.4-1h0.2c0.3,0,0.5,0,0.8-0.1c1.2-0.6,1.8-1.9,1.4-3.2
		c-0.3-1-1.4-1.6-2.4-1.4c0.4-0.3,0.7-0.6,0.9-1.1c0.2-0.6,0.2-1.3,0-1.8c-0.1-0.3-0.3-0.6-0.5-0.8c0.3,0,0.5-0.1,0.7-0.2
		c1-0.5,1.6-1.7,1.4-2.8c0.3,0.4,0.7,0.6,1.1,0.7c0.1,0,0.3,0,0.4,0c0.4,0,0.7-0.1,1.1-0.3l0,0c1.1-0.8,1.5-2.4,0.9-3.7
		c-0.2-0.4-0.4-0.7-0.8-0.9c0.4-0.1,0.7-0.3,1-0.5C101.5,59.9,101.6,58.4,100.9,57.1z M98.8,57.9L98.8,57.9c0.3-0.2,0.8-0.1,1,0.2
		c0,0,0,0,0,0c0.3,0.5,0.3,1.2-0.2,1.7c-0.1,0.1-0.3,0.2-0.4,0.2C99.2,59.3,99.1,58.6,98.8,57.9L98.8,57.9z M98.9,61.5
		c-0.2,1.5-1.1,2.9-2.5,3.7c-1.1,0.7-2.5,1-3.7,0.6c0.2-0.6,0.3-1,0.4-1.6c0.9,0.2,1.8,0,2.5-0.5c1-0.6,1.6-1.5,1.8-2.6
		c0.3-2-0.8-4.3-3-4.7c0.1-0.7,0.1-1.1,0.1-1.9c1.1,0,2.2,0.6,2.9,1.5C98.6,57.6,99.2,59.6,98.9,61.5L98.9,61.5z M99.1,63.4
		c0.2,0.5,0.1,1.2-0.4,1.5l0,0c-0.3,0.2-0.8,0.1-1-0.2l-0.2,0.1c0.6-0.5,1-1.1,1.3-1.8C99,63.1,99.1,63.2,99.1,63.4L99.1,63.4z
		 M95.4,66.6c-0.1,0.3-0.3,0.5-0.5,0.6c-0.2,0.1-0.4,0.1-0.6,0c-0.4-0.2-0.6-0.6-0.6-1H94c0.5,0,1,0,1.5-0.2
		C95.5,66.3,95.5,66.5,95.4,66.6L95.4,66.6z M97.4,55c0,0.2-0.1,0.3-0.1,0.5c-0.5-0.4-1-0.7-1.6-0.9c0.1-0.4,0.4-0.7,0.9-0.8
		c0.2,0,0.4,0.1,0.5,0.3C97.3,54.3,97.4,54.6,97.4,55L97.4,55z M97.7,53.1c0.5,0.6,0.7,1.3,0.7,2c0,0.4-0.1,0.9-0.4,1.3
		c-0.1-0.1-0.2-0.3-0.3-0.4l-0.3-0.3c0.1-0.2,0.2-0.5,0.2-0.7c0-0.4-0.1-0.8-0.4-1.2c-0.2-0.2-0.5-0.4-0.8-0.4c-0.6,0-1.1,0.4-1.2,1
		c-0.2,0-0.4-0.1-0.7-0.1c0.1-0.9,0.8-1.6,1.6-1.8c0.1,0,0.2,0,0.3,0h0.3C97.1,52.6,97.4,52.8,97.7,53.1L97.7,53.1z M97.4,49.8
		c0,0.3-0.1,0.7-0.3,0.9C97,50.9,96.8,51,96.6,51c-0.4,0-0.8-0.4-0.9-0.8c0.6-0.2,1.1-0.5,1.6-0.9C97.4,49.5,97.4,49.6,97.4,49.8
		L97.4,49.8z M94.7,50.1c0-0.7-0.1-1.2-0.1-1.9c0.8-0.1,1.6-0.5,2.1-1.2c0.7-1,1-2.2,0.9-3.4c-0.2-1.1-0.8-2.1-1.8-2.7
		c-0.7-0.5-1.6-0.7-2.5-0.5c-0.2-0.6-0.2-1-0.4-1.6c1.2-0.3,2.6-0.1,3.6,0.6c1.4,0.9,2.3,2.3,2.5,3.9c0.2,1.9-0.4,3.8-1.6,5.3
		C96.8,49.5,95.7,50,94.7,50.1L94.7,50.1z M94.4,37.4c0.2-0.1,0.4-0.1,0.6,0c0.2,0.1,0.4,0.4,0.5,0.6c0,0.2,0,0.4,0,0.5
		c-0.6-0.2-1.1-0.3-1.7-0.2C93.8,37.9,94,37.5,94.4,37.4L94.4,37.4z M99,41.8c-0.3-0.6-0.7-1.2-1.1-1.8c0.2-0.3,0.7-0.4,1-0.2
		c0.5,0.4,0.6,1,0.4,1.6C99.2,41.6,99.1,41.7,99,41.8L99,41.8z M99.4,44.7c0.2,0,0.3,0.1,0.4,0.2c0.4,0.5,0.5,1.2,0.1,1.7l0,0
		c-0.2,0.3-0.7,0.4-1,0.2L98.9,47C99.1,46.3,99.3,45.5,99.4,44.7L99.4,44.7z M100.7,47.6l-0.1,0.2c-0.3,0.3-0.6,0.5-1.1,0.5
		c-0.4,0-0.8-0.1-1.1-0.3c0.1-0.2,0.3-0.5,0.4-0.8c0.5,0.3,1.1,0.2,1.4-0.3v-0.1c0.4-0.7,0.3-1.5-0.2-2.1c-0.2-0.2-0.4-0.3-0.6-0.3
		c0-0.3,0-0.6,0-0.9c0.4,0.1,0.7,0.2,1,0.5C101.2,45,101.4,46.4,100.7,47.6L100.7,47.6z M98.2,38.6c0.4-0.1,0.8,0,1.2,0.3
		c0.9,0.8,1.2,2.1,0.7,3.2c-0.2,0.4-0.4,0.7-0.8,0.8c-0.1-0.3-0.1-0.6-0.2-0.9c0.2-0.1,0.4-0.3,0.4-0.5c0.3-0.7,0.1-1.5-0.5-2
		c-0.5-0.3-1.1-0.2-1.5,0.2c-0.2-0.2-0.4-0.3-0.6-0.5C97.3,38.9,97.7,38.7,98.2,38.6L98.2,38.6z M96.5,37.7c0.1,0.4,0.1,0.9,0,1.3
		c-0.2-0.1-0.4-0.2-0.6-0.3c0.1-0.2,0.1-0.5,0-0.8c-0.1-0.4-0.3-0.6-0.7-0.8c-0.3-0.1-0.6-0.2-0.9-0.1c-0.5,0.2-0.9,0.7-0.8,1.3
		c-0.2,0-0.4,0.1-0.7,0.1c-0.1-0.9,0.4-1.8,1.2-2.1c0.5-0.2,1-0.1,1.4,0.1C95.9,36.7,96.3,37.2,96.5,37.7z M95,33.4
		c0.2,0.6,0.2,1.2-0.1,1.8c-0.2,0.4-0.5,0.7-0.9,0.9c-0.8,0.3-1.8,0-2.3-0.8c0.2-0.1,0.4-0.2,0.6-0.3c0.2,0.3,0.6,0.5,1,0.5
		c0.2,0,0.3,0,0.4-0.1c0.6-0.3,0.9-1.1,0.6-1.7c-0.1-0.2-0.2-0.3-0.4-0.4c0.1-0.2,0.2-0.4,0.3-0.6C94.6,32.7,94.8,33,95,33.4z
		 M92.5,28.6c-0.1-0.1-0.1-0.2-0.2-0.3c-0.5-0.7-1.3-1.2-2.2-1.4c-0.9-0.1-1.8,0-2.5,0.5c-0.3-0.5-0.5-0.7-0.8-1.2
		c1.1-0.8,2.5-1,3.8-0.7c1.3,0.3,2.5,1.1,3.2,2.3c1.3,2.6,0.3,5.8-2.3,7.1c-0.2-0.6-0.4-0.9-0.6-1.5c0.8-0.4,1.5-1.2,1.8-2.1
		C93,30.5,92.9,29.5,92.5,28.6z M87.8,24.4c0.4-0.3,0.9-0.2,1.2,0.1c0,0,0,0,0,0l0,0c0.1,0.1,0.2,0.3,0.2,0.5
		c-0.6,0-1.2,0.1-1.7,0.4C87.4,25.1,87.5,24.7,87.8,24.4z M94,33.7c0.2,0.5,0,1.1-0.4,1.3c-0.4,0.1-0.8,0-1-0.3
		c0.5-0.4,0.9-0.8,1.2-1.3C93.9,33.5,94,33.6,94,33.7z M95.3,28c1,0.5,1.6,1.7,1.2,2.8c-0.3,0.9-1.2,1.4-2.1,1.2l-0.1,0.2l0,0
		l0.1-0.1c0.3-1,0.4-2.1,0.2-3.1c0.1,0,0.3,0,0.4,0.1c0.5,0.2,0.7,0.8,0.6,1.3c-0.1,0.4-0.5,0.6-0.9,0.6v0.3h0.2
		c0.5,0,1-0.3,1.1-0.8c0.2-0.7-0.1-1.4-0.8-1.7c-0.2-0.1-0.4-0.1-0.7-0.1c-0.1-0.3-0.2-0.5-0.3-0.7C94.6,27.8,95,27.8,95.3,28z
		 M92.9,24c1.1,0.3,1.8,1.4,1.6,2.5c-0.1,0.4-0.2,0.7-0.5,1c-0.1-0.2-0.3-0.4-0.4-0.6c0.2-0.2,0.2-0.4,0.3-0.6
		c0.1-0.7-0.3-1.4-1-1.5c-0.6-0.1-1.1,0.2-1.3,0.7l0.3,0.1c0.2-0.4,0.6-0.6,1-0.5c0.5,0.1,0.9,0.6,0.8,1.2c0,0.2-0.1,0.3-0.2,0.4
		c-0.7-0.7-1.6-1.2-2.5-1.4C91.1,24.4,92,23.9,92.9,24z M90.8,25.2h-0.1h-0.1l0,0H90.8z M88.7,23.2c0.5,0.1,0.9,0.3,1.2,0.7
		c0.2,0.3,0.4,0.8,0.4,1.2c-0.2,0-0.4,0-0.7,0l0,0c0-0.2-0.1-0.5-0.2-0.7v0c-0.4-0.5-1.1-0.7-1.7-0.3c0,0,0,0,0,0
		c-0.4,0.3-0.6,0.9-0.4,1.4c-0.2,0.1-0.4,0.2-0.6,0.4c-0.3-0.8-0.1-1.7,0.6-2.3C87.6,23.3,88.2,23.2,88.7,23.2L88.7,23.2z
		 M87.2,20.7c0.3,0.4,0.5,0.9,0.4,1.5c0,0.5-0.3,0.9-0.6,1.2c-0.7,0.5-1.6,0.6-2.3,0.1c0.2-0.2,0.3-0.3,0.5-0.5
		c0.2,0.1,0.4,0.2,0.7,0.2c0.4,0,0.8-0.2,1-0.6c0.3-0.4,0.3-1-0.1-1.5c-0.2-0.2-0.4-0.3-0.6-0.4c0-0.2,0.1-0.4,0.1-0.7
		C86.6,20.2,87,20.4,87.2,20.7L87.2,20.7z M77.9,15c0.1-0.2,0.3-0.3,0.6-0.4c0.2,0,0.5,0,0.7,0.1c0.1,0.1,0.2,0.2,0.3,0.3
		c-0.5,0.2-1.1,0.5-1.5,0.9C77.7,15.7,77.7,15.3,77.9,15z M81,15.1c1.3-0.2,2.5,0.2,3.5,1c0.9,0.8,1.4,2,1.4,3.3
		c0,1.4-0.5,2.8-1.5,3.9c-0.3-0.4-0.6-0.7-1-1c0.7-0.7,1.1-1.6,1.1-2.6c0-0.9-0.4-1.8-1.1-2.4c-0.7-0.6-1.5-0.9-2.4-0.8
		c-1,0.1-1.9,0.6-2.5,1.3c-0.4-0.3-0.7-0.5-1.1-0.8C78.3,15.9,79.6,15.3,81,15.1L81,15.1z M83.8,15.2c-0.6-0.3-1.1-0.4-1.8-0.4
		c0-0.4,0.4-0.7,0.8-0.8c0.5-0.1,1,0.2,1.1,0.7C83.9,14.9,83.8,15.1,83.8,15.2L83.8,15.2z M86.1,21.1c0.2,0,0.3,0.1,0.4,0.2
		c0.3,0.3,0.3,0.7,0.1,1.1c-0.3,0.4-0.8,0.5-1.2,0.3C85.7,22.2,85.9,21.7,86.1,21.1z M87.5,16.5c0.3,0.4,0.5,0.8,0.5,1.3
		c-0.1,0.9-0.8,1.7-1.7,1.8v0.2l0,0c0-0.1,0-0.3,0-0.4c0-0.9-0.2-1.8-0.7-2.5c0.1-0.1,0.3-0.1,0.4-0.1c0.5,0,0.9,0.5,0.9,1
		c0,0.4-0.3,0.8-0.7,0.8l0.1,0.3c0.6-0.1,1-0.6,1-1.1c0-0.7-0.5-1.3-1.2-1.3c0,0,0,0,0,0c-0.2,0-0.4,0-0.6,0.1
		c-0.1-0.2-0.3-0.4-0.5-0.5c0.3-0.2,0.7-0.3,1.1-0.3C86.6,15.9,87.1,16.1,87.5,16.5z M82.6,13c0.5,0,1.1,0.1,1.5,0.5
		c0.4,0.3,0.7,0.7,0.7,1.2c0,0.4,0,0.8-0.2,1.1c-0.2-0.1-0.4-0.3-0.6-0.4c0.1-0.2,0.1-0.4,0.1-0.6c-0.1-0.7-0.7-1.2-1.4-1.1
		c-0.5,0.1-0.9,0.5-1,1.1h0.1c-0.2,0-0.5,0-0.8,0C81.1,13.9,81.7,13.2,82.6,13L82.6,13z M80.9,14.8h-0.1l0,0H80.9z M78.5,13.7
		c0.4-0.1,0.9,0,1.3,0.3c0.3,0.2,0.5,0.5,0.7,0.9c-0.2,0.1-0.4,0.1-0.7,0.2c-0.1-0.2-0.2-0.4-0.4-0.5l0,0c-0.6-0.4-1.3-0.2-1.7,0.3
		c-0.3,0.4-0.3,1,0,1.4c-0.2,0.1-0.3,0.3-0.4,0.5c-0.5-0.7-0.6-1.6-0.1-2.3C77.4,14.1,77.9,13.8,78.5,13.7z M76.3,11.8
		c0.4,0.3,0.7,0.7,0.8,1.2c0.1,0.5,0,1-0.2,1.4c-0.5,0.7-1.3,1.1-2.2,0.9c0.1-0.2,0.2-0.4,0.3-0.6c0.1,0,0.2,0,0.2,0
		c0.4,0,0.8-0.2,1.1-0.6c0.4-0.5,0.2-1.2-0.3-1.6c0,0,0,0,0,0l0,0c-0.2-0.1-0.4-0.2-0.6-0.1c0-0.2,0-0.4-0.1-0.6
		C75.7,11.5,76,11.6,76.3,11.8z M73.5,11.6c-0.3-0.8-0.9-1.5-1.7-1.8c-0.8-0.4-1.7-0.4-2.5,0c-0.9,0.4-1.6,1.1-2,2
		c-0.5-0.2-0.8-0.3-1.3-0.4c0.6-1.4,1.6-2.4,3-3c1.1-0.5,2.4-0.5,3.5,0c1.2,0.6,2.1,1.7,2.4,3c0.4,1.3,0.2,2.6-0.5,3.8l-1.2-0.7
		C73.7,13.6,73.8,12.5,73.5,11.6z M65.8,9.7c0-0.2,0-0.5,0.2-0.7c0.2-0.3,0.6-0.4,0.9-0.3c0.1,0,0.3,0.1,0.4,0.2
		c-0.5,0.4-0.8,0.8-1.2,1.3C66,10.1,65.9,9.9,65.8,9.7z M70.4,6.8c0.4-0.1,0.8,0.1,1,0.5c0.1,0.1,0.1,0.3,0.1,0.4
		c-0.6-0.1-1.2-0.1-1.8,0.1C69.6,7.3,69.9,6.9,70.4,6.8z M75.4,12.6c0.1,0,0.3,0,0.4,0.1l0,0c0.4,0.3,0.5,0.8,0.2,1.2c0,0,0,0,0,0
		c-0.2,0.3-0.6,0.5-0.9,0.4C75.3,13.7,75.4,13.1,75.4,12.6L75.4,12.6z M75.2,11.3L75.2,11.3c0,0,0-0.1,0-0.1V11.3L75.2,11.3z
		 M73.8,7.5c0.5-0.1,1.1,0,1.6,0.2c0.4,0.2,0.7,0.6,0.8,1.1c0.2,0.9-0.2,1.8-1.1,2.2c-0.3-0.9-0.8-1.7-1.5-2.3
		c0.1-0.1,0.1-0.1,0.2-0.2c0.2-0.1,0.5-0.1,0.7-0.1c0.2,0.1,0.4,0.2,0.5,0.4c0.1,0.2,0.1,0.4,0.1,0.7c-0.1,0.2-0.2,0.4-0.4,0.6
		l0.2,0.3c0.6-0.3,0.8-1.1,0.5-1.6c0,0,0,0,0,0c-0.1-0.3-0.4-0.5-0.7-0.6c-0.4-0.1-0.9,0-1.2,0.4c-0.2-0.1-0.4-0.3-0.6-0.4
		C73.1,7.9,73.4,7.6,73.8,7.5z M69.7,6c0.5-0.2,1.1-0.2,1.6,0c0.5,0.2,0.8,0.5,1,1c0.1,0.3,0.2,0.7,0.2,1c-0.2-0.1-0.4-0.2-0.7-0.2
		c0-0.2,0-0.4-0.1-0.6c-0.3-0.6-1-0.9-1.6-0.6c-0.5,0.2-0.8,0.8-0.7,1.3c-0.2,0-0.3,0.1-0.4,0.2l-0.2,0.1C68.5,7.2,68.9,6.4,69.7,6z
		 M66,7.9c0.4-0.2,0.9-0.2,1.3-0.1c0.3,0.1,0.6,0.3,0.8,0.6c-0.2,0.1-0.4,0.2-0.6,0.4c-0.1-0.2-0.3-0.3-0.5-0.4
		c-0.7-0.2-1.4,0.2-1.6,0.8c-0.1,0.2-0.1,0.4,0,0.5c0.1,0.3,0.2,0.6,0.5,0.8c-0.1,0.2-0.2,0.4-0.3,0.6c-0.7-0.5-1-1.3-0.7-2.1
		C65.1,8.5,65.5,8.1,66,7.9z M63.2,6.6c0.5,0.1,0.9,0.5,1.1,0.9c0.2,0.4,0.3,0.9,0.2,1.4c-0.2,0.8-1,1.4-1.8,1.5
		c0.1-0.2,0.1-0.4,0.1-0.7c0.5,0,1-0.4,1.1-0.9c0.2-0.6-0.1-1.3-0.8-1.5c0,0,0,0,0,0h-0.1c-0.2-0.1-0.4-0.1-0.6,0
		c-0.1-0.2-0.2-0.4-0.3-0.6C62.5,6.6,62.9,6.5,63.2,6.6z M60.5,7.3C60,6.6,59.2,6.1,58.3,6c-0.9-0.1-1.7,0.1-2.4,0.7
		c-0.7,0.6-1.2,1.5-1.3,2.5c-0.5,0-0.8,0-1.4-0.1c0.1-1.5,0.9-2.8,2-3.7c0.9-0.8,2.1-1.2,3.3-1c1.3,0.2,2.5,1,3.2,2.2
		c0.7,1.1,1,2.4,0.6,3.7c-0.5-0.1-0.8-0.1-1.3-0.2C61.2,9.1,61,8.1,60.5,7.3z M53.1,8.1c-0.3-0.1-0.6-0.5-0.6-0.9
		c0-0.5,0.4-0.9,0.9-0.9c0.2,0,0.3,0,0.4,0.1C53.5,7,53.2,7.5,53.1,8.1L53.1,8.1z M55.7,4.1c0.1-0.5,0.6-0.7,1.1-0.6
		c0.2,0,0.3,0.1,0.4,0.3c0.1,0.1,0.2,0.2,0.2,0.4c-0.6,0.1-1.2,0.3-1.7,0.6C55.6,4.5,55.6,4.3,55.7,4.1L55.7,4.1z M62.6,7.6
		c0.1,0,0.3,0,0.4,0l0,0c0.4,0.1,0.7,0.6,0.5,1c-0.1,0.4-0.4,0.6-0.8,0.7C62.8,8.7,62.7,8.2,62.6,7.6L62.6,7.6z M62,6.4L62,6.4
		l-0.1-0.1L62,6.4L62,6.4z M59.6,3.3C60,3,60.6,2.9,61.2,3.1c0.5,0.1,0.9,0.4,1.1,0.8c0.5,0.8,0.3,1.8-0.4,2.4
		c-0.5-0.8-1.2-1.4-2.1-1.8c0-0.1,0.1-0.2,0.2-0.2c0.4-0.3,0.9-0.3,1.3,0c0.3,0.3,0.3,0.9,0,1.2c0,0,0,0,0,0l0.2,0.2
		c0.5-0.5,0.5-1.2,0-1.7c0,0,0,0,0,0c-0.5-0.5-1.2-0.5-1.7,0c-0.1,0.1-0.2,0.2-0.2,0.3c-0.2-0.1-0.4-0.1-0.7-0.2
		C59,3.8,59.3,3.5,59.6,3.3z M55.2,2.9c0.4-0.3,1-0.5,1.5-0.5c0.5,0,1,0.3,1.3,0.7c0.2,0.3,0.4,0.6,0.5,1c-0.2,0-0.5,0-0.7,0
		c0-0.2-0.1-0.4-0.3-0.6c-0.4-0.4-1-0.5-1.5-0.3c-0.3,0.2-0.5,0.4-0.6,0.7c-0.1,0.3-0.1,0.6,0.1,0.9L55,5.1l-0.1,0.1
		C54.5,4.5,54.6,3.6,55.2,2.9z M52.2,5.8c0.3-0.3,0.8-0.5,1.2-0.5c0.4,0,0.7,0.1,1,0.4C54.3,5.9,54.2,6,54,6.2
		c-0.6-0.3-1.3-0.1-1.6,0.4S52.2,8,52.8,8.3c0.1,0,0.1,0.1,0.2,0.1c0,0.2-0.1,0.4-0.1,0.7c-0.8-0.3-1.3-1-1.3-1.8
		C51.6,6.7,51.8,6.2,52.2,5.8L52.2,5.8z M49.4,5.4c0.5,0,1,0.2,1.3,0.5c0.3,0.3,0.5,0.8,0.5,1.3c0,0.8-0.5,1.6-1.3,1.9
		c0-0.2,0-0.5-0.1-0.7c0.5-0.2,0.8-0.7,0.8-1.2c0-0.6-0.5-1.2-1.2-1.2c0,0,0,0,0,0l0,0c-0.2,0-0.4,0.1-0.6,0.2
		c-0.1-0.2-0.3-0.3-0.5-0.5C48.7,5.5,49,5.4,49.4,5.4L49.4,5.4z M41.8,10.1c-0.5,0.1-0.8,0.2-1.3,0.3c-0.3-1.4,0-2.9,0.8-4.1
		c0.7-1,1.7-1.7,2.9-1.8h0.5c1.2,0,2.3,0.5,3.2,1.2c1,0.8,1.6,2.1,1.7,3.4l-1.4,0.1c-0.1-1-0.6-1.9-1.3-2.5
		c-1.4-1.1-3.3-0.9-4.4,0.5c-0.1,0.1-0.1,0.1-0.1,0.2C41.8,8.2,41.6,9.2,41.8,10.1z M40,9.5c-0.4,0-0.7-0.3-0.8-0.7
		c-0.1-0.2-0.1-0.5,0.1-0.7c0.1-0.2,0.3-0.3,0.5-0.4l0,0c0.1,0,0.3,0,0.5,0C40.1,8.3,40,8.9,40,9.5L40,9.5z M41.5,4.5
		c0.3-0.4,0.8-0.5,1.3-0.3C42.9,4.3,43,4.4,43,4.5c-0.5,0.2-1,0.6-1.5,1C41.3,5.2,41.3,4.9,41.5,4.5L41.5,4.5z M49,6.5
		c0.1-0.1,0.3-0.1,0.4-0.1l0,0c0.5,0,0.8,0.4,0.8,0.8c0,0.4-0.2,0.7-0.5,0.9C49.6,7.5,49.4,7,49,6.5L49,6.5z M48.2,5.5L48.2,5.5
		L48.2,5.5L48.2,5.5z M44.9,3.2c0.4-0.4,0.9-0.6,1.5-0.6c0.5,0,1,0.1,1.3,0.5c0.7,0.6,0.8,1.6,0.3,2.4c-0.7-0.6-1.6-1-2.5-1.1
		c0-0.2,0.1-0.3,0.2-0.4c0.3-0.4,0.9-0.4,1.3-0.1c0.3,0.3,0.4,0.7,0.2,1.1L47.4,5c0.3-0.5,0.2-1.1-0.3-1.5c-0.5-0.4-1.3-0.4-1.7,0.1
		c-0.2,0.2-0.2,0.4-0.3,0.6c-0.2,0-0.5,0-0.7,0C44.5,3.8,44.7,3.5,44.9,3.2z M40.6,4c0.3-0.5,0.8-0.8,1.3-0.9c0.5-0.1,1,0,1.4,0.2
		c0.3,0.2,0.5,0.5,0.7,0.8c-0.2,0-0.5,0.1-0.7,0.2c-0.1-0.2-0.2-0.3-0.4-0.5c-0.6-0.4-1.3-0.2-1.7,0.4c-0.3,0.5-0.2,1,0.1,1.4
		C41.2,5.9,41.1,6,41,6.2l-0.1,0.1C40.3,5.7,40.2,4.8,40.6,4z M38.5,7.6c0.2-0.4,0.6-0.7,1-0.8c0.4-0.1,0.7-0.1,1.1,0.1
		c-0.1,0.2-0.2,0.4-0.3,0.6c-0.2-0.1-0.4-0.1-0.6,0l0,0c-0.6,0.2-1,0.8-0.8,1.4C39,9.5,39.5,9.8,40,9.9c0,0.2,0.1,0.4,0.1,0.7
		c-0.8,0-1.6-0.6-1.8-1.4C38.2,8.6,38.3,8,38.5,7.6z M35.7,7.9c0.5-0.1,1-0.1,1.4,0.2c0.4,0.2,0.7,0.6,0.9,1c0.3,0.8,0,1.7-0.7,2.2
		c-0.1-0.2-0.2-0.4-0.3-0.6c0.4-0.3,0.6-0.8,0.5-1.3c-0.1-0.3-0.3-0.6-0.6-0.7c-0.3-0.2-0.6-0.2-0.9-0.1l0,0
		c-0.2,0.1-0.4,0.2-0.5,0.3c-0.2-0.1-0.4-0.2-0.6-0.4C35.1,8.3,35.4,8.1,35.7,7.9z M29.7,14.6c-0.5,0.2-0.8,0.4-1.2,0.7
		c-0.7-1.3-0.8-2.8-0.4-4.1c0.4-1.2,1.2-2.1,2.3-2.6c0.6-0.2,1.2-0.3,1.8-0.4c0.8,0,1.5,0.2,2.2,0.5c1.2,0.5,2.1,1.5,2.6,2.8
		l-1.3,0.5c-0.4-0.9-1.1-1.6-2-2c-0.8-0.4-1.7-0.4-2.5,0c-0.8,0.4-1.5,1.1-1.7,1.9C29.2,12.8,29.3,13.8,29.7,14.6z M27.6,12.8
		c0,0.6,0.1,1.2,0.2,1.7c-0.4,0.1-0.8-0.1-1-0.4c-0.1-0.2-0.2-0.4-0.1-0.6c0-0.2,0.2-0.4,0.4-0.5l0,0C27.2,12.8,27.4,12.8,27.6,12.8
		z M28.2,10.3c-0.3-0.2-0.5-0.6-0.4-1C28,8.8,28.5,8.5,29,8.7c0.1,0,0.2,0.1,0.3,0.2C28.8,9.2,28.5,9.7,28.2,10.3z M36.8,10.4
		c-0.3-0.5-0.7-0.9-1.2-1.3C35.8,9,35.9,9,36,8.9c0.2-0.1,0.5,0,0.7,0.1c0.2,0.1,0.4,0.3,0.4,0.5C37.2,9.8,37.1,10.2,36.8,10.4z
		 M34.5,8.4L34.5,8.4L34.5,8.4z M30.7,7.1c0.3-0.5,0.7-0.8,1.2-1c0.5-0.2,1-0.2,1.4,0c0.8,0.4,1.2,1.3,1,2.2
		c-0.9-0.4-1.8-0.5-2.7-0.4c0-0.2,0-0.3,0.1-0.5C31.9,7,32.4,6.8,32.9,7c0.4,0.2,0.6,0.6,0.5,1l0.3,0.1C33.8,7.6,33.5,7,33,6.8
		c-0.6-0.3-1.4,0-1.6,0.6c-0.1,0.2-0.1,0.4-0.1,0.7c-0.2,0.1-0.5,0.1-0.7,0.2C30.5,7.9,30.6,7.5,30.7,7.1z M26.8,9.1
		c0.2-0.5,0.5-0.9,1-1.2c0.4-0.2,1-0.3,1.4-0.2c0.4,0.1,0.7,0.3,0.9,0.6c-0.2,0.1-0.4,0.2-0.6,0.4c-0.1-0.1-0.3-0.2-0.5-0.3
		c-0.7-0.2-1.4,0.1-1.6,0.8c-0.1,0.5,0.1,1.1,0.5,1.3c-0.1,0.2-0.1,0.3-0.2,0.5v0.1C27.1,10.8,26.6,10,26.8,9.1z M25.8,13.1
		c0.1-0.4,0.4-0.8,0.8-1c0.3-0.2,0.7-0.3,1.1-0.2c0,0.2-0.1,0.4-0.1,0.6c-0.2,0-0.4,0-0.6,0.2l0,0c-0.5,0.3-0.7,1.1-0.3,1.6
		c0,0,0,0,0,0c0.2,0.4,0.6,0.6,1,0.6c0.1,0,0.2,0,0.3,0c0.1,0.2,0.2,0.4,0.3,0.6c-0.8,0.2-1.7-0.1-2.1-0.8
		C25.8,14.2,25.7,13.6,25.8,13.1L25.8,13.1z M23.2,14.3c0.4-0.3,0.9-0.4,1.4-0.3c0.5,0.1,0.9,0.4,1.2,0.8c0.5,0.7,0.4,1.6-0.1,2.3
		c-0.1-0.2-0.3-0.4-0.4-0.5c0.2-0.3,0.3-0.6,0.2-0.9c0-0.3-0.2-0.6-0.5-0.8c-0.4-0.3-1-0.3-1.4,0c-0.2,0.1-0.3,0.3-0.4,0.5
		c-0.2-0.1-0.4-0.1-0.7-0.2C22.6,14.8,22.9,14.5,23.2,14.3L23.2,14.3z M16.9,20.1c-0.1-1.4,0.5-2.7,1.4-3.7c0.9-0.7,1.9-1.2,3.1-1.1
		H22c1.4,0.1,2.6,0.8,3.4,1.9l-1.1,0.8c-0.6-0.8-1.5-1.2-2.5-1.3c-1.8-0.2-3.3,1.1-3.5,2.9c0,0.1,0,0.2,0,0.3c0,1,0.4,1.9,1.1,2.6
		c-0.4,0.4-0.6,0.6-1,1C17.5,22.6,17,21.4,16.9,20.1z M16.7,18.8C16.3,18.8,16,18.4,16,18c0-0.5,0.4-1,0.9-1c0,0,0,0,0,0
		c0.2,0,0.3,0,0.4,0.1C17.1,17.6,16.9,18.2,16.7,18.8L16.7,18.8z M17.6,23c-0.3,0.2-0.7,0.1-1-0.1c-0.2-0.1-0.3-0.4-0.3-0.6
		c0-0.2,0.1-0.5,0.2-0.6l0,0c0.1-0.1,0.2-0.2,0.4-0.2C17,22,17.2,22.5,17.6,23L17.6,23z M25,16.3c-0.4-0.4-1-0.7-1.5-0.9
		c0.1-0.1,0.1-0.2,0.3-0.3c0.3-0.2,0.7-0.2,1,0C25.2,15.4,25.3,15.9,25,16.3L25,16.3z M22.2,15.1h-0.1H22.2L22.2,15.1z M18.2,15
		c0.1-0.5,0.4-1,0.9-1.4c0.4-0.3,0.9-0.5,1.4-0.4c0.9,0.2,1.5,0.9,1.6,1.8c-0.9-0.1-1.9,0.1-2.8,0.4c-0.1-0.1-0.1-0.3-0.1-0.4
		c0.1-0.5,0.5-0.8,1-0.8c0.4,0,0.7,0.4,0.8,0.8h0.3c-0.1-0.6-0.5-1-1-1.1c-0.7-0.1-1.3,0.4-1.4,1.1c0,0.2,0,0.4,0.1,0.6
		c-0.2,0.1-0.4,0.2-0.6,0.4C18.2,15.7,18.1,15.3,18.2,15L18.2,15z M15,18c0-0.5,0.2-1.1,0.6-1.5C16,16.2,16.5,16,17,16
		c0.4,0,0.7,0.1,1.1,0.3c-0.2,0.2-0.3,0.3-0.5,0.5c-0.2-0.1-0.4-0.2-0.6-0.2c-0.7,0-1.2,0.6-1.2,1.3c0,0.6,0.4,1,1,1.1
		c0,0.2-0.1,0.4-0.1,0.7C15.7,19.7,15.1,18.9,15,18z M15.7,21c0.3-0.3,0.6-0.5,1-0.6c0,0.2,0,0.4,0.1,0.7c-0.2,0.1-0.4,0.2-0.5,0.3
		l0,0c-0.5,0.5-0.4,1.2,0,1.7c0,0,0,0,0.1,0.1c0.2,0.2,0.5,0.3,0.8,0.3c0.2,0,0.4-0.1,0.6-0.2c0.1,0.2,0.3,0.3,0.5,0.5
		c-0.9,0.6-2,0.4-2.6-0.4c-0.2-0.3-0.3-0.6-0.4-1C15.2,21.8,15.3,21.3,15.7,21z M13,24.3c0.3-0.4,0.8-0.7,1.3-0.7
		c0.5-0.1,0.9,0.1,1.3,0.4c0.7,0.5,0.9,1.5,0.6,2.3c-0.2-0.1-0.4-0.3-0.6-0.4c0.2-0.5,0-1.1-0.4-1.4c-0.3-0.2-0.6-0.3-0.9-0.2
		c-0.3,0-0.6,0.2-0.8,0.5l0,0c-0.1,0.2-0.2,0.4-0.2,0.6c-0.2,0-0.5,0-0.7,0.1C12.7,25,12.8,24.7,13,24.3z M10.1,31.7
		c0.3,0.9,0.9,1.6,1.8,2.1c-0.2,0.5-0.4,0.9-0.6,1.4c-1.2-0.5-2.1-1.5-2.5-2.6c-0.5-1.4-0.5-3,0.2-4.4c0.7-1.2,1.9-2.1,3.3-2.3
		c0.4-0.1,0.7-0.1,1.1-0.1c0.9,0,1.9,0.3,2.6,0.9c-0.3,0.4-0.5,0.7-0.8,1.2L15,27.6c-1.6-0.9-3.7-0.3-4.6,1.3
		C9.9,29.7,9.8,30.8,10.1,31.7z M9.1,33.7c0.3,0.5,0.7,1,1.2,1.3c-0.2,0.3-0.6,0.4-1,0.3c-0.2-0.1-0.4-0.3-0.5-0.5
		c-0.1-0.2-0.1-0.5,0-0.7C8.8,33.9,8.9,33.8,9.1,33.7L9.1,33.7z M8.2,31.1c-0.4,0.1-0.8-0.2-0.9-0.6c-0.2-0.5,0.1-1.1,0.6-1.3
		c0.1,0,0.3,0,0.4,0C8.2,29.8,8.1,30.5,8.2,31.1L8.2,31.1z M15.3,25.8c-0.5-0.2-1.1-0.4-1.7-0.4c0-0.2,0.1-0.3,0.2-0.4l0,0
		c0.1-0.2,0.3-0.3,0.6-0.3c0.5-0.1,1,0.3,1,0.8C15.4,25.6,15.4,25.7,15.3,25.8L15.3,25.8z M10,24.3c0.9-0.2,1.8,0.4,2.1,1.2l0.2-0.1
		l0,0l0,0c-1,0.2-2,0.7-2.7,1.5c-0.1-0.1-0.2-0.3-0.2-0.4c-0.1-0.5,0.2-1,0.8-1.1c0.4-0.1,0.8,0.1,1,0.5l0.3-0.1
		c-0.2-0.5-0.8-0.8-1.3-0.7c-0.7,0.2-1.1,0.8-1,1.5c0,0.2,0.1,0.4,0.3,0.6c-0.2,0.2-0.3,0.4-0.4,0.6c-0.3-0.3-0.5-0.6-0.5-1
		C8.3,25.6,8.9,24.6,10,24.3z M6.3,31c-0.4-1.1,0.2-2.3,1.2-2.8c0.4-0.1,0.7-0.1,1.1,0c-0.1,0.2-0.2,0.5-0.3,0.7
		c-0.2,0-0.5,0-0.7,0.1c-0.6,0.3-1,1-0.8,1.7c0.2,0.5,0.6,0.8,1.1,0.8h0.2c0,0.2,0.1,0.5,0.2,0.7C7.5,32.4,6.6,31.8,6.3,31z
		 M7.9,35.2c-0.2-0.5-0.2-1.1,0-1.6C8,33.3,8.3,33,8.6,32.7c0.1,0.2,0.2,0.4,0.3,0.6c-0.4,0.3-0.6,0.9-0.5,1.5
		c0.1,0.3,0.4,0.6,0.7,0.7c0.1,0,0.3,0.1,0.4,0.1c0.4,0,0.8-0.2,1-0.5c0.2,0.1,0.4,0.2,0.6,0.3c-0.5,0.7-1.4,1.1-2.2,0.8
		C8.5,36.1,8.1,35.7,7.9,35.2z M6.5,37.9c0.2-0.6,0.6-1.1,1.1-1.3c0.4-0.2,0.8-0.2,1.2-0.1c0.8,0.3,1.4,1.2,1.3,2.1
		c-0.2-0.1-0.4-0.1-0.7-0.2c0-0.6-0.3-1.1-0.8-1.2c-0.3-0.1-0.6-0.1-0.9,0.1c-0.3,0.2-0.6,0.5-0.7,0.8c-0.1,0.2-0.1,0.5,0,0.7
		c-0.2,0.1-0.3,0.2-0.5,0.2l-0.1,0C6.3,38.8,6.3,38.3,6.5,37.9z M6.3,47c0.5,0.7,1.3,1.1,2.1,1.2c0,0.7-0.1,1.1-0.1,1.8
		C7.1,50,6,49.4,5.2,48.4c-1.1-1.4-1.6-3.2-1.3-5c0.3-1.7,1.4-3.1,2.8-4c0.6-0.4,1.3-0.6,2.1-0.6c0.4,0,0.8,0.1,1.2,0.2
		c-0.2,0.6-0.3,1-0.4,1.6c-0.9-0.2-1.8,0-2.5,0.5c-0.9,0.6-1.5,1.5-1.7,2.6C5.3,44.9,5.6,46.1,6.3,47L6.3,47z M5.7,49.4
		c0.5,0.4,1,0.7,1.6,0.9C7.2,50.6,6.9,51,6.5,51h0c-0.2,0-0.4-0.1-0.5-0.2c-0.2-0.3-0.3-0.6-0.3-0.9C5.6,49.7,5.6,49.5,5.7,49.4
		L5.7,49.4z M4,46.9c-0.3,0.2-0.7,0.1-0.9-0.2l0,0c-0.3-0.5-0.3-1.2,0.1-1.7c0.1-0.1,0.2-0.2,0.3-0.3C3.5,45.5,3.7,46.2,4,46.9
		L4,46.9z M7.4,38.2c0.1-0.3,0.2-0.5,0.5-0.6c0.2-0.1,0.4-0.1,0.6,0c0.4,0.2,0.6,0.5,0.6,0.9c-0.6,0-1.2,0-1.7,0.2
		C7.3,38.6,7.3,38.4,7.4,38.2L7.4,38.2z M2.8,42.2c-0.5-1.1-0.2-2.5,0.8-3.2c0.8-0.5,1.8-0.3,2.3,0.5l0.2-0.1l0,0
		C5.2,40,4.5,40.9,4,41.9c-0.1-0.1-0.3-0.2-0.3-0.4C3.5,41,3.6,40.3,4.1,40c0.3-0.2,0.8-0.1,1,0.2l0.3-0.2c-0.4-0.5-1-0.6-1.5-0.2
		C3.2,40.2,3,41,3.4,41.7c0.1,0.2,0.3,0.4,0.5,0.5c-0.1,0.3-0.2,0.5-0.3,0.8C3.2,42.9,3,42.6,2.8,42.2L2.8,42.2z M3.4,48.2
		c-0.5-0.1-0.9-0.3-1.2-0.7C1.6,46.4,1.7,45,2.6,44c0.3-0.3,0.6-0.5,1-0.5c0,0.3-0.1,0.6-0.1,0.9c-0.2,0-0.4,0.2-0.6,0.3
		c-0.5,0.6-0.6,1.4-0.2,2.1v0.1c0.2,0.3,0.5,0.5,0.9,0.5c0.2,0,0.3,0,0.5-0.1c0.1,0.3,0.3,0.5,0.4,0.8C4.2,48.2,3.8,48.3,3.4,48.2
		L3.4,48.2z M5.3,51.7c-0.5-0.5-0.7-1.2-0.7-1.9c0-0.4,0.1-0.8,0.3-1.2l0,0c0.2,0.2,0.3,0.4,0.5,0.6c-0.3,0.6-0.2,1.3,0.2,1.8
		c0.2,0.2,0.5,0.3,0.8,0.4h0c0.6,0,1-0.4,1.2-1c0.2,0,0.4,0.1,0.7,0.1c-0.1,0.9-0.7,1.6-1.6,1.8H6.4H6.1C5.8,52.2,5.5,52,5.3,51.7
		L5.3,51.7z M5.4,52.9c0.2-0.2,0.5-0.4,0.8-0.4c0.1,0,0.2,0,0.3,0h0c0.1,0,0.2,0,0.3,0c0.8,0.2,1.5,0.9,1.6,1.8l0.3-0.1
		c-0.2-0.8-0.7-1.5-1.4-1.9C8,52,8.5,51.3,8.6,50.4l-0.3-0.1h0.1c0.1,0,0.2-0.1,0.2-0.2c0-0.9,0.1-1.3,0.1-2.2c0,0,0-0.1,0-0.1
		c0,0-0.1-0.1-0.1-0.1H8.5c-0.8-0.1-1.5-0.5-1.9-1.1c-0.7-0.9-1-2-0.8-3.1c0.2-1,0.8-1.8,1.6-2.4c0.7-0.5,1.5-0.6,2.3-0.4h0.1
		c0,0,0.1,0,0.1,0c0,0,0.1-0.1,0.1-0.1c0.2-0.8,0.3-1.1,0.5-1.9c0-0.1,0-0.2-0.1-0.2h-0.1h0.2c0.1-0.8-0.2-1.5-0.8-2
		c0.8,0,1.4-0.4,1.8-1.1l-0.1-0.1h0.1c0,0,0.1-0.1,0.1-0.1c0.3-0.7,0.4-1,0.7-1.7c0,0,0-0.1,0-0.1c0,0,0-0.1-0.1-0.1l-0.1,0
		c-0.8-0.4-1.3-1.1-1.6-1.9c-0.3-0.8-0.2-1.8,0.2-2.5c0.8-1.5,2.7-2,4.1-1.2c0.1,0,0.2,0.1,0.3,0.1l0.1,0.1c0,0,0.1,0,0.1,0
		c0,0,0.1,0,0.1-0.1c0.4-0.6,0.6-0.9,1-1.5c0.1-0.1,0.1-0.2,0-0.2l0,0h0.1c0.3-0.7,0.1-1.5-0.3-2.2c0.3,0.1,0.6,0.2,0.9,0.2
		c0.5,0,0.9-0.1,1.3-0.4v-0.1h0.1c0,0,0.1,0,0.1,0c0.5-0.5,0.7-0.8,1.2-1.3c0,0,0-0.1,0-0.1c0,0,0-0.1,0-0.1l0,0l-0.1-0.1
		c-0.6-0.6-1-1.5-1-2.3c0-0.8,0.3-1.6,1-2.1c0.6-0.5,1.4-0.8,2.2-0.7c0.9,0.1,1.7,0.5,2.3,1.2l0.1,0.1c0,0,0.1,0.1,0.1,0.1
		c0,0,0.1,0,0.1,0c0.5-0.4,0.8-0.6,1.4-1c0.1-0.1,0.1-0.2,0-0.2l0,0l0.1,0.1c0.4-0.5,0.6-1.2,0.5-1.9c0.6,0.4,1.3,0.5,2,0.3v-0.1
		c0,0,0.1,0,0.1,0c0,0,0.1,0,0.1,0c0.6-0.3,0.9-0.5,1.5-0.8c0,0,0.1-0.1,0.1-0.1c0,0,0-0.1,0-0.1l-0.1-0.1c-0.4-0.8-0.5-1.7-0.3-2.5
		c0.2-0.7,0.8-1.4,1.5-1.7c0.7-0.3,1.6-0.3,2.3,0c0.8,0.3,1.5,1,1.8,1.8v0.1v0.1c0,0,0.1,0.1,0.1,0.1c0,0,0.1,0,0.1,0l1.6-0.6
		c0.1,0,0.1-0.1,0.1-0.2c0,0,0,0,0,0l0.1,0.1c0.6-0.4,1-1,1-1.7c0.4,0.6,1.1,0.9,1.8,0.9v-0.1c0,0.1,0.1,0.1,0.1,0.1l0,0
		c0.6-0.2,1-0.2,1.7-0.4c0,0,0.1,0,0.1-0.1c0,0,0-0.1,0-0.1l0,0c0,0,0-0.1,0-0.1c-0.2-0.9,0-1.8,0.5-2.5c0.9-1.3,2.6-1.6,3.9-0.8
		c0.1,0,0.1,0.1,0.2,0.2c0.7,0.6,1.1,1.4,1.2,2.3v0.1c0,0,0,0.1,0.1,0.1c0,0,0.1,0,0.1,0c0.7-0.1,1-0.1,1.7-0.1
		c0.1,0,0.2-0.1,0.2-0.2l0,0v0.1c0.7-0.2,1.3-0.7,1.6-1.4c0.3,0.6,0.8,1.1,1.5,1.3V9.3c0,0.1,0.1,0.1,0.2,0.1c0.7,0,1,0,1.7,0.1
		c0,0,0.1,0,0.1,0c0,0,0-0.1,0-0.1l0,0c0,0,0-0.1,0-0.1C55,8.4,55.4,7.6,56.1,7c0.6-0.5,1.4-0.7,2.2-0.6c0.8,0.1,1.5,0.5,1.9,1.2
		c0.5,0.7,0.7,1.6,0.5,2.5c0,0,0,0.1,0,0.1v0c0,0,0,0.1,0,0.1c0,0,0.1,0.1,0.1,0.1c0.7,0.1,1,0.2,1.7,0.4l0,0c0.1,0,0.1,0,0.2-0.1
		l0,0v0.1c0.8,0,1.5-0.4,1.9-1.1c0,0.8,0.4,1.5,1,1.9v-0.1c0,0,0,0.1,0,0.1c0,0,0.1,0.1,0.1,0.1c0.6,0.2,1,0.3,1.6,0.6
		c0.1,0.1,0.2,0,0.2,0c0,0,0.1-0.1,0.1-0.1l0,0V12c0.3-0.9,1-1.6,1.9-1.9c0.7-0.3,1.5-0.3,2.3,0c0.7,0.3,1.2,0.9,1.5,1.6
		c0.3,0.9,0.2,1.8-0.3,2.6l-0.1,0.1c0,0,0,0.1,0,0.1c0,0,0.1,0.1,0.1,0.1c0.6,0.3,0.9,0.5,1.5,0.8h0.1c0.1,0,0.1,0,0.1-0.1l0,0v0.1
		c0.2,0.1,0.4,0.1,0.6,0.1c0.4,0,0.9-0.2,1.2-0.4c-0.2,0.7,0,1.4,0.5,1.9l0.1-0.1c0,0.1,0,0.2,0.1,0.2c0.6,0.4,0.8,0.6,1.4,1
		c0,0,0.1,0,0.1,0c0,0,0.1,0,0.1-0.1l0.1-0.1c0.6-0.7,1.4-1.2,2.3-1.2c1.6-0.1,3,1,3.1,2.6c0,0.1,0,0.2,0,0.2c0,0.9-0.4,1.8-1,2.4
		l-0.1,0.1l0,0c0,0,0,0.1,0,0.1c0,0,0,0.1,0,0.1c0.5,0.5,0.7,0.8,1.2,1.3c0,0,0.1,0.1,0.1,0.1c0,0,0.1,0,0.1,0l0,0l-0.1,0.1
		c0.4,0.3,0.8,0.4,1.3,0.4c0.2,0,0.5,0,0.7-0.1c-0.4,0.6-0.4,1.4-0.2,2.1h0.1c-0.1,0.1-0.1,0.2,0,0.2c0.4,0.6,0.6,0.9,1,1.5
		c0,0,0.1,0.1,0.1,0.1c0,0,0.1,0,0.1,0c0,0,0.1,0,0.1-0.1c1.4-0.9,3.2-0.6,4.2,0.7c0.1,0.1,0.1,0.2,0.2,0.3c0.4,0.8,0.5,1.7,0.2,2.6
		c-0.3,0.8-0.9,1.5-1.6,1.9l-0.1,0c0,0-0.1,0-0.1,0.1c0,0,0,0.1,0,0.1c0.3,0.7,0.4,1,0.7,1.7c0,0,0.1,0.1,0.1,0.1h0.1h0.1l0,0l0,0
		l-0.2,0.1c0.4,0.6,1.1,1,1.8,1c-0.6,0.5-0.9,1.3-0.8,2.1h0.2l0,0l0,0c-0.1,0-0.1,0.1-0.1,0.2c0,0,0,0,0,0c0.2,0.8,0.3,1.1,0.5,1.9
		c0,0,0,0.1,0.1,0.1c0,0,0.1,0,0.1,0h0.1c0.8-0.2,1.6-0.1,2.2,0.3c0.9,0.5,1.4,1.4,1.6,2.4c0.1,1.1-0.1,2.3-0.8,3.2
		c-0.5,0.6-1.1,1-1.9,1.1h-0.1c0,0-0.1,0-0.1,0c0,0,0,0.1,0,0.1c0.1,0.9,0.1,1.3,0.1,2.2c0,0.1,0.1,0.2,0.2,0.2h0.1
		c0.2,0,0.5,0,0.7-0.1c0.1,0.6,0.6,1,1.2,1l0,0c0.3,0,0.6-0.1,0.8-0.3c0.3-0.3,0.4-0.7,0.4-1.2c0-0.2-0.1-0.5-0.2-0.7
		c0.1-0.1,0.2-0.2,0.2-0.3c0.1-0.1,0.2-0.2,0.3-0.3c0.2,0.4,0.3,0.8,0.4,1.2c0,0.8-0.2,1.5-0.8,2.1c-0.2,0.2-0.5,0.4-0.8,0.4
		c-0.1,0-0.2,0-0.3,0l0,0h-0.2c-0.8-0.2-1.5-0.9-1.6-1.8l-0.3,0.1c0.1,0.8,0.7,1.5,1.4,1.9c-0.7,0.4-1.2,1.1-1.4,1.9l0.3,0.1h-0.2
		c-0.1,0-0.2,0.1-0.2,0.1c0,0,0,0,0,0c0,0.9-0.1,1.3-0.2,2.2c0,0,0,0.1,0,0.1c0,0,0.1,0.1,0.1,0.1h0.2c2,0.3,2.9,2.4,2.7,4.3
		c-0.2,1-0.8,1.9-1.7,2.4c-0.7,0.4-1.5,0.6-2.2,0.4h-0.1l0,0c0,0-0.1,0-0.1,0c0,0-0.1,0.1-0.1,0.1c-0.2,0.8-0.3,1.2-0.5,1.9
		c0,0.1,0,0.2,0.1,0.2l0,0h0.1h-0.2c-0.1,0.8,0.2,1.5,0.8,2.1c-0.8,0-1.5,0.4-1.9,1.1l0.1,0.1c0,0-0.1,0-0.1,0c0,0-0.1,0.1-0.1,0.1
		c-0.3,0.7-0.4,1-0.7,1.7c0,0,0,0.1,0,0.1c0,0,0,0.1,0.1,0.1h0.1c0.8,0.4,1.4,1.1,1.6,1.9c0.3,0.9,0.2,1.8-0.2,2.6
		c-0.8,1.5-2.6,2-4.1,1.2c0,0,0,0,0,0l-0.3-0.2h-0.1l0,0c0,0-0.1,0-0.1,0c0,0-0.1,0-0.1,0.1c-0.4,0.6-0.6,0.9-1,1.4
		c-0.1,0.1-0.1,0.2,0,0.2c0,0,0,0,0,0l0,0l-0.1-0.1c-0.3,0.7-0.2,1.5,0.3,2.1c-0.7-0.3-1.6-0.2-2.2,0.2l0.1,0.1c-0.1,0-0.1,0-0.2,0
		c-0.5,0.5-0.7,0.8-1.2,1.3c0,0,0,0.1,0,0.1c0,0,0,0.1,0.1,0.1l0,0l0.1,0.1c0.7,0.6,1,1.5,1,2.4c0,0.8-0.4,1.6-1,2.1
		c-0.6,0.5-1.4,0.8-2.2,0.7c-0.9-0.1-1.7-0.6-2.3-1.3c0,0-0.1-0.1-0.1-0.1c0,0-0.1-0.1-0.1-0.1c0,0-0.1,0-0.1,0
		c-0.5,0.4-0.8,0.6-1.4,1c-0.1,0.1-0.1,0.2,0,0.2c0,0,0,0,0,0l-0.1-0.1c-0.4,0.5-0.6,1.2-0.5,1.9c-0.6-0.4-1.3-0.5-2-0.3V89
		c-0.1,0-0.1,0-0.2,0c-0.6,0.3-0.9,0.5-1.5,0.8c0,0-0.1,0.1-0.1,0.1c0,0,0,0.1,0,0.1c0,0,0,0.1,0.1,0.1c0.4,0.8,0.5,1.7,0.2,2.6
		c-0.2,0.7-0.8,1.3-1.5,1.7c-0.7,0.3-1.5,0.3-2.2,0c-0.8-0.4-1.5-1-1.8-1.9c0,0,0-0.1,0-0.1c0,0,0-0.1-0.1-0.1c0,0-0.1,0-0.1,0
		c-0.6,0.2-0.9,0.3-1.6,0.5c-0.1,0-0.1,0.1-0.1,0.2l-0.1-0.1c-0.6,0.4-1,1-1,1.7c-0.4-0.5-1.1-0.9-1.8-0.9v0.1
		c0-0.1-0.1-0.1-0.2-0.1c-0.7,0.2-1,0.2-1.6,0.4c0,0-0.1,0-0.1,0.1c0,0,0,0.1,0,0.1l0,0c0,0,0,0.1,0,0.1c0.2,0.9,0,1.8-0.5,2.5
		c-0.4,0.6-1.1,1.1-1.8,1.2c-0.8,0.1-1.5-0.1-2.1-0.6c-0.7-0.6-1.1-1.4-1.2-2.3c0,0,0-0.1,0-0.1c0,0,0-0.1,0-0.1c0,0-0.1,0-0.1,0
		c-0.7,0-1,0.1-1.7,0.1c-0.1,0-0.2,0.1-0.2,0.2V95c-0.7,0.2-1.2,0.7-1.4,1.3c-0.3-0.6-0.8-1.1-1.5-1.3v0.1c0-0.1-0.1-0.1-0.2-0.1
		l-1.7-0.1c0,0-0.1,0-0.1,0c0,0,0,0.1,0,0.1l0,0c0,0,0,0.1,0,0.1c-0.1,0.9-0.6,1.8-1.4,2.3c-0.6,0.5-1.4,0.7-2.1,0.6
		c-0.8-0.1-1.4-0.5-1.9-1.2c-0.5-0.7-0.7-1.6-0.5-2.5c0,0,0-0.1,0-0.1l0,0c0,0,0-0.1,0-0.1c0,0-0.1-0.1-0.1-0.1
		c-0.7-0.1-1-0.2-1.6-0.4c-0.1,0-0.2,0-0.2,0.1v-0.1l0,0c-0.8,0-1.5,0.4-1.8,1.1c0-0.8-0.4-1.5-1-1.9v0.1c0-0.1,0-0.2-0.1-0.2
		c-0.6-0.2-1-0.3-1.6-0.6c0,0-0.1,0-0.1,0c0,0-0.1,0.1-0.1,0.1c0,0,0,0.1,0,0.1c-0.4,0.8-1.1,1.5-1.9,1.8c-0.7,0.3-1.5,0.3-2.2,0
		c-0.7-0.3-1.3-0.9-1.5-1.7c-0.3-0.8-0.2-1.8,0.2-2.5c0,0,0-0.1,0.1-0.1c0,0,0-0.1,0-0.1c0,0,0-0.1-0.1-0.1
		c-0.6-0.3-0.9-0.5-1.5-0.8c-0.1-0.1-0.2-0.1-0.2,0c0,0,0,0,0,0v-0.1c-0.7-0.2-1.4-0.1-2,0.3c0.1-0.7,0-1.4-0.5-1.9l-0.1,0.1
		c0-0.1,0-0.1,0-0.2c-0.6-0.4-0.8-0.6-1.4-1c0,0-0.1,0-0.1,0c0,0-0.1,0-0.1,0.1l-0.1,0.1c-0.5,0.7-1.4,1.1-2.2,1.2
		c-1.6,0.2-3-1-3.1-2.6c0-0.1,0-0.2,0-0.2c0-0.9,0.4-1.7,1-2.3l0.1-0.1l0,0c0,0,0-0.1,0-0.1c0,0,0-0.1,0-0.1
		c-0.5-0.5-0.7-0.8-1.2-1.3c-0.1-0.1-0.2-0.1-0.2,0l0,0l0.1-0.1c-0.6-0.4-1.3-0.5-2-0.3c0.3-0.6,0.4-1.4,0.1-2l-0.1,0.1
		c0.1-0.1,0.1-0.2,0-0.2c-0.4-0.6-0.6-0.8-1-1.4c0,0-0.1-0.1-0.1-0.1c0,0-0.1,0-0.1,0l0,0l-0.1,0.1c-0.7,0.5-1.5,0.6-2.3,0.5
		c-0.8-0.1-1.5-0.6-2-1.2c-0.1-0.1-0.1-0.2-0.2-0.3c-0.4-0.8-0.5-1.7-0.3-2.5c0.2-0.8,0.8-1.5,1.6-1.9h0.1c0,0,0.1,0,0.1-0.1
		c0,0,0-0.1,0-0.1c-0.3-0.7-0.5-1-0.7-1.7c0,0,0-0.1-0.1-0.1c0,0-0.1,0-0.1,0h-0.1l0,0l0.2-0.1c-0.4-0.6-1.1-1-1.9-1
		c0.6-0.5,0.8-1.3,0.8-2.1h-0.2c0.1,0,0.1-0.1,0.1-0.2c-0.2-0.7-0.3-1.1-0.5-1.9c0-0.1-0.1-0.1-0.2-0.1c0,0,0,0,0,0H9.8
		C9,64,8.2,63.9,7.5,63.4C6.7,62.9,6.1,62,5.9,61c-0.2-1.1,0.1-2.2,0.8-3.1c0.5-0.6,1.1-1,1.9-1.1h0.1c0,0,0.1,0,0.1-0.1
		c0,0,0-0.1,0-0.1c-0.1-0.8-0.1-1.3-0.2-2.2c0-0.1-0.1-0.2-0.2-0.2H8.4c-0.2,0-0.5,0-0.7,0.1c-0.1-0.6-0.6-1-1.2-1
		c-0.3,0-0.6,0.1-0.8,0.4c-0.5,0.5-0.5,1.2-0.2,1.8C5.3,55.8,5.1,56,5,56.2c-0.2-0.4-0.3-0.8-0.3-1.2C4.6,54.3,4.8,53.5,5.4,52.9
		L5.4,52.9z M93.6,71.2c-0.3-0.5-0.7-1-1.2-1.3c0.2-0.3,0.6-0.4,1-0.3c0.5,0.2,0.7,0.8,0.5,1.3C93.9,71,93.8,71.1,93.6,71.2z
		 M93.9,72.6c0.5,1.4,0.4,2.9-0.2,4.2c-0.6,1.1-1.7,1.9-3,2.2c-1.4,0.3-2.8,0.1-4-0.7c0.3-0.4,0.5-0.7,0.8-1.2l0.3,0.2
		c0.8,0.4,1.7,0.5,2.5,0.3c0.9-0.2,1.6-0.8,2-1.6c0.5-0.9,0.6-1.9,0.3-2.8c-0.3-0.9-0.9-1.7-1.8-2.1c0.2-0.6,0.4-0.9,0.6-1.4
		C92.6,70.3,93.5,71.3,93.9,72.6z M94.5,73.8c0.4-0.1,0.8,0.2,0.9,0.6c0.2,0.5-0.1,1.1-0.6,1.3c-0.1,0-0.3,0-0.4,0
		C94.5,75.1,94.5,74.4,94.5,73.8z M87.4,79c0.5,0.2,1.1,0.4,1.7,0.4c0,0.2-0.1,0.3-0.2,0.5l0,0c-0.1,0.2-0.3,0.3-0.6,0.3
		c-0.2,0-0.5,0-0.6-0.2C87.4,79.8,87.3,79.4,87.4,79z M85.9,86c0.4,0.1,0.7,0.4,0.7,0.8c0,0.5-0.4,1-0.9,1c0,0,0,0,0,0
		c-0.2,0-0.3,0-0.4-0.1C85.6,87.2,85.8,86.6,85.9,86L85.9,86z M85.1,81.9c0.4-0.2,1,0,1.2,0.4c0.1,0.3,0.1,0.6-0.1,0.9
		c-0.1,0.1-0.3,0.2-0.4,0.2C85.7,82.8,85.4,82.3,85.1,81.9L85.1,81.9z M85.7,85c0,1.3-0.5,2.5-1.4,3.4c-0.9,0.8-2.1,1.1-3.3,1
		c-1.5-0.1-2.8-0.9-3.7-2l1.1-0.8c0.6,0.8,1.5,1.3,2.5,1.3c1.7,0.2,3.3-1,3.4-2.8c0-0.1,0-0.2,0-0.3c0-1-0.3-1.9-1-2.6
		c0.4-0.4,0.6-0.6,1-1C85.2,82.3,85.7,83.6,85.7,85L85.7,85z M77.7,88.4c0.4,0.4,0.9,0.7,1.5,0.9c-0.1,0.2-0.2,0.3-0.3,0.4
		c-0.2,0.1-0.4,0.2-0.7,0.1c-0.2,0-0.4-0.2-0.6-0.4C77.5,89.1,77.5,88.7,77.7,88.4L77.7,88.4z M75,90.1c0.4,0,0.7,0.1,0.9,0.4
		C76,90.8,76,91,76,91.2c0,0.2-0.2,0.4-0.4,0.5l0,0c-0.1,0.1-0.3,0.1-0.4,0.1C75.2,91.3,75.1,90.7,75,90.1z M74.7,92.9
		c-0.3,1.3-1.2,2.4-2.4,3.1c-1,0.5-2.2,0.6-3.3,0.1c-1.4-0.6-2.6-1.7-3.1-3.1c0.5-0.2,0.8-0.3,1.3-0.4c0.4,0.9,1.1,1.6,2,2
		c0.8,0.3,1.7,0.3,2.5,0c0.8-0.3,1.4-1,1.7-1.8c0.3-0.9,0.2-1.9-0.2-2.8l1.2-0.7C74.9,90.4,75.1,91.7,74.7,92.9z M71.1,97.1
		c-0.2,0.4-0.8,0.6-1.2,0.3c-0.3-0.2-0.5-0.5-0.4-0.9c0.4,0.1,0.8,0.1,1.2,0.2c0.2,0,0.4,0,0.6-0.1C71.2,96.9,71.2,97,71.1,97.1z
		 M66,94.1c0.3,0.5,0.7,0.9,1.1,1.3c-0.1,0.1-0.2,0.2-0.3,0.2c-0.4,0.1-0.7,0-0.9-0.3c-0.1-0.2-0.2-0.4-0.2-0.7
		C65.7,94.5,65.8,94.2,66,94.1L66,94.1z M62.9,95c0.4,0.1,0.7,0.3,0.7,0.7c0.1,0.2,0,0.4-0.1,0.6c-0.1,0.2-0.3,0.3-0.5,0.4l0,0
		c-0.1,0-0.3,0-0.4,0C62.9,96.2,62.9,95.6,62.9,95L62.9,95z M61.9,97.6c-0.7,1.2-1.9,2-3.2,2.3c-1.1,0.2-2.3-0.1-3.2-0.8
		c-1.2-0.9-2-2.4-2.1-3.9l1.3-0.1c0.1,1,0.6,1.9,1.3,2.5c0.7,0.5,1.5,0.8,2.4,0.7c0.8-0.1,1.6-0.6,2.1-1.3c0.6-0.8,0.8-1.8,0.5-2.7
		c0.5-0.1,0.8-0.2,1.3-0.3C62.8,95.2,62.5,96.5,61.9,97.6L61.9,97.6z M55.8,99.7c0.5,0.3,1.1,0.5,1.7,0.6c0,0.1-0.1,0.2-0.2,0.3
		c-0.2,0.2-0.4,0.3-0.6,0.3c-0.5,0-0.9-0.4-0.9-0.9C55.8,99.9,55.8,99.8,55.8,99.7z M54,97.9C53.9,98,53.8,98,53.6,98
		c-0.2,0-0.4-0.1-0.6-0.2c-0.2-0.2-0.3-0.4-0.2-0.6c0-0.4,0.2-0.7,0.6-0.8C53.5,96.9,53.7,97.4,54,97.9L54,97.9z M48.3,98.5
		c-1,0.9-2.4,1.4-3.7,1.3c-1.2-0.1-2.2-0.7-2.9-1.7c-0.9-1.2-1.3-2.7-1-4.2l1.3,0.3c-0.2,0.9,0,1.9,0.6,2.7c0.5,0.7,1.2,1.2,2.1,1.3
		c0.9,0.1,1.7-0.1,2.4-0.7c0.8-0.6,1.2-1.5,1.3-2.4c0.5,0,0.8,0.1,1.3,0.1C49.8,96.5,49.2,97.6,48.3,98.5L48.3,98.5z M47.5,100.1
		c-0.1,0.2-0.2,0.4-0.4,0.5c-0.4,0.2-0.8,0.1-1.1-0.2c-0.1-0.1-0.2-0.3-0.2-0.4c0.6-0.1,1.2-0.3,1.7-0.6l-0.1,0.1
		C47.5,99.7,47.5,99.9,47.5,100.1z M41.9,98.8c0.4,0.4,0.9,0.8,1.4,1c-0.1,0.1-0.2,0.2-0.3,0.3c-0.3,0.2-0.8,0.2-1.1-0.1
		C41.6,99.6,41.6,99.2,41.9,98.8L41.9,98.8z M40.6,96.6c-0.1,0-0.3,0-0.4,0l0,0c-0.4-0.1-0.7-0.6-0.6-1.1c0,0,0,0,0,0
		c0.1-0.4,0.4-0.6,0.8-0.7C40.4,95.4,40.5,96,40.6,96.6L40.6,96.6z M50,96.2c0.3,0.1,0.5,0.5,0.5,0.8c0,0.5-0.4,0.8-0.8,0.8
		c0,0,0,0,0,0l0,0c-0.1,0-0.3,0-0.4-0.1C49.6,97.3,49.9,96.8,50,96.2L50,96.2z M37.3,94.9c-0.1,0.2-0.2,0.4-0.4,0.5
		c-0.2,0.1-0.4,0.1-0.7,0.1c-0.1,0-0.2-0.1-0.3-0.2c0.5-0.4,0.9-0.8,1.2-1.3C37.3,94.2,37.4,94.6,37.3,94.9z M34.8,95.6
		c-1.2,0.6-2.7,0.7-4,0.2c-1.1-0.4-1.9-1.3-2.2-2.4c-0.5-1.4-0.4-3,0.3-4.3c0.5,0.3,0.7,0.4,1.2,0.7c-0.5,0.8-0.5,1.8-0.2,2.8
		c0.3,0.8,0.9,1.5,1.7,1.8c0.8,0.3,1.7,0.3,2.5,0c0.9-0.4,1.6-1.1,2-2c0.5,0.2,0.8,0.3,1.3,0.4C36.8,94.1,36,95.1,34.8,95.6z
		 M33.1,97.3c-0.4,0.2-1,0-1.2-0.4c0,0,0,0,0,0c-0.1-0.1-0.1-0.3-0.1-0.5c0.2,0,0.4,0,0.6,0c0.4,0,0.7,0,1.1-0.1
		C33.7,96.7,33.5,97.1,33.1,97.3z M29.6,95.5c-0.1,0.1-0.2,0.1-0.4,0.2c-0.5,0.1-1-0.1-1.1-0.6c-0.1-0.4,0.1-0.7,0.4-0.9
		C28.7,94.7,29.1,95.1,29.6,95.5z M27.9,91.7c-0.1,0-0.3,0-0.4-0.1l0,0c-0.2-0.1-0.3-0.3-0.4-0.5c0-0.2,0-0.5,0.1-0.6
		c0.2-0.3,0.6-0.5,0.9-0.4C28,90.5,27.9,91.1,27.9,91.7z M25.3,89.2c-0.3,0.4-0.8,0.5-1.2,0.2c-0.1-0.1-0.2-0.2-0.3-0.3
		c0.5-0.2,1-0.5,1.5-0.9C25.6,88.5,25.6,88.9,25.3,89.2z M22.5,89.1c-1.3,0.2-2.7-0.1-3.8-1c-1.9-1.9-2-5,0-7c0,0,0.1-0.1,0.1-0.1
		c0.4,0.4,0.6,0.7,1,1c-0.7,0.7-1,1.6-1,2.6c0,1.8,1.5,3.2,3.2,3.1c0.1,0,0.2,0,0.2,0c1-0.1,1.8-0.6,2.5-1.3
		c0.4,0.3,0.7,0.5,1.1,0.8C25.1,88.3,23.9,89,22.5,89.1z M19.6,89c0.5,0.3,1.1,0.4,1.7,0.4c0,0.4-0.3,0.7-0.7,0.8
		c-0.5,0-0.9-0.3-1-0.8C19.5,89.3,19.5,89.2,19.6,89L19.6,89z M17.2,83.1c-0.5-0.2-0.7-0.7-0.5-1.1c0.1-0.3,0.3-0.5,0.6-0.6
		c0.2,0,0.4,0,0.6,0.1C17.6,82,17.3,82.6,17.2,83.1z M15.5,79.9c-0.4,0.3-0.9,0.2-1.2-0.1l0,0c-0.1-0.1-0.1-0.3-0.2-0.4
		c0.6,0,1.2-0.1,1.7-0.4C15.9,79.3,15.7,79.7,15.5,79.9z M12.9,78.9c-1.4-0.2-2.7-1.1-3.5-2.3c-0.7-1.3-0.8-2.9-0.3-4.3
		c0.4-1.2,1.3-2.3,2.5-2.8c0.2,0.6,0.4,0.9,0.6,1.4c-0.8,0.4-1.5,1.2-1.7,2.1c-0.3,0.9-0.2,2,0.3,2.8c0.1,0.1,0.1,0.2,0.2,0.3
		c1.1,1.5,3.1,1.9,4.7,0.8c0.3,0.5,0.5,0.7,0.8,1.2C15.5,78.9,14.2,79.2,12.9,78.9z M8.7,75.5c-0.1,0-0.3,0-0.4-0.1
		c-0.5-0.2-0.8-0.8-0.6-1.3c0.1-0.4,0.5-0.6,0.9-0.6v-0.1C8.5,74.2,8.5,74.9,8.7,75.5z M9.1,70.7c-0.2-0.5,0-1,0.5-1.2
		c0.4-0.1,0.8,0,1,0.3c-0.5,0.4-0.9,0.8-1.2,1.3C9.3,71,9.2,70.8,9.1,70.7z M8.8,67.1c-0.2,0.1-0.4,0.1-0.6,0
		c-0.2-0.1-0.4-0.3-0.5-0.6c0-0.2,0-0.3,0-0.5c0.4,0.2,0.9,0.2,1.4,0.2c0.1,0,0.2,0,0.4,0C9.4,66.7,9.1,67,8.8,67.1z M7.1,65.4
		c-1.5-0.9-2.6-2.3-3-4c-0.3-1.8,0.1-3.6,1.2-5c0.7-1,1.9-1.7,3.1-1.8c0,0.7,0.1,1.1,0.1,1.8c-0.8,0.1-1.6,0.6-2.1,1.2
		c-0.7,1-1,2.2-0.8,3.4c0.2,1.1,0.8,2,1.8,2.6c0.7,0.5,1.6,0.6,2.5,0.4c0.2,0.6,0.3,1,0.4,1.6C9.2,66.1,8,66,7.1,65.4z M5.5,64.7
		l-0.2-0.2c-0.2,0.3-0.7,0.4-1,0.2c-0.5-0.4-0.7-1-0.4-1.6C3.9,63,4,62.9,4.2,62.8C4.5,63.5,5,64.1,5.5,64.7z M3.6,59.9
		c-0.1,0-0.3-0.1-0.4-0.2c-0.4-0.5-0.5-1.2-0.2-1.7l0,0c0.1-0.2,0.3-0.3,0.5-0.3c0.2,0,0.3,0,0.5,0.1C3.8,58.5,3.7,59.2,3.6,59.9z
		 M5.6,54.9c0-0.3,0.1-0.7,0.3-0.9c0.1-0.2,0.3-0.2,0.5-0.3c0.4,0,0.8,0.3,0.9,0.8c-0.6,0.2-1.1,0.5-1.6,0.9
		C5.7,55.3,5.6,55.1,5.6,54.9L5.6,54.9z M2.3,57.1c0,0,0.1-0.1,0.1-0.1c0.5-0.7,1.5-0.8,2.2-0.3c-0.1,0.2-0.3,0.5-0.4,0.7
		c-0.2-0.1-0.5-0.1-0.7-0.1c-0.3,0.1-0.5,0.2-0.7,0.4v0.1c-0.4,0.7-0.3,1.5,0.2,2.1c0.2,0.2,0.4,0.3,0.6,0.3c0,0.3,0,0.6,0.1,0.9
		c-0.4-0.1-0.7-0.2-1-0.5C1.8,59.7,1.7,58.3,2.3,57.1z M5,65.9c-0.4,0.1-0.8,0-1.2-0.2c-1-0.8-1.3-2.1-0.8-3.2
		c0.2-0.4,0.4-0.7,0.8-0.8c0.1,0.3,0.2,0.6,0.3,0.8c-0.2,0.1-0.4,0.3-0.5,0.5c-0.3,0.7-0.1,1.5,0.5,1.9c0.2,0.1,0.4,0.2,0.6,0.2
		c0.3,0,0.7-0.2,0.9-0.4c0.2,0.2,0.4,0.3,0.6,0.5C5.9,65.6,5.5,65.9,5,65.9L5,65.9z M6.7,66.8c-0.1-0.4-0.1-0.8,0-1.2l0.2,0.1
		l0.4,0.2c-0.1,0.2-0.1,0.5,0,0.7c0.1,0.3,0.3,0.6,0.7,0.8c0.1,0.1,0.3,0.1,0.5,0.2c0.1,0,0.3,0,0.4-0.1c0.5-0.2,0.8-0.7,0.8-1.2
		c0.2,0,0.4-0.1,0.6-0.2c0.1,0.9-0.4,1.7-1.2,2.1c-0.5,0.2-1,0.1-1.4-0.1C7.2,67.8,6.9,67.4,6.7,66.8L6.7,66.8z M8.2,71.1
		C8,70.6,8,70,8.3,69.4c0.2-0.4,0.5-0.7,0.9-0.9c0.8-0.3,1.8,0,2.3,0.8c-0.2,0.1-0.4,0.2-0.6,0.3c-0.3-0.5-0.9-0.6-1.4-0.4
		c-0.6,0.3-0.9,1-0.6,1.7C8.9,71,9,71.2,9.2,71.3C9.1,71.5,9,71.7,8.9,72C8.6,71.8,8.4,71.5,8.2,71.1z M8.8,72.3 M8,76.5
		c-1-0.5-1.6-1.7-1.3-2.8c0.3-0.9,1.2-1.4,2.1-1.2c-0.1,0.2-0.1,0.5-0.2,0.7c-0.6-0.1-1.1,0.2-1.3,0.8c-0.2,0.7,0.1,1.4,0.8,1.7
		c0.1,0.1,0.3,0.1,0.4,0.1h0.2c0.1,0.2,0.2,0.5,0.3,0.7C8.7,76.7,8.3,76.6,8,76.5z M10.5,80.4c-1.1-0.3-1.8-1.3-1.7-2.4
		c0.1-0.4,0.2-0.7,0.5-1c0.1,0.2,0.3,0.4,0.5,0.6c-0.2,0.2-0.3,0.4-0.3,0.6c-0.1,0.7,0.3,1.3,1,1.5c0.1,0,0.2,0,0.2,0
		c0.5,0,0.9-0.3,1.1-0.8l-0.3-0.1c-0.1,0.4-0.5,0.6-0.9,0.5c-0.5-0.1-0.9-0.6-0.8-1.1c0-0.2,0.1-0.3,0.2-0.4
		c0.7,0.7,1.6,1.1,2.5,1.4C12.2,80,11.3,80.5,10.5,80.4z M14.6,81c-0.5-0.1-0.9-0.3-1.2-0.7c-0.2-0.3-0.4-0.7-0.4-1.1
		c0.2,0,0.4,0.1,0.7,0.1c0,0.2,0.1,0.4,0.2,0.6l0,0c0.2,0.3,0.6,0.4,0.9,0.4c0.7,0,1.2-0.6,1.2-1.2c0-0.1,0-0.3-0.1-0.4
		c0.2-0.1,0.4-0.2,0.6-0.4c0.3,0.8,0.1,1.7-0.6,2.2C15.7,81,15.1,81.1,14.6,81L14.6,81z M16.1,83.6c-0.3-0.4-0.5-0.9-0.5-1.5
		c0-0.5,0.3-0.9,0.6-1.2c0.7-0.5,1.6-0.6,2.3-0.1c-0.2,0.1-0.3,0.3-0.5,0.5c-0.3-0.2-0.6-0.2-0.9-0.1c-0.7,0.1-1.1,0.8-1,1.4
		c0,0.2,0.1,0.4,0.3,0.6c0.1,0.2,0.3,0.3,0.5,0.3c0,0.2-0.1,0.4-0.1,0.7C16.6,84.1,16.3,83.9,16.1,83.6L16.1,83.6z M17,84.5
		C17,84.5,17,84.5,17,84.5L17,84.5z M17.3,88.5c-0.6,0-1.1-0.3-1.4-0.7c-0.3-0.4-0.5-0.8-0.5-1.3c0-0.9,0.7-1.6,1.6-1.8
		c0,0.9,0.3,1.9,0.8,2.7c-0.1,0.1-0.3,0.1-0.4,0.1c-0.5,0-0.9-0.5-0.9-0.9c0-0.4,0.3-0.7,0.7-0.8L17,85.4c-0.6,0.1-1,0.6-1,1.1
		c0,0.7,0.5,1.3,1.2,1.3l0,0c0.2,0,0.4-0.1,0.6-0.2c0.1,0.2,0.3,0.4,0.5,0.5C18,88.4,17.7,88.5,17.3,88.5L17.3,88.5z M20.8,91.2
		c-0.5,0.1-1.1-0.1-1.5-0.4c-0.4-0.3-0.7-0.7-0.7-1.2c0-0.4,0-0.7,0.2-1.1c0.2,0.1,0.4,0.3,0.6,0.4c-0.1,0.2-0.1,0.4-0.1,0.6
		c0.1,0.6,0.6,1.1,1.2,1.1h0.2c0.5-0.1,1-0.5,1-1.1h0.2c0.2,0,0.3,0,0.5,0C22.2,90.4,21.6,91.1,20.8,91.2L20.8,91.2z M24.9,90.5
		c-0.4,0.1-0.9,0-1.3-0.3c-0.3-0.2-0.5-0.5-0.6-0.9c0.2,0,0.4-0.1,0.6-0.2c0.1,0.2,0.2,0.4,0.4,0.5l0,0c0.2,0.1,0.4,0.2,0.6,0.2
		c0.7,0,1.2-0.6,1.2-1.2c0-0.2-0.1-0.5-0.2-0.7c0.1-0.2,0.3-0.3,0.4-0.5c0.5,0.6,0.6,1.6,0.1,2.2C25.8,90.1,25.4,90.4,24.9,90.5
		L24.9,90.5z M27,92.4c-0.4-0.3-0.7-0.7-0.8-1.2c-0.1-0.5,0-0.9,0.3-1.3c0.5-0.7,1.3-1,2.1-0.8c-0.1,0.2-0.2,0.4-0.3,0.6
		c-0.5-0.1-1.1,0.1-1.3,0.6c-0.2,0.3-0.2,0.6-0.2,0.9c0.1,0.3,0.2,0.6,0.5,0.7l0,0c0.2,0.1,0.4,0.1,0.6,0.2h0c0,0.2,0,0.4,0.1,0.6
		C27.7,92.7,27.3,92.6,27,92.4L27,92.4z M29.6,96.6c-0.5,0.1-1.1,0-1.6-0.2c-0.4-0.2-0.7-0.6-0.9-1.1c-0.2-0.9,0.2-1.7,1-2.1
		c0,0.1,0.1,0.3,0.1,0.4l0.1,0.2c-0.5,0.3-0.7,0.8-0.6,1.3c0.2,0.5,0.6,0.9,1.2,0.9c0.1,0,0.2,0,0.3,0c0.2-0.1,0.4-0.2,0.5-0.3
		c0.2,0.1,0.4,0.3,0.6,0.3C30.2,96.4,29.9,96.6,29.6,96.6L29.6,96.6z M33.6,98.2c-0.5,0.2-1.1,0.2-1.5,0c-0.4-0.2-0.8-0.5-1-0.9
		c-0.1-0.3-0.2-0.7-0.1-1.1c0.2,0.1,0.4,0.1,0.7,0.2c0,0.2,0,0.5,0.1,0.7c0.2,0.4,0.6,0.7,1.1,0.7c0.2,0,0.4,0,0.5-0.1
		c0.5-0.2,0.8-0.8,0.7-1.3h-0.1c0.2-0.1,0.5-0.1,0.7-0.2C34.8,96.9,34.4,97.8,33.6,98.2L33.6,98.2z M37.2,96.3
		c-0.4,0.2-0.8,0.2-1.3,0.1c-0.3-0.1-0.6-0.3-0.8-0.6c0.2-0.1,0.4-0.2,0.6-0.3c0.1,0.2,0.3,0.3,0.5,0.3l0,0c0.1,0,0.2,0,0.3,0
		c0.7,0,1.2-0.6,1.2-1.2c0-0.4-0.2-0.7-0.5-0.9c0.1-0.2,0.2-0.4,0.3-0.6c0.7,0.5,1,1.3,0.7,2.1C38.1,95.7,37.7,96.1,37.2,96.3
		L37.2,96.3z M39.9,97.6c-0.5-0.1-0.9-0.5-1.1-0.9c-0.2-0.4-0.3-0.9-0.2-1.4c0.2-0.8,0.9-1.4,1.8-1.4c0,0.2-0.1,0.4-0.1,0.7
		c-0.5,0-1,0.4-1.1,0.9c-0.2,0.6,0.2,1.3,0.8,1.4c0,0,0,0,0,0l0,0c0.2,0.1,0.4,0.1,0.6,0c0.1,0.2,0.2,0.4,0.3,0.6
		C40.6,97.7,40.3,97.7,39.9,97.6L39.9,97.6z M43.6,100.9c-0.5,0.3-1,0.4-1.5,0.2c-0.5-0.1-0.9-0.4-1.1-0.8c-0.4-0.8-0.3-1.7,0.3-2.3
		c0.1,0.1,0.1,0.2,0.2,0.3l0.2,0.2c-0.4,0.5-0.4,1.2,0,1.7c0.2,0.2,0.5,0.4,0.9,0.3c0.2,0,0.5-0.1,0.7-0.2c0.2-0.1,0.3-0.3,0.4-0.4
		c0.2,0.1,0.4,0.1,0.7,0.2C44.1,100.4,43.9,100.7,43.6,100.9L43.6,100.9z M47.9,101.3c-0.4,0.3-0.9,0.5-1.5,0.4
		c-0.5,0-0.9-0.2-1.3-0.6c-0.2-0.3-0.4-0.6-0.4-1h0.2c0.2,0,0.3,0,0.5,0c0,0.2,0.1,0.4,0.3,0.6c0.2,0.3,0.6,0.4,0.9,0.4
		c0.2,0,0.4-0.1,0.6-0.2c0.6-0.3,0.8-1,0.5-1.6c0,0,0,0,0,0l-0.2,0.1c0.2-0.1,0.5-0.3,0.7-0.4C48.6,99.8,48.5,100.7,47.9,101.3
		L47.9,101.3z M50.9,98.5c-0.3,0.3-0.7,0.5-1.2,0.4c-0.4,0-0.7-0.2-1-0.4c0.2-0.2,0.3-0.3,0.5-0.5c0.2,0.1,0.4,0.2,0.6,0.2l0,0
		c0.6,0,1.1-0.5,1.1-1.1c0-0.5-0.3-1-0.8-1.2c0-0.2,0.1-0.4,0.1-0.7c0.8,0.3,1.3,1,1.3,1.8C51.4,97.7,51.2,98.2,50.9,98.5L50.9,98.5
		z M53.7,98.9c-1,0-1.9-0.8-1.9-1.8c0,0,0,0,0,0c0-0.8,0.5-1.6,1.3-1.9c0,0.2,0.1,0.4,0.1,0.7c-0.5,0.2-0.8,0.7-0.8,1.2
		c0,0.3,0.1,0.6,0.3,0.8c0.2,0.2,0.5,0.3,0.8,0.3l0,0c0.2,0,0.4-0.1,0.6-0.2c0.1,0.2,0.3,0.3,0.4,0.5C54.3,98.8,54,98.9,53.7,98.9
		L53.7,98.9z M58.1,101.1c-0.4,0.4-0.9,0.6-1.4,0.6c-0.5,0-1-0.1-1.3-0.5c-0.6-0.6-0.8-1.6-0.3-2.3c0.1,0.1,0.2,0.2,0.3,0.3l0.2,0.2
		c-0.2,0.5-0.1,1.1,0.3,1.4c0.2,0.2,0.5,0.3,0.8,0.3h0.1c0.3,0,0.6-0.1,0.8-0.4l0,0c0.1-0.1,0.2-0.3,0.3-0.5h0.2h0.5
		C58.4,100.6,58.3,100.9,58.1,101.1z M62.3,100.4c-0.3,0.4-0.8,0.7-1.3,0.8c-0.5,0.1-1,0-1.4-0.2c-0.3-0.2-0.5-0.5-0.7-0.9
		c0.2-0.1,0.4-0.1,0.6-0.2c0.1,0.2,0.3,0.4,0.5,0.5c0.2,0.1,0.4,0.2,0.7,0.2h0.3c0.3-0.1,0.6-0.3,0.8-0.5c0.3-0.5,0.2-1.1-0.2-1.5
		l-0.2,0.2c0.3,0.3,0.4,0.7,0.2,1.1c-0.3,0.4-0.8,0.5-1.2,0.3c-0.1-0.1-0.3-0.2-0.3-0.4c0.8-0.4,1.5-1,2.1-1.7
		C62.6,98.7,62.7,99.7,62.3,100.4L62.3,100.4z M64.3,96.9c-0.2,0.4-0.6,0.6-1,0.7c-0.4,0.1-0.7,0-1.1-0.1c0.1-0.2,0.2-0.4,0.3-0.6
		c0.1,0,0.2,0.1,0.3,0.1c0.1,0,0.2,0,0.3,0l0,0c0.6-0.2,0.9-0.8,0.8-1.4c0,0,0,0,0,0c-0.1-0.5-0.6-0.9-1.1-0.9
		c0-0.2-0.1-0.4-0.1-0.7c1.1,0,1.9,0.9,1.8,2C64.5,96.3,64.4,96.6,64.3,96.9L64.3,96.9z M67.1,96.5c-1,0.3-2-0.3-2.3-1.2
		c-0.2-0.8,0.1-1.7,0.8-2.1c0.1,0.2,0.2,0.4,0.3,0.6c-0.3,0.2-0.4,0.5-0.5,0.8c-0.1,0.3,0,0.7,0.2,0.9c0.2,0.3,0.6,0.5,1,0.5
		c0.1,0,0.2,0,0.3,0c0.2-0.1,0.4-0.2,0.5-0.3c0.2,0.1,0.3,0.3,0.5,0.4C67.8,96.3,67.5,96.5,67.1,96.5L67.1,96.5z M72,97.5
		c-0.2,0.5-0.7,0.8-1.2,1c-0.5,0.2-1,0.1-1.4-0.1c-0.8-0.4-1.2-1.3-1-2.1l0.4,0.2l0.2,0.1c-0.1,0.5,0.2,1,0.7,1.3
		c0.2,0.1,0.4,0.1,0.5,0.1c0.5,0,1-0.2,1.2-0.7l0,0c0.1-0.2,0.1-0.4,0.1-0.6c0.2-0.1,0.4-0.1,0.7-0.2C72.3,96.8,72.2,97.2,72,97.5
		L72,97.5z M75.9,95.5c-0.2,0.5-0.5,0.9-1,1.2c-0.4,0.2-0.9,0.3-1.4,0.2c-0.4-0.1-0.7-0.3-0.9-0.6c0.2-0.1,0.4-0.2,0.6-0.4
		c0.1,0.1,0.2,0.2,0.4,0.3c0.6,0.3,1.3,0.1,1.7-0.5c0.2-0.3,0.2-0.6,0.1-0.9c-0.1-0.3-0.3-0.6-0.6-0.7l-0.2,0.3
		c0.2,0.1,0.3,0.3,0.4,0.5c0.1,0.2,0,0.5-0.1,0.7c-0.2,0.4-0.8,0.6-1.2,0.3c0,0,0,0,0,0c-0.1,0-0.2-0.1-0.2-0.2
		c0.7-0.6,1.2-1.4,1.5-2.2C75.7,93.8,76.1,94.7,75.9,95.5L75.9,95.5z M76.9,91.5c-0.1,0.4-0.4,0.8-0.8,1c-0.3,0.2-0.7,0.3-1.1,0.2
		c0.1-0.2,0.1-0.4,0.1-0.7l0,0c0.2,0,0.4-0.1,0.6-0.2l0,0c0.5-0.3,0.7-1.1,0.3-1.6c0,0,0,0,0,0c-0.3-0.4-0.8-0.7-1.3-0.6
		c-0.1-0.2-0.2-0.4-0.3-0.6c1-0.3,2.1,0.4,2.4,1.4C76.9,90.9,76.9,91.2,76.9,91.5L76.9,91.5z M79.5,90.4c-0.9,0.5-2,0.3-2.6-0.5
		c-0.5-0.7-0.4-1.6,0.1-2.3c0.1,0.2,0.3,0.4,0.5,0.6c-0.3,0.4-0.3,1,0,1.4c0.2,0.3,0.4,0.4,0.8,0.5c0.1,0,0.2,0,0.2,0.1
		c0.2,0,0.4-0.1,0.6-0.2l0,0c0.2-0.1,0.3-0.3,0.4-0.5c0.2,0.1,0.4,0.1,0.6,0.2C80,90,79.8,90.2,79.5,90.4L79.5,90.4z M84.5,89.8
		c-0.1,0.5-0.4,1-0.9,1.3c-0.4,0.3-0.9,0.4-1.4,0.3c-0.9-0.2-1.6-0.9-1.6-1.8h-0.2l0,0c0.2,0,0.3,0,0.5,0.1h0.5c0.7,0,1.4-0.1,2-0.4
		c0.1,0.1,0.1,0.3,0.1,0.4c-0.1,0.5-0.5,0.8-1,0.8c-0.4-0.1-0.7-0.4-0.8-0.8h-0.3c0,0.6,0.5,1,1,1.1h0.2c0.6,0,1.1-0.5,1.2-1.1
		c0-0.2,0-0.4-0.1-0.6c0.2-0.1,0.4-0.2,0.6-0.4C84.5,89,84.6,89.5,84.5,89.8L84.5,89.8z M87.6,86.7c0,0.6-0.2,1.1-0.6,1.5
		c-0.3,0.3-0.8,0.6-1.3,0.6l0,0c-0.4,0-0.7-0.1-1.1-0.3c0.2-0.2,0.3-0.3,0.5-0.5c0.2,0.1,0.4,0.2,0.6,0.2l0,0c0.7,0,1.2-0.6,1.2-1.3
		c0-0.6-0.4-1.1-1-1.2c0-0.2,0-0.4,0-0.7C86.9,85,87.6,85.8,87.6,86.7L87.6,86.7z M86,84.8L86,84.8L86,84.8L86,84.8z M87,83.8
		c-0.3,0.3-0.6,0.5-1,0.6c0-0.2-0.1-0.4-0.1-0.7c0.2-0.1,0.4-0.2,0.6-0.4c0.3-0.4,0.4-1,0.1-1.4c-0.4-0.6-1.1-0.7-1.7-0.4
		c-0.1-0.2-0.3-0.3-0.4-0.5c0.7-0.5,1.6-0.4,2.3,0.1c0.4,0.4,0.7,0.9,0.7,1.5C87.5,83.1,87.3,83.5,87,83.8L87,83.8z M89.7,80.4
		c-0.3,0.4-0.8,0.7-1.3,0.7c-0.5,0.1-0.9-0.1-1.3-0.4c-0.7-0.5-0.9-1.5-0.6-2.3c0.2,0.1,0.4,0.2,0.6,0.3c-0.2,0.5,0,1.1,0.4,1.4
		c0.5,0.4,1.2,0.3,1.6-0.1v-0.1c0.1-0.2,0.2-0.4,0.2-0.7l0,0c0.2,0,0.4,0,0.6,0C90,79.8,89.9,80.2,89.7,80.4L89.7,80.4z M92.7,80.5
		c-0.9,0.1-1.7-0.4-2-1.3l-0.2,0.1v-0.1l0.3-0.1c0.9-0.2,1.7-0.6,2.4-1.3c0.1,0.1,0.1,0.3,0.2,0.4c0.1,0.5-0.2,1-0.8,1.1
		c-0.4,0.1-0.8-0.1-0.9-0.5l-0.3,0.1c0.2,0.5,0.6,0.8,1.1,0.8c0.1,0,0.2,0,0.2,0c0.7-0.2,1.1-0.8,1-1.5c0-0.2-0.1-0.4-0.3-0.6
		c0.2-0.2,0.3-0.4,0.4-0.6c0.3,0.3,0.4,0.6,0.5,1C94.6,79.3,93.8,80.4,92.7,80.5L92.7,80.5z M96.5,73.9c0.3,1.1-0.2,2.3-1.3,2.8
		c-0.4,0.1-0.7,0.1-1.1,0c0.1-0.2,0.2-0.5,0.3-0.7h0.2c0.2,0,0.3,0,0.4-0.1c0.7-0.3,1-1,0.8-1.7c-0.2-0.5-0.8-0.8-1.4-0.7
		c0-0.2-0.1-0.5-0.2-0.7C95.2,72.6,96.1,73.1,96.5,73.9L96.5,73.9z M94.8,69.6c0.2,0.5,0.2,1.1,0,1.6c-0.2,0.4-0.4,0.7-0.8,0.9
		c-0.1-0.2-0.2-0.4-0.3-0.7c0.2-0.1,0.4-0.3,0.4-0.6c0.3-0.6,0-1.4-0.7-1.7c-0.5-0.2-1.1,0-1.4,0.4c-0.2-0.1-0.4-0.2-0.6-0.3
		c0.5-0.9,1.6-1.1,2.5-0.6C94.4,68.9,94.7,69.2,94.8,69.6L94.8,69.6z M96.3,66.9c-0.2,0.6-0.6,1.1-1.2,1.3c-0.4,0.2-0.8,0.2-1.2,0
		c-0.8-0.4-1.3-1.2-1.3-2.1c0.2,0.1,0.4,0.1,0.7,0.1c0,0.6,0.3,1.1,0.8,1.3c0.1,0,0.3,0.1,0.4,0.1c0.2,0,0.4,0,0.5-0.1
		c0.3-0.2,0.6-0.5,0.7-0.8c0.1-0.2,0.1-0.5,0-0.8c0.2-0.1,0.4-0.2,0.6-0.3C96.5,66.1,96.5,66.5,96.3,66.9z M100,62.7
		c0.5,1.1,0.2,2.5-0.8,3.3c-0.4,0.2-0.8,0.3-1.3,0.2c-0.4-0.1-0.8-0.4-1-0.7l-0.2,0.1l0,0l0,0c0.3-0.2,0.5-0.4,0.8-0.6
		c0.2,0.3,0.5,0.4,0.9,0.4c0.2,0,0.4-0.1,0.6-0.2l0,0c0.6-0.5,0.8-1.3,0.5-2c-0.1-0.2-0.3-0.4-0.4-0.5c0.1-0.3,0.2-0.6,0.2-0.9
		C99.6,62,99.9,62.3,100,62.7z M99.3,61.3c0-0.3,0-0.6,0-0.9c0.2,0,0.5-0.2,0.6-0.3c0.5-0.6,0.6-1.4,0.2-2.1
		c-0.3-0.5-0.9-0.7-1.4-0.4c0,0,0,0,0,0c-0.1-0.3-0.2-0.5-0.4-0.8c0.3-0.2,0.7-0.3,1.2-0.3c0.5,0.1,0.9,0.4,1.1,0.8
		c0.7,1.1,0.5,2.6-0.3,3.5C100,61.1,99.7,61.3,99.3,61.3z"/>
</g>
<g id="Capa_3">
</g>
<g id="Capa_2">
	<g>
		<path class="st4" d="M52.2,4.3c-0.2,0-0.4-0.1-0.6-0.1c-2.6-0.1-5.3,2.1-5,5.6l1.7-0.1c-0.2-2.3,1.5-3.8,3.2-3.7
			c1.7,0.1,2.9,1.7,3,3.8l1.8,0.2C56.2,6.9,54.6,4.7,52.2,4.3"/>
		<g>
			<path class="st5" d="M52.3,4.3c0.3-0.9,1.2-1.1,1.8-0.8c0.6,0.3,0.7,1.1,0.4,1.9"/>
			<path class="st4" d="M51.6,4.2l0-0.2c0.5-1.3,1.8-1.7,2.8-1.2c0.9,0.5,1.2,1.6,0.7,2.9L55,6"/>
			<path class="st5" d="M48.4,5.4c-0.5-0.8-0.2-1.7,0.4-2c0.6-0.3,1.4,0,1.8,0.8l0.1,0.2"/>
			<path class="st4" d="M47.9,5.8l-0.2-0.2c-0.8-1.2-0.2-2.5,0.7-2.9c1-0.4,2.1,0,2.7,1.2l0.1,0.2l0,0.1"/>
			<path class="st5" d="M46.6,9.1c-0.9-0.2-1.4-1.1-1.2-1.7c0.2-0.6,1-0.9,1.8-0.7"/>
			<path class="st4" d="M46.6,9.7l-0.2,0c-1.4-0.3-2-1.5-1.6-2.5c0.3-1,1.4-1.5,2.7-1.2l0.2,0.1"/>
			<path class="st5" d="M55.5,6.7l0.1,0c0.8-0.4,1.6,0.1,1.8,0.7c0.2,0.7-0.3,1.3-1.1,1.6l-0.2,0.1"/>
			<path class="st4" d="M55.1,6.2l0.2-0.1c1.3-0.6,2.5,0.2,2.8,1.2c0.3,1-0.4,2-1.6,2.5l-0.2,0.1"/>
		</g>
	</g>
	<g>
		<path class="st4" d="M38.1,6.2c-0.2,0-0.4,0.1-0.6,0.1C35,7,33.1,9.9,34.4,13.2l1.6-0.6c-0.8-2.1,0.3-4,1.9-4.5
			c1.6-0.4,3.3,0.7,4,2.7l1.8-0.4C42.7,7.5,40.5,5.9,38.1,6.2"/>
		<g>
			<path class="st5" d="M38.1,6.2c0-0.9,0.8-1.4,1.4-1.3c0.7,0.1,1,0.8,0.9,1.7"/>
			<path class="st4" d="M37.5,6.3l0-0.2c0.1-1.4,1.3-2.2,2.3-2c1.1,0.2,1.7,1.2,1.5,2.5l0,0.3"/>
			<path class="st5" d="M34.7,8.4c-0.7-0.6-0.7-1.6-0.2-2C35,5.9,35.8,6,36.4,6.6l0.1,0.1"/>
			<path class="st4" d="M34.4,8.9l-0.2-0.2c-1.1-0.9-0.9-2.3-0.2-3C34.8,5,36,5.2,37,6.1l0.2,0.2l0.1,0.1"/>
			<path class="st5" d="M34.1,12.4c-0.9,0.1-1.6-0.6-1.6-1.3c0-0.7,0.7-1.2,1.6-1.2"/>
			<path class="st4" d="M34.3,13l-0.2,0c-1.4,0.2-2.3-0.9-2.3-2c0-1.1,0.9-1.8,2.2-1.9l0.2,0"/>
			<path class="st5" d="M41.9,7.5L42,7.5c0.7-0.6,1.6-0.4,1.9,0.2c0.4,0.6,0.1,1.3-0.5,1.8l-0.1,0.1"/>
			<path class="st4" d="M41.4,7.1l0.2-0.2c1.1-0.9,2.4-0.6,3,0.3c0.6,0.9,0.3,2-0.8,2.8l-0.2,0.1"/>
		</g>
	</g>
	<g>
		<path class="st4" d="M25.1,12.2c-0.2,0.1-0.3,0.2-0.5,0.3c-2.2,1.4-3.2,4.7-1,7.5l1.3-1c-1.4-1.8-0.9-4,0.5-4.8
			c1.5-0.9,3.4-0.3,4.6,1.4l1.6-0.9C29.9,12.1,27.3,11.2,25.1,12.2"/>
		<g>
			<path class="st5" d="M25.2,12.1c-0.2-0.9,0.3-1.6,1-1.7c0.7-0.1,1.2,0.5,1.3,1.3"/>
			<path class="st4" d="M24.6,12.5l-0.1-0.1c-0.4-1.4,0.6-2.4,1.6-2.6c1.1-0.1,2,0.7,2.2,2l0,0.3"/>
			<path class="st5" d="M22.5,15.2c-0.8-0.4-1.2-1.3-0.8-1.9c0.3-0.6,1.1-0.7,1.9-0.3l0.2,0.1"/>
			<path class="st4" d="M22.4,15.9l-0.2-0.1c-1.3-0.6-1.6-1.9-1-2.8c0.5-0.9,1.7-1.1,2.9-0.5l0.2,0.1l0.1,0.1"/>
			<path class="st5" d="M23.2,19.3c-0.8,0.4-1.7-0.1-1.9-0.7c-0.2-0.7,0.3-1.3,1.1-1.6"/>
			<path class="st4" d="M23.5,19.8l-0.2,0.1c-1.3,0.6-2.5-0.2-2.8-1.2c-0.3-1,0.3-2,1.6-2.5l0.2-0.1"/>
			<path class="st5" d="M29.1,12.3l0.1-0.1c0.5-0.8,1.4-0.8,1.9-0.4c0.5,0.4,0.5,1.2,0,1.9l-0.1,0.2"/>
			<path class="st4" d="M28.5,12.1l0.1-0.2c0.8-1.2,2.2-1.3,3-0.6c0.8,0.7,0.9,1.9,0.1,2.9l-0.2,0.2"/>
		</g>
	</g>
	<g>
		<path class="st4" d="M14.5,21.7c-0.1,0.1-0.3,0.3-0.4,0.4c-1.7,2-1.7,5.5,1.3,7.5l0.9-1.4c-1.9-1.3-2-3.5-0.9-4.8
			c1.1-1.3,3.1-1.3,4.8,0l1.3-1.3C19,20.2,16.3,20.1,14.5,21.7"/>
		<g>
			<path class="st5" d="M14.5,21.7c-0.5-0.8-0.2-1.6,0.5-1.9c0.6-0.3,1.3,0.1,1.7,0.9"/>
			<path class="st4" d="M14,22.1L14,22c-0.7-1.2-0.2-2.5,0.8-2.9c1-0.4,2.1,0.1,2.7,1.2l0.1,0.3"/>
			<path class="st5" d="M12.9,25.4c-0.9-0.1-1.5-0.9-1.3-1.5c0.2-0.7,0.9-1,1.7-0.9l0.2,0"/>
			<path class="st4" d="M13,26l-0.3,0c-1.4-0.2-2.1-1.4-1.8-2.4c0.3-1,1.3-1.6,2.6-1.4l0.2,0.1l0.1,0"/>
			<path class="st5" d="M14.7,29.1c-0.7,0.6-1.7,0.4-2.1-0.1c-0.4-0.6-0.1-1.4,0.6-1.9"/>
			<path class="st4" d="M15.2,29.5l-0.2,0.1c-1.1,0.9-2.4,0.6-3-0.3c-0.6-0.9-0.3-2,0.8-2.8l0.2-0.1"/>
			<path class="st5" d="M18.4,20.7l0.1-0.1c0.2-0.9,1.1-1.2,1.7-1c0.6,0.3,0.9,1,0.6,1.8l0,0.2"/>
			<path class="st4" d="M17.7,20.6l0.1-0.3c0.4-1.4,1.7-1.8,2.7-1.4c1,0.4,1.4,1.5,0.9,2.8L21.3,22"/>
		</g>
	</g>
	<g>
		<path class="st4" d="M7.2,34c-0.1,0.2-0.2,0.3-0.3,0.5c-1.1,2.4,0,5.7,3.4,6.8l0.5-1.6c-2.2-0.6-3-2.8-2.3-4.3
			c0.7-1.5,2.6-2.1,4.6-1.4l0.8-1.6C11,31.2,8.4,31.9,7.2,34"/>
		<g>
			<path class="st5" d="M7.2,33.9C6.5,33.3,6.5,32.4,7,32c0.5-0.4,1.3-0.3,1.9,0.3"/>
			<path class="st4" d="M6.9,34.5l-0.1-0.1c-1.1-0.9-0.9-2.3-0.1-3c0.8-0.7,2-0.6,2.9,0.4L9.7,32"/>
			<path class="st5" d="M6.7,37.9c-0.9,0.2-1.7-0.4-1.7-1.1c0-0.7,0.5-1.2,1.4-1.3l0.2,0"/>
			<path class="st4" d="M7,38.5l-0.2,0.1c-1.4,0.3-2.4-0.7-2.5-1.8c-0.1-1.1,0.8-1.9,2.1-2.1l0.2,0l0.1,0"/>
			<path class="st5" d="M9.6,40.9c-0.5,0.8-1.5,0.9-2,0.5c-0.5-0.4-0.5-1.3,0-2"/>
			<path class="st4" d="M10.2,41.2L10,41.4c-0.8,1.2-2.2,1.3-3,0.6C6.2,41.3,6.2,40.1,7,39l0.2-0.2"/>
			<path class="st5" d="M10.6,31.8l0-0.2c0-0.9,0.7-1.5,1.3-1.4c0.7,0.1,1.1,0.7,1.1,1.6l0,0.2"/>
			<path class="st4" d="M9.9,32l0-0.3c0-1.4,1.1-2.3,2.1-2.2c1.1,0.1,1.8,1.1,1.7,2.4l0,0.2"/>
		</g>
	</g>
	<g>
		<path class="st4" d="M3.7,47.8c0,0.2-0.1,0.4-0.1,0.6c-0.3,2.6,1.7,5.5,5.2,5.5l0-1.7c-2.3,0-3.7-1.8-3.4-3.4
			c0.2-1.7,1.9-2.8,4-2.7l0.3-1.8C6.7,44.1,4.3,45.5,3.7,47.8"/>
		<g>
			<path class="st5" d="M3.7,47.8c-0.8-0.4-1-1.2-0.7-1.8c0.4-0.6,1.1-0.6,1.9-0.2"/>
			<path class="st4" d="M3.6,48.4l-0.1,0c-1.3-0.6-1.6-2-1-2.9C3,44.6,4.2,44.4,5.4,45l0.3,0.2"/>
			<path class="st5" d="M4.5,51.7c-0.8,0.4-1.7,0.1-2-0.5c-0.2-0.6,0.1-1.3,0.9-1.7l0.2-0.1"/>
			<path class="st4" d="M4.9,52.2l-0.2,0.1c-1.3,0.7-2.5,0-2.9-1c-0.4-1,0.2-2.1,1.4-2.6l0.2-0.1l0.1,0"/>
			<path class="st5" d="M8.1,53.8c-0.2,0.9-1.2,1.3-1.8,1c-0.6-0.3-0.8-1.1-0.6-1.9"/>
			<path class="st4" d="M8.7,53.8L8.7,54C8.3,55.4,7,55.9,6,55.5c-1-0.4-1.4-1.5-0.9-2.8l0.1-0.2"/>
			<path class="st5" d="M6.4,44.8l0-0.2c-0.3-0.9,0.2-1.6,0.9-1.7c0.7-0.1,1.3,0.4,1.5,1.2l0.1,0.2"/>
			<path class="st4" d="M5.8,45.1l-0.1-0.3c-0.5-1.3,0.4-2.5,1.4-2.7c1-0.2,2,0.5,2.3,1.8l0,0.2"/>
		</g>
	</g>
	<g>
		<path class="st4" d="M4.6,62.1c0,0.2,0,0.4,0.1,0.6c0.5,2.6,3.2,4.7,6.6,3.7l-0.5-1.6c-2.2,0.7-4-0.6-4.3-2.3
			c-0.3-1.7,1-3.2,3-3.7l-0.2-1.8C6.2,57.6,4.4,59.7,4.6,62.1"/>
		<g>
			<path class="st5" d="M4.6,62c-0.9-0.1-1.4-0.9-1.2-1.5c0.2-0.7,0.9-0.9,1.7-0.8"/>
			<path class="st4" d="M4.6,62.7l-0.2,0c-1.4-0.2-2.1-1.4-1.8-2.4c0.3-1,1.3-1.6,2.6-1.3L5.6,59"/>
			<path class="st5" d="M6.5,65.6c-0.6,0.6-1.6,0.6-2,0.1c-0.4-0.5-0.3-1.3,0.4-1.9l0.1-0.1"/>
			<path class="st4" d="M7,65.9l-0.2,0.2c-1,1-2.4,0.8-3-0.1c-0.7-0.8-0.4-2,0.6-2.9L4.6,63L4.7,63"/>
			<path class="st5" d="M10.5,66.5c0,0.9-0.7,1.6-1.4,1.5C8.4,67.9,8,67.2,8,66.4"/>
			<path class="st4" d="M11.1,66.3l0,0.2C11.2,68,10,68.8,9,68.7c-1.1-0.1-1.8-1.1-1.7-2.4l0-0.2"/>
			<path class="st5" d="M6.2,58.4l-0.1-0.1c-0.5-0.7-0.3-1.6,0.3-1.9C7,56,7.8,56.3,8.2,57l0.1,0.1"/>
			<path class="st4" d="M5.8,58.9l-0.2-0.2c-0.8-1.1-0.4-2.5,0.5-3c0.9-0.5,2.1-0.1,2.8,1L9,56.9"/>
		</g>
	</g>
	<g>
		<path class="st4" d="M9.6,75.4c0.1,0.2,0.1,0.3,0.2,0.5c1.2,2.3,4.5,3.6,7.4,1.5l-0.9-1.4c-1.9,1.3-4,0.6-4.8-0.9
			c-0.8-1.5,0-3.4,1.8-4.5l-0.8-1.7C9.8,70.7,8.7,73.2,9.6,75.4"/>
		<g>
			<path class="st5" d="M9.5,75.4C8.6,75.6,8,75,7.9,74.3c0-0.7,0.6-1.2,1.4-1.2"/>
			<path class="st4" d="M9.8,76l-0.2,0c-1.4,0.3-2.4-0.7-2.4-1.8c0-1.1,0.8-1.9,2.1-2l0.3,0"/>
			<path class="st5" d="M12.4,78.2C12,79,11,79.3,10.5,78.9c-0.6-0.4-0.6-1.2-0.2-1.9l0.1-0.2"/>
			<path class="st4" d="M13,78.4l-0.1,0.2c-0.7,1.3-2.1,1.4-2.9,0.8c-0.9-0.6-1-1.8-0.3-2.9l0.1-0.2l0.1-0.1"/>
			<path class="st5" d="M16.5,77.9c0.3,0.9-0.2,1.7-0.9,1.9c-0.7,0.1-1.3-0.4-1.5-1.2"/>
			<path class="st4" d="M17.1,77.6l0.1,0.2c0.5,1.3-0.4,2.5-1.4,2.7c-1,0.2-2-0.5-2.4-1.8l0-0.2"/>
			<path class="st5" d="M10,71.4l-0.1-0.1c-0.7-0.5-0.7-1.4-0.3-1.9c0.5-0.5,1.3-0.4,1.9,0.1l0.2,0.1"/>
			<path class="st4" d="M9.8,72l-0.2-0.1c-1.1-0.8-1.1-2.3-0.4-3c0.7-0.8,1.9-0.7,2.9,0.2l0.2,0.2"/>
		</g>
	</g>
	<g>
		<path class="st4" d="M18.3,86.8c0.1,0.1,0.2,0.3,0.4,0.4c1.8,1.9,5.3,2.1,7.5-0.7l-1.3-1c-1.4,1.8-3.7,1.8-4.8,0.6
			c-1.2-1.2-1-3.2,0.4-4.8l-1.2-1.4C17.1,82.1,16.8,84.8,18.3,86.8"/>
		<g>
			<path class="st5" d="M18.2,86.7c-0.8,0.4-1.6,0-1.9-0.6c-0.2-0.6,0.2-1.3,1-1.6"/>
			<path class="st4" d="M18.7,87.2l-0.1,0.1c-1.3,0.7-2.5,0-2.9-1c-0.4-1,0.2-2,1.4-2.6l0.3-0.1"/>
			<path class="st5" d="M21.8,88.6c-0.2,0.9-1,1.4-1.6,1.2c-0.6-0.2-1-0.9-0.8-1.8l0-0.2"/>
			<path class="st4" d="M22.5,88.6l0,0.3c-0.3,1.4-1.5,2-2.5,1.7c-1-0.3-1.5-1.4-1.2-2.7l0.1-0.2l0.1-0.1"/>
			<path class="st5" d="M25.7,87.1c0.5,0.7,0.3,1.7-0.3,2c-0.6,0.3-1.4,0-1.8-0.7"/>
			<path class="st4" d="M26.1,86.6l0.1,0.2c0.8,1.1,0.4,2.5-0.5,3c-0.9,0.5-2.1,0.1-2.8-1l-0.1-0.2"/>
			<path class="st5" d="M17.5,82.8l-0.1-0.1c-0.9-0.3-1.1-1.2-0.8-1.8c0.3-0.6,1.1-0.8,1.9-0.5l0.2,0.1"/>
			<path class="st4" d="M17.5,83.4l-0.3-0.1c-1.3-0.5-1.7-1.8-1.2-2.8c0.5-1,1.6-1.2,2.9-0.7L19,80"/>
		</g>
	</g>
	<g>
		<path class="st4" d="M29.9,95c0.2,0.1,0.3,0.2,0.5,0.3c2.3,1.3,5.7,0.4,7-2.9l-1.6-0.6c-0.8,2.1-3,2.8-4.4,2
			c-1.5-0.8-1.9-2.8-1-4.7l-1.6-1C27.5,90.9,28,93.6,29.9,95"/>
		<g>
			<path class="st5" d="M29.9,95c-0.6,0.6-1.5,0.5-1.9,0c-0.4-0.5-0.2-1.3,0.5-1.8"/>
			<path class="st4" d="M30.5,95.3l-0.1,0.1c-1,1-2.4,0.7-3-0.1c-0.6-0.9-0.4-2,0.6-2.9l0.3-0.2"/>
			<path class="st5" d="M33.9,95.7c0.1,0.9-0.5,1.7-1.2,1.6c-0.7,0-1.2-0.6-1.2-1.5l0-0.2"/>
			<path class="st4" d="M34.5,95.5l0,0.3c0.2,1.4-0.9,2.3-1.9,2.3c-1.1,0-1.8-0.9-1.9-2.2l0-0.2l0-0.1"/>
			<path class="st5" d="M37.1,93.1c0.7,0.5,0.8,1.6,0.3,2c-0.5,0.5-1.3,0.4-2-0.2"/>
			<path class="st4" d="M37.4,92.5l0.2,0.1c1.1,0.8,1.1,2.2,0.4,3c-0.7,0.8-1.9,0.7-2.9-0.1l-0.2-0.2"/>
			<path class="st5" d="M28.1,91.4l-0.2,0c-0.9,0-1.4-0.8-1.3-1.4c0.1-0.7,0.8-1.1,1.6-1l0.2,0"/>
			<path class="st4" d="M28.2,92.1l-0.3,0c-1.4-0.1-2.2-1.2-2-2.3c0.2-1.1,1.2-1.7,2.5-1.5l0.2,0"/>
		</g>
	</g>
	<g>
		<path class="st4" d="M43.5,99.4c0.2,0.1,0.4,0.1,0.5,0.1c2.6,0.5,5.6-1.3,5.8-4.8l-1.7-0.1c-0.2,2.3-2,3.5-3.7,3.2
			c-1.7-0.3-2.7-2.1-2.4-4.2l-1.8-0.4C40,96.2,41.2,98.7,43.5,99.4"/>
		<g>
			<path class="st5" d="M43.5,99.4c-0.4,0.8-1.3,0.9-1.9,0.6c-0.6-0.4-0.5-1.2-0.1-1.9"/>
			<path class="st4" d="M44.1,99.6L44,99.7c-0.7,1.3-2.1,1.4-2.9,0.8c-0.9-0.6-1-1.8-0.3-2.9l0.2-0.3"/>
			<path class="st5" d="M47.5,98.9c0.4,0.8,0,1.7-0.7,1.9c-0.7,0.2-1.3-0.2-1.6-1l-0.1-0.2"/>
			<path class="st4" d="M48,98.6l0.1,0.2c0.6,1.3-0.2,2.5-1.2,2.8c-1,0.3-2-0.3-2.5-1.6l-0.1-0.2l0-0.1"/>
			<path class="st5" d="M49.8,95.5c0.9,0.3,1.2,1.3,0.9,1.8c-0.3,0.6-1.2,0.8-1.9,0.4"/>
			<path class="st4" d="M49.9,94.9l0.2,0.1c1.3,0.5,1.7,1.8,1.2,2.8c-0.5,1-1.6,1.3-2.9,0.7l-0.2-0.1"/>
			<path class="st5" d="M40.7,96.6l-0.2,0c-0.9,0.2-1.6-0.3-1.7-1c-0.1-0.7,0.5-1.3,1.3-1.4l0.2-0.1"/>
			<path class="st4" d="M41,97.1l-0.3,0.1c-1.4,0.4-2.4-0.6-2.6-1.6c-0.1-1.1,0.7-2,2-2.2l0.2,0"/>
		</g>
	</g>
	<g>
		<path class="st4" d="M57.8,99.7c0.2,0,0.4,0,0.6,0c2.6-0.3,5-2.9,4.1-6.3l-1.6,0.4c0.5,2.2-0.9,4-2.6,4.1
			c-1.7,0.2-3.2-1.2-3.5-3.3L53,94.6C53.5,97.7,55.4,99.6,57.8,99.7"/>
		<g>
			<path class="st5" d="M57.7,99.7c-0.2,0.9-1,1.3-1.6,1.1c-0.6-0.2-0.9-1-0.6-1.8"/>
			<path class="st4" d="M58.4,99.6l0,0.2c-0.3,1.4-1.6,2-2.6,1.6c-1-0.3-1.5-1.4-1.1-2.7l0.1-0.3"/>
			<path class="st5" d="M61.4,98c0.6,0.7,0.5,1.7-0.1,2c-0.6,0.4-1.3,0.2-1.9-0.5l-0.1-0.1"/>
			<path class="st4" d="M61.8,97.5l0.2,0.2c0.9,1.1,0.6,2.4-0.3,3c-0.9,0.6-2,0.3-2.8-0.8l-0.1-0.2l-0.1-0.1"/>
			<path class="st5" d="M62.6,94.1c0.9,0,1.5,0.8,1.4,1.5c-0.1,0.7-0.9,1.1-1.7,1"/>
			<path class="st4" d="M62.5,93.5l0.2,0c1.4,0.1,2.2,1.2,2,2.3c-0.2,1.1-1.2,1.7-2.5,1.5l-0.2,0"/>
			<path class="st5" d="M54.2,97.8l-0.1,0.1c-0.8,0.5-1.6,0.2-1.9-0.5c-0.3-0.6,0.1-1.4,0.8-1.7l0.2-0.1"/>
			<path class="st4" d="M54.7,98.2l-0.2,0.2c-1.2,0.7-2.5,0.2-2.9-0.8c-0.4-1,0-2.1,1.2-2.7l0.2-0.1"/>
		</g>
	</g>
	<g>
		<path class="st4" d="M71.5,95.7c0.2-0.1,0.4-0.1,0.5-0.2c2.4-1,3.9-4.2,2.1-7.3l-1.4,0.8c1.1,1.9,0.3,4-1.2,4.7
			c-1.6,0.7-3.4-0.2-4.3-2.1l-1.7,0.6C66.8,95,69.2,96.3,71.5,95.7"/>
		<g>
			<path class="st5" d="M71.4,95.7c0.1,0.9-0.6,1.5-1.2,1.5c-0.7,0-1.1-0.7-1.1-1.5"/>
			<path class="st4" d="M72.1,95.5l0,0.2c0.1,1.4-0.9,2.3-2,2.3c-1.1,0-1.8-0.9-1.9-2.3l0-0.3"/>
			<path class="st5" d="M74.5,93.1c0.8,0.5,1,1.4,0.5,2c-0.4,0.5-1.2,0.5-1.9,0.1L73,95"/>
			<path class="st4" d="M74.7,92.4l0.2,0.1c1.2,0.7,1.3,2.2,0.6,3c-0.7,0.8-1.9,0.9-2.9,0.1l-0.2-0.2l-0.1-0.1"/>
			<path class="st5" d="M74.5,88.9c0.9-0.2,1.7,0.4,1.8,1c0.1,0.7-0.5,1.3-1.4,1.4"/>
			<path class="st4" d="M74.2,88.4l0.2-0.1c1.4-0.4,2.4,0.5,2.6,1.6c0.1,1.1-0.6,2-1.9,2.2l-0.2,0"/>
			<path class="st5" d="M67.5,94.9L67.4,95c-0.6,0.7-1.5,0.6-1.9,0.1c-0.4-0.5-0.3-1.3,0.2-1.9l0.1-0.1"/>
			<path class="st4" d="M68.1,95.2l-0.2,0.2c-0.9,1.1-2.3,0.9-3,0.1c-0.7-0.8-0.6-2,0.4-2.9l0.2-0.2"/>
		</g>
	</g>
	<g>
		<path class="st4" d="M83.4,87.8c0.2-0.1,0.3-0.2,0.5-0.3c2-1.7,2.5-5.2-0.1-7.6l-1.1,1.2c1.7,1.5,1.5,3.8,0.2,4.9
			c-1.3,1.1-3.3,0.8-4.7-0.7l-1.5,1.1C78.7,88.6,81.4,89.1,83.4,87.8"/>
		<g>
			<path class="st5" d="M83.4,87.9c0.4,0.8-0.1,1.6-0.7,1.8c-0.7,0.2-1.3-0.3-1.5-1.1"/>
			<path class="st4" d="M83.9,87.5l0.1,0.1c0.6,1.3-0.2,2.5-1.2,2.8c-1,0.3-2-0.4-2.5-1.6l-0.1-0.3"/>
			<path class="st5" d="M85.5,84.4c0.9,0.2,1.3,1.1,1.1,1.7c-0.3,0.6-1,0.9-1.8,0.6l-0.2-0.1"/>
			<path class="st4" d="M85.5,83.8l0.3,0c1.4,0.4,1.9,1.7,1.5,2.7c-0.4,1-1.5,1.4-2.8,1l-0.2-0.1l-0.1-0.1"/>
			<path class="st5" d="M84.3,80.5c0.8-0.5,1.7-0.2,2,0.4c0.3,0.6-0.1,1.4-0.9,1.8"/>
			<path class="st4" d="M83.8,80l0.2-0.1c1.2-0.8,2.5-0.2,2.9,0.8c0.4,1,0,2.1-1.2,2.7l-0.2,0.1"/>
			<path class="st5" d="M79.4,88.3l-0.1,0.1c-0.4,0.8-1.2,1-1.8,0.7c-0.6-0.4-0.7-1.1-0.3-1.9l0.1-0.2"/>
			<path class="st4" d="M80,88.4l-0.1,0.3c-0.6,1.3-2,1.6-2.9,1c-0.9-0.6-1.1-1.7-0.5-2.9l0.1-0.2"/>
		</g>
	</g>
	<g>
		<path class="st4" d="M92.5,76.8c0.1-0.1,0.2-0.3,0.3-0.5c1.4-2.2,0.8-5.7-2.4-7.2l-0.7,1.5c2,1,2.5,3.2,1.6,4.6
			c-0.9,1.4-2.9,1.7-4.7,0.7l-1.1,1.5C88.2,79,91,78.7,92.5,76.8"/>
		<g>
			<path class="st5" d="M92.5,76.9c0.6,0.7,0.4,1.6-0.2,1.9c-0.6,0.4-1.3,0.1-1.8-0.6"/>
			<path class="st4" d="M92.9,76.3l0.1,0.1c0.9,1.1,0.6,2.4-0.3,3c-0.9,0.6-2,0.3-2.8-0.8l-0.2-0.3"/>
			<path class="st5" d="M93.5,73c0.9,0,1.6,0.6,1.5,1.3c-0.1,0.7-0.7,1.1-1.6,1.1l-0.2,0"/>
			<path class="st4" d="M93.3,72.3l0.3,0c1.4-0.1,2.3,1.1,2.2,2.1c-0.1,1.1-1.1,1.8-2.4,1.7l-0.2,0l-0.1,0"/>
			<path class="st5" d="M91.2,69.6c0.6-0.7,1.6-0.7,2.1-0.2c0.5,0.5,0.3,1.4-0.3,2"/>
			<path class="st4" d="M90.6,69.2l0.2-0.2c0.9-1.1,2.3-0.9,3-0.1c0.7,0.8,0.6,2-0.4,2.9L93.2,72"/>
			<path class="st5" d="M88.8,78.4l0,0.2c-0.1,0.9-0.9,1.4-1.5,1.2c-0.7-0.2-1-0.9-0.9-1.7l0-0.2"/>
			<path class="st4" d="M89.4,78.4l0,0.3c-0.2,1.4-1.4,2.1-2.4,1.8c-1-0.3-1.6-1.3-1.3-2.6l0.1-0.2"/>
		</g>
	</g>
	<g>
		<path class="st4" d="M97.9,63.6c0.1-0.2,0.1-0.3,0.2-0.5c0.7-2.5-0.9-5.7-4.4-6.2l-0.2,1.7c2.2,0.3,3.4,2.3,2.9,3.9
			c-0.5,1.6-2.3,2.5-4.3,2.1l-0.6,1.7C94.5,66.9,97,65.8,97.9,63.6"/>
		<g>
			<path class="st5" d="M97.9,63.7c0.8,0.5,0.8,1.4,0.4,1.9c-0.4,0.5-1.2,0.4-1.9-0.1"/>
			<path class="st4" d="M98.2,63l0.1,0.1c1.2,0.8,1.3,2.2,0.6,3c-0.7,0.8-1.9,0.8-2.9,0.1l-0.3-0.2"/>
			<path class="st5" d="M97.8,59.6c0.9-0.3,1.7,0.1,1.9,0.8c0.1,0.7-0.3,1.3-1.2,1.5L98.3,62"/>
			<path class="st4" d="M97.4,59.1l0.2-0.1c1.3-0.5,2.5,0.3,2.7,1.4c0.2,1-0.5,2-1.8,2.4l-0.2,0l-0.1,0"/>
			<path class="st5" d="M94.5,57.1c0.4-0.8,1.3-1.1,1.9-0.8c0.6,0.4,0.7,1.2,0.3,2"/>
			<path class="st4" d="M93.9,56.9l0.1-0.2c0.6-1.3,1.9-1.6,2.8-1c0.9,0.6,1.1,1.7,0.5,2.9l-0.1,0.2"/>
			<path class="st5" d="M94.9,66.2l0,0.2c0.2,0.9-0.4,1.6-1.1,1.6c-0.7,0-1.2-0.5-1.3-1.4l0-0.2"/>
			<path class="st4" d="M95.5,66l0.1,0.3c0.3,1.4-0.7,2.4-1.8,2.4c-1.1,0.1-1.9-0.8-2.1-2.1l0-0.2"/>
		</g>
	</g>
	<g>
		<path class="st4" d="M99.2,49.4c0-0.2,0-0.4,0-0.6c-0.1-2.6-2.5-5.2-6-4.6l0.3,1.7c2.2-0.4,3.9,1.2,3.9,2.9c0,1.7-1.4,3.1-3.5,3.2
			l0,1.8C96.9,53.6,99,51.8,99.2,49.4"/>
		<g>
			<path class="st5" d="M99.3,49.5c0.9,0.2,1.2,1.1,1,1.7c-0.3,0.6-1,0.8-1.8,0.5"/>
			<path class="st4" d="M99.3,48.8l0.2,0c1.4,0.4,1.8,1.7,1.4,2.7c-0.4,1-1.5,1.4-2.8,0.9l-0.3-0.1"/>
			<path class="st5" d="M97.9,45.7c0.7-0.5,1.7-0.4,2,0.2c0.3,0.6,0.1,1.3-0.6,1.8l-0.2,0.1"/>
			<path class="st4" d="M97.4,45.2l0.2-0.2c1.1-0.8,2.5-0.4,3,0.5c0.5,0.9,0.1,2.1-1,2.8l-0.2,0.1l-0.1,0"/>
			<path class="st5" d="M94,44.2c0.1-0.9,0.9-1.5,1.6-1.3c0.7,0.2,1,1,0.8,1.8"/>
			<path class="st4" d="M93.4,44.2l0-0.2c0.2-1.4,1.4-2.1,2.4-1.8c1,0.3,1.6,1.3,1.4,2.6L97.1,45"/>
			<path class="st5" d="M97.1,52.8l0.1,0.1c0.4,0.8,0,1.6-0.6,1.9c-0.6,0.2-1.3-0.2-1.7-0.9l-0.1-0.2"/>
			<path class="st4" d="M97.6,52.4l0.1,0.2c0.7,1.3,0,2.5-1,2.9c-1,0.4-2-0.2-2.6-1.4l-0.1-0.2"/>
		</g>
	</g>
	<g>
		<path class="st4" d="M96.3,35.4c0-0.2-0.1-0.4-0.1-0.5c-0.8-2.5-3.9-4.2-7.1-2.6l0.7,1.5c2-1,4.1,0,4.6,1.6
			c0.5,1.6-0.5,3.3-2.4,4.1l0.5,1.8C95.3,40.1,96.8,37.8,96.3,35.4"/>
		<g>
			<path class="st5" d="M96.3,35.5c0.9,0,1.5,0.7,1.4,1.3c-0.1,0.7-0.8,1-1.6,1"/>
			<path class="st4" d="M96.2,34.8l0.2,0c1.4,0,2.3,1.1,2.1,2.1c-0.1,1.1-1.1,1.8-2.4,1.7l-0.3,0"/>
			<path class="st5" d="M93.9,32.3c0.5-0.7,1.5-0.9,2-0.4c0.5,0.5,0.5,1.3-0.1,1.9l-0.1,0.1"/>
			<path class="st4" d="M93.3,32l0.1-0.2c0.8-1.1,2.2-1.1,3-0.4c0.8,0.7,0.7,1.9-0.1,2.9l-0.2,0.2l-0.1,0.1"/>
			<path class="st5" d="M89.8,32c-0.2-0.9,0.5-1.7,1.1-1.7c0.7,0,1.2,0.6,1.3,1.5"/>
			<path class="st4" d="M89.2,32.2l0-0.2c-0.3-1.4,0.7-2.4,1.8-2.5c1.1-0.1,1.9,0.8,2.1,2.1l0,0.2"/>
			<path class="st5" d="M95.2,39.3l0.1,0.1c0.6,0.6,0.5,1.5,0,1.9c-0.5,0.4-1.3,0.2-1.9-0.4l-0.1-0.1"/>
			<path class="st4" d="M95.6,38.8l0.2,0.2c1,1,0.7,2.4-0.1,3c-0.9,0.6-2,0.4-2.9-0.6l-0.1-0.2"/>
		</g>
	</g>
	<g>
		<path class="st4" d="M89.4,23c-0.1-0.2-0.2-0.3-0.3-0.5c-1.5-2.1-5-2.9-7.6-0.4l1.1,1.2c1.6-1.5,3.9-1.2,4.9,0.2
			c1,1.4,0.5,3.3-1.1,4.7l1,1.5C89.8,27.7,90.5,25.1,89.4,23"/>
		<g>
			<path class="st5" d="M89.4,23c0.9-0.3,1.6,0.2,1.7,0.9c0.1,0.7-0.4,1.2-1.2,1.4"/>
			<path class="st4" d="M89,22.4l0.1-0.1c1.3-0.5,2.5,0.4,2.7,1.4c0.2,1-0.5,2-1.8,2.3l-0.3,0.1"/>
			<path class="st5" d="M86.1,20.6c0.3-0.9,1.2-1.3,1.8-1c0.6,0.3,0.8,1.1,0.5,1.9l-0.1,0.2"/>
			<path class="st4" d="M85.5,20.5l0.1-0.2c0.5-1.3,1.8-1.7,2.8-1.3c1,0.5,1.3,1.6,0.8,2.8l-0.1,0.2l-0.1,0.1"/>
			<path class="st5" d="M82.1,21.6c-0.4-0.8,0-1.7,0.6-2c0.6-0.2,1.4,0.2,1.7,1"/>
			<path class="st4" d="M81.6,22l-0.1-0.2c-0.7-1.3,0-2.5,1-2.9c1-0.4,2.1,0.2,2.6,1.4l0.1,0.2"/>
			<path class="st5" d="M89.5,27l0.1,0.1c0.8,0.4,0.9,1.3,0.6,1.9c-0.4,0.6-1.2,0.6-1.9,0.2L88.1,29"/>
			<path class="st4" d="M89.7,26.4l0.3,0.1c1.3,0.7,1.4,2.1,0.8,2.9c-0.6,0.9-1.8,1-2.9,0.3l-0.2-0.2"/>
		</g>
	</g>
	<g>
		<path class="st4" d="M79.1,13.1c-0.1-0.1-0.3-0.3-0.4-0.4c-2.1-1.6-5.6-1.3-7.3,1.8l1.5,0.8c1.1-2,3.4-2.3,4.7-1.3
			c1.4,1,1.5,3,0.3,4.8l1.4,1.2C80.9,17.5,80.8,14.7,79.1,13.1"/>
		<g>
			<path class="st5" d="M79.1,13.1c0.7-0.5,1.6-0.3,1.9,0.3c0.3,0.6,0,1.3-0.8,1.7"/>
			<path class="st4" d="M78.6,12.7l0.1-0.1c1.1-0.8,2.5-0.4,3,0.6c0.5,0.9,0.1,2.1-1,2.8L80.4,16"/>
			<path class="st5" d="M75.3,11.8c0-0.9,0.8-1.6,1.4-1.4c0.7,0.1,1.1,0.8,1,1.6l0,0.2"/>
			<path class="st4" d="M74.6,11.9l0-0.3c0-1.4,1.2-2.2,2.3-2c1.1,0.2,1.7,1.2,1.6,2.5l0,0.2l0,0.1"/>
			<path class="st5" d="M71.7,13.9c-0.6-0.6-0.5-1.7,0-2.1c0.5-0.4,1.4-0.2,1.9,0.5"/>
			<path class="st4" d="M71.4,14.4l-0.2-0.2c-1-1-0.8-2.4,0.1-3c0.8-0.6,2-0.4,2.9,0.6l0.1,0.2"/>
			<path class="st5" d="M80.4,16.9l0.1,0c0.9,0.2,1.3,1,1.1,1.6c-0.2,0.6-1,1-1.8,0.7l-0.2,0"/>
			<path class="st4" d="M80.4,16.2l0.3,0c1.4,0.3,2,1.6,1.6,2.6c-0.3,1-1.4,1.5-2.7,1.1l-0.2-0.1"/>
		</g>
	</g>
	<g>
		<path class="st4" d="M66.3,6.7c-0.2-0.1-0.3-0.2-0.5-0.2c-2.5-0.9-5.7,0.4-6.5,3.9l1.6,0.4c0.5-2.2,2.5-3.2,4.1-2.6
			c1.6,0.6,2.3,2.5,1.7,4.5l1.7,0.7C69.3,10.3,68.5,7.8,66.3,6.7"/>
		<g>
			<path class="st5" d="M66.4,6.7c0.5-0.7,1.4-0.7,1.9-0.3c0.5,0.5,0.3,1.2-0.2,1.9"/>
			<path class="st4" d="M65.7,6.4l0.1-0.1c0.9-1.1,2.3-1.1,3-0.3c0.8,0.7,0.7,1.9-0.2,2.9l-0.2,0.2"/>
			<path class="st5" d="M62.3,6.6c-0.2-0.9,0.3-1.7,0.9-1.8c0.7-0.1,1.3,0.4,1.4,1.3l0,0.2"/>
			<path class="st4" d="M61.7,6.9l-0.1-0.2c-0.4-1.4,0.5-2.4,1.6-2.6c1.1-0.1,2,0.6,2.2,1.9l0,0.2l0,0.1"/>
			<path class="st5" d="M59.5,9.6c-0.8-0.4-1-1.4-0.6-2c0.4-0.6,1.3-0.6,2-0.1"/>
			<path class="st4" d="M59.3,10.2l-0.2-0.1c-1.3-0.7-1.4-2.1-0.8-2.9c0.6-0.9,1.8-1,2.9-0.3L61.5,7"/>
			<path class="st5" d="M68.7,9.9l0.2,0c0.9-0.1,1.5,0.6,1.5,1.2c0,0.7-0.6,1.2-1.5,1.2l-0.2,0"/>
			<path class="st4" d="M68.5,9.3l0.3,0c1.4-0.2,2.3,0.9,2.3,2c0,1.1-0.9,1.8-2.3,1.9l-0.2,0"/>
		</g>
	</g>
</g>
</svg>
