<?xml version="1.0" encoding="utf-8"?>
<!-- Generator: Adobe Illustrator 26.2.1, SVG Export Plug-In . SVG Version: 6.00 Build 0)  -->
<svg version="1.1" xmlns="http://www.w3.org/2000/svg" xmlns:xlink="http://www.w3.org/1999/xlink" x="0px" y="0px"
	 viewBox="0 0 103 104" style="enable-background:new 0 0 103 104;" xml:space="preserve">
<style type="text/css">
	.st0{display:none;}
	.st1{display:inline;fill:#444D66;}
	.st2{display:inline;}
	.st3{fill:none;stroke:#000000;stroke-width:0.2;stroke-miterlimit:10;}
	.st4{fill:none;stroke:#000000;stroke-width:8.000000e-02;stroke-miterlimit:10;}
	.st5{fill:none;stroke:#000000;stroke-width:0.25;stroke-miterlimit:10;}
	.st6{fill:none;stroke:#000000;stroke-width:3.000000e-02;stroke-miterlimit:10;}
	.st7{fill:none;stroke:#000000;stroke-miterlimit:10;}
	.st8{stroke:#000000;stroke-width:8.000000e-02;stroke-miterlimit:10;}
</style>
<g id="Capa_1" class="st0">
	<path class="st1" d="M43.1,94.9c0.3,0.1,0.5-0.1,0.6-0.4c0.1-0.3-0.1-0.5-0.4-0.6c-0.3-0.1-0.5,0.1-0.6,0.4c0,0,0,0,0,0
		C42.6,94.6,42.8,94.9,43.1,94.9C43,94.9,43.1,94.9,43.1,94.9z"/>
	<path class="st1" d="M34.5,93.2c0.3,0.1,0.5-0.1,0.6-0.4c0,0,0,0,0,0c0-0.3-0.1-0.5-0.4-0.6c-0.3,0-0.5,0.1-0.6,0.4
		C34.1,92.9,34.3,93.1,34.5,93.2z"/>
	<path class="st1" d="M46.8,98.1c-0.3-0.1-0.5,0.1-0.6,0.4c0,0,0,0,0,0c0,0.3,0.1,0.5,0.4,0.6c0.3,0,0.5-0.1,0.6-0.4
		C47.3,98.4,47.1,98.2,46.8,98.1z"/>
	<path class="st1" d="M37.8,96.2c-0.3-0.1-0.5,0.1-0.6,0.4c0,0,0,0,0,0c0,0.3,0.1,0.5,0.4,0.6c0.3,0.1,0.5-0.1,0.6-0.4
		C38.2,96.6,38.1,96.3,37.8,96.2z"/>
	<path class="st1" d="M28.1,89c0.2,0.1,0.5,0.1,0.7-0.2c0.2-0.2,0.1-0.6-0.1-0.7c-0.2-0.2-0.5-0.1-0.7,0.1c0,0,0,0,0,0l0,0
		C27.8,88.5,27.9,88.9,28.1,89C28.1,89,28.1,89,28.1,89z"/>
	<path class="st1" d="M20.8,84.3c0.2,0.2,0.6,0.1,0.7-0.2c0.2-0.2,0.1-0.6-0.2-0.7c-0.2-0.2-0.6-0.1-0.7,0.2c0,0,0,0,0,0
		C20.5,83.8,20.5,84.1,20.8,84.3C20.8,84.3,20.8,84.3,20.8,84.3z"/>
	<path class="st1" d="M30.5,93.3c-0.2-0.1-0.5-0.1-0.7,0.2c-0.2,0.2-0.1,0.6,0.1,0.7c0.2,0.1,0.5,0.1,0.7-0.2l0,0
		C30.8,93.8,30.7,93.5,30.5,93.3C30.5,93.3,30.5,93.3,30.5,93.3z"/>
	<path class="st1" d="M22.7,88.3c-0.2-0.2-0.5-0.1-0.7,0.1c-0.2,0.2-0.1,0.5,0.1,0.7c0,0,0.1,0,0.1,0.1c0.2,0.2,0.5,0.1,0.7-0.1
		C23.1,88.9,23,88.6,22.7,88.3C22.8,88.4,22.7,88.4,22.7,88.3z"/>
	<path class="st1" d="M16.3,78.1c0.2,0.2,0.5,0.3,0.7,0.1c0.2-0.2,0.3-0.5,0.1-0.7s-0.5-0.3-0.7-0.1c0,0,0,0,0,0l0,0
		C16.2,77.6,16.1,77.9,16.3,78.1C16.3,78.1,16.3,78.1,16.3,78.1z"/>
	<path class="st1" d="M11.1,71c0.2,0.2,0.5,0.3,0.7,0.1s0.3-0.5,0.1-0.7c-0.2-0.2-0.5-0.3-0.7-0.1c0,0,0,0,0,0l0,0
		C11,70.5,11,70.8,11.1,71z"/>
	<path class="st1" d="M16.9,83c-0.2-0.2-0.5-0.3-0.7-0.1c-0.2,0.2-0.3,0.5-0.1,0.7s0.5,0.3,0.7,0.1c0,0,0,0,0,0l0,0
		C17,83.5,17.1,83.2,16.9,83C16.9,83,16.9,83,16.9,83z"/>
	<path class="st1" d="M11.5,75.5c-0.2-0.2-0.5-0.3-0.7-0.1s-0.3,0.5-0.1,0.7c0.2,0.2,0.5,0.3,0.7,0.1c0,0,0,0,0,0l0,0
		C11.6,76.1,11.7,75.8,11.5,75.5C11.5,75.5,11.5,75.5,11.5,75.5z"/>
	<path class="st1" d="M9.2,63.6c0.1,0.3,0.4,0.4,0.6,0.4c0.3-0.1,0.4-0.4,0.4-0.6l0,0c-0.1-0.3-0.4-0.4-0.6-0.4
		C9.3,63.1,9.1,63.3,9.2,63.6z"/>
	<path class="st1" d="M6.9,55.2c0.1,0.3,0.3,0.4,0.6,0.4c0.3-0.1,0.4-0.3,0.4-0.6c-0.1-0.3-0.3-0.4-0.6-0.4l0,0
		C7.1,54.6,6.9,54.9,6.9,55.2C6.9,55.2,6.9,55.2,6.9,55.2z"/>
	<path class="st1" d="M8,68.4C8,68.1,7.7,68,7.4,68C7.1,68.1,7,68.4,7,68.7c0.1,0.3,0.3,0.4,0.6,0.4c0,0,0,0,0,0
		C7.9,69,8.1,68.7,8,68.4z"/>
	<path class="st1" d="M5.7,59.5C5.6,59.2,5.3,59,5,59.1c-0.3,0.1-0.4,0.3-0.4,0.6C4.7,60,5,60.2,5.3,60.1h0
		C5.6,60,5.8,59.8,5.7,59.5C5.7,59.5,5.7,59.5,5.7,59.5L5.7,59.5z"/>
	<path class="st1" d="M7.8,47.6c0,0.3,0.2,0.5,0.4,0.6c0.3,0,0.5-0.2,0.6-0.4c0-0.3-0.2-0.5-0.4-0.6c0,0,0,0,0,0l0,0
		C8.1,47.1,7.8,47.3,7.8,47.6z"/>
	<path class="st1" d="M8.7,38.9c0,0.3,0.2,0.5,0.5,0.6c0.3,0,0.5-0.2,0.6-0.5c0-0.3-0.2-0.5-0.4-0.6l0,0C9.1,38.4,8.8,38.6,8.7,38.9
		C8.7,38.8,8.7,38.9,8.7,38.9z"/>
	<path class="st1" d="M5,51.6c0-0.3-0.2-0.5-0.4-0.6S4,51.2,4,51.5c0,0.3,0.2,0.5,0.4,0.6c0,0,0,0,0,0C4.7,52.1,5,51.9,5,51.6z"/>
	<path class="st1" d="M6,42.4c0-0.3-0.2-0.5-0.4-0.6C5.3,41.8,5,42,5,42.3s0.2,0.5,0.4,0.6c0,0,0,0,0,0C5.7,42.9,5.9,42.7,6,42.4
		C6,42.4,6,42.4,6,42.4z"/>
	<path class="st1" d="M12.3,32.1c-0.1,0.2,0,0.6,0.2,0.7c0.2,0.1,0.6,0,0.7-0.2c0.1-0.2,0-0.6-0.2-0.7c0,0,0,0,0,0
		C12.7,31.7,12.4,31.8,12.3,32.1C12.3,32.1,12.3,32.1,12.3,32.1z"/>
	<path class="st1" d="M16.3,24.3c-0.1,0.3,0,0.6,0.2,0.7c0.3,0.1,0.6,0,0.7-0.2c0.1-0.2,0-0.6-0.2-0.7l0,0
		C16.7,24,16.4,24.1,16.3,24.3C16.3,24.3,16.3,24.3,16.3,24.3z"/>
	<path class="st1" d="M8.2,34.8c0.1-0.2,0-0.5-0.2-0.7c-0.2-0.2-0.5-0.1-0.7,0.1c-0.2,0.2-0.1,0.5,0.1,0.7c0,0,0.1,0,0.1,0.1
		C7.8,35.2,8.1,35.1,8.2,34.8C8.2,34.9,8.2,34.9,8.2,34.8L8.2,34.8z"/>
	<path class="st1" d="M12.5,26.6c0.1-0.3,0-0.6-0.3-0.7c-0.2-0.1-0.5,0-0.6,0.2c-0.1,0.2,0,0.6,0.2,0.7C12,27,12.3,26.9,12.5,26.6z"
		/>
	<path class="st1" d="M22,19.3c-0.2,0.2-0.2,0.5,0,0.7s0.5,0.2,0.7,0c0.2-0.2,0.2-0.5,0-0.7C22.6,19.1,22.2,19.1,22,19.3
		C22,19.3,22,19.3,22,19.3z"/>
	<path class="st1" d="M28.6,13.5c-0.2,0.2-0.2,0.5,0,0.7s0.5,0.2,0.7,0c0.2-0.2,0.2-0.5,0-0.7C29.1,13.3,28.8,13.3,28.6,13.5
		C28.6,13.5,28.6,13.5,28.6,13.5z"/>
	<path class="st1" d="M17.2,20.4c0.2-0.2,0.2-0.5,0-0.7c-0.2-0.2-0.5-0.2-0.7,0c-0.2,0.2-0.2,0.5,0,0.7C16.7,20.5,17,20.6,17.2,20.4
		z"/>
	<path class="st1" d="M24.2,14.3c0.2-0.2,0.2-0.5,0.1-0.7s-0.5-0.2-0.7-0.1c-0.2,0.2-0.2,0.5-0.1,0.7C23.6,14.4,23.9,14.4,24.2,14.3
		C24.1,14.3,24.1,14.2,24.2,14.3L24.2,14.3z"/>
	<path class="st1" d="M35.7,10.9c-0.3,0.1-0.4,0.4-0.3,0.6c0.1,0.3,0.4,0.4,0.7,0.3c0.2-0.1,0.4-0.4,0.3-0.6l0,0
		C36.3,10.9,36,10.8,35.7,10.9C35.8,10.8,35.7,10.9,35.7,10.9z"/>
	<path class="st1" d="M43.9,7.8c-0.3,0.1-0.4,0.4-0.3,0.7c0.1,0.3,0.4,0.4,0.7,0.3c0.3-0.1,0.4-0.4,0.3-0.7c0,0,0,0,0,0
		C44.5,7.9,44.2,7.7,43.9,7.8z"/>
	<path class="st1" d="M30.9,10.2c0.3-0.1,0.4-0.4,0.3-0.7c-0.1-0.3-0.4-0.4-0.7-0.3c-0.3,0.1-0.4,0.4-0.3,0.7c0,0,0,0,0,0l0,0
		C30.3,10.2,30.6,10.3,30.9,10.2C30.9,10.2,30.9,10.2,30.9,10.2z"/>
	<path class="st1" d="M39.5,7c0.3-0.1,0.4-0.4,0.3-0.7C39.7,6,39.4,5.9,39.2,6c-0.3,0.1-0.4,0.4-0.3,0.7C39,6.9,39.3,7,39.5,7z"/>
	<path class="st1" d="M51.6,8C51.3,8,51,8.2,51,8.5C51,8.7,51.3,9,51.5,9c0.3,0,0.5-0.2,0.5-0.5C52.1,8.2,51.8,8,51.6,8z"/>
	<path class="st1" d="M60.3,8.1c-0.3,0-0.5,0.2-0.5,0.5c0,0.3,0.2,0.5,0.5,0.5c0,0,0,0,0,0c0.3,0,0.5-0.2,0.5-0.5l0,0
		C60.8,8.4,60.6,8.1,60.3,8.1C60.3,8.1,60.3,8.1,60.3,8.1z"/>
	<path class="st1" d="M47.3,5.6c0.3,0,0.5-0.2,0.5-0.5c0-0.3-0.2-0.5-0.5-0.5c0,0,0,0,0,0c-0.3,0-0.5,0.2-0.5,0.5l0,0
		C46.8,5.3,47,5.5,47.3,5.6C47.3,5.6,47.3,5.6,47.3,5.6z"/>
	<path class="st1" d="M56.5,5.7c0.3,0,0.5-0.2,0.5-0.5c0-0.3-0.2-0.5-0.5-0.5c0,0,0,0,0,0c-0.3,0-0.5,0.2-0.5,0.5
		C56,5.5,56.2,5.7,56.5,5.7C56.5,5.7,56.5,5.7,56.5,5.7z"/>
	<path class="st1" d="M67.3,11c-0.3-0.1-0.5,0-0.7,0.3c0,0,0,0,0,0c-0.1,0.3,0,0.6,0.3,0.7c0.3,0.1,0.5,0,0.7-0.3c0,0,0,0,0,0l0,0
		C67.7,11.4,67.6,11.1,67.3,11z"/>
	<path class="st1" d="M75.4,14.3c-0.3-0.1-0.6,0-0.7,0.3c-0.1,0.3,0,0.6,0.3,0.7c0.3,0.1,0.6,0,0.7-0.3c0,0,0,0,0,0
		C75.8,14.7,75.7,14.4,75.4,14.3C75.4,14.3,75.4,14.3,75.4,14.3z"/>
	<path class="st1" d="M64.2,7.2c0.3,0.1,0.6,0,0.7-0.3c0.1-0.3,0-0.6-0.3-0.7c-0.3-0.1-0.6,0-0.7,0.3c0,0,0,0,0,0
		C63.8,6.8,64,7.1,64.2,7.2z"/>
	<path class="st1" d="M72.8,10.7c0.3,0.1,0.5,0,0.7-0.3c0,0,0,0,0,0c0.1-0.2,0-0.6-0.2-0.7s-0.6,0-0.7,0.2c0,0,0,0.1,0,0.1
		C72.4,10.3,72.5,10.6,72.8,10.7C72.8,10.7,72.8,10.7,72.8,10.7z"/>
	<path class="st1" d="M81,19.6c-0.2-0.2-0.5-0.2-0.7,0c-0.2,0.2-0.2,0.5,0,0.7s0.5,0.2,0.7,0c0,0,0,0,0,0
		C81.2,20.1,81.2,19.8,81,19.6z"/>
	<path class="st1" d="M87.3,25.6c-0.2-0.2-0.5-0.2-0.7,0c-0.2,0.2-0.2,0.5,0,0.7s0.5,0.2,0.7,0c0,0,0,0,0,0l0,0
		C87.5,26.1,87.5,25.8,87.3,25.6z"/>
	<path class="st1" d="M79.4,14.9c0.2,0.2,0.5,0.2,0.7,0c0.2-0.2,0.2-0.5,0-0.7s-0.5-0.2-0.7,0c0,0,0,0,0,0
		C79.2,14.4,79.2,14.7,79.4,14.9C79.4,14.9,79.4,14.9,79.4,14.9z"/>
	<path class="st1" d="M86.2,21.2c0.2,0.2,0.5,0.2,0.7,0c0.2-0.2,0.2-0.5,0-0.7s-0.5-0.2-0.7,0c0,0,0,0,0,0l0,0
		C86,20.7,85.9,21,86.2,21.2C86.1,21.2,86.1,21.2,86.2,21.2z"/>
	<path class="st1" d="M90.6,32.5c-0.1-0.3-0.4-0.4-0.7-0.2s-0.4,0.4-0.2,0.7c0.1,0.2,0.4,0.3,0.6,0.2C90.6,33.1,90.7,32.8,90.6,32.5
		C90.6,32.5,90.6,32.5,90.6,32.5L90.6,32.5z"/>
	<path class="st1" d="M94.3,40.4c-0.1-0.3-0.4-0.4-0.7-0.2c-0.3,0.1-0.4,0.4-0.2,0.7c0.1,0.3,0.4,0.4,0.7,0.2c0,0,0,0,0,0l0,0
		C94.3,40.9,94.4,40.6,94.3,40.4z"/>
	<path class="st1" d="M90.9,27.6c0.1,0.3,0.4,0.4,0.7,0.2c0.3-0.1,0.4-0.4,0.2-0.7c-0.1-0.3-0.4-0.4-0.7-0.2c0,0,0,0,0,0
		C90.8,27,90.7,27.3,90.9,27.6z"/>
	<path class="st1" d="M94.8,35.9c0.1,0.3,0.4,0.4,0.7,0.2c0.3-0.1,0.4-0.4,0.2-0.7c-0.1-0.3-0.4-0.4-0.7-0.2c0,0,0,0,0,0
		C94.8,35.4,94.7,35.7,94.8,35.9z"/>
	<path class="st1" d="M94.9,48c0-0.3-0.3-0.5-0.5-0.5c0,0,0,0,0,0c-0.3,0-0.5,0.3-0.5,0.5c0,0,0,0,0,0c0,0.3,0.2,0.5,0.5,0.6
		s0.5-0.2,0.6-0.5C94.9,48.1,94.9,48.1,94.9,48L94.9,48z"/>
	<path class="st1" d="M95.6,56.8c0-0.3-0.3-0.5-0.5-0.5c-0.3,0-0.5,0.3-0.5,0.5c0,0.3,0.3,0.5,0.5,0.5C95.4,57.3,95.6,57,95.6,56.8z
		"/>
	<path class="st1" d="M96.9,43.5c0,0.3,0.3,0.5,0.5,0.5c0.3,0,0.5-0.3,0.5-0.5c0-0.3-0.3-0.5-0.5-0.5C97.1,43,96.9,43.3,96.9,43.5z"
		/>
	<path class="st1" d="M97.6,52.8c0,0.3,0.3,0.5,0.5,0.5c0.3,0,0.5-0.3,0.5-0.5c0-0.3-0.3-0.5-0.5-0.5l0,0
		C97.8,52.2,97.6,52.5,97.6,52.8C97.6,52.8,97.6,52.8,97.6,52.8z"/>
	<path class="st1" d="M93.3,64.1c0.1-0.3-0.1-0.6-0.3-0.6c-0.3-0.1-0.5,0.1-0.6,0.3c0,0,0,0,0,0c-0.1,0.3,0.1,0.6,0.3,0.6l0,0
		C93,64.5,93.2,64.3,93.3,64.1C93.3,64.1,93.3,64.1,93.3,64.1z"/>
	<path class="st1" d="M90.8,72.4c0.1-0.3-0.1-0.6-0.3-0.6s-0.6,0.1-0.6,0.3c-0.1,0.3,0.1,0.6,0.3,0.6c0,0,0,0,0,0
		C90.5,72.9,90.7,72.7,90.8,72.4z"/>
	<path class="st1" d="M96.8,60.6c-0.1,0.3,0.1,0.6,0.3,0.6c0.3,0.1,0.5-0.1,0.6-0.3c0,0,0,0,0,0c0.1-0.3-0.1-0.6-0.3-0.6l0,0
		C97.2,60.2,96.9,60.3,96.8,60.6z"/>
	<path class="st1" d="M94.2,69.5c-0.1,0.3,0.1,0.6,0.3,0.6c0.3,0.1,0.5-0.1,0.6-0.3c0,0,0,0,0,0c0.1-0.3-0.1-0.6-0.3-0.6l0,0
		C94.5,69,94.3,69.2,94.2,69.5C94.2,69.4,94.2,69.4,94.2,69.5z"/>
	<path class="st1" d="M86.1,78.5c0.2-0.2,0.1-0.5-0.1-0.7s-0.5-0.1-0.7,0.1s-0.1,0.5,0.1,0.7c0,0,0,0,0,0
		C85.6,78.7,85.9,78.7,86.1,78.5z"/>
	<path class="st1" d="M80.7,85.4c0.2-0.2,0.1-0.5-0.1-0.7s-0.5-0.1-0.7,0.1s-0.1,0.5,0.1,0.7c0,0,0,0,0,0
		C80.3,85.6,80.6,85.6,80.7,85.4z"/>
	<path class="st1" d="M90.6,76.5c-0.2,0.2-0.1,0.5,0.1,0.7s0.5,0.1,0.7-0.1s0.1-0.5-0.1-0.7c0,0,0,0,0,0l0,0
		C91.1,76.2,90.8,76.3,90.6,76.5z"/>
	<path class="st1" d="M84.9,83.8c-0.2,0.2-0.1,0.5,0.1,0.7s0.5,0.1,0.7-0.1c0.2-0.2,0.1-0.5-0.1-0.7l0,0
		C85.4,83.5,85.1,83.6,84.9,83.8z"/>
	<path class="st1" d="M74.2,89.3c0.2-0.1,0.3-0.5,0.2-0.7c-0.1-0.2-0.5-0.3-0.7-0.2c-0.2,0.1-0.3,0.5-0.2,0.7
		C73.6,89.3,73.9,89.4,74.2,89.3z"/>
	<path class="st1" d="M66.7,93.8c0.2-0.1,0.3-0.5,0.2-0.7c-0.1-0.2-0.5-0.3-0.7-0.2c-0.2,0.1-0.3,0.5-0.2,0.7
		C66.1,93.8,66.4,93.9,66.7,93.8z"/>
	<path class="st1" d="M79.1,89.1c-0.2,0.1-0.3,0.5-0.2,0.7c0.1,0.2,0.5,0.3,0.7,0.2c0.2-0.1,0.3-0.5,0.2-0.7
		C79.6,89,79.3,88.9,79.1,89.1z"/>
	<path class="st1" d="M71.2,93.8c-0.2,0.1-0.3,0.5-0.2,0.7c0.1,0.2,0.5,0.3,0.7,0.2c0.2-0.1,0.3-0.5,0.2-0.7l0,0
		C71.7,93.7,71.4,93.7,71.2,93.8C71.2,93.8,71.2,93.8,71.2,93.8z"/>
	<path class="st1" d="M59.1,95c0.3,0,0.5-0.3,0.4-0.6c0-0.3-0.3-0.5-0.6-0.4c-0.3,0-0.5,0.3-0.4,0.6c0,0,0,0,0,0l0,0
		C58.6,94.9,58.9,95.1,59.1,95C59.1,95,59.1,95,59.1,95z"/>
	<path class="st1" d="M50.6,96.5c0.3,0,0.5-0.3,0.4-0.6c0,0,0,0,0,0c-0.1-0.3-0.3-0.5-0.6-0.4c-0.3,0.1-0.4,0.4-0.4,0.6
		C50.1,96.3,50.3,96.5,50.6,96.5L50.6,96.5z"/>
	<path class="st1" d="M63.8,96.6c-0.3,0-0.5,0.3-0.5,0.5c0,0,0,0,0,0.1c0.1,0.3,0.4,0.4,0.6,0.4c0.2-0.1,0.4-0.3,0.4-0.5
		C64.3,96.8,64,96.6,63.8,96.6z"/>
	<path class="st1" d="M54.7,98.2c-0.3,0-0.5,0.3-0.4,0.6c0,0.3,0.3,0.5,0.6,0.4c0.3,0,0.5-0.3,0.4-0.6c0,0,0,0,0,0l0,0
		C55.2,98.3,55,98.2,54.7,98.2C54.7,98.2,54.7,98.2,54.7,98.2z"/>
	<path class="st1" d="M101.3,56.3c-0.1-0.7-0.8-1.1-1.5-1c0,0,0,0,0,0c-0.5,0-0.9,0.2-1.2,0.6l-4.1-3.6l3.6-4.2
		c0.3,0.3,0.7,0.4,1.2,0.4c0.8-0.1,1.3-0.6,1.3-1.2c-0.1-0.7-0.8-1.1-1.5-1c0,0,0,0,0,0c-0.5,0-0.9,0.2-1.2,0.6l-4.1-3.5l3.4-4l0,0
		c0.4,0.2,0.9,0.2,1.4,0c0.6-0.2,0.9-0.8,0.7-1.4c-0.2-0.6-0.8-0.9-1.4-0.7c-0.1,0-0.2,0.1-0.3,0.1c-0.4,0.2-0.7,0.6-0.8,1l-5.2-1.8
		l1.8-5.2c0.4,0.2,0.9,0.2,1.3,0c0.6-0.2,0.9-0.8,0.7-1.4c-0.2-0.6-0.8-0.9-1.4-0.7c-0.1,0-0.2,0.1-0.3,0.1c-0.4,0.2-0.7,0.6-0.8,1
		l-5.1-1.8l1.8-5h0.1c0.5,0.1,1-0.1,1.3-0.5c0.5-0.3,0.7-1,0.3-1.6c-0.3-0.5-1-0.7-1.6-0.3c-0.1,0.1-0.3,0.2-0.4,0.4
		c-0.3,0.3-0.5,0.8-0.4,1.2L83.4,23l-0.2-5.5c0.4,0,0.9-0.2,1.2-0.5c0.5-0.5,0.6-1.2,0.2-1.8c-0.5-0.4-1.3-0.3-1.7,0.2c0,0,0,0,0,0
		c-0.3,0.3-0.5,0.8-0.4,1.2L77,16.8l0-5.2l0,0c0.5-0.1,0.8-0.5,1-0.9c0.3-0.6,0.1-1.4-0.5-1.7c-0.7-0.2-1.4,0.2-1.5,0.9
		c-0.2,0.4-0.2,0.9,0,1.3l-5,2.1l-2.1-5.1c0.4-0.2,0.8-0.5,0.9-0.9c0.3-0.6,0.1-1.4-0.5-1.7c-0.7-0.2-1.4,0.2-1.5,0.9c0,0,0,0,0,0
		c-0.2,0.4-0.2,0.9,0,1.3l-5,2.1l-2-4.9l0,0c0.4-0.3,0.6-0.7,0.6-1.2c0.1-0.7-0.4-1.3-1-1.4c0,0,0,0,0,0c-0.7,0.1-1.2,0.7-1.1,1.4
		c0,0.5,0.2,0.9,0.5,1.2l-3.9,3.8l-3.8-4c0.3-0.3,0.5-0.7,0.5-1.2c0.2-0.6-0.2-1.2-0.8-1.4C51.1,2,50.5,2.4,50.4,3
		c0,0.2,0,0.4,0,0.6c0,0.5,0.2,0.9,0.5,1.2L47,8.6l-3.6-3.8v0c0.3-0.4,0.3-0.9,0.1-1.4c-0.2-0.7-0.9-1.1-1.5-0.9
		c-0.6,0.3-0.9,1.1-0.6,1.7c0,0,0,0,0,0c0.1,0.4,0.5,0.8,0.9,0.9L40,10l-5-2.3c0.2-0.4,0.2-0.9,0.1-1.3c-0.2-0.7-0.8-1.1-1.5-0.9
		c-0.6,0.3-0.8,1.1-0.5,1.7c0.1,0.4,0.5,0.8,0.9,0.9l-2.3,4.9l-4.8-2.2v-0.1c0.1-0.5,0-1-0.4-1.3c-0.4-0.5-1.2-0.7-1.7-0.3
		c-0.5,0.5-0.4,1.3,0.1,1.8c0.3,0.4,0.7,0.6,1.2,0.6L25.7,17l-5.5-0.3c0.1-0.4-0.1-0.9-0.4-1.2c-0.4-0.6-1.2-0.7-1.7-0.3
		c0,0,0,0,0,0c-0.5,0.5-0.4,1.3,0.1,1.8c0.3,0.3,0.7,0.5,1.2,0.5L19,22.8l-5.3-0.3v0c-0.1-0.5-0.4-0.9-0.8-1.1
		c-0.6-0.4-1.3-0.2-1.7,0.3c-0.2,0.6,0.1,1.4,0.7,1.6c0.4,0.2,0.9,0.3,1.3,0.1l1.6,5.2l-5.2,1.7c-0.1-0.4-0.4-0.8-0.8-1
		c-0.6-0.4-1.3-0.2-1.7,0.3c-0.2,0.6,0.1,1.4,0.7,1.6c0.4,0.2,0.9,0.3,1.3,0.1l1.6,5.2l-5,1.6l0,0c-0.2-0.4-0.7-0.7-1.2-0.7
		c-0.7-0.1-1.3,0.3-1.5,0.9c-0.1,0.6,0.5,1.2,1.3,1.2c0.5,0.1,0.9-0.1,1.2-0.4L9,43.4l-4.3,3.4c-0.3-0.4-0.7-0.6-1.1-0.6
		c-0.7-0.1-1.3,0.3-1.5,1c0,0,0,0,0,0c-0.1,0.6,0.5,1.2,1.3,1.2c0.5,0.1,0.9-0.1,1.2-0.4l3.4,4.2l-4.1,3.3l0,0
		c-0.4-0.3-0.9-0.4-1.3-0.2c-0.7,0.1-1.2,0.7-1.1,1.4c0,0,0,0,0,0.1c0.3,0.6,1,1,1.6,0.7c0.4-0.1,0.8-0.4,1-0.8l4.7,2.8L6,64.1
		c-0.4-0.3-0.8-0.3-1.3-0.2C4,64,3.6,64.6,3.7,65.3c0.3,0.6,1,1,1.6,0.7c0.5-0.1,0.9-0.4,1.1-0.8l4.7,2.7l-2.7,4.6l0,0
		c-0.5-0.1-1,0-1.4,0.3c-0.6,0.3-0.8,1.1-0.5,1.7C7,75,7.7,75,8.3,74.5c0,0,0,0,0,0c0.4-0.3,0.6-0.7,0.6-1.1l5.4,0.8l-0.9,5.4
		c-0.4-0.1-0.9,0-1.2,0.3c-0.6,0.3-0.8,1.1-0.5,1.7c0.5,0.5,1.3,0.5,1.8,0.1c0,0,0,0,0,0c0.4-0.3,0.6-0.7,0.6-1.1l5.4,0.8l-0.8,5.2
		h-0.1c-0.5,0-0.9,0.3-1.1,0.7c-0.5,0.5-0.4,1.3,0.1,1.8c0,0,0,0,0.1,0c0.6,0.3,1.4,0,1.7-0.6c0,0,0,0,0,0c0.3-0.4,0.3-0.9,0.2-1.3
		l5.3-1.2l1.2,5.4c-0.4,0.1-0.8,0.3-1,0.7c-0.4,0.5-0.4,1.3,0.2,1.8c0.6,0.3,1.4,0,1.7-0.6c0,0,0,0,0,0c0.3-0.4,0.3-0.9,0.2-1.3
		l5.3-1.2l1.1,5.2h0c-0.4,0.2-0.7,0.6-0.8,1.1c-0.3,0.6,0,1.2,0.6,1.5c0.6,0.3,1.2,0,1.5-0.6c0.1-0.2,0.1-0.3,0.1-0.5
		c0.1-0.4,0-0.9-0.3-1.3l4.5-3l3,4.6c-0.4,0.2-0.6,0.6-0.7,1c-0.3,0.6,0,1.2,0.5,1.5c0.6,0.3,1.2,0,1.5-0.5c0.1-0.2,0.1-0.4,0.1-0.5
		c0.1-0.4,0-0.9-0.2-1.3l4.5-3l2.9,4.4l0,0c-0.3,0.3-0.5,0.8-0.4,1.3c-0.1,0.6,0.3,1.2,0.9,1.3c0.6,0.1,1.2-0.3,1.3-0.9
		c0.1-0.3,0-0.5-0.1-0.8c-0.1-0.5-0.3-0.9-0.7-1.1l3.2-4.5l4.5,3.2C59,98.6,58.9,99,59,99.5c0,0.6,0.4,1.2,1,1.2
		c0.6,0,1.2-0.4,1.2-1c0-0.2,0-0.4-0.1-0.5c-0.1-0.5-0.3-0.9-0.7-1.1l3.1-4.4l4.3,3.1v0.1c-0.2,0.4-0.1,1,0.1,1.4
		c0.2,0.6,0.8,0.9,1.4,0.7c0.6-0.2,0.9-0.8,0.7-1.4c-0.1-0.2-0.2-0.3-0.3-0.5c-0.2-0.4-0.6-0.7-1.1-0.8l1.3-5.3l5.3,1.3
		c-0.1,0.4-0.1,0.9,0.2,1.3c0.2,0.6,0.8,0.9,1.4,0.7c0.6-0.2,0.9-0.8,0.7-1.4c-0.1-0.2-0.2-0.3-0.3-0.5c-0.2-0.4-0.6-0.7-1.1-0.8
		l1.3-5.3l5.1,1.3l0,0c0,0.5,0.2,0.9,0.6,1.2c0.3,0.5,1,0.7,1.5,0.4c0.5-0.3,0.7-1,0.4-1.5c-0.1-0.2-0.3-0.4-0.6-0.5
		c-0.3-0.3-0.8-0.4-1.3-0.3l-0.7-5.4l5.4-0.7c0,0.4,0.3,0.9,0.6,1.1c0.5,0.5,1.3,0.5,1.8,0c0,0,0,0,0,0c0.4-0.6,0.2-1.4-0.4-1.7
		c-0.3-0.3-0.8-0.4-1.3-0.3l-0.7-5.4l5.2-0.6v0.1c0.2,0.5,0.5,0.8,1,0.9c0.5,0.3,1.2,0.1,1.5-0.4c0.3-0.5,0.1-1.2-0.4-1.5
		c-0.2-0.1-0.3-0.1-0.5-0.2c-0.4-0.2-0.9-0.1-1.3,0.2L91.4,68l4.9-2.6c0.2,0.4,0.6,0.7,1,0.8c0.5,0.3,1.2,0.1,1.5-0.4
		c0.3-0.5,0.1-1.2-0.4-1.5c-0.2-0.1-0.3-0.1-0.5-0.2c-0.4-0.2-0.9-0.1-1.3,0.2l-2.6-4.8l4.7-2.5l0,0c0.3,0.4,0.8,0.6,1.3,0.5
		C100.7,57.5,101.3,57,101.3,56.3z M99.2,47.2c0.4,0,0.6,0.1,0.6,0.3s-0.2,0.3-0.6,0.3s-0.6-0.1-0.6-0.3S98.9,47.2,99.2,47.2z
		 M94.3,30.2c0.3-0.1,0.6-0.1,0.7,0s-0.1,0.4-0.4,0.5s-0.6,0.1-0.7,0S94,30.3,94.3,30.2z M8.8,30.5c0,0.1-0.3,0.2-0.7,0
		c-0.3-0.2-0.4-0.4-0.4-0.5s0.3-0.2,0.7,0C8.7,30.2,8.9,30.4,8.8,30.5L8.8,30.5z M3.4,47.6c-0.3,0-0.6-0.2-0.6-0.4S3.1,47,3.4,47
		S4,47.2,4,47.3C4,47.5,3.7,47.6,3.4,47.6z M5.1,65.2c-0.3,0.1-0.6,0-0.7-0.1l0,0c0-0.1,0.2-0.3,0.5-0.4c0.3-0.1,0.6,0,0.6,0.1
		S5.4,65.2,5.1,65.2z M13,81c-0.3,0.2-0.6,0.2-0.7,0.1s0-0.4,0.3-0.6s0.6-0.2,0.7-0.1S13.3,80.9,13,81L13,81z M89.2,80.6
		c0.1-0.1,0.4-0.1,0.6,0.1s0.4,0.5,0.3,0.6l0,0c-0.1,0.1-0.4,0.1-0.6-0.1S89.1,80.8,89.2,80.6L89.2,80.6z M97,65
		c0-0.1,0.3-0.2,0.7-0.1c0.3,0.1,0.5,0.3,0.5,0.5l0,0c0,0.1-0.3,0.2-0.7,0.1C97.1,65.4,97,65.1,97,65z M98.2,38.2
		c0.3-0.2,0.6-0.1,0.7,0s-0.1,0.4-0.4,0.5s-0.6,0.1-0.7,0S97.9,38.4,98.2,38.2z M90.1,22.2c0.2-0.3,0.5-0.3,0.6-0.2s0.1,0.4-0.2,0.6
		s-0.5,0.3-0.6,0.2S89.9,22.4,90.1,22.2z M83.6,16.1c0.2-0.3,0.5-0.3,0.6-0.2s0.1,0.4-0.2,0.6c-0.2,0.3-0.5,0.3-0.6,0.2
		C83.3,16.6,83.3,16.3,83.6,16.1L83.6,16.1z M76.8,10.1c0.1-0.3,0.4-0.5,0.5-0.4s0.2,0.3,0.1,0.7s-0.4,0.5-0.5,0.4
		S76.7,10.5,76.8,10.1z M70.6,14.3c0.1,0.1,0.2,0.3,0,0.7s-0.4,0.5-0.5,0.4l0,0c-0.1-0.1-0.2-0.3-0.1-0.7S70.5,14.3,70.6,14.3z
		 M68.5,6.8c0.1-0.3,0.4-0.5,0.5-0.4s0.2,0.3,0.1,0.7s-0.4,0.5-0.5,0.4S68.4,7.1,68.5,6.8z M62.4,11c0.1,0.1,0.2,0.3,0.1,0.7
		s-0.4,0.5-0.5,0.4s-0.2-0.3-0.1-0.7S62.3,10.9,62.4,11z M60.3,3.1c0.1,0,0.3,0.2,0.3,0.6s-0.2,0.6-0.3,0.6S60,4.1,60,3.7
		S60.2,3.1,60.3,3.1z M55.8,9.9c0.1,0,0.3,0.2,0.3,0.6S55.9,11,55.8,11s-0.3-0.2-0.3-0.6S55.7,9.9,55.8,9.9z M51.5,3
		c0.1,0,0.3,0.2,0.3,0.6s-0.2,0.6-0.3,0.6S51.1,4,51.1,3.6S51.3,3,51.5,3z M46.9,9.7c0.1,0,0.3,0.2,0.3,0.6s-0.2,0.6-0.3,0.6
		s-0.3-0.2-0.3-0.6S46.8,9.7,46.9,9.7z M42.1,3.8c-0.1-0.3,0-0.6,0.1-0.7l0,0c0.1,0,0.4,0.1,0.5,0.4s0,0.6-0.1,0.7
		S42.2,4.2,42.1,3.8z M40.3,11.1c0.1,0,0.4,0.1,0.5,0.4s0,0.6-0.1,0.7l0,0c-0.1,0-0.4-0.1-0.5-0.4S40.3,11.1,40.3,11.1z M33.7,6.9
		c-0.1-0.3,0-0.6,0.1-0.7s0.4,0.1,0.5,0.4s0,0.6-0.1,0.7S33.9,7.2,33.7,6.9L33.7,6.9z M32,14.2c0.1,0,0.4,0.1,0.5,0.4s0,0.6-0.1,0.7
		c-0.1,0-0.4-0.1-0.5-0.4C31.8,14.5,31.9,14.2,32,14.2z M26.4,17.8c0.1-0.1,0.4,0,0.6,0.2s0.2,0.6,0.2,0.6s-0.4,0-0.6-0.2
		S26.3,17.9,26.4,17.8L26.4,17.8z M25.4,10.4c-0.2-0.3-0.2-0.6-0.2-0.6s0.4,0,0.6,0.2s0.3,0.6,0.2,0.6S25.7,10.7,25.4,10.4
		L25.4,10.4z M19.8,23.7c0.1-0.1,0.4,0,0.6,0.2s0.2,0.6,0.2,0.6s-0.4,0-0.6-0.2S19.7,23.8,19.8,23.7z M18.8,16.3
		c-0.2-0.3-0.2-0.6-0.2-0.7s0.4,0,0.6,0.2c0.2,0.3,0.3,0.6,0.2,0.7S19,16.6,18.8,16.3L18.8,16.3z M12.9,22.6c-0.1,0.1-0.4,0.2-0.7,0
		s-0.4-0.4-0.4-0.5s0.4-0.2,0.7,0S13,22.5,12.9,22.6L12.9,22.6z M4.3,38.7c-0.3,0-0.6-0.2-0.6-0.4s0.3-0.3,0.6-0.2S5,38.3,5,38.5
		C4.9,38.6,4.7,38.7,4.3,38.7z M2.8,56.6c-0.3,0.1-0.6,0-0.6-0.1s0.1-0.3,0.5-0.4s0.6,0,0.6,0.1S3.1,56.5,2.8,56.6z M7.8,73.9
		c-0.3,0.2-0.6,0.2-0.7,0.1s0-0.4,0.3-0.6s0.6-0.2,0.7-0.1S8.1,73.7,7.8,73.9L7.8,73.9z M18.7,88.2c-0.2,0.3-0.5,0.4-0.6,0.3
		s-0.1-0.4,0.1-0.7s0.5-0.4,0.6-0.3S18.8,87.9,18.7,88.2z M25.5,85.2c-0.1-0.1-0.1-0.4,0.1-0.7s0.5-0.4,0.6-0.3s0.1,0.4-0.1,0.7
		S25.6,85.3,25.5,85.2z M26.1,93c-0.2,0.3-0.5,0.4-0.6,0.3s-0.1-0.4,0.1-0.7s0.5-0.4,0.6-0.3S26.3,92.7,26.1,93z M33,90
		c-0.1-0.1-0.1-0.4,0.1-0.7c0.2-0.3,0.5-0.4,0.6-0.3s0.1,0.4-0.1,0.7S33.1,90.1,33,90L33,90z M34,97.5c-0.1,0.3-0.3,0.6-0.4,0.5
		s-0.2-0.3-0.2-0.7s0.3-0.6,0.4-0.5S34,97.2,34,97.5L34,97.5z M39.7,91.8c-0.1,0.3-0.3,0.6-0.4,0.5S39,92,39.1,91.6s0.3-0.5,0.4-0.5
		l0,0C39.6,91.2,39.7,91.4,39.7,91.8L39.7,91.8z M42.7,99.3c-0.1,0.3-0.3,0.6-0.4,0.5s-0.2-0.3-0.2-0.7s0.3-0.6,0.4-0.5
		S42.7,99,42.7,99.3L42.7,99.3z M48,94.1c-0.1,0-0.2-0.3-0.2-0.7s0.3-0.6,0.4-0.5s0.2,0.3,0.2,0.7S48.1,94.1,48,94.1L48,94.1z
		 M51.4,101.4c-0.1,0-0.3-0.2-0.4-0.5s0.1-0.6,0.2-0.6s0.3,0.2,0.4,0.5S51.5,101.4,51.4,101.4L51.4,101.4z M54.7,93.9
		c-0.1,0-0.3-0.2-0.4-0.5s0.1-0.6,0.2-0.6s0.3,0.2,0.4,0.5S54.8,93.9,54.7,93.9L54.7,93.9z M60.2,99.9c-0.1,0-0.3-0.2-0.4-0.5
		s0.1-0.6,0.2-0.6s0.3,0.2,0.4,0.5S60.3,99.9,60.2,99.9L60.2,99.9z M63.4,92.4c-0.1,0-0.3-0.2-0.4-0.5s0.1-0.6,0.2-0.6
		s0.3,0.2,0.4,0.5S63.5,92.4,63.4,92.4L63.4,92.4z M69.2,97.3c0.2,0.3,0.2,0.6,0.1,0.7s-0.4,0-0.6-0.4s-0.2-0.6,0-0.7
		S69,97.1,69.2,97.3L69.2,97.3z M69.6,89.9c-0.1,0.1-0.4,0-0.6-0.4s-0.2-0.6,0-0.7s0.4,0,0.6,0.4S69.7,89.8,69.6,89.9L69.6,89.9z
		 M76.9,92.8c0.2,0.3,0.2,0.6,0,0.7s-0.4-0.1-0.6-0.4s-0.2-0.6,0-0.7S76.7,92.5,76.9,92.8L76.9,92.8z M77.2,85.3
		c-0.1,0.1-0.4-0.1-0.6-0.4s-0.2-0.6,0-0.7s0.4,0,0.6,0.4S77.3,85.3,77.2,85.3L77.2,85.3z M83.7,87.7c0.1-0.1,0.4-0.1,0.7,0.1
		s0.3,0.5,0.3,0.6l0,0c-0.1,0.1-0.4,0.1-0.7-0.1S83.7,87.8,83.7,87.7L83.7,87.7z M94.5,73.5c0-0.1,0.3-0.2,0.7-0.1s0.5,0.3,0.5,0.5
		l0,0c0,0.1-0.3,0.2-0.7,0.1S94.4,73.7,94.5,73.5z M93.7,58.8c-0.2-0.4-0.5-0.8-1-0.9c-0.5-0.3-1.2-0.1-1.5,0.4
		c-0.3,0.5-0.1,1.2,0.4,1.5c0.2,0.1,0.3,0.1,0.5,0.2c0.4,0.2,0.9,0.1,1.3-0.1l0,0l2.6,4.8l-4.8,2.6c-0.2-0.4-0.6-0.7-1-0.8
		c-0.5-0.3-1.2-0.1-1.5,0.4c-0.3,0.5-0.1,1.2,0.4,1.5c0.2,0.1,0.3,0.1,0.5,0.2c0.4,0.1,0.9,0.1,1.3-0.1l2.5,4.7l-4.9,0.6
		c0-0.5-0.2-0.9-0.6-1.2c-0.4-0.5-1.1-0.6-1.6-0.2s-0.6,1.1-0.2,1.6c0.1,0.1,0.3,0.3,0.4,0.3c0.3,0.3,0.8,0.4,1.2,0.3l0,0l0.8,5.4
		l-5.4,0.7c0-0.5-0.2-0.9-0.6-1.2c-0.4-0.5-1.1-0.6-1.6-0.2c-0.5,0.4-0.6,1.1-0.2,1.6c0.1,0.1,0.2,0.2,0.4,0.3
		c0.3,0.3,0.8,0.4,1.2,0.3l0.6,5.2L78,85.6c0.2-0.4,0.1-0.9-0.2-1.3c-0.2-0.6-0.8-0.9-1.4-0.7c-0.6,0.2-0.9,0.8-0.7,1.4
		c0.1,0.2,0.2,0.3,0.3,0.5c0.2,0.4,0.6,0.7,1,0.8l0,0l-1.3,5.3l-5.3-1.3c0.2-0.4,0.1-0.9-0.2-1.3c-0.2-0.6-0.8-1-1.4-0.8
		c-0.6,0.2-1,0.8-0.8,1.4c0.1,0.2,0.2,0.4,0.3,0.6c0.2,0.4,0.6,0.7,1,0.8L68,95.8L64,93c0.3-0.4,0.4-0.8,0.3-1.3
		c0-0.6-0.4-1.2-1-1.2c-0.6,0-1.2,0.4-1.2,1c0,0.2,0,0.4,0.1,0.5c0.1,0.4,0.3,0.8,0.7,1.1l0,0l-3.2,4.5l-4.3-3.2
		c0.3-0.3,0.4-0.8,0.3-1.2c0-0.6-0.4-1.2-1-1.2c-0.6,0-1.2,0.4-1.2,1c0,0.2,0,0.4,0.1,0.5c0.1,0.4,0.3,0.8,0.7,1.1l-3,4.3l-2.8-4.2
		c0.4-0.2,0.7-0.6,0.8-1.1c0.3-0.6,0-1.2-0.5-1.5c-0.6-0.3-1.2,0-1.5,0.5c-0.1,0.2-0.1,0.4-0.1,0.5c-0.1,0.4,0,0.9,0.2,1.2l0,0
		l-4.6,3l-3-4.6c0.4-0.2,0.7-0.6,0.8-1.1c0.3-0.5,0.2-1.2-0.3-1.6c-0.5-0.3-1.2-0.2-1.6,0.3c-0.2,0.2-0.2,0.5-0.2,0.8
		c-0.1,0.4,0,0.9,0.2,1.2l-4.4,2.9l-1-4.8c0.5-0.1,0.9-0.3,1.1-0.7c0.4-0.5,0.4-1.3-0.2-1.8c-0.6-0.3-1.4,0-1.7,0.6c0,0,0,0,0,0
		c-0.3,0.4-0.4,0.8-0.3,1.3l0,0l-5.3,1.2L25.6,86c0.5-0.1,0.9-0.3,1.1-0.7c0.4-0.5,0.4-1.3-0.2-1.8c-0.6-0.3-1.4,0-1.7,0.6
		c0,0,0,0,0,0c-0.3,0.4-0.3,0.8-0.2,1.3l-5.1,1.1l0.8-4.9c0.4,0.1,0.9,0,1.3-0.3c0.6-0.2,0.9-0.9,0.6-1.5c-0.2-0.6-0.9-0.9-1.5-0.6
		c-0.2,0.1-0.3,0.2-0.4,0.3c-0.4,0.2-0.6,0.6-0.6,1.1l0,0l-5.4-0.8l0.8-5.4c0.4,0.1,0.9,0,1.3-0.3c0.6-0.3,0.8-1.1,0.5-1.7
		c-0.5-0.5-1.3-0.5-1.8-0.1c0,0,0,0,0,0c-0.4,0.2-0.6,0.6-0.6,1.1l-5.2-0.8l2.5-4.3c0.4,0.3,0.9,0.3,1.3,0.2c0.6,0,1.1-0.5,1.1-1.2
		c0-0.6-0.5-1.1-1.2-1.1c-0.2,0-0.4,0.1-0.5,0.1c-0.4,0.1-0.8,0.4-1,0.8l0,0l-4.8-2.7l2.7-4.7c0.4,0.3,0.9,0.3,1.3,0.2
		c0.6,0,1.1-0.5,1.1-1.2s-0.5-1.1-1.2-1.1c-0.2,0-0.4,0.1-0.5,0.1c-0.4,0.1-0.8,0.4-1,0.8L4.6,56l3.8-3.1c0.3,0.4,0.7,0.6,1.1,0.7
		c0.7,0.1,1.3-0.3,1.5-0.9c0.1-0.6-0.5-1.2-1.3-1.2c-0.4-0.1-0.9,0.1-1.2,0.4l0,0l-3.5-4.3L9.4,44c0.3,0.4,0.7,0.6,1.1,0.7
		c0.7,0.1,1.3-0.3,1.5-0.9c0.1-0.6-0.5-1.2-1.3-1.2c-0.4-0.1-0.9,0.1-1.2,0.4l-3.3-4.1l4.7-1.5c0.1,0.4,0.4,0.8,0.8,1
		c0.6,0.4,1.3,0.2,1.7-0.3c0.2-0.6-0.1-1.4-0.7-1.6c-0.4-0.2-0.8-0.2-1.2,0l0,0L9.8,31l5.2-1.6c0.1,0.4,0.4,0.8,0.8,1
		c0.5,0.4,1.2,0.2,1.6-0.3s0.2-1.2-0.3-1.6c-0.1-0.1-0.2-0.1-0.3-0.1c-0.4-0.2-0.9-0.3-1.3-0.1l-1.6-5l4.9,0.3
		c-0.1,0.5,0.1,0.9,0.4,1.3c0.4,0.6,1.2,0.7,1.7,0.3c0.5-0.5,0.4-1.3-0.1-1.8c-0.3-0.3-0.7-0.5-1.1-0.5l0,0l0.3-5.5l5.4,0.3
		c-0.1,0.5,0.1,0.9,0.4,1.2c0.4,0.6,1.2,0.7,1.7,0.3c0,0,0,0,0,0c0.5-0.5,0.4-1.3-0.1-1.8c-0.3-0.3-0.7-0.5-1.1-0.5l0.3-5.3l4.5,2.1
		c-0.2,0.4-0.3,0.9-0.1,1.3c0.2,0.7,0.8,1.1,1.5,0.9c0.6-0.3,0.9-1.1,0.5-1.7c-0.1-0.4-0.5-0.8-0.9-0.9l0,0l2.3-5l5,2.3
		c-0.2,0.4-0.3,0.9-0.1,1.3c0.2,0.7,0.8,1.1,1.5,0.9c0.6-0.4,0.8-1.1,0.4-1.7c0,0,0,0,0,0c-0.1-0.4-0.5-0.8-0.9-0.9l2.2-4.8l3.4,3.6
		c-0.4,0.3-0.6,0.7-0.6,1.2c-0.2,0.6,0.2,1.2,0.8,1.4s1.2-0.2,1.4-0.8c0-0.2,0-0.4,0-0.6c0-0.4-0.2-0.9-0.5-1.2l0,0l3.9-3.8l3.8,3.9
		c-0.4,0.3-0.6,0.7-0.5,1.2c-0.1,0.6,0.2,1.2,0.8,1.4c0.6,0.1,1.2-0.2,1.4-0.8c0-0.2,0-0.3,0-0.5c0-0.4-0.2-0.8-0.5-1.1l3.8-3.7
		l1.9,4.6c-0.5,0.1-0.8,0.5-1,0.9c-0.3,0.6-0.1,1.4,0.5,1.7c0.7,0.2,1.4-0.2,1.5-0.9c0,0,0,0,0,0c0.2-0.4,0.2-0.9,0-1.3l0,0l5-2.1
		l2.1,5c-0.4,0.1-0.8,0.5-0.9,0.9c-0.4,0.5-0.3,1.2,0.2,1.6c0.5,0.4,1.2,0.3,1.6-0.2c0.1-0.2,0.2-0.4,0.3-0.6c0.2-0.4,0.2-0.9,0-1.3
		l4.9-2.1l0.2,4.9c-0.5,0-0.9,0.2-1.2,0.5c-0.5,0.5-0.6,1.2-0.2,1.8c0.6,0.4,1.3,0.3,1.7-0.3c0,0,0,0,0,0c0.3-0.3,0.5-0.7,0.4-1.2
		l0,0l5.5-0.2l0.2,5.5c-0.5,0-0.9,0.2-1.2,0.5c-0.5,0.4-0.5,1.2-0.2,1.7c0.5,0.4,1.3,0.3,1.7-0.2c0,0,0,0,0,0
		c0.3-0.3,0.5-0.7,0.4-1.2l5.2-0.2l-1.7,4.7c-0.4-0.2-0.9-0.2-1.3,0c-0.6,0.2-0.9,0.8-0.7,1.4c0.2,0.6,0.8,0.9,1.4,0.7
		c0.1,0,0.2-0.1,0.3-0.1c0.4-0.2,0.7-0.5,0.8-0.9l0,0l5.1,1.8l-1.8,5.2c-0.4-0.2-0.9-0.2-1.3,0c-0.6,0.1-1,0.8-0.8,1.4
		s0.8,1,1.4,0.8c0.1,0,0.3-0.1,0.4-0.2c0.4-0.2,0.7-0.5,0.8-1l5,1.8l-3.2,3.7c-0.3-0.3-0.8-0.5-1.2-0.5c-0.8,0.1-1.3,0.6-1.3,1.2
		c0.1,0.7,0.8,1.1,1.5,1c0.4,0,0.8-0.2,1.1-0.6l0,0l4.2,3.6L94,51.8c-0.3-0.3-0.8-0.5-1.2-0.4c-0.8,0.1-1.3,0.6-1.3,1.2
		c0.1,0.7,0.8,1.1,1.5,1c0,0,0,0,0,0c0.4,0,0.9-0.2,1.1-0.6l4,3.5L93.7,58.8z M92.5,58.7c0.3,0.1,0.5,0.3,0.5,0.5s-0.3,0.2-0.7,0.1
		s-0.5-0.3-0.5-0.5l0,0C91.9,58.7,92.1,58.6,92.5,58.7z M89.9,67.2c0.3,0.1,0.5,0.3,0.5,0.5s-0.3,0.2-0.7,0.1s-0.5-0.3-0.5-0.5l0,0
		C89.3,67.2,89.6,67.1,89.9,67.2z M87.5,73.7c-0.1,0.1-0.4,0.1-0.6-0.1s-0.4-0.5-0.3-0.6s0.4-0.1,0.6,0.1S87.6,73.6,87.5,73.7
		L87.5,73.7z M81.1,80c0.1-0.1,0.4-0.1,0.7,0.1s0.4,0.5,0.3,0.6s-0.4,0.1-0.7-0.1S81.1,80.1,81.1,80z M21.1,80.7
		c-0.3,0.2-0.6,0.2-0.7,0.1s0-0.4,0.3-0.6s0.6-0.2,0.7-0.1l0,0C21.5,80.2,21.4,80.5,21.1,80.7z M15.5,73c0.3-0.2,0.6-0.2,0.7-0.1
		s0,0.4-0.3,0.6c-0.3,0.2-0.6,0.2-0.7,0.1S15.2,73.2,15.5,73z M12.1,67.6c0-0.1,0.1-0.3,0.5-0.4s0.6,0,0.6,0.1s-0.1,0.3-0.5,0.4
		S12.2,67.8,12.1,67.6z M9.8,59c0-0.1,0.1-0.3,0.5-0.4s0.6,0,0.6,0.1l0,0c0,0.1-0.1,0.3-0.5,0.5S9.9,59.2,9.8,59z M9.1,52.4
		c0-0.1,0.3-0.3,0.6-0.2s0.6,0.2,0.6,0.4s-0.3,0.3-0.6,0.2S9.1,52.5,9.1,52.4z M10.1,43.5c0-0.1,0.3-0.3,0.6-0.2s0.6,0.2,0.6,0.4
		l0,0c0,0.1-0.3,0.3-0.6,0.2S10,43.6,10.1,43.5L10.1,43.5z M11.8,37c0.1-0.1,0.4-0.2,0.7,0s0.4,0.4,0.4,0.5s-0.4,0.2-0.7,0
		S11.7,37.2,11.8,37L11.8,37z M15.9,29.1c0.1-0.1,0.4-0.2,0.7,0s0.4,0.4,0.4,0.5s-0.4,0.2-0.7,0C15.9,29.5,15.8,29.2,15.9,29.1
		L15.9,29.1z M76.2,18.4c-0.2,0.3-0.5,0.3-0.6,0.2s-0.1-0.4,0.2-0.6s0.5-0.3,0.6-0.2C76.5,17.8,76.4,18.1,76.2,18.4z M82.7,24.5
		c-0.2,0.3-0.5,0.3-0.6,0.2S82,24.3,82.2,24s0.5-0.3,0.6-0.2S82.9,24.2,82.7,24.5z M86.6,29.6c-0.3,0.2-0.6,0.1-0.7,0
		s0.1-0.4,0.4-0.5s0.6-0.1,0.7,0S86.9,29.5,86.6,29.6z M90.4,37.6c-0.3,0.2-0.6,0.1-0.7,0s0.1-0.4,0.4-0.5s0.6-0.1,0.7,0
		S90.7,37.5,90.4,37.6L90.4,37.6z M92.8,43.5c0,0.1-0.2,0.3-0.6,0.3s-0.6-0.1-0.6-0.3s0.2-0.3,0.6-0.3S92.8,43.4,92.8,43.5
		L92.8,43.5z M93.4,52.4c0,0.1-0.2,0.3-0.6,0.3s-0.6-0.1-0.6-0.3s0.2-0.3,0.6-0.3S93.4,52.3,93.4,52.4L93.4,52.4z M100,56.7
		c-0.3,0-0.6-0.1-0.6-0.3s0.2-0.3,0.6-0.3s0.6,0.1,0.6,0.3S100.3,56.7,100,56.7L100,56.7z"/>
</g>
<g id="Capa_3">
</g>
<g id="Capa_2">
	<path class="st3" d="M43,4.2c0.1-0.2,0.1-0.5,0-0.8c-0.2-0.5-0.6-0.8-1-0.7s-0.5,0.6-0.4,1.1c0.1,0.3,0.1,0.4,0.4,0.6l5.2,5
		c0.2,0.3,0.2,0.4,0.2,0.7c0,0.5-0.3,1-0.7,1s-0.7-0.4-0.8-0.9c0-0.3,0.1-0.6,0.2-0.7l5.5-5.4c0.1-0.2,0.2-0.4,0.2-0.7
		c0-0.5-0.4-0.9-0.7-0.9c-0.4,0-0.7,0.5-0.7,1c0,0.3,0,0.4,0.2,0.7l5.3,5.4c0.2,0.3,0.2,0.4,0.2,0.7c0,0.5-0.3,1-0.7,1
		s-0.7-0.4-0.8-0.9c0-0.3,0.1-0.6,0.2-0.7l5.5-5.3C60.9,4.3,61,4,61,3.7c0-0.5-0.3-0.9-0.7-0.9s-0.7,0.4-0.7,0.9
		c0,0.3,0,0.4,0.2,0.7l3,6.5c0.1,0.4,0,0.5-0.1,0.7c-0.2,0.5-0.6,0.8-1,0.6c-0.4-0.1-0.5-0.6-0.3-1.1c0.1-0.3,0.3-0.5,0.5-0.6
		l7.1-2.9c0.2-0.1,0.4-0.3,0.5-0.6c0.2-0.5,0-1-0.3-1.1c-0.4-0.1-0.8,0.2-1,0.7c-0.1,0.3-0.1,0.4-0.1,0.7l2.9,7.1
		c0.1,0.4,0,0.5-0.1,0.7c-0.2,0.5-0.6,0.8-1,0.7c-0.4-0.1-0.5-0.6-0.3-1.1c0.1-0.3,0.3-0.5,0.5-0.6l7.1-3c0.2-0.1,0.4-0.3,0.5-0.6
		c0.2-0.5,0-1-0.4-1.1c-0.4-0.1-0.8,0.2-1,0.7c-0.1,0.3-0.1,0.4,0,0.7l0.5,7.2c-0.1,0.4-0.2,0.5-0.4,0.7c-0.4,0.4-0.9,0.4-1.2,0.2
		c-0.3-0.3-0.2-0.8,0.2-1.2c0.2-0.2,0.6-0.4,0.8-0.4l7.3-0.2c0.2,0,0.5-0.2,0.6-0.4c0.3-0.4,0.3-0.9,0-1.2s-0.8-0.1-1.1,0.3
		c-0.2,0.2-0.2,0.3-0.3,0.7l0.4,7.6c-0.1,0.4-0.2,0.5-0.3,0.7c-0.4,0.4-0.9,0.5-1.2,0.2s-0.2-0.8,0.1-1.2c0.2-0.2,0.4-0.3,0.7-0.4
		l7.6-0.2c0.2,0,0.5-0.2,0.7-0.4c0.3-0.4,0.4-0.9,0.1-1.2s-0.8-0.1-1.2,0.2c-0.2,0.2-0.3,0.3-0.3,0.7l-2.1,6.9
		c-0.2,0.3-0.3,0.4-0.5,0.5c-0.5,0.3-1,0.2-1.2-0.1c-0.2-0.3,0-0.8,0.5-1.1c0.3-0.1,0.5-0.2,0.8-0.1l7.1,2.7c0.2,0,0.5,0,0.7-0.2
		c0.4-0.3,0.6-0.8,0.4-1.1c-0.2-0.3-0.7-0.4-1.2-0.1c-0.2,0.1-0.3,0.2-0.5,0.6l-2.3,7c-0.2,0.3-0.3,0.4-0.5,0.5
		c-0.5,0.3-1,0.2-1.2-0.1c-0.2-0.3,0-0.8,0.5-1.1c0.3-0.1,0.5-0.2,0.8-0.1l7.1,2.7c0.2,0.1,0.5,0,0.8-0.1c0.5-0.2,0.7-0.7,0.5-1.1
		c-0.2-0.3-0.7-0.4-1.2-0.2c-0.3,0.1-0.3,0.2-0.5,0.5L93,43.9c-0.3,0.2-0.4,0.3-0.7,0.3c-0.5,0.1-1-0.2-1-0.5
		c-0.1-0.4,0.3-0.8,0.8-0.8c0.3,0,0.6,0,0.8,0.1l5.8,5c0.2,0.1,0.4,0.2,0.7,0.2c0.5,0,0.9-0.4,0.9-0.8c0-0.4-0.5-0.7-1-0.6
		c-0.3,0-0.4,0-0.7,0.2l-5,5.8c-0.3,0.2-0.4,0.3-0.7,0.3c-0.5,0.1-1-0.1-1.1-0.5c-0.1-0.4,0.3-0.8,0.8-0.9c0.3,0,0.6,0,0.8,0.1
		l5.8,5c0.2,0.1,0.4,0.2,0.7,0.2c0.5,0,0.9-0.4,0.9-0.7c0-0.4-0.5-0.7-1-0.7c-0.3,0-0.4,0-0.7,0.2l-6.4,3.7c-0.4,0.1-0.5,0.1-0.7,0
		c-0.5-0.2-0.8-0.6-0.7-1c0.1-0.4,0.6-0.5,1.1-0.4c0.3,0.1,0.5,0.3,0.6,0.5l3.8,6.7c0.1,0.2,0.4,0.3,0.7,0.4c0.5,0.1,1-0.1,1.1-0.5
		c0.1-0.4-0.3-0.8-0.8-0.9c-0.3-0.1-0.4-0.1-0.7,0l-6.9,3.6c-0.4,0.1-0.5,0.1-0.7,0c-0.5-0.2-0.8-0.6-0.7-1c0.1-0.4,0.6-0.5,1.1-0.4
		c0.3,0.1,0.5,0.3,0.6,0.5l3.8,6.7c0.1,0.2,0.4,0.3,0.7,0.4c0.5,0.1,1-0.1,1.1-0.5s-0.3-0.8-0.8-0.9c-0.3-0.1-0.4-0.1-0.7,0
		l-7.2,1.1c-0.4-0.1-0.5-0.1-0.7-0.3c-0.4-0.3-0.6-0.8-0.3-1.1c0.2-0.3,0.8-0.3,1.2,0c0.2,0.2,0.4,0.4,0.4,0.6l0.9,7.5
		c0.1,0.2,0.2,0.4,0.5,0.6c0.4,0.3,1,0.3,1.2-0.1c0.2-0.3,0-0.8-0.4-1.1c-0.2-0.2-0.3-0.2-0.7-0.2l-7.5,0.9
		c-0.4-0.1-0.5-0.1-0.7-0.3c-0.4-0.3-0.5-0.9-0.3-1.1s0.8-0.3,1.2,0.1c0.2,0.2,0.4,0.4,0.4,0.7l1,7.8c0.1,0.2,0.2,0.4,0.5,0.6
		c0.4,0.3,1,0.3,1.2-0.1s0-0.8-0.4-1.1c-0.2-0.2-0.3-0.2-0.7-0.2l-7.1-1.6c-0.3-0.2-0.4-0.3-0.5-0.5c-0.3-0.5-0.2-1,0.2-1.2
		c0.3-0.2,0.8,0,1.1,0.5c0.1,0.3,0.2,0.5,0.1,0.8l-1.9,7.4c0,0.2,0.1,0.5,0.2,0.7c0.3,0.4,0.8,0.6,1.1,0.3c0.3-0.2,0.3-0.8,0-1.2
		c-0.2-0.2-0.3-0.3-0.6-0.5l-7.4-1.9c-0.3-0.2-0.4-0.3-0.5-0.5c-0.3-0.5-0.2-1,0.2-1.2s0.8,0,1.1,0.5c0.1,0.3,0.2,0.5,0.1,0.8
		l-1.9,7.4c0,0.2,0,0.5,0.1,0.8c0.3,0.5,0.7,0.7,1.1,0.5c0.3-0.2,0.4-0.7,0.2-1.2c-0.1-0.2-0.2-0.3-0.5-0.5l-6-4
		c-0.2-0.3-0.3-0.4-0.3-0.7c-0.1-0.5,0.1-1,0.5-1.1s0.8,0.3,0.9,0.8c0.1,0.3,0,0.6-0.1,0.8l-4.4,6.3c-0.1,0.2-0.1,0.5-0.1,0.8
		c0.1,0.5,0.5,0.8,0.9,0.7s0.6-0.6,0.4-1.1c-0.1-0.3-0.1-0.4-0.4-0.6l-6.2-4.4c-0.2-0.3-0.3-0.4-0.3-0.7c-0.1-0.5,0.1-1,0.5-1.1
		c0.4-0.1,0.8,0.3,0.9,0.8c0.1,0.3,0,0.6-0.1,0.8l-4.4,6.2c-0.1,0.2-0.2,0.5-0.1,0.8c0.1,0.5,0.5,0.9,0.8,0.8c0.4-0.1,0.6-0.5,0.6-1
		c0-0.3-0.1-0.4-0.3-0.7l-4.1-5.9c-0.2-0.3-0.2-0.5-0.1-0.7c0-0.5,0.4-0.9,0.8-0.9c0.4,0,0.7,0.5,0.6,1c0,0.3-0.1,0.5-0.3,0.7
		L42,98.5c-0.2,0.2-0.3,0.4-0.3,0.7c-0.1,0.5,0.2,1,0.6,1s0.8-0.3,0.8-0.8c0-0.3,0-0.4-0.1-0.7l-4.2-6.5c-0.1-0.4-0.1-0.5,0-0.7
		c0.1-0.5,0.5-0.8,0.9-0.7c0.4,0.1,0.6,0.6,0.4,1.1c-0.1,0.3-0.2,0.5-0.4,0.6l-6.3,4.3c-0.2,0.1-0.3,0.4-0.4,0.6
		c-0.1,0.5,0.1,1,0.4,1.1s0.8-0.2,0.9-0.7c0.1-0.3,0.1-0.4,0-0.7l-1.8-7c0-0.4,0-0.5,0.2-0.7c0.3-0.5,0.7-0.7,1.1-0.5
		c0.3,0.2,0.4,0.7,0.2,1.2c-0.1,0.3-0.3,0.4-0.6,0.5L25.8,92c-0.2,0.1-0.4,0.3-0.5,0.6c-0.2,0.5-0.1,1,0.3,1.1s0.8-0.1,1-0.6
		c0.1-0.3,0.1-0.4,0.1-0.7L25,85.1c0-0.4,0-0.5,0.2-0.7c0.2-0.5,0.7-0.7,1.1-0.5s0.4,0.7,0.2,1.2c-0.1,0.3-0.3,0.4-0.6,0.5l-7.4,1.6
		c-0.2,0-0.5,0.2-0.6,0.4c-0.3,0.4-0.3,0.9,0,1.2c0.3,0.2,0.8,0.1,1.1-0.3c0.2-0.2,0.2-0.3,0.3-0.7l0.9-7.3c0.1-0.3,0.2-0.4,0.4-0.6
		c0.4-0.3,0.9-0.3,1.2,0s0.1,0.8-0.3,1.1c-0.2,0.2-0.5,0.3-0.7,0.3l-7.6-1.3c-0.2,0-0.5,0.1-0.7,0.3c-0.4,0.3-0.5,0.8-0.3,1.1
		c0.2,0.3,0.8,0.3,1.2,0c0.2-0.2,0.3-0.3,0.4-0.6l1.2-7.4c0.1-0.3,0.2-0.4,0.4-0.6c0.4-0.3,0.9-0.3,1.2,0c0.2,0.3,0.1,0.8-0.3,1.1
		C16,73.9,15.8,74,15.5,74l-7.6-1.2c-0.2,0-0.5,0-0.7,0.2c-0.4,0.3-0.6,0.8-0.4,1.1s0.7,0.4,1.2,0.1c0.2-0.1,0.3-0.2,0.5-0.6
		l3.4-6.4c0.3-0.3,0.4-0.3,0.6-0.4c0.5-0.1,1,0,1.1,0.4c0.1,0.4-0.2,0.8-0.7,0.9c-0.3,0.1-0.6,0.1-0.8,0l-6.7-3.9
		c-0.2-0.1-0.5-0.1-0.8,0c-0.5,0.2-0.8,0.6-0.7,1c0.1,0.4,0.6,0.5,1.1,0.4c0.3-0.1,0.4-0.1,0.6-0.4l3.8-6.5c0.2-0.3,0.3-0.3,0.6-0.4
		c0.5-0.2,1,0,1.1,0.3c0.1,0.4-0.2,0.8-0.7,1c-0.3,0.1-0.6,0.1-0.8,0l-6.6-3.8c-0.2-0.1-0.5-0.2-0.8-0.1c-0.5,0.1-0.9,0.5-0.8,0.9
		c0.1,0.4,0.5,0.6,1.1,0.5c0.3-0.1,0.4-0.1,0.7-0.3L9,51.9c0.3-0.1,0.5-0.2,0.7-0.1c0.5,0.1,0.9,0.4,0.9,0.8c0,0.4-0.5,0.7-1,0.6
		c-0.3,0-0.5-0.2-0.7-0.3l-4.8-5.9c-0.2-0.2-0.4-0.3-0.7-0.3c-0.5-0.1-1,0.2-1,0.6c0,0.4,0.3,0.7,0.9,0.8c0.3,0,0.4,0,0.7-0.1
		l5.9-4.8c0.3-0.2,0.4-0.2,0.7-0.2c0.5,0,0.9,0.3,1,0.7c0,0.4-0.4,0.7-0.9,0.7c-0.3,0-0.6-0.1-0.7-0.2l-4.7-6
		c-0.1-0.2-0.4-0.3-0.7-0.4c-0.5-0.1-1,0.1-1.1,0.5c-0.1,0.4,0.3,0.8,0.8,0.9C4.5,39.1,4.7,39.1,5,39l6.9-2.5c0.4,0,0.5,0,0.7,0.1
		c0.5,0.2,0.7,0.7,0.6,1s-0.7,0.5-1.2,0.2c-0.3-0.1-0.5-0.3-0.6-0.5l-2.4-7.2c-0.1-0.2-0.3-0.4-0.5-0.6c-0.5-0.2-1-0.2-1.2,0.2
		c-0.2,0.3,0.1,0.8,0.5,1.1C8.2,30.9,8.3,31,8.6,31l7.2-2.4c0.4-0.1,0.5,0,0.7,0.1c0.5,0.2,0.8,0.6,0.6,1c-0.1,0.4-0.6,0.5-1.1,0.3
		c-0.3-0.1-0.5-0.3-0.6-0.5l-2.3-7.2c-0.1-0.2-0.2-0.5-0.5-0.6c-0.4-0.3-1-0.3-1.2,0c-0.2,0.3-0.1,0.8,0.4,1.1
		c0.2,0.2,0.3,0.2,0.7,0.2l7.3,0.1c0.4,0.1,0.5,0.2,0.6,0.4c0.4,0.4,0.4,0.9,0.2,1.2C20.5,25,20,25,19.6,24.6
		c-0.2-0.2-0.3-0.5-0.3-0.7l0.5-7.6c0-0.2-0.1-0.5-0.3-0.7c-0.4-0.4-0.9-0.5-1.2-0.2c-0.3,0.3-0.2,0.8,0.1,1.2
		c0.2,0.2,0.3,0.3,0.6,0.4l7.6,0.5c0.4,0.1,0.5,0.2,0.6,0.4c0.4,0.4,0.4,0.9,0.2,1.2c-0.3,0.3-0.8,0.2-1.2-0.2
		c-0.2-0.2-0.3-0.5-0.3-0.7l0.5-7.5c0-0.2,0-0.5-0.2-0.7c-0.3-0.4-0.8-0.6-1.1-0.4c-0.3,0.2-0.3,0.8,0,1.2c0.2,0.2,0.2,0.3,0.6,0.5
		l6.7,2.7c0.3,0.2,0.4,0.3,0.5,0.6c0.2,0.5,0.1,1-0.2,1.2c-0.3,0.2-0.8-0.1-1-0.5c-0.1-0.3-0.2-0.5-0.1-0.8l2.8-6l0.4-0.9
		c0.1-0.2,0-0.5-0.1-0.8C34.4,6,34,5.8,33.6,6c-0.3,0.2-0.4,0.7-0.2,1.2c0.1,0.3,0.2,0.4,0.5,0.6l6.9,3.1c0.3,0.2,0.4,0.3,0.5,0.6
		c0.2,0.5,0.1,1-0.3,1.1c-0.4,0.2-0.8-0.1-1-0.6c-0.1-0.3-0.1-0.5-0.1-0.8L43,4.2z"/>
	<circle cx="67.1" cy="11.1" r="0.5"/>
	<circle cx="74.5" cy="14.8" r="0.5"/>
	<circle cx="59.4" cy="9" r="0.5"/>
	<circle cx="51.4" cy="8.3" r="0.5"/>
	<circle cx="55.9" cy="5.2" r="0.5"/>
	<circle cx="46.9" cy="5.2" r="0.5"/>
	<circle cx="64.2" cy="6.8" r="0.5"/>
	<circle cx="72.3" cy="9.9" r="0.5"/>
	<circle cx="79.7" cy="14.4" r="0.5"/>
	<circle cx="85.8" cy="19.9" r="0.5"/>
	<circle cx="91.4" cy="27.2" r="0.5"/>
	<circle cx="95.1" cy="34.7" r="0.5"/>
	<circle cx="97.5" cy="43.1" r="0.5"/>
	<circle cx="98.4" cy="52.2" r="0.5"/>
	<circle cx="97.5" cy="60.6" r="0.5"/>
	<circle cx="95.2" cy="69" r="0.5"/>
	<circle cx="91.1" cy="76.9" r="0.5"/>
	<circle cx="86" cy="83.7" r="0.5"/>
	<circle cx="79.3" cy="89.6" r="0.5"/>
	<circle cx="71.9" cy="94" r="0.5"/>
	<circle cx="64.1" cy="97" r="0.5"/>
	<circle cx="55.5" cy="98.5" r="0.5"/>
	<circle cx="47" cy="98.5" r="0.5"/>
	<circle cx="38.5" cy="96.8" r="0.5"/>
	<circle cx="30.6" cy="93.8" r="0.5"/>
	<circle cx="23.3" cy="89.1" r="0.5"/>
	<circle cx="16.8" cy="83.3" r="0.5"/>
	<circle cx="11.7" cy="76.5" r="0.5"/>
	<circle cx="7.8" cy="68.7" r="0.5"/>
	<circle cx="5.5" cy="60.3" r="0.5"/>
	<circle cx="4.7" cy="51.7" r="0.5"/>
	<circle cx="5.5" cy="43.1" r="0.5"/>
	<circle cx="7.9" cy="34.9" r="0.5"/>
	<circle cx="11.7" cy="27.1" r="0.5"/>
	<circle cx="16.9" cy="20.3" r="0.5"/>
	<circle cx="23.4" cy="14.4" r="0.5"/>
	<circle cx="30.8" cy="9.8" r="0.5"/>
	<circle cx="38.8" cy="6.8" r="0.5"/>
	<circle cx="43.3" cy="9" r="0.5"/>
	<circle cx="35.8" cy="11.2" r="0.5"/>
	<circle cx="28.6" cy="14.7" r="0.5"/>
	<circle cx="22.1" cy="19.7" r="0.5"/>
	<circle cx="16.6" cy="25.6" r="0.5"/>
	<circle cx="12.5" cy="32.3" r="0.5"/>
	<circle cx="9.6" cy="39.7" r="0.5"/>
	<circle cx="7.9" cy="47.7" r="0.5"/>
	<circle cx="7.9" cy="55.5" r="0.5"/>
	<circle cx="9.4" cy="63.8" r="0.5"/>
	<circle cx="12.2" cy="71.3" r="0.5"/>
	<circle cx="16.4" cy="78.2" r="0.5"/>
	<circle cx="21.9" cy="84.2" r="0.5"/>
	<circle cx="28.1" cy="89" r="0.5"/>
	<circle cx="35.3" cy="92.9" r="0.5"/>
	<circle cx="43.2" cy="95.1" r="0.5"/>
	<circle cx="51.5" cy="95.9" r="0.5"/>
	<circle cx="59.5" cy="95.1" r="0.5"/>
	<circle cx="67.3" cy="93" r="0.5"/>
	<circle cx="74.6" cy="89.2" r="0.5"/>
	<circle cx="80.9" cy="84.5" r="0.5"/>
	<circle cx="86.3" cy="78.7" r="0.5"/>
	<circle cx="90.6" cy="71.9" r="0.5"/>
	<circle cx="93.7" cy="64.1" r="0.5"/>
	<circle cx="95.2" cy="56.1" r="0.5"/>
	<circle cx="95.2" cy="48" r="0.5"/>
	<circle cx="93.7" cy="39.7" r="0.5"/>
	<circle cx="90.7" cy="32.3" r="0.5"/>
	<circle cx="86.4" cy="25.4" r="0.5"/>
	<circle cx="80.9" cy="19.5" r="0.5"/>
</g>
</svg>
