<?xml version="1.0" encoding="utf-8"?>
<!-- Generator: Adobe Illustrator 26.2.1, SVG Export Plug-In . SVG Version: 6.00 Build 0)  -->
<svg version="1.1" xmlns="http://www.w3.org/2000/svg" xmlns:xlink="http://www.w3.org/1999/xlink" x="0px" y="0px"
	 viewBox="0 0 103 104" style="enable-background:new 0 0 103 104;" xml:space="preserve">
<style type="text/css">
	.st0{display:none;}
	.st1{display:inline;fill:#444D66;}
	.st2{display:inline;}
	.st3{fill:none;stroke:#000000;stroke-width:0.2;stroke-miterlimit:10;}
	.st4{fill:none;stroke:#000000;stroke-width:8.000000e-02;stroke-miterlimit:10;}
	.st5{fill:none;stroke:#000000;stroke-width:0.25;stroke-miterlimit:10;}
	.st6{fill:none;stroke:#000000;stroke-width:3.000000e-02;stroke-miterlimit:10;}
	.st7{fill:none;stroke:#000000;stroke-miterlimit:10;}
	.st8{stroke:#000000;stroke-width:8.000000e-02;stroke-miterlimit:10;}
</style>
<g id="Capa_1" class="st0">
	<g class="st2">
		<g>
			<g>
				<g>
					<path d="M48.3,9.9c-2.1-1.1-4.6-1.8-7.2-1.8l0-0.4c2.6,0.1,5.2,0.7,7.4,1.9L48.3,9.9z"/>
				</g>
				<g>
					<path d="M43.6,11.8l-0.3-0.1c0.8-2.3,2.2-4.6,4-6.5l0.3,0.2C45.8,7.4,44.4,9.6,43.6,11.8z"/>
				</g>
				<g>
					<path d="M44.6,5.8c0.1,0.2-0.1,0.5-0.4,0.6c-0.3,0.1-0.6,0.1-0.7-0.1c-0.1-0.2,0.1-0.5,0.4-0.6C44.2,5.5,44.5,5.6,44.6,5.8z"/>
				</g>
				<g>
					<path d="M45.6,11.1c-0.1-0.2,0-0.5,0.3-0.5c0.2-0.1,0.5,0,0.6,0.2c0.1,0.2-0.1,0.4-0.3,0.5C46,11.4,45.7,11.3,45.6,11.1z"/>
				</g>
				<g>
					<path d="M41.6,9.8c0.3-0.2,0.6-0.2,0.7,0c0.1,0.2,0,0.5-0.2,0.6c-0.3,0.2-0.6,0.2-0.7,0C41.2,10.3,41.3,10,41.6,9.8z"/>
				</g>
				<g>
					<path d="M48.5,7.9c-0.3,0.1-0.5-0.1-0.6-0.3c0-0.2,0.1-0.4,0.4-0.5C48.7,7,48.9,7.2,49,7.4C49,7.6,48.8,7.8,48.5,7.9z"/>
				</g>
			</g>
			<g>
				<g>
					<path d="M54.3,9.7c-1.5-1.8-3.5-3.3-5.8-4.4L48.7,5c2.3,1.1,4.4,2.6,6,4.4L54.3,9.7z"/>
				</g>
				<g>
					<path d="M49.5,9.7l-0.3-0.2c1.5-1.8,3.6-3.4,5.9-4.5l0.2,0.3C52.9,6.4,51,7.9,49.5,9.7z"/>
				</g>
				<g>
					<path d="M52.5,4.4c0,0.2-0.3,0.4-0.6,0.4c-0.3,0-0.6-0.2-0.6-0.4c0-0.2,0.3-0.4,0.6-0.4C52.2,4,52.5,4.2,52.5,4.4z"/>
				</g>
				<g>
					<path d="M51.5,9.8c0-0.2,0.2-0.4,0.4-0.4c0.3,0,0.5,0.2,0.4,0.4c0,0.2-0.2,0.4-0.4,0.4C51.7,10.2,51.5,10,51.5,9.8z"/>
				</g>
				<g>
					<path d="M48.3,7.1c0.3-0.1,0.6,0.1,0.6,0.3c0,0.2-0.2,0.4-0.4,0.5c-0.3,0.1-0.5-0.1-0.6-0.3C47.9,7.4,48.1,7.1,48.3,7.1z"/>
				</g>
				<g>
					<path d="M55.3,7.8c-0.3,0-0.5-0.3-0.4-0.5c0-0.2,0.3-0.4,0.6-0.3c0.3,0.1,0.5,0.3,0.4,0.5C55.8,7.7,55.6,7.9,55.3,7.8z"/>
				</g>
			</g>
			<g>
				<g>
					<path d="M60.1,11.6c-0.8-2.2-2.1-4.3-3.9-6.2l0.3-0.2c1.8,1.9,3.1,4,3.9,6.3L60.1,11.6z"/>
				</g>
				<g>
					<path d="M55.5,9.9l-0.2-0.3c2.1-1.2,4.6-1.9,7.1-2.1l0,0.3C60,8,57.5,8.7,55.5,9.9z"/>
				</g>
				<g>
					<path d="M60.2,6c-0.1,0.2-0.4,0.3-0.7,0.2c-0.3-0.1-0.5-0.4-0.4-0.6c0.1-0.2,0.4-0.3,0.7-0.2C60.1,5.6,60.3,5.8,60.2,6z"/>
				</g>
				<g>
					<path d="M57.3,10.7c0.1-0.2,0.3-0.3,0.6-0.2c0.2,0.1,0.4,0.3,0.3,0.5c-0.1,0.2-0.3,0.3-0.6,0.2C57.4,11.1,57.3,10.9,57.3,10.7z
						"/>
				</g>
				<g>
					<path d="M55.4,7c0.3,0.1,0.5,0.3,0.4,0.5c0,0.2-0.3,0.3-0.6,0.3c-0.3,0-0.5-0.3-0.4-0.5C54.9,7.1,55.1,7,55.4,7z"/>
				</g>
				<g>
					<path d="M61.6,10.2c-0.2-0.1-0.4-0.4-0.2-0.6c0.1-0.2,0.4-0.2,0.7-0.1c0.3,0.2,0.4,0.4,0.2,0.6C62.1,10.3,61.9,10.4,61.6,10.2z
						"/>
				</g>
			</g>
			<g>
				<g>
					<path d="M64.8,15.6c0-2.4-0.5-4.9-1.5-7.3l0.3-0.1c1,2.4,1.5,5,1.5,7.4L64.8,15.6z"/>
				</g>
				<g>
					<path d="M61.1,12.2l0-0.3c2.4-0.3,5-0.1,7.5,0.8L68.5,13C66,12.1,63.5,11.9,61.1,12.2z"/>
				</g>
				<g>
					<path d="M66.9,10.4c-0.2,0.2-0.5,0.1-0.7-0.1c-0.2-0.2-0.3-0.5-0.2-0.7c0.1-0.2,0.5-0.1,0.7,0.1C67,9.9,67,10.2,66.9,10.4z"/>
				</g>
				<g>
					<path d="M62.5,13.7c0.1-0.2,0.4-0.2,0.6,0c0.2,0.2,0.2,0.5,0.1,0.6c-0.2,0.2-0.4,0.1-0.6,0C62.4,14.1,62.4,13.8,62.5,13.7z"/>
				</g>
				<g>
					<path d="M62,9.5c0.3,0.2,0.4,0.4,0.2,0.6c-0.1,0.2-0.4,0.2-0.7,0.1c-0.2-0.1-0.4-0.4-0.2-0.6C61.5,9.4,61.8,9.4,62,9.5z"/>
				</g>
				<g>
					<path d="M66.8,14.9c-0.2-0.2-0.2-0.5,0-0.7c0.2-0.1,0.5-0.1,0.7,0.2c0.2,0.3,0.2,0.6,0,0.7C67.2,15.3,67,15.2,66.8,14.9z"/>
				</g>
			</g>
		</g>
		<g>
			<g>
				<g>
					<path d="M60.6,42.1c-1.7-0.3-3.2-0.8-4.7-1.6l0.2-0.3c2.1,1.1,4.6,1.8,7.2,1.8l0,0.4C62.3,42.4,61.5,42.3,60.6,42.1z"/>
				</g>
				<g>
					<path d="M57.1,44.9l-0.3-0.2c1.8-1.9,3.1-4.1,3.9-6.3l0.3,0.1C60.3,40.8,58.9,43,57.1,44.9z"/>
				</g>
				<g>
					<path d="M59.8,44.4c-0.1-0.2,0.1-0.5,0.4-0.6c0.3-0.1,0.6-0.1,0.7,0.1c0.1,0.2-0.1,0.5-0.4,0.6C60.2,44.6,59.9,44.6,59.8,44.4z
						"/>
				</g>
				<g>
					<path d="M58.7,39c0.1,0.2,0,0.5-0.3,0.5c-0.2,0.1-0.5,0-0.6-0.2c-0.1-0.2,0.1-0.4,0.3-0.5C58.4,38.7,58.7,38.8,58.7,39z"/>
				</g>
				<g>
					<path d="M62.8,40.3c-0.3,0.2-0.6,0.2-0.7,0c-0.1-0.2,0-0.5,0.2-0.6c0.3-0.2,0.6-0.2,0.7,0C63.1,39.8,63,40.1,62.8,40.3z"/>
				</g>
				<g>
					<path d="M55.8,42.3c0.3-0.1,0.5,0.1,0.6,0.3c0,0.2-0.1,0.4-0.4,0.5c-0.3,0.1-0.6-0.1-0.6-0.3C55.4,42.6,55.6,42.3,55.8,42.3z"
						/>
				</g>
			</g>
			<g>
				<g>
					<path d="M55.7,45.2c-2.3-1.1-4.4-2.6-6-4.4l0.3-0.2c1.5,1.8,3.5,3.3,5.8,4.4L55.7,45.2z"/>
				</g>
				<g>
					<path d="M49.3,45.2l-0.2-0.3c2.3-1.1,4.3-2.6,5.8-4.5l0.3,0.2C53.7,42.5,51.6,44.1,49.3,45.2z"/>
				</g>
				<g>
					<path d="M51.9,45.7c0-0.2,0.3-0.4,0.6-0.4c0.3,0,0.6,0.2,0.6,0.4c0,0.2-0.3,0.4-0.6,0.4C52.2,46.1,51.9,45.9,51.9,45.7z"/>
				</g>
				<g>
					<path d="M52.9,40.4c0,0.2-0.2,0.4-0.4,0.4c-0.3,0-0.5-0.2-0.4-0.4c0-0.2,0.2-0.4,0.4-0.4C52.7,40,52.9,40.1,52.9,40.4z"/>
				</g>
				<g>
					<path d="M56,43.1c-0.3,0.1-0.6-0.1-0.6-0.3c0-0.2,0.2-0.4,0.4-0.5c0.3-0.1,0.5,0.1,0.6,0.3C56.5,42.8,56.3,43,56,43.1z"/>
				</g>
				<g>
					<path d="M49.1,42.3c0.3,0,0.5,0.3,0.4,0.5c0,0.2-0.3,0.4-0.6,0.3c-0.3-0.1-0.5-0.3-0.4-0.5C48.5,42.4,48.8,42.3,49.1,42.3z"/>
				</g>
			</g>
			<g>
				<g>
					<path d="M47.9,45c-1.8-1.9-3.1-4-3.9-6.3l0.3-0.1c0.8,2.2,2.1,4.3,3.9,6.2L47.9,45z"/>
				</g>
				<g>
					<path d="M41.9,42.7l0-0.3c2.5-0.2,4.9-0.9,7-2.1l0.2,0.3C47,41.8,44.5,42.5,41.9,42.7z"/>
				</g>
				<g>
					<path d="M44.2,44.1c0.1-0.2,0.4-0.3,0.7-0.2c0.3,0.1,0.5,0.4,0.4,0.6c-0.1,0.2-0.4,0.3-0.7,0.2C44.3,44.6,44.1,44.3,44.2,44.1z
						"/>
				</g>
				<g>
					<path d="M47,39.5c-0.1,0.2-0.3,0.3-0.6,0.2c-0.2-0.1-0.4-0.3-0.3-0.5c0.1-0.2,0.3-0.3,0.6-0.2C47,39,47.1,39.3,47,39.5z"/>
				</g>
				<g>
					<path d="M49,43.1c-0.3-0.1-0.5-0.3-0.4-0.5c0-0.2,0.3-0.3,0.6-0.3c0.3,0,0.5,0.3,0.4,0.5C49.5,43,49.3,43.2,49,43.1z"/>
				</g>
				<g>
					<path d="M42.8,39.9c0.2,0.1,0.4,0.4,0.2,0.6c-0.1,0.2-0.4,0.2-0.7,0.1c-0.3-0.2-0.4-0.4-0.2-0.6C42.2,39.8,42.5,39.8,42.8,39.9
						z"/>
				</g>
			</g>
			<g>
				<g>
					<path d="M40.7,42c-1-2.4-1.5-5-1.5-7.4l0.4,0c0,2.4,0.5,4.9,1.5,7.3L40.7,42z"/>
				</g>
				<g>
					<path d="M38.4,38.2c-0.9-0.2-1.7-0.4-2.6-0.7l0.1-0.3c2.4,0.8,5,1.1,7.4,0.8l0,0.3C41.7,38.5,40.1,38.5,38.4,38.2z"/>
				</g>
				<g>
					<path d="M37.5,39.7c0.2-0.2,0.5-0.1,0.7,0.1c0.2,0.2,0.3,0.5,0.2,0.7c-0.1,0.2-0.5,0.1-0.7-0.1C37.4,40.2,37.3,39.9,37.5,39.7z
						"/>
				</g>
				<g>
					<path d="M41.8,36.5c-0.1,0.2-0.4,0.2-0.6,0C41,36.3,41,36,41.2,35.9c0.2-0.2,0.4-0.1,0.6,0C42,36.1,42,36.3,41.8,36.5z"/>
				</g>
				<g>
					<path d="M42.4,40.6c-0.3-0.2-0.4-0.4-0.2-0.6c0.1-0.2,0.4-0.2,0.7-0.1c0.2,0.1,0.4,0.4,0.2,0.6C42.9,40.8,42.6,40.8,42.4,40.6z
						"/>
				</g>
				<g>
					<path d="M37.6,35.2c0.2,0.2,0.2,0.5,0,0.7C37.4,36,37.1,36,37,35.7c-0.2-0.3-0.2-0.6,0-0.7C37.1,34.9,37.4,35,37.6,35.2z"/>
				</g>
			</g>
		</g>
		<g>
			<g>
				<g>
					<path d="M67.6,21.3l-0.3-0.2c1.1-2.1,1.8-4.6,1.8-7.2l0.4,0C69.4,16.6,68.8,19.1,67.6,21.3z"/>
				</g>
				<g>
					<path d="M71.8,20.4c-1.9-1.8-4.1-3.1-6.3-3.9l0.1-0.3c2.3,0.8,4.6,2.2,6.5,4L71.8,20.4z"/>
				</g>
				<g>
					<path d="M71.5,17.4c-0.2,0.1-0.5-0.1-0.6-0.4c-0.1-0.3-0.1-0.6,0.1-0.7c0.2-0.1,0.5,0.1,0.6,0.4C71.7,17,71.7,17.4,71.5,17.4z"
						/>
				</g>
				<g>
					<path d="M66.1,18.5c0.2-0.1,0.5,0,0.5,0.3c0.1,0.2,0,0.5-0.2,0.6c-0.2,0.1-0.4-0.1-0.5-0.3C65.8,18.8,65.9,18.6,66.1,18.5z"/>
				</g>
				<g>
					<path d="M67.4,14.5c0.2,0.3,0.2,0.6,0,0.7c-0.2,0.1-0.5,0-0.6-0.2c-0.2-0.3-0.2-0.6,0-0.7C66.9,14.1,67.2,14.2,67.4,14.5z"/>
				</g>
				<g>
					<path d="M69.4,21.4c-0.1-0.3,0.1-0.5,0.3-0.6c0.2,0,0.4,0.1,0.5,0.4c0.1,0.3-0.1,0.6-0.3,0.6C69.7,21.9,69.4,21.7,69.4,21.4z"
						/>
				</g>
			</g>
			<g>
				<g>
					<path d="M67.8,27.5l-0.2-0.3c1.8-1.5,3.3-3.5,4.4-5.8l0.3,0.1C71.2,23.8,69.7,25.9,67.8,27.5z"/>
				</g>
				<g>
					<path d="M72,28.1c-1.1-2.3-2.6-4.3-4.5-5.8l0.2-0.3c1.8,1.5,3.4,3.6,4.5,5.9L72,28.1z"/>
				</g>
				<g>
					<path d="M72.8,25.3c-0.2,0-0.4-0.3-0.4-0.6c0-0.3,0.2-0.6,0.4-0.6c0.2,0,0.4,0.3,0.4,0.6C73.2,25,73,25.3,72.8,25.3z"/>
				</g>
				<g>
					<path d="M67.5,24.3c0.2,0,0.4,0.2,0.4,0.4c0,0.3-0.2,0.5-0.4,0.4c-0.2,0-0.4-0.2-0.4-0.4C67.1,24.6,67.2,24.4,67.5,24.3z"/>
				</g>
				<g>
					<path d="M70.2,21.2c0.1,0.3-0.1,0.6-0.3,0.6c-0.2,0-0.4-0.2-0.5-0.4c-0.1-0.3,0.1-0.5,0.3-0.6C69.9,20.7,70.1,20.9,70.2,21.2z"
						/>
				</g>
				<g>
					<path d="M69.4,28.1c0-0.3,0.3-0.5,0.5-0.4c0.2,0,0.4,0.3,0.3,0.6c-0.1,0.3-0.3,0.5-0.5,0.4C69.5,28.7,69.4,28.4,69.4,28.1z"/>
				</g>
			</g>
			<g>
				<g>
					<path d="M65.8,33.2l-0.1-0.3c2.2-0.8,4.3-2.1,6.2-3.9l0.2,0.3C70.2,31.1,68,32.4,65.8,33.2z"/>
				</g>
				<g>
					<path d="M69.5,35.3c-0.2-2.5-0.9-4.9-2.1-7l0.3-0.2c1.2,2.1,1.9,4.6,2.1,7.1L69.5,35.3z"/>
				</g>
				<g>
					<path d="M71.2,33c-0.2-0.1-0.3-0.4-0.2-0.7c0.1-0.3,0.4-0.5,0.6-0.4c0.2,0.1,0.3,0.4,0.2,0.7C71.7,32.9,71.4,33.1,71.2,33z"/>
				</g>
				<g>
					<path d="M66.6,30.2c0.2,0.1,0.3,0.3,0.2,0.6c-0.1,0.2-0.3,0.4-0.5,0.3c-0.2-0.1-0.3-0.3-0.2-0.6C66.1,30.2,66.4,30.1,66.6,30.2
						z"/>
				</g>
				<g>
					<path d="M70.2,28.3c-0.1,0.3-0.3,0.5-0.5,0.4c-0.2,0-0.3-0.3-0.3-0.6c0-0.3,0.3-0.5,0.5-0.4C70.1,27.7,70.3,28,70.2,28.3z"/>
				</g>
				<g>
					<path d="M67,34.5c0.1-0.2,0.4-0.4,0.6-0.2c0.2,0.1,0.2,0.4,0.1,0.7c-0.2,0.3-0.4,0.4-0.6,0.2C66.9,35,66.9,34.7,67,34.5z"/>
				</g>
			</g>
			<g>
				<g>
					<path d="M61.6,38l0-0.4c2.4,0,4.9-0.5,7.3-1.5l0.1,0.3C66.7,37.5,64.1,38.1,61.6,38z"/>
				</g>
				<g>
					<path d="M64.6,41.4l-0.3-0.1c0.8-2.4,1.1-5,0.8-7.4l0.3,0C65.7,36.3,65.5,38.9,64.6,41.4z"/>
				</g>
				<g>
					<path d="M66.8,39.7c-0.2-0.2-0.1-0.5,0.1-0.7c0.2-0.2,0.5-0.3,0.7-0.2c0.2,0.1,0.1,0.5-0.1,0.7C67.3,39.8,67,39.9,66.8,39.7z"
						/>
				</g>
				<g>
					<path d="M63.6,35.4c0.2,0.1,0.2,0.4,0,0.6c-0.2,0.2-0.5,0.2-0.6,0.1c-0.2-0.2-0.1-0.4,0-0.6C63.2,35.3,63.4,35.2,63.6,35.4z"/>
				</g>
				<g>
					<path d="M67.7,34.9c-0.2,0.3-0.4,0.4-0.6,0.2c-0.2-0.1-0.2-0.4-0.1-0.7c0.1-0.2,0.4-0.4,0.6-0.2C67.8,34.3,67.9,34.6,67.7,34.9
						z"/>
				</g>
				<g>
					<path d="M62.3,39.6c0.2-0.2,0.5-0.2,0.7,0c0.1,0.2,0.1,0.5-0.2,0.7c-0.3,0.2-0.6,0.2-0.7,0C62,40.1,62.1,39.8,62.3,39.6z"/>
				</g>
			</g>
		</g>
		<g>
			<g>
				<g>
					<path d="M34.9,36.2c0.1-2.6,0.7-5.2,1.9-7.4L37,29c-1.1,2.1-1.8,4.6-1.8,7.2L34.9,36.2z"/>
				</g>
				<g>
					<path d="M38.8,34c-2.3-0.8-4.6-2.2-6.5-4l0.2-0.3c1.9,1.8,4.1,3.1,6.3,3.9L38.8,34z"/>
				</g>
				<g>
					<path d="M32.9,32.7c0.2-0.1,0.5,0.1,0.6,0.4c0.1,0.3,0.1,0.6-0.1,0.7c-0.2,0.1-0.5-0.1-0.6-0.4C32.6,33.1,32.7,32.8,32.9,32.7z
						"/>
				</g>
				<g>
					<path d="M38.2,31.6c-0.2,0.1-0.5,0-0.5-0.3c-0.1-0.2,0-0.5,0.2-0.6c0.2-0.1,0.4,0.1,0.5,0.3C38.5,31.3,38.4,31.6,38.2,31.6z"/>
				</g>
				<g>
					<path d="M37,35.7c-0.2-0.3-0.2-0.6,0-0.7c0.2-0.1,0.5,0,0.6,0.2c0.2,0.3,0.2,0.6,0,0.7C37.4,36,37.1,35.9,37,35.7z"/>
				</g>
				<g>
					<path d="M35,28.7c0.1,0.3-0.1,0.5-0.3,0.6c-0.2,0-0.4-0.1-0.5-0.4c-0.1-0.3,0.1-0.6,0.3-0.6C34.7,28.3,34.9,28.5,35,28.7z"/>
				</g>
			</g>
			<g>
				<g>
					<path d="M32.4,28.8l-0.3-0.1c1.1-2.3,2.6-4.4,4.4-6l0.2,0.3C35,24.5,33.5,26.5,32.4,28.8z"/>
				</g>
				<g>
					<path d="M36.6,28.1c-1.8-1.5-3.4-3.6-4.5-5.9l0.3-0.2c1.1,2.3,2.6,4.3,4.5,5.8L36.6,28.1z"/>
				</g>
				<g>
					<path d="M31.6,24.8c0.2,0,0.4,0.3,0.4,0.6c0,0.3-0.2,0.6-0.4,0.6c-0.2,0-0.4-0.3-0.4-0.6C31.2,25.1,31.3,24.8,31.6,24.8z"/>
				</g>
				<g>
					<path d="M36.9,25.8c-0.2,0-0.4-0.2-0.4-0.4c0-0.3,0.2-0.5,0.4-0.4c0.2,0,0.4,0.2,0.4,0.4C37.3,25.6,37.1,25.8,36.9,25.8z"/>
				</g>
				<g>
					<path d="M34.2,28.9c-0.1-0.3,0.1-0.6,0.3-0.6c0.2,0,0.4,0.2,0.5,0.4c0.1,0.3-0.1,0.5-0.3,0.6C34.5,29.4,34.3,29.2,34.2,28.9z"
						/>
				</g>
				<g>
					<path d="M34.9,22c0,0.3-0.3,0.5-0.5,0.4c-0.2,0-0.4-0.3-0.3-0.6c0.1-0.3,0.3-0.5,0.5-0.4C34.8,21.5,35,21.7,34.9,22z"/>
				</g>
			</g>
			<g>
				<g>
					<path d="M32.5,21.1l-0.2-0.3c1.9-1.8,4-3.1,6.3-3.9l0.1,0.3C36.5,18,34.3,19.3,32.5,21.1z"/>
				</g>
				<g>
					<path d="M36.7,22c-1.2-2.1-1.9-4.6-2.1-7.1l0.3,0c0.2,2.5,0.9,4.9,2.1,7L36.7,22z"/>
				</g>
				<g>
					<path d="M33.1,17.1c0.2,0.1,0.3,0.4,0.2,0.7c-0.1,0.3-0.4,0.5-0.6,0.4c-0.2-0.1-0.3-0.4-0.2-0.7C32.7,17.2,32.9,17,33.1,17.1z"
						/>
				</g>
				<g>
					<path d="M37.8,19.9c-0.2-0.1-0.3-0.3-0.2-0.6c0.1-0.2,0.3-0.4,0.5-0.3c0.2,0.1,0.3,0.3,0.2,0.6C38.2,19.9,38,20,37.8,19.9z"/>
				</g>
				<g>
					<path d="M34.1,21.9c0.1-0.3,0.3-0.5,0.5-0.4c0.2,0,0.3,0.3,0.3,0.6c0,0.3-0.3,0.5-0.5,0.4C34.2,22.4,34.1,22.2,34.1,21.9z"/>
				</g>
				<g>
					<path d="M37.3,15.7c-0.1,0.2-0.4,0.4-0.6,0.2c-0.2-0.1-0.2-0.4-0.1-0.7c0.2-0.3,0.4-0.4,0.6-0.2C37.4,15.1,37.5,15.4,37.3,15.7
						z"/>
				</g>
			</g>
			<g>
				<g>
					<path d="M35.4,13.9l-0.1-0.3c2.4-1,5-1.5,7.4-1.5l0,0.4C40.3,12.4,37.8,12.9,35.4,13.9z"/>
				</g>
				<g>
					<path d="M39,16.2c-0.3-2.4-0.1-5,0.8-7.5l0.3,0.1c-0.8,2.4-1.1,5-0.8,7.4L39,16.2z"/>
				</g>
				<g>
					<path d="M37.5,10.4c0.2,0.2,0.1,0.5-0.1,0.7c-0.2,0.2-0.5,0.3-0.7,0.2c-0.2-0.1-0.1-0.5,0.1-0.7C37,10.3,37.4,10.2,37.5,10.4z"
						/>
				</g>
				<g>
					<path d="M40.8,14.8c-0.2-0.1-0.2-0.4,0-0.6c0.2-0.2,0.5-0.2,0.6-0.1c0.2,0.2,0.1,0.4,0,0.6C41.2,14.9,40.9,14.9,40.8,14.8z"/>
				</g>
				<g>
					<path d="M36.6,15.3c0.2-0.3,0.4-0.4,0.6-0.2c0.2,0.1,0.2,0.4,0.1,0.7c-0.1,0.2-0.4,0.4-0.6,0.2C36.5,15.8,36.5,15.5,36.6,15.3z
						"/>
				</g>
				<g>
					<path d="M42,10.5c-0.2,0.2-0.5,0.2-0.7,0c-0.1-0.2-0.1-0.5,0.2-0.7c0.3-0.2,0.6-0.2,0.7,0C42.4,10,42.3,10.3,42,10.5z"/>
				</g>
			</g>
		</g>
	</g>
</g>
<g id="Capa_3">
</g>
<g id="Capa_2">
	<g>
		<circle cx="51.9" cy="9.8" r="0.4"/>
		<circle cx="51.9" cy="4.4" r="0.4"/>
		<circle cx="55.4" cy="7.4" r="0.4"/>
		<path class="st3" d="M48.6,5.2c0,0,3.3,1.3,5.9,4.4"/>
		<path class="st3" d="M49.4,9.6c0,0,2.3-3,5.8-4.4"/>
	</g>
	<g>
		<circle cx="44.8" cy="10.3" r="0.4"/>
		<circle cx="43.9" cy="5.1" r="0.4"/>
		<circle cx="47.7" cy="7.4" r="0.4"/>
		<path class="st3" d="M40.7,6.4c0,0,3.5,0.7,6.6,3.3"/>
		<path class="st3" d="M42.2,10.5c0,0,1.7-3.4,5-5.3"/>
	</g>
	<g>
		<circle cx="37.8" cy="12.1" r="0.4"/>
		<circle cx="36" cy="7" r="0.4"/>
		<circle cx="40.2" cy="8.7" r="0.4"/>
		<path class="st3" d="M33.1,8.9c0,0,3.5,0.1,7,2.2"/>
		<path class="st3" d="M35.3,12.7c0,0,1.2-3.6,4-6.1"/>
	</g>
	<g>
		<circle cx="31.2" cy="15" r="0.4"/>
		<circle cx="28.6" cy="10.3" r="0.4"/>
		<circle cx="33" cy="11.3" r="0.4"/>
		<path class="st3" d="M26,12.6c0,0,3.5-0.5,7.3,0.9"/>
		<path class="st3" d="M28.9,16c0,0,0.5-3.8,2.9-6.6"/>
	</g>
	<g>
		<circle cx="25.2" cy="19" r="0.4"/>
		<circle cx="21.9" cy="14.8" r="0.4"/>
		<circle cx="26.4" cy="15" r="0.4"/>
		<path class="st3" d="M19.7,17.5c0,0,3.4-1.1,7.3-0.3"/>
		<path class="st3" d="M23.1,20.4c0,0-0.1-3.8,1.7-7"/>
	</g>
	<g>
		<circle cx="20" cy="23.9" r="0.4"/>
		<circle cx="16" cy="20.4" r="0.4"/>
		<circle cx="20.5" cy="19.8" r="0.4"/>
		<path class="st3" d="M14.3,23.4c0,0,3.2-1.6,7.2-1.5"/>
		<path class="st3" d="M18.1,25.6c0,0-0.8-3.7,0.5-7.2"/>
	</g>
	<g>
		<circle cx="15.7" cy="29.6" r="0.4"/>
		<circle cx="11.1" cy="26.8" r="0.4"/>
		<circle cx="15.4" cy="25.5" r="0.4"/>
		<path class="st3" d="M10,30.1c0,0,2.8-2.1,6.8-2.7"/>
		<path class="st3" d="M14.1,31.7c0,0-1.4-3.5-0.7-7.2"/>
	</g>
	<g>
		<circle cx="12.4" cy="36" r="0.4"/>
		<circle cx="7.4" cy="34" r="0.4"/>
		<circle cx="11.4" cy="32" r="0.4"/>
		<path class="st3" d="M6.8,37.4c0,0,2.4-2.6,6.3-3.8"/>
		<path class="st3" d="M11.2,38.3c0,0-1.9-3.2-1.9-7"/>
	</g>
	<g>
		<circle cx="10.2" cy="42.9" r="0.4"/>
		<circle cx="5" cy="41.8" r="0.4"/>
		<circle cx="8.6" cy="39" r="0.4"/>
		<path class="st3" d="M5,45.2c0,0,2-2.9,5.5-4.8"/>
		<path class="st3" d="M9.4,45.3c0,0-2.5-2.9-3.1-6.6"/>
	</g>
	<g>
		<circle cx="9.2" cy="50" r="0.4"/>
		<circle cx="3.9" cy="49.8" r="0.4"/>
		<circle cx="7" cy="46.5" r="0.4"/>
		<path class="st3" d="M4.5,53.2c0,0,1.4-3.2,4.6-5.7"/>
		<path class="st3" d="M8.9,52.5c0,0-2.9-2.4-4.1-6"/>
	</g>
	<g>
		<circle cx="9.5" cy="57.2" r="0.4"/>
		<circle cx="4.2" cy="57.9" r="0.4"/>
		<circle cx="6.7" cy="54.1" r="0.4"/>
		<path class="st3" d="M5.3,61.1c0,0,0.9-3.4,3.6-6.4"/>
		<path class="st3" d="M9.5,59.8c0,0-3.3-1.9-5.1-5.2"/>
	</g>
	<g>
		<circle cx="10.9" cy="64.3" r="0.4"/>
		<circle cx="5.8" cy="65.8" r="0.4"/>
		<circle cx="7.6" cy="61.7" r="0.4"/>
		<path class="st3" d="M7.5,68.8c0,0,0.3-3.5,2.5-6.9"/>
		<path class="st3" d="M11.4,66.7c0,0-3.6-1.3-5.9-4.2"/>
	</g>
	<g>
		<circle cx="13.5" cy="70.9" r="0.4"/>
		<circle cx="8.8" cy="73.4" r="0.4"/>
		<circle cx="9.9" cy="69" r="0.4"/>
		<path class="st3" d="M10.9,76c0,0-0.3-3.5,1.3-7.2"/>
		<path class="st3" d="M14.5,73.3c0,0-3.7-0.7-6.5-3.2"/>
	</g>
	<g>
		<circle cx="17.3" cy="77.1" r="0.4"/>
		<circle cx="13" cy="80.3" r="0.4"/>
		<circle cx="13.3" cy="75.8" r="0.4"/>
		<path class="st3" d="M15.5,82.6c0,0-0.9-3.4,0-7.3"/>
		<path class="st3" d="M18.6,79.3c0,0-3.8,0-7-2"/>
	</g>
	<g>
		<circle cx="22" cy="82.5" r="0.4"/>
		<circle cx="18.3" cy="86.4" r="0.4"/>
		<circle cx="17.8" cy="81.9" r="0.4"/>
		<path class="st3" d="M21.2,88.2c0,0-1.5-3.2-1.2-7.2"/>
		<path class="st3" d="M23.6,84.5c0,0-3.7,0.6-7.2-0.8"/>
	</g>
	<g>
		<circle cx="27.5" cy="87.1" r="0.4"/>
		<circle cx="24.5" cy="91.5" r="0.4"/>
		<circle cx="23.3" cy="87.2" r="0.4"/>
		<path class="st3" d="M27.7,92.8c0,0-2-2.9-2.4-6.9"/>
		<path class="st3" d="M29.5,88.7c0,0-3.6,1.2-7.2,0.4"/>
	</g>
	<g>
		<circle cx="33.8" cy="90.7" r="0.4"/>
		<circle cx="31.6" cy="95.5" r="0.4"/>
		<circle cx="29.7" cy="91.4" r="0.4"/>
		<path class="st3" d="M34.9,96.3c0,0-2.5-2.5-3.6-6.4"/>
		<path class="st3" d="M36,91.9c0,0-3.3,1.8-7.1,1.6"/>
	</g>
	<g>
		<circle cx="40.5" cy="93.1" r="0.4"/>
		<circle cx="39.2" cy="98.3" r="0.4"/>
		<circle cx="36.6" cy="94.6" r="0.4"/>
		<path class="st3" d="M42.6,98.4c0,0-2.9-2.1-4.6-5.7"/>
		<path class="st3" d="M42.9,94c0,0-3,2.3-6.7,2.8"/>
	</g>
	<g>
		<circle cx="47.6" cy="94.4" r="0.4"/>
		<circle cx="47.1" cy="99.7" r="0.4"/>
		<circle cx="44" cy="96.5" r="0.4"/>
		<path class="st3" d="M50.6,99.3c0,0-3.2-1.6-5.5-4.9"/>
		<path class="st3" d="M50.1,94.9c0,0-2.5,2.8-6.1,3.9"/>
	</g>
	<g>
		<circle cx="54.8" cy="94.5" r="0.4"/>
		<circle cx="55.2" cy="99.8" r="0.4"/>
		<circle cx="51.6" cy="97.1" r="0.4"/>
		<path class="st3" d="M58.5,98.8c0,0-3.4-1-6.2-3.9"/>
		<path class="st3" d="M57.3,94.5c0,0-2,3.2-5.4,4.9"/>
	</g>
	<g>
		<circle cx="61.9" cy="93.3" r="0.4"/>
		<circle cx="63.2" cy="98.5" r="0.4"/>
		<circle cx="59.2" cy="96.5" r="0.4"/>
		<path class="st3" d="M66.3,96.9c0,0-3.5-0.4-6.8-2.8"/>
		<path class="st3" d="M64.4,92.9c0,0-1.5,3.5-4.5,5.7"/>
	</g>
	<g>
		<circle cx="68.7" cy="91" r="0.4"/>
		<circle cx="70.9" cy="95.9" r="0.4"/>
		<circle cx="66.5" cy="94.6" r="0.4"/>
		<path class="st3" d="M73.7,93.8c0,0-3.5,0.2-7.2-1.6"/>
		<path class="st3" d="M71.1,90.2c0,0-0.8,3.7-3.5,6.4"/>
	</g>
	<g>
		<circle cx="75" cy="87.5" r="0.4"/>
		<circle cx="78" cy="92" r="0.4"/>
		<circle cx="73.5" cy="91.4" r="0.4"/>
		<path class="st3" d="M80.4,89.5c0,0-3.5,0.8-7.3-0.3"/>
		<path class="st3" d="M77.2,86.3c0,0-0.2,3.8-2.3,6.9"/>
	</g>
	<g>
		<circle cx="80.6" cy="83.1" r="0.4"/>
		<circle cx="84.3" cy="86.9" r="0.4"/>
		<circle cx="79.8" cy="87.1" r="0.4"/>
		<path class="st3" d="M86.3,84.1c0,0-3.3,1.3-7.3,0.9"/>
		<path class="st3" d="M82.6,81.5c0,0,0.4,3.8-1.1,7.2"/>
	</g>
	<g>
		<circle cx="85.4" cy="77.7" r="0.4"/>
		<circle cx="89.7" cy="80.9" r="0.4"/>
		<circle cx="85.3" cy="81.9" r="0.4"/>
		<path class="st3" d="M91.1,77.7c0,0-3,1.9-7,2.1"/>
		<path class="st3" d="M87.1,75.8c0,0,1.1,3.6,0.1,7.3"/>
	</g>
	<g>
		<circle cx="89.3" cy="71.6" r="0.4"/>
		<circle cx="94" cy="74" r="0.4"/>
		<circle cx="89.8" cy="75.7" r="0.4"/>
		<path class="st3" d="M94.9,70.7c0,0-2.7,2.4-6.6,3.3"/>
		<path class="st3" d="M90.6,69.5c0,0,1.7,3.4,1.3,7.1"/>
	</g>
	<g>
		<circle cx="92" cy="65" r="0.4"/>
		<circle cx="97.1" cy="66.5" r="0.4"/>
		<circle cx="93.3" cy="68.9" r="0.4"/>
		<path class="st3" d="M97.4,63.1c0,0-2.2,2.8-5.9,4.4"/>
		<path class="st3" d="M93,62.6c0,0,2.2,3.1,2.5,6.8"/>
	</g>
	<g>
		<circle cx="93.6" cy="57.9" r="0.4"/>
		<circle cx="98.9" cy="58.6" r="0.4"/>
		<circle cx="95.5" cy="61.6" r="0.4"/>
		<path class="st3" d="M98.6,55.2c0,0-1.7,3.1-5.1,5.3"/>
		<path class="st3" d="M94.1,55.5c0,0,2.7,2.7,3.6,6.3"/>
	</g>
	<g>
		<circle cx="93.9" cy="50.8" r="0.4"/>
		<circle cx="99.3" cy="50.5" r="0.4"/>
		<circle cx="96.5" cy="54.1" r="0.4"/>
		<path class="st3" d="M98.4,47.2c0,0-1.2,3.3-4.1,6.1"/>
		<path class="st3" d="M94.1,48.2c0,0,3.1,2.2,4.6,5.6"/>
	</g>
	<g>
		<circle cx="93.1" cy="43.6" r="0.4"/>
		<circle cx="98.3" cy="42.5" r="0.4"/>
		<circle cx="96.1" cy="46.5" r="0.4"/>
		<path class="st3" d="M96.9,39.4c0,0-0.6,3.5-3,6.7"/>
		<path class="st3" d="M92.8,41.1c0,0,3.4,1.6,5.5,4.7"/>
	</g>
	<g>
		<circle cx="91" cy="36.7" r="0.4"/>
		<circle cx="96" cy="34.7" r="0.4"/>
		<circle cx="94.5" cy="39" r="0.4"/>
		<path class="st3" d="M94.1,31.9c0,0,0,3.5-1.9,7.1"/>
		<path class="st3" d="M90.3,34.3c0,0,3.7,1,6.2,3.7"/>
	</g>
	<g>
		<circle cx="87.9" cy="30.3" r="0.4"/>
		<circle cx="92.4" cy="27.5" r="0.4"/>
		<circle cx="91.7" cy="32" r="0.4"/>
		<path class="st3" d="M90,25c0,0,0.6,3.5-0.6,7.3"/>
		<path class="st3" d="M86.7,28c0,0,3.8,0.4,6.8,2.6"/>
	</g>
	<g>
		<circle cx="83.6" cy="24.5" r="0.4"/>
		<circle cx="87.7" cy="20.9" r="0.4"/>
		<circle cx="87.7" cy="25.5" r="0.4"/>
		<path class="st3" d="M84.9,18.9c0,0,1.2,3.3,0.6,7.3"/>
		<path class="st3" d="M82.1,22.4c0,0,3.8-0.3,7.1,1.4"/>
	</g>
	<g>
		<circle cx="78.5" cy="19.4" r="0.4"/>
		<circle cx="81.9" cy="15.3" r="0.4"/>
		<circle cx="82.6" cy="19.7" r="0.4"/>
		<path class="st3" d="M78.8,13.7c0,0,1.7,3.1,1.8,7.1"/>
		<path class="st3" d="M76.7,17.7c0,0,3.7-0.9,7.2,0.2"/>
	</g>
	<g>
		<circle cx="72.6" cy="15.4" r="0.4"/>
		<circle cx="75.2" cy="10.7" r="0.4"/>
		<circle cx="76.7" cy="15" r="0.4"/>
		<path class="st3" d="M71.9,9.7c0,0,2.2,2.7,3,6.7"/>
		<path class="st3" d="M70.5,13.9c0,0,3.5-1.5,7.2-1"/>
	</g>
	<g>
		<circle cx="66" cy="12.3" r="0.4"/>
		<circle cx="67.8" cy="7.3" r="0.4"/>
		<circle cx="70.1" cy="11.2" r="0.4"/>
		<path class="st3" d="M64.4,6.9c0,0,2.7,2.3,4.1,6.1"/>
		<path class="st3" d="M63.7,11.3c0,0,3.2-2.1,6.9-2.2"/>
	</g>
	<g>
		<circle cx="59.1" cy="10.5" r="0.4"/>
		<circle cx="60" cy="5.2" r="0.4"/>
		<circle cx="62.9" cy="8.7" r="0.4"/>
		<path class="st3" d="M56.6,5.3c0,0,3,1.8,5.1,5.3"/>
		<path class="st3" d="M56.6,9.8c0,0,2.8-2.6,6.4-3.3"/>
	</g>
</g>
</svg>
