<?xml version="1.0" encoding="utf-8"?>
<!-- Generator: Adobe Illustrator 26.2.1, SVG Export Plug-In . SVG Version: 6.00 Build 0)  -->
<svg version="1.1" xmlns="http://www.w3.org/2000/svg" xmlns:xlink="http://www.w3.org/1999/xlink" x="0px" y="0px"
	 viewBox="0 0 103.1 104" style="enable-background:new 0 0 103.1 104;" xml:space="preserve">
<style type="text/css">
	.st0{display:none;}
	.st1{display:inline;fill:#444D66;}
	.st2{display:inline;}
	.st3{fill:none;stroke:#000000;stroke-width:0.2;stroke-miterlimit:10;}
	.st4{fill:none;stroke:#000000;stroke-width:8.000000e-02;stroke-miterlimit:10;}
	.st5{fill:none;stroke:#000000;stroke-width:0.25;stroke-miterlimit:10;}
	.st6{fill:none;stroke:#000000;stroke-width:3.000000e-02;stroke-miterlimit:10;}
	.st7{fill:none;stroke:#000000;stroke-miterlimit:10;}
	.st8{stroke:#000000;stroke-width:8.000000e-02;stroke-miterlimit:10;}
</style>
<g id="Capa_1" class="st0">
	<path class="st1" d="M83.4,64.3l-0.6-0.2c-0.9-1-1.8-1.9-2.7-2.8l-0.2-0.2l-0.1,0.2c-0.5,1.9-1,3.8-1.7,5.7l-0.1,0.2h0.2
		c1.2,0,2.3-0.1,3.7-0.3l0,0l0.4,0.2l0,0c0.8,1,1.6,2.1,2.4,3.2l0.2,0.2l0.1-0.2c0.8-2.2,1.5-4.4,2-6.7l0.1-0.2l-0.2,0.1
		C85.5,63.9,84.4,64.1,83.4,64.3z M82.5,66.9l-0.3-0.1c0.2-0.8,0.5-1.5,0.7-2.3l0.3,0.1C83,65.3,82.7,66.1,82.5,66.9z M80.1,61.7
		c0.8,0.8,1.7,1.7,2.5,2.6c-0.1,0.4-0.2,0.8-0.3,1.2l-2.9-1.1C79.7,63.4,79.9,62.6,80.1,61.7z M78.5,67c0.3-0.8,0.6-1.7,0.8-2.5
		l2.9,1.1c-0.1,0.4-0.2,0.8-0.3,1.1C80.7,66.9,79.6,67,78.5,67z M84.9,70c-0.7-1-1.5-2-2.2-2.9l0.4-1.2l2.8,1.1
		C85.6,68,85.3,69,84.9,70L84.9,70z M85.9,66.9l-2.8-1.1c0.1-0.4,0.2-0.8,0.3-1.2c1-0.2,2-0.5,3.3-0.8
		C86.5,64.8,86.3,65.9,85.9,66.9L85.9,66.9z"/>
	<path class="st1" d="M83.7,62.4l0.1-0.1c1-0.6,1.9-1.3,2.9-2.2l0.1-0.1l-0.1-0.1c-0.6-1.2-1.3-2.3-1.9-3.4l0-0.1l-0.1,0.1
		c-0.9,0.8-1.8,1.6-2.8,2.3l-0.1,0.1l0.1,0.1c0.7,1.2,1.3,2.2,1.8,3.3L83.7,62.4z M84.7,56.8c0.6,1,1.2,2.1,1.8,3.2
		c-0.9,0.8-1.8,1.4-2.7,2c-0.5-1-1.1-2-1.7-3.1C82.9,58.3,83.8,57.6,84.7,56.8L84.7,56.8z"/>
	<path class="st1" d="M78.9,75.4l-0.5-0.3c-0.7-1.1-1.3-2.2-2.1-3.3l-0.1-0.2l-0.1,0.2c-0.8,1.6-1.8,3.2-2.8,4.7l-0.1,0.2h0.2
		c1.1,0.3,2.3,0.5,3.6,0.8l0,0l0.4,0.3l0,0c0.6,1.2,1.2,2.4,1.7,3.6l0.1,0.2l0.1-0.2c1.2-1.8,2.3-3.6,3.2-5.5l0.1-0.2h-0.2
		C81.3,75.6,80.1,75.6,78.9,75.4z M77.6,77.5l-0.3-0.2c0.4-0.6,0.7-1.2,1.1-1.8l0.3,0.2C78.3,76.2,78,76.9,77.6,77.5z M76.3,72.2
		c0.7,1,1.3,2,1.9,3.1l-0.5,0.9l-2.6-1.9C75.5,73.6,75.9,72.9,76.3,72.2z M75,74.5l2.6,1.8c-0.2,0.3-0.4,0.6-0.6,0.9
		c-1.2-0.2-2.3-0.4-3.3-0.7C74.2,75.8,74.6,75.1,75,74.5L75,74.5z M79.4,81.1c-0.5-1.1-1-2.2-1.6-3.3c0.2-0.3,0.4-0.6,0.6-0.9
		l2.5,1.8C80.4,79.4,79.9,80.2,79.4,81.1L79.4,81.1z M80.9,78.5l-2.5-1.9c0.2-0.3,0.4-0.6,0.6-1c1.1,0.1,2.2,0.2,3.4,0.2
		C81.9,76.8,81.4,77.7,80.9,78.5L80.9,78.5z"/>
	<path class="st1" d="M72.5,84.3L72,83.9c-0.4-1.2-0.9-2.4-1.3-3.6l-0.1-0.2l-0.2,0.2c-1.1,1.3-2.4,2.5-3.6,3.6L66.7,84l0.2,0.1
		c1,0.6,2.1,1.1,3.3,1.7l0,0l0.3,0.4l0,0c0.3,1.3,0.7,2.6,1,3.8l0.1,0.2l0.2-0.2c1.5-1.3,2.9-2.8,4.2-4.3l0.1-0.2L76,85.5
		C74.6,85.1,73.5,84.7,72.5,84.3z M70.8,85.9l-0.2-0.3c0.5-0.5,1-0.9,1.4-1.4l0.3,0.3C71.7,85,71.2,85.4,70.8,85.9z M70.6,80.6
		c0.4,1.1,0.8,2.2,1.2,3.4l-0.7,0.7L69,82.3C69.5,81.7,70,81.2,70.6,80.6L70.6,80.6z M68.9,82.4l2.1,2.4l-0.7,0.7
		c-1.1-0.5-2.1-1-3.1-1.5C67.8,83.4,68.3,82.9,68.9,82.4L68.9,82.4z M71.8,89.7c-0.3-1.2-0.6-2.4-0.9-3.5l0.7-0.7l2.1,2.4
		C73.1,88.5,72.4,89.1,71.8,89.7z M73.8,87.7c-0.7-0.8-1.4-1.6-2.1-2.4c0.2-0.2,0.5-0.5,0.7-0.7c1,0.4,2,0.7,3.3,1.1
		C75.1,86.4,74.4,87.1,73.8,87.7L73.8,87.7z"/>
	<path class="st1" d="M76.6,79.1V79h-0.1c-1.1,0.1-2.2,0.2-3.3,0.2H73v0.2c0.2,1.2,0.3,2.4,0.4,3.5V83h0.1c1.1,0,2.3,0,3.4-0.1h0.1
		v-0.1C77,81.6,76.8,80.4,76.6,79.1z M73.7,82.7c-0.1-1-0.2-2.1-0.4-3.2c1,0,2-0.1,3-0.2c0.2,1.2,0.3,2.3,0.4,3.3
		C75.8,82.7,74.7,82.7,73.7,82.7z"/>
	<path class="st1" d="M81.8,69v-0.1l0,0L81.7,69c-1,0.4-2.1,0.8-3.1,1.2h-0.1v0.1c0.4,1.2,0.8,2.4,1.1,3.5v0.1l0,0h0.1
		c1.1-0.3,2.2-0.7,3.3-1.1H83v-0.1C82.7,71.5,82.3,70.3,81.8,69z M79.7,73.6c-0.3-1-0.6-2.1-1-3.2c1-0.3,1.9-0.7,2.9-1.1
		c0.4,1.2,0.8,2.3,1.1,3.3C81.7,73,80.7,73.3,79.7,73.6L79.7,73.6z"/>
	<path class="st1" d="M64.4,91.1l-0.3-0.5c-0.2-1.4-0.4-2.7-0.6-3.8v-0.2l-0.2,0.1c-1.4,0.9-2.8,1.8-4.3,2.6l-0.2,0.1l0.2,0.1
		c0.9,0.8,1.9,1.6,2.9,2.4l0,0l0.2,0.4l0,0c0.1,1.3,0.1,2.6,0.2,3.9v0.2l0.2-0.1c1.7-0.9,3.4-1.9,5-3l0.2-0.1l-0.2-0.1
		C66.5,92.5,65.4,91.8,64.4,91.1z M62.4,92.2l-0.2-0.3c0.6-0.3,1.1-0.7,1.7-1l0.2,0.3C63.5,91.5,63,91.9,62.4,92.2z M63.8,90.6
		L63,91.1l-1.6-2.8c0.6-0.4,1.3-0.8,1.9-1.2C63.4,88.1,63.6,89.3,63.8,90.6z M61.3,88.3l1.5,2.9L62,91.7c-1-0.8-1.9-1.5-2.7-2.2
		C60,89.1,60.6,88.7,61.3,88.3L61.3,88.3z M62.5,92.5l0.8-0.5l1.6,2.8c-0.8,0.4-1.5,0.9-2.3,1.3C62.6,94.9,62.5,93.7,62.5,92.5
		L62.5,92.5z M65,94.7l-1.6-2.8l0.8-0.5c1,0.7,2,1.3,3,1.9C66.5,93.8,65.8,94.2,65,94.7L65,94.7z"/>
	<path class="st1" d="M55.1,95.7l-0.2-0.6c0.1-1.2,0.2-2.5,0.2-3.8v-0.2L55,91.2c-1.6,0.6-3.1,1.1-4.7,1.6h-0.2l0.1,0.2
		c0.7,1,1.5,1.9,2.4,3l0,0l0.1,0.5l0,0c-0.2,1.3-0.4,2.6-0.6,3.8v0.2l0.2-0.1c1.9-0.5,3.7-1.1,5.5-1.8l0.2-0.1l-0.2-0.1
		C56.9,97.5,56,96.6,55.1,95.7z M53,96.3l-0.1-0.4c0.6-0.2,1.2-0.4,1.8-0.6l0.1,0.4C54.2,95.9,53.6,96.1,53,96.3z M54.7,95l-0.9,0.3
		l-1-3.1c0.7-0.2,1.4-0.5,2.1-0.7C54.8,92.8,54.8,93.9,54.7,95z M52.7,92.3l1,3.1l-0.9,0.3c-0.8-1-1.5-1.9-2.2-2.8
		C51.3,92.7,52,92.5,52.7,92.3L52.7,92.3z M53,96.6c0.3-0.1,0.6-0.2,0.9-0.3l1,3.1c-0.8,0.3-1.6,0.5-2.5,0.8
		C52.6,99,52.8,97.8,53,96.6L53,96.6z M55,99.3l-1-3.1l0.9-0.3c0.8,0.8,1.7,1.7,2.5,2.5C56.7,98.8,55.9,99.1,55,99.3L55,99.3z"/>
	<path class="st1" d="M57.8,91.5l-0.2-0.1v0.2c-0.3,1.1-0.6,2.2-1,3.3V95h0.1c1,0.5,2,1,3.1,1.5l0.1,0.1v-0.2c0.3-1.1,0.7-2.2,1-3.4
		v-0.1l-0.2,0C59.8,92.5,58.8,92,57.8,91.5z M59.7,96.2c-1-0.4-1.9-0.9-2.8-1.4c0.3-1,0.6-2,0.9-3c0.9,0.4,1.8,0.9,2.8,1.3
		C60.3,94.2,60,95.2,59.7,96.2z"/>
	<path class="st1" d="M66,86.5h-0.2v0.2c-0.1,1.1-0.2,2.3-0.3,3.4v0.1h0.1c1.1,0.3,2.2,0.5,3.3,0.8h0.2v-0.2
		c0.1-1.1,0.2-2.3,0.3-3.6v0h-0.1C68.1,86.9,67,86.7,66,86.5z M68.8,90.7c-1-0.2-2-0.4-3-0.7c0.1-1.1,0.2-2.1,0.3-3.2
		c1,0.2,2,0.4,3,0.6C69,88.5,68.9,89.6,68.8,90.7z"/>
	<path class="st1" d="M45.2,98.1l-0.1-0.6c0.3-1.2,0.7-2.4,1-3.7v-0.2h-0.2c-1.6,0.2-3.2,0.4-4.9,0.5l-0.2,0l0.1,0.2
		c0.5,1.1,1.1,2.2,1.7,3.4l0,0v0.5l0,0c-0.4,1.2-0.9,2.4-1.4,3.6l-0.1,0.2h0.2c2-0.1,3.8-0.3,5.8-0.6h0.2l-0.1-0.2
		C46.5,100.3,45.8,99.2,45.2,98.1z M42.9,98.3v-0.4c0.6,0,1.3-0.1,1.9-0.2v0.4L42.9,98.3z M44.8,97.4l-0.9,0.1l-0.3-3.2
		c0.7-0.1,1.5-0.2,2.2-0.3C45.5,95.2,45.2,96.3,44.8,97.4z M41.2,94.5c0.7-0.1,1.5-0.1,2.2-0.2l0.4,3.3l-0.9,0.1
		C42.2,96.5,41.7,95.5,41.2,94.5L41.2,94.5z M42.9,98.6l1-0.1l0.3,3.2c-0.8,0.1-1.7,0.2-2.6,0.2C42.1,100.8,42.5,99.7,42.9,98.6
		L42.9,98.6z M44.3,101.7L44,98.5l1-0.1c0.6,1,1.3,2,1.9,3C46,101.5,45.2,101.6,44.3,101.7L44.3,101.7z"/>
	<path class="st1" d="M34.9,98.4v-0.6c0.6-1.1,1.1-2.2,1.7-3.4l0.2-0.2h-0.2c-1.7-0.1-3.3-0.3-4.9-0.5h-0.2l0,0.2
		c0.3,1.2,0.6,2.4,1,3.7l0,0l-0.1,0.5l0,0c-0.7,1.1-1.4,2.2-2.1,3.2l-0.1,0.2h0.2c1.9,0.3,3.8,0.5,5.8,0.6h0.2l-0.1-0.2
		C35.8,100.8,35.4,99.6,34.9,98.4z M32.8,98.1v-0.4c0.6,0.1,1.3,0.2,1.9,0.2v0.4C34,98.2,33.4,98.2,32.8,98.1z M34.8,97.6l-1-0.1
		l0.3-3.2c0.7,0.1,1.5,0.1,2.2,0.2C35.8,95.6,35.3,96.6,34.8,97.6z M31.9,94c0.7,0.1,1.5,0.2,2.2,0.3l-0.3,3.2l-0.9-0.1
		C32.4,96.2,32.1,95.1,31.9,94L31.9,94z M32.7,98.3l1,0.1l-0.3,3.2c-0.9-0.1-1.7-0.2-2.6-0.3C31.4,100.4,32,99.3,32.7,98.3
		L32.7,98.3z M33.4,101.7l0.3-3.2l1,0.1c0.4,1.1,0.8,2.2,1.3,3.3C35.1,101.8,34.3,101.8,33.4,101.7L33.4,101.7z"/>
	<path class="st1" d="M41.3,98.3L41.3,98.3c-0.8-0.9-1.6-1.8-2.3-2.6l-0.1-0.1l-0.1,0.1c-0.7,0.9-1.5,1.7-2.2,2.6l-0.1,0.1l0.1,0.1
		c0.7,0.9,1.5,1.8,2.2,2.7l0.1,0.1l0.1-0.1C39.8,100.2,40.5,99.3,41.3,98.3L41.3,98.3z M38.9,100.8c-0.7-0.8-1.4-1.6-2-2.4
		c0.7-0.8,1.4-1.6,2-2.3c0.7,0.8,1.3,1.6,2,2.3C40.3,99.2,39.6,100,38.9,100.8z"/>
	<path class="st1" d="M48.5,94.7l-0.1-0.1l-0.1,0.2c-0.5,1-1.1,2-1.7,3l-0.1,0.1l0.1,0.1c0.9,0.7,1.8,1.4,2.7,2.1l0.1,0.1l0.1-0.1
		c0.6-1,1.1-2,1.6-3.1v-0.1l-0.1-0.1C50.2,96.1,49.3,95.4,48.5,94.7z M49.4,99.7c-0.8-0.6-1.7-1.3-2.5-2c0.5-0.9,1-1.8,1.5-2.7
		c0.8,0.6,1.6,1.3,2.5,1.9C50.4,97.8,49.9,98.7,49.4,99.7z"/>
	<path class="st1" d="M24.9,96.5l0.2-0.6c0.8-0.9,1.5-1.9,2.4-3l0.1-0.2h-0.2c-1.6-0.4-3.1-1-4.7-1.6l-0.2-0.1v0.2
		c0,1.2,0.1,2.5,0.2,3.8l0,0l-0.2,0.5l0,0c-0.9,0.9-1.8,1.8-2.7,2.7l-0.2,0.2l0.2,0.1c1.8,0.7,3.6,1.3,5.5,1.8l0.2,0.1v-0.2
		C25.2,99.1,25,97.8,24.9,96.5z M22.8,95.7l0.1-0.4c0.6,0.2,1.2,0.4,1.8,0.6l-0.1,0.4L22.8,95.7z M24.9,95.7L24,95.4l1-3.1
		c0.7,0.2,1.4,0.4,2.1,0.7C26.3,93.9,25.6,94.8,24.9,95.7L24.9,95.7z M24.8,92.2l-1,3.1L22.9,95c-0.1-1.3-0.2-2.4-0.2-3.5
		C23.4,91.8,24.1,92,24.8,92.2z M22.6,95.9l0.9,0.3l-1,3.1c-0.8-0.3-1.6-0.6-2.5-0.9C21,97.6,21.8,96.8,22.6,95.9L22.6,95.9z
		 M22.7,99.4l1-3.1l0.9,0.3c0.2,1.2,0.4,2.4,0.6,3.6C24.3,99.9,23.5,99.7,22.7,99.4L22.7,99.4z"/>
	<path class="st1" d="M15.7,91.9c1-0.7,1.9-1.5,2.9-2.4l0.2-0.1l-0.2-0.1c-1.5-0.8-2.9-1.7-4.3-2.6l-0.2-0.1v0.2
		c-0.2,1.1-0.4,2.3-0.6,3.8l0,0l-0.3,0.4l0,0c-1,0.7-2.1,1.4-3.2,2.1L10,93.2l0.2,0.1c1.6,1.1,3.3,2.1,5,3l0.2,0.1v-0.2
		c0-1.3,0.1-2.6,0.2-3.9L15.7,91.9z M13.5,91.2l0.2-0.3c0.5,0.3,1.1,0.7,1.7,1l-0.2,0.3C14.7,91.9,14.1,91.5,13.5,91.2z M15.5,91.7
		l-0.7-0.5l1.6-2.8c0.6,0.4,1.3,0.8,1.9,1.1C17.3,90.2,16.5,91,15.5,91.7L15.5,91.7z M14.3,87.1c0.6,0.4,1.2,0.8,1.9,1.2l-1.6,2.8
		l-0.8-0.5C14,89.2,14.2,88.1,14.3,87.1L14.3,87.1z M13.3,91.4l0.8,0.5l-1.6,2.8c-0.8-0.5-1.5-0.9-2.2-1.4
		C11.4,92.7,12.4,92,13.3,91.4L13.3,91.4z M14.9,96.1c-0.8-0.4-1.5-0.9-2.3-1.3l1.6-2.8c0.3,0.2,0.6,0.3,0.9,0.5
		C15.1,93.7,15,94.9,14.9,96.1L14.9,96.1z"/>
	<path class="st1" d="M21.2,95.1V95c-0.4-1.1-0.7-2.2-1-3.2l0-0.2L20,91.6c-1,0.5-2,1-3,1.4l-0.1,0.1v0.1c0.3,1.1,0.6,2.2,1,3.4
		l0,0.2l0.1-0.1C19.1,96.2,20.2,95.6,21.2,95.1L21.2,95.1z M18.1,96.3c-0.3-1-0.6-2.1-0.9-3.1c0.9-0.4,1.9-0.8,2.8-1.3
		c0.3,1,0.6,2,0.9,3C20,95.4,19,95.9,18.1,96.3z"/>
	<path class="st1" d="M30.9,97.8L30.9,97.8c-0.6-1.1-1.2-2.1-1.7-3.1l-0.1-0.2L29,94.6c-0.9,0.7-1.8,1.4-2.7,2l-0.1,0.1v0.1
		c0.5,1,1.1,2,1.6,3.1L28,100l0.1-0.1c0.9-0.7,1.8-1.4,2.7-2.1L30.9,97.8z M28.1,99.6c-0.5-0.9-1-1.9-1.5-2.8
		c0.8-0.6,1.7-1.2,2.5-1.9c0.5,0.9,1,1.8,1.5,2.7C29.8,98.4,28.9,99,28.1,99.6z"/>
	<path class="st1" d="M7.4,85.7c1.1-0.5,2.2-1,3.3-1.6l0.2-0.1l-0.1-0.1c-1.3-1.2-2.5-2.4-3.6-3.7L7,80l-0.1,0.2
		c-0.5,1.2-0.9,2.4-1.4,3.7l0,0l-0.3,0.4l0,0c-1.1,0.4-2.2,0.8-3.5,1.2l-0.2,0.1l0.1,0.2c1.3,1.5,2.7,3,4.2,4.3L6,90.2V90
		c0.3-1.3,0.6-2.5,1-3.8L7.4,85.7z M5.4,84.5l0.3-0.3c0.5,0.5,0.9,1,1.4,1.4l-0.2,0.3C6.4,85.5,5.9,85,5.4,84.5L5.4,84.5z
		 M10.4,83.9c-1.1,0.6-2.1,1.1-3.1,1.5c-0.2-0.2-0.5-0.5-0.7-0.7l2.1-2.4C9.3,82.9,9.8,83.4,10.4,83.9L10.4,83.9z M7,80.6
		c0.5,0.6,1.1,1.1,1.6,1.7l-2.1,2.4C6.3,84.4,6,84.2,5.8,84C6.2,82.8,6.6,81.7,7,80.6L7,80.6z M1.9,85.8c1.2-0.4,2.3-0.8,3.3-1.1
		c0.2,0.2,0.5,0.5,0.7,0.7l-2.1,2.4C3.1,87.1,2.5,86.4,1.9,85.8L1.9,85.8z M5.8,89.7c-0.7-0.6-1.3-1.2-1.9-1.9L6,85.5l0.7,0.7
		C6.4,87.3,6.1,88.5,5.8,89.7z"/>
	<path class="st1" d="M0.6,77.4c1.1-0.2,2.3-0.4,3.6-0.8h0.2l-0.1-0.2c-1-1.5-1.9-3.1-2.8-4.7l-0.1-0.2l-0.1,0.2
		c-0.7,1.1-1.4,2.2-2.1,3.3l0,0l-0.4,0.3l0,0c-1.3,0.1-2.5,0.2-3.7,0.2h-0.3l0.1,0.2c1,1.9,2.1,3.7,3.3,5.5l0.1,0.2l0.1-0.2
		c0.5-1.2,1.1-2.4,1.7-3.6L0.6,77.4z M-1.1,75.6l0.3-0.2c0.4,0.6,0.7,1.2,1.1,1.8L0,77.5C-0.4,76.9-0.7,76.3-1.1,75.6z M0.6,77.2
		c-0.2-0.3-0.4-0.6-0.6-0.9l2.6-1.8c0.4,0.7,0.9,1.4,1.3,2.1C2.7,76.8,1.6,77,0.6,77.2z M1.3,72.2c0.4,0.7,0.8,1.4,1.2,2.2l-2.6,1.8
		l-0.5-1C0,74.2,0.7,73.2,1.3,72.2z M-1.4,75.7l0.6,1l-2.5,1.8c-0.5-0.8-1-1.7-1.4-2.5C-3.7,75.9-2.6,75.8-1.4,75.7z M-1.8,81
		c-0.5-0.8-1-1.6-1.5-2.4l2.5-1.8c0.2,0.3,0.4,0.6,0.6,0.9C-0.7,78.8-1.2,79.9-1.8,81z"/>
	<path class="st1" d="M4.3,83.2v-0.1c0.1-1.3,0.2-2.4,0.4-3.5v-0.2H4.5c-1.1,0-2.2-0.1-3.3-0.2H1.1v0.1c-0.2,1.1-0.3,2.3-0.5,3.6
		v0.1h0.2c1.1,0.1,2.3,0.1,3.4,0.1L4.3,83.2L4.3,83.2z M0.9,82.8c0.1-1.2,0.3-2.3,0.4-3.3c1,0.1,2,0.2,3,0.2c-0.1,1-0.3,2.1-0.4,3.2
		C3,82.9,2,82.9,0.9,82.8L0.9,82.8z"/>
	<path class="st1" d="M12,90.1V90c-0.1-1.2-0.2-2.3-0.3-3.4v-0.2h-0.2c-1.1,0.2-2.2,0.5-3.2,0.6H8.2v0.2c0,1.1,0.1,2.3,0.3,3.6v0.2
		h0.1c1.1-0.2,2.2-0.5,3.3-0.7L12,90.1z M8.7,90.6c-0.1-1.2-0.2-2.2-0.2-3.3c1-0.2,2-0.4,3-0.6c0.1,1,0.2,2.1,0.3,3.2
		C10.7,90.2,9.7,90.4,8.7,90.6z"/>
	<path class="st1" d="M-1.3,29l0.5,0.3c0.7,1.1,1.3,2.2,2.1,3.3l0.1,0.2l0.1-0.2c0.8-1.6,1.8-3.2,2.8-4.7l0.1-0.2l-0.2,0
		C3,27.4,1.8,27.2,0.5,27l0,0l-0.4-0.3l0,0c-0.6-1.2-1.2-2.4-1.7-3.6l-0.1-0.2l-0.1,0.2c-1.2,1.8-2.3,3.6-3.2,5.5l-0.1,0.1H-5
		C-3.7,28.8-2.5,28.8-1.3,29z M0,26.9l0.3,0.2c-0.4,0.6-0.8,1.2-1.1,1.9l-0.3-0.2L0,26.9z M1.3,32.3c-0.6-1-1.3-2-1.9-3.1
		c0.2-0.3,0.4-0.6,0.5-0.9l2.6,1.8C2.1,30.8,1.7,31.5,1.3,32.3z M2.6,30L0,28.2c0.2-0.3,0.4-0.6,0.6-0.9c1.2,0.2,2.3,0.4,3.3,0.7
		C3.4,28.6,3,29.3,2.6,30z M-1.8,23.4c0.5,1.1,1,2.2,1.6,3.3l-0.6,0.9l-2.5-1.8C-2.8,25-2.3,24.2-1.8,23.4z M-3.3,25.9l2.5,1.8
		l-0.6,1c-1.1-0.1-2.2-0.2-3.4-0.2C-4.3,27.6-3.8,26.7-3.3,25.9z"/>
	<path class="st1" d="M5.1,20l0.4,0.4c0.4,1.2,0.9,2.4,1.3,3.6L7,24.3l0.1-0.2c1.1-1.3,2.4-2.5,3.6-3.6l0.1-0.1l-0.2-0.1
		c-1-0.6-2.1-1.1-3.4-1.6l0,0L7,18.3l0,0c-0.4-1.3-0.7-2.6-1-3.8l0-0.3l-0.2,0.2c-1.5,1.3-2.9,2.8-4.2,4.3l-0.1,0.2l0.2,0.1
		C3,19.3,4.1,19.7,5.1,20z M6.8,18.5L7,18.8c-0.5,0.5-1,0.9-1.4,1.4l-0.3-0.3C5.9,19.4,6.4,19,6.8,18.5z M7,23.8
		c-0.4-1.1-0.9-2.2-1.2-3.4l0.7-0.7l2.1,2.4C8.1,22.7,7.6,23.2,7,23.8L7,23.8z M8.7,22l-2.1-2.4l0.7-0.7c1.1,0.5,2.1,1,3.1,1.5
		C9.8,21,9.3,21.5,8.7,22L8.7,22z M5.8,14.7c0.3,1.2,0.6,2.4,0.9,3.5L6,18.9l-2.1-2.4C4.5,15.9,5.1,15.3,5.8,14.7z M3.8,16.7
		l2.1,2.4c-0.2,0.2-0.5,0.5-0.7,0.7c-1-0.4-2-0.7-3.3-1.1C2.5,18,3.1,17.3,3.8,16.7L3.8,16.7z"/>
	<path class="st1" d="M1,25.3v0.1h0.1c1.1-0.1,2.2-0.2,3.3-0.2h0.1v-0.1c-0.2-1.2-0.3-2.4-0.4-3.5v-0.1H4c-1.1,0-2.2,0-3.4,0.1H0.5
		v0.1C0.6,22.8,0.8,24,1,25.3z M3.9,21.7c0.1,1,0.2,2.1,0.4,3.2c-1,0-2,0.1-3,0.2c-0.2-1.2-0.3-2.3-0.4-3.4
		C1.8,21.7,2.9,21.7,3.9,21.7z"/>
	<path class="st1" d="M13.2,13.3l0.3,0.5c0.2,1.4,0.4,2.7,0.6,3.8v0.2l0.2-0.1c1.4-0.9,2.8-1.8,4.3-2.6l0.2-0.1l-0.1-0.1
		c-0.9-0.8-1.9-1.6-2.9-2.4l0,0L15.4,12l0,0c-0.1-1.3-0.1-2.6-0.2-3.9V7.9L15,8c-1.7,0.9-3.4,1.9-5,3l-0.2,0.1l0.2,0.1
		C11.1,11.9,12.2,12.6,13.2,13.3z M15.2,12.2l0.2,0.3c-0.6,0.3-1.1,0.7-1.7,1l-0.2-0.3C14.1,12.9,14.6,12.5,15.2,12.2L15.2,12.2z
		 M13.8,13.8l0.8-0.5l1.6,2.9c-0.6,0.4-1.3,0.8-1.9,1.2C14.2,16.3,14,15.1,13.8,13.8z M16.3,16.1l-1.5-2.8l0.8-0.5
		c1,0.8,1.9,1.5,2.7,2.2C17.6,15.3,17,15.7,16.3,16.1L16.3,16.1z M15.1,11.9l-0.9,0.5l-1.6-2.8c0.8-0.4,1.5-0.9,2.3-1.3
		C15,9.5,15.1,10.7,15.1,11.9z M12.6,9.7l1.6,2.8L13.3,13c-1-0.6-2-1.3-3-1.9C11.1,10.6,11.8,10.2,12.6,9.7z"/>
	<path class="st1" d="M22.5,8.7l0.2,0.6c-0.1,1.2-0.2,2.5-0.2,3.8v0.2l0.2-0.1c1.5-0.6,3.1-1.1,4.7-1.6l0.2-0.1l-0.1-0.2
		c-0.7-1-1.5-1.9-2.4-3l0,0L24.9,8l0,0c0.2-1.3,0.4-2.6,0.6-3.8V3.9L25.3,4c-1.9,0.5-3.7,1.1-5.5,1.8l-0.2,0.1L19.7,6
		C20.7,6.9,21.6,7.8,22.5,8.7z M24.6,8.1l0.1,0.4c-0.6,0.2-1.2,0.4-1.8,0.6l-0.1-0.4C23.4,8.5,24,8.3,24.6,8.1z M22.9,9.4L23.8,9
		l1,3.1c-0.7,0.2-1.4,0.5-2.1,0.8C22.8,11.6,22.8,10.5,22.9,9.4z M24.9,12.1l-1-3.1l0.9-0.3c0.8,1,1.5,1.9,2.2,2.8
		C26.3,11.7,25.6,11.9,24.9,12.1L24.9,12.1z M24.6,7.8l-0.9,0.3l-1-3.1c0.8-0.3,1.6-0.5,2.5-0.8C25,5.4,24.8,6.6,24.6,7.8L24.6,7.8z
		 M22.6,5.1l1,3.1l-0.9,0.3c-0.8-0.9-1.7-1.7-2.5-2.5C20.9,5.6,21.7,5.3,22.6,5.1L22.6,5.1z"/>
	<path class="st1" d="M19.8,12.9l0.1,0.1v-0.2c0.3-1.1,0.6-2.2,1-3.3V9.4h-0.1c-1-0.5-2-1-3.1-1.5l-0.1-0.1l0,0.2
		c-0.3,1.1-0.7,2.2-1,3.4v0.1h0.1C17.8,11.9,18.8,12.4,19.8,12.9z M17.9,8.2c1,0.4,1.9,0.9,2.8,1.4c-0.3,1-0.6,2-0.9,3
		c-0.9-0.4-1.8-0.9-2.8-1.3C17.3,10.2,17.6,9.2,17.9,8.2z"/>
	<path class="st1" d="M10.4,17.7l1.2,0.2h0.2v-0.2c0.1-1.1,0.2-2.3,0.3-3.4v-0.1H12c-1.1-0.3-2.2-0.5-3.3-0.8H8.5v0.1
		c-0.1,1.1-0.2,2.3-0.3,3.6v0.1h0.1C9.1,17.4,9.8,17.5,10.4,17.7z M8.8,13.7c1,0.2,2,0.4,3,0.7c-0.1,1-0.2,2.1-0.3,3.2
		c-1-0.2-2-0.4-3-0.6C8.6,15.9,8.7,14.8,8.8,13.7z"/>
	<path class="st1" d="M32.4,6.3l0.1,0.6c-0.3,1.2-0.7,2.4-1,3.7l0,0.2h0.2c1.7-0.2,3.2-0.4,4.9-0.5l0.2-0.1L36.7,10
		c-0.5-1.1-1.1-2.2-1.7-3.4l0,0V6.1l0,0c0.4-1.2,0.9-2.4,1.4-3.6l0-0.3h-0.2c-2,0.1-3.8,0.3-5.8,0.6h-0.2L30.3,3
		C31.1,4.1,31.8,5.2,32.4,6.3z M34.6,6.1v0.4c-0.6,0-1.3,0.1-1.9,0.2V6.3L34.6,6.1z M32.8,7l0.9-0.1l0.3,3.3
		c-0.7,0.1-1.5,0.2-2.2,0.3C32.1,9.2,32.4,8.1,32.8,7z M36.4,9.9c-0.7,0-1.5,0.1-2.2,0.2l-0.4-3.3l1-0.1C35.4,7.9,35.9,8.9,36.4,9.9
		L36.4,9.9z M34.7,5.8l-1,0.1l-0.3-3.2c0.9-0.1,1.7-0.2,2.6-0.2C35.5,3.6,35.1,4.7,34.7,5.8z M33.3,2.7l0.3,3.2l-1,0.1
		c-0.6-1-1.3-2-1.9-3C31.6,2.9,32.4,2.8,33.3,2.7z"/>
	<path class="st1" d="M42.7,6v0.6c-0.6,1.1-1.1,2.2-1.7,3.4l-0.2,0.2H41c1.7,0.1,3.3,0.3,4.9,0.5h0.2v-0.2c-0.3-1.2-0.6-2.4-1-3.7
		l0,0l0.1-0.5l0,0c0.6-1.1,1.4-2.2,2.1-3.3l0.1-0.2h-0.2c-1.9-0.3-3.8-0.5-5.7-0.7h-0.2l0.1,0.2C41.8,3.6,42.2,4.8,42.7,6z
		 M44.8,6.3v0.4c-0.6-0.1-1.3-0.2-1.9-0.2V6.1C43.6,6.2,44.2,6.2,44.8,6.3z M42.8,6.8l0.9,0.1l-0.3,3.3C42.7,10,42,10,41.3,9.9
		C41.8,8.8,42.3,7.8,42.8,6.8L42.8,6.8z M45.8,10.4c-0.7-0.1-1.5-0.2-2.2-0.3l0.3-3.2L44.8,7C45.2,8.2,45.5,9.3,45.8,10.4z M45,6.1
		L44,6l0.3-3.2c0.8,0.1,1.7,0.2,2.6,0.3C46.2,4,45.6,5.1,45,6.1L45,6.1z M44.2,2.7l-0.3,3.2l-1-0.1c-0.4-1.1-0.8-2.2-1.3-3.3
		C42.5,2.6,43.3,2.6,44.2,2.7z"/>
	<path class="st1" d="M36.3,6.1L36.3,6.1c0.8,0.9,1.6,1.8,2.3,2.6l0.1,0.1l0.1-0.1C39.5,7.8,40.2,7,41,6.1l0.1-0.1L41,6
		c-0.7-0.9-1.4-1.8-2.2-2.7l-0.1-0.1l-0.1,0.1C37.8,4.2,37.1,5.1,36.3,6.1L36.3,6.1z M38.7,3.6c0.7,0.8,1.4,1.6,2,2.4
		c-0.7,0.8-1.4,1.5-2,2.3c-0.7-0.8-1.3-1.6-2-2.3C37.3,5.2,38,4.4,38.7,3.6z"/>
	<path class="st1" d="M29.1,9.7l0.1,0.1l0,0l0.1-0.1c0.5-1,1.1-2,1.7-3l0.1-0.1L31,6.5c-0.9-0.7-1.8-1.4-2.7-2.1l-0.1-0.1l0,0
		L28,4.5c-0.6,1-1.1,2-1.6,3.1v0.1l0.1,0.1C27.4,8.3,28.3,9,29.1,9.7z M30.7,6.7c-0.5,0.9-1,1.8-1.5,2.7c-0.8-0.6-1.6-1.3-2.5-1.9
		c0.5-0.9,1-1.9,1.5-2.8C29.1,5.4,29.9,6,30.7,6.7L30.7,6.7z"/>
	<path class="st1" d="M46.7,6.6L46.7,6.6l0,0.2c0.6,1,1.1,2,1.6,3l0.1,0.1l0.1-0.1c0.9-0.7,1.8-1.4,2.7-2l0.1-0.1V7.6
		c-0.5-1-1.1-2-1.6-3.1l-0.1-0.1l-0.1,0.1c-0.5,0.4-1.1,0.8-1.6,1.2L46.7,6.6z M51,7.6c-0.8,0.6-1.7,1.2-2.5,1.9
		c-0.5-0.9-1-1.8-1.5-2.7c0.8-0.7,1.6-1.3,2.5-1.9C50,5.7,50.5,6.6,51,7.6z"/>
	<path class="st1" d="M52.7,7.9l-0.2,0.6c-0.8,0.9-1.5,1.9-2.4,3l-0.1,0.2l0.2,0.1c1.6,0.4,3.1,1,4.7,1.6l0.2,0.1v-0.2
		c0-1.2-0.1-2.5-0.2-3.8V9.2l0.2-0.5l0,0C56,7.8,56.9,6.9,57.8,6L58,5.8l-0.2-0.1C56,5,54.2,4.4,52.3,3.9l-0.2-0.1v0.2
		C52.3,5.3,52.6,6.6,52.7,7.9z M54.8,8.7l-0.1,0.4c-0.6-0.2-1.2-0.4-1.8-0.6l0.1-0.4C53.6,8.3,54.2,8.5,54.8,8.7z M52.7,8.7L53.6,9
		l-1,3.1c-0.7-0.2-1.4-0.4-2.1-0.6C51.3,10.5,52,9.6,52.7,8.7L52.7,8.7z M52.8,12.2l1-3.1l0.9,0.3c0.1,1.3,0.2,2.4,0.2,3.5
		C54.2,12.6,53.5,12.4,52.8,12.2z M55,8.5l-0.9-0.3l1-3.1c0.8,0.3,1.6,0.6,2.4,0.9C56.6,6.8,55.8,7.6,55,8.5L55,8.5z M54.9,5.1
		l-1,3.1L53,7.8c-0.2-1.2-0.4-2.4-0.6-3.5C53.3,4.5,54.1,4.7,54.9,5.1L54.9,5.1z"/>
	<path class="st1" d="M61.9,12.5C61,13.2,60,14,59,14.9L58.8,15l0.2,0.1c1.5,0.8,2.9,1.7,4.3,2.6l0.2,0.1v-0.2
		c0.2-1.1,0.4-2.3,0.6-3.8l0,0l0.2-0.4l0,0c1-0.7,2.1-1.4,3.2-2.1l0.2-0.1l-0.2-0.1c-1.6-1.1-3.3-2.1-5-3.1l-0.2-0.1v0.2
		c0,1.3-0.1,2.6-0.2,3.9L61.9,12.5z M64.1,13.2l-0.2,0.3c-0.6-0.4-1.1-0.7-1.7-1l0.2-0.3C63,12.5,63.5,12.9,64.1,13.2L64.1,13.2z
		 M62.1,12.8l0.8,0.5l-1.6,2.8c-0.6-0.4-1.3-0.8-1.9-1.1C60.3,14.2,61.1,13.4,62.1,12.8L62.1,12.8z M63.3,17.4
		c-0.6-0.4-1.2-0.8-1.9-1.2l1.6-2.8l0.8,0.5C63.6,15.2,63.4,16.3,63.3,17.4L63.3,17.4z M64.3,13l-0.8-0.5L65,9.7
		c0.8,0.5,1.5,0.9,2.2,1.4C66.2,11.7,65.2,12.4,64.3,13L64.3,13z M62.6,8.3c0.8,0.4,1.5,0.9,2.3,1.3l-1.6,2.8
		c-0.3-0.2-0.6-0.3-0.8-0.5C62.5,10.7,62.6,9.5,62.6,8.3z"/>
	<path class="st1" d="M56.3,9.3v0.1c0.4,1.1,0.7,2.2,1,3.2v0.2l0.2-0.1c1-0.5,2-1,3-1.4h0.1v-0.1c-0.3-1.1-0.6-2.2-1-3.4V7.7
		l-0.1,0.1C58.5,8.3,57.4,8.8,56.3,9.3L56.3,9.3z M59.5,8.1c0.3,1,0.6,2.1,0.9,3.1c-0.9,0.4-1.9,0.8-2.8,1.3c-0.3-1-0.6-2-0.9-3
		C57.6,9,58.6,8.5,59.5,8.1z"/>
	<path class="st1" d="M70.2,18.7c-1.1,0.5-2.2,1-3.3,1.6l-0.2,0.1l0.2,0.1c1.3,1.2,2.5,2.4,3.6,3.7l0.2,0.2l0.1-0.2
		c0.5-1.2,0.9-2.4,1.3-3.7l0,0l0.3-0.4l0,0c1.1-0.4,2.2-0.8,3.5-1.2l0.2-0.1L76,18.7c-1.3-1.5-2.7-3-4.2-4.3l-0.2-0.1v0.2
		c-0.3,1.3-0.6,2.5-1,3.8L70.2,18.7z M72.2,19.9L72,20.2c-0.5-0.5-0.9-1-1.4-1.4l0.2-0.3C71.2,18.9,71.7,19.4,72.2,19.9L72.2,19.9z
		 M67.2,20.5c1.1-0.6,2.1-1.1,3.1-1.5c0.2,0.2,0.5,0.5,0.7,0.7L68.9,22C68.3,21.5,67.8,21,67.2,20.5L67.2,20.5z M70.6,23.8
		c-0.5-0.6-1-1.1-1.6-1.7l2.1-2.4l0.7,0.7C71.4,21.6,71,22.7,70.6,23.8L70.6,23.8z M75.7,18.6c-1.2,0.4-2.3,0.8-3.3,1.1
		c-0.2-0.2-0.5-0.5-0.7-0.7l2.1-2.4C74.4,17.3,75.1,18,75.7,18.6L75.7,18.6z M71.8,14.7c0.7,0.6,1.3,1.2,1.9,1.9
		c-0.7,0.8-1.4,1.6-2.1,2.4l-0.8-0.8C71.2,17.1,71.5,15.9,71.8,14.7z"/>
	<path class="st1" d="M77,27c-1.1,0.2-2.3,0.4-3.6,0.8h-0.2l0.1,0.2c1,1.5,1.9,3.1,2.8,4.7l0.1,0.2l0.1-0.2c0.7-1.1,1.4-2.2,2.1-3.3
		l0,0l0.4-0.3l0,0c1.3-0.1,2.5-0.2,3.7-0.2h0.3l-0.1-0.2c-1-1.9-2.1-3.7-3.2-5.5l-0.1-0.2L79.2,23c-0.5,1.2-1.1,2.4-1.7,3.6L77,27z
		 M78.7,28.8L78.4,29c-0.4-0.6-0.7-1.2-1.1-1.9l0.3-0.2C78,27.5,78.3,28.1,78.7,28.8z M77,27.2c0.2,0.3,0.4,0.6,0.6,0.9L75,29.9
		c-0.4-0.7-0.8-1.4-1.3-2.1C74.9,27.6,76,27.4,77,27.2z M76.3,32.2c-0.4-0.7-0.8-1.4-1.2-2.1l2.6-1.8l0.5,0.9
		C77.6,30.2,76.9,31.2,76.3,32.2L76.3,32.2z M78.9,28.6l-0.6-1l2.5-1.8c0.5,0.8,1,1.7,1.4,2.5C81.3,28.5,80.2,28.6,78.9,28.6
		L78.9,28.6z M79.4,23.3c0.5,0.8,1,1.6,1.5,2.4l-2.5,1.8c-0.2-0.3-0.4-0.6-0.6-0.9C78.3,25.6,78.8,24.5,79.4,23.3L79.4,23.3z"/>
	<path class="st1" d="M73.3,21.2v0.1c-0.1,1.3-0.2,2.4-0.4,3.5V25h0.2c1.1,0,2.2,0.1,3.3,0.2h0.1v-0.1c0.2-1.1,0.3-2.3,0.5-3.6v-0.1
		h-0.2c-1.2-0.1-2.3-0.1-3.4-0.1L73.3,21.2L73.3,21.2z M76.6,21.6c-0.1,1.2-0.3,2.3-0.4,3.4c-1-0.1-2-0.2-3-0.2
		c0.2-1,0.3-2.1,0.3-3.2C74.6,21.5,75.6,21.5,76.6,21.6L76.6,21.6z"/>
	<path class="st1" d="M65.6,14.3v0.1c0.1,1.1,0.2,2.3,0.3,3.4V18H66c1.1-0.2,2.2-0.5,3.2-0.6h0.1l0,0v-0.2c0-0.7-0.1-1.5-0.1-2.2
		c0-0.4-0.1-0.8-0.1-1.2v-0.1l0,0H69c-1.1,0.2-2.2,0.5-3.3,0.7L65.6,14.3z M65.9,14.5l0.9-0.2c0.7-0.2,1.4-0.3,2.2-0.5
		c0.1,1.2,0.2,2.2,0.2,3.3c-1,0.2-2,0.4-3,0.6C66.1,16.6,66,15.6,65.9,14.5z"/>
	<path class="st1" d="M82,37.4c-1.1-0.1-2.3-0.2-3.6-0.3h-0.2l0.1,0.2c0.7,1.9,1.2,3.8,1.7,5.7l0.1,0.2l0.2-0.2
		c0.9-0.9,1.8-1.9,2.7-2.9l0,0l0.4-0.2l0,0c1.1,0.2,2.3,0.5,3.6,0.9l0.2,0.1l-0.1-0.2c-0.5-2.3-1.2-4.5-2-6.7L85,33.8L84.8,34
		c-0.8,1.1-1.6,2.1-2.4,3.2L82,37.4z M83.2,39.8l-0.3,0.1c-0.2-0.8-0.4-1.5-0.7-2.3l0.3-0.1C82.7,38.3,83,39,83.2,39.8z M81.9,37.7
		c0.1,0.4,0.2,0.8,0.3,1.1l-2.9,1.1c-0.3-0.8-0.5-1.7-0.8-2.5C79.7,37.5,80.8,37.6,81.9,37.7z M80.1,42.7c-0.2-0.9-0.5-1.8-0.7-2.6
		l2.9-1.1l0.3,1.2C81.8,41,81,41.9,80.1,42.7L80.1,42.7z M83.5,39.8c-0.1-0.4-0.2-0.8-0.3-1.2l2.8-1.1c0.3,1,0.6,2.1,0.8,3.1
		C85.6,40.3,84.5,40,83.5,39.8L83.5,39.8z M84.9,34.4c0.3,1,0.7,2,1,3l-2.8,1.1c-0.1-0.4-0.2-0.8-0.4-1.2
		C83.5,36.4,84.2,35.4,84.9,34.4L84.9,34.4z"/>
	<path class="st1" d="M88.8,55.3c0-2.7-0.2-5.4-0.5-7.9v-0.3l-0.2,0.2c-1,0.9-2,1.8-3,2.6L84.5,50c-1.2-0.6-2.4-1.1-3.4-1.5
		l-0.2-0.1v0.2c0.2,2.2,0.4,4.4,0.4,6.8v0.2l0.2-0.1c1.1-0.7,2.2-1.5,3.2-2.2l0,0h0.4l0,0c1.1,0.7,2.2,1.4,3.3,2.2l0.2,0.2
		L88.8,55.3z M88,47.7c0.1,1.2,0.2,2.3,0.3,3.5l-3,0.3c0-0.5-0.1-0.9-0.1-1.4C86.2,49.3,87.1,48.5,88,47.7z M84.8,53
		c0-0.9-0.1-1.8-0.2-2.8H85c0.1,0.9,0.1,1.8,0.2,2.8L84.8,53z M81.2,48.8c1,0.4,2,0.8,3.2,1.4c0,0.5,0.1,0.9,0.1,1.4l-3,0.3
		C81.4,50.9,81.3,49.9,81.2,48.8L81.2,48.8z M81.6,55.2c0-1.1-0.1-2.1-0.1-3.2l3-0.3c0,0.5,0,0.9,0.1,1.4
		C83.6,53.8,82.6,54.5,81.6,55.2z M85.5,53.1c0-0.5,0-1-0.1-1.4l3-0.3c0.1,1.2,0.1,2.5,0.2,3.7C87.5,54.4,86.5,53.7,85.5,53.1
		L85.5,53.1z"/>
	<path class="st1" d="M83.6,41.8l-0.1,0.1c-0.6,1.3-1.2,2.3-1.8,3.3l-0.1,0.1l0.1,0.1c1,0.7,1.9,1.5,2.8,2.3l0.1,0.1l0.1-0.1
		c0.7-1.1,1.3-2.3,1.9-3.5v-0.1L86.7,44c-0.9-0.7-1.9-1.5-2.9-2.2L83.6,41.8z M84.6,47.4C83.8,46.7,83,46,82,45.3
		c0.6-1,1.1-2,1.7-3.1c1,0.7,1.9,1.3,2.7,2C85.9,45.3,85.3,46.3,84.6,47.4L84.6,47.4z"/>
	<path class="st1" d="M79.6,30.6v0.1c-0.4,1.3-0.8,2.4-1.2,3.5l-0.1,0.1h0.1c1.1,0.4,2.1,0.8,3.1,1.2l0.1,0.1v-0.1
		c0.4-1.1,0.8-2.3,1.2-3.6v-0.1h-0.1C81.8,31.3,80.7,31,79.6,30.6L79.6,30.6z M82.8,31.9c-0.4,1.2-0.7,2.3-1.1,3.3
		c-1-0.4-1.9-0.8-2.9-1.1c0.4-1,0.7-2.1,1-3.2C80.8,31.2,81.8,31.6,82.8,31.9z"/>
	<path class="st1" d="M83.4,64.3l-0.6-0.2c-0.9-1-1.8-1.9-2.7-2.8l-0.2-0.2l-0.1,0.2c-0.5,1.9-1,3.8-1.7,5.7l-0.1,0.2h0.2
		c1.2,0,2.3-0.1,3.7-0.3l0,0l0.4,0.2l0,0c0.8,1,1.6,2.1,2.4,3.2l0.2,0.2l0.1-0.2c0.8-2.2,1.5-4.4,2-6.7l0.1-0.2l-0.2,0.1
		C85.5,63.9,84.4,64.1,83.4,64.3z M82.5,66.9l-0.3-0.1c0.2-0.8,0.5-1.5,0.7-2.3l0.3,0.1C83,65.3,82.7,66.1,82.5,66.9z M80.1,61.7
		c0.8,0.8,1.7,1.7,2.5,2.6c-0.1,0.4-0.2,0.8-0.3,1.2l-2.9-1.1C79.7,63.4,79.9,62.6,80.1,61.7z M78.5,67c0.3-0.8,0.6-1.7,0.8-2.5
		l2.9,1.1c-0.1,0.4-0.2,0.8-0.3,1.1C80.7,66.9,79.6,67,78.5,67z M84.9,70c-0.7-1-1.5-2-2.2-2.9l0.4-1.2l2.8,1.1
		C85.6,68,85.3,69,84.9,70L84.9,70z M85.9,66.9l-2.8-1.1c0.1-0.4,0.2-0.8,0.3-1.2c1-0.2,2-0.5,3.3-0.8
		C86.5,64.8,86.3,65.9,85.9,66.9L85.9,66.9z"/>
	<path class="st1" d="M83.7,62.4l0.1-0.1c1-0.6,1.9-1.3,2.9-2.2l0.1-0.1l-0.1-0.1c-0.6-1.2-1.3-2.3-1.9-3.4l0-0.1l-0.1,0.1
		c-0.9,0.8-1.8,1.6-2.8,2.3l-0.1,0.1l0.1,0.1c0.7,1.2,1.3,2.2,1.8,3.3L83.7,62.4z M84.7,56.8c0.6,1,1.2,2.1,1.8,3.2
		c-0.9,0.8-1.8,1.4-2.7,2c-0.5-1-1.1-2-1.7-3.1C82.9,58.3,83.8,57.6,84.7,56.8L84.7,56.8z"/>
	<path class="st1" d="M78.9,75.4l-0.5-0.3c-0.7-1.1-1.3-2.2-2.1-3.3l-0.1-0.2l-0.1,0.2c-0.8,1.6-1.8,3.2-2.8,4.7l-0.1,0.2h0.2
		c1.1,0.3,2.3,0.5,3.6,0.8l0,0l0.4,0.3l0,0c0.6,1.2,1.2,2.4,1.7,3.6l0.1,0.2l0.1-0.2c1.2-1.8,2.3-3.6,3.2-5.5l0.1-0.2h-0.2
		C81.3,75.6,80.1,75.6,78.9,75.4z M77.6,77.5l-0.3-0.2c0.4-0.6,0.7-1.2,1.1-1.8l0.3,0.2C78.3,76.2,78,76.9,77.6,77.5z M76.3,72.2
		c0.7,1,1.3,2,1.9,3.1l-0.5,0.9l-2.6-1.9C75.5,73.6,75.9,72.9,76.3,72.2z M75,74.5l2.6,1.8c-0.2,0.3-0.4,0.6-0.6,0.9
		c-1.2-0.2-2.3-0.4-3.3-0.7C74.2,75.8,74.6,75.1,75,74.5L75,74.5z M79.4,81.1c-0.5-1.1-1-2.2-1.6-3.3c0.2-0.3,0.4-0.6,0.6-0.9
		l2.5,1.8C80.4,79.4,79.9,80.2,79.4,81.1L79.4,81.1z M80.9,78.5l-2.5-1.9c0.2-0.3,0.4-0.6,0.6-1c1.1,0.1,2.2,0.2,3.4,0.2
		C81.9,76.8,81.4,77.7,80.9,78.5L80.9,78.5z"/>
	<path class="st1" d="M72.5,84.3L72,83.9c-0.4-1.2-0.9-2.4-1.3-3.6l-0.1-0.2l-0.2,0.2c-1.1,1.3-2.4,2.5-3.6,3.6L66.7,84l0.2,0.1
		c1,0.6,2.1,1.1,3.3,1.7l0,0l0.3,0.4l0,0c0.3,1.3,0.7,2.6,1,3.8l0.1,0.2l0.2-0.2c1.5-1.3,2.9-2.8,4.2-4.3l0.1-0.2L76,85.5
		C74.6,85.1,73.5,84.7,72.5,84.3z M70.8,85.9l-0.2-0.3c0.5-0.5,1-0.9,1.4-1.4l0.3,0.3C71.7,85,71.2,85.4,70.8,85.9z M70.6,80.6
		c0.4,1.1,0.8,2.2,1.2,3.4l-0.7,0.7L69,82.3C69.5,81.7,70,81.2,70.6,80.6L70.6,80.6z M68.9,82.4l2.1,2.4l-0.7,0.7
		c-1.1-0.5-2.1-1-3.1-1.5C67.8,83.4,68.3,82.9,68.9,82.4L68.9,82.4z M71.8,89.7c-0.3-1.2-0.6-2.4-0.9-3.5l0.7-0.7l2.1,2.4
		C73.1,88.5,72.4,89.1,71.8,89.7z M73.8,87.7c-0.7-0.8-1.4-1.6-2.1-2.4c0.2-0.2,0.5-0.5,0.7-0.7c1,0.4,2,0.7,3.3,1.1
		C75.1,86.4,74.4,87.1,73.8,87.7L73.8,87.7z"/>
	<path class="st1" d="M76.6,79.1V79h-0.1c-1.1,0.1-2.2,0.2-3.3,0.2H73v0.2c0.2,1.2,0.3,2.4,0.4,3.5V83h0.1c1.1,0,2.3,0,3.4-0.1h0.1
		v-0.1C77,81.6,76.8,80.4,76.6,79.1z M73.7,82.7c-0.1-1-0.2-2.1-0.4-3.2c1,0,2-0.1,3-0.2c0.2,1.2,0.3,2.3,0.4,3.3
		C75.8,82.7,74.7,82.7,73.7,82.7z"/>
	<path class="st1" d="M81.8,69v-0.1l0,0L81.7,69c-1,0.4-2.1,0.8-3.1,1.2h-0.1v0.1c0.4,1.2,0.8,2.4,1.1,3.5v0.1l0,0h0.1
		c1.1-0.3,2.2-0.7,3.3-1.1H83v-0.1C82.7,71.5,82.3,70.3,81.8,69z M79.7,73.6c-0.3-1-0.6-2.1-1-3.2c1-0.3,1.9-0.7,2.9-1.1
		c0.4,1.2,0.8,2.3,1.1,3.3C81.7,73,80.7,73.3,79.7,73.6L79.7,73.6z"/>
	<path class="st1" d="M64.4,91.1l-0.3-0.5c-0.2-1.4-0.4-2.7-0.6-3.8v-0.2l-0.2,0.1c-1.4,0.9-2.8,1.8-4.3,2.6l-0.2,0.1l0.2,0.1
		c0.9,0.8,1.9,1.6,2.9,2.4l0,0l0.2,0.4l0,0c0.1,1.3,0.1,2.6,0.2,3.9v0.2l0.2-0.1c1.7-0.9,3.4-1.9,5-3l0.2-0.1l-0.2-0.1
		C66.5,92.5,65.4,91.8,64.4,91.1z M62.4,92.2l-0.2-0.3c0.6-0.3,1.1-0.7,1.7-1l0.2,0.3C63.5,91.5,63,91.9,62.4,92.2z M63.8,90.6
		L63,91.1l-1.6-2.8c0.6-0.4,1.3-0.8,1.9-1.2C63.4,88.1,63.6,89.3,63.8,90.6z M61.3,88.3l1.5,2.9L62,91.7c-1-0.8-1.9-1.5-2.7-2.2
		C60,89.1,60.6,88.7,61.3,88.3L61.3,88.3z M62.5,92.5l0.8-0.5l1.6,2.8c-0.8,0.4-1.5,0.9-2.3,1.3C62.6,94.9,62.5,93.7,62.5,92.5
		L62.5,92.5z M65,94.7l-1.6-2.8l0.8-0.5c1,0.7,2,1.3,3,1.9C66.5,93.8,65.8,94.2,65,94.7L65,94.7z"/>
	<path class="st1" d="M55.1,95.7l-0.2-0.6c0.1-1.2,0.2-2.5,0.2-3.8v-0.2L55,91.2c-1.6,0.6-3.1,1.1-4.7,1.6h-0.2l0.1,0.2
		c0.7,1,1.5,1.9,2.4,3l0,0l0.1,0.5l0,0c-0.2,1.3-0.4,2.6-0.6,3.8v0.2l0.2-0.1c1.9-0.5,3.7-1.1,5.5-1.8l0.2-0.1l-0.2-0.1
		C56.9,97.5,56,96.6,55.1,95.7z M53,96.3l-0.1-0.4c0.6-0.2,1.2-0.4,1.8-0.6l0.1,0.4C54.2,95.9,53.6,96.1,53,96.3z M54.7,95l-0.9,0.3
		l-1-3.1c0.7-0.2,1.4-0.5,2.1-0.7C54.8,92.8,54.8,93.9,54.7,95z M52.7,92.3l1,3.1l-0.9,0.3c-0.8-1-1.5-1.9-2.2-2.8
		C51.3,92.7,52,92.5,52.7,92.3L52.7,92.3z M53,96.6c0.3-0.1,0.6-0.2,0.9-0.3l1,3.1c-0.8,0.3-1.6,0.5-2.5,0.8
		C52.6,99,52.8,97.8,53,96.6L53,96.6z M55,99.3l-1-3.1l0.9-0.3c0.8,0.8,1.7,1.7,2.5,2.5C56.7,98.8,55.9,99.1,55,99.3L55,99.3z"/>
	<path class="st1" d="M57.8,91.5l-0.2-0.1v0.2c-0.3,1.1-0.6,2.2-1,3.3V95h0.1c1,0.5,2,1,3.1,1.5l0.1,0.1v-0.2c0.3-1.1,0.7-2.2,1-3.4
		v-0.1l-0.2,0C59.8,92.5,58.8,92,57.8,91.5z M59.7,96.2c-1-0.4-1.9-0.9-2.8-1.4c0.3-1,0.6-2,0.9-3c0.9,0.4,1.8,0.9,2.8,1.3
		C60.3,94.2,60,95.2,59.7,96.2z"/>
	<path class="st1" d="M66,86.5h-0.2v0.2c-0.1,1.1-0.2,2.3-0.3,3.4v0.1h0.1c1.1,0.3,2.2,0.5,3.3,0.8h0.2v-0.2
		c0.1-1.1,0.2-2.3,0.3-3.6v0h-0.1C68.1,86.9,67,86.7,66,86.5z M68.8,90.7c-1-0.2-2-0.4-3-0.7c0.1-1.1,0.2-2.1,0.3-3.2
		c1,0.2,2,0.4,3,0.6C69,88.5,68.9,89.6,68.8,90.7z"/>
	<path class="st1" d="M45.2,98.1l-0.1-0.6c0.3-1.2,0.7-2.4,1-3.7v-0.2h-0.2c-1.6,0.2-3.2,0.4-4.9,0.5l-0.2,0l0.1,0.2
		c0.5,1.1,1.1,2.2,1.7,3.4l0,0v0.5l0,0c-0.4,1.2-0.9,2.4-1.4,3.6l-0.1,0.2h0.2c2-0.1,3.8-0.3,5.8-0.6h0.2l-0.1-0.2
		C46.5,100.3,45.8,99.2,45.2,98.1z M42.9,98.3v-0.4c0.6,0,1.3-0.1,1.9-0.2v0.4L42.9,98.3z M44.8,97.4l-0.9,0.1l-0.3-3.2
		c0.7-0.1,1.5-0.2,2.2-0.3C45.5,95.2,45.2,96.3,44.8,97.4z M41.2,94.5c0.7-0.1,1.5-0.1,2.2-0.2l0.4,3.3l-0.9,0.1
		C42.2,96.5,41.7,95.5,41.2,94.5L41.2,94.5z M42.9,98.6l1-0.1l0.3,3.2c-0.8,0.1-1.7,0.2-2.6,0.2C42.1,100.8,42.5,99.7,42.9,98.6
		L42.9,98.6z M44.3,101.7L44,98.5l1-0.1c0.6,1,1.3,2,1.9,3C46,101.5,45.2,101.6,44.3,101.7L44.3,101.7z"/>
	<path class="st1" d="M34.9,98.4v-0.6c0.6-1.1,1.1-2.2,1.7-3.4l0.2-0.2h-0.2c-1.7-0.1-3.3-0.3-4.9-0.5h-0.2l0,0.2
		c0.3,1.2,0.6,2.4,1,3.7l0,0l-0.1,0.5l0,0c-0.7,1.1-1.4,2.2-2.1,3.2l-0.1,0.2h0.2c1.9,0.3,3.8,0.5,5.8,0.6h0.2l-0.1-0.2
		C35.8,100.8,35.4,99.6,34.9,98.4z M32.8,98.1v-0.4c0.6,0.1,1.3,0.2,1.9,0.2v0.4C34,98.2,33.4,98.2,32.8,98.1z M34.8,97.6l-1-0.1
		l0.3-3.2c0.7,0.1,1.5,0.1,2.2,0.2C35.8,95.6,35.3,96.6,34.8,97.6z M31.9,94c0.7,0.1,1.5,0.2,2.2,0.3l-0.3,3.2l-0.9-0.1
		C32.4,96.2,32.1,95.1,31.9,94L31.9,94z M32.7,98.3l1,0.1l-0.3,3.2c-0.9-0.1-1.7-0.2-2.6-0.3C31.4,100.4,32,99.3,32.7,98.3
		L32.7,98.3z M33.4,101.7l0.3-3.2l1,0.1c0.4,1.1,0.8,2.2,1.3,3.3C35.1,101.8,34.3,101.8,33.4,101.7L33.4,101.7z"/>
	<path class="st1" d="M41.3,98.3L41.3,98.3c-0.8-0.9-1.6-1.8-2.3-2.6l-0.1-0.1l-0.1,0.1c-0.7,0.9-1.5,1.7-2.2,2.6l-0.1,0.1l0.1,0.1
		c0.7,0.9,1.5,1.8,2.2,2.7l0.1,0.1l0.1-0.1C39.8,100.2,40.5,99.3,41.3,98.3L41.3,98.3z M38.9,100.8c-0.7-0.8-1.4-1.6-2-2.4
		c0.7-0.8,1.4-1.6,2-2.3c0.7,0.8,1.3,1.6,2,2.3C40.3,99.2,39.6,100,38.9,100.8z"/>
	<path class="st1" d="M48.5,94.7l-0.1-0.1l-0.1,0.2c-0.5,1-1.1,2-1.7,3l-0.1,0.1l0.1,0.1c0.9,0.7,1.8,1.4,2.7,2.1l0.1,0.1l0.1-0.1
		c0.6-1,1.1-2,1.6-3.1v-0.1l-0.1-0.1C50.2,96.1,49.3,95.4,48.5,94.7z M49.4,99.7c-0.8-0.6-1.7-1.3-2.5-2c0.5-0.9,1-1.8,1.5-2.7
		c0.8,0.6,1.6,1.3,2.5,1.9C50.4,97.8,49.9,98.7,49.4,99.7z"/>
	<path class="st1" d="M24.9,96.5l0.2-0.6c0.8-0.9,1.5-1.9,2.4-3l0.1-0.2h-0.2c-1.6-0.4-3.1-1-4.7-1.6l-0.2-0.1v0.2
		c0,1.2,0.1,2.5,0.2,3.8l0,0l-0.2,0.5l0,0c-0.9,0.9-1.8,1.8-2.7,2.7l-0.2,0.2l0.2,0.1c1.8,0.7,3.6,1.3,5.5,1.8l0.2,0.1v-0.2
		C25.2,99.1,25,97.8,24.9,96.5z M22.8,95.7l0.1-0.4c0.6,0.2,1.2,0.4,1.8,0.6l-0.1,0.4L22.8,95.7z M24.9,95.7L24,95.4l1-3.1
		c0.7,0.2,1.4,0.4,2.1,0.7C26.3,93.9,25.6,94.8,24.9,95.7L24.9,95.7z M24.8,92.2l-1,3.1L22.9,95c-0.1-1.3-0.2-2.4-0.2-3.5
		C23.4,91.8,24.1,92,24.8,92.2z M22.6,95.9l0.9,0.3l-1,3.1c-0.8-0.3-1.6-0.6-2.5-0.9C21,97.6,21.8,96.8,22.6,95.9L22.6,95.9z
		 M22.7,99.4l1-3.1l0.9,0.3c0.2,1.2,0.4,2.4,0.6,3.6C24.3,99.9,23.5,99.7,22.7,99.4L22.7,99.4z"/>
	<path class="st1" d="M15.7,91.9c1-0.7,1.9-1.5,2.9-2.4l0.2-0.1l-0.2-0.1c-1.5-0.8-2.9-1.7-4.3-2.6l-0.2-0.1v0.2
		c-0.2,1.1-0.4,2.3-0.6,3.8l0,0l-0.3,0.4l0,0c-1,0.7-2.1,1.4-3.2,2.1L10,93.2l0.2,0.1c1.6,1.1,3.3,2.1,5,3l0.2,0.1v-0.2
		c0-1.3,0.1-2.6,0.2-3.9L15.7,91.9z M13.5,91.2l0.2-0.3c0.5,0.3,1.1,0.7,1.7,1l-0.2,0.3C14.7,91.9,14.1,91.5,13.5,91.2z M15.5,91.7
		l-0.7-0.5l1.6-2.8c0.6,0.4,1.3,0.8,1.9,1.1C17.3,90.2,16.5,91,15.5,91.7L15.5,91.7z M14.3,87.1c0.6,0.4,1.2,0.8,1.9,1.2l-1.6,2.8
		l-0.8-0.5C14,89.2,14.2,88.1,14.3,87.1L14.3,87.1z M13.3,91.4l0.8,0.5l-1.6,2.8c-0.8-0.5-1.5-0.9-2.2-1.4
		C11.4,92.7,12.4,92,13.3,91.4L13.3,91.4z M14.9,96.1c-0.8-0.4-1.5-0.9-2.3-1.3l1.6-2.8c0.3,0.2,0.6,0.3,0.9,0.5
		C15.1,93.7,15,94.9,14.9,96.1L14.9,96.1z"/>
	<path class="st1" d="M21.2,95.1V95c-0.4-1.1-0.7-2.2-1-3.2l0-0.2L20,91.6c-1,0.5-2,1-3,1.4l-0.1,0.1v0.1c0.3,1.1,0.6,2.2,1,3.4
		l0,0.2l0.1-0.1C19.1,96.2,20.2,95.6,21.2,95.1L21.2,95.1z M18.1,96.3c-0.3-1-0.6-2.1-0.9-3.1c0.9-0.4,1.9-0.8,2.8-1.3
		c0.3,1,0.6,2,0.9,3C20,95.4,19,95.9,18.1,96.3z"/>
	<path class="st1" d="M30.9,97.8L30.9,97.8c-0.6-1.1-1.2-2.1-1.7-3.1l-0.1-0.2L29,94.6c-0.9,0.7-1.8,1.4-2.7,2l-0.1,0.1v0.1
		c0.5,1,1.1,2,1.6,3.1L28,100l0.1-0.1c0.9-0.7,1.8-1.4,2.7-2.1L30.9,97.8z M28.1,99.6c-0.5-0.9-1-1.9-1.5-2.8
		c0.8-0.6,1.7-1.2,2.5-1.9c0.5,0.9,1,1.8,1.5,2.7C29.8,98.4,28.9,99,28.1,99.6z"/>
	<path class="st1" d="M7.4,85.7c1.1-0.5,2.2-1,3.3-1.6l0.2-0.1l-0.1-0.1c-1.3-1.2-2.5-2.4-3.6-3.7L7,80l-0.1,0.2
		c-0.5,1.2-0.9,2.4-1.4,3.7l0,0l-0.3,0.4l0,0c-1.1,0.4-2.2,0.8-3.5,1.2l-0.2,0.1l0.1,0.2c1.3,1.5,2.7,3,4.2,4.3L6,90.2V90
		c0.3-1.3,0.6-2.5,1-3.8L7.4,85.7z M5.4,84.5l0.3-0.3c0.5,0.5,0.9,1,1.4,1.4l-0.2,0.3C6.4,85.5,5.9,85,5.4,84.5L5.4,84.5z
		 M10.4,83.9c-1.1,0.6-2.1,1.1-3.1,1.5c-0.2-0.2-0.5-0.5-0.7-0.7l2.1-2.4C9.3,82.9,9.8,83.4,10.4,83.9L10.4,83.9z M7,80.6
		c0.5,0.6,1.1,1.1,1.6,1.7l-2.1,2.4C6.3,84.4,6,84.2,5.8,84C6.2,82.8,6.6,81.7,7,80.6L7,80.6z M1.9,85.8c1.2-0.4,2.3-0.8,3.3-1.1
		c0.2,0.2,0.5,0.5,0.7,0.7l-2.1,2.4C3.1,87.1,2.5,86.4,1.9,85.8L1.9,85.8z M5.8,89.7c-0.7-0.6-1.3-1.2-1.9-1.9L6,85.5l0.7,0.7
		C6.4,87.3,6.1,88.5,5.8,89.7z"/>
	<path class="st1" d="M0.6,77.4c1.1-0.2,2.3-0.4,3.6-0.8h0.2l-0.1-0.2c-1-1.5-1.9-3.1-2.8-4.7l-0.1-0.2l-0.1,0.2
		c-0.7,1.1-1.4,2.2-2.1,3.3l0,0l-0.4,0.3l0,0c-1.3,0.1-2.5,0.2-3.7,0.2h-0.3l0.1,0.2c1,1.9,2.1,3.7,3.3,5.5l0.1,0.2l0.1-0.2
		c0.5-1.2,1.1-2.4,1.7-3.6L0.6,77.4z M-1.1,75.6l0.3-0.2c0.4,0.6,0.7,1.2,1.1,1.8L0,77.5C-0.4,76.9-0.7,76.3-1.1,75.6z M0.6,77.2
		c-0.2-0.3-0.4-0.6-0.6-0.9l2.6-1.8c0.4,0.7,0.9,1.4,1.3,2.1C2.7,76.8,1.6,77,0.6,77.2z M1.3,72.2c0.4,0.7,0.8,1.4,1.2,2.2l-2.6,1.8
		l-0.5-1C0,74.2,0.7,73.2,1.3,72.2z M-1.4,75.7l0.6,1l-2.5,1.8c-0.5-0.8-1-1.7-1.4-2.5C-3.7,75.9-2.6,75.8-1.4,75.7z M-1.8,81
		c-0.5-0.8-1-1.6-1.5-2.4l2.5-1.8c0.2,0.3,0.4,0.6,0.6,0.9C-0.7,78.8-1.2,79.9-1.8,81z"/>
	<path class="st1" d="M4.3,83.2v-0.1c0.1-1.3,0.2-2.4,0.4-3.5v-0.2H4.5c-1.1,0-2.2-0.1-3.3-0.2H1.1v0.1c-0.2,1.1-0.3,2.3-0.5,3.6
		v0.1h0.2c1.1,0.1,2.3,0.1,3.4,0.1L4.3,83.2L4.3,83.2z M0.9,82.8c0.1-1.2,0.3-2.3,0.4-3.3c1,0.1,2,0.2,3,0.2c-0.1,1-0.3,2.1-0.4,3.2
		C3,82.9,2,82.9,0.9,82.8L0.9,82.8z"/>
	<path class="st1" d="M12,90.1V90c-0.1-1.2-0.2-2.3-0.3-3.4v-0.2h-0.2c-1.1,0.2-2.2,0.5-3.2,0.6H8.2v0.2c0,1.1,0.1,2.3,0.3,3.6v0.2
		h0.1c1.1-0.2,2.2-0.5,3.3-0.7L12,90.1z M8.7,90.6c-0.1-1.2-0.2-2.2-0.2-3.3c1-0.2,2-0.4,3-0.6c0.1,1,0.2,2.1,0.3,3.2
		C10.7,90.2,9.7,90.4,8.7,90.6z"/>
	<path class="st1" d="M-1.3,29l0.5,0.3c0.7,1.1,1.3,2.2,2.1,3.3l0.1,0.2l0.1-0.2c0.8-1.6,1.8-3.2,2.8-4.7l0.1-0.2l-0.2,0
		C3,27.4,1.8,27.2,0.5,27l0,0l-0.4-0.3l0,0c-0.6-1.2-1.2-2.4-1.7-3.6l-0.1-0.2l-0.1,0.2c-1.2,1.8-2.3,3.6-3.2,5.5l-0.1,0.1H-5
		C-3.7,28.8-2.5,28.8-1.3,29z M0,26.9l0.3,0.2c-0.4,0.6-0.8,1.2-1.1,1.9l-0.3-0.2L0,26.9z M1.3,32.3c-0.6-1-1.3-2-1.9-3.1
		c0.2-0.3,0.4-0.6,0.5-0.9l2.6,1.8C2.1,30.8,1.7,31.5,1.3,32.3z M2.6,30L0,28.2c0.2-0.3,0.4-0.6,0.6-0.9c1.2,0.2,2.3,0.4,3.3,0.7
		C3.4,28.6,3,29.3,2.6,30z M-1.8,23.4c0.5,1.1,1,2.2,1.6,3.3l-0.6,0.9l-2.5-1.8C-2.8,25-2.3,24.2-1.8,23.4z M-3.3,25.9l2.5,1.8
		l-0.6,1c-1.1-0.1-2.2-0.2-3.4-0.2C-4.3,27.6-3.8,26.7-3.3,25.9z"/>
	<path class="st1" d="M5.1,20l0.4,0.4c0.4,1.2,0.9,2.4,1.3,3.6L7,24.3l0.1-0.2c1.1-1.3,2.4-2.5,3.6-3.6l0.1-0.1l-0.2-0.1
		c-1-0.6-2.1-1.1-3.4-1.6l0,0L7,18.3l0,0c-0.4-1.3-0.7-2.6-1-3.8l0-0.3l-0.2,0.2c-1.5,1.3-2.9,2.8-4.2,4.3l-0.1,0.2l0.2,0.1
		C3,19.3,4.1,19.7,5.1,20z M6.8,18.5L7,18.8c-0.5,0.5-1,0.9-1.4,1.4l-0.3-0.3C5.9,19.4,6.4,19,6.8,18.5z M7,23.8
		c-0.4-1.1-0.9-2.2-1.2-3.4l0.7-0.7l2.1,2.4C8.1,22.7,7.6,23.2,7,23.8L7,23.8z M8.7,22l-2.1-2.4l0.7-0.7c1.1,0.5,2.1,1,3.1,1.5
		C9.8,21,9.3,21.5,8.7,22L8.7,22z M5.8,14.7c0.3,1.2,0.6,2.4,0.9,3.5L6,18.9l-2.1-2.4C4.5,15.9,5.1,15.3,5.8,14.7z M3.8,16.7
		l2.1,2.4c-0.2,0.2-0.5,0.5-0.7,0.7c-1-0.4-2-0.7-3.3-1.1C2.5,18,3.1,17.3,3.8,16.7L3.8,16.7z"/>
	<path class="st1" d="M1,25.3v0.1h0.1c1.1-0.1,2.2-0.2,3.3-0.2h0.1v-0.1c-0.2-1.2-0.3-2.4-0.4-3.5v-0.1H4c-1.1,0-2.2,0-3.4,0.1H0.5
		v0.1C0.6,22.8,0.8,24,1,25.3z M3.9,21.7c0.1,1,0.2,2.1,0.4,3.2c-1,0-2,0.1-3,0.2c-0.2-1.2-0.3-2.3-0.4-3.4
		C1.8,21.7,2.9,21.7,3.9,21.7z"/>
	<path class="st1" d="M13.2,13.3l0.3,0.5c0.2,1.4,0.4,2.7,0.6,3.8v0.2l0.2-0.1c1.4-0.9,2.8-1.8,4.3-2.6l0.2-0.1l-0.1-0.1
		c-0.9-0.8-1.9-1.6-2.9-2.4l0,0L15.4,12l0,0c-0.1-1.3-0.1-2.6-0.2-3.9V7.9L15,8c-1.7,0.9-3.4,1.9-5,3l-0.2,0.1l0.2,0.1
		C11.1,11.9,12.2,12.6,13.2,13.3z M15.2,12.2l0.2,0.3c-0.6,0.3-1.1,0.7-1.7,1l-0.2-0.3C14.1,12.9,14.6,12.5,15.2,12.2L15.2,12.2z
		 M13.8,13.8l0.8-0.5l1.6,2.9c-0.6,0.4-1.3,0.8-1.9,1.2C14.2,16.3,14,15.1,13.8,13.8z M16.3,16.1l-1.5-2.8l0.8-0.5
		c1,0.8,1.9,1.5,2.7,2.2C17.6,15.3,17,15.7,16.3,16.1L16.3,16.1z M15.1,11.9l-0.9,0.5l-1.6-2.8c0.8-0.4,1.5-0.9,2.3-1.3
		C15,9.5,15.1,10.7,15.1,11.9z M12.6,9.7l1.6,2.8L13.3,13c-1-0.6-2-1.3-3-1.9C11.1,10.6,11.8,10.2,12.6,9.7z"/>
	<path class="st1" d="M22.5,8.7l0.2,0.6c-0.1,1.2-0.2,2.5-0.2,3.8v0.2l0.2-0.1c1.5-0.6,3.1-1.1,4.7-1.6l0.2-0.1l-0.1-0.2
		c-0.7-1-1.5-1.9-2.4-3l0,0L24.9,8l0,0c0.2-1.3,0.4-2.6,0.6-3.8V3.9L25.3,4c-1.9,0.5-3.7,1.1-5.5,1.8l-0.2,0.1L19.7,6
		C20.7,6.9,21.6,7.8,22.5,8.7z M24.6,8.1l0.1,0.4c-0.6,0.2-1.2,0.4-1.8,0.6l-0.1-0.4C23.4,8.5,24,8.3,24.6,8.1z M22.9,9.4L23.8,9
		l1,3.1c-0.7,0.2-1.4,0.5-2.1,0.8C22.8,11.6,22.8,10.5,22.9,9.4z M24.9,12.1l-1-3.1l0.9-0.3c0.8,1,1.5,1.9,2.2,2.8
		C26.3,11.7,25.6,11.9,24.9,12.1L24.9,12.1z M24.6,7.8l-0.9,0.3l-1-3.1c0.8-0.3,1.6-0.5,2.5-0.8C25,5.4,24.8,6.6,24.6,7.8L24.6,7.8z
		 M22.6,5.1l1,3.1l-0.9,0.3c-0.8-0.9-1.7-1.7-2.5-2.5C20.9,5.6,21.7,5.3,22.6,5.1L22.6,5.1z"/>
	<path class="st1" d="M19.8,12.9l0.1,0.1v-0.2c0.3-1.1,0.6-2.2,1-3.3V9.4h-0.1c-1-0.5-2-1-3.1-1.5l-0.1-0.1l0,0.2
		c-0.3,1.1-0.7,2.2-1,3.4v0.1h0.1C17.8,11.9,18.8,12.4,19.8,12.9z M17.9,8.2c1,0.4,1.9,0.9,2.8,1.4c-0.3,1-0.6,2-0.9,3
		c-0.9-0.4-1.8-0.9-2.8-1.3C17.3,10.2,17.6,9.2,17.9,8.2z"/>
	<path class="st1" d="M10.4,17.7l1.2,0.2h0.2v-0.2c0.1-1.1,0.2-2.3,0.3-3.4v-0.1H12c-1.1-0.3-2.2-0.5-3.3-0.8H8.5v0.1
		c-0.1,1.1-0.2,2.3-0.3,3.6v0.1h0.1C9.1,17.4,9.8,17.5,10.4,17.7z M8.8,13.7c1,0.2,2,0.4,3,0.7c-0.1,1-0.2,2.1-0.3,3.2
		c-1-0.2-2-0.4-3-0.6C8.6,15.9,8.7,14.8,8.8,13.7z"/>
	<path class="st1" d="M42.7,6v0.6c-0.6,1.1-1.1,2.2-1.7,3.4l-0.2,0.2H41c1.7,0.1,3.3,0.3,4.9,0.5h0.2v-0.2c-0.3-1.2-0.6-2.4-1-3.7
		l0,0l0.1-0.5l0,0c0.6-1.1,1.4-2.2,2.1-3.3l0.1-0.2h-0.2c-1.9-0.3-3.8-0.5-5.7-0.7h-0.2l0.1,0.2C41.8,3.6,42.2,4.8,42.7,6z
		 M44.8,6.3v0.4c-0.6-0.1-1.3-0.2-1.9-0.2V6.1C43.6,6.2,44.2,6.2,44.8,6.3z M42.8,6.8l0.9,0.1l-0.3,3.3C42.7,10,42,10,41.3,9.9
		C41.8,8.8,42.3,7.8,42.8,6.8L42.8,6.8z M45.8,10.4c-0.7-0.1-1.5-0.2-2.2-0.3l0.3-3.2L44.8,7C45.2,8.2,45.5,9.3,45.8,10.4z M45,6.1
		L44,6l0.3-3.2c0.8,0.1,1.7,0.2,2.6,0.3C46.2,4,45.6,5.1,45,6.1L45,6.1z M44.2,2.7l-0.3,3.2l-1-0.1c-0.4-1.1-0.8-2.2-1.3-3.3
		C42.5,2.6,43.3,2.6,44.2,2.7z"/>
	<path class="st1" d="M36.3,6.1L36.3,6.1c0.8,0.9,1.6,1.8,2.3,2.6l0.1,0.1l0.1-0.1C39.5,7.8,40.2,7,41,6.1l0.1-0.1L41,6
		c-0.7-0.9-1.4-1.8-2.2-2.7l-0.1-0.1l-0.1,0.1C37.8,4.2,37.1,5.1,36.3,6.1L36.3,6.1z M38.7,3.6c0.7,0.8,1.4,1.6,2,2.4
		c-0.7,0.8-1.4,1.5-2,2.3c-0.7-0.8-1.3-1.6-2-2.3C37.3,5.2,38,4.4,38.7,3.6z"/>
	<path class="st1" d="M29.1,9.7l0.1,0.1l0,0l0.1-0.1c0.5-1,1.1-2,1.7-3l0.1-0.1L31,6.5c-0.9-0.7-1.8-1.4-2.7-2.1l-0.1-0.1l0,0
		L28,4.5c-0.6,1-1.1,2-1.6,3.1v0.1l0.1,0.1C27.4,8.3,28.3,9,29.1,9.7z M30.7,6.7c-0.5,0.9-1,1.8-1.5,2.7c-0.8-0.6-1.6-1.3-2.5-1.9
		c0.5-0.9,1-1.9,1.5-2.8C29.1,5.4,29.9,6,30.7,6.7L30.7,6.7z"/>
	<path class="st1" d="M46.7,6.6L46.7,6.6l0,0.2c0.6,1,1.1,2,1.6,3l0.1,0.1l0.1-0.1c0.9-0.7,1.8-1.4,2.7-2l0.1-0.1V7.6
		c-0.5-1-1.1-2-1.6-3.1l-0.1-0.1l-0.1,0.1c-0.5,0.4-1.1,0.8-1.6,1.2L46.7,6.6z M51,7.6c-0.8,0.6-1.7,1.2-2.5,1.9
		c-0.5-0.9-1-1.8-1.5-2.7c0.8-0.7,1.6-1.3,2.5-1.9C50,5.7,50.5,6.6,51,7.6z"/>
	<path class="st1" d="M52.7,7.9l-0.2,0.6c-0.8,0.9-1.5,1.9-2.4,3l-0.1,0.2l0.2,0.1c1.6,0.4,3.1,1,4.7,1.6l0.2,0.1v-0.2
		c0-1.2-0.1-2.5-0.2-3.8V9.2l0.2-0.5l0,0C56,7.8,56.9,6.9,57.8,6L58,5.8l-0.2-0.1C56,5,54.2,4.4,52.3,3.9l-0.2-0.1v0.2
		C52.3,5.3,52.6,6.6,52.7,7.9z M54.8,8.7l-0.1,0.4c-0.6-0.2-1.2-0.4-1.8-0.6l0.1-0.4C53.6,8.3,54.2,8.5,54.8,8.7z M52.7,8.7L53.6,9
		l-1,3.1c-0.7-0.2-1.4-0.4-2.1-0.6C51.3,10.5,52,9.6,52.7,8.7L52.7,8.7z M52.8,12.2l1-3.1l0.9,0.3c0.1,1.3,0.2,2.4,0.2,3.5
		C54.2,12.6,53.5,12.4,52.8,12.2z M55,8.5l-0.9-0.3l1-3.1c0.8,0.3,1.6,0.6,2.4,0.9C56.6,6.8,55.8,7.6,55,8.5L55,8.5z M54.9,5.1
		l-1,3.1L53,7.8c-0.2-1.2-0.4-2.4-0.6-3.5C53.3,4.5,54.1,4.7,54.9,5.1L54.9,5.1z"/>
	<path class="st1" d="M61.9,12.5C61,13.2,60,14,59,14.9L58.8,15l0.2,0.1c1.5,0.8,2.9,1.7,4.3,2.6l0.2,0.1v-0.2
		c0.2-1.1,0.4-2.3,0.6-3.8l0,0l0.2-0.4l0,0c1-0.7,2.1-1.4,3.2-2.1l0.2-0.1l-0.2-0.1c-1.6-1.1-3.3-2.1-5-3.1l-0.2-0.1v0.2
		c0,1.3-0.1,2.6-0.2,3.9L61.9,12.5z M64.1,13.2l-0.2,0.3c-0.6-0.4-1.1-0.7-1.7-1l0.2-0.3C63,12.5,63.5,12.9,64.1,13.2L64.1,13.2z
		 M62.1,12.8l0.8,0.5l-1.6,2.8c-0.6-0.4-1.3-0.8-1.9-1.1C60.3,14.2,61.1,13.4,62.1,12.8L62.1,12.8z M63.3,17.4
		c-0.6-0.4-1.2-0.8-1.9-1.2l1.6-2.8l0.8,0.5C63.6,15.2,63.4,16.3,63.3,17.4L63.3,17.4z M64.3,13l-0.8-0.5L65,9.7
		c0.8,0.5,1.5,0.9,2.2,1.4C66.2,11.7,65.2,12.4,64.3,13L64.3,13z M62.6,8.3c0.8,0.4,1.5,0.9,2.3,1.3l-1.6,2.8
		c-0.3-0.2-0.6-0.3-0.8-0.5C62.5,10.7,62.6,9.5,62.6,8.3z"/>
	<path class="st1" d="M56.3,9.3v0.1c0.4,1.1,0.7,2.2,1,3.2v0.2l0.2-0.1c1-0.5,2-1,3-1.4h0.1v-0.1c-0.3-1.1-0.6-2.2-1-3.4V7.7
		l-0.1,0.1C58.5,8.3,57.4,8.8,56.3,9.3L56.3,9.3z M59.5,8.1c0.3,1,0.6,2.1,0.9,3.1c-0.9,0.4-1.9,0.8-2.8,1.3c-0.3-1-0.6-2-0.9-3
		C57.6,9,58.6,8.5,59.5,8.1z"/>
	<path class="st1" d="M70.2,18.7c-1.1,0.5-2.2,1-3.3,1.6l-0.2,0.1l0.2,0.1c1.3,1.2,2.5,2.4,3.6,3.7l0.2,0.2l0.1-0.2
		c0.5-1.2,0.9-2.4,1.3-3.7l0,0l0.3-0.4l0,0c1.1-0.4,2.2-0.8,3.5-1.2l0.2-0.1L76,18.7c-1.3-1.5-2.7-3-4.2-4.3l-0.2-0.1v0.2
		c-0.3,1.3-0.6,2.5-1,3.8L70.2,18.7z M72.2,19.9L72,20.2c-0.5-0.5-0.9-1-1.4-1.4l0.2-0.3C71.2,18.9,71.7,19.4,72.2,19.9L72.2,19.9z
		 M67.2,20.5c1.1-0.6,2.1-1.1,3.1-1.5c0.2,0.2,0.5,0.5,0.7,0.7L68.9,22C68.3,21.5,67.8,21,67.2,20.5L67.2,20.5z M70.6,23.8
		c-0.5-0.6-1-1.1-1.6-1.7l2.1-2.4l0.7,0.7C71.4,21.6,71,22.7,70.6,23.8L70.6,23.8z M75.7,18.6c-1.2,0.4-2.3,0.8-3.3,1.1
		c-0.2-0.2-0.5-0.5-0.7-0.7l2.1-2.4C74.4,17.3,75.1,18,75.7,18.6L75.7,18.6z M71.8,14.7c0.7,0.6,1.3,1.2,1.9,1.9
		c-0.7,0.8-1.4,1.6-2.1,2.4l-0.8-0.8C71.2,17.1,71.5,15.9,71.8,14.7z"/>
	<path class="st1" d="M77,27c-1.1,0.2-2.3,0.4-3.6,0.8h-0.2l0.1,0.2c1,1.5,1.9,3.1,2.8,4.7l0.1,0.2l0.1-0.2c0.7-1.1,1.4-2.2,2.1-3.3
		l0,0l0.4-0.3l0,0c1.3-0.1,2.5-0.2,3.7-0.2h0.3l-0.1-0.2c-1-1.9-2.1-3.7-3.2-5.5l-0.1-0.2L79.2,23c-0.5,1.2-1.1,2.4-1.7,3.6L77,27z
		 M78.7,28.8L78.4,29c-0.4-0.6-0.7-1.2-1.1-1.9l0.3-0.2C78,27.5,78.3,28.1,78.7,28.8z M77,27.2c0.2,0.3,0.4,0.6,0.6,0.9L75,29.9
		c-0.4-0.7-0.8-1.4-1.3-2.1C74.9,27.6,76,27.4,77,27.2z M76.3,32.2c-0.4-0.7-0.8-1.4-1.2-2.1l2.6-1.8l0.5,0.9
		C77.6,30.2,76.9,31.2,76.3,32.2L76.3,32.2z M78.9,28.6l-0.6-1l2.5-1.8c0.5,0.8,1,1.7,1.4,2.5C81.3,28.5,80.2,28.6,78.9,28.6
		L78.9,28.6z M79.4,23.3c0.5,0.8,1,1.6,1.5,2.4l-2.5,1.8c-0.2-0.3-0.4-0.6-0.6-0.9C78.3,25.6,78.8,24.5,79.4,23.3L79.4,23.3z"/>
	<path class="st1" d="M73.3,21.2v0.1c-0.1,1.3-0.2,2.4-0.4,3.5V25h0.2c1.1,0,2.2,0.1,3.3,0.2h0.1v-0.1c0.2-1.1,0.3-2.3,0.5-3.6v-0.1
		h-0.2c-1.2-0.1-2.3-0.1-3.4-0.1L73.3,21.2L73.3,21.2z M76.6,21.6c-0.1,1.2-0.3,2.3-0.4,3.4c-1-0.1-2-0.2-3-0.2
		c0.2-1,0.3-2.1,0.3-3.2C74.6,21.5,75.6,21.5,76.6,21.6L76.6,21.6z"/>
	<path class="st1" d="M65.6,14.3v0.1c0.1,1.1,0.2,2.3,0.3,3.4V18H66c1.1-0.2,2.2-0.5,3.2-0.6h0.1l0,0v-0.2c0-0.7-0.1-1.5-0.1-2.2
		c0-0.4-0.1-0.8-0.1-1.2v-0.1l0,0H69c-1.1,0.2-2.2,0.5-3.3,0.7L65.6,14.3z M65.9,14.5l0.9-0.2c0.7-0.2,1.4-0.3,2.2-0.5
		c0.1,1.2,0.2,2.2,0.2,3.3c-1,0.2-2,0.4-3,0.6C66.1,16.6,66,15.6,65.9,14.5z"/>
	<path class="st1" d="M82,37.4c-1.1-0.1-2.3-0.2-3.6-0.3h-0.2l0.1,0.2c0.7,1.9,1.2,3.8,1.7,5.7l0.1,0.2l0.2-0.2
		c0.9-0.9,1.8-1.9,2.7-2.9l0,0l0.4-0.2l0,0c1.1,0.2,2.3,0.5,3.6,0.9l0.2,0.1l-0.1-0.2c-0.5-2.3-1.2-4.5-2-6.7L85,33.8L84.8,34
		c-0.8,1.1-1.6,2.1-2.4,3.2L82,37.4z M83.2,39.8l-0.3,0.1c-0.2-0.8-0.4-1.5-0.7-2.3l0.3-0.1C82.7,38.3,83,39,83.2,39.8z M81.9,37.7
		c0.1,0.4,0.2,0.8,0.3,1.1l-2.9,1.1c-0.3-0.8-0.5-1.7-0.8-2.5C79.7,37.5,80.8,37.6,81.9,37.7z M80.1,42.7c-0.2-0.9-0.5-1.8-0.7-2.6
		l2.9-1.1l0.3,1.2C81.8,41,81,41.9,80.1,42.7L80.1,42.7z M83.5,39.8c-0.1-0.4-0.2-0.8-0.3-1.2l2.8-1.1c0.3,1,0.6,2.1,0.8,3.1
		C85.6,40.3,84.5,40,83.5,39.8L83.5,39.8z M84.9,34.4c0.3,1,0.7,2,1,3l-2.8,1.1c-0.1-0.4-0.2-0.8-0.4-1.2
		C83.5,36.4,84.2,35.4,84.9,34.4L84.9,34.4z"/>
	<path class="st1" d="M88.8,55.3c0-2.7-0.2-5.4-0.5-7.9v-0.3l-0.2,0.2c-1,0.9-2,1.8-3,2.6L84.5,50c-1.2-0.6-2.4-1.1-3.4-1.5
		l-0.2-0.1v0.2c0.2,2.2,0.4,4.4,0.4,6.8v0.2l0.2-0.1c1.1-0.7,2.2-1.5,3.2-2.2l0,0h0.4l0,0c1.1,0.7,2.2,1.4,3.3,2.2l0.2,0.2
		L88.8,55.3z M88,47.7c0.1,1.2,0.2,2.3,0.3,3.5l-3,0.3c0-0.5-0.1-0.9-0.1-1.4C86.2,49.3,87.1,48.5,88,47.7z M84.8,53
		c0-0.9-0.1-1.8-0.2-2.8H85c0.1,0.9,0.1,1.8,0.2,2.8L84.8,53z M81.2,48.8c1,0.4,2,0.8,3.2,1.4c0,0.5,0.1,0.9,0.1,1.4l-3,0.3
		C81.4,50.9,81.3,49.9,81.2,48.8L81.2,48.8z M81.6,55.2c0-1.1-0.1-2.1-0.1-3.2l3-0.3c0,0.5,0,0.9,0.1,1.4
		C83.6,53.8,82.6,54.5,81.6,55.2z M85.5,53.1c0-0.5,0-1-0.1-1.4l3-0.3c0.1,1.2,0.1,2.5,0.2,3.7C87.5,54.4,86.5,53.7,85.5,53.1
		L85.5,53.1z"/>
	<path class="st1" d="M83.6,41.8l-0.1,0.1c-0.6,1.3-1.2,2.3-1.8,3.3l-0.1,0.1l0.1,0.1c1,0.7,1.9,1.5,2.8,2.3l0.1,0.1l0.1-0.1
		c0.7-1.1,1.3-2.3,1.9-3.5v-0.1L86.7,44c-0.9-0.7-1.9-1.5-2.9-2.2L83.6,41.8z M84.6,47.4C83.8,46.7,83,46,82,45.3
		c0.6-1,1.1-2,1.7-3.1c1,0.7,1.9,1.3,2.7,2C85.9,45.3,85.3,46.3,84.6,47.4L84.6,47.4z"/>
	<path class="st1" d="M79.6,30.6v0.1c-0.4,1.3-0.8,2.4-1.2,3.5l-0.1,0.1h0.1c1.1,0.4,2.1,0.8,3.1,1.2l0.1,0.1v-0.1
		c0.4-1.1,0.8-2.3,1.2-3.6v-0.1h-0.1C81.8,31.3,80.7,31,79.6,30.6L79.6,30.6z M82.8,31.9c-0.4,1.2-0.7,2.3-1.1,3.3
		c-1-0.4-1.9-0.8-2.9-1.1c0.4-1,0.7-2.1,1-3.2C80.8,31.2,81.8,31.6,82.8,31.9z"/>
</g>
<g id="Capa_3">
</g>
<g id="Capa_2">
	<g>
		<polygon class="st5" points="43.3,3 49.1,2.3 47.7,5.8 47.7,6.5 49.4,10 44.5,10.5 45.5,6.8 45.4,6.2 		"/>
		<line class="st4" x1="45.5" y1="6.1" x2="47.7" y2="5.9"/>
		<line class="st4" x1="45.6" y1="6.8" x2="47.7" y2="6.6"/>
		<line class="st6" x1="46.6" y1="5.9" x2="46.2" y2="2.7"/>
		<line class="st6" x1="47" y1="10.1" x2="46.6" y2="6.6"/>
	</g>
	<g>
		<polygon class="st5" points="32.9,5.9 38.4,4 37.8,7.8 38,8.4 40.4,11.4 35.7,13 35.9,9.2 35.7,8.6 		"/>
		<line class="st4" x1="35.7" y1="8.5" x2="37.8" y2="7.8"/>
		<line class="st4" x1="35.9" y1="9.2" x2="38" y2="8.5"/>
		<line class="st6" x1="36.8" y1="8.1" x2="35.7" y2="5"/>
		<line class="st6" x1="38" y1="12.1" x2="36.9" y2="8.8"/>
	</g>
	<g>
		<polygon class="st5" points="23.4,11 28.4,8 28.6,11.8 28.9,12.4 31.9,14.8 27.7,17.3 27,13.6 26.7,13 		"/>
		<line class="st4" x1="26.7" y1="13" x2="28.6" y2="11.8"/>
		<line class="st4" x1="27" y1="13.5" x2="28.9" y2="12.4"/>
		<line class="st6" x1="27.6" y1="12.3" x2="25.9" y2="9.5"/>
		<line class="st6" x1="29.7" y1="16" x2="27.9" y2="12.9"/>
	</g>
	<g>
		<polygon class="st5" points="15.2,18 19.4,14 20.4,17.6 20.9,18.2 24.3,19.9 20.7,23.3 19.3,19.8 18.8,19.3 		"/>
		<line class="st4" x1="18.8" y1="19.2" x2="20.5" y2="17.7"/>
		<line class="st4" x1="19.3" y1="19.7" x2="20.9" y2="18.3"/>
		<line class="st6" x1="19.6" y1="18.4" x2="17.3" y2="16"/>
		<line class="st6" x1="22.5" y1="21.5" x2="20.1" y2="18.9"/>
	</g>
	<g>
		<polygon class="st5" points="8.7,26.6 12,21.8 13.7,25.1 14.3,25.6 18,26.5 15.2,30.6 13.1,27.5 12.5,27.1 		"/>
		<line class="st4" x1="12.5" y1="27" x2="13.8" y2="25.2"/>
		<line class="st4" x1="13.1" y1="27.4" x2="14.3" y2="25.6"/>
		<line class="st6" x1="13.1" y1="26" x2="10.4" y2="24.2"/>
		<line class="st6" x1="16.5" y1="28.5" x2="13.6" y2="26.5"/>
	</g>
	<g>
		<polygon class="st5" points="4.2,36.4 6.3,31 8.8,33.9 9.4,34.2 13.2,34.3 11.5,38.9 8.7,36.3 8,36.1 		"/>
		<line class="st4" x1="8" y1="36" x2="8.8" y2="33.9"/>
		<line class="st4" x1="8.7" y1="36.3" x2="9.5" y2="34.3"/>
		<line class="st6" x1="8.4" y1="34.9" x2="5.3" y2="33.7"/>
		<line class="st6" x1="12.3" y1="36.6" x2="9" y2="35.2"/>
	</g>
	<g>
		<polygon class="st5" points="1.9,47 2.9,41.2 5.9,43.5 6.6,43.7 10.3,43 9.5,47.9 6.3,45.9 5.6,45.8 		"/>
		<line class="st4" x1="5.6" y1="45.8" x2="5.9" y2="43.5"/>
		<line class="st4" x1="6.2" y1="45.9" x2="6.6" y2="43.8"/>
		<line class="st6" x1="5.7" y1="44.6" x2="2.4" y2="44.1"/>
		<line class="st6" x1="9.8" y1="45.4" x2="6.4" y2="44.8"/>
	</g>
	<g>
		<polygon class="st5" points="2,57.8 1.6,52 5.1,53.6 5.8,53.6 9.3,52.1 9.6,57 6,55.8 5.3,55.9 		"/>
		<line class="st4" x1="5.3" y1="55.8" x2="5.1" y2="53.6"/>
		<line class="st4" x1="5.9" y1="55.8" x2="5.8" y2="53.6"/>
		<line class="st6" x1="5.1" y1="54.7" x2="1.8" y2="54.9"/>
		<line class="st6" x1="9.3" y1="54.5" x2="5.8" y2="54.7"/>
	</g>
	<g>
		<polygon class="st5" points="4.3,68.3 2.8,62.7 6.5,63.5 7.2,63.4 10.3,61.2 11.6,65.9 7.8,65.5 7.1,65.7 		"/>
		<line class="st4" x1="7.1" y1="65.7" x2="6.5" y2="63.5"/>
		<line class="st4" x1="7.8" y1="65.5" x2="7.2" y2="63.4"/>
		<line class="st6" x1="6.7" y1="64.6" x2="3.6" y2="65.5"/>
		<line class="st6" x1="10.8" y1="63.6" x2="7.4" y2="64.5"/>
	</g>
	<g>
		<polygon class="st5" points="8.9,78.1 6.2,73 10,73 10.6,72.7 13.2,69.9 15.5,74.2 11.7,74.6 11.1,75 		"/>
		<line class="st4" x1="11.1" y1="74.9" x2="10" y2="72.9"/>
		<line class="st4" x1="11.6" y1="74.6" x2="10.7" y2="72.7"/>
		<line class="st6" x1="10.4" y1="74" x2="7.6" y2="75.5"/>
		<line class="st6" x1="14.2" y1="72.1" x2="11.1" y2="73.7"/>
	</g>
	<g>
		<polygon class="st5" points="15.5,86.7 11.7,82.2 15.4,81.4 16,81 17.9,77.7 21.1,81.4 17.5,82.7 16.9,83.1 		"/>
		<line class="st4" x1="16.9" y1="83.1" x2="15.4" y2="81.4"/>
		<line class="st4" x1="17.4" y1="82.7" x2="16" y2="81"/>
		<line class="st6" x1="16.1" y1="82.3" x2="13.6" y2="84.4"/>
		<line class="st6" x1="19.4" y1="79.6" x2="16.7" y2="81.9"/>
	</g>
	<g>
		<polygon class="st5" points="23.7,93.6 19.1,90.1 22.5,88.5 23,88 24.1,84.4 28.1,87.3 24.8,89.3 24.4,89.9 		"/>
		<line class="st4" x1="24.4" y1="89.9" x2="22.5" y2="88.5"/>
		<line class="st4" x1="24.7" y1="89.3" x2="23.1" y2="88"/>
		<line class="st6" x1="23.4" y1="89.2" x2="21.4" y2="91.8"/>
		<line class="st6" x1="26" y1="85.9" x2="23.9" y2="88.7"/>
	</g>
	<g>
		<polygon class="st5" points="33.3,98.6 28,96.2 31,93.9 31.4,93.3 31.7,89.5 36.2,91.5 33.4,94.2 33.1,94.8 		"/>
		<line class="st4" x1="33.1" y1="94.8" x2="31" y2="93.9"/>
		<line class="st4" x1="33.3" y1="94.2" x2="31.4" y2="93.3"/>
		<line class="st6" x1="32" y1="94.4" x2="30.6" y2="97.4"/>
		<line class="st6" x1="33.9" y1="90.6" x2="32.4" y2="93.8"/>
	</g>
	<g>
		<polygon class="st5" points="43.7,101.5 38,100.3 40.5,97.4 40.7,96.7 40.2,92.9 45,93.9 42.9,97.1 42.7,97.8 		"/>
		<line class="st4" x1="42.7" y1="97.8" x2="40.5" y2="97.3"/>
		<line class="st4" x1="42.8" y1="97.1" x2="40.7" y2="96.6"/>
		<line class="st6" x1="41.5" y1="97.6" x2="40.8" y2="100.8"/>
		<line class="st6" x1="42.5" y1="93.5" x2="41.7" y2="97"/>
	</g>
	<g>
		<polygon class="st5" points="54.5,102 48.7,102.1 50.4,98.7 50.5,98 49.2,94.4 54.1,94.4 52.7,97.9 52.7,98.6 		"/>
		<line class="st4" x1="52.7" y1="98.6" x2="50.4" y2="98.7"/>
		<line class="st4" x1="52.7" y1="98" x2="50.5" y2="97.9"/>
		<line class="st6" x1="51.5" y1="98.7" x2="51.6" y2="102"/>
		<line class="st6" x1="51.6" y1="94.5" x2="51.6" y2="98"/>
	</g>
	<g>
		<polygon class="st5" points="65.1,100.2 59.4,101.5 60.5,97.9 60.4,97.2 58.3,93.9 63.1,92.8 62.5,96.6 62.7,97.3 		"/>
		<line class="st4" x1="62.7" y1="97.3" x2="60.5" y2="97.8"/>
		<line class="st4" x1="62.5" y1="96.7" x2="60.4" y2="97.1"/>
		<line class="st6" x1="61.5" y1="97.7" x2="62.3" y2="100.9"/>
		<line class="st6" x1="60.7" y1="93.5" x2="61.5" y2="96.9"/>
	</g>
	<g>
		<polygon class="st5" points="75.1,96.2 69.9,98.7 70.1,94.9 69.8,94.2 67.1,91.5 71.6,89.4 71.8,93.2 72.1,93.9 		"/>
		<line class="st4" x1="72.1" y1="93.9" x2="70.1" y2="94.9"/>
		<line class="st4" x1="71.8" y1="93.3" x2="69.8" y2="94.2"/>
		<line class="st6" x1="71.1" y1="94.5" x2="72.5" y2="97.4"/>
		<line class="st6" x1="69.4" y1="90.6" x2="70.8" y2="93.8"/>
	</g>
	<g>
		<polygon class="st5" points="84.1,90.1 79.4,93.7 78.8,89.9 78.4,89.3 75.2,87.3 79.1,84.2 80.2,87.9 80.6,88.5 		"/>
		<line class="st4" x1="80.6" y1="88.5" x2="78.8" y2="89.9"/>
		<line class="st4" x1="80.2" y1="88" x2="78.4" y2="89.3"/>
		<line class="st6" x1="79.7" y1="89.3" x2="81.7" y2="91.9"/>
		<line class="st6" x1="77.2" y1="85.9" x2="79.3" y2="88.7"/>
	</g>
	<g>
		<polygon class="st5" points="91.4,82.2 87.7,86.7 86.3,83.2 85.8,82.7 82.2,81.3 85.4,77.6 87.2,80.9 87.7,81.4 		"/>
		<line class="st4" x1="87.7" y1="81.4" x2="86.3" y2="83.2"/>
		<line class="st4" x1="87.2" y1="81" x2="85.8" y2="82.6"/>
		<line class="st6" x1="87" y1="82.4" x2="89.5" y2="84.5"/>
		<line class="st6" x1="83.9" y1="79.6" x2="86.5" y2="81.8"/>
	</g>
	<g>
		<polygon class="st5" points="97,73 94.3,78.1 92.1,75 91.5,74.6 87.8,74.1 90,69.7 92.5,72.6 93.1,72.9 		"/>
		<line class="st4" x1="93.2" y1="73" x2="92.1" y2="75"/>
		<line class="st4" x1="92.5" y1="72.7" x2="91.5" y2="74.6"/>
		<line class="st6" x1="92.7" y1="74" x2="95.6" y2="75.6"/>
		<line class="st6" x1="89" y1="72" x2="92.1" y2="73.6"/>
	</g>
	<g>
		<polygon class="st5" points="100.4,62.7 98.8,68.4 96.1,65.7 95.4,65.5 91.6,65.8 92.9,61 96,63.3 96.6,63.5 		"/>
		<line class="st4" x1="96.6" y1="63.5" x2="96.1" y2="65.7"/>
		<line class="st4" x1="96" y1="63.4" x2="95.4" y2="65.4"/>
		<line class="st6" x1="96.4" y1="64.7" x2="99.6" y2="65.5"/>
		<line class="st6" x1="92.4" y1="63.5" x2="95.7" y2="64.4"/>
	</g>
	<g>
		<polygon class="st5" points="101.5,52 101.2,57.8 98,55.9 97.3,55.8 93.6,56.9 93.8,51.9 97.3,53.5 98,53.6 		"/>
		<line class="st4" x1="98" y1="53.6" x2="97.9" y2="55.9"/>
		<line class="st4" x1="97.4" y1="53.6" x2="97.2" y2="55.7"/>
		<line class="st6" x1="98.1" y1="54.8" x2="101.3" y2="54.9"/>
		<line class="st6" x1="93.8" y1="54.4" x2="97.3" y2="54.7"/>
	</g>
	<g>
		<polygon class="st5" points="100.3,41.3 101.3,47 97.7,45.8 97,45.9 93.6,47.7 92.8,42.9 96.5,43.7 97.2,43.5 		"/>
		<line class="st4" x1="97.2" y1="43.6" x2="97.6" y2="45.8"/>
		<line class="st4" x1="96.6" y1="43.7" x2="96.9" y2="45.8"/>
		<line class="st6" x1="97.5" y1="44.7" x2="100.7" y2="44.2"/>
		<line class="st6" x1="93.3" y1="45.3" x2="96.8" y2="44.8"/>
	</g>
	<g>
		<polygon class="st5" points="96.8,31 99,36.5 95.2,36 94.5,36.2 91.7,38.8 89.8,34.2 93.7,34.2 94.3,33.9 		"/>
		<line class="st4" x1="94.3" y1="34" x2="95.2" y2="36.1"/>
		<line class="st4" x1="93.7" y1="34.2" x2="94.5" y2="36.2"/>
		<line class="st6" x1="94.8" y1="35" x2="97.9" y2="33.8"/>
		<line class="st6" x1="90.9" y1="36.5" x2="94.2" y2="35.2"/>
	</g>
	<g>
		<polygon class="st5" points="91.2,21.8 94.5,26.6 90.7,27 90.1,27.4 87.9,30.5 85.1,26.4 88.8,25.6 89.4,25.2 		"/>
		<line class="st4" x1="89.4" y1="25.2" x2="90.7" y2="27.1"/>
		<line class="st4" x1="88.9" y1="25.6" x2="90" y2="27.4"/>
		<line class="st6" x1="90.1" y1="26.1" x2="92.8" y2="24.3"/>
		<line class="st6" x1="86.6" y1="28.4" x2="89.5" y2="26.5"/>
	</g>
	<g>
		<polygon class="st5" points="83.7,14 88,18 84.4,19.2 83.9,19.7 82.4,23.2 78.8,19.8 82.2,18.2 82.7,17.7 		"/>
		<line class="st4" x1="82.7" y1="17.7" x2="84.4" y2="19.2"/>
		<line class="st4" x1="82.3" y1="18.2" x2="83.8" y2="19.7"/>
		<line class="st6" x1="83.6" y1="18.4" x2="85.9" y2="16"/>
		<line class="st6" x1="80.7" y1="21.4" x2="83.1" y2="18.9"/>
	</g>
	<g>
		<polygon class="st5" points="74.8,8 79.8,11 76.5,12.9 76.1,13.5 75.4,17.2 71.2,14.7 74.2,12.4 74.5,11.8 		"/>
		<line class="st4" x1="74.6" y1="11.8" x2="76.5" y2="13"/>
		<line class="st4" x1="74.3" y1="12.4" x2="76.1" y2="13.5"/>
		<line class="st6" x1="75.6" y1="12.3" x2="77.3" y2="9.5"/>
		<line class="st6" x1="73.4" y1="15.9" x2="75.2" y2="12.9"/>
	</g>
	<g>
		<polygon class="st5" points="64.7,4 70.3,5.9 67.5,8.5 67.2,9.1 67.3,12.9 62.7,11.4 65.1,8.5 65.3,7.8 		"/>
		<line class="st4" x1="65.4" y1="7.8" x2="67.5" y2="8.5"/>
		<line class="st4" x1="65.2" y1="8.5" x2="67.2" y2="9.2"/>
		<line class="st6" x1="66.5" y1="8.1" x2="67.5" y2="5"/>
		<line class="st6" x1="65.1" y1="12.1" x2="66.2" y2="8.8"/>
	</g>
	<g>
		<polygon class="st5" points="54.1,2.3 59.9,2.9 57.8,6.1 57.6,6.8 58.5,10.5 53.6,10 55.4,6.6 55.5,5.9 		"/>
		<line class="st4" x1="55.5" y1="5.9" x2="57.7" y2="6.1"/>
		<line class="st4" x1="55.4" y1="6.6" x2="57.6" y2="6.8"/>
		<line class="st6" x1="56.7" y1="5.9" x2="57" y2="2.7"/>
		<line class="st6" x1="56.1" y1="10.1" x2="56.5" y2="6.6"/>
	</g>
	<polygon class="st4" points="49.4,6 51.5,3.4 53.6,6 51.5,8.5 	"/>
	<polygon class="st4" points="39.5,7.6 41,4.6 43.7,6.6 42.1,9.5 	"/>
	<polygon class="st4" points="30.2,11.2 31.1,8 34,9.4 33.2,12.5 	"/>
	<polygon class="st4" points="21.9,16.7 22,13.4 25.3,14.2 25.1,17.4 	"/>
	<polygon class="st4" points="15,24 14.4,20.7 17.7,20.7 18.2,23.9 	"/>
	<polygon class="st4" points="9.8,32.5 8.5,29.4 11.7,28.7 12.9,31.8 	"/>
	<polygon class="st4" points="6.5,41.9 4.6,39.2 7.6,37.9 9.5,40.5 	"/>
	<polygon class="st4" points="5.3,51.9 2.9,49.6 5.6,47.6 7.9,49.9 	"/>
	<polygon class="st4" points="6.4,61.8 3.5,60.1 5.7,57.6 8.5,59.3 	"/>
	<polygon class="st4" points="9.5,71.3 6.3,70.3 7.9,67.4 11,68.4 	"/>
	<polygon class="st4" points="14.6,79.9 11.2,79.6 12.2,76.4 15.4,76.8 	"/>
	<polygon class="st4" points="21.4,87.2 18.1,87.6 18.3,84.3 21.6,84 	"/>
	<polygon class="st4" points="29.6,92.9 26.5,94 26,90.7 29.1,89.7 	"/>
	<polygon class="st4" points="38.9,96.7 36.1,98.4 34.9,95.3 37.7,93.6 	"/>
	<polygon class="st4" points="48.8,98.3 46.4,100.7 44.5,97.9 46.9,95.6 	"/>
	<polygon class="st4" points="58.8,97.9 56.9,100.7 54.5,98.3 56.4,95.6 	"/>
	<polygon class="st4" points="68.4,95.3 67.2,98.4 64.4,96.6 65.6,93.6 	"/>
	<polygon class="st4" points="77.3,90.6 76.8,94 73.6,92.8 74.2,89.6 	"/>
	<polygon class="st4" points="84.9,84.2 85.2,87.6 81.9,87.2 81.7,83.9 	"/>
	<polygon class="st4" points="91,76.3 92,79.5 88.7,79.8 87.8,76.7 	"/>
	<polygon class="st4" points="95.3,67.3 96.9,70.2 93.7,71.2 92.2,68.3 	"/>
	<polygon class="st4" points="97.5,57.5 99.7,60 96.8,61.7 94.7,59.2 	"/>
	<polygon class="st4" points="97.6,47.5 100.3,49.5 97.8,51.7 95.2,49.8 	"/>
	<polygon class="st4" points="95.5,37.7 98.6,39.1 96.7,41.8 93.7,40.5 	"/>
	<polygon class="st4" points="91.4,28.6 94.6,29.3 93.4,32.4 90.2,31.7 	"/>
	<polygon class="st4" points="85.4,20.6 88.7,20.6 88.1,23.8 84.9,23.9 	"/>
	<polygon class="st4" points="77.8,14.1 81.1,13.3 81.2,16.7 78,17.4 	"/>
	<polygon class="st4" points="69,9.4 72,7.9 72.8,11.1 69.9,12.5 	"/>
	<polygon class="st4" points="59.4,6.6 62,4.6 63.5,7.5 60.9,9.5 	"/>
</g>
</svg>
