<?xml version="1.0" encoding="utf-8"?>
<!-- Generator: Adobe Illustrator 26.2.1, SVG Export Plug-In . SVG Version: 6.00 Build 0)  -->
<svg version="1.1" xmlns="http://www.w3.org/2000/svg" xmlns:xlink="http://www.w3.org/1999/xlink" x="0px" y="0px"
	 viewBox="0 0 1602.2 1602.2" style="enable-background:new 0 0 1602.2 1602.2;" xml:space="preserve">
<style type="text/css">
	.st0{display:none;}
	.st1{display:inline;}
	
		.st2{clip-path:url(#SVGID_00000127734300932489282650000011275540426666219147_);fill:none;stroke:#020203;stroke-width:2;stroke-linecap:round;stroke-linejoin:round;stroke-miterlimit:10;}
	
		.st3{clip-path:url(#SVGID_00000127734300932489282650000011275540426666219147_);fill:none;stroke:#020203;stroke-width:0.6;stroke-linecap:round;stroke-linejoin:round;stroke-miterlimit:10;}
	
		.st4{clip-path:url(#SVGID_00000088093423821256129630000002290219196014821537_);fill:none;stroke:#020203;stroke-width:0.6;stroke-linecap:round;stroke-linejoin:round;stroke-miterlimit:10;}
	
		.st5{clip-path:url(#SVGID_00000088093423821256129630000002290219196014821537_);fill:none;stroke:#020203;stroke-width:2;stroke-linecap:round;stroke-linejoin:round;stroke-miterlimit:10;}
	.st6{clip-path:url(#SVGID_00000053523973190973071610000009946723558097763501_);fill:none;stroke:#020203;stroke-miterlimit:10;}
	
		.st7{clip-path:url(#SVGID_00000053523973190973071610000009946723558097763501_);fill:none;stroke:#020203;stroke-width:2;stroke-linecap:round;stroke-linejoin:round;stroke-miterlimit:10;}
	
		.st8{clip-path:url(#SVGID_00000031198483350666637490000017656536108776587651_);fill:none;stroke:#020203;stroke-width:2;stroke-linecap:round;stroke-linejoin:round;stroke-miterlimit:10;}
	.st9{clip-path:url(#SVGID_00000031198483350666637490000017656536108776587651_);fill:none;stroke:#020203;stroke-miterlimit:10;}
</style>
<g id="Capa_2" class="st0">
	<g class="st1">
		<defs>
			<rect id="SVGID_00000088821524454622996260000015071803386154222228_" x="2423.3" width="1597.4" height="2293.6"/>
		</defs>
		<clipPath id="SVGID_00000011015968536471557720000000641393172779037863_">
			<use xlink:href="#SVGID_00000088821524454622996260000015071803386154222228_"  style="overflow:visible;"/>
		</clipPath>
		<g style="clip-path:url(#SVGID_00000011015968536471557720000000641393172779037863_);">
			
				<image style="overflow:visible;" width="1920" height="1080" xlink:href="1717BDE2.jpg"  transform="matrix(3.0577 0 0 3.0577 131.4675 -577.4553)">
			</image>
		</g>
	</g>
	<g class="st1">
		<defs>
			<rect id="SVGID_00000036212674123955999130000010081727197115232182_" x="-2565.8" y="1.6" width="1600" height="2288"/>
		</defs>
		<clipPath id="SVGID_00000088840133514120240130000017543971813145749181_">
			<use xlink:href="#SVGID_00000036212674123955999130000010081727197115232182_"  style="overflow:visible;"/>
		</clipPath>
		<g style="clip-path:url(#SVGID_00000088840133514120240130000017543971813145749181_);">
			
				<image style="overflow:visible;" width="1920" height="1080" xlink:href="1717BDE6.jpg"  transform="matrix(3.0633 0 0 3.0633 -4589.8052 -576.1412)">
			</image>
		</g>
	</g>
	<g class="st1">
		<defs>
			<rect id="SVGID_00000076604192499611338220000011337636193267078066_" y="0.3" width="1600" height="2282.3"/>
		</defs>
		<clipPath id="SVGID_00000075871442724733747270000012086989751977530255_">
			<use xlink:href="#SVGID_00000076604192499611338220000011337636193267078066_"  style="overflow:visible;"/>
		</clipPath>
		<g style="clip-path:url(#SVGID_00000075871442724733747270000012086989751977530255_);">
			
				<image style="overflow:visible;" width="1920" height="1080" xlink:href="1717BDE1.jpg"  transform="matrix(3.0706 0 0 3.0706 -1540.6879 -590.6219)">
			</image>
		</g>
	</g>
</g>
<g id="Capa_1">
	<g>
		<defs>
			<rect id="SVGID_00000121279368535440277080000001499070469484108423_" x="3.1" y="0.3" width="1599.1" height="1599.1"/>
		</defs>
		<clipPath id="SVGID_00000088853627165733557260000015722938598880790409_">
			<use xlink:href="#SVGID_00000121279368535440277080000001499070469484108423_"  style="overflow:visible;"/>
		</clipPath>
		
			<path style="clip-path:url(#SVGID_00000088853627165733557260000015722938598880790409_);fill:none;stroke:#020203;stroke-miterlimit:10;" d="
			M1519.7-18.5c0,0-39.9,119.2,101.8,79.8"/>
		
			<path style="clip-path:url(#SVGID_00000088853627165733557260000015722938598880790409_);fill:none;stroke:#020203;stroke-miterlimit:10;" d="
			M1473.4-21.2c-27.7,60.3,3.4,164.3,129.8,139.9"/>
		
			<path style="clip-path:url(#SVGID_00000088853627165733557260000015722938598880790409_);fill:none;stroke:#020203;stroke-miterlimit:10;" d="
			M1436.7-25.8c-34.7,95.5,2.5,228,194,178.9"/>
		
			<path style="clip-path:url(#SVGID_00000088853627165733557260000015722938598880790409_);fill:none;stroke:#020203;stroke-miterlimit:10;" d="
			M1249.1-21.2c0,0,13.3,28.9,58.2,28c219.8-6.8-58.6,225.8,336.6,181.6"/>
		
			<path style="clip-path:url(#SVGID_00000088853627165733557260000015722938598880790409_);fill:none;stroke:#020203;stroke-miterlimit:10;" d="
			M1133.6-15.3c0,0,33.9,44,66,49.1c328.9-17.3,43.4,219.5,389.4,186.6"/>
		
			<path style="clip-path:url(#SVGID_00000088853627165733557260000015722938598880790409_);fill:none;stroke:#020203;stroke-miterlimit:10;" d="
			M1129.9,178.7c-84-133.3,218.5-58.6,194.4-10.5C1320,252.8,1149.9,252.9,1129.9,178.7z"/>
		
			<path style="clip-path:url(#SVGID_00000088853627165733557260000015722938598880790409_);fill:none;stroke:#020203;stroke-miterlimit:10;" d="
			M1630.7,243.4c-345.2,64.6-189.7-137.1-377-172c-295.4-117.6-198.6,229.3,23.4,183.6c55.9-2.4,31.6,41.6,61.4,76.5
			c96.3,150.2-46.5,332-212.8,336.6c-135.9-31-111.6,189.4-155.5,117c-46.6-32.4-122.1-120.3-176.6-72c-36.7,33-84.4,22.9-67-12.4
			c33.6-113.6,183.9,4.1,221.5-82.1c8.2-53.7-10.1-48.2,13.3-88.1s7.8-94.9-18.3-106.9c-26.1-11.9-46.3,19.7-91.3-8.3
			c-73.5-44.7-174.2,102.4-171.1-28c18.4-63.7-1.8-66-8.2-82.1C677.6,47.2,322,199.8,472.1-15.3"/>
		
			<path style="clip-path:url(#SVGID_00000088853627165733557260000015722938598880790409_);fill:none;stroke:#020203;stroke-miterlimit:10;" d="
			M1190.9,206c-60.7-81,125.3-53.6,29.9,9.6C1194.3,225.3,1190.9,206,1190.9,206z"/>
		
			<path style="clip-path:url(#SVGID_00000088853627165733557260000015722938598880790409_);fill:none;stroke:#020203;stroke-miterlimit:10;" d="
			M693.6-21.2c-0.7,1.6-18.6,26.4,11,40.1c29.6,13.8,55,29.8,60.5,48.3c66.7,129.5,32.1-114.5,41.3-112.9"/>
		
			<path style="clip-path:url(#SVGID_00000088853627165733557260000015722938598880790409_);fill:none;stroke:#020203;stroke-miterlimit:10;" d="
			M626.8-15.3C602.2,41.8,730,46.7,747.7,114.5c42.2,85.3,73,21.4,108.2,77c38.9,60,90.4,46.3,36.5-20.8
			c-19.3-23.2-61.2-128.5-47.5-179.4"/>
		
			<path style="clip-path:url(#SVGID_00000088853627165733557260000015722938598880790409_);fill:none;stroke:#020203;stroke-miterlimit:10;" d="
			M584.2-15.3C550,48.8,655.6,53.3,692.9,92.5c45.9,36.8,64.5,116.2,111.4,121.2c13.8-2.9,19.3-16.1,31.7,4.6
			c12.4,20.7,116.3,79.9,141,77.8c70.5,10-94.8-183.9-72.9-205C913,76,902,53.3,891.7,0.3"/>
		
			<path style="clip-path:url(#SVGID_00000088853627165733557260000015722938598880790409_);fill:none;stroke:#020203;stroke-miterlimit:10;" d="
			M557.4-15.3c-43.9,83.6-8.3,63.4,52.6,93.6c45.6,50.9,88,17.7,121.4,123.6c19.3,67.4,37.1,91.5,61.2,86.7
			c24.1-4.8,19.3-32.3,38.5-22c19.3,10.3,136.2,49.5,162.3,68.1c71.9,35.8,29.1,99.9,127.3,96.7c156.3-24.9,52.6,112.3,120.3,89.1
			c75.1-53.5,65.7-204.2-45.4-209.8C1001,307.3,941.4,158.8,939.1-9.3"/>
		
			<path style="clip-path:url(#SVGID_00000088853627165733557260000015722938598880790409_);fill:none;stroke:#020203;stroke-width:2;stroke-linecap:round;stroke-linejoin:round;stroke-miterlimit:10;" d="
			M529.1-15.3C459.8,82.3,540,70,602.3,103.1c39.3,54.2,88.6,20.7,103.6,118.4c9.6,60.2,27.5,69.8,36.5,87.7
			c8.9,17.9,6.9,53.7,52.3,33.7c56.4-12.8,187.3-10.5,220.8,55.7c25.5,58.5,6.5,61.3,38.7,61.2c32.2,0,105.1-6.2,109.2,37.1
			c4.1,43.3-86.7,134.1-13.8,110.8c72.9-23.4,130-61.2,155.5-113.5c66.4-278.1-227.9-144.1-301.3-326.7c-31-86-22.7-72.7-15.1-100.3
			S968-49.9,968-49.9"/>
		
			<path style="clip-path:url(#SVGID_00000088853627165733557260000015722938598880790409_);fill:none;stroke:#020203;stroke-miterlimit:10;" d="
			M1019.8-25.8c37.7,69.3-43.2,152.5,55,234.8c99.6,105.3,184,21.3,232.1,114c16.5,54.8,58.5,86.6,16.5,186
			c-88.2,184.3-221.7,98.7-314.6,164.1c-38.5,45-56.9,63.3-61.4,27.5c0,0,28.4-16.5,33-44.9s-4.6-64.2,64.2-77
			c90.6-13.6,116.9-83.3,36.7-90.8c-50.5-0.9-68.9,12.8-81.2-33c-4.3-100.5-95.4-64-149.9-78c-27.5-3.7-27.9-11.9-50.2,2.7
			c-22.3,14.7-92,69.7-84.7-25.7c0,0,1.8-35.8-17.4-65.1s-4.6-60.5-19.3-81.6C567.8,38.7,386.1,161.3,509.9-30.4"/>
		
			<path style="clip-path:url(#SVGID_00000088853627165733557260000015722938598880790409_);fill:none;stroke:#020203;stroke-miterlimit:10;" d="
			M1155.6,402.5c0,0,40.6-7.3,57.9,0c56,12.1,39.3-80.7-54.2-77C990.5,297.7,1053.4,399,1155.6,402.5z"/>
		
			<path style="clip-path:url(#SVGID_00000088853627165733557260000015722938598880790409_);fill:none;stroke:#020203;stroke-miterlimit:10;" d="
			M1612.4,268.6c0,0-157.8,21.1-190.8,0c-177-73.7,93.7,172.5-102,331.1c-64.9,64.2-63.1,64.8-180.5,91.7
			C946.6,720.3,1106.9,891,915,909.7c-81.4-1.8,32.4-67,24.1-87.1c-14.3-44.7-92.9-103.8-149.7-65.1
			c-100.4,72-227.2,124.9-116.3-42.2c11.9-22,11-56.8,43.1-66.9c32.1-10.1,104.6-52.3,131.2-45.9c26.6,6.4,42.2-11.9,46.8-33
			c26.7-93.7,7.3-87.8-56.9-125.6c-23.1-34.4-204.8,91.5-189.8-38.9c81.1-349-352.7-187.4-215.8-410.2"/>
		
			<path style="clip-path:url(#SVGID_00000088853627165733557260000015722938598880790409_);fill:none;stroke:#020203;stroke-miterlimit:10;" d="
			M397-15.3C268.8,232.2,719.1,105.4,615.1,373.8c-22,43.3,3.4,104.6,52.3,110.7c68.4,22.5,154.5-41.6,174.8,27.2
			c15.4,92.1-189,98.8-210.6,180.1c-17.1,48-64.4,71.5-55.2,131.6c14,55.5-106.7,207.9-12.8,174.3c113.6-78.4,151.1-225.9,294-210.1
			c47.7,23.9,24.8,49.1,7.8,60.1c-52.4,76.5-98.3,165.7,42,98.4c194.6-0.3,88.8-227.2,245.2-232.7c63.6-6.7,89.9-18,120.2-36.7
			c300.5-231.3-15.5-388,344-369.1"/>
		
			<path style="clip-path:url(#SVGID_00000088853627165733557260000015722938598880790409_);fill:none;stroke:#020203;stroke-width:2;stroke-linecap:round;stroke-linejoin:round;stroke-miterlimit:10;" d="
			M362.6-20.4C252.9,272.2,643.1,93.1,594.4,349.5c-0.6,3.1-1.4,6.2-2.5,9.2c-71.7,202.8,227.6,140.7,162.4,199.7
			c-16.9,15.6-123,68.8-152.6,116.4c-1.3,2.2-2.5,4.4-3.6,6.7c-34.7,74.6-92.2,61.5-72,124c1.3,4,3.1,7.8,5,11.5
			c11.7,22.5-14.3,71.8-45.2,130.2c-0.8,1.6-1.6,3.2-2.3,4.9c-112.2,264.2,81.2,143.5,157.5,35.9c2.4-3.3,5-6.4,8-9.2
			c29.7-27.9,94.3-134.3,116.7-140.8c23.3-6.7,82.2-21.4,53.8,17.1c-0.8,1.1-1.6,2.2-2.3,3.4c-31.6,49.8-125.8,212.1-41.1,172.1
			c46.7-25.1,67.4-19.8,91.1-33.5c4.7-2.7,9.7-4.9,15-6.4c304.1-85.1,94.1-238.4,307.8-265.6c1.7-0.2,3.5-0.5,5.2-0.9
			c143.1-29.9,116.6-37.7,171.3-107.7c164.3-193.1-2.4-299.2,245.8-277"/>
		
			<path style="clip-path:url(#SVGID_00000088853627165733557260000015722938598880790409_);fill:none;stroke:#020203;stroke-miterlimit:10;" d="
			M333.7-20.4c-92,309.1,216.2,146.5,240.3,326.5c-5.5,57.8-36.4,96.8-17.8,138.1c11.8,62.7,53.9,65.3,82.5,83.1
			c21.1,13.1,25.4,42,9.1,60.8c-46.7,53.8-66.1,80-131.1,138.6c-44,28.2-31.8,66.3-23.2,86.5c0,0,24.5,53.2-16.4,68.8
			c-41,15.6-47.4,18.6-48.3,66.3c-0.9,47.7-52.9,148.1-35.5,173s58.2,71.7,96.3,47.9c38.1-23.8,129.3-109.6,142.6-115.6
			c13.3-6,43.1-38.5,44.9,12.8s10.5,72.5,43.6,48.6s89.9-61,105.9-61s24.3-7.3,31.2-12.4c6.9-5,61-51.4,96.8-53.7
			c35.8-2.3,68.8-15.1,89-43.1c20.2-28,55.5-69.3,52.6-123.2c-2.9-53.9,63.3-70,90.2-72.5s79.2,14.7,118-32.1
			c38.8-46.8,45.6-28.4,62.4-55c16.8-26.6,11-53.5,57.5-86.2c46.5-32.7,58.7-102.1,57.5-117.4c-1.2-15.3-1.1-92.8,37.9-89.6
			c39,3.2,107.3-5.5,122,3.7"/>
		
			<path style="clip-path:url(#SVGID_00000088853627165733557260000015722938598880790409_);fill:none;stroke:#020203;stroke-miterlimit:10;" d="
			M886.1,1602.2c-11.5-79.4,9.2-155.4,106.6-159.4c39.8,64.4-1.8,127.7-50.2,159.4"/>
		
			<path style="clip-path:url(#SVGID_00000088853627165733557260000015722938598880790409_);fill:none;stroke:#020203;stroke-width:2;stroke-linecap:round;stroke-linejoin:round;stroke-miterlimit:10;" d="
			M644,1602.2c172.2-47.1-76.3-387.6,139.2-329.8c90.3,34.9,36.8-35.8,83.9-51.4c121,21.6,62.5-78.1,128.4-102.4
			c33-3,79.3,14.8,98.6-19.5c28.9-60.6,72.9-85.7,75.2-138.8c11.2-148.5,68-16.8,200.4-177.2c13.8-17.9,14.5-79.1,37.2-88.7
			c22.7-9.6,100.4-79.1,113.5-44c14.9,99.4-11.8,205.6,96.3,237.3"/>
		
			<path style="clip-path:url(#SVGID_00000088853627165733557260000015722938598880790409_);fill:none;stroke:#020203;stroke-width:2;stroke-linecap:round;stroke-linejoin:round;stroke-miterlimit:10;" d="
			M231,0.3c-62,382.7,138.3,186.4,224.7,331c-1.9,38.6,13.7,133.9,27.5,144.9s63.3,79.8,23.8,111.9c-39.4,32.1-48.6,22.9-90.8,36.7
			c-97.6,9.7-15.7,146.8-95.4,187.1c-30.3,21.1,2.8,87.1-5.5,106.4c-73.5,113-317.8,282-43.1,349.5c21.1,5.5,59.6,24.8,54.1,68.8
			c-5.5,44-47.7,86.3-11.9,103.2c35.8,16.9,78,49,120.2,39.8c122.1-25.5,50.1,85.2,42.2,122.5"/>
		
			<path style="clip-path:url(#SVGID_00000088853627165733557260000015722938598880790409_);fill:none;stroke:#020203;stroke-width:2;stroke-linecap:round;stroke-linejoin:round;stroke-miterlimit:10;" d="
			M1378.4,1107.3c-145.8,59.6,2.3-178.2,39.4-146.7c16.5,5.5,87.1,21.1,39.4,83.5C1409.6,1106.4,1411.4,1095.9,1378.4,1107.3z"/>
		
			<path style="clip-path:url(#SVGID_00000088853627165733557260000015722938598880790409_);fill:none;stroke:#020203;stroke-width:2;stroke-linecap:round;stroke-linejoin:round;stroke-miterlimit:10;" d="
			M1200.5,1670.5c-1.8-3.7,11.9-55.9,22-94.5c10.1-38.5-5.5-60.5,11.9-65.1c17.4-4.6,104.6,18.3,119.2-14.7
			c67.8-88.6,84.3-233.1,134.4-318.8c36.8-23.1,123-104.1,142.7-131.6"/>
		
			<path style="clip-path:url(#SVGID_00000088853627165733557260000015722938598880790409_);fill:none;stroke:#020203;stroke-width:2;stroke-linecap:round;stroke-linejoin:round;stroke-miterlimit:10;" d="
			M1415.5,1602.2c14.7-3.8,94.6-168,102.8-193.6c1.4-48.6,40.8-106.7,88.1-129.8"/>
		
			<path style="clip-path:url(#SVGID_00000088853627165733557260000015722938598880790409_);fill:none;stroke:#020203;stroke-width:2;stroke-linecap:round;stroke-linejoin:round;stroke-miterlimit:10;" d="
			M0,1021.8c76.7,15.5,60.2-55.5,120.5-94.3c96.9-28.3,78.8-108.8,98.4-189.9c-11.8-84.6,73.5-164,133.5-202.9
			c54.4-27.4-1.9-61.9-6.2-101.8c0.4-76.4-76.4-60.1-113.5-88.4c-13.1-12-11-29.2-40.6-27.9c-66.4,0.4-21.8,72.7-88,72.9
			c-38.5-1.4-61.9-23.4-109.4-14.4"/>
		
			<path style="clip-path:url(#SVGID_00000088853627165733557260000015722938598880790409_);fill:none;stroke:#020203;stroke-miterlimit:10;" d="
			M37,795.9c0,0,15.1,32.6,38.5,12.4s62.7-75.2,69.4-173.8c6.7-98.6-46.2-64.2-95.6-44.9C0,608.8,11.3,627.6,20.1,650.1
			c8.7,22.5,18.8,55.5,18.8,78.9C38.9,752.4,30.1,790,37,795.9z"/>
		
			<path style="clip-path:url(#SVGID_00000088853627165733557260000015722938598880790409_);fill:none;stroke:#020203;stroke-miterlimit:10;" d="
			M79,670.3c0,0-36-47.3,6.7-58.8c42.6-11.4,22.9,45.9,17,53.2S92.9,687.3,79,670.3z"/>
		
			<path style="clip-path:url(#SVGID_00000088853627165733557260000015722938598880790409_);fill:none;stroke:#020203;stroke-miterlimit:10;" d="
			M0,545.4c0,0,61.3,6.7,83.8,0c22.5-6.7,100.4-33.3,97.7,26.7c-2.8,60.1-24.3,102.1-26.6,147.4c-2.3,45.3-19.3,92-54.6,113.6
			s-62.4,68.3-67.9,68.8c-5.5,0.5-26.6,8.3-35.3-12.8"/>
		
			<path style="clip-path:url(#SVGID_00000088853627165733557260000015722938598880790409_);fill:none;stroke:#020203;stroke-miterlimit:10;" d="
			M-2.9,959.2c0,0,20.6,8.3,43.6-14.7s44.3-71.1,71.7-80.7s48-42.2,57.2-89.9c9.2-47.7,18.8-150,49.5-188.9s43.1-58.7,54.1-66
			c11-7.3,35.3-24.8,16.5-83.5s-82.4,3.2-104.5,35.3S67.3,510.2,41.6,507.5s-62.4-7-68.3-13.8"/>
		
			<path style="clip-path:url(#SVGID_00000088853627165733557260000015722938598880790409_);fill:none;stroke:#020203;stroke-miterlimit:10;" d="
			M-2.9,426.3c0,0,40.8-32.6,72.5-2.3s73.8,38.5,99.1,9.6s25.7-75.7,55-67.4s96.8,30.7,97.7,65.1s30.3,67.4-10.5,98.6
			s-78,58.2-95.8,121.1s-23.2,115.1-29.7,156.4s-11.1,63.6-57,81S83,937.3,66.8,952.3c-16.2,15-19,44.9-66.8,40.1"/>
		
			<path style="clip-path:url(#SVGID_00000088853627165733557260000015722938598880790409_);fill:none;stroke:#020203;stroke-miterlimit:10;" d="
			M1449.5,1602.2c0,0,66.7-145,77.7-156s27.5-32.3,26.8-46.1s-4.1-72.2,52.3-96.3"/>
		
			<path style="clip-path:url(#SVGID_00000088853627165733557260000015722938598880790409_);fill:none;stroke:#020203;stroke-miterlimit:10;" d="
			M1478.4,1602.2c0,0,39.9-81,49.5-112.6s43.3-62.6,55.7-70.9c12.4-8.3,2.1-38.5,3.4-48.8c1.4-10.3,2.1-43.3,29.6-37.1"/>
		
			<path style="clip-path:url(#SVGID_00000088853627165733557260000015722938598880790409_);fill:none;stroke:#020203;stroke-miterlimit:10;" d="
			M1515.5,1602.2c0,0,42.6-168.4,90.8-165.6"/>
		
			<path style="clip-path:url(#SVGID_00000088853627165733557260000015722938598880790409_);fill:none;stroke:#020203;stroke-miterlimit:10;" d="
			M1565.8,1598.9c0,0,12.4-97,40.6-109.4"/>
		
			<path style="clip-path:url(#SVGID_00000088853627165733557260000015722938598880790409_);fill:none;stroke:#020203;stroke-miterlimit:10;" d="
			M1230.1,1602.2c0,0,65.4-54.9,118.3-73.4s110.1-243.5,121.1-254.5s30.9-23.6,33-66c2.2-42.5,116.3-89.8,123.8-86.9"/>
		
			<path style="clip-path:url(#SVGID_00000088853627165733557260000015722938598880790409_);fill:none;stroke:#020203;stroke-miterlimit:10;" d="
			M1272,1602.2c0,0,105.9-52.1,118.3-72.7s57.8-116.9,59.2-128.6c1.4-11.7,12.4-81.9,39.2-105.9s35.1-35.1,44-53
			c8.9-17.9,48.2-65.5,71.5-66.1"/>
		
			<path style="clip-path:url(#SVGID_00000088853627165733557260000015722938598880790409_);fill:none;stroke:#020203;stroke-miterlimit:10;" d="
			M1318.1,1602.2c0,0,74.3-35.6,88.7-58c14.4-22.4,42.6-95.3,53.7-122.8c11-27.5,25.5-113.5,60.5-129.3
			c35.1-15.8,69.4-71.5,81.2-79.1"/>
		
			<path style="clip-path:url(#SVGID_00000088853627165733557260000015722938598880790409_);fill:none;stroke:#020203;stroke-miterlimit:10;" d="
			M1362.1,1598.9c0,0,35.8-1.4,60.5-37.8c24.8-36.5,53.7-129.3,64-150c10.3-20.6,15.8-79.8,49.5-100.4s68.1-55.7,73.6-64.7"/>
		
			<path style="clip-path:url(#SVGID_00000088853627165733557260000015722938598880790409_);fill:none;stroke:#020203;stroke-miterlimit:10;" d="
			M1054.7,1598.9c0,0,32.3-17.9,18.6-68.1c-13.8-50.2-39.2-91.5-24.1-129.3c15.1-37.8,27.5-117.6-11.7-97.7
			c-39.2,19.9-79.8,81.2-112.1,91.5c-32.3,10.3-55,9.6-92.2,3.4c-37.1-6.2-45.5,64.7-32,97s38.9,69.1,7.3,106.4"/>
		
			<path style="clip-path:url(#SVGID_00000088853627165733557260000015722938598880790409_);fill:none;stroke:#020203;stroke-miterlimit:10;" d="
			M846.2,1598.9c0,0,11-42,0-87.4c-11-45.4-0.7-75,28.9-75c29.6,0,86-11.7,94.9-19.2c8.9-7.6,43.3-27.9,51.6,23.2
			c8.3,51.1,36.5,102,0,135c-36.5,33-39.6,31-42.5,50.2"/>
		
			<path style="clip-path:url(#SVGID_00000088853627165733557260000015722938598880790409_);fill:none;stroke:#020203;stroke-miterlimit:10;" d="
			M754.7,1602.2c0,0,48.8-22,28.9-79.7s-17.9-77.6-12.1-100s-31.3-118.7,12.7-94.6c44,24.1,68.8,54.3,93.6,47.5
			c24.8-6.9,84.1-84.6,99.9-84.6s57-56.4,68.7-82.5c11.7-26.1,65.4-15.1,123.1-106.6s73.6-56.4,73.6-117.6s62.6-81.9,75-95.6
			c12.4-13.8,103.2-107.3,131.4-81.2c28.2,26.1,22,68.1,54.3,89.4s91.5,48.8,60.5,99.1s-32.3,110.3-78.4,129.1
			c0,0-101.1,58.7-86,88.3c15.1,29.6,22.8,70.9,15.5,90.8c-7.3,19.9-66.4,127.1-131.1,103.1c-64.7-24-69-73.5-120.5-62.5
			c-51.5,11-87.2,65.1-73.5,122.7s71.5,101.6,66,131.9"/>
		
			<path style="clip-path:url(#SVGID_00000088853627165733557260000015722938598880790409_);fill:none;stroke:#020203;stroke-miterlimit:10;" d="
			M1266.5,1289.8c-3.2-0.6-13.8-8.7-20.2-43.8c-6.4-35.1-39.4-33.2-21.1-59.8c18.3-26.6,21.1-8.3,46.8-80.7
			c25.7-72.5,58.2-154.1,76.4-156.8s28.2-63.3,73.1-27.5s103.6,39.9,81.6,81.4c-22,41.5-3.7,67.7-99.1,118.8
			c0,0-124.7,58.4-119.2,111.6c5.5,53.2,66,55,49.5,78.9C1317.9,1335.7,1284.9,1293.5,1266.5,1289.8z"/>
		
			<path style="clip-path:url(#SVGID_00000088853627165733557260000015722938598880790409_);fill:none;stroke:#020203;stroke-miterlimit:10;" d="
			M1235.3,1326.5c0,0,53.2,47.7,76.1,44.9s55.9-23.1,67-39.5s14.7-48.5-8.3-68.7s-43.1-27.2-12.8-60.9
			c30.3-33.6,110.5-84.1,128.6-106.1c18.1-22,64-107.3,48.4-131.2c-15.6-23.8-86.2-57.8-91.7-78.9c-5.5-21.1-25.7-60.5-63.3-21.1
			s-91.7,77.5-100,137.3c-8.3,59.9-85.3,138.7-105.5,155.2c-20.2,16.5-93.6,75.7-48.6,88.3s36.7-1.1,52.3,28.2
			C1193.1,1303.6,1216,1310.6,1235.3,1326.5z"/>
		
			<path style="clip-path:url(#SVGID_00000088853627165733557260000015722938598880790409_);fill:none;stroke:#020203;stroke-miterlimit:10;" d="
			M0,320.7c0,0,54.1,29.7,89.3,0s51.9-84.7,92.2-55.3s60,78.9,91.6,79.2c31.6,0.4,85.3,14.1,87.4,54s21.3,79.8,36.5,88.1
			c15.1,8.3,8.9,33-8.9,47.1c-17.9,14.1-141,91.9-139,148.3s-1.4,78.4-11.7,96.3c-10.3,17.9-18.6,70.9-21.3,88.7
			c-2.8,17.9-34.5,74.3-70.6,88.7s-55.8,53.7-66.6,64c-10.8,10.3-26.6,39.2-75.4,42"/>
		
			<path style="clip-path:url(#SVGID_00000088853627165733557260000015722938598880790409_);fill:none;stroke:#020203;stroke-miterlimit:10;" d="
			M0,1202.4c0,0,32.8,22.3,16.4,83.8c-16.4,61.5-31.2,80.7-31.2,80.7"/>
		
			<path style="clip-path:url(#SVGID_00000088853627165733557260000015722938598880790409_);fill:none;stroke:#020203;stroke-miterlimit:10;" d="
			M3.1,1133.9c0,0,48.2,44.9,45.4,72.5c-2.8,27.5-25.7,145.8-16.5,171.5s11.9,47.7,37.6,69.7c25.7,22,29.5,78,28.1,105.5
			c-0.7,12.8-2,30.3,4.8,49.1"/>
		
			<path style="clip-path:url(#SVGID_00000088853627165733557260000015722938598880790409_);fill:none;stroke:#020203;stroke-miterlimit:10;" d="
			M0,1451.4c0,0,30.1,20.9,35.6,48.4c5.5,27.5,0,33,0,62.4s-4.3,24.8,2.4,43.1"/>
		
			<path style="clip-path:url(#SVGID_00000088853627165733557260000015722938598880790409_);fill:none;stroke:#020203;stroke-miterlimit:10;" d="
			M0,280.8c0,0,74.2-10,83.3-35.7s20.2-107.9,55.9-76.9S190.7,258,220,276.3c29.4,18.3,26.3,52.3,96.6,50.4
			c70.3-1.8,63.9,73.4,69.4,89.9c5.5,16.5,22,50.4,33.9,55.9c11.9,5.5,23.8,50.4,3.7,67c-20.2,16.5-110.9,49.5-127,96.3
			c-16.1,46.8-6.9,98.1-21.6,118.3c-14.7,20.2-36.7,65.4-35.8,94.1c0.9,28.8-5.5,71.9-32.1,94.8s-38.5,39.9-56.9,49.8
			c-18.3,9.9-61.9,41-71.3,59.4s-23.1,15.6-31.4,33.9c-8.3,18.3-5.5,34.9,21.1,65.1c26.6,30.3,13.8,167.8,11,202.7
			c-2.8,34.9-6.4,51.4,11.9,64.2c18.3,12.8,52.6,50.4,53.4,78c0.7,27.5-4.8,74.4,12.7,106"/>
		
			<path style="clip-path:url(#SVGID_00000088853627165733557260000015722938598880790409_);fill:none;stroke:#020203;stroke-miterlimit:10;" d="
			M-2.9,218.3c0,0,49.5-4.9,59.6-31.2s45.9-130,69.7-121.7s27.5,32.3,44,76.2S221,291.9,296.6,301.1c75.6,9.2,96.7,15.6,98.6,31.2
			c1.8,15.6,4.6,80.7,22,103.6s45.9,73.3,44.9,87.1c-0.9,13.8-10.4,41.5-56.6,54.7s-86.8,57.2-88.9,77.4s5.9,104.7-33.3,133.9
			s-13.8,91.9-33,120.7c-19.3,28.8-56.9,93.2-91.7,114.2c-34.9,21-64.2,44.6-60.5,86c3.7,41.4,13,127.6,12.8,155.1
			c-0.1,12.8,12.3,44.9,34.1,56.9c21.8,11.9-2,59.6,13.6,78c15.6,18.3,22.9,29.8,33,42.9s8.7,25,11.2,68.1s12.6,53.2,49.3,61.5
			c36.7,8.3,96.3,26.6,117.4,21.1c21.1-5.5,27.5,6.4,26.6,15.6"/>
		
			<path style="clip-path:url(#SVGID_00000088853627165733557260000015722938598880790409_);fill:none;stroke:#020203;stroke-miterlimit:10;" d="
			M0,156.4c0,0,48.3-22.7,53.8-54.3S76.5,11.4,105.4,0.3"/>
		
			<path style="clip-path:url(#SVGID_00000088853627165733557260000015722938598880790409_);fill:none;stroke:#020203;stroke-miterlimit:10;" d="
			M195.5,0c0,0-3.9,153,7.3,177.7s16.1,97,117.9,106.6s105.9,32.3,107.3,75s21.3,92.2,49.5,151.3s-11.7,67.4-46.1,79.1
			s-99.5,32.4-97.9,80.5c1.6,48.1,9.2,99-26.6,125.2c-35.8,26.1-13.8,88.7-18.6,104.6s-53.6,86.7-93.5,127.3
			c-39.9,40.6-61.9,32.7-67.4,94.1c-5.5,61.4-10.9,126.8,17.6,139.1c28.5,12.4,98.6,49.5,101.4,56.4c2.8,6.9,6.9,22-0.7,37.8
			s-15.8,23.4-2.1,59.8c13.8,36.5-8.3,76.4,14.4,88.7s123.1,30.9,142.4,25.1c19.3-5.8,41.3,8.6,39.2,27.9s-5.6,40.8-5.2,52.7"/>
		
			<path style="clip-path:url(#SVGID_00000088853627165733557260000015722938598880790409_);fill:none;stroke:#020203;stroke-miterlimit:10;" d="
			M271.4-5.3c0,0-47.7,134.4-9.2,192.4s78.9,67.2,160.5,81.9c81.6,14.7,67.9,56.9,67.4,65.6c-0.5,8.7-19.3,72.5,10.1,121.1
			c29.4,48.6,57.3,86.2,54.1,105.9c-3.2,19.7-33.9,50-45.9,62.4c-11.9,12.4-30.3,22.9-51.8,22.9s-64.7,2-61.9,32.2
			s-3.3,110.2-18.9,120.6s-49.4,35.7-43.5,54.9c5.9,19.3,14.2,56.4,12.8,67.4c-1.4,11-61,75.2-70.2,92.6
			c-9.2,17.4-129.8,138.5-85.8,179.1c44,40.6,142.4,23.4,158.2,57.1s52.3,70.2,49.5,90.8c-2.8,20.6-6.9,71.5,37.5,71.5
			s79.5-29.8,100.1-6.3c20.6,23.5,51.6,77.8,42,126.7c-9.6,48.8-12.4,63.3,13.1,48.8c25.5-14.4,37.8-22,57.8-28.2
			c19.9-6.2,39.2-70.9,37.1-99.1c-2.1-28.2-34.4-126.7-24.8-154.5s22-46.4,46.1-48.4c24.1-2.1,99.1,6.9,98.4-16.5
			c-0.7-23.4-17.9-78.4,17.9-76.4c35.8,2.1,49.1,27.7,65.6,23.6c16.5-4.1,28-5,39-31.6c11-26.6,21.1-58.7,37.1-62.4
			c16.1-3.7,82.5,7.3,92.2-2.8c9.6-10.1,36.5-58.1,43.3-67.9c6.7-9.8,25.7-28.1,31-39.1s32.3-74,35.9-89.9
			c3.7-15.9,21.4-49.5,31.8-49.8s19,12.9,39.6,8.8s76.9-36.1,86.6-48.6s40.7-31.1,52.3-68.2c11.7-37.1,23.5-55,38.9-66
			c15.4-11,95.2-75.7,112.4-92.9c17.2-17.2,20.6-19.3,23.4-37.8c2.8-18.6,17.4-35.8,21.8-14.4c4.4,21.3-25.9,140.3-15.6,183.7
			s19.1,127.9,73.2,135.5"/>
		
			<path style="clip-path:url(#SVGID_00000088853627165733557260000015722938598880790409_);fill:none;stroke:#020203;stroke-miterlimit:10;" d="
			M1190.4,1602.2c0,0,28.4-10.6-14.7-64.7c-43.1-54.1-53.7-98.1-37.1-119.7c16.5-21.6,56.9-38.3,72.5-10.9
			c15.6,27.4,22,35.2,34.9,37.9s39,7.3,50,17c11,9.6,43.1,9.6,52.5-1.4s88.3-157.8,81.9-179.3c-6.4-21.6,2.6-95.5,45.1-123.7
			c42.5-28.1,74.9-61.8,82.9-83.5c7.9-21.7,20.3-48.9,51.6-54.7"/>
		
			<path style="clip-path:url(#SVGID_00000088853627165733557260000015722938598880790409_);fill:none;stroke:#020203;stroke-miterlimit:10;" d="
			M703.8,1602.2c0,0,47.5-15.8,40.6-79.7c-6.9-63.9,2.8-121.7-9.6-150.9c-12.4-29.2-31-62.3-5.5-73.9c25.5-11.7,71.5,2.4,89.4,21.5
			c17.9,19.1,54.1,10.2,64.5-8.4c10.4-18.6,8.8-41.3,52.6-46.8s58.3-64.9,61.9-71.8c3.7-6.9,9.8-33.9,42-33.5
			c32.2,0.5,68-19.9,98-65.7c30-45.9,67.3-80.7,65.4-97.8c-1.8-17.1-12.4-70.6,37.6-85.4c50-14.7,160.1-118.4,165.1-135.8
			c5-17.4,41.3-88.1,60.1-58.2c18.8,29.8,27.5,78.4,27.1,92.6c-0.5,14.2,2.3,41.3,19.3,58.2c17,17,82.5,28,97.5,64.7"/>
		
			<path style="clip-path:url(#SVGID_00000088853627165733557260000015722938598880790409_);fill:none;stroke:#020203;stroke-miterlimit:10;" d="
			M299.3-5.3c0,0-34.4,73.9-28.9,116.1s18.2,88.5,34.6,103.6s30.5,30.7,82.8,28S508,245.6,516.7,302c8.7,56.4-14,50.4-14.3,85.3
			s1.1,50.4,19.6,82.1c18.5,31.6,63.3,72,61.2,98.9c-2.1,26.9-56.4,81.8-73.4,93.2s-74.3,9.2-80.3,38.1S441,806.5,420.4,823
			c-20.6,16.5-60.5,10.3-53,54.3c7.6,44,3.4,75-6.2,88.1c-9.6,13.1-111.4,127.8-122.4,145.8c-11,18-31.6,81.9,39.9,79.2
			s94.2,8.3,103.2,40.6c8.9,32.3,34.4,48.8,77,29.6c42.6-19.3,41.3,27.5,43.3,47.5c2.1,19.9,3.4,26.8,24.1,29.6
			c20.6,2.8,68.1,13.8,75.7,57.1c7.6,43.3,35.1,76.4,42,37.1s-44-86.7-11-141.7s55.7-69.5,70.9-68.8c15.1,0.7,42.6-9.6,50.9-42.6
			c8.3-33,50.2-67.4,105.2-47.5c55,19.9,43.8-63.7,82.8-76.1c39-12.4,67.9,7.3,84.8-3.7c17-11,91.7-104.2,99.3-141.5
			c7.6-37.3,39.2-104.3,60.5-107.3c21.3-3,36.5,16.3,51.6,14.9c15.1-1.4,78.5-26.1,102.5-72.9c24-46.8,68.1-109.1,85-116
			c17-6.9,84.8-76.3,95.8-134.9s41.3-73.1,53.7-57.2c12.4,15.8,23.9,62.6,23.9,90.8c0,28.2-31.5,124.5-10.9,162.3
			c20.6,37.8,30.1,61.9,41.6,66.7"/>
		
			<path style="clip-path:url(#SVGID_00000088853627165733557260000015722938598880790409_);fill:none;stroke:#020203;stroke-miterlimit:10;" d="
			M316.6-15.3c0,0-40.5,107.7,0,171.7s53.6,59.8,78.3,65.4s143.1-6.7,147.2,74.7s-18.6,100.9-14,118.3c4.6,17.4,8.3,71.5,57.8,103.6
			c49.5,32.1,37.6,57.8,20.2,78s-69.7,98.1-91.7,101.8c-22,3.7-70.4,17.4-54.5,57.8s11.4,87.4-5.1,92.3s-69.7,14.1-59.6,83.8
			s-126.1,181.6-96.6,201.8s77.3,11,92,34.9c14.7,23.8,29,71.5,67.2,54.1s154.7-96.6,152.9-67.6s-20.2,103.3,1.8,90.5
			c22-12.8,116.5-90.8,134.8-111.9c18.3-21.1,44.9-43.1,74.3-41.3c29.4,1.8,55-4.6,71.5-34.9c16.5-30.3,50.4-42.2,92.6-38.5
			s126.6-119.2,128.6-144.7c2.1-25.5,8.3-78.4,28.2-91.5c19.9-13.1,47.5-22,77.1-6.9c29.6,15.1,82.5-6.9,90.8-26.8
			c8.3-19.9,70.9-84.6,81.2-113.5s101.1-79.8,103.2-121.8c2.1-42,21.3-127.3,81.9-118.3c60.5,8.9,44,106.6,44,106.6"/>
	</g>
</g>
</svg>
