<?xml version="1.0" encoding="utf-8"?>
<!-- Generator: Adobe Illustrator 26.2.1, SVG Export Plug-In . SVG Version: 6.00 Build 0)  -->
<svg version="1.1" xmlns="http://www.w3.org/2000/svg" xmlns:xlink="http://www.w3.org/1999/xlink" x="0px" y="0px"
	 viewBox="0 0 1602.2 1602.2" style="enable-background:new 0 0 1602.2 1602.2;" xml:space="preserve">
<style type="text/css">
	.st0{display:none;}
	.st1{display:inline;}
	
		.st2{clip-path:url(#SVGID_00000070079476311899761460000010721760443990996884_);fill:none;stroke:#020203;stroke-width:2;stroke-linecap:round;stroke-linejoin:round;stroke-miterlimit:10;}
	
		.st3{clip-path:url(#SVGID_00000070079476311899761460000010721760443990996884_);fill:none;stroke:#020203;stroke-width:0.6;stroke-linecap:round;stroke-linejoin:round;stroke-miterlimit:10;}
	
		.st4{clip-path:url(#SVGID_00000098179070013143523660000010418337491536416940_);fill:none;stroke:#020203;stroke-width:0.6;stroke-linecap:round;stroke-linejoin:round;stroke-miterlimit:10;}
	
		.st5{clip-path:url(#SVGID_00000098179070013143523660000010418337491536416940_);fill:none;stroke:#020203;stroke-width:2;stroke-linecap:round;stroke-linejoin:round;stroke-miterlimit:10;}
	.st6{clip-path:url(#SVGID_00000128472749764173254060000011347826617277656749_);fill:none;stroke:#020203;stroke-miterlimit:10;}
	
		.st7{clip-path:url(#SVGID_00000128472749764173254060000011347826617277656749_);fill:none;stroke:#020203;stroke-width:2;stroke-linecap:round;stroke-linejoin:round;stroke-miterlimit:10;}
	
		.st8{clip-path:url(#SVGID_00000034803052810947098890000012711557302265822115_);fill:none;stroke:#020203;stroke-width:2;stroke-linecap:round;stroke-linejoin:round;stroke-miterlimit:10;}
	.st9{clip-path:url(#SVGID_00000034803052810947098890000012711557302265822115_);fill:none;stroke:#020203;stroke-miterlimit:10;}
	
		.st10{clip-path:url(#SVGID_00000166633253506731869740000006105061049899803527_);fill:none;stroke:#020203;stroke-width:2;stroke-linecap:round;stroke-linejoin:round;stroke-miterlimit:10;}
	.st11{clip-path:url(#SVGID_00000166633253506731869740000006105061049899803527_);fill:none;stroke:#020203;stroke-miterlimit:10;}
</style>
<g id="Capa_2" class="st0">
	<g class="st1">
		<defs>
			<rect id="SVGID_1_" x="-641" width="2241" height="3204.6"/>
		</defs>
		<clipPath id="SVGID_00000000915047812879812430000012775423373681596340_">
			<use xlink:href="#SVGID_1_"  style="overflow:visible;"/>
		</clipPath>
		<g style="clip-path:url(#SVGID_00000000915047812879812430000012775423373681596340_);">
			
				<image style="overflow:visible;" width="1920" height="1080" xlink:href="402BC0C2.jpg"  transform="matrix(4.2905 0 0 4.2905 -3804.585 -815.7166)">
			</image>
		</g>
	</g>
	<g class="st1">
		<defs>
			<rect id="SVGID_00000084501669391040605570000008886683877131215529_" x="-2722.8" width="1597.4" height="2293.6"/>
		</defs>
		<clipPath id="SVGID_00000008845459774274888750000016324501583939105429_">
			<use xlink:href="#SVGID_00000084501669391040605570000008886683877131215529_"  style="overflow:visible;"/>
		</clipPath>
		<g style="clip-path:url(#SVGID_00000008845459774274888750000016324501583939105429_);">
			
				<image style="overflow:visible;" width="1920" height="1080" xlink:href="402BC0C6.jpg"  transform="matrix(3.0577 0 0 3.0577 -5014.6694 -577.4553)">
			</image>
		</g>
	</g>
</g>
<g id="Capa_1">
	<g>
		<defs>
			<rect id="SVGID_00000109743622831719578680000013540410735605358527_" x="3" width="1604" height="1604"/>
		</defs>
		<clipPath id="SVGID_00000081609568751241540530000000059557359669729725_">
			<use xlink:href="#SVGID_00000109743622831719578680000013540410735605358527_"  style="overflow:visible;"/>
		</clipPath>
		
			<path style="clip-path:url(#SVGID_00000081609568751241540530000000059557359669729725_);fill:none;stroke:#020203;stroke-width:2;stroke-linecap:round;stroke-linejoin:round;stroke-miterlimit:10;" d="
			M288.1-39.2c0,0-5.5,44,7.3,72.5c12.8,28.4,56.9,55,78,67s68.8,27.5,127.5,77s162.3,95.4,255,32.1s50.4-91.7,150.4-99.1
			c100-7.3,192.6-53.2,259.6-49.5s110.1,2.8,95.4-25.7s-71.5-33.9-68.8-51.4"/>
		
			<path style="clip-path:url(#SVGID_00000081609568751241540530000000059557359669729725_);fill:none;stroke:#020203;stroke-miterlimit:10;" d="
			M315.6-27.3c0,0,4.6,56.9,55.9,81.6s108.2,55.9,133,89c24.8,33,15.6,43.1,85.3,48.6s129.3,4.6,165.1-30.3
			c35.8-34.9,52.3-89,112.8-100.9s67-23.8,45.9-28.4c-21.1-4.6-117.4-23.8-148.6-0.9c-31.2,22.9-112.8,57.8-162.3,7.3
			c-49.5-50.4-36.7-55-32.1-70.6"/>
		
			<path style="clip-path:url(#SVGID_00000081609568751241540530000000059557359669729725_);fill:none;stroke:#020203;stroke-width:2;stroke-linecap:round;stroke-linejoin:round;stroke-miterlimit:10;" d="
			M359.7-8.9c0,0,38.5,40.4,88.1,51.4s63.3,49.5,78,46.8c14.7-2.8,21.1-31.2,14.7-69.7C533.9-19,533-25.4,533-25.4"/>
		
			<path style="clip-path:url(#SVGID_00000081609568751241540530000000059557359669729725_);fill:none;stroke:#020203;stroke-miterlimit:10;" d="
			M611,0c0,0,56.9,25.9,87.1,21.4S752.2,0,752.2,0"/>
		
			<path style="clip-path:url(#SVGID_00000081609568751241540530000000059557359669729725_);fill:none;stroke:#020203;stroke-miterlimit:10;" d="
			M260.6,0c0,0,0,102.1,99.1,132.3s122,73.4,146.8,90.8c24.8,17.4,52.3,44,175.2,33.9c122.9-10.1,139.9-76.6,184.6-87.6
			c44.7-11,103.2-15.8,135.5-19.3c32.3-3.4,96.3-40.6,207.7-31s178.2,56.4,239.4,66.7c61.2,10.3,98.4,26,139.6,54.3
			s43.3,60.6,43.3,60.6"/>
		
			<path style="clip-path:url(#SVGID_00000081609568751241540530000000059557359669729725_);fill:none;stroke:#020203;stroke-miterlimit:10;" d="
			M1317.5-17.6c0,0-11,23.4,50.9,62.6c61.9,39.2,95.6,90.8,118.3,110.1c22.7,19.3,68.7,44.7,115.5,32.3
			c46.8-12.4,39.3-36.9,39.3-36.9"/>
		
			<path style="clip-path:url(#SVGID_00000081609568751241540530000000059557359669729725_);fill:none;stroke:#020203;stroke-miterlimit:10;" d="
			M1379.4-17.6c0,0,52.3,43.3,79.8,78.4c27.5,35.1,40.6,71.5,75.7,75.7c35.1,4.1,61.2,6.2,79.1-14.4"/>
		
			<path style="clip-path:url(#SVGID_00000081609568751241540530000000059557359669729725_);fill:none;stroke:#020203;stroke-miterlimit:10;" d="
			M1439.2-6.6c0,0,37.1,20.6,54.3,43.3c17.2,22.7,18.6,52,75.7,44.6c57.1-7.4,66-20.5,66-20.5"/>
		
			<path style="clip-path:url(#SVGID_00000081609568751241540530000000059557359669729725_);fill:none;stroke:#020203;stroke-width:2;stroke-linecap:round;stroke-linejoin:round;stroke-miterlimit:10;" d="
			M407.7,1645.7c0,0,31.3-12.4,39.6-90.8c8.3-78.4,19.3-90.8,86.7-134.8c67.4-44,143.1-107.3,161-144.5
			c17.9-37.1,15.1-103.2,72.9-111.4s97.7,16.5,94.9-27.5c-2.8-44-27.5-155.5-68.8-165.1c-41.3-9.6-55,14.2-53.7-64.7
			S721,758.2,683.7,742c-37.3-16.2-77.7,67.3-103.6,88.4c-26,21.1-45.6,23.8-57.5-9.2c-11.9-33,8.6-78.9-33.6-116.9
			c-42.2-38.1-42.2-47.2-40.8-109.6s-3.2-95.4-30.7-133.9s-98.1-141.2-77-167.8s85.6-19.3,139.1,39.4s111.3,76.1,160.8,76.1
			c49.5,0,165.1-7.3,183.4,16.5c18.3,23.8,9.4,127.5,39.1,137.6s107.6,29.4,155.3-9.2c47.7-38.5,103.2-13.8,137.6-9.6
			s50.9,23.4,74.3-23.4c23.4-46.8,23.4-116.9,116.9-100.4c93.6,16.5,124.5,12.4,149.6,6.9c25.1-5.5,59.4,15.1,105.5,53.7"/>
		
			<path style="clip-path:url(#SVGID_00000081609568751241540530000000059557359669729725_);fill:none;stroke:#020203;stroke-miterlimit:10;" d="
			M502.3,1645.7c0,0,5.5-49.5,0-72.9c-5.5-23.4-5.5-89.4,27.5-99.1c33-9.6,72.9-48.2,145.8-88.1s88.1-86.7,93.6-110.1
			c5.5-23.4,13.8-75.7,48.2-57.8c34.4,17.9,145.8,99.1,173.4,63.3c27.5-35.8,37.1-70.2,0-103.2c-37.1-33-104.6-81.2-104.6-189.9
			s13.8-90.8-11-97.7c-24.8-6.9-76.5,27.5-74-27.5c2.5-55-22.3-150-49.8-172s-78.4-26.1-133.5,5.5s-45.4,24.8-63.3-4.1
			c-17.9-28.9-92.2-276.5-64.7-276.5c27.5,0,45.4,8.3,78.4,23.4s105.9,49.5,144.5,46.8s49.8,0,62.8,28.9
			c12.9,28.9,41.8,112.8,95.5,111.4s135.5-4.1,175.4-27.5s53.7-33,105.9-0.7c52.3,32.3,100.4,51.6,119.7,22
			c19.3-29.6-4.1-123.1,29.6-125.9s227.5-18.8,242.1,42.6s39.4,135.7,9.2,174.3c-30.3,38.5-31.2,144-57.8,187.1s-22,71.5-55,98.1
			c-33,26.6-68.8,78-81.6,106.4c-12.8,28.4-55.9,66-37.6,100.9c18.3,34.9,76.1,44.9,62.4,78c-13.8,33-47.7,59.6-8.3,81.6
			c39.4,22,53.2,2.8,76.1,45.9s35.8,55,53.2,63.3s25.7,24.8,10.1,41.3c-15.6,16.5-68.8,86.2-89,109.1"/>
		
			<path style="clip-path:url(#SVGID_00000081609568751241540530000000059557359669729725_);fill:none;stroke:#020203;stroke-width:2;stroke-linecap:round;stroke-linejoin:round;stroke-miterlimit:10;" d="
			M653.2,1632.9c-6.4-7.3-5.5-28.4-39.4-43.1c-33.9-14.7-67.9-31.2-55.9-67c11.9-35.8,22.9-47.7,78-60.5c55-12.8,66-14.7,89.9-42.2
			c23.8-27.5,99.1-115.6,146.8-78.9c47.7,36.7,50.4,44,81.6,44c31.2,0,71.5-2.8,101.8,6.4c30.3,9.2,30.7-8.3,33-37.1
			s-20.2-74.3-13.3-108.2c6.9-33.9,14.9-49.8-7.1-80c-22-30.3-73.6-47.5-99.1-119.7c-25.4-72.2-10.3-128.6-17.9-147.2
			s-7.6-24.1-37.1-42.6c-29.6-18.6-54.3-29.6-60.5-75.7s-28.9-39.2-22.7-72.9c6.2-33.7,61.2-33.7,126.6-46.8
			c65.4-13.1,138.3-41.3,198.1-13.8c59.8,27.5,79.8,39.9,108.7,58.5c28.9,18.6,51.6,11,55.7-7.6s0-137.6,45.4-145.8
			c45.4-8.3,133.2-6.6,140.6,51.1c7.3,57.8-18.3,142.2-18.3,176.1c0,33.9,9.2,74.1-3.2,96.1c-12.4,22-60.5,98.4-112.1,150
			c-51.6,51.6-108.7,90.1-109.4,136.2c-0.7,46.1,36.5,95.6,30.3,136.9c-6.2,41.3-15.1,89.4-0.7,109.4c14.4,19.9,42,55,77,54.3
			c35.1-0.7,73.6,37.1,61.9,65.4c-11.7,28.2-68.1,61.2-93.6,112.8"/>
		
			<path style="clip-path:url(#SVGID_00000081609568751241540530000000059557359669729725_);fill:none;stroke:#020203;stroke-miterlimit:10;" d="
			M788,1640.9c0,0-0.9-44.7-34.9-71.3c-33.9-26.6-46.8-37.6-12.8-66c33.9-28.4,52.3-89,75.2-91.7c22.9-2.8,25.7-0.9,51.4,12.8
			s15.6,41.3,90.8,27.5s73.4,11,84.4,32.1s2.8,60.5,38.5,50.4c35.8-10.1,62.4-43.1,65.1-85.3s29.4-78.9,50.4-87.1
			c21.1-8.3,28.4,8.3,42.2,35.8s23.8,52.3,55,78.9c31.2,26.6,34.9,122.9,0,168.8"/>
		
			<path style="clip-path:url(#SVGID_00000081609568751241540530000000059557359669729725_);fill:none;stroke:#020203;stroke-miterlimit:10;" d="
			M863.2,1668.6c-0.9-9.2,20.2-112.8,55.9-125.7c35.8-12.8,69.1-0.9,100.1,46.8"/>
		
			<path style="clip-path:url(#SVGID_00000081609568751241540530000000059557359669729725_);fill:none;stroke:#020203;stroke-miterlimit:10;" d="
			M1140.2,1614.5c0,0,40.4-55,69.7-57.8s54.1,10.1,33,54.1"/>
		
			<path style="clip-path:url(#SVGID_00000081609568751241540530000000059557359669729725_);fill:none;stroke:#020203;stroke-miterlimit:10;" d="
			M1239.7,734.9c0,0,24.8,33,53.7,27.5c28.9-5.5,63.3-21.3,73.6-60.5c10.3-39.2,21.3-80.5,45.4-79.1s32.3,11.7,38.5,38.5
			c6.2,26.8,2.8,91.5,8.9,108.7s24.1,81.2,6.2,109.4c-17.9,28.2-163.7,180.2-180.9,195.4c-17.2,15.1-26.8,37.8-97.7,37.1
			c-70.9-0.7-125.9-30.3-141-69.5S979,852.6,957,831.2c-22-21.3-73.6-76.4-35.1-109.4C960.4,688.8,1140.7,663.4,1239.7,734.9z"/>
		
			<path style="clip-path:url(#SVGID_00000081609568751241540530000000059557359669729725_);fill:none;stroke:#020203;stroke-width:2;stroke-linecap:round;stroke-linejoin:round;stroke-miterlimit:10;" d="
			M1215.6,796.2c0,0-118.3-11.7-112.1,88.1c6.2,99.7,53.7,132.8,97.7,146.5c44,13.8,105.9-11,125.2-36.5
			c19.3-25.5,81.9-98.4,101.1-116.9c19.3-18.6,28.2-77.7-9.6-90.1C1380.1,774.8,1292.7,807.9,1215.6,796.2z"/>
		
			<path style="clip-path:url(#SVGID_00000081609568751241540530000000059557359669729725_);fill:none;stroke:#020203;stroke-miterlimit:10;" d="
			M992.8,784.4c0,0,30.3,22.1,48.8,83s19.2,204.5,161.7,194.3s200-152.7,235.3-184.4c35.2-31.7,10.3-137.6-41.3-133.5
			c-51.6,4.1,0,28.9-110.8,27.5s-156.8-15.8-222.2-34.4C1064.3,737,939.1,714.1,992.8,784.4z"/>
		
			<path style="clip-path:url(#SVGID_00000081609568751241540530000000059557359669729725_);fill:none;stroke:#020203;stroke-miterlimit:10;" d="
			M1174.4,971.6c0,0-67.4-109.4,16.5-137.6c83.9-28.2,120.4-9.6,160.3-15.8c39.9-6.2,82.5,9.6,60.5,49.2
			c-22,39.6-108.7,137.9-150.6,140C1219.1,1009.4,1181.3,992.9,1174.4,971.6z"/>
		
			<path style="clip-path:url(#SVGID_00000081609568751241540530000000059557359669729725_);fill:none;stroke:#020203;stroke-miterlimit:10;" d="
			M1338.1,850.5c0,0-145.1-35.1-147.2,42s48.8,109.4,88,83.9c39.2-25.5,107.3-73.6,96.3-99.1C1364.2,851.9,1350.3,853,1338.1,850.5z
			"/>
		
			<path style="clip-path:url(#SVGID_00000081609568751241540530000000059557359669729725_);fill:none;stroke:#020203;stroke-miterlimit:10;" d="
			M1261,871.1c0,0-45.4-3.5-36.5,42.6c8.9,46.1,31.5,48.2,49.1,37.2c17.6-11,53.4-28.5,47.2-53.1
			C1314.7,873.2,1261,871.1,1261,871.1z"/>
		
			<path style="clip-path:url(#SVGID_00000081609568751241540530000000059557359669729725_);fill:none;stroke:#020203;stroke-miterlimit:10;" d="
			M669.7,608.4c0,0,56.9-13.8,8.3-45.9s-94.5-27.5-78.9,0S622,617.5,669.7,608.4z"/>
		
			<path style="clip-path:url(#SVGID_00000081609568751241540530000000059557359669729725_);fill:none;stroke:#020203;stroke-miterlimit:10;" d="
			M1176.9,1290.8c0,0-50.4-22.9-15.6-40.4s84.4-9.2,73.4,34.9S1182.4,1293.6,1176.9,1290.8z"/>
		
			<path style="clip-path:url(#SVGID_00000081609568751241540530000000059557359669729725_);fill:none;stroke:#020203;stroke-width:2;stroke-linecap:round;stroke-linejoin:round;stroke-miterlimit:10;" d="
			M1502.5,1620.9c1.8-11,78.9-121.1,51.4-171.5c-27.5-50.4-96.6-124.3-109.7-174.9s-49.8-83.7-37.9-113.1s15.6-111,61.5-130.7
			c45.9-19.7,45.9-10.5,50.4-51.8c4.6-41.3,17.4-109.5,41.7-136.4c24.3-26.9,16.1-106.7,47.3-104.8"/>
		
			<path style="clip-path:url(#SVGID_00000081609568751241540530000000059557359669729725_);fill:none;stroke:#020203;stroke-miterlimit:10;" d="
			M1600,1427.4c0,0-92.9-144-88.3-177c4.6-33,1.8-45.9-14.7-57.8s-26.6-36.7-6.4-88.1s87.1-64.2,90.8-124.7s-1.8-82.5,25.7-92.6"/>
		
			<path style="clip-path:url(#SVGID_00000081609568751241540530000000059557359669729725_);fill:none;stroke:#020203;stroke-miterlimit:10;" d="
			M1600,1297.2c0,0-11.3-62.4-27.8-83.5s-36.7-53.2-16.5-91.7c20.2-38.5,22-39.4,51.4-49.5"/>
		
			<path style="clip-path:url(#SVGID_00000081609568751241540530000000059557359669729725_);fill:none;stroke:#020203;stroke-miterlimit:10;" d="
			M353.7,1603.4c0,0,55.6-54.8,53.9-100.5s-3-65.4,36.9-75.5c39.9-10.1,74.3-36.2,75.7-73.4s-22-156.8,17.9-144.5
			c39.9,12.4,66,56.4,99.1,32.3c33-24.1,26.1-88.7,96.3-121.7c70.2-33-37.1-108.7-44-152.7s0-121.2-57.8-96.4
			c-57.8,24.8-88.1,115.6-122.4,59.2c-34.4-56.4-33-156.8-97.7-233.9s-50.9-154.1-57.8-199.5c-6.9-45.4-72.9-166.5-114.2-196.1
			s-35.8-39.4-24.8-60.6s17.9-62.5,56.4-39.1s92.2,39.7,118.3,39.1s90.8,42.1,130.7,83.3s143.1,38.5,183,30.3
			c39.9-8.3,144.5-17.9,165.1,30.3s46.2,136.2,111.1,122.4c65-13.8,92.5-30.3,146.1-28.9c53.7,1.4,53.7-23.4,65.4-42.6
			c11.7-19.3,117.1-136.7,151.1-125.7s11.9,33.9,108.2,36.7c96.3,2.8,99.4-3.7,152,60.5"/>
		
			<path style="clip-path:url(#SVGID_00000081609568751241540530000000059557359669729725_);fill:none;stroke:#020203;stroke-width:2;stroke-linecap:round;stroke-linejoin:round;stroke-miterlimit:10;" d="
			M287.7,1620.9c0,0,74.3-97.7,67.4-132.1c-6.9-34.4-25.6-72.9,52.6-105.9c78.1-33,69.7-26.1,71.8-92.2s-30.9-129.3,43.4-130.7
			c74.3-1.4,134.8-15.1,148.6-89.4c13.8-74.3-46.8-114.2-71.5-103.2s-80.9,50.9-116.1,5.5c-35.2-45.4-2.2-77.2-84.8-101.9
			s-11-67.4-22-97.6s-35.8-93.6-93.6-109.1c-57.8-15.6-73.4-111.9-30.3-146.8s-11-100-34.9-141.2s-97.2-89.6-66-136.1
			s46.8-130.8,95.4-96.9s109.1,68.8,149.5,69.7c40.4,0.9,96.3,38.5,122,71.5s89.7,61.7,249.2,32.1c0,0,88.1-31.6,112.1-1.4
			c24.1,30.3,57.1,108,130,109.4s125.9-24.8,100.4-77c-25.5-52.3-81.9-88.9-17.9-107.4s51,33.1,97.7,26.2
			c46.8-6.9,77.7-62.6,115.3-45.2s48.6,27.5,109.1,52.3c60.5,24.8,88.7,0,136.7,43.1s60.5,40.4,67,58.7"/>
		
			<path style="clip-path:url(#SVGID_00000081609568751241540530000000059557359669729725_);fill:none;stroke:#020203;stroke-miterlimit:10;" d="
			M234.9,1620.9c0,0,29.4-78.9,45.9-101.8s24.8-35.8,8.3-87.1s22.9-88.1,83.5-102.7s63.3-42.2,55-80.7
			c-8.3-38.5-51.4-82.5-7.3-100.9s78.9-44.9,118.3-44c39.4,0.9,62.4-18.3,44.9-47.7s-61.5,2.4-92.6-21.3
			c-31.2-23.7-61.5-72.3-110.1-91.5c-48.6-19.3-90.8-25.7-98.1-91.7s35.8-102.9-22-118s-76.1-3.1-81.6-90.2
			c-5.5-87.1,6.9-210.3-24.1-244.7s-69.5-95.6-57.8-125.9s24.1-28.2,28.9-61.9S186.3,10.5,214.8,32s40.4,61.8,54.6,71.9
			c14.2,10.1,58.7,56.9,85.8,61.5c27.1,4.6,83.3,15.1,124.4,54.6s78.3,70.6,172.3,68.8c94-1.8,153.6-27.5,177.9-42.2
			c24.3-14.7,39.4-15.8,72.9-6.3s50.9,28.3,66.7-14.4c15.8-42.6,186.4-77,247.9-47.7c61.5,29.4,39.4-35.8,139.4,20.2
			s219.6,55,245.5,119.2"/>
		
			<path style="clip-path:url(#SVGID_00000081609568751241540530000000059557359669729725_);fill:none;stroke:#020203;stroke-miterlimit:10;" d="
			M-59,1197.2c0,0,48.2-49.5,70.2-6.9s20.6,42.6,48.2,60.5s37.1,17.9,44,63.3s52.3,41.3,53.7,94.9c1.4,53.7,18.8,100.9-50.9,190.3"
			/>
		
			<path style="clip-path:url(#SVGID_00000081609568751241540530000000059557359669729725_);fill:none;stroke:#020203;stroke-miterlimit:10;" d="
			M-16.4,1230.9c0,0,22,11,35.8,19.3s29.6,15.1,38.5,50.2s12.2,50.9,37.1,77s48.2,63.3,44.8,103.9c-3.4,40.6-45.8,81.2-77.9,92.2
			c-32.2,11-92,7.6-98.9,47.5"/>
		
			<path style="clip-path:url(#SVGID_00000081609568751241540530000000059557359669729725_);fill:none;stroke:#020203;stroke-miterlimit:10;" d="
			M-12.9,1263.9c0,0,31,14.4,38.5,42.6c7.6,28.2,13.1,46.8,32.3,69.5c19.3,22.7,54.3,51.6,55.7,84.6c1.4,33-9.6,55.7-50.2,72.9
			c-40.6,17.2-89.4,8.9-100.4,28.2"/>
		
			<path style="clip-path:url(#SVGID_00000081609568751241540530000000059557359669729725_);fill:none;stroke:#020203;stroke-width:2;stroke-linecap:round;stroke-linejoin:round;stroke-miterlimit:10;" d="
			M-21.9,1331.3c0,0,14.7-2.1,24.9,24.1s49.4,61.9,61.1,77s14.8,54.3-12.6,66c-27.3,11.7-96.8,22-110.6,38.5"/>
		
			<path style="clip-path:url(#SVGID_00000081609568751241540530000000059557359669729725_);fill:none;stroke:#020203;stroke-miterlimit:10;" d="
			M-19.1,1148.4c0,0,38.5-14.4,65.4,19.3c26.8,33.7,43.3,64,79.1,83.2s20.6,51.6,28.9,66c8.3,14.4,34.4,38.5,31.6,90.8
			c-2.8,52.3,0,130.7-22,201.6"/>
		
			<path style="clip-path:url(#SVGID_00000081609568751241540530000000059557359669729725_);fill:none;stroke:#020203;stroke-width:2;stroke-linecap:round;stroke-linejoin:round;stroke-miterlimit:10;" d="
			M-10,893.6c0,0,63.9,62.4,93.4,78s35.9,19.3,37.7,46.8c1.8,27.5,5.5,37.3,15.6,43.9c10.1,6.6,26.6,13,33,49.7
			c6.4,36.7,26.6,94.7,51.4,61.1s34.9-74.9,52.3-100.5s33-64.2,0-85.3c-33-21.1-72.5-45.2-113-151.1S92.3,677.2,77.9,613.9
			S-37,428.8-39.8,391.7"/>
		
			<path style="clip-path:url(#SVGID_00000081609568751241540530000000059557359669729725_);fill:none;stroke:#020203;stroke-miterlimit:10;" d="
			M-23.7,781.7c0,0,35.8,27.5,44.9,57.8s21.1,65.1,47.7,74.3c26.6,9.2,76.1,23.6,48.6-46.4S44.2,709.3,44.2,679.9
			c0-29.4-62.4-158.7-73.4-182.5"/>
		
			<path style="clip-path:url(#SVGID_00000081609568751241540530000000059557359669729725_);fill:none;stroke:#020203;stroke-miterlimit:10;" d="
			M-39.8,925.7c0,0,32.6,23.8,59.2,36.2s41.1,43.6,28.8,58.3c-12.3,14.7-66.4,54.1-30.6,78.9c35.8,24.8,73.1,38.5,96.2,79.8
			s76.2,50.4,78.1,72.5s38.5,129.7,68.8,80s74.3-51.6,80.7-63.5s23.4-22.9-4.8-57.8c-28.2-34.9-33.7-86.2,7.5-103.6
			s112.8-27.5,77-69.7c-35.8-42.2-121.1-83.5-171.5-133.9s-25.7-85.3-85.3-156.8s-33.9-174.1-62.4-205.8s-67-32.6-62.4-133.5
			S6.4,289.2,48.2,254.3s41.8-25.7,51-66s72.5-163.3,70.6-199"/>
		
			<path style="clip-path:url(#SVGID_00000081609568751241540530000000059557359669729725_);fill:none;stroke:#020203;stroke-miterlimit:10;" d="
			M-29.2,247.9c0,0,69.7-22.2,84.4-53.7s93.6-206.7,97.2-251.7"/>
		
			<path style="clip-path:url(#SVGID_00000081609568751241540530000000059557359669729725_);fill:none;stroke:#020203;stroke-miterlimit:10;" d="
			M-13.6,194.5c0,0,22,8.5,49.5-40.1s87.7-199,89.7-208.2"/>
		
			<path style="clip-path:url(#SVGID_00000081609568751241540530000000059557359669729725_);fill:none;stroke:#020203;stroke-miterlimit:10;" d="
			M-20,159.9c0,0,27.5-10.1,42.2-49.5S76.3-32.8,76.3-53.9"/>
	</g>
</g>
</svg>
