<?xml version="1.0" encoding="utf-8"?>
<!-- Generator: Adobe Illustrator 26.2.1, SVG Export Plug-In . SVG Version: 6.00 Build 0)  -->
<svg version="1.1" xmlns="http://www.w3.org/2000/svg" xmlns:xlink="http://www.w3.org/1999/xlink" x="0px" y="0px"
	 viewBox="0 0 1600 1600.6" style="enable-background:new 0 0 1600 1600.6;" xml:space="preserve">
<style type="text/css">
	.st0{display:none;}
	.st1{display:inline;}
	.st2{display:inline;fill:none;}
	.st3{fill:none;stroke:#000000;stroke-width:0.6;stroke-linecap:round;stroke-linejoin:round;stroke-miterlimit:10;}
	
		.st4{clip-path:url(#SVGID_00000076601926266528983040000002417534376780917395_);fill:none;stroke:#000000;stroke-width:0.6;stroke-linecap:round;stroke-linejoin:round;stroke-miterlimit:10;}
	
		.st5{clip-path:url(#SVGID_00000076601926266528983040000002417534376780917395_);fill:none;stroke:#000000;stroke-width:2;stroke-linecap:round;stroke-linejoin:round;stroke-miterlimit:10;}
	
		.st6{clip-path:url(#SVGID_00000177482431821755661560000017035999106473589425_);fill:none;stroke:#000000;stroke-width:2;stroke-linecap:round;stroke-linejoin:round;stroke-miterlimit:10;}
	
		.st7{clip-path:url(#SVGID_00000177482431821755661560000017035999106473589425_);fill:none;stroke:#000000;stroke-width:0.6;stroke-linecap:round;stroke-linejoin:round;stroke-miterlimit:10;}
</style>
<g id="Textos">
</g>
<g id="Background" class="st0">
	<g class="st1">
		<defs>
			<rect id="SVGID_1_" x="-2091.4" width="1602.2" height="1602.2"/>
		</defs>
		<clipPath id="SVGID_00000039827315437083564350000008630478030032412590_">
			<use xlink:href="#SVGID_1_"  style="overflow:visible;"/>
		</clipPath>
		
			<g transform="matrix(1 0 0 1 0 -3.051758e-05)" style="clip-path:url(#SVGID_00000039827315437083564350000008630478030032412590_);">
			
				<image style="overflow:visible;" width="1920" height="1080" xlink:href="1200C3E9.jpg"  transform="matrix(2.1706 0 0 2.1706 -3049.4211 -442.7094)">
			</image>
		</g>
	</g>
	<g class="st1">
		<defs>
			<rect id="SVGID_00000096753693782729163620000015868701071380614053_" width="1600" height="2288"/>
		</defs>
		<clipPath id="SVGID_00000152974085972276755020000006511716155891962271_">
			<use xlink:href="#SVGID_00000096753693782729163620000015868701071380614053_"  style="overflow:visible;"/>
		</clipPath>
		<g style="clip-path:url(#SVGID_00000152974085972276755020000006511716155891962271_);">
			
				<image style="overflow:visible;" width="1920" height="1080" xlink:href="1200C3EB.jpg"  transform="matrix(3.0633 0 0 3.0633 -2023.9618 -577.7411)">
			</image>
		</g>
	</g>
	<g class="st1">
		<defs>
			<rect id="SVGID_00000121251431815628588070000013130618267944960169_" x="2258.4" y="5.7" width="1600" height="2282.3"/>
		</defs>
		<clipPath id="SVGID_00000166645097998027944440000002176575490863332487_">
			<use xlink:href="#SVGID_00000121251431815628588070000013130618267944960169_"  style="overflow:visible;"/>
		</clipPath>
		<g style="clip-path:url(#SVGID_00000166645097998027944440000002176575490863332487_);">
			
				<image style="overflow:visible;" width="1920" height="1080" xlink:href="1200C3EE.jpg"  transform="matrix(3.0706 0 0 3.0706 717.6815 -585.2945)">
			</image>
		</g>
	</g>
</g>
<g id="Curvas">
	<g>
		<defs>
			<rect id="SVGID_00000030452929257544884880000013006441338203227287_" x="2.4" y="-1.6" width="1597.6" height="1602.2"/>
		</defs>
		<clipPath id="SVGID_00000072261839376272856260000007983463425856039081_">
			<use xlink:href="#SVGID_00000030452929257544884880000013006441338203227287_"  style="overflow:visible;"/>
		</clipPath>
		
			<path style="clip-path:url(#SVGID_00000072261839376272856260000007983463425856039081_);fill:none;stroke:#000000;stroke-width:0.6;stroke-linecap:round;stroke-linejoin:round;stroke-miterlimit:10;" d="
			M0,275.3c0,0,49.9-23.6,67.6-27.5c24.5-5.4,176.1-13.8,114.2,27.5c-56.8,37.9-84.1,24.2-101.5,90.8c-9.6,48,12.6,131.1-10.6,175.4
			C49,578,12.2,557.4,0,577.3"/>
		
			<path style="clip-path:url(#SVGID_00000072261839376272856260000007983463425856039081_);fill:none;stroke:#000000;stroke-width:0.6;stroke-linecap:round;stroke-linejoin:round;stroke-miterlimit:10;" d="
			M0,388.8c0,0,33.9-86,44.9-14.4c0,0-12.4,79.1-5.5,108.7c6.9,29.6-2.4,57.1-39.4,68.8"/>
		
			<path style="clip-path:url(#SVGID_00000072261839376272856260000007983463425856039081_);fill:none;stroke:#000000;stroke-width:0.6;stroke-linecap:round;stroke-linejoin:round;stroke-miterlimit:10;" d="
			M0,243.3c0,0,181.1-80.1,229.2-53.3s151.3,43.2,17.9,99.1c-121.6,50.9-133,33.7-148.9,97.7c-21,68.8,20.5,53,17.5,104.5
			c0.3,14.4-3.7,78.4-54.1,96.3c0,0-47.5-6-54.6,9.2C0,611.9-40.7,617-40.7,617"/>
		
			<path style="clip-path:url(#SVGID_00000072261839376272856260000007983463425856039081_);fill:none;stroke:#000000;stroke-width:0.6;stroke-linecap:round;stroke-linejoin:round;stroke-miterlimit:10;" d="
			M0,207.9c0,0,158.7-52.3,214.9-50.2c56.2,2.1,106.2,10.8,131.5,14.4c25.2,3.7,123.4,42.6,114.2,60.1
			c-9.2,17.4-27.1,21.6-165.6,67.9s-155.9,36.7-171.5,70.6s-5,66,4.6,73.4c9.6,7.3,17.9,17.9,14.7,47.7s-4.6,90.8-32.6,105.9
			c-28,15.1-67.9,6.9-78.9,19.3c-11,12.4-18.8,31.2-46.3,36.7"/>
		
			<path style="clip-path:url(#SVGID_00000072261839376272856260000007983463425856039081_);fill:none;stroke:#000000;stroke-width:0.6;stroke-linecap:round;stroke-linejoin:round;stroke-miterlimit:10;" d="
			M0,181.8c0,0,72.2-12.8,79-18.8s122.4-30.7,163.7-30.3s53.7,7.8,73.8,0s39.4-40.4,66.5-19.3c27.1,21.1,57.3,55.5,90.8,64.2
			s92.6,70.6,96.3,92.6c3.7,22-51.8,23.4-94.9,14.2s-253.1,55.9-260.5,57.8s-80.3,13.3-76.6,51.8s25.2,37.1,30.3,68.3
			s-6,76.6-3.7,91.7c2.3,15.1,8.7,49.5-13.8,65.1c-22.5,15.6-82.7,7-89.6,12.2c-7.8,5.9-22.3,28.1,8.9,53.8s22,44.9,17.9,52.3
			c-4.1,7.3-29.8,10.1-62.4-20.6c-32.6-30.7-56.4-17.4-56.4-17.4"/>
		
			<path style="clip-path:url(#SVGID_00000072261839376272856260000007983463425856039081_);fill:none;stroke:#000000;stroke-width:0.6;stroke-linecap:round;stroke-linejoin:round;stroke-miterlimit:10;" d="
			M0,152.9c0,0,57.9,4.1,72.4-4.1c14.4-8.3,57.8-4.8,80.5-17.2s70.9-17.9,92.9-16.5c22,1.4,68.8-4.1,70.2-19.9
			c1.4-15.8,9.6-79.8,37.1-42.6s68.1,72.9,83.9,68.8s60.5-21.3,91.5,22.7c31,44,71.5,90.1,86,90.1s107.3,53.7,24.8,64.7
			c-82.5,11-222.9,6.9-268.3,20.6S156.3,367.5,165.2,395c8.9,27.5,33,48.2,35.1,72.9c2.1,24.8-28.2,28.2,0,101.8s15.8,82.5,6.9,83.9
			s-55.7,8.3-50.2,40.6c5.5,32.3-14.4,71.5-54.3,83.2s-73.1-13.1-80.2-20.6S16,745.1-4.7,750"/>
		
			<path style="clip-path:url(#SVGID_00000072261839376272856260000007983463425856039081_);fill:none;stroke:#000000;stroke-width:0.6;stroke-linecap:round;stroke-linejoin:round;stroke-miterlimit:10;" d="
			M0,128.6c0,0,57.5,3.2,85.5-8.3s57.3-6,68.8-9.6c11.5-3.7,36.2-25.7,60.1-24.3c23.8,1.4,74.3,11.5,81.2-5
			c6.9-16.5,10.1-40.2-13.8-81.3"/>
		
			<path style="clip-path:url(#SVGID_00000072261839376272856260000007983463425856039081_);fill:none;stroke:#000000;stroke-width:2;stroke-linecap:round;stroke-linejoin:round;stroke-miterlimit:10;" d="
			M2.4,100.1c0.9,1.4,95.8,1.8,115.1-2.3s38.1-5.5,53.7-13.3s33.5-16.1,55.5-16.1s41.3,3.2,38.1-12.8C261.6,39.6,257,29.5,236.3-4"
			/>
		
			<path style="clip-path:url(#SVGID_00000072261839376272856260000007983463425856039081_);fill:none;stroke:#000000;stroke-width:0.6;stroke-linecap:round;stroke-linejoin:round;stroke-miterlimit:10;" d="
			M2.4,83.2c0,0,98.6-3.2,127.5-5.5s17.4-2.5,52.7-13.2S219.8,41,211.1,3.4"/>
		
			<path style="clip-path:url(#SVGID_00000072261839376272856260000007983463425856039081_);fill:none;stroke:#000000;stroke-width:0.6;stroke-linecap:round;stroke-linejoin:round;stroke-miterlimit:10;" d="
			M0,64.5c0,0,119.3-1,133.8-6.6c14.5-5.5,62.7-4.1,49.8-54.6"/>
		
			<path style="clip-path:url(#SVGID_00000072261839376272856260000007983463425856039081_);fill:none;stroke:#000000;stroke-width:0.6;stroke-linecap:round;stroke-linejoin:round;stroke-miterlimit:10;" d="
			M0,45.1c0,0,107-2.6,127.2-11.2S163,14.5,160.7,0"/>
		
			<path style="clip-path:url(#SVGID_00000072261839376272856260000007983463425856039081_);fill:none;stroke:#000000;stroke-width:0.6;stroke-linecap:round;stroke-linejoin:round;stroke-miterlimit:10;" d="
			M0,31.3c0,0,75.8,0.2,90.5-15.6s10.3-22,2.4-25.7"/>
		
			<path style="clip-path:url(#SVGID_00000072261839376272856260000007983463425856039081_);fill:none;stroke:#000000;stroke-width:0.6;stroke-linecap:round;stroke-linejoin:round;stroke-miterlimit:10;" d="
			M355.1,0c0,0,41.3,92.3,83.9,88.2S550.5,74.4,578.7,115c28.2,40.6,48.8,58.5,65.4,60.5c16.5,2.1,33.7,36.5,46.8,47.5
			c13.1,11,115.6,40.6,88.1,65.4c-27.5,24.8-67.4,41.3-158.2,44.7c-90.8,3.4-226.3-4.8-274.5,17.9c-48.2,22.7-141.7,25.5-136.9,70.2
			c0,0,18.6,28.9,11,50.9c-7.6,22-12.4,66.7,7.6,92.2s39.2,69.5,28.2,92.2c-11,22.7-57.9,26.1-59.6,50.2
			c-1.7,24.1-5.1,65.4-57.4,86.7s-92.9,2.8-103.9,25.5s21.3,61.9,51.6,87.4c30.3,25.5,39.2,44.7,28.2,61.9s-44-7.6-64.7,8.9
			c-20.6,16.5-17.9,23.4-58.5,27.5"/>
		
			<path style="clip-path:url(#SVGID_00000072261839376272856260000007983463425856039081_);fill:none;stroke:#000000;stroke-width:0.6;stroke-linecap:round;stroke-linejoin:round;stroke-miterlimit:10;" d="
			M0,944.6c0,0,30.4-0.7,27.7-26.1C24.9,893-15,851.1-15,851.1"/>
		
			<path style="clip-path:url(#SVGID_00000072261839376272856260000007983463425856039081_);fill:none;stroke:#000000;stroke-width:0.6;stroke-linecap:round;stroke-linejoin:round;stroke-miterlimit:10;" d="
			M387.7,3.6c0,0,15.6,65.4,52.7,64s144.5-32.3,185.7,33.7s56.4,9.6,74.3,45.4c17.9,35.8,61.2,48.8,76.4,50.2
			c15.1,1.4,81.2,15.1,66.7,58.5s-42,98.4-111.4,100.4s-240.8-28.2-341.2,0s-136.2,33.7-145.1,81.9s-14.4,103.2,7.6,131.4
			c22,28.2,71.5,59.2,34.4,101.1s-75,31-83.9,86c-8.9,55-89.4,64-92.9,80.5c-3.4,16.5,4.1,43.3,40.6,61.2
			c36.5,17.9,90.9,47.5,71.6,59.2s-97.6,29.6-124.9,47.5C71,1022.4-4.7,1036.8-4.7,1036.8"/>
		
			<path style="clip-path:url(#SVGID_00000072261839376272856260000007983463425856039081_);fill:none;stroke:#000000;stroke-width:2;stroke-linecap:round;stroke-linejoin:round;stroke-miterlimit:10;" d="
			M0,1062.7c0,0,102,8.3,122.1-8.3s61.5-46.8,80.7-43.1c19.3,3.7,89,6.4,120.2-14.7c31.2-21.1,45.9-16.5,24.8-35.8
			c-21.1-19.3-77-26.6-100-45.9c-22.9-19.3-97.6-28.4-69-84.4s123.1-121.1,138.7-153.2c15.6-32.1,23.8-51.4,2.8-76.1
			c-21.1-24.8-76.1-46.8-57.8-117.4s10.1-70.6,76.1-93.6s78.9-27.5,141.2-25.7c62.4,1.8,160.5-16.5,197.2,17.4
			c36.7,33.9,44.9,26.6,68.8,8.3c23.8-18.3,131.2-61.5,139.4-91.7c8.3-30.3,60.5-63.3,47.7-85.3s-59.6-37.3-78.9-55.8
			c-19.3-18.5-17.3-14.8-54.1-11.2s-62.4-2.8-72.5-22.9s-21.1-14.7-41.3-27.5s-26.4-7.8-36-31.5s-24.8-34.1-70.9-31.3
			s-108,11-132.8,4.8s-30.3,4.1-33.7-42"/>
		
			<path style="clip-path:url(#SVGID_00000072261839376272856260000007983463425856039081_);fill:none;stroke:#000000;stroke-width:0.6;stroke-linecap:round;stroke-linejoin:round;stroke-miterlimit:10;" d="
			M438.3,3.4c0,0,6.9,22.2,32.3,20.9c25.5-1.4,99.1,10.2,102.5-10.4"/>
		
			<path style="clip-path:url(#SVGID_00000072261839376272856260000007983463425856039081_);fill:none;stroke:#000000;stroke-width:0.6;stroke-linecap:round;stroke-linejoin:round;stroke-miterlimit:10;" d="
			M646.8,3.6c45.5,111.8,61.5,18.9,96.3,59.5c17.5,120.5,152.4-39,163,50c3.6,97,341.8,52,262.6,98.5
			c-359.1,26-160.5,123.9-274.3,131.2c-47.8-8.3-125.7,69.7-125.7,69.7c-56.6,76.7-117.2-63.3-231.1-28
			c-145.8-22.6-391,55.2-166.7,240.3c-117,221-321.6,200.3,56.4,335c66.4,21.2,32.4,104.5-64,88.1c-61.2-14.5-50.9,0-85.3,10.3
			s-87.4-3.4-105.2,13.8c-17.9,17.2-94.2,4.1-127.9,20.6s-55,8.9-59.8,8.9"/>
		
			<path style="clip-path:url(#SVGID_00000072261839376272856260000007983463425856039081_);fill:none;stroke:#000000;stroke-width:0.6;stroke-linecap:round;stroke-linejoin:round;stroke-miterlimit:10;" d="
			M0,1136.6c0,0,7-17.9,89.6-16.5c82.5,1.4,145.1-26.1,185-31.6c39.9-5.5,165.1-2.1,179.5-16.5c14.4-14.4,61.2-73.6,81.9-81.9
			c20.6-8.3,72.2-25.5,43.3-45.4s-67.6-4.1-111.9-12.4c-44.3-8.3-48.4-8.9-71.1-28.9c-22.7-19.9-43.3-34.4-94.2-35.8
			s-66-36.5-48.8-57.8s166.9-155.7,160.1-195.1c-6.9-39.4-48.2-38.1-62.8-44.9c-14.7-6.9-73.5-41.4-42.9-100.4
			s111.4-66.3,150.6-68.6s114.8,3.1,136.5,2.5c21.7-0.6,69.4,1.2,87.1,31.2s44.6,47.1,73.4,33.6c28.7-13.5,66.6-106.4,122.9-102.4
			c56.3,4-1.8,62.7,62.7,96.9s79.2,41.6,97.8,14.1c18.6-27.5,22.6-89.6-10.7-116.8c-33.3-27.2-58.1-70-37.9-90.5s81.8-15.4,165-14.7
			c83.2,0.7,202.9-36.5,238.7-55.7c35.8-19.3,172-48.8,201.6-48.8"/>
		
			<path style="clip-path:url(#SVGID_00000072261839376272856260000007983463425856039081_);fill:none;stroke:#000000;stroke-width:0.6;stroke-linecap:round;stroke-linejoin:round;stroke-miterlimit:10;" d="
			M958.4,380.6c2.4-13.3,8.9-23.4,15.8,9.6S954.3,403.3,958.4,380.6z"/>
		
			<path style="clip-path:url(#SVGID_00000072261839376272856260000007983463425856039081_);fill:none;stroke:#000000;stroke-width:0.6;stroke-linecap:round;stroke-linejoin:round;stroke-miterlimit:10;" d="
			M750.6,0c13.8,14.6,20.6,32.5,24.1,52.4c3.4,19.9,29.6,24.8,55.7,9.6S906,5.7,935,40.1c28.9,34.4,46.8,44.7,46.1,64
			c-0.7,19.3-10.3,58.5,86,55.7c96.3-2.8,237.3-5.5,279.3-26.8s134.8-37.1,165.8-31c31,6.2,95.6,11.7,106.6,4.1"/>
		
			<path style="clip-path:url(#SVGID_00000072261839376272856260000007983463425856039081_);fill:none;stroke:#000000;stroke-width:0.6;stroke-linecap:round;stroke-linejoin:round;stroke-miterlimit:10;" d="
			M939.1,0c0,0,73.6,47.6,83.2,90.3c9.6,42.6,46.8,50.2,90.8,46.8s199.5-1.4,238-26.8c38.5-25.5,123.8-31.1,197.4-41.3
			s90.1,0,90.1,0"/>
		
			<path style="clip-path:url(#SVGID_00000072261839376272856260000007983463425856039081_);fill:none;stroke:#000000;stroke-width:0.6;stroke-linecap:round;stroke-linejoin:round;stroke-miterlimit:10;" d="
			M979,3.6c5.5,2.8,50.9,28.2,68.8,55s37.8,59.8,121.8,55s150-6.9,185.7-24.8c35.8-17.9,125.2-43.3,200.9-46.1
			c75.7-2.8,88.7,2.8,88.7,2.8"/>
		
			<path style="clip-path:url(#SVGID_00000072261839376272856260000007983463425856039081_);fill:none;stroke:#000000;stroke-width:0.6;stroke-linecap:round;stroke-linejoin:round;stroke-miterlimit:10;" d="
			M1019.6,0c0,0,42.6,34.5,61.2,20.1C1099.4,5.7,1104.2,0,1104.2,0"/>
		
			<path style="clip-path:url(#SVGID_00000072261839376272856260000007983463425856039081_);fill:none;stroke:#000000;stroke-width:2;stroke-linecap:round;stroke-linejoin:round;stroke-miterlimit:10;" d="
			M1320.9,0c-28.9,20.1-77,37.3-61.2,64.8s91.5,14.3,117.6,4.1s165.1-59.8,211.9-51.5c46.8,8.3,45.4-1.4,45.4-1.4"/>
		
			<path style="clip-path:url(#SVGID_00000072261839376272856260000007983463425856039081_);fill:none;stroke:#000000;stroke-width:0.6;stroke-linecap:round;stroke-linejoin:round;stroke-miterlimit:10;" d="
			M1372.5,0c0,0-15.8,28.4-37.1,37.3s-35.8,21.8-3.4,21.6c32.3-0.2,98.7-20.2,113.7-26.4c15-6.2,107.8-40.6,107.8-40.6"/>
		
			<path style="clip-path:url(#SVGID_00000072261839376272856260000007983463425856039081_);fill:none;stroke:#000000;stroke-width:0.6;stroke-linecap:round;stroke-linejoin:round;stroke-miterlimit:10;" d="
			M818.8,756.8c0,0-55.7,6.2-89.4-18.6c-33.7-24.8-51.6-36.5-60.5-44c-8.9-7.6-29.6-35.1,11-34.4c40.6,0.7,69.9,21.3,103.7,18.6
			c33.9-2.8,146.7-6.9,171.4,30.3c24.8,37.2,35.1,55,6.2,54.4C932.3,762.3,851.1,762.3,818.8,756.8z"/>
		
			<path style="clip-path:url(#SVGID_00000072261839376272856260000007983463425856039081_);fill:none;stroke:#000000;stroke-width:0.6;stroke-linecap:round;stroke-linejoin:round;stroke-miterlimit:10;" d="
			M764.4,716.3c0,0,39.9-17.9,42,2.8c2.1,20.6,0,28.2-21,17.2C764.4,725.2,760.3,725.9,764.4,716.3z"/>
		
			<path style="clip-path:url(#SVGID_00000072261839376272856260000007983463425856039081_);fill:none;stroke:#000000;stroke-width:2;stroke-linecap:round;stroke-linejoin:round;stroke-miterlimit:10;" d="
			M626.8,653.7c0,0,11.7-45.4,81.2-26.8s88.7,28.2,186.4,26.8s212.6,179.5,133.5,157.5c-79.1-22-140.3-9.6-235.3-35.1
			C697.7,750.6,600.7,719,626.8,653.7z"/>
		
			<path style="clip-path:url(#SVGID_00000072261839376272856260000007983463425856039081_);fill:none;stroke:#000000;stroke-width:0.6;stroke-linecap:round;stroke-linejoin:round;stroke-miterlimit:10;" d="
			M1600,813c-41-2-101.1-31-114.4-23.2c-13.3,7.8-74.5-13.8-112.4-21.3c-37.8-7.6-51.6,28.9-50.9,57.1c0.7,28.2,6.9,59.8-8.9,80.5
			c-15.8,20.6-78.4-6.9-105.9-31.6c-27.5-24.8-52.3,3.4-63.3-19.9c-11-23.4-28.2-46.8-44-61.9c-15.8-15.1-72.2-103.2-96.3-121.7
			c-24.1-18.6-50.9-20-74.3-30.3s-63.3-23.4-83.9-18.2c-20.6,5.2-61.9,10-147.2-13.4s-86,2.8-115.5,66.7c-29.5,64,41.2,61.2,44,65.6
			c0,0,77.7,17.6,85.1,39.3c7.3,21.7,160.5,32.3,180.7,32.5s167.8,32.3,107.3,118.5s-34.9,95.4-48.6,111
			c-13.8,15.6-80.7,64.4-36.7,101.4c44,37.1,69.4,48.1,64,92.1s-0.8,53.2,25.8,55.9s94.5,10.1,31.2,40.4
			c-63.3,30.3-126.6-1.8-147.7-29.4c-21.1-27.5-103.6-130.2-136.7-125.7c-33,4.6-92.5-11.9-78.3,55c14.1,67,132.5,73.4,105.9,190.8
			c-26.6,117.4-100,25.7-128.4,30.3c-28.4,4.6-56.9,10.1-103.6-20.2c-46.8-30.3-60.5-24.8-89.9-6.4c-29.4,18.3-51.4,53.2-93.6-65.1
			c-42.2-118.3-79.8-93.6-124.7-95.4c-44.9-1.8-164.9-57.6-182.8-8.7c-17.9,48.8,2.1,117.6-12.4,141s-48.2,56.4-48.2,56.4"/>
		
			<path style="clip-path:url(#SVGID_00000072261839376272856260000007983463425856039081_);fill:none;stroke:#000000;stroke-width:0.6;stroke-linecap:round;stroke-linejoin:round;stroke-miterlimit:10;" d="
			M-4.7,1409.7c0,0,32.7,17.9,32.5-92.2c-0.2-110.1,26.7-92.2,87.9-97.7s48.2,31,158.2,28.9s116.3,17.2,158.2,53
			c42,35.8,85.3,90.1,164.4,97.7c79.1,7.6,132.8,19.1,93.6-84.4c0,0-40.6-47-52.3-104.1s-4.1-80.5,26.1-74.3
			c30.3,6.2,66.7,11.7,108,15.8c41.3,4.1,50.9,49.5,78.4,60.5s80.3,109.8,74.8,2.5c0,0,4.6-16.5-27.5-50
			c-32.1-33.5-61.5-71.1-26.6-97.7c34.9-26.6,41.7-32.6,29.8-70.2s-9.7-46.8,34.1-69.7c43.8-22.9,25.5-73.4-75.4-90.8
			S700,816,666,789.4c-33.9-26.6-80.7-36.7-121.1-34.9c-40.4,1.8-79.8-6.5-55-29.4c24.8-22.9,35.8-11.9,62.4-59.6
			c26.6-47.7,52.3-94.9,83.5-88.3c31.2,6.6,114.3,35.5,164.2,26.4c49.9-9.2,53.6-41.7,105.9-11.5c52.3,30.3,42.2,44.9,86.9,56.6
			s33.7,17.2,56.4,42c22.7,24.8,66.7,105.2,113.5,110.8c46.8,5.5,35.1-0.7,52.3,15.1c17.2,15.8,55,79.8,75,61.2s7.6-47.9,0-64.9
			s-23.4-44.5,6.2-66.5c29.6-22,41.3-29.4,64.7-28.8s61.2-1.4,80.5-6.3c19.3-4.8,17.2,4.8,43.3,26.8s60.1,54.8,121.5,35.5"/>
		
			<path style="clip-path:url(#SVGID_00000072261839376272856260000007983463425856039081_);fill:none;stroke:#000000;stroke-width:2;stroke-linecap:round;stroke-linejoin:round;stroke-miterlimit:10;" d="
			M1606.2,236.8c0,0-161.4,0.7-218.5,31s-105.2,50.2-132.1,50.9s-37.8,8.3-19.9,18.6c17.9,10.3,64,24.1,56.4,34.4
			c-7.6,10.3-28.9,21.1-15.1,36s145.8,12.8,211.2,56.2s130.7,53.7,130.7,53.7"/>
		
			<path style="clip-path:url(#SVGID_00000072261839376272856260000007983463425856039081_);fill:none;stroke:#000000;stroke-width:0.6;stroke-linecap:round;stroke-linejoin:round;stroke-miterlimit:10;" d="
			M1595.4,495.4c-2.1-1.4-101.8-61.9-131.4-70.2c-29.6-8.3-64-19.3-44-24.1c19.9-4.8,71.5-13.8,101.8-17.9
			c30.3-4.1,60.5-5.8,22.7-15.3c-37.8-9.5-84.6-14.3-142.4-21.8c-57.8-7.6-77-17.2-49.5-30.3c27.5-13.1,87.4-46.1,177.5-46.8
			s111.4-4.1,111.4-4.1"/>
		
			<path style="clip-path:url(#SVGID_00000072261839376272856260000007983463425856039081_);fill:none;stroke:#000000;stroke-width:0.6;stroke-linecap:round;stroke-linejoin:round;stroke-miterlimit:10;" d="
			M1606.2,546.3c-22.5-8.3-119.5-64-169.7-72.9c-50.2-8.9-119.7-22.7-171.3-36.5c-51.6-13.8-77.7-11.9-79.8-29.3s22.7-34.6,4.1-45
			c-18.6-10.3-81.2-35.1-68.8-44c12.4-8.9,12.4-13.8,77.7-17.9c65.4-4.1,128.2-29.6,164.2-47.5c36-17.9,243.7-53.7,256.1-55"/>
		
			<path style="clip-path:url(#SVGID_00000072261839376272856260000007983463425856039081_);fill:none;stroke:#000000;stroke-width:0.6;stroke-linecap:round;stroke-linejoin:round;stroke-miterlimit:10;" d="
			M1606.2,170.1c-6.2,1.4-193.1,42.6-224.7,56.4c-31.6,13.8-113.5,45.4-170.6,46.1s-227.7,1.4-169.2,50.9
			c58.5,49.5,68.1,34.4,72.2,79.1c4.1,44.7,57.8,52.3,51.6,63.3c-6.2,11-32.8,30.3-46.3,37.8c-13.5,7.6-7.3,17.2-25.2,32.3
			c-17.9,15.1-50.9,24.1-77.7,10.3c-26.8-13.8-96.3-72.9-105.2-72.9s-36.5-27.5-35.1-40.6s1.4-42.6-44-14.4c0,0-23.7,16.5-31.8,48.8
			s-63.1,43.3-92,25.5s-33-76.4-93.6-73.6s-226.3-26.8-271.7,39.2s1.4,87.9,35.1,94.9c33.7,6.9,117.2,15.9,83.4,61.3
			c-33.9,45.4-111.6,121.8-124,148.6c-12.4,26.8-68.8,55-50.9,65.3c17.9,10.3,60.5-6.4,112.8,34.9c52.3,41.3,85.3,42.2,119.2,33
			c33.9-9.2,48.2-9.8,85.3,4.7c37.1,14.5,110.1,49.9,78.9,66.4c-31.2,16.5-150.4,36.7-189.9,88.1c-39.4,51.4,23.9,118.3-100,76.1
			c-123.9-42.2-109.1-4.6-158.7,0.9S18.2,1130.6,0,1159"/>
		
			<path style="clip-path:url(#SVGID_00000072261839376272856260000007983463425856039081_);fill:none;stroke:#000000;stroke-width:0.6;stroke-linecap:round;stroke-linejoin:round;stroke-miterlimit:10;" d="
			M-4.7,1192.3c0,0,49.5-39.9,90.8-29.6s108.7,4.4,147.9-3.7s89.4-15.4,142.4,0s126.6,69,141,56.6c14.4-12.4-35.1-139,8.9-162.3
			s135.5-31.6,163-42s95.6-42.6,55.7-88.1c-39.9-45.4-37.8-20.6-83.9-33c-46.1-12.4-13.8-24.8-68.1-31s-73.1,22-125.6,3.4
			c-52.5-18.6-97.9-30.7-102.1-49.7c-4.1-19.1-20.6-52.7,39.9-104c60.5-51.3,135.5-113.2,92.2-145.5
			c-43.3-32.3-156.6-16.7-147.2-69.5s89.4-62.6,105.2-60.5s173-26.8,200,23.4c27,50.2,61.1,89.7,101.8,73.5
			c40.7-16.2,70.1-55.6,92.1-53.8c22,1.8,75.2,19.3,90.8,49.5c15.6,30.3,55.9,65.1,89.9,64.2c33.9-0.9,78,22.5,99.1,53
			c21.1,30.5,71.5,41.5,81.6-4.4c10.1-45.9-53.2-94.5,0-99.1c53.2-4.6,92.7,14.7,129.3,22.9c36.7,8.3,131.1,44.9,181.6,30.3
			c50.4-14.7,83.9,33,97,35.8"/>
		
			<path style="clip-path:url(#SVGID_00000072261839376272856260000007983463425856039081_);fill:none;stroke:#000000;stroke-width:2;stroke-linecap:round;stroke-linejoin:round;stroke-miterlimit:10;" d="
			M-15,1245.2c0,0,15.1-55.9,61-58.7s69.7,15.6,153.2,10.1s52.6-21.7,135-10.4s83.3,15,143.8,59c60.5,44,124.4,63.3,104.9,5.5
			c-19.6-57.8-57.2-151.3-39.7-172.4c17.4-21.1,45.9-40.4,123.8-32.1s138.7-68.6,145.6-93.3c6.9-24.8,10.7-55.7-29-68.8
			S713,869.7,673,861.4c-40-8.3-22-30.7-90.1-39.1s-167.2,14.3-178.2-26.3c-11-40.6-3.4-72.9,44.7-103.9
			c48.2-31,109.4-92.6,100.7-131.6s-144-17.9-152.3-47.7c-8.3-29.8-6-47.7,28-57.3c33.9-9.6,204.5-9.2,211.9,24.3
			s60.5,75.2,109.1,71.5c48.6-3.7,47.3-6,70.2-19.3c22.9-13.3,64.2-38.8,94-1.7s57.1,68.2,118.3,82c61.2,13.8,48.8,28.9,76.4,57.8
			c27.5,28.9,33.7,42.6,90.8,27.5c57.1-15.1,33-96.3,72.2-106.6s132.8-21.3,206.4,31.3c73.6,52.6,109.7,73.3,125,79.4"/>
		
			<path style="clip-path:url(#SVGID_00000072261839376272856260000007983463425856039081_);fill:none;stroke:#000000;stroke-width:0.6;stroke-linecap:round;stroke-linejoin:round;stroke-miterlimit:10;" d="
			M-4.7,1364.9c0.7,2.3,8.9,19.3,12.2,8.7c3.2-10.5,0.9-64.2,3.2-91.3s7.3-57.3,24.3-64.9c17-7.6,54.1-17.2,117.4-6.7
			s156.4,14.7,178.9,10.5c22.5-4.1,89.9,16.1,103.6,28.4c13.8,12.4,111.4,119.2,163.7,107.5c52.3-11.7,50.9-15.8,32.3-75
			c-18.6-59.2-33-97-36.5-120.4c-3.4-23.4-28.9-51.6-24.1-69.5c4.8-17.9,11-31.6,61.2-17.9s129.1,42.6,160.9,2.8
			c31.7-39.9,59.9-66,53.1-101.1c-6.9-35.1,20.4-33.7,29.1-63.1c8.7-29.4-8.2-47-71.6-58.7s-69.6-11-109.5-28.2
			s-53.7-26.1-102.5-31.6s-39.2-11-74.3-7.6c-35.1,3.4-86.4,4.8-80.7-34.4s67.6-57.8,82.7-77.7c15.1-19.9,62.7-73.6,64-97.7
			c1.3-24.1,19.2-38.1-15.9-46.9c-35.1-8.8-61.9-14.3-74.3-21.9s-25.5-13.8-7.6-19.3c17.9-5.5,103.9-38.7,131.4,13
			c27.5,51.7,130.6,73,146.5,75.1c15.9,2.1,47.5-8.9,63.3-19.9c15.8-11,53.7-24.4,71.5-3.9c17.9,20.5,93.8,78.2,120.4,81
			s55,41.3,75.2,68.8s23.2,62.4,87.3,46.8s89.8-62.6,86.1-85.4c-3.7-22.8,7.3-56.3,34.9-48.7c27.5,7.6,49.5,2.8,77,6.5
			c27.5,3.8,59.8,3.1,83.9,37.5c24.1,34.4,33.7,68.1,64,77.1c30.3,8.9,44.3,13.1,92.2,9.4"/>
		
			<path style="clip-path:url(#SVGID_00000072261839376272856260000007983463425856039081_);fill:none;stroke:#000000;stroke-width:2;stroke-linecap:round;stroke-linejoin:round;stroke-miterlimit:10;" d="
			M1614.4,841.7c-33.9-8.3-45.9-18.3-46.8,0s8.3,62.4-41.3,69.7c-49.5,7.3-64.2-13.8-81.6-34.9s-71.5-50.4-75.2-28.4
			c-3.7,22-3.7,79.8-20.2,103.6c-16.5,23.8-11.9,39.4-47.7,16.5c-35.8-22.9-65.1-64.2-133.9-62.8s-90.8-28-122.9,38.1
			c-32.1,66-100,162.3-88.1,181.6c11.9,19.3,54.1,48.6,55.9,75.2c1.8,26.6,40.4,44.9,57.8,47.7s53.7,88.1-2.1,111.4
			c-55.7,23.4-111.4,22-169.9-15.1c-58.5-37.1-61.9-86.7-86-75.7c-24.1,11,21.3,54.6,25,75.7c3.7,21.1-10.3,63.3-36.8,103.6
			s-41.2,95.4-113.6,65.1c-72.5-30.3-161.4-29.8-212.3-0.9s-140.9,33-140.6-9.6c0.3-42.6,8.6-134.8-16.2-147.2
			c-24.8-12.4-31.2-67.9-80.3-68.6c-49.1-0.7-119.2-43.3-139.9-34.6s-53.2,20.6-33.5,114.2c0,0,24.8,45.4-33.5,87.6
			c-58.2,42.2-45.9,61-45.9,61"/>
		
			<path style="clip-path:url(#SVGID_00000072261839376272856260000007983463425856039081_);fill:none;stroke:#000000;stroke-width:0.6;stroke-linecap:round;stroke-linejoin:round;stroke-miterlimit:10;" d="
			M1618.8,943.9c0,0-68.1-4.8-83.2,4.1s-42,37.1-63.3,37.8s-66.7-3.4-86.7,13.8c-19.9,17.2-48.2,46.1-84.6,16.5s-41.3-65.4-64.7-66
			c-23.4-0.7-41.3-8.9-61.2-1.4c-19.9,7.6-39.9,2.8-55-0.7c-15.1-3.4-44.7-10.3-57.1,42c0,0-50.2,67.4-43.3,125.9
			c6.9,58.5,42,93.6,66.7,98.4c24.8,4.8,44.7,50.9,37.1,102.5c-7.6,51.6-15.1,127.9-114.9,88.7c0,0-130.7-57.1-166.5,34.4
			s-72.9,128.6-120.4,121.1s-148.6-54.3-186.4-29.6c-37.8,24.8-79.8,42.6-132.8,34.4s-84.6,4.8-95.6-59.8
			c-11-64.7,10.1-105.5-29.6-162.3s-49.5-26.1-78.4-37.8c-28.9-11.7-117.6-48.4-123.1-19.1c-5.5,29.4,36.5,119.5,21.3,139.4
			c-15.1,19.9-103.2,63.4-64.7,108c0,0,13.1,17.8,42.6,33.6s15.1,40.6,15.1,40.6"/>
		
			<path style="clip-path:url(#SVGID_00000072261839376272856260000007983463425856039081_);fill:none;stroke:#000000;stroke-width:0.6;stroke-linecap:round;stroke-linejoin:round;stroke-miterlimit:10;" d="
			M136.8,1594.7c1.8-2.8,19.3-17.4-11-33s-80.7-34.9-62.4-60.5s64.2-23.8,67-61.5c2.8-37.6-32.1-78.9-28.9-101.8s-17-46.8,19.7-38.5
			s64.2,30.3,81.6,30.3s67-8.3,72.5,52.3c5.5,60.5-36.7,97.2-29.4,140.3c7.3,43.1,25.7,47.7,8.3,65.1s-56.9,22.9-62.4,41.3"/>
		
			<path style="clip-path:url(#SVGID_00000072261839376272856260000007983463425856039081_);fill:none;stroke:#000000;stroke-width:0.6;stroke-linecap:round;stroke-linejoin:round;stroke-miterlimit:10;" d="
			M167.7,1410.7c0,0-70-86.6,0-70.1s120.5,36.7,86.5,83.5S168.3,1427.6,167.7,1410.7z"/>
		
			<path style="clip-path:url(#SVGID_00000072261839376272856260000007983463425856039081_);fill:none;stroke:#000000;stroke-width:0.6;stroke-linecap:round;stroke-linejoin:round;stroke-miterlimit:10;" d="
			M1630.5,1064.8c-5.5,5.7-33,49.8-85.3,64.9s-70.2-74.3-103.2-81.2c-33-6.9-49.5-2.8-94.9,8.3c-45.4,11-72.9-43.6-110.1-63.1
			s-16.3-25-56.3-11.2c-40,13.8-56.5-0.9-73,11.2c-16.5,12.2-28.9,18.1-45.4,48.2c-16.5,30-2.1,113.3,9.6,123.6
			c11.7,10.3,65.4,31.6,69.5,77.7c4.1,46.1,14.4,118.3-6.2,150.6c-20.6,32.3-55,97-117.6,72.9s-89.9-66.7-147.2-15.8
			s-31,92.4-56.6,109.8c-25.7,17.4-62.4,33.9-85.3,32.1c-22.9-1.8-86.2-1.8-119.2-24.8s-49.5-20.2-61.5-4.6
			c-11.9,15.6-35.8,25.7,0,56.9"/>
		
			<path style="clip-path:url(#SVGID_00000072261839376272856260000007983463425856039081_);fill:none;stroke:#000000;stroke-width:0.6;stroke-linecap:round;stroke-linejoin:round;stroke-miterlimit:10;" d="
			M1627.3,1217.5c-27.3-2.5-85.3,16.7-104.6,5.7c-19.3-11-33-16.5-53.2-44.9s-21.1-53.2-48.6-59.6s-61.5-11.9-68.8,9.2
			c-7.3,21.1-26.6,106.8-49.5,41.9s0.9-99.2-47.7-127.9c-48.6-28.7-36.7-9.4-67.9-6.7s-111-20.2-92.6,60.5
			c18.3,80.7,76.1,68.8,78,96.3c1.8,27.5,22,86.2,4.6,135.7s-11.9,96.3-44.9,126.6c-33,30.3-67.9,44-23.8,67.9
			c44,23.8,76.1,30.3,105.5,19.3s34.9-44,74.3-22c39.4,22,105.5,43.1,130.2,44c24.8,0.9,66,9.2,93.6,28.4
			c27.5,19.3,23.6,32.1,55.9,28.4c32.4-3.7,79.8-18.5,88.1-19.8"/>
		
			<path style="clip-path:url(#SVGID_00000072261839376272856260000007983463425856039081_);fill:none;stroke:#000000;stroke-width:2;stroke-linecap:round;stroke-linejoin:round;stroke-miterlimit:10;" d="
			M913,1630.5c0,0-76.4-7.6-76.4-45.4s48.2-143.1,110.8-101.8s65.4,72.9,51.6,99.8C985.2,1609.8,955,1630.5,913,1630.5z"/>
		
			<path style="clip-path:url(#SVGID_00000072261839376272856260000007983463425856039081_);fill:none;stroke:#000000;stroke-width:0.6;stroke-linecap:round;stroke-linejoin:round;stroke-miterlimit:10;" d="
			M906.8,1580.9c0,0-20.6-2.1-17.9-16.5c2.8-14.4,14.4-68.8,39.9-53c25.5,15.8,45.4,37.8,22.7,53.7S906.8,1580.9,906.8,1580.9z"/>
		
			<path style="clip-path:url(#SVGID_00000072261839376272856260000007983463425856039081_);fill:none;stroke:#000000;stroke-width:0.6;stroke-linecap:round;stroke-linejoin:round;stroke-miterlimit:10;" d="
			M1606.2,1252.1c0,0-109.1,14.7-136.7-34.6c-27.5-49.3-49.5-77.3-82.5-58.5c-33,18.8-20.6,72.4-33,95.1
			c-12.4,22.7-44,24.1-61.9-8.9c-17.9-33-28.9-89.4-38.5-127.9c-9.6-38.5-4.1-69.2-27.5-52.5s-114.2,9.9-78.4,59.4
			c35.8,49.5,55,20.6,56.4,71.5c1.4,50.9,42.6,61,28.9,91s-78.4,155-72.9,176.4c5.5,21.5-35.8,76.3,41.3,45.4
			c77-30.8,110.1-30.8,144.5-13s41.3,0.3,68.8,22.2c27.5,21.9,66,23.2,88.1,41.1c22,17.9,29.1,38.5,63.3,27.5
			c34.2-11,40.8-26,48.6-34.3"/>
		
			<path style="clip-path:url(#SVGID_00000072261839376272856260000007983463425856039081_);fill:none;stroke:#000000;stroke-width:0.6;stroke-linecap:round;stroke-linejoin:round;stroke-miterlimit:10;" d="
			M1513.5,1264.5c0,0,47.7,7.3,42.2,44s-5.5,82.5,0.4,116.5c6,33.9,27.1,140.3-51.8,101.8c-78.9-38.5-115.6-71.5-144-72.5
			c-28.4-0.9-98.1-6.4-123.8,0.9s-44.9-3.7-7.3-89.9c37.6-86.2,44.9-111.5,71.5-78.7c26.6,32.8,80,36.6,84.9,10.9
			s-9.7-121.2,20.5-94.6C1436.5,1229.7,1499.8,1271.8,1513.5,1264.5z"/>
		
			<path style="clip-path:url(#SVGID_00000072261839376272856260000007983463425856039081_);fill:none;stroke:#000000;stroke-width:2;stroke-linecap:round;stroke-linejoin:round;stroke-miterlimit:10;" d="
			M1258.5,1377.1c0,0,11-80.5,36.7-62.1c25.7,18.3,78.2,26.6,90.4,21.1c12.3-5.5,15-77,44.4-74.3s97.2,10.1,98.1,105
			c0.9,94.9,21.1,141.7-22.9,127c-44-14.7-94.5-82.5-166.9-71.5C1265.9,1433.3,1239.3,1404.4,1258.5,1377.1z"/>
		
			<path style="clip-path:url(#SVGID_00000072261839376272856260000007983463425856039081_);fill:none;stroke:#000000;stroke-width:0.6;stroke-linecap:round;stroke-linejoin:round;stroke-miterlimit:10;" d="
			M1422.7,1396.6c0,0,19.3-125.7,54.1-72.9c34.9,52.7,49.5,139,25.7,133.5C1478.7,1451.6,1421.7,1402.8,1422.7,1396.6z"/>
		
			<path style="clip-path:url(#SVGID_00000072261839376272856260000007983463425856039081_);fill:none;stroke:#000000;stroke-width:0.6;stroke-linecap:round;stroke-linejoin:round;stroke-miterlimit:10;" d="
			M1451.2,1379.1c0,0,12.8-43.2,21.1-2.8c8.3,40.5-2.8,46-10.5,30.4C1453.9,1391.1,1451.2,1379.1,1451.2,1379.1z"/>
		
			<path style="clip-path:url(#SVGID_00000072261839376272856260000007983463425856039081_);fill:none;stroke:#000000;stroke-width:0.6;stroke-linecap:round;stroke-linejoin:round;stroke-miterlimit:10;" d="
			M1296.6,1368.6c0,0-12.8,22.9,24.8,20.2c37.6-2.8,59.2-21.5,34.4-29.8C1331,1350.7,1297.5,1340.6,1296.6,1368.6z"/>
	</g>
</g>
</svg>
